<svg xmlns="http://www.w3.org/2000/svg" width="288" height="24" fill="none"><g clip-path="url(#a)"><path fill="url(#b)" d="M238.386 2.099c-.268 2.643-1.796 4.788-5.005 6.272l-3.109.09c-1.795.046-4.18.102-6.599.14-3.029.047-6.111.066-8.181 0h-.469c-2.946-.085-5.747-.92-7.879-2.348 0 0-1.34 1.705-2.881 2.348-1.34.559-25.252.47-39.396.286l-5.052-.075c-11.939-.216-15.765-5.967-15.765-5.967s-3.846 5.751-15.779 5.953l-5.051.075c-14.144.174-38.056.273-39.397-.286-1.514-.639-2.88-2.348-2.88-2.348-2.132 1.428-4.933 2.263-7.88 2.348h-.469c-2.07.06-5.152.042-8.18 0a637 637 0 0 1-6.6-.141l-3.109-.09c-3.21-1.483-4.737-3.628-5.005-6.272l-9.574 10.747 9.547 10.728c.275-2.639 1.803-4.78 5.005-6.263 0 0 1.24-.043 3.11-.09 4.02-.103 10.967-.253 14.74-.14h1.353c2.65.187 5.135.988 7.061 2.277 0 0 1.34-1.7 2.882-2.348.522-.22 4.482-.338 9.956-.394h.02a755 755 0 0 1 13.46 0h.04c7.859.033 15.893.117 20.945.207 12.06.206 15.778 5.938 15.778 5.938s3.719-5.732 15.772-5.938c5.052-.09 13.085-.174 20.944-.207H194.3c5.474.056 9.434.174 9.956.394 1.514.639 2.881 2.348 2.881 2.348 1.927-1.289 4.412-2.09 7.062-2.277h1.353c3.746-.113 10.687.037 14.74.14 1.87.047 3.109.09 3.109.09 3.203 1.483 4.73 3.624 5.005 6.263l9.548-10.728z"/><path fill="#B83D88" d="M222.815 14.47c-3.892-1.409-7.959-2.817-8.475-2.817-1.025 0-2.955.798-6.144 1.516s-4.02-.47-11.491-.939c-7.47-.47-8.435.685-15.135 1.484s-18.66-.559-23.45-.47c-3.104.126-6.194.385-9.253.775l-2.559.314-2.292.31-2.298-.31-2.559-.314c-3.059-.39-6.149-.649-9.253-.775-4.777-.08-16.75 1.277-23.45.47-6.7-.808-7.624-1.977-15.095-1.507-7.47.47-8.308 1.676-11.49.939-3.183-.738-5.12-1.517-6.144-1.517-.516 0-4.583 1.409-8.476 2.817a932 932 0 0 0-7.457 2.737c4.02-.103 10.968-.253 14.74-.14h1.353c2.65.186 5.135.988 7.062 2.276 0 0 1.34-1.7 2.881-2.347.523-.22 4.483-.338 9.956-.395h.014a755 755 0 0 1 13.46 0h.04c7.859.033 15.893.118 20.945.207 12.06.207 15.564 5.601 15.771 5.934.208-.333 3.719-5.727 15.772-5.934 5.052-.09 13.085-.174 20.944-.206H194.3c5.474.056 9.434.173 9.956.394 1.514.638 2.881 2.347 2.881 2.347 1.927-1.288 4.412-2.09 7.062-2.277h1.353c3.746-.112 10.687.038 14.74.141-.02.024-3.664-1.338-7.477-2.713" opacity=".3" style="mix-blend-mode:multiply"/><path fill="#B83D88" d="M214.748 17.136c.784 0 10.13.376 16.013.07 2.111 0 2.613-5.074 1.508-7.511-.342-.756-.845-1.254-1.508-1.254-2.64-.145-6.452-.117-9.815-.042-2.124.047-4.074.113-5.434.17 2.432.112 1.749 8.107-.57 8.53a1 1 0 0 1-.194.037m-141.336 0c-.784 0-10.13.376-16.013.07-2.11 0-2.613-5.074-1.508-7.511.342-.756.845-1.254 1.508-1.254 2.64-.145 6.452-.117 9.815-.042 2.124.047 4.074.113 5.434.17-2.432.112-1.749 8.107.57 8.53a1 1 0 0 0 .194.037" opacity=".3" style="mix-blend-mode:multiply"/><path fill="url(#c)" d="M214.26 17.136c.784 0 10.13.376 16.013.07 2.11 0 2.613-5.074 1.507-7.511-.341-.756-.844-1.254-1.507-1.254-2.64-.145-6.452-.117-9.816-.042a294 294 0 0 0-5.433.17c2.432.112 1.748 8.107-.57 8.53a1 1 0 0 1-.194.037"/><path fill="url(#d)" d="m238.386 2.099 9.554 10.732-9.554 10.737 2.774-10.737z"/><path fill="#4D3DB3" d="M214.26 17.127h.81c2.473 0 3.257-8.45.764-8.55h-.824c2.506.118 1.722 8.55-.75 8.55" style="mix-blend-mode:overlay"/><path fill="url(#e)" d="M73.806 17.136c-.784 0-10.13.376-16.013.07-2.11 0-2.613-5.074-1.507-7.511.341-.756.844-1.254 1.507-1.254 2.64-.145 6.453-.117 9.816-.042 2.124.047 4.074.113 5.434.17-2.433.112-1.75 8.107.57 8.53q.091.029.193.037"/><path fill="#4D3DB3" d="M73.808 17.127h-.825c-2.472 0-3.256-8.45-.763-8.55h.81c-2.479.118-1.695 8.55.778 8.55" style="mix-blend-mode:overlay"/><path fill="#B83D88" d="m238.386 23.568 9.554-10.737h-6.78z" opacity=".6" style="mix-blend-mode:multiply"/><path fill="#fff" d="M220.43 8.418h.408c.885.023 1.829.09 2.808.174 2.727.274 5.433.646 8.107 1.112 2.05.348 3.497.625 3.645.625.381 0 1.52-.85 2.807-2.658 1.226-1.713.261-5.206.161-5.554v-.028c-.268 2.643-1.796 4.789-5.005 6.273l-3.109.089c-2.62-.136-6.432-.108-9.822-.033" style="mix-blend-mode:soft-light"/><path fill="#B83D88" d="M239.19 15.07a24.4 24.4 0 0 0-3.35-2.272s.965 1.22-13.031 1.672a363 363 0 0 1-11.035.16c-19.001.027-49.58 0-63.945 0H76.286c-4.449 0-8.08-.067-11.035-.16C51.255 14 52.22 12.798 52.22 12.798a24.4 24.4 0 0 0-3.35 2.272c-.79.794.81 8.489.81 8.489.275-2.639 1.803-4.78 5.005-6.263 0 0 1.24-.042 3.11-.09 4.02-.103 10.967-.253 14.74-.14h1.353c2.65.187 5.135.988 7.061 2.277 0 0 1.34-1.7 2.881-2.348.523-.22 4.483-.338 9.957-.394h.013c3.946-.037 8.663-.042 13.46 0h.04c7.86.033 15.893.117 20.945.207 12.06.206 15.564 5.6 15.772 5.934.207-.334 3.718-5.728 15.771-5.934 5.052-.09 13.086-.174 20.945-.207H194.3c5.474.056 9.434.174 9.956.394 1.515.639 2.881 2.348 2.881 2.348 1.927-1.289 4.412-2.09 7.062-2.277h1.354c3.745-.113 10.686.037 14.74.14 1.869.048 3.108.09 3.108.09 3.203 1.483 4.731 3.624 5.005 6.263 0 0 1.588-7.695.784-8.489" opacity=".3" style="mix-blend-mode:multiply"/><path fill="#B83D88" d="M233.381 17.296c3.209 1.483 4.737 3.629 5.005 6.272.492-1.613.305-3.29-.536-4.831-1.421-2.474-2.962-3.15-2.962-3.15z" opacity=".6" style="mix-blend-mode:multiply"/><path fill="#fff" d="m233.381 8.37 1.722 1.02s.971-.277 2.392-2.348c.948-1.546 1.259-3.247.897-4.91v-.029c-.274 2.639-1.802 4.784-5.011 6.268ZM144.05 2.873c.181.418 2.479 5.338 9.165 6.456 2.714.47 7.19.122 11.652-.47l-5.052-.075c-11.939-.188-15.497-5.474-15.765-5.91Zm63.094 3.381c.08.164 1.561 2.957 5.681 2.704a24 24 0 0 0 2.68-.352h-.469c-2.952-.085-5.758-.92-7.892-2.352" style="mix-blend-mode:soft-light"/><path fill="#B83D88" d="M144.05 22.808c.208-.334 3.718-5.728 15.772-5.935 5.051-.089 13.085-.174 20.944-.206-6.747-.3-27.028-1.043-31.189.633-1.446.574-2.693 1.365-3.649 2.318-.956.952-1.597 2.042-1.878 3.19m63.094-3.395c1.926-1.288 4.411-2.09 7.061-2.277.262 0 .536-.042.818-.052h.536a24 24 0 0 0-2.962-.403c-3.383-.174-5.34 2.568-5.453 2.732M194.3 16.69c5.474.056 9.433.174 9.956.394 1.514.639 2.881 2.348 2.881 2.348s-.456-3.183-2.961-3.183c-1.427-.01-6.117.23-9.876.441" opacity=".6" style="mix-blend-mode:multiply"/><path fill="url(#f)" d="M210.38 9.7c-1.139.215-3.645 2.234-4.69 2.126s-9.863-.939-14.493-.742c-4.629.198-17.748.902-19.872.902s-16.589.051-18.143.051c-3.748-1.182-6.922-3.106-9.133-5.535-2.217 2.43-5.397 4.354-9.152 5.535-1.554 0-16.046-.051-18.143-.051s-15.25-.69-19.873-.902c-4.623-.21-13.44.653-14.472.742-1.031.09-3.564-1.91-4.69-2.127-1.125-.215-5.36-.741-5.36-.741s3.11.798 3.947 1.328 2.807 3.08 7.584 2.39 7.585-1.591 13.802-.69c6.218.901 10.78 1.629 16.241 1.38 4.69-.225 18.324-.605 22.224-.713 1.07.382 2.084.836 3.028 1.356.349.193.67.4 1.052.63 1.374.882 3.779 3.586 3.799 3.61.02.023 2.432-2.728 3.806-3.61.348-.23.703-.437 1.052-.63a21 21 0 0 1 3.028-1.333c3.899.108 17.561.47 22.224.714 5.46.267 10.016-.47 16.234-1.38 6.218-.911 9.025 0 13.802.69s6.754-1.878 7.585-2.39c.83-.512 3.973-1.352 3.973-1.352s-4.201.53-5.36.742m-59.49 2.507c-1.716.461-3.27 1.177-4.556 2.098-.14.099-.281.202-.415.315a8.9 8.9 0 0 0-1.87 1.957l-.04.052a.2.2 0 0 1 0-.052 8.8 8.8 0 0 0-1.842-1.939 6 6 0 0 0-.416-.314c-1.284-.933-2.847-1.656-4.576-2.117 2.818-.856 5.21-2.277 6.874-4.085 1.662 1.808 4.052 3.23 6.868 4.085z"/><path fill="#B83D88" d="M210.38 9.657c-1.139.216-3.645 2.235-4.69 2.127s-9.863-.939-14.493-.742c-4.629.197-17.748.902-19.872.902s-16.589.051-18.143.051c-3.75-1.181-6.924-3.105-9.133-5.535-2.215 2.43-5.396 4.355-9.152 5.535-1.554 0-16.046-.051-18.143-.051s-15.263-.676-19.886-.902-13.4.634-14.492.742-3.565-1.91-4.69-2.127-5.327-.737-5.327-.737.965.249 1.964.559c1.246.164 2.733.37 3.35.47 1.138.215 3.644 2.234 4.69 2.126 1.045-.108 9.862-.939 14.492-.742 4.629.197 17.748.902 19.872.902s16.589.051 18.143.051c3.763-1.176 6.953-3.096 9.179-5.525 2.216 2.43 5.397 4.354 9.153 5.535 1.554 0 16.046-.052 18.143-.052s15.25-.69 19.873-.901 13.4.633 14.492.742c1.092.107 3.564-1.911 4.69-2.127.609-.113 2.097-.32 3.35-.47.998-.324 1.99-.568 1.99-.568s-4.201.526-5.36.737" opacity=".3" style="mix-blend-mode:multiply"/><path fill="#B83D88" d="M150.891 12.207a32 32 0 0 0-3.652 1.807c-1.427.888-2.501 2.02-3.115 3.286a20.5 20.5 0 0 0-1.783-2.098c-1.393-1.521-4.944-2.892-5.165-2.977 1.724.457 3.284 1.173 4.569 2.099q.213.146.416.315a8.8 8.8 0 0 1 1.842 1.938.1.1 0 0 0 0 .052l.04-.052a8.8 8.8 0 0 1 1.843-1.939 6 6 0 0 1 .415-.314c1.293-.93 2.859-1.653 4.59-2.117" opacity=".3" style="mix-blend-mode:multiply"/><path fill="#fff" d="M70.309 9.188c0-.197-1.561-.066-5.233-.197-3.015-.113-4.757-.3-6.88.356-.624.198-1.34.409-1.28.62.1.545 5.132.71 9.755.061 1.373-.169 3.678-.596 3.638-.84m147.381-.174c0-.197 1.561-.066 5.233-.197 3.015-.113 4.757-.3 6.881.357.623.192 1.34.408 1.279.62-.094.544-5.132.708-9.755.06-1.367-.197-3.678-.596-3.638-.84" opacity=".6" style="mix-blend-mode:screen"/><path fill="#FFA000" d="m239.605 18.897 1.555-6.066-2.774-10.732 3.383 10.258 6.171.474-6.11.024z"/><path fill="url(#g)" d="M49.68 2.099 40.126 12.83l9.554 10.737-2.767-10.737z"/><path fill="#fff" d="M67.61 8.418h-.41c-.884.023-1.828.09-2.807.174-2.73.277-5.438.652-8.113 1.122-2.01.347-3.491.615-3.639.615-.381 0-1.52-.85-2.807-2.658-1.226-1.704-.254-5.197-.16-5.544v-.028c.267 2.643 1.795 4.788 5.004 6.272l3.11.09c2.646-.146 6.458-.118 9.821-.043Z" opacity=".5" style="mix-blend-mode:soft-light"/><path fill="#B83D88" d="m49.68 23.568-9.554-10.737h6.787z" opacity=".6" style="mix-blend-mode:multiply"/><path fill="#B83D88" d="M54.685 17.296c-3.21 1.483-4.737 3.629-5.005 6.272-.481-1.615-.284-3.293.57-4.831 1.42-2.474 2.96-3.15 2.96-3.15z" opacity=".6" style="mix-blend-mode:multiply"/><path fill="#fff" d="m54.685 8.37-1.722 1.02s-.971-.277-2.392-2.348c-.95-1.547-1.26-3.25-.897-4.915v-.028c.274 2.643 1.802 4.788 5.011 6.272Z" opacity=".5" style="mix-blend-mode:soft-light"/><path fill="#fff" d="M144.049 2.873c-.181.418-2.479 5.338-9.165 6.456-2.714.47-7.189.122-11.652-.47l5.052-.075c11.906-.188 15.464-5.474 15.765-5.91ZM80.922 6.254c-.08.164-1.56 2.957-5.681 2.704a24 24 0 0 1-2.68-.352h.468c2.953-.085 5.759-.92 7.893-2.352" style="mix-blend-mode:soft-light"/><path fill="#B83D88" d="M144.05 22.808c-.208-.334-3.718-5.728-15.772-5.935-5.052-.089-13.085-.174-20.944-.206 6.747-.3 27.028-1.043 31.189.633 1.446.574 2.693 1.365 3.649 2.318.956.952 1.597 2.042 1.878 3.19m-63.128-3.395c-1.927-1.288-4.412-2.09-7.062-2.277-.261 0-.536-.042-.817-.052h-.536c.968-.195 1.959-.33 2.961-.403 3.384-.174 5.34 2.568 5.454 2.732M93.8 16.69c-5.474.056-9.433.174-9.956.394-1.514.639-2.881 2.348-2.881 2.348s.456-3.183 2.961-3.183c1.394-.01 6.084.23 9.876.441" opacity=".6" style="mix-blend-mode:multiply"/><path fill="#FFA000" d="M49.68 2.099 46.913 12.83l1.488 5.667-2.198-5.526-6.077-.141 6.037-.498z"/><path fill="url(#h)" d="M1.152 16.164c2.399.512 5.85 1.282 7.47 1.775 2.614.798 7.277 2.63 7.277 2.63s2.961-2.231 2.961-1.513c0 .719.114 3.348 1.595 3.587S42.21 24 42.21 24a29 29 0 0 1-3.853-4.62c-1.212-1.83-1.601-6.948-1.46-8.83.301-4.404 3.698-5.855 3.906-5.92L38.773 0s-7.953 1.568-12.14 1.995c-2.728.277-8.912.08-8.912.08l-.817.573-2.982 2.09-3.484 2.44v.395l.087 1.197-1.252-.244-.77-.15-7.92 5.807-.128.094c-.217.155-.363.35-.422.563-.083.28-.014.57.193.814.207.245.538.427.926.51"/><path fill="url(#i)" d="M1.152 16.164c2.399.512 5.85 1.282 7.47 1.775 2.614.798 7.277 2.63 7.277 2.63s2.961-2.231 2.961-1.513c0 .719.114 3.348 1.595 3.587S42.21 24 42.21 24a29 29 0 0 1-3.853-4.62c-1.212-1.83-1.601-6.948-1.46-8.83.301-4.404 3.698-5.855 3.906-5.92L38.773 0s-.456 4.146-2.593 4.427c-2.138.282-13.883 1.474-13.883 1.474l-4.569-3.816c.087.16 1.494 2.774 2.211 3.816a15 15 0 0 0 2.445 2.432s-7.644 2.672-9.326 3.465-3.645 1.676-3.015 2.395c.63.718 7.906 1.511 9.045 1.83s8.127 2.404 9.052 2.69c-.978-.244-8.945-2.22-9.688-2.347s-10.58-1.474-10.58-1.474-2.331 1.155-4.02.639c-1.688-.517-1.648-1.16-.85-1.836.354-.296 3.209-2.643 6.31-5.164l-.77-.15-7.96 5.802-.127.094c-.217.155-.363.35-.422.563-.083.28-.014.57.193.814.207.245.538.427.926.51m29.594-2.887c-1.534.277-18.143.24-18.143.24s9.272-4.428 11.658-5.165 10.813-.798 10.813-.798-2.787 5.441-4.328 5.723"/><path fill="url(#j)" d="m10.465 7.573 3.457-2.817-3.484 2.441z"/><path fill="#B83D88" d="M1.152 16.164c2.399.512 5.85 1.282 7.47 1.775 2.614.798 7.277 2.63 7.277 2.63s2.961-2.23 2.961-1.513c0 .719.114 3.348 1.595 3.587S42.21 24 42.21 24a29 29 0 0 1-3.853-4.62c-1.212-1.83-1.601-6.948-1.46-8.83.301-4.404 3.698-5.855 3.906-5.92-.308.107-5.173 1.877-5.36 7.61-.14 4.783 1.876 7.375 1.876 7.375-2.84.55-5.795.743-8.73.573a115 115 0 0 0-9.045-.16c.72-.53 1.543-.985 2.445-1.352 1.079-.361-7.624-1.554-10.807-2.075-3.182-.521-8.308-.756-9.447-.939-.673-.146-1.267-.433-1.702-.822-.083.28-.014.57.193.815.207.244.538.426.926.51Z" opacity=".6" style="mix-blend-mode:multiply"/><path fill="#fff" d="M17.795 4.225c.503.226-.114 1.498-.301 1.878-.945 1.949-2.921 3.057-4.69 4.066-7.323 4.155-8 4.826-8.208 4.685-.85-.577 11.578-11.356 13.2-10.629ZM35.47 2.211c.238.099.413.257.49.443a.56.56 0 0 1-.074.557c-.463.47-2.11.432-3.887.47-5.118.169-8.04 1.089-8.234.836-.194-.254 2.68-1.066 4.114-1.447 2.271-.563 6.137-1.572 7.591-.859m1.875 17.404-.281-.47a72 72 0 0 1-5.46.16 28 28 0 0 1-3.907-.526l-2.506 1.259a32 32 0 0 1 3.397.131c2.365.32 8.757-.554 8.757-.554" opacity=".5" style="mix-blend-mode:soft-light"/><path fill="#B83D88" d="M38.994 2.817a6.4 6.4 0 0 1-.959 1.737.97.97 0 0 1-.395.306 1.5 1.5 0 0 1-.563.121c-.857.127-5.654.723-6.613.85-1.835.235-6.137.86-7.926 1.056-.067 0-.14.038-.207 0a6 6 0 0 1-.67-.47l-.892-.755c.405.48.876.932 1.408 1.347.1.085.274.075.422.08 2.68-.16 5.36-.47 8.04-.817 2.439-.37 4.944-.6 7.283-1.216.797-.587.877-1.502 1.072-2.24Z" opacity=".6" style="mix-blend-mode:multiply"/><path fill="#fff" d="M33.734 8.352c0-.211-4.53-.629-9.213.578-3.812.985-6.465 2.718-6.318 2.892s2.874-1.202 7.678-2.273c4.804-1.07 7.873-1.023 7.853-1.197" opacity=".5" style="mix-blend-mode:soft-light"/><path fill="url(#k)" d="M286.847 16.164c-2.398.512-5.849 1.282-7.47 1.775-2.613.798-7.276 2.63-7.276 2.63s-2.962-2.231-2.962-1.513c0 .719-.114 3.348-1.594 3.587-1.481.24-21.729 1.357-21.729 1.357 1.485-1.453 2.775-3 3.853-4.62 1.213-1.83 1.601-6.948 1.461-8.83-.329-4.404-3.726-5.855-3.9-5.92L249.24 0s7.966 1.568 12.141 1.995c2.726.277 8.911.08 8.911.08l.817.573 2.981 2.09 3.484 2.44v.395l-.087 1.197 1.253-.244.771-.15 7.919 5.807.127.094c.217.155.364.35.423.563.082.28.011.572-.199.817-.209.245-.543.426-.934.507"/><path fill="url(#l)" d="M287.966 14.84a1.05 1.05 0 0 0-.422-.563l-.127-.094-7.926-5.812-.771.15a3163 3163 0 0 1 6.312 5.188c.797.676.85 1.315-.851 1.836-1.702.52-4.02-.639-4.02-.639s-9.782 1.352-10.58 1.474c-.797.122-8.71 2.085-9.688 2.348.931-.287 7.993-2.39 9.059-2.69s8.421-1.113 9.045-1.831c.623-.719-1.34-1.597-3.015-2.395s-9.327-3.465-9.327-3.465a15 15 0 0 0 2.446-2.432c.717-1.042 2.124-3.657 2.211-3.816l-4.543 3.816s-11.758-1.22-13.923-1.488C249.682 4.16 249.24 0 249.24 0l-2.043 4.624c.207.085 3.604 1.517 3.933 5.92.14 1.878-.248 7-1.461 8.832a29 29 0 0 1-3.853 4.62s20.255-1.118 21.729-1.357c1.474-.24 1.594-2.869 1.594-3.587 0-.719 2.962 1.511 2.962 1.511s4.69-1.83 7.276-2.629c1.621-.493 5.072-1.263 7.47-1.774.388-.083.717-.264.924-.508.206-.244.276-.534.195-.812m-35.041-7.267s8.422.08 10.814.798 11.658 5.164 11.658 5.164-16.609.038-18.144-.24c-1.534-.276-4.328-5.722-4.328-5.722"/><path fill="url(#m)" d="m277.534 7.573-3.457-2.817 3.484 2.441z"/><path fill="#B83D88" d="M286.847 16.164c-2.398.512-5.849 1.282-7.47 1.775-2.613.798-7.276 2.63-7.276 2.63s-2.962-2.23-2.962-1.513c0 .719-.114 3.348-1.594 3.587-1.481.24-21.729 1.357-21.729 1.357 1.485-1.453 2.775-3 3.853-4.62 1.213-1.83 1.601-6.948 1.461-8.83-.329-4.404-3.726-5.855-3.9-5.92.308.107 5.173 1.877 5.36 7.61.141 4.783-1.876 7.375-1.876 7.375a35.3 35.3 0 0 0 8.697.573c3.008-.172 6.028-.225 9.045-.16a11.3 11.3 0 0 0-2.466-1.37c-1.079-.362 7.625-1.555 10.807-2.076 3.183-.52 8.308-.756 9.447-.939.674-.147 1.268-.436 1.702-.826.093.28.032.575-.172.825s-.535.436-.927.522" opacity=".6" style="mix-blend-mode:multiply"/><path fill="#fff" d="M270.205 4.225c-.503.226.114 1.498.301 1.878.938 1.949 2.921 3.057 4.69 4.066 7.31 4.146 7.98 4.817 8.188 4.695.871-.587-11.558-11.366-13.179-10.639M252.53 2.211c-.238.099-.413.257-.491.443a.56.56 0 0 0 .075.557c.463.47 2.111.432 3.886.47 5.119.169 8.04 1.089 8.235.836.194-.254-2.68-1.066-4.114-1.447-2.251-.563-6.137-1.572-7.591-.859m-1.876 17.404.282-.47a72 72 0 0 0 5.46.16 28 28 0 0 0 3.906-.526l2.506 1.277a32 32 0 0 0-3.397.132c-2.372.3-8.757-.573-8.757-.573" opacity=".5" style="mix-blend-mode:soft-light"/><path fill="#B83D88" d="M249 2.817c.22.604.544 1.187.964 1.737.09.125.226.231.395.306.169.076.364.117.564.121.85.127 5.654.723 6.612.85 1.836.235 6.138.86 7.927 1.056.067 0 .14.038.207 0a6 6 0 0 0 .704-.47l.891-.708a9.4 9.4 0 0 1-1.414 1.347c-.094.085-.268.075-.415.08-2.68-.16-5.36-.47-8.04-.817-2.439-.37-4.945-.6-7.283-1.216-.851-.587-.932-1.502-1.133-2.263z" opacity=".6" style="mix-blend-mode:multiply"/><path fill="#fff" d="M255.358 8.347c.033-.178 3.785-.277 7.852.634 4.268.94 7.33 2.681 7.203 2.845-.128.165-2.875-1.051-7.926-2.178-4.396-.981-7.163-1.15-7.129-1.3Z" opacity=".5" style="mix-blend-mode:soft-light"/></g><defs><linearGradient id="b" x1="144.036" x2="144.036" y1="2.099" y2="23.568" gradientUnits="userSpaceOnUse"><stop stop-color="#FD9850"/><stop offset="1" stop-color="#E16F3E"/></linearGradient><linearGradient id="c" x1="223.305" x2="223.305" y1="17.324" y2="8.357" gradientUnits="userSpaceOnUse"><stop offset=".01" stop-color="#0081AE"/><stop offset=".95" stop-color="#00FFB6"/></linearGradient><linearGradient id="d" x1="243.163" x2="243.163" y1="2.099" y2="23.568" gradientUnits="userSpaceOnUse"><stop offset=".01" stop-color="#FF6228"/><stop offset=".5" stop-color="#F55532"/><stop offset=".99" stop-color="#E84340"/></linearGradient><linearGradient id="e" x1="64.761" x2="64.761" y1="17.324" y2="8.357" gradientUnits="userSpaceOnUse"><stop offset=".01" stop-color="#0081AE"/><stop offset=".95" stop-color="#00FFB6"/></linearGradient><linearGradient id="f" x1="144.036" x2="144.036" y1="18.249" y2="6.502" gradientUnits="userSpaceOnUse"><stop offset=".01" stop-color="#E04B1C"/><stop offset=".56" stop-color="#D53E29"/><stop offset=".99" stop-color="#C93137"/></linearGradient><linearGradient id="g" x1="44.903" x2="44.903" y1="2.099" y2="23.568" gradientUnits="userSpaceOnUse"><stop offset=".01" stop-color="#FF6228"/><stop offset=".5" stop-color="#F55532"/><stop offset=".99" stop-color="#E84340"/></linearGradient><linearGradient id="h" x1="21.091" x2="21.091" y1="0" y2="24" gradientUnits="userSpaceOnUse"><stop stop-color="#FD9850"/><stop offset="1" stop-color="#E16F3E"/></linearGradient><linearGradient id="i" x1="21.091" x2="21.091" y1="0" y2="24" gradientUnits="userSpaceOnUse"><stop offset=".01" stop-color="#FF6228"/><stop offset=".5" stop-color="#F55532"/><stop offset=".99" stop-color="#E84340"/></linearGradient><linearGradient id="j" x1="10.438" x2="13.922" y1="6.155" y2="6.155" gradientUnits="userSpaceOnUse"><stop offset=".01" stop-color="#FF6228"/><stop offset=".5" stop-color="#F55532"/><stop offset=".99" stop-color="#E84340"/></linearGradient><linearGradient id="k" x1="245.816" x2="288" y1="12" y2="12" gradientUnits="userSpaceOnUse"><stop stop-color="#FD9850"/><stop offset="1" stop-color="#E16F3E"/></linearGradient><linearGradient id="l" x1="266.908" x2="266.908" y1="0" y2="24" gradientUnits="userSpaceOnUse"><stop offset=".01" stop-color="#FF6228"/><stop offset=".5" stop-color="#F55532"/><stop offset=".99" stop-color="#E84340"/></linearGradient><linearGradient id="m" x1="274.077" x2="277.561" y1="6.155" y2="6.155" gradientUnits="userSpaceOnUse"><stop offset=".01" stop-color="#FF6228"/><stop offset=".5" stop-color="#F55532"/><stop offset=".99" stop-color="#E84340"/></linearGradient><clipPath id="a"><path fill="#fff" d="M0 0h288v24H0z"/></clipPath></defs></svg>