<svg xmlns="http://www.w3.org/2000/svg" width="31" height="32" fill="none" viewBox="0 0 31 32"><g clip-path="url(#a)"><path fill="url(#paint0_radial_1_3395)" d="M30.702 19.292C32.578 10.936 27.325 2.642 18.97.766S2.319 4.143.442 12.499 3.82 29.15 12.176 31.026s16.65-3.378 18.526-11.734" opacity="0.5" style="mix-blend-mode:screen"/><path fill="url(#b)" fill-rule="evenodd" d="M18.938 9.067a11.489 11.489 0 1 1 0 22.978 11.489 11.489 0 0 1 0-22.978" clip-rule="evenodd"/><path fill="url(#c)" fill-rule="evenodd" d="M18.938 9.067a11.489 11.489 0 1 1 0 22.978 11.489 11.489 0 0 1 0-22.978" clip-rule="evenodd" style="mix-blend-mode:multiply"/><path fill="url(#d)" fill-rule="evenodd" d="M22.473 11.93c2.589 2.58 2.05 7.309-1.202 10.552-3.252 3.244-7.954 3.783-10.552 1.202s-2.041-7.308 1.202-10.552 7.953-3.782 10.552-1.202" clip-rule="evenodd" opacity="0.4" style="mix-blend-mode:screen"/><path fill="url(#e)" fill-rule="evenodd" d="M12.372 13.68c2.571-2.571 6.247-3.075 8.21-1.096 1.961 1.98 1.475 5.639-1.096 8.21s-6.248 3.067-8.21 1.096c-1.962-1.97-1.494-5.647 1.095-8.21" clip-rule="evenodd" opacity="0.75" style="mix-blend-mode:screen"/><path fill="url(#f)" fill-rule="evenodd" d="M27.457 14.6a10.4 10.4 0 0 1 1.6 5.593 10.604 10.604 0 0 1-15.024 9.589 10.913 10.913 0 0 0 12.098-15.907c-.344-.619.884 0 1.29.698z" clip-rule="evenodd" style="mix-blend-mode:screen"/><path fill="url(#g)" fill-rule="evenodd" d="M18.938 9.067a11.489 11.489 0 1 1 0 22.978 11.489 11.489 0 0 1 0-22.978" clip-rule="evenodd" style="mix-blend-mode:screen"/><path fill="url(#h)" fill-rule="evenodd" d="m23.082 6.248 6.186 3.535-2.165 3.11c-.265.46-1.767.107-3.278-.786-1.511-.892-2.616-1.97-2.351-2.386l1.608-3.429z" clip-rule="evenodd"/><path fill="url(#i)" fill-rule="evenodd" d="M26.688 7.114c1.706.981 2.846 2.183 2.554 2.651-.292.469-1.909.115-3.606-.883-1.696-1-2.845-2.183-2.554-2.652.292-.468 1.91-.115 3.606.884" clip-rule="evenodd"/><path fill="#1181C7" fill-rule="evenodd" d="m21.73 10.481 1.644-3.35c-.274-.344-.389-.636-.31-.883l-1.59 3.473v.044c-.062.186.044.451.283.76z" clip-rule="evenodd" opacity="0.5" style="mix-blend-mode:multiply"/><path fill="url(#j)" fill-rule="evenodd" d="m23.922 7.715-1.68 3.296q.475.435 1.017.778l1.768-3.217a9.4 9.4 0 0 1-1.114-.884z" clip-rule="evenodd" style="mix-blend-mode:screen"/><path fill="url(#k)" fill-rule="evenodd" d="M27.545 9.81a372 372 0 0 0-2.006 3.11c.787.248 1.379.265 1.538 0l2.147-3.075c-.212.256-.883.22-1.67 0z" clip-rule="evenodd" opacity="0.6" style="mix-blend-mode:screen"/><path fill="url(#l)" d="M26.635 8.298c-.186.168-.822 0-.972-.433s.327-.928.557-1.113c.16-.6.417-1.17.76-1.688a3.44 3.44 0 0 1 .22-1.662 3.9 3.9 0 0 1-.256-1.838 1.007 1.007 0 0 1 .398-1.52.734.734 0 0 1 .999.583c.328.621.457 1.328.37 2.024.105.646.05 1.307-.158 1.927a3.8 3.8 0 0 1-.637 1.811 4.4 4.4 0 0 1-1.281 1.892z"/><path fill="#CBBBA0" fill-rule="evenodd" d="M28.155 2.793c.742.097.31 1.608-.53 1.935 1.228 0 .3 1.476-.469 1.68.743.476-.424 1.952-1.467 1.546.221.318.752.46.884.309a4.4 4.4 0 0 0 1.282-1.891 3.8 3.8 0 0 0 .636-1.768 4 4 0 0 0 .22-1.953 3.43 3.43 0 0 0-.37-2.024.725.725 0 0 0-.813-.618c.37.062.565.38.327.795.742 0 .804 1.44.309 1.989z" clip-rule="evenodd" style="mix-blend-mode:multiply"/><path fill="url(#m)" fill-rule="evenodd" d="M27.068.336c-.22.247-.318.804-.141.972a.15.15 0 0 0 .168 0 1.96 1.96 0 0 0 .618-.884c.106-.486-.406-.397-.645-.123zm.627.804-.52.468a.66.66 0 0 0-.142.31c-.02.296.001.593.062.883.053.283.203.442.406.3.383-.217.68-.56.84-.971a2.4 2.4 0 0 0 0-.742c-.053-.425-.327-.513-.646-.248m.221 1.944q-.281.136-.521.336c-.23.221-.45 1.096-.3 1.264a.21.21 0 0 0 .194 0 1.5 1.5 0 0 0 1.052-1.105c.106-.398.07-.76-.425-.495m-.114 1.768a1.32 1.32 0 0 0-.884.53 4.8 4.8 0 0 0-.46.884.7.7 0 0 0-.062.256c0 .07.107.062.239 0q.46-.18.884-.433c.31-.221.724-.742.548-1.14a.27.27 0 0 0-.239-.133zm-.884 1.767a1.34 1.34 0 0 0-1.149.884c0 .053-.044.15 0 .194.292.204 1.193-.353 1.387-.724.107-.204 0-.363-.247-.345z" clip-rule="evenodd" style="mix-blend-mode:screen"/><path fill="url(#n)" fill-rule="evenodd" d="M13.918 13.009c1.97-1.282 4.366-1.096 5.347.415.98 1.511.168 3.774-1.768 5.055s-4.418 1.087-5.355-.424-.168-3.774 1.767-5.046z" clip-rule="evenodd" opacity="0.35" style="mix-blend-mode:screen"/></g><defs><radialGradient id="b" cx="0" cy="0" r="1" gradientTransform="translate(16.42 13.919)scale(18.0635)" gradientUnits="userSpaceOnUse"><stop stop-color="#4D6187"/><stop offset="0.88" stop-color="#0F2036"/></radialGradient><radialGradient id="c" cx="0" cy="0" r="1" gradientTransform="translate(19.097 24.868)scale(20.9003)" gradientUnits="userSpaceOnUse"><stop offset="0.54" stop-color="#fff"/><stop offset="0.58" stop-color="#EDEDED"/><stop offset="0.68" stop-color="#BFBFBF"/><stop offset="0.81" stop-color="#757575"/><stop offset="0.98" stop-color="#101010"/><stop offset="1"/></radialGradient><radialGradient id="d" cx="0" cy="0" r="1" gradientTransform="translate(13.326 10.852)scale(15.4919)" gradientUnits="userSpaceOnUse"><stop stop-color="#312169"/><stop offset="1"/></radialGradient><radialGradient id="e" cx="0" cy="0" r="1" gradientTransform="translate(10.516 9.818)scale(19.3361)" gradientUnits="userSpaceOnUse"><stop stop-color="#232C69"/><stop offset="1"/></radialGradient><radialGradient id="f" cx="0" cy="0" r="1" gradientTransform="translate(18.248 13.115)scale(17.7807)" gradientUnits="userSpaceOnUse"><stop stop-color="#232C69"/><stop offset="1"/></radialGradient><radialGradient id="g" cx="0" cy="0" r="1" gradientTransform="translate(18.019 19.513)scale(13.3709)" gradientUnits="userSpaceOnUse"><stop offset="0.83"/><stop offset="0.85" stop-color="#000812"/><stop offset="0.9" stop-color="#001C40"/><stop offset="0.96" stop-color="#003B89"/><stop offset="1" stop-color="#0052BD"/></radialGradient><radialGradient id="h" cx="0" cy="0" r="1" gradientTransform="translate(24.982 7.132)scale(8.8285)" gradientUnits="userSpaceOnUse"><stop stop-color="#4D6187"/><stop offset="0.86" stop-color="#0F2036"/></radialGradient><radialGradient id="i" cx="0" cy="0" r="1" gradientTransform="translate(22.95 8.608)scale(9.65921)" gradientUnits="userSpaceOnUse"><stop stop-color="#374969"/><stop offset="0.86" stop-color="#141B24"/></radialGradient><radialGradient id="j" cx="0" cy="0" r="1" gradientTransform="translate(22.225 6.495)scale(7.27313)" gradientUnits="userSpaceOnUse"><stop stop-color="#232C69"/><stop offset="1"/></radialGradient><radialGradient id="l" cx="0" cy="0" r="1" gradientTransform="matrix(8.84617 0 0 8.84618 26.034 .407)" gradientUnits="userSpaceOnUse"><stop stop-color="#AD8550"/><stop offset="0.37" stop-color="#96723E"/><stop offset="1" stop-color="#664918"/></radialGradient><radialGradient id="m" cx="0" cy="0" r="1" gradientTransform="translate(25.416 3.774)scale(4.35681)" gradientUnits="userSpaceOnUse"><stop offset="0.35" stop-color="#B17F4A"/><stop offset="1"/></radialGradient><radialGradient id="n" cx="0" cy="0" r="1" gradientTransform="rotate(12.08 -29.044 55.206)scale(13.5918)" gradientUnits="userSpaceOnUse"><stop stop-color="#636BA3"/><stop offset="1"/></radialGradient><linearGradient id="k" x1="26.0252" x2="27.8811" y1="10.4369" y2="11.736" gradientUnits="userSpaceOnUse"><stop offset="0.17"/><stop offset="0.28" stop-color="#000812"/><stop offset="0.5" stop-color="#001C40"/><stop offset="0.8" stop-color="#003B89"/><stop offset="1" stop-color="#0052BD"/></linearGradient><clipPath id="a"><path fill="#fff" d="M.061 0H30.94v32H.06z"/></clipPath></defs></svg>