<svg xmlns="http://www.w3.org/2000/svg" width="29" height="32" fill="none" viewBox="0 0 29 32"><g clip-path="url(#a)"><path fill="url(#paint0_radial_1_3480)" d="M28.583 16.546C29.846 8.77 24.565 1.442 16.788.18 9.012-1.082 1.685 4.2.422 11.975-.84 19.752 4.441 27.079 12.217 28.341c7.777 1.262 15.104-4.018 16.366-11.795" opacity="0.5" style="mix-blend-mode:screen"/><path fill="url(#b)" fill-rule="evenodd" d="m14.5 28.579-7.675-4.434a2.3 2.3 0 0 0-1.095 1.33 1.1 1.1 0 0 0 0 .49c.043.186.127.359.245.507a.77.77 0 0 0 .384.204.74.74 0 0 0 0 .4 2.2 2.2 0 0 0 .36.735c.151.184.348.325.57.408.043.154.118.296.221.417.312.33.676.606 1.078.816a.5.5 0 0 0 .294 0 .56.56 0 0 0 .188.237c.376.246.79.428 1.225.54.156.032.317.032.473 0a1.3 1.3 0 0 0 .637.285c.274.03.55.01.817-.057a.66.66 0 0 0 .326-.229.8.8 0 0 0 .368.229c.189.024.381.007.563-.05.159-.037.307-.109.433-.212.407-.444.624-1.03.604-1.633z" clip-rule="evenodd"/><path fill="url(#c)" fill-rule="evenodd" d="M9.854 27.762a6.15 6.15 0 0 1-2.98-3.176 1.36 1.36 0 0 1 0-.915c.146-.359.53-.571.75-.898a1.39 1.39 0 0 0-.122-1.764c-.302-.35-1.388-.49-1.812-.947a2.45 2.45 0 0 1-.482-2.351c.35-1.217 2.245-3.438 2.45-3.96a8.4 8.4 0 0 0 .546-2.916 8.26 8.26 0 0 1 4.28-5.813 9.2 9.2 0 0 1 3.16-.874 9.88 9.88 0 0 1 6.98 1.478 9.9 9.9 0 0 1 4.777 5.307 9.3 9.3 0 0 1 .817 3.177 8.3 8.3 0 0 1-2.883 6.581 8.2 8.2 0 0 0-2.237 1.935c-.335.457-1.315 3.21-2.188 4.083a2.45 2.45 0 0 1-2.278.767c-.605-.138-1.274-1.012-1.732-1.094a1.396 1.396 0 0 0-1.592.768c-.171.35-.155.816-.392 1.11-.214.235-.502.39-.816.441a6.16 6.16 0 0 1-4.246-.939" clip-rule="evenodd"/><path fill="url(#d)" fill-rule="evenodd" d="M14.77 14.592a3.8 3.8 0 0 0-1.2-1.2c-2.614-1.748-4.475-.507-4.9 1.967-.351 1.952 2.327 2.956 3.976 2.605 1.511-.286 3.054-1.78 2.123-3.405z" clip-rule="evenodd"/><path fill="url(#e)" fill-rule="evenodd" d="M18.779 16.902a3.74 3.74 0 0 1 1.633.45c2.825 1.38 2.67 3.617.75 5.225-1.518 1.274-3.722-.547-4.278-2.123s0-3.544 1.886-3.552z" clip-rule="evenodd"/><path fill="url(#f)" fill-rule="evenodd" d="M9.323 11.783c-.049.383.057 1.061.498.816a3.27 3.27 0 0 1 2.246-.351 5.33 5.33 0 0 1 3.266 2.531.522.522 0 0 0 .988-.187c0-1.634-2.589-3.83-3.993-4.312-.947-.318-2.793.27-2.972 1.47z" clip-rule="evenodd" opacity="0.5" style="mix-blend-mode:screen"/><path fill="url(#g)" fill-rule="evenodd" d="M23.915 20.217c-.294.237-.948.482-.915-.04a3.27 3.27 0 0 0-.882-2.083 5.3 5.3 0 0 0-3.813-1.535.531.531 0 0 1-.327-.955c1.388-.817 4.614.327 5.716 1.306.76.662 1.168 2.556.212 3.307z" clip-rule="evenodd" opacity="0.5" style="mix-blend-mode:screen"/><path fill="url(#h)" fill-rule="evenodd" d="M13.3 18.005a3.1 3.1 0 0 1-.89.22 4.4 4.4 0 0 1-3.56-1.257q-.24-.332-.417-.703c-.4-.539-.767.229-.816.63a1.96 1.96 0 0 0 .996 1.518 3.65 3.65 0 0 0 2.94.58 4.8 4.8 0 0 0 1.747-.596c.35-.31.212-.49 0-.392" clip-rule="evenodd" opacity="0.65" style="mix-blend-mode:multiply"/><path fill="url(#i)" fill-rule="evenodd" d="M16.566 19.907a3.2 3.2 0 0 0 .261.882 4.36 4.36 0 0 0 2.874 2.45q.409.036.817 0c.661.073.188.775-.147.988a1.92 1.92 0 0 1-1.813-.107 3.6 3.6 0 0 1-1.992-2.229 4.6 4.6 0 0 1-.36-1.82c.09-.466.319-.425.352-.164z" clip-rule="evenodd" opacity="0.65" style="mix-blend-mode:multiply"/><path fill="url(#j)" fill-rule="evenodd" d="m11.707 20.511 3.479 2.009a9.5 9.5 0 0 0 .686-3.756c0-.294-.066-.735-.327-.882s-.661 0-.93.155a9.6 9.6 0 0 0-2.908 2.45z" clip-rule="evenodd" style="mix-blend-mode:screen"/><path fill="url(#k)" fill-rule="evenodd" d="M14.353 19.736c-.003-.15-.03-.3-.082-.441a.39.39 0 0 0-.31-.188c-.702-.106-1.535.629-1.952 1.061q-.313.336-.58.71c-.432.613-.693 1.715 0 2.336.458.417.817 0 1.038-.326.122-.156.286-.4.367-.507.213-.277.319-.22.18.106-.05.123-.188.384-.253.564-.155.384-.351.874.237 1.07.873.285 1.698-.499 2.016-1.176q.193-.418.327-.858c.163-.58.384-1.633-.057-2.22a.41.41 0 0 0-.319-.18q-.225.041-.424.155a.147.147 0 0 1-.18-.106z" clip-rule="evenodd"/><path fill="url(#l)" fill-rule="evenodd" d="M11.511 15.163c-1.281-.408-2.833-.22-2.857.817.236 1.551 2.523 2.319 3.992 2.04.406-.077.794-.23 1.144-.448a.703.703 0 0 0 .114-1.029 5.9 5.9 0 0 0-2.393-1.355z" clip-rule="evenodd" opacity="0.5" style="mix-blend-mode:screen"/><path fill="url(#m)" fill-rule="evenodd" d="M19.914 20.021c.996.899 1.633 2.336.743 2.866-1.462.572-3.267-1.02-3.765-2.45a3.4 3.4 0 0 1-.18-1.216.69.69 0 0 1 .817-.612c.89.268 1.703.747 2.368 1.396z" clip-rule="evenodd" opacity="0.5" style="mix-blend-mode:screen"/><path fill="url(#n)" fill-rule="evenodd" d="M8.58 21.646a10.3 10.3 0 0 0 .082-2.294c0-.13-.237-.302-.351-.22-.278.203-.384.669-.63.971-.416.506-2.138.04-2.155-1.266-.01-.475.075-.947.253-1.388.654-1.633 1.364-1.87 2.45-2.996a1.78 1.78 0 0 0 .482-1.242c.049-.49 0-.98.057-1.47a5.87 5.87 0 0 1 1.225-3.894 8.9 8.9 0 0 1 6.785-3.764c-.36 0-.743 0-1.143.09a9.2 9.2 0 0 0-3.152.849A8.26 8.26 0 0 0 8.23 10.81a8.4 8.4 0 0 1-.547 2.915c-.237.522-2.131 2.743-2.45 3.96a2.45 2.45 0 0 0 .482 2.352c.425.457 1.51.596 1.813.947a1.39 1.39 0 0 1 .057 1.764c-.22.326-.604.539-.751.898a1.36 1.36 0 0 0 0 .914c.25.718.677 1.36 1.24 1.87a3.08 3.08 0 0 1-.938-2.376c.13-.572.816-.857 1.078-1.241.195-.363.32-.759.367-1.168" clip-rule="evenodd" style="mix-blend-mode:multiply"/><path fill="url(#o)" fill-rule="evenodd" d="M15.75 25.794c.597-.474 1.246-.88 1.935-1.208.13-.057.383.049.367.188 0 .334-.384.67-.523 1.028-.228.613 1.03 1.87 2.172 1.233a3.6 3.6 0 0 0 1.095-.906c1.061-1.372.947-2.123 1.38-3.617.128-.44.42-.814.816-1.045.4-.286.816-.515 1.241-.817a5.8 5.8 0 0 0 2.76-3.005 8.98 8.98 0 0 0-.106-7.781q.244.488.49 1.037a9.3 9.3 0 0 1 .816 3.176 8.3 8.3 0 0 1-2.882 6.581 8.2 8.2 0 0 0-2.213 1.968c-.335.457-1.314 3.21-2.188 4.083a2.45 2.45 0 0 1-2.278.767c-.605-.138-1.274-1.012-1.731-1.094a1.396 1.396 0 0 0-1.593.768c-.171.35-.155.816-.392 1.11-.214.235-.502.39-.816.441-.738.146-1.5.11-2.221-.106a3.1 3.1 0 0 0 2.531-.376c.433-.408.319-1.167.54-1.551.212-.35.489-.658.816-.906z" clip-rule="evenodd" style="mix-blend-mode:multiply"/><path fill="url(#p)" fill-rule="evenodd" d="M12.573 5.83c-2.384 1.478-1.168 3.07.776 4.083a23.2 23.2 0 0 0 10.443 3.217c3.968.253 2.858-3.805.817-5.536-3.626-3.07-7.668-4.5-12.028-1.797z" clip-rule="evenodd" style="mix-blend-mode:screen"/><path fill="url(#q)" fill-rule="evenodd" d="M13.357 7.447c2.025 1.633 10.247 1.796 9.325-.547-.474-1.192-3.528-2.45-5.259-2.36-2.45.122-5.805 1.486-4.083 2.907z" clip-rule="evenodd" style="mix-blend-mode:screen"/><path fill="url(#r)" fill-rule="evenodd" d="M11.046 21.418a3.3 3.3 0 0 0-.18.816c-.012.212.022.423.098.62a3 3 0 0 0 2.532 1.47c.21-.035.41-.116.588-.236a3 3 0 0 0 .645-.58 1.14 1.14 0 0 1-.294.49c-.115.106-.278.163-.376.286s-.163.35-.294.49a.9.9 0 0 1-.572.253 2.75 2.75 0 0 1-1.526-.417 2.67 2.67 0 0 1-1.152-1.102.82.82 0 0 1-.073-.645c.049-.188.212-.319.27-.498q.043-.236.065-.474a1.07 1.07 0 0 1 .269-.498z" clip-rule="evenodd" style="mix-blend-mode:multiply"/><path fill="url(#s)" fill-rule="evenodd" d="M14.116 29.395a1.2 1.2 0 0 1-.31.629.98.98 0 0 1-1.053.212.38.38 0 0 1-.18-.326c.005-.254.061-.503.163-.735a.46.46 0 0 1 .13-.172c.257-.173.558-.267.866-.27.384 0 .433.385.384.662" clip-rule="evenodd" opacity="0.5" style="mix-blend-mode:screen"/><path fill="url(#t)" fill-rule="evenodd" d="M12.344 28.791a.38.38 0 0 1 .172.237c.065.261.04 1.078-.229 1.274a1.37 1.37 0 0 1-1.184 0c-.163-.09-.253-.09-.253-.327a2.3 2.3 0 0 1 .498-1.25.3.3 0 0 1 .155-.106c.13 0 .164.05.392.082.229.033.31 0 .433.09z" clip-rule="evenodd" opacity="0.5" style="mix-blend-mode:screen"/><path fill="url(#u)" fill-rule="evenodd" d="M10.973 28.35a.33.33 0 0 1 .146.376c-.04.196-.114.375-.171.563q-.105.369-.278.71c-.13.205-.4.164-.596.107a3.7 3.7 0 0 1-.939-.458.4.4 0 0 1-.13-.18.2.2 0 0 1 0-.13c.157-.433.377-.84.653-1.208a.42.42 0 0 1 .229-.18c.236-.057.35.123.816.294q.146.046.286.106z" clip-rule="evenodd" opacity="0.5" style="mix-blend-mode:screen"/><path fill="url(#v)" fill-rule="evenodd" d="M6.245 24.872c-.187.15-.322.356-.384.587a.97.97 0 0 0 .343 1.013.38.38 0 0 0 .376 0q.317-.201.547-.498a.5.5 0 0 0 .09-.212 1.6 1.6 0 0 0-.205-.882c-.18-.335-.547-.18-.767 0z" clip-rule="evenodd" opacity="0.5" style="mix-blend-mode:screen"/><path fill="url(#w)" fill-rule="evenodd" d="M7.682 26.13a.37.37 0 0 0-.294 0c-.253.073-.947.505-.988.816a1.4 1.4 0 0 0 .563 1.045c.172.09.27.139.433 0a2.36 2.36 0 0 0 .817-1.062.25.25 0 0 0 0-.187c-.058-.115-.115-.115-.262-.303-.147-.187-.171-.253-.294-.326z" clip-rule="evenodd" opacity="0.5" style="mix-blend-mode:screen"/><path fill="url(#x)" fill-rule="evenodd" d="M8.743 27.068a.31.31 0 0 0-.392.065 4 4 0 0 0-.4.425 4 4 0 0 0-.473.596c-.123.212.057.425.204.572q.391.35.865.58a.5.5 0 0 0 .22 0c.042 0 .074-.05.107-.082.292-.358.533-.753.719-1.176a.4.4 0 0 0 0-.286c-.066-.237-.278-.245-.645-.53a2 2 0 0 0-.237-.197z" clip-rule="evenodd" opacity="0.5" style="mix-blend-mode:screen"/><path fill="url(#y)" fill-rule="evenodd" d="M13.226 29.118a.865.865 0 0 1 .074.963.36.36 0 0 1-.14.172.4.4 0 0 1-.391-.058.42.42 0 0 1-.139-.359c-.01-.264.078-.522.245-.727a.246.246 0 0 1 .36 0z" clip-rule="evenodd" opacity="0.5" style="mix-blend-mode:screen"/><path fill="url(#z)" fill-rule="evenodd" d="M11.846 29.02c.106.392.066 1.135-.326 1.339-.188.098-.613-.115-.63-.278.028-.372.134-.733.311-1.061a.8.8 0 0 1 .155-.213c.204-.171.425 0 .49.213" clip-rule="evenodd" opacity="0.5" style="mix-blend-mode:screen"/><path fill="url(#A)" fill-rule="evenodd" d="M7.796 26.554c-.106.367-.498.93-.93.89-.213 0-.466-.417-.4-.555.216-.286.495-.518.816-.678a.7.7 0 0 1 .237-.082c.26 0 .375.204.31.425z" clip-rule="evenodd" opacity="0.5" style="mix-blend-mode:screen"/><path fill="url(#B)" fill-rule="evenodd" d="M10.54 28.285a3.15 3.15 0 0 1-.604 1.633.25.25 0 0 1-.156 0c-.187 0-.718-.294-.743-.49.132-.487.376-.937.71-1.315a.5.5 0 0 1 .172-.122c.147-.057.58.196.62.277z" clip-rule="evenodd" opacity="0.5" style="mix-blend-mode:screen"/><path fill="url(#C)" fill-rule="evenodd" d="M8.596 27.076a3.2 3.2 0 0 0-1.118 1.2.25.25 0 0 0 .049.164c.098.163.522.62.702.547.363-.35.642-.776.816-1.25a.5.5 0 0 0 0-.22c0-.155-.424-.449-.514-.44z" clip-rule="evenodd" opacity="0.5" style="mix-blend-mode:screen"/><path fill="url(#D)" fill-rule="evenodd" d="M6.767 24.725a1 1 0 0 0-.816.661.4.4 0 0 0 0 .237.35.35 0 0 0 .294.261.46.46 0 0 0 .375-.155c.22-.19.37-.45.425-.735 0-.147-.074-.277-.229-.27z" clip-rule="evenodd" opacity="0.5" style="mix-blend-mode:screen"/><path fill="url(#E)" fill-rule="evenodd" d="M7.486 20.985c-.302-.351-1.388-.49-1.813-.947a2.25 2.25 0 0 1-.457-.817 4.9 4.9 0 0 0 .44 1.748q.14.296.36.538c.4.433 1.396.588 1.756.899a1.39 1.39 0 0 0-.286-1.454z" clip-rule="evenodd"/><path fill="url(#F)" fill-rule="evenodd" d="M16.884 26.415a1.396 1.396 0 0 0-1.592.767c-.171.352-.155.817-.392 1.11a1.2 1.2 0 0 1-.408.303 2.23 2.23 0 0 1-.596 1.56 1.1 1.1 0 0 1-.433.212 1.3 1.3 0 0 1-.563.049.8.8 0 0 1-.368-.229.66.66 0 0 1-.326.229 2.3 2.3 0 0 1-.817.057 1.3 1.3 0 0 1-.637-.286 1.15 1.15 0 0 1-.474 0 4.1 4.1 0 0 1-1.224-.539.56.56 0 0 1-.188-.236.5.5 0 0 1-.294 0 4.1 4.1 0 0 1-1.078-.817 1.1 1.1 0 0 1-.22-.416 1.36 1.36 0 0 1-.572-.409 2.2 2.2 0 0 1-.36-.735.74.74 0 0 1 0-.4.77.77 0 0 1-.383-.204 1.3 1.3 0 0 1-.139-.302l.237 1.07q.012.121.049.236c.038.188.12.364.237.515a.8.8 0 0 0 .384.204.7.7 0 0 0 0 .392c.07.266.193.515.359.735.149.188.346.332.571.416.046.152.12.294.22.417.31.333.674.61 1.079.816.09.046.193.063.294.05.04.096.108.178.196.236a4 4 0 0 0 1.216.539c.156.033.318.033.474 0 .182.152.402.25.637.286.273.03.55.01.816-.057a.7.7 0 0 0 .327-.229c.1.105.227.181.367.22.189.032.382.018.564-.04a.96.96 0 0 0 .433-.22 2.22 2.22 0 0 0 .596-1.552c.16-.067.3-.174.408-.31.237-.303.228-.752.4-1.103a1.38 1.38 0 0 1 1.584-.816c.457.09 1.127.963 1.731 1.094a2.45 2.45 0 0 0 2.278-.76c.882-.906 1.854-3.658 2.188-4.123a8.2 8.2 0 0 1 2.254-1.927 8.3 8.3 0 0 0 2.883-6.581 8.6 8.6 0 0 0-.4-2.074c0 .187 0 .375.057.563a8.3 8.3 0 0 1-2.883 6.581 8.2 8.2 0 0 0-2.278 1.92c-.335.456-1.315 3.208-2.188 4.082a2.45 2.45 0 0 1-2.278.767c-.605-.138-1.274-1.012-1.731-1.094z" clip-rule="evenodd"/><path fill="url(#G)" fill-rule="evenodd" d="M15.643 28.693a1.38 1.38 0 0 1 1.584-.817c.162.047.313.128.441.237-.506-.424-.67-1.461-.343-1.51a1.3 1.3 0 0 0-.44-.229 1.396 1.396 0 0 0-1.593.768c.45-.058.612.857.351 1.51z" clip-rule="evenodd" style="mix-blend-mode:multiply"/><path fill="url(#H)" fill-rule="evenodd" d="M18.877 27.55c.539.237.98 1.363.343 1.502a2.5 2.5 0 0 0 2.016-.816 7.6 7.6 0 0 0 1.046-1.756c-.286.4-.605-.743-.343-1.502a7.4 7.4 0 0 1-1.078 1.763 2.52 2.52 0 0 1-2.017.817z" clip-rule="evenodd" opacity="0.5" style="mix-blend-mode:screen"/><path fill="url(#I)" fill-rule="evenodd" d="M22.772 23.222c.408.155.53 1.102.342 1.51q.135-.313.31-.603a8.2 8.2 0 0 1 2.254-1.928q.405-.314.752-.694c-.352 0-.564-1.028-.343-1.502a6.5 6.5 0 0 1-.752.686 8.2 8.2 0 0 0-2.237 1.935q-.177.286-.31.596z" clip-rule="evenodd" style="mix-blend-mode:multiply"/><path fill="url(#J)" fill-rule="evenodd" d="m9.217 30.939-.351-1.544a.5.5 0 0 1-.294 0 4.1 4.1 0 0 1-1.078-.816 1.1 1.1 0 0 1-.22-.417l.31 1.527c.045.152.12.294.22.417.31.333.674.61 1.078.816.09.046.193.063.294.05z" clip-rule="evenodd"/><path fill="url(#K)" fill-rule="evenodd" d="m8.866 29.395.351 1.544a.53.53 0 0 0 .196.236c.372.247.784.429 1.217.54.156.032.317.032.473 0l-.351-1.503a1.15 1.15 0 0 1-.474 0 4.1 4.1 0 0 1-1.224-.54.56.56 0 0 1-.188-.236z" clip-rule="evenodd"/><path fill="url(#L)" fill-rule="evenodd" d="m10.752 30.212.343 1.51a1.3 1.3 0 0 0 .637.286c.273.03.55.011.817-.057a.7.7 0 0 0 .326-.229l-.343-1.51a.66.66 0 0 1-.326.228 2.3 2.3 0 0 1-.817.058 1.3 1.3 0 0 1-.637-.286" clip-rule="evenodd"/><path fill="url(#M)" fill-rule="evenodd" d="m12.532 30.212.343 1.51a.8.8 0 0 0 .367.22c.189.032.382.018.564-.04a.96.96 0 0 0 .433-.22 2.22 2.22 0 0 0 .596-1.552l-.343-1.551a2.23 2.23 0 0 1-.596 1.56 1.1 1.1 0 0 1-.433.212 1.3 1.3 0 0 1-.563.049.8.8 0 0 1-.368-.23z" clip-rule="evenodd"/><path fill="url(#N)" fill-rule="evenodd" d="m7.584 29.69-.343-1.511a1.36 1.36 0 0 1-.572-.409 2.2 2.2 0 0 1-.359-.735l.245 1.062.09.4v.04c.071.267.193.516.36.736.148.188.346.332.57.416z" clip-rule="evenodd"/></g><defs><radialGradient id="b" cx="0" cy="0" r="1" gradientTransform="translate(8.882 29.657)scale(5.22582)" gradientUnits="userSpaceOnUse"><stop stop-color="#B09972"/><stop offset="1" stop-color="#6E542F"/></radialGradient><radialGradient id="c" cx="0" cy="0" r="1" gradientTransform="translate(10.81 1.886)scale(31.2978)" gradientUnits="userSpaceOnUse"><stop stop-color="#FFEEB5"/><stop offset="1" stop-color="#A89271"/></radialGradient><radialGradient id="d" cx="0" cy="0" r="1" gradientTransform="translate(10.425 18.2)scale(5.93621)" gradientUnits="userSpaceOnUse"><stop stop-color="#4A3122"/><stop offset="1" stop-color="#291B12"/></radialGradient><radialGradient id="e" cx="0" cy="0" r="1" gradientTransform="translate(18.125 22.112)scale(5.7729)" gradientUnits="userSpaceOnUse"><stop stop-color="#4A3122"/><stop offset="1" stop-color="#291B12"/></radialGradient><radialGradient id="f" cx="0" cy="0" r="1" gradientTransform="translate(11.267 7.088)scale(9.41465)" gradientUnits="userSpaceOnUse"><stop stop-color="#FFDAB0"/><stop offset="1" stop-color="#000505"/></radialGradient><radialGradient id="g" cx="0" cy="0" r="1" gradientTransform="translate(19.832 9.733)scale(11.2029)" gradientUnits="userSpaceOnUse"><stop stop-color="#FFDAB0"/><stop offset="1" stop-color="#000505"/></radialGradient><radialGradient id="h" cx="0" cy="0" r="1" gradientTransform="translate(12.957 13.457)scale(8.34499)" gradientUnits="userSpaceOnUse"><stop stop-color="#A8798D"/><stop offset="0.54" stop-color="#D8C3CC"/><stop offset="1" stop-color="#fff"/></radialGradient><radialGradient id="i" cx="0" cy="0" r="1" gradientTransform="translate(18.86 18.29)scale(7.70809)" gradientUnits="userSpaceOnUse"><stop stop-color="#A8798D"/><stop offset="0.54" stop-color="#D8C3CC"/><stop offset="1" stop-color="#fff"/></radialGradient><radialGradient id="j" cx="0" cy="0" r="1" gradientTransform="translate(13.471 21.891)scale(4.44195)" gradientUnits="userSpaceOnUse"><stop stop-color="#FFDAB0"/><stop offset="1" stop-color="#000505"/></radialGradient><radialGradient id="k" cx="0" cy="0" r="1" gradientTransform="translate(11.912 24.414)scale(5.95254)" gradientUnits="userSpaceOnUse"><stop stop-color="#4A3122"/><stop offset="1" stop-color="#261911"/></radialGradient><radialGradient id="l" cx="0" cy="0" r="1" gradientTransform="translate(10.287 20.863)scale(6.23833)" gradientUnits="userSpaceOnUse"><stop stop-color="#F39200"/><stop offset="1"/></radialGradient><radialGradient id="m" cx="0" cy="0" r="1" gradientTransform="translate(16.051 24.186)scale(6.50778)" gradientUnits="userSpaceOnUse"><stop stop-color="#F39200"/><stop offset="1"/></radialGradient><radialGradient id="n" cx="0" cy="0" r="1" gradientTransform="translate(21.506 15.922)scale(17.7433)" gradientUnits="userSpaceOnUse"><stop offset="0.64" stop-color="#fff"/><stop offset="0.81" stop-color="#D8C3CC"/><stop offset="1" stop-color="#A8798D"/></radialGradient><radialGradient id="o" cx="0" cy="0" r="1" gradientTransform="translate(11.054 6.916)scale(22.7405)" gradientUnits="userSpaceOnUse"><stop offset="0.64" stop-color="#fff"/><stop offset="0.81" stop-color="#D8C3CC"/><stop offset="1" stop-color="#A8798D"/></radialGradient><radialGradient id="p" cx="0" cy="0" r="1" gradientTransform="translate(17.88 1.053)scale(15.7265)" gradientUnits="userSpaceOnUse"><stop stop-color="#FFDAB0"/><stop offset="1" stop-color="#000505"/></radialGradient><radialGradient id="q" cx="0" cy="0" r="1" gradientTransform="translate(16.231 1.74)scale(13.4402)" gradientUnits="userSpaceOnUse"><stop stop-color="#FFDAB0"/><stop offset="1" stop-color="#000505"/></radialGradient><radialGradient id="r" cx="0" cy="0" r="1" gradientTransform="translate(12.524 22.887)scale(5.85455)" gradientUnits="userSpaceOnUse"><stop stop-color="#A8798D"/><stop offset="0.19" stop-color="#D8C3CC"/><stop offset="0.36" stop-color="#fff"/></radialGradient><radialGradient id="s" cx="0" cy="0" r="1" gradientTransform="translate(12.083 30.155)scale(2.55575)" gradientUnits="userSpaceOnUse"><stop stop-color="#FFDAB0"/><stop offset="1" stop-color="#000505"/></radialGradient><radialGradient id="t" cx="0" cy="0" r="1" gradientTransform="translate(10.393 29.28)scale(2.45777)" gradientUnits="userSpaceOnUse"><stop stop-color="#FFDAB0"/><stop offset="1" stop-color="#000505"/></radialGradient><radialGradient id="u" cx="0" cy="0" r="1" gradientTransform="translate(8.433 28.554)scale(3.15999)" gradientUnits="userSpaceOnUse"><stop stop-color="#FFDAB0"/><stop offset="1" stop-color="#000505"/></radialGradient><radialGradient id="v" cx="0" cy="0" r="1" gradientTransform="translate(5.306 24.439)scale(2.71906)" gradientUnits="userSpaceOnUse"><stop stop-color="#FFDAB0"/><stop offset="1" stop-color="#000505"/></radialGradient><radialGradient id="w" cx="0" cy="0" r="1" gradientTransform="translate(5.812 26.145)scale(2.79255)" gradientUnits="userSpaceOnUse"><stop stop-color="#FFDAB0"/><stop offset="1" stop-color="#000505"/></radialGradient><radialGradient id="x" cx="0" cy="0" r="1" gradientTransform="translate(7.045 27.264)scale(3.13549)" gradientUnits="userSpaceOnUse"><stop stop-color="#FFDAB0"/><stop offset="1" stop-color="#000505"/></radialGradient><radialGradient id="y" cx="0" cy="0" r="1" gradientTransform="matrix(1.85353 0 0 1.85354 11.928 30.375)" gradientUnits="userSpaceOnUse"><stop stop-color="#FFDAB0"/><stop offset="1" stop-color="#000505"/></radialGradient><radialGradient id="z" cx="0" cy="0" r="1" gradientTransform="translate(10.556 30.09)scale(1.84537)" gradientUnits="userSpaceOnUse"><stop stop-color="#FFDAB0"/><stop offset="1" stop-color="#000505"/></radialGradient><radialGradient id="A" cx="0" cy="0" r="1" gradientTransform="matrix(1.56856 .97805 -.90767 1.45569 6.16 26.637)" gradientUnits="userSpaceOnUse"><stop stop-color="#FFDAB0"/><stop offset="1" stop-color="#000505"/></radialGradient><radialGradient id="B" cx="0" cy="0" r="1" gradientTransform="translate(8.605 29.477)scale(2.44144)" gradientUnits="userSpaceOnUse"><stop stop-color="#FFDAB0"/><stop offset="1" stop-color="#000505"/></radialGradient><radialGradient id="C" cx="0" cy="0" r="1" gradientTransform="translate(7.143 28.407)scale(2.13116)" gradientUnits="userSpaceOnUse"><stop stop-color="#FFDAB0"/><stop offset="1" stop-color="#000505"/></radialGradient><radialGradient id="D" cx="0" cy="0" r="1" gradientTransform="translate(5.926 24.422)scale(1.85353)" gradientUnits="userSpaceOnUse"><stop stop-color="#FFDAB0"/><stop offset="1" stop-color="#000505"/></radialGradient><radialGradient id="E" cx="0" cy="0" r="1" gradientTransform="translate(5.453 18.372)scale(4.3358)" gradientUnits="userSpaceOnUse"><stop stop-color="#96816A"/><stop offset="1" stop-color="#6B4C38"/></radialGradient><radialGradient id="F" cx="0" cy="0" r="1" gradientTransform="translate(12.026 12.795)scale(20.2746)" gradientUnits="userSpaceOnUse"><stop stop-color="#96816A"/><stop offset="1" stop-color="#6B4C38"/></radialGradient><radialGradient id="G" cx="0" cy="0" r="1" gradientTransform="translate(16.745 29.412)scale(3.87038)" gradientUnits="userSpaceOnUse"><stop stop-color="#A8798D"/><stop offset="0.54" stop-color="#D8C3CC"/><stop offset="1" stop-color="#fff"/></radialGradient><radialGradient id="H" cx="0" cy="0" r="1" gradientTransform="translate(19.17 25.15)scale(4.60526)" gradientUnits="userSpaceOnUse"><stop stop-color="#FFDAB0"/><stop offset="1" stop-color="#000505"/></radialGradient><radialGradient id="I" cx="0" cy="0" r="1" gradientTransform="translate(24.935 23.94)scale(4.3358)" gradientUnits="userSpaceOnUse"><stop stop-color="#A8798D"/><stop offset="0.54" stop-color="#D8C3CC"/><stop offset="1" stop-color="#fff"/></radialGradient><radialGradient id="J" cx="0" cy="0" r="1" gradientTransform="translate(8.392 28.26)scale(2.64557)" gradientUnits="userSpaceOnUse"><stop stop-color="#96816A"/><stop offset="1" stop-color="#6B4C38"/></radialGradient><radialGradient id="K" cx="0" cy="0" r="1" gradientTransform="translate(10.025 29.493)scale(2.70273)" gradientUnits="userSpaceOnUse"><stop stop-color="#96816A"/><stop offset="1" stop-color="#6B4C38"/></radialGradient><radialGradient id="L" cx="0" cy="0" r="1" gradientTransform="matrix(2.69456 0 0 2.69457 11.552 29.901)" gradientUnits="userSpaceOnUse"><stop stop-color="#96816A"/><stop offset="1" stop-color="#6B4C38"/></radialGradient><radialGradient id="M" cx="0" cy="0" r="1" gradientTransform="translate(13.21 29.011)scale(3.31513)" gradientUnits="userSpaceOnUse"><stop stop-color="#96816A"/><stop offset="1" stop-color="#6B4C38"/></radialGradient><radialGradient id="N" cx="0" cy="0" r="1" gradientTransform="translate(6.914 27.427)scale(2.29446)" gradientUnits="userSpaceOnUse"><stop stop-color="#96816A"/><stop offset="1" stop-color="#6B4C38"/></radialGradient><clipPath id="a"><path fill="#fff" d="M.235 0h28.53v32H.235z"/></clipPath></defs></svg>