<svg xmlns="http://www.w3.org/2000/svg" width="32" height="32" fill="none" viewBox="0 0 32 32"><path fill="url(#a)" fill-rule="evenodd" d="m22.329 7.824 7.058 5.679 1.178 3.987-5.397-.06-8.81-4.058-7.06-5.68-1.177-3.976 5.397.05z" clip-rule="evenodd"/><path fill="url(#b)" fill-rule="evenodd" d="M8.12 3.716 1.174 6.142l1.601 5.428L9.3 7.693z" clip-rule="evenodd"/><path fill="url(#c)" fill-rule="evenodd" d="M9.299 7.693 2.774 11.57l9.636 7.763 3.947-5.961z" clip-rule="evenodd"/><path fill="url(#d)" fill-rule="evenodd" d="m16.358 13.372 8.81 4.058-.735 7.441-12.023-5.538z" clip-rule="evenodd"/><path fill="url(#e)" fill-rule="evenodd" d="m30.565 17.49 1.239 7.452-7.371-.071.735-7.441z" clip-rule="evenodd"/><path fill="url(#f)" fill-rule="evenodd" d="M2.774 11.57 6.983 32l5.427-12.667z" clip-rule="evenodd"/><path fill="url(#g)" fill-rule="evenodd" d="m12.41 19.333 12.023 5.538L6.983 32z" clip-rule="evenodd"/><path fill="url(#h)" fill-rule="evenodd" d="M31.804 24.942 6.983 32l17.45-7.129z" clip-rule="evenodd"/><path fill="#85F2FF" fill-rule="evenodd" d="M1.173 6.142 6.983 32 2.774 11.57z" clip-rule="evenodd"/><path fill="url(#i)" fill-rule="evenodd" d="M15.562 4.712c2.427 2.347 7.2 9.687 8.478 12.204l1.128.514h2.9a60.4 60.4 0 0 1-7.15-10.28z" clip-rule="evenodd" opacity="0.5" style="mix-blend-mode:screen"/><path fill="#9FDFFF" fill-rule="evenodd" d="M3.821 16.624c-.09-3.655 1.43-2.557 3.021-.926 5.035 5.145 3.333 8.116 1.158 13.926l4.41-10.291-9.636-7.763c.352 1.691.695 3.373 1.007 5.034z" clip-rule="evenodd" opacity="0.75" style="mix-blend-mode:screen"/><path fill="url(#j)" fill-rule="evenodd" d="M16.146 21.045c4.924 2.285 2.87 4.934-1.299 7.048L6.983 32l17.45-7.14z" clip-rule="evenodd" opacity="0.5" style="mix-blend-mode:screen"/><path fill="#8FFCFF" fill-rule="evenodd" d="M9.299 7.693 8.222 4.058c.382 1.853.624 2.507.09 3.313a12.4 12.4 0 0 1-2.96 2.668z" clip-rule="evenodd" style="mix-blend-mode:screen"/><path fill="#fff" fill-rule="evenodd" d="m16.358 13.372-7.049-5.68-3.947 2.347c2.014-1.067 3.162-1.45 3.917-1.168a15 15 0 0 1 3.232 2.094c1.631 1.219 2.356 2.467 2.366 3.132 0 .826-.775 2.447-1.822 4.28l3.313-5.035z" clip-rule="evenodd"/><path fill="#8FFCFF" fill-rule="evenodd" d="m16.358 13.372-3.313 5.035c1.53-2.186 2.718-3.192 3.554-3.384 1.128-.272 2.77.101 5.971 1.249l-6.212-2.87z" clip-rule="evenodd" opacity="0.5" style="mix-blend-mode:screen"/><path fill="url(#k)" fill-rule="evenodd" d="m11.987 3.756-3.896-.04.795 2.678.383 1.299 7.048 5.679 3.414 1.57c-2.125-1.892-7.572-9.535-7.784-11.186z" clip-rule="evenodd" style="mix-blend-mode:screen"/><path fill="url(#paint11_radial_1_3096)" d="M8.514 16.634A8.317 8.317 0 1 0 8.514 0a8.317 8.317 0 0 0 0 16.634" opacity="0.75" style="mix-blend-mode:screen"/><defs><radialGradient id="a" cx="0" cy="0" r="1" gradientTransform="translate(9.833 7.975)scale(28.1838)" gradientUnits="userSpaceOnUse"><stop stop-color="#C4EEFF"/><stop offset="0.33" stop-color="#4CCAFF"/><stop offset="1" stop-color="#003EB0"/></radialGradient><radialGradient id="b" cx="0" cy="0" r="1" gradientTransform="translate(.398 2.427)scale(10.7137)" gradientUnits="userSpaceOnUse"><stop stop-color="#A5E2FF"/><stop offset="1" stop-color="#218CF3"/></radialGradient><radialGradient id="c" cx="0" cy="0" r="1" gradientTransform="translate(9.43 8.66)scale(30.983)" gradientUnits="userSpaceOnUse"><stop stop-color="#A5E2FF"/><stop offset="1" stop-color="#08F"/></radialGradient><radialGradient id="d" cx="0" cy="0" r="1" gradientTransform="translate(14.434 33.38)scale(21.5381)" gradientUnits="userSpaceOnUse"><stop stop-color="#A5E2FF"/><stop offset="1" stop-color="#0069C2"/></radialGradient><radialGradient id="e" cx="0" cy="0" r="1" gradientTransform="translate(33.183 12.939)scale(15.6476)" gradientUnits="userSpaceOnUse"><stop stop-color="#4CCAFF"/><stop offset="1" stop-color="#003EB0"/></radialGradient><radialGradient id="f" cx="0" cy="0" r="1" gradientTransform="translate(.418 23.753)scale(13.6639)" gradientUnits="userSpaceOnUse"><stop stop-color="#A5E2FF"/><stop offset="1" stop-color="#218CF3"/></radialGradient><radialGradient id="g" cx="0" cy="0" r="1" gradientTransform="translate(10.759 36.551)scale(25.1227)" gradientUnits="userSpaceOnUse"><stop stop-color="#77D6FF"/><stop offset="1" stop-color="#001FB0"/></radialGradient><radialGradient id="h" cx="0" cy="0" r="1" gradientTransform="translate(7.406 32.947)scale(22.7967)" gradientUnits="userSpaceOnUse"><stop stop-color="#A5E2FF"/><stop offset="1" stop-color="#0081FF"/></radialGradient><radialGradient id="i" cx="0" cy="0" r="1" gradientTransform="translate(25.692 18.094)scale(13.3014)" gradientUnits="userSpaceOnUse"><stop stop-color="#00000D"/><stop offset="1" stop-color="#fff"/></radialGradient><radialGradient id="j" cx="0" cy="0" r="1" gradientTransform="translate(12.25 19.846)scale(14.2983)" gradientUnits="userSpaceOnUse"><stop offset="0.31" stop-color="#00000D"/><stop offset="1" stop-color="#1CB4FF"/></radialGradient><radialGradient id="k" cx="0" cy="0" r="1" gradientTransform="translate(25.158 -1.883)scale(23.2096)" gradientUnits="userSpaceOnUse"><stop offset="0.57" stop-color="#00000D"/><stop offset="0.6" stop-color="#030613"/><stop offset="0.63" stop-color="#0D1524"/><stop offset="0.68" stop-color="#1C2F3F"/><stop offset="0.72" stop-color="#315466"/><stop offset="0.77" stop-color="#4C8298"/><stop offset="0.82" stop-color="#6DBAD3"/><stop offset="0.86" stop-color="#85E3FF"/></radialGradient></defs></svg>