<svg xmlns="http://www.w3.org/2000/svg" width="33" height="32" fill="none" viewBox="0 0 33 32"><g clip-path="url(#a)"><path fill="url(#paint0_radial_1_3286)" d="M27.347 27.674c6.298-5.988 6.55-15.947.563-22.246-5.988-6.298-15.947-6.55-22.246-.563-6.298 5.988-6.55 15.947-.563 22.246 5.988 6.298 15.947 6.55 22.246.563" style="mix-blend-mode:screen"/><path fill="url(#b)" fill-rule="evenodd" d="M13.923 23.752c2.35 1.35 3.667 3.419 2.957 4.684-.709 1.265-3.188 1.128-5.53-.222s-3.675-3.42-2.957-4.684 3.188-1.137 5.53.222" clip-rule="evenodd"/><path fill="#5ACCC9" fill-rule="evenodd" d="M17.009 28.274c-.65 1.11-3.077.906-5.436-.453-2.36-1.36-3.744-3.368-3.111-4.48 1.068 2.044 4.983 4.804 8.547 4.932" clip-rule="evenodd" style="mix-blend-mode:multiply"/><path fill="#fff" fill-rule="evenodd" d="m20.906 6.94-.615 1.034c-.855 1.428-.479 1.043-1.838 2.094a5.27 5.27 0 0 1-2.564 1.035c-2.991.538-5.735 1.709-7.316 4.436a7.5 7.5 0 0 0-.966 3.65 8.83 8.83 0 0 0 4.53 7.691 8.85 8.85 0 0 0 8.914.094 7.5 7.5 0 0 0 2.658-2.692c1.582-2.744 1.214-5.692.18-8.547a5.23 5.23 0 0 1-.368-2.71c.231-1.709.086-1.179.898-2.64l.59-1.052a9.4 9.4 0 0 1-2.189-.948 9.8 9.8 0 0 1-1.905-1.41z" clip-rule="evenodd" opacity="0.15"/><path fill="url(#c)" fill-rule="evenodd" d="M16.154 13.675c4.547 0 8.24 1.71 8.24 3.778s-3.719 3.803-8.24 3.803-8.24-1.709-8.24-3.777 3.659-3.804 8.24-3.804" clip-rule="evenodd"/><path fill="url(#d)" fill-rule="evenodd" d="M16.154 21.256c-4.556 0-8.24-1.709-8.24-3.777q0-.276.086-.539a7.4 7.4 0 0 0-.393 2.248 8.83 8.83 0 0 0 4.53 7.692 8.85 8.85 0 0 0 8.914.094 7.5 7.5 0 0 0 2.658-2.692 9.04 9.04 0 0 0 .607-7.188q.05.202.052.41c0 2.086-3.693 3.778-8.24 3.778z" clip-rule="evenodd"/><path fill="url(#e)" fill-rule="evenodd" d="M22.992 19.111c0-1.957-3.42-3.547-7.693-3.547-3.419 0-6.265 1-7.308 2.385.47 1.863 3.932 3.307 8.163 3.307a12.87 12.87 0 0 0 6.743-1.598 1.8 1.8 0 0 0 .086-.521z" clip-rule="evenodd" style="mix-blend-mode:screen"/><path fill="url(#f)" fill-rule="evenodd" d="M20.846 19.504c0-1.71-2.948-3.025-6.59-3.025-2.786 0-5.128.786-6.128 1.906.855 1.65 4.128 2.871 8 2.871 1.395.01 2.785-.159 4.137-.504a1.8 1.8 0 0 0 .581-1.248" clip-rule="evenodd" style="mix-blend-mode:screen"/><path fill="url(#g)" fill-rule="evenodd" d="M16.154 21.256c-3.872 0-7.12-1.222-8-2.871a1.8 1.8 0 0 1-.171-.402 6.3 6.3 0 0 0-.111 1.137 7.74 7.74 0 0 0 3.974 6.726 7.76 7.76 0 0 0 7.82.086A6.6 6.6 0 0 0 22 23.572a7.1 7.1 0 0 0 .906-3.914 9.3 9.3 0 0 1-2.633 1.12 16.3 16.3 0 0 1-4.136.504z" clip-rule="evenodd" style="mix-blend-mode:screen"/><path fill="url(#h)" fill-rule="evenodd" d="M16.154 21.257c-3.872 0-7.12-1.223-8-2.872l.051-.06v-.111.162a4.5 4.5 0 0 0-.068.77 6.32 6.32 0 0 0 3.248 5.478 6.31 6.31 0 0 0 6.367.068 5.4 5.4 0 0 0 1.82-1.923c.366-.623.607-1.31.71-2.025a16.2 16.2 0 0 1-4.137.504z" clip-rule="evenodd" style="mix-blend-mode:screen"/><path fill="url(#i)" fill-rule="evenodd" d="m25.077 10.718.7-1.265-.435-.051-.444-.111-.582 1.025a5.75 5.75 0 0 0-.53 5.436c1.017 2.838 1.393 5.76-.17 8.47a7.45 7.45 0 0 1-2.625 2.658 8.76 8.76 0 0 1-8.811-.094 8.76 8.76 0 0 1-4.488-7.598 7.5 7.5 0 0 1 .992-3.598c1.572-2.718 4.273-3.838 7.248-4.385a1.23 1.23 0 0 1 1 .171c.786.59 1.376 1.573 2.64 2.154-.726-.556-1.828-1.838-1.837-2.564a.45.45 0 0 1 .18-.393 6.2 6.2 0 0 0 2.461-2.564l.607-1.018a6 6 0 0 1-.607-.675l-.735 1.248a4.92 4.92 0 0 1-3.863 2.77c-3.274.598-6.154 1.888-7.838 4.811-2.427 4.206-.726 9.735 3.812 12.35s10.18 1.334 12.607-2.871c1.71-2.923 1.367-6.06.24-9.197a4.88 4.88 0 0 1 .478-4.709" clip-rule="evenodd"/><path fill="url(#j)" fill-rule="evenodd" d="M23.932 11.154a7.75 7.75 0 0 0-.205 3.23 29 29 0 0 0 .7 3.565 21 21 0 0 1-1.359-3.658 7.1 7.1 0 0 1 .855-3.129z" clip-rule="evenodd" style="mix-blend-mode:screen"/><path fill="url(#k)" fill-rule="evenodd" d="m23.103 7.855 1.957 1.128c-1.556 2.692-3.692 4.368-4.77 3.744-1.076-.624-.7-3.317.855-5.983l1.958 1.136z" clip-rule="evenodd" opacity="0.5" style="mix-blend-mode:screen"/><path fill="url(#l)" fill-rule="evenodd" d="m22.41 7.376.898.59c-1.06 1.71-2.334 2.846-2.83 2.521-.495-.325-.05-1.94 1.026-3.65l.906.582z" clip-rule="evenodd" opacity="0.5" style="mix-blend-mode:screen"/><path fill="url(#m)" fill-rule="evenodd" d="M13.017 14.18c-.197-.188-.427-.42-.692-.402-.957.043-2.103 1.23-2.564 1.957a5.98 5.98 0 0 0-.855 5.684c.23.513 1.76 1.444 1.795 1.102a5.4 5.4 0 0 1 .598-2.564 8.9 8.9 0 0 1 2.385-2.666c.931-.718.991-.958.64-1.462a19 19 0 0 0-1.307-1.71zm4.128-1.3c.975 1.077.923 1.71.479 2.214-.855.949-2.162.513-3.026-.555s-1.017-1.624-.564-2.103c.675-.71 2.137-.641 3.111.444" clip-rule="evenodd" style="mix-blend-mode:screen"/><path fill="url(#n)" fill-rule="evenodd" d="M16.53 12.966a1.47 1.47 0 0 0-1.966-.35c-.273.273-.154.615.41 1.273.565.658 1.42.957 1.923.41.265-.29.274-.624-.367-1.333m-4.342 1.453c-.111-.069-.24-.069-.444 0a5.3 5.3 0 0 0-1.573 1.513 5.55 5.55 0 0 0-1.12 4.58c.052.163.163.462.317.514.153.05.145 0 .188-.231a5.5 5.5 0 0 1 .65-1.539 10.4 10.4 0 0 1 2.632-2.863c.35-.265.427-.427.384-.573a8.6 8.6 0 0 0-1.034-1.401" clip-rule="evenodd" style="mix-blend-mode:screen"/><path fill="url(#o)" fill-rule="evenodd" d="m22.222 7.376.47.316c-.726 1.231-1.521 2.086-1.777 1.915-.257-.171.128-1.316.854-2.564l.462.316z" clip-rule="evenodd" opacity="0.5" style="mix-blend-mode:screen"/><path fill="#7F8E99" fill-rule="evenodd" d="M25.06 10.735c-.265.453-1.521-.162-2.82-1.367-1.3-1.206-2.137-2.565-1.872-3.009a8.4 8.4 0 0 0 2.435 2.009 8.3 8.3 0 0 0 2.983 1.11l-.735 1.274z" clip-rule="evenodd" opacity="0.5" style="mix-blend-mode:multiply"/><path fill="url(#p)" fill-rule="evenodd" d="M27.111 9.556c-.53.598-2.461.196-4.444-.95-1.983-1.144-3.29-2.623-3.043-3.367a7 7 0 0 1 1.308-2.06l3.658 2.103 3.65 2.12a7 7 0 0 1-1.129 2.154m0-2.274-2.76-1.581-2.736-1.573a4.4 4.4 0 0 0-.333.573c-1.026 1.786 4.496 4.974 5.53 3.188q.174-.293.308-.607z" clip-rule="evenodd"/><path fill="#fff" fill-rule="evenodd" d="M26.863 7.949q.211-.342.35-.718l-2.811-1.624-2.82-1.624a4.3 4.3 0 0 0-.437.658c-1.102 1.923 4.607 5.214 5.718 3.308" clip-rule="evenodd" opacity="0.15"/><path fill="#8E633F" fill-rule="evenodd" d="M26.077 7.983c-.3.342-1.47.077-2.684-.624-1.213-.7-1.983-1.521-1.897-1.966q.216-.623.513-1.213l4.82 2.777c-.274.402-.538.77-.752 1.026" clip-rule="evenodd"/><path fill="url(#q)" fill-rule="evenodd" d="M16.248 28.359c-2.684.24-6.462-1.71-7.479-4.316a11.7 11.7 0 0 0 7.479 4.316" clip-rule="evenodd" style="mix-blend-mode:screen"/><path fill="#fff" fill-rule="evenodd" d="M19.068 27.692a9.14 9.14 0 0 0 5.556-6.564c-.103 3.496-2.256 6.111-5.556 6.564" clip-rule="evenodd"/><path fill="url(#r)" fill-rule="evenodd" d="M20.23 6.026c-.127-.658.855-1.992 1.257-2.522l-.555-.324a7 7 0 0 0-1.308 2.06c-.23.7.855 2.008 2.615 3.102-.812-.581-1.812-1.504-2.008-2.316" clip-rule="evenodd" style="mix-blend-mode:screen"/><path fill="url(#s)" fill-rule="evenodd" d="M25.265 4.111c2 1.171 3.35 2.641 2.974 3.29-.376.65-2.316.232-4.333-.94-2.017-1.17-3.35-2.632-2.974-3.281.376-.65 2.316-.231 4.333.931" clip-rule="evenodd"/><path fill="#fff" fill-rule="evenodd" d="M27.265 7.692a7.4 7.4 0 0 1-3.53-1.162 12 12 0 0 1-1.282-.855.58.58 0 0 1-.855.052.96.96 0 0 1-.222-1.086c-.461-.564-.658-1.068-.47-1.393a.2.2 0 0 1 .043-.06c-.248.65 1.128 2.068 3.145 3.23.98.598 2.05 1.028 3.171 1.274" clip-rule="evenodd"/><path fill="#8E633F" fill-rule="evenodd" d="M27.086 6.615c-.317.368-1.573.077-2.88-.675-1.309-.752-2.12-1.624-2.07-2.102A27 27 0 0 1 23.95.085l4.889 4.188c-.59.855-1.129 1.616-1.753 2.35z" clip-rule="evenodd"/><path fill="url(#t)" fill-rule="evenodd" d="M27.111 6.137c-.29.325-1.444.051-2.65-.641S22.505 4 22.582 3.573A22 22 0 0 1 24.137.248L28.59 4.05c-.53.727-.915 1.428-1.479 2.086" clip-rule="evenodd" style="mix-blend-mode:screen"/><path fill="url(#u)" fill-rule="evenodd" d="M26.265 2.333c-.992 1.71-1.94 2.564-2.7 1.966-.762-.598-.3-2.205.691-3.923z" clip-rule="evenodd" style="mix-blend-mode:screen"/><path fill="url(#v)" fill-rule="evenodd" d="M24.24 3.684a.624.624 0 0 1 .572.632.86.86 0 0 1-.462.804c-.265.085-.572-.36-.632-.787s.188-.71.521-.65" clip-rule="evenodd"/><path fill="url(#w)" fill-rule="evenodd" d="M27.385 4.778a.795.795 0 0 1-.274.966.74.74 0 0 1-.906-.163c-.162-.196 0-.59.3-.803.298-.214.726-.257.854 0z" clip-rule="evenodd"/><path fill="#EDCAA6" fill-rule="evenodd" d="M26.778 1.487C25.385.402 24.145-.29 23.888.162c-.136.231 0 .727.368 1.308a.854.854 0 0 0 .017 1.094.77.77 0 0 0 1.018.188q.245.24.512.453c1.462 1.145 2.71 1.573 3.035 1.069.324-.505-.659-1.71-2.06-2.787" clip-rule="evenodd" opacity="0.25" style="mix-blend-mode:screen"/><path fill="#936E4E" fill-rule="evenodd" d="M26.838 1.385c1.367 1.18 2.256 2.427 2 2.889-.257.461-1.573-.112-2.95-1.24-1.375-1.128-2.264-2.419-2-2.872.266-.453 1.582.094 2.95 1.223" clip-rule="evenodd"/><path fill="url(#x)" fill-rule="evenodd" d="M26.41 1.154c1.12.931 1.863 1.983 1.641 2.359s-1.316-.094-2.436-1.009S23.752.513 23.965.137c.215-.376 1.308.085 2.445 1.017" clip-rule="evenodd" style="mix-blend-mode:screen"/><path fill="url(#y)" fill-rule="evenodd" d="M25.667.786c.427.325.71.693.632.855s-.487 0-.914-.333c-.428-.334-.71-.684-.624-.855s.487 0 .906.325z" clip-rule="evenodd"/><path fill="url(#z)" fill-rule="evenodd" d="M26.59 2.436c.308.222.495.504.427.624s-.376 0-.684-.188c-.307-.188-.495-.504-.418-.633.076-.128.367 0 .675.197" clip-rule="evenodd"/><path fill="url(#A)" fill-rule="evenodd" d="M28.12 3c.341.274.547.607.47.752s-.42 0-.761-.248c-.342-.248-.547-.607-.47-.752s.419 0 .76.248" clip-rule="evenodd"/><path fill="url(#B)" fill-rule="evenodd" d="M25.188 2.564a.58.58 0 0 1-.803-.214.624.624 0 0 1-.06-.854c.205-.163.607 0 .855.308.247.307.213.606 0 .76z" clip-rule="evenodd"/><path fill="url(#C)" fill-rule="evenodd" d="M23.581 22.607a7.69 7.69 0 0 1-10.564 4.12 15.76 15.76 0 0 0 10.564-4.12" clip-rule="evenodd" style="mix-blend-mode:screen"/></g><defs><radialGradient id="b" cx="0" cy="0" r="1" gradientTransform="translate(5.624 19.18)scale(14.7692)" gradientUnits="userSpaceOnUse"><stop stop-color="#fff"/><stop offset="1" stop-color="#5E689E"/></radialGradient><radialGradient id="c" cx="0" cy="0" r="1" gradientTransform="translate(13.145 21.889)scale(12.0427)" gradientUnits="userSpaceOnUse"><stop stop-color="#FF4F51"/><stop offset="1" stop-color="#8F0000"/></radialGradient><radialGradient id="d" cx="0" cy="0" r="1" gradientTransform="translate(13.265 19.795)scale(15.3932)" gradientUnits="userSpaceOnUse"><stop stop-color="#FF2B60"/><stop offset="0.61" stop-color="#690000"/><stop offset="0.89" stop-color="#CF0034"/></radialGradient><radialGradient id="e" cx="0" cy="0" r="1" gradientTransform="translate(13.974 23.436)scale(14.453)" gradientUnits="userSpaceOnUse"><stop stop-color="#E71D73"/><stop offset="1"/></radialGradient><radialGradient id="f" cx="0" cy="0" r="1" gradientTransform="translate(10.949 23.957)scale(12.5556)" gradientUnits="userSpaceOnUse"><stop stop-color="#E71D73"/><stop offset="1"/></radialGradient><radialGradient id="g" cx="0" cy="0" r="1" gradientTransform="translate(14.88 17.684)scale(10.265)" gradientUnits="userSpaceOnUse"><stop stop-color="#E71D73"/><stop offset="1"/></radialGradient><radialGradient id="h" cx="0" cy="0" r="1" gradientTransform="translate(12.419 18.573)scale(9.42735)" gradientUnits="userSpaceOnUse"><stop stop-color="#E71D73"/><stop offset="1"/></radialGradient><radialGradient id="i" cx="0" cy="0" r="1" gradientTransform="translate(15.094 10.624)scale(33.3932)" gradientUnits="userSpaceOnUse"><stop stop-color="#94D4D3"/><stop offset="1" stop-color="#4566C4"/></radialGradient><radialGradient id="k" cx="0" cy="0" r="1" gradientTransform="translate(16.76 5.838)scale(9.90598)" gradientUnits="userSpaceOnUse"><stop stop-color="#fff"/><stop offset="1"/></radialGradient><radialGradient id="l" cx="0" cy="0" r="1" gradientTransform="translate(19.915 7.154)scale(5.32479)" gradientUnits="userSpaceOnUse"><stop stop-color="#fff"/><stop offset="1"/></radialGradient><radialGradient id="m" cx="0" cy="0" r="1" gradientTransform="translate(17.205 21.479)scale(14.3248)" gradientUnits="userSpaceOnUse"><stop offset="0.37"/><stop offset="1" stop-color="#fff"/></radialGradient><radialGradient id="n" cx="0" cy="0" r="1" gradientTransform="translate(16.017 19.889)scale(14.6581)" gradientUnits="userSpaceOnUse"><stop/><stop offset="1" stop-color="#fff"/></radialGradient><radialGradient id="o" cx="0" cy="0" r="1" gradientTransform="translate(20.812 7.598)scale(3.82906)" gradientUnits="userSpaceOnUse"><stop stop-color="#fff"/><stop offset="1"/></radialGradient><radialGradient id="p" cx="0" cy="0" r="1" gradientTransform="translate(21.367 3.154)scale(11.7692)" gradientUnits="userSpaceOnUse"><stop stop-color="#CCF0EF"/><stop offset="1" stop-color="#364E82"/></radialGradient><radialGradient id="r" cx="0" cy="0" r="1" gradientTransform="matrix(4.58975 0 0 4.58974 23.197 6.445)" gradientUnits="userSpaceOnUse"><stop/><stop offset="1" stop-color="#fff"/></radialGradient><radialGradient id="s" cx="0" cy="0" r="1" gradientTransform="translate(20.966 3.026)scale(13.7179)" gradientUnits="userSpaceOnUse"><stop stop-color="#F2FFFF"/><stop offset="1" stop-color="#6A79C2"/></radialGradient><radialGradient id="t" cx="0" cy="0" r="1" gradientTransform="translate(24.111 1.316)scale(5.76923)" gradientUnits="userSpaceOnUse"><stop stop-color="#CA9E67"/><stop offset="1"/></radialGradient><radialGradient id="u" cx="0" cy="0" r="1" gradientTransform="translate(24.248 .556)scale(4.21368)" gradientUnits="userSpaceOnUse"><stop stop-color="#CA9E67"/><stop offset="1"/></radialGradient><radialGradient id="x" cx="0" cy="0" r="1" gradientTransform="translate(24.667 -1.444)scale(6.20513)" gradientUnits="userSpaceOnUse"><stop stop-color="#CA9E67"/><stop offset="1"/></radialGradient><radialGradient id="C" cx="0" cy="0" r="1" gradientTransform="translate(17.248 20.83)scale(10.1538)" gradientUnits="userSpaceOnUse"><stop stop-color="#E71D73"/><stop offset="1"/></radialGradient><linearGradient id="j" x1="23.2649" x2="25.0684" y1="11.1539" y2="23.2565" gradientUnits="userSpaceOnUse"><stop stop-color="#fff"/><stop offset="1"/></linearGradient><linearGradient id="q" x1="8.39316" x2="16" y1="24.4188" y2="28.9658" gradientUnits="userSpaceOnUse"><stop stop-color="#fff"/><stop offset="1"/></linearGradient><linearGradient id="v" x1="24.718" x2="23.7778" y1="4.82907" y2="3.88035" gradientUnits="userSpaceOnUse"><stop stop-color="#B07A38"/><stop offset="1" stop-color="#704824"/></linearGradient><linearGradient id="w" x1="27.2479" x2="26.4445" y1="5.62399" y2="4.82058" gradientUnits="userSpaceOnUse"><stop stop-color="#B07A38"/><stop offset="1" stop-color="#704824"/></linearGradient><linearGradient id="y" x1="24.7436" x2="26.3077" y1="1.03421" y2="1.03421" gradientUnits="userSpaceOnUse"><stop stop-color="#6B4E35"/><stop offset="1" stop-color="#87643A"/></linearGradient><linearGradient id="z" x1="25.8975" x2="27.0257" y1="2.64964" y2="2.64964" gradientUnits="userSpaceOnUse"><stop stop-color="#6B4E35"/><stop offset="1" stop-color="#87643A"/></linearGradient><linearGradient id="A" x1="27.3333" x2="28.5983" y1="3.25646" y2="3.25646" gradientUnits="userSpaceOnUse"><stop stop-color="#6B4E35"/><stop offset="1" stop-color="#87643A"/></linearGradient><linearGradient id="B" x1="25.2393" x2="24.265" y1="2.53854" y2="1.56418" gradientUnits="userSpaceOnUse"><stop stop-color="#B07A38"/><stop offset="1" stop-color="#704824"/></linearGradient><clipPath id="a"><path fill="#fff" d="M.77 0h31.46v32H.77z"/></clipPath></defs></svg>