<svg xmlns="http://www.w3.org/2000/svg" width="42" height="40" fill="none" viewBox="0 0 42 40"><path fill="url(#paint0_radial_1_3180)" d="M37.554 23.477C39.35 14.752 34.82 6.119 27.439 4.195 20.056 2.27 12.614 7.784 10.818 16.509 9.02 25.234 13.55 33.867 20.933 35.79s14.824-3.59 16.62-12.314" opacity="0.75" style="mix-blend-mode:screen"/><path fill="url(#a)" fill-rule="evenodd" d="M20.955 4.042c.327.254.58.618.728 1.045.147.427.183.9.102 1.356a2.57 2.57 0 0 1-.557 1.211c-.282.333-.64.562-1.029.658s-.79.055-1.154-.118a2.04 2.04 0 0 1-.89-.853 2.6 2.6 0 0 1-.326-1.3c.004-.466.125-.922.348-1.311.3-.52.76-.885 1.281-1.014a1.74 1.74 0 0 1 1.497.326" clip-rule="evenodd"/><path fill="url(#b)" fill-rule="evenodd" d="M20.625 4.164c.247.195.437.473.548.798.11.326.135.684.072 1.031a1.95 1.95 0 0 1-.427.918 1.5 1.5 0 0 1-.783.496c-.296.071-.6.039-.876-.093a1.55 1.55 0 0 1-.675-.65 2 2 0 0 1-.247-.99c.004-.352.096-.699.265-.995.23-.397.583-.674.98-.77a1.33 1.33 0 0 1 1.143.255" clip-rule="evenodd" style="mix-blend-mode:screen"/><path fill="url(#c)" fill-rule="evenodd" d="M19.559 4.104c.257-.1.535-.08.776.056s.426.378.515.675c.01.313-.084.621-.262.86a1.02 1.02 0 0 1-.693.42.89.89 0 0 1-.773-.058 1.14 1.14 0 0 1-.51-.673 1.37 1.37 0 0 1 .26-.863c.179-.24.428-.389.695-.417z" clip-rule="evenodd" style="mix-blend-mode:screen"/><path fill="url(#d)" fill-rule="evenodd" d="M21.484 5c.162.426.2.907.108 1.368s-.31.877-.62 1.185c-.309.307-.694.489-1.094.517s-.796-.099-1.124-.36a1.94 1.94 0 0 1-.54-.662q.138.19.31.338c.313.244.684.37 1.064.362a1.75 1.75 0 0 0 1.068-.406c.316-.257.56-.618.704-1.035a2.6 2.6 0 0 0 .098-1.31z" clip-rule="evenodd" style="mix-blend-mode:screen"/><path fill="url(#e)" d="M18.348 8.584a5.3 5.3 0 0 0 1.002.64c.17.12.371.163.568.12a.83.83 0 0 0 .5-.356c.218-.386.116-.823-.222-1.235a6 6 0 0 0-.885-.837 6 6 0 0 0-1.002-.64c-.455-.215-.86-.15-1.068.236s-.125.832.223 1.235q.401.475.884.837"/><path fill="url(#f)" fill-rule="evenodd" d="M19.35 9.224a5.3 5.3 0 0 1-1.002-.64 5.4 5.4 0 0 1-.884-.837 1.24 1.24 0 0 1-.282-.48.4.4 0 0 1 .02-.296.3.3 0 0 1 .093-.112.25.25 0 0 1 .126-.048c.171 0 .34.04.497.115q.523.265.994.64.481.368.893.838.174.212.281.48a.4.4 0 0 1-.02.306.3.3 0 0 1-.094.11.26.26 0 0 1-.125.05 1.15 1.15 0 0 1-.488-.125z" clip-rule="evenodd" style="mix-blend-mode:multiply"/><path fill="url(#g)" fill-rule="evenodd" d="M17.503 6.632a.19.19 0 0 1 .012-.184c.485-.623 2.357.946 2.303 1.752a4.85 4.85 0 0 0-2.07-1.46c-.113-.007-.26-.017-.271-.11z" clip-rule="evenodd" style="mix-blend-mode:screen"/><path fill="url(#h)" fill-rule="evenodd" d="M25.901 37.01c-3.888-3.72-6.676-4.325-8.538-6.17a2 2 0 0 1-.464-.615.85.85 0 0 1-.088-.442.85.85 0 0 1 .145-.425 159 159 0 0 0 7.385-12.835c-.154.36-.052.796.503 1.346 1.872 1.835 4.65 2.45 8.538 6.17A71.5 71.5 0 0 0 25.9 37.041z" clip-rule="evenodd"/><path fill="url(#i)" fill-rule="evenodd" d="M32.283 23.024a26.3 26.3 0 0 0-3.914-2.79 79 79 0 0 1-3.413 6.599 77 77 0 0 1-4.072 6.433c1.369.8 2.678 1.73 3.915 2.78a40.5 40.5 0 0 1 3.151-6.853 37 37 0 0 1 4.333-6.17" clip-rule="evenodd" opacity="0.75" style="mix-blend-mode:screen"/><path fill="url(#j)" fill-rule="evenodd" d="M20.392 32.936a25.2 25.2 0 0 1 3.162-7.538 26.5 26.5 0 0 1 4.053-5.625 13.8 13.8 0 0 1-2.761-1.935c-.555-.55-.657-.986-.503-1.345a159 159 0 0 1-7.385 12.834.85.85 0 0 0-.145.426c-.01.155.02.31.088.441a2 2 0 0 0 .464.615 15 15 0 0 0 3.029 2.096z" clip-rule="evenodd" style="mix-blend-mode:multiply"/><path fill="url(#k)" fill-rule="evenodd" d="M26.888 34.852c-3.506-3.307-6.064-3.978-7.834-5.643a4.6 4.6 0 0 1-.933-.892.95.95 0 0 1-.154-.563l-.554.886a.9.9 0 0 0-.011.33q.026.166.108.301c.198.292.434.546.699.753 1.825 1.75 4.492 2.347 8.173 5.891.163-.348.325-.706.506-1.063m.627-13.814a17 17 0 0 1-3.28-2.267c-.424-.418-.566-.775-.52-1.06l-.586 1.09c.02.19.074.374.16.537.084.162.199.302.334.407a15.6 15.6 0 0 0 3.045 2.118 35 35 0 0 1 5.427 3.997l.636-.931a30 30 0 0 0-5.208-3.89z" clip-rule="evenodd"/><path fill="url(#l)" fill-rule="evenodd" d="M23.624 19.735c.77.701 1.606 1.297 2.493 1.774.248-.322.493-.613.73-.895a12.3 12.3 0 0 1-2.586-1.83c-.425-.418-.566-.776-.521-1.06l-.586 1.088c.02.191.074.375.16.538.085.162.199.301.334.407zM21.03 30.642a12 12 0 0 1-1.977-1.433 4.6 4.6 0 0 1-.933-.891.95.95 0 0 1-.154-.564l-.554.886a.9.9 0 0 0-.011.33.8.8 0 0 0 .108.301c.198.292.434.546.698.754.774.687 1.61 1.272 2.496 1.743.102-.362.223-.733.362-1.124z" clip-rule="evenodd" style="mix-blend-mode:multiply"/><path fill="url(#m)" fill-rule="evenodd" d="M19.471 28.171a87.3 87.3 0 0 0 7.534-13.1c-.186.438-.805.581-1.335.71-.531.13-1.15.273-1.327.712a139 139 0 0 1-7.447 12.727 2.7 2.7 0 0 1 1.3-.436 2.06 2.06 0 0 0 1.275-.613" clip-rule="evenodd"/><path fill="url(#n)" fill-rule="evenodd" d="M19.57 28.25a89 89 0 0 0 7.435-13.18c.146-.37.052-.796-.503-1.345-1.346-1.36-3.945-2.587-6.76-4.629l-7.484 13.012c2.815 2.042 5.38 3.267 6.76 4.63.327.318.884.98.552 1.511" clip-rule="evenodd"/><path fill="url(#o)" fill-rule="evenodd" d="M26.502 13.725q-.395-.39-.822-.73c-1.017 2.218-2.273 4.635-3.7 7.113a79 79 0 0 1-3.715 5.903q.433.311.825.69c.327.319.884.98.553 1.512a89 89 0 0 0 7.434-13.179c.146-.37.052-.796-.503-1.345z" clip-rule="evenodd" style="mix-blend-mode:screen"/><path fill="url(#p)" fill-rule="evenodd" d="M27.386 22.32a33 33 0 0 1 3.467 2.454l.711-.886a31.4 31.4 0 0 0-3.665-2.61q-.243.517-.51.992zm-1.723 11.447a28 28 0 0 0-3.5-2.466c-.214.324-.427.648-.64.982a26.6 26.6 0 0 1 3.666 2.59c.138-.37.293-.74.448-1.108z" clip-rule="evenodd" style="mix-blend-mode:screen"/><path fill="url(#q)" fill-rule="evenodd" d="M23.77 11.74c-1.186-.754-2.575-1.584-4.028-2.644L12.266 22.11c1.493 1.124 2.926 1.946 4.172 2.715.971-1.524 1.878-3.124 2.832-4.783a212 212 0 0 0 4.526-8.299z" clip-rule="evenodd" style="mix-blend-mode:multiply"/><path fill="url(#r)" d="M12.335 21.99c1.213.88 2.374 1.613 3.418 2.276 1.17.672 2.282 1.47 3.323 2.383.236.206.424.48.548.794a1 1 0 0 1-.046.704 1.08 1.08 0 0 1-.602.545q-.401.159-.817.243-.393.083-.773.236a.85.85 0 0 0-.48.409.62.62 0 0 0-.031.48c.109.274.276.511.485.687.87.784 1.816 1.445 2.82 1.97a29.6 29.6 0 0 1 5.642 4.309.37.37 0 0 1-.268.095 28.8 28.8 0 0 0-5.477-4.155 14.7 14.7 0 0 1-2.793-1.988 2.04 2.04 0 0 1-.548-.795.94.94 0 0 1 .047-.704c.126-.261.332-.457.575-.546q.395-.168.809-.244a4.7 4.7 0 0 0 .781-.235.86.86 0 0 0 .47-.41.65.65 0 0 0 .033-.49 1.9 1.9 0 0 0-.485-.687 20 20 0 0 0-3.326-2.342c-1.053-.664-2.223-1.387-3.435-2.277l.128-.227z"/><path fill="url(#s)" fill-rule="evenodd" d="M20.318 24.845c-1.38-1.362-4.045-2.655-6.91-4.74l-.57.986c2.84 2.074 5.463 3.334 6.843 4.706.352.331.866.98.545 1.491.202-.294.415-.618.648-.981.286-.504-.195-1.12-.554-1.482zm6.224-8.699c.146-.37.054-.816-.512-1.335-1.389-1.373-4.012-2.633-6.816-4.704l-.58.986c2.873 2.097 5.534 3.441 6.926 4.763.516.495.686.957.52 1.346.182-.367.344-.725.506-1.063z" clip-rule="evenodd"/><path fill="url(#t)" fill-rule="evenodd" d="M26.542 16.146c.146-.37.054-.816-.512-1.335a9 9 0 0 0-.891-.735l-.51.99q.467.344.89.756c.516.496.685.958.52 1.347.181-.367.344-.726.506-1.063zm-5.67 10.181c.287-.504-.195-1.12-.554-1.482s-.517-.464-.823-.71l-.63.983q.432.32.823.71c.352.331.866.98.545 1.492.202-.294.415-.619.648-.982z" clip-rule="evenodd" style="mix-blend-mode:screen"/><path fill="url(#u)" fill-rule="evenodd" d="M18.59 11.1c1.467 1.123 2.884 1.934 4.104 2.701l.535-.99c-1.2-.796-2.606-1.648-4.015-2.704l-.58.986zm-.995 11.761c-1.236-.789-2.683-1.663-4.169-2.756l-.57.988c1.5 1.124 2.942 1.967 4.17 2.745.204-.325.4-.66.596-.985z" clip-rule="evenodd" style="mix-blend-mode:multiply"/><path fill="url(#v)" fill-rule="evenodd" d="M18.88 7.666c.332.258.63.571.886.93.2.28.278.53.2.67l-3.875 6.732-3.708 6.457-1.38-1.116-1.37-1.116a457 457 0 0 0 3.773-6.39c1.238-2.143 2.594-4.605 3.808-6.78.079-.137.306-.153.603-.041a4 4 0 0 1 1.066.603z" clip-rule="evenodd"/><path fill="url(#w)" fill-rule="evenodd" d="M13.964 13.951a631 631 0 0 0 3.878-6.917c-.29-.101-.516-.096-.603.032-1.184 2.114-2.472 4.489-3.697 6.56-.178.316-.356.632-.544.989a252 252 0 0 1-3.365 5.608c.087-.137.33-.132.645-.018a442 442 0 0 0 3.689-6.295z" clip-rule="evenodd" style="mix-blend-mode:multiply"/><path fill="url(#x)" fill-rule="evenodd" d="M18.203 7.232a630 630 0 0 1-3.939 6.913c-1.267 2.181-2.407 4.155-3.631 6.216q.349.192.667.444l.14.102a689 689 0 0 0 3.585-6.168l3.988-7.002-.132-.112a6 6 0 0 0-.676-.434z" clip-rule="evenodd" style="mix-blend-mode:screen"/><path fill="url(#y)" fill-rule="evenodd" d="m19.526 8.273-3.938 6.913a861 861 0 0 1-3.617 6.258c.365.403.549.784.44.972l3.707-6.437.148-.256 3.7-6.468c.079-.138.026-.388-.2-.67-.07-.106-.151-.204-.24-.312" clip-rule="evenodd" style="mix-blend-mode:multiply"/><path fill="#A71B00" fill-rule="evenodd" d="M11.297 20.846c.761.593 1.254 1.302 1.088 1.578-.167.276-.873.035-1.704-.563-.83-.598-1.253-1.313-1.087-1.589s.873-.034 1.703.574" clip-rule="evenodd"/><path fill="url(#z)" fill-rule="evenodd" d="M12.157 22.44c-1.242 2.08-1.512 2.472-2.722 4.585s-4.811 8.393-5.963 10.54l-1.242-.963-1.242-.953c1.269-2.079 4.904-8.356 6.15-10.467 1.244-2.11 1.43-2.539 2.598-4.685.069-.119.262-.137.534-.047.335.126.651.309.939.544.306.22.58.494.816.812.175.247.248.467.17.595z" clip-rule="evenodd"/><path fill="url(#A)" fill-rule="evenodd" d="M11.99 21.814a3.2 3.2 0 0 0-.445-.511l-2.8 4.826c-1.257 2.171-4.917 8.56-6.159 10.753l.886.684c1.169-2.147 4.764-8.468 5.982-10.57s1.48-2.505 2.723-4.585c.078-.129.023-.347-.17-.596z" clip-rule="evenodd" style="mix-blend-mode:multiply"/><path fill="url(#B)" fill-rule="evenodd" d="M1.362 35.92c1.274-2.16 4.975-8.516 6.234-10.707s1.469-2.599 2.666-4.774c-.264-.09-.46-.03-.525.047-1.17 2.167-1.382 2.604-2.6 4.696C5.92 27.274 2.257 33.57.987 35.65l.357.27z" clip-rule="evenodd" style="mix-blend-mode:multiply"/><path fill="url(#C)" fill-rule="evenodd" d="M2.495 36.148c.67.526 1.107 1.16.96 1.406-.147.247-.802.019-1.48-.508-.68-.526-1.108-1.149-.987-1.397.12-.248.81-.018 1.49.508z" clip-rule="evenodd"/><path fill="url(#D)" fill-rule="evenodd" d="M11.15 20.96a4 4 0 0 0-.737-.44C7.027 26.447 2.94 33.77 3.122 33.916s4.604-6.982 8.028-12.956" clip-rule="evenodd" style="mix-blend-mode:screen"/><path fill="url(#E)" fill-rule="evenodd" d="M13.642 20.253c.169-.307-.409-1.052-1.087-1.589a2.33 2.33 0 0 0-1.566-.657l-.614.984c.262-.146.948.145 1.594.649.645.504 1.254 1.292 1.087 1.578l.588-.985zM17.72 9.68c.322.257 1.314 1.184 1.087 1.589.196-.336.384-.682.579-.987s-.78-1.373-1.088-1.588c-.307-.216-1.29-.895-1.611-.63l-.553.988c.343-.192 1.295.424 1.584.648z" clip-rule="evenodd"/><path fill="url(#F)" fill-rule="evenodd" d="M17.06 9.257q.34.187.659.423l.14.122.578-.987-.14-.111a5 5 0 0 0-.668-.434zm-4.356 9.53-.149-.123a4.5 4.5 0 0 0-.65-.422l-.588.986q.342.183.65.432l.15.113z" clip-rule="evenodd" style="mix-blend-mode:screen"/><path fill="url(#G)" fill-rule="evenodd" d="M16.134 9.032a.75.75 0 0 1 .572.038c.196-.336.384-.682.57-.987-.246-.088-.47-.134-.59-.04zm-4.575 9.044a.87.87 0 0 0-.572-.038l-.614.984a.83.83 0 0 1 .59.039z" clip-rule="evenodd" style="mix-blend-mode:multiply"/><path fill="url(#H)" fill-rule="evenodd" d="m13.21 19.282-.587.985c.348.403.54.784.432.972l.588-.986c.108-.198-.093-.58-.432-.971m5.12-8.988c.309.349.57.745.441.972l.58-.986c.137-.237-.133-.634-.441-.972z" clip-rule="evenodd" style="mix-blend-mode:multiply"/><path fill="url(#I)" fill-rule="evenodd" d="M28.163 15.587a3.4 3.4 0 0 1-.54 1.639 2.7 2.7 0 0 1-1.216 1.029 2.2 2.2 0 0 1-1.484.073 2.46 2.46 0 0 1-1.25-.907 3.2 3.2 0 0 1-.595-1.582c-.06-.589.03-1.189.26-1.724.229-.535.586-.982 1.027-1.284s.945-.445 1.449-.412c.675.045 1.302.404 1.743.998.44.594.658 1.375.606 2.17" clip-rule="evenodd" opacity="0.75" style="mix-blend-mode:screen"/><defs><linearGradient id="e" x1="17.2406" x2="20.7003" y1="6.51235" y2="8.49634" gradientUnits="userSpaceOnUse"><stop offset="0.05" stop-color="#ED9500"/><stop offset="0.4" stop-color="#FC0"/><stop offset="0.93" stop-color="#B36600"/></linearGradient><linearGradient id="h" x1="20.4001" x2="30.4393" y1="23.3442" y2="29.1165" gradientUnits="userSpaceOnUse"><stop stop-color="#9C0E0E"/><stop offset="0.69" stop-color="#FC3F00"/><stop offset="1" stop-color="#C4020B"/></linearGradient><linearGradient id="i" x1="23.3758" x2="29.1346" y1="25.5907" y2="28.9033" gradientUnits="userSpaceOnUse"><stop/><stop offset="0.13" stop-color="#3E1111"/><stop offset="0.31" stop-color="#902727"/><stop offset="0.47" stop-color="#CC3737"/><stop offset="0.58" stop-color="#F14141"/><stop offset="0.64" stop-color="#FF4545"/><stop offset="0.68" stop-color="#F24040"/><stop offset="0.77" stop-color="#D03333"/><stop offset="0.89" stop-color="#991D1D"/><stop offset="1" stop-color="#630808"/></linearGradient><linearGradient id="j" x1="20.4" x2="24.5365" y1="23.3441" y2="25.7231" gradientUnits="userSpaceOnUse"><stop stop-color="#800C0C"/><stop offset="1" stop-color="#FFE4BF"/></linearGradient><linearGradient id="k" x1="20.4018" x2="30.2983" y1="23.4468" y2="29.1472" gradientUnits="userSpaceOnUse"><stop offset="0.07" stop-color="#B36600"/><stop offset="0.6" stop-color="#FC0"/><stop offset="0.95" stop-color="#ED9500"/></linearGradient><linearGradient id="l" x1="20.4018" x2="23.9984" y1="23.4468" y2="25.5205" gradientUnits="userSpaceOnUse"><stop offset="0.57" stop-color="#FFA163"/><stop offset="1" stop-color="#FFE4BF"/></linearGradient><linearGradient id="m" x1="21.2713" x2="23.0375" y1="21.6186" y2="22.633" gradientUnits="userSpaceOnUse"><stop stop-color="#960007"/><stop offset="1" stop-color="#610000"/></linearGradient><linearGradient id="n" x1="16.0539" x2="24.4352" y1="15.5035" y2="20.3242" gradientUnits="userSpaceOnUse"><stop stop-color="#9C0E0E"/><stop offset="0.75" stop-color="#FC3F00"/><stop offset="1" stop-color="#C4020B"/></linearGradient><linearGradient id="o" x1="21.6728" x2="23.935" y1="19.8928" y2="21.1944" gradientUnits="userSpaceOnUse"><stop/><stop offset="0.68" stop-color="#FF7373"/><stop offset="0.74" stop-color="#F26D6D"/><stop offset="0.84" stop-color="#D05E5E"/><stop offset="0.97" stop-color="#994545"/><stop offset="1" stop-color="#8C3F3F"/></linearGradient><linearGradient id="p" x1="24.7656" x2="28.6678" y1="26.6768" y2="28.9211" gradientUnits="userSpaceOnUse"><stop/><stop offset="0.02" stop-color="#0F0E0B"/><stop offset="0.1" stop-color="#4E4936"/><stop offset="0.18" stop-color="#847C5B"/><stop offset="0.25" stop-color="#B0A67A"/><stop offset="0.33" stop-color="#D2C691"/><stop offset="0.4" stop-color="#EBDDA2"/><stop offset="0.46" stop-color="#FAEBAC"/><stop offset="0.51" stop-color="#FFF0B0"/><stop offset="0.56" stop-color="#F9EAAC"/><stop offset="0.62" stop-color="#E8DAA0"/><stop offset="0.69" stop-color="#CCC08D"/><stop offset="0.77" stop-color="#A59B72"/><stop offset="0.85" stop-color="#736C4F"/><stop offset="0.93" stop-color="#373326"/><stop offset="1"/></linearGradient><linearGradient id="q" x1="16.1028" x2="22.781" y1="15.4248" y2="19.267" gradientUnits="userSpaceOnUse"><stop stop-color="#FF3030"/><stop offset="1" stop-color="#FFE4BF"/></linearGradient><linearGradient id="r" x1="11.4507" x2="28.1406" y1="23.5206" y2="33.1171" gradientUnits="userSpaceOnUse"><stop stop-color="#C4020B"/><stop offset="1" stop-color="#FC3F00"/></linearGradient><linearGradient id="s" x1="16.0629" x2="24.3537" y1="15.5042" y2="20.2711" gradientUnits="userSpaceOnUse"><stop offset="0.07" stop-color="#B36600"/><stop offset="0.6" stop-color="#FC0"/><stop offset="0.95" stop-color="#ED9500"/></linearGradient><linearGradient id="t" x1="21.7475" x2="23.8467" y1="19.9489" y2="21.1519" gradientUnits="userSpaceOnUse"><stop/><stop offset="1" stop-color="#FFF0B0"/></linearGradient><linearGradient id="u" x1="16.103" x2="20.4298" y1="15.4248" y2="17.9204" gradientUnits="userSpaceOnUse"><stop stop-color="#FFA163"/><stop offset="1" stop-color="#FFE4BF"/></linearGradient><linearGradient id="v" x1="13.5631" x2="16.565" y1="13.4326" y2="15.1652" gradientUnits="userSpaceOnUse"><stop stop-color="#9C0E0E"/><stop offset="0.3" stop-color="#FC3F00"/><stop offset="1" stop-color="#C4020B"/></linearGradient><linearGradient id="w" x1="13.5237" x2="14.0458" y1="13.5017" y2="13.7979" gradientUnits="userSpaceOnUse"><stop stop-color="#800C0C"/><stop offset="1" stop-color="#FFE4BF"/></linearGradient><linearGradient id="x" x1="14.1958" x2="15.7015" y1="13.5975" y2="14.4682" gradientUnits="userSpaceOnUse"><stop/><stop offset="0.09" stop-color="#3E1111"/><stop offset="0.21" stop-color="#902727"/><stop offset="0.31" stop-color="#CC3737"/><stop offset="0.38" stop-color="#F14141"/><stop offset="0.42" stop-color="#FF4545"/><stop offset="0.5" stop-color="#F24040"/><stop offset="0.64" stop-color="#D03333"/><stop offset="0.83" stop-color="#991D1D"/><stop offset="1" stop-color="#630808"/></linearGradient><linearGradient id="y" x1="15.6118" x2="16.3599" y1="15.0849" y2="15.5158" gradientUnits="userSpaceOnUse"><stop stop-color="#FFE4BF"/><stop offset="1" stop-color="#800C0C"/></linearGradient><linearGradient id="z" x1="5.49855" x2="8.16623" y1="27.8512" y2="29.3862" gradientUnits="userSpaceOnUse"><stop stop-color="#546578"/><stop offset="0.32" stop-color="#8DA0B8"/><stop offset="1" stop-color="#546578"/></linearGradient><linearGradient id="A" x1="6.89616" x2="7.86902" y1="28.9581" y2="29.5148" gradientUnits="userSpaceOnUse"><stop stop-color="#fff"/><stop offset="0.52" stop-color="#C3CEE0"/><stop offset="1" stop-color="#8A9FC2"/></linearGradient><linearGradient id="B" x1="5.45906" x2="6.93741" y1="27.9202" y2="28.773" gradientUnits="userSpaceOnUse"><stop stop-color="#8A9FC2"/><stop offset="0.48" stop-color="#C3CEE0"/><stop offset="1" stop-color="#fff"/></linearGradient><linearGradient id="E" x1="13.6282" x2="14.8175" y1="13.3652" y2="14.0475" gradientUnits="userSpaceOnUse"><stop offset="0.07" stop-color="#B36600"/><stop offset="0.6" stop-color="#FC0"/><stop offset="0.95" stop-color="#ED9500"/></linearGradient><linearGradient id="F" x1="14.4846" x2="15.3409" y1="13.7087" y2="14.2024" gradientUnits="userSpaceOnUse"><stop stop-color="#FFF0B0"/><stop offset="1"/></linearGradient><linearGradient id="G" x1="13.6095" x2="14.0959" y1="13.3843" y2="13.6626" gradientUnits="userSpaceOnUse"><stop stop-color="#FFA163"/><stop offset="1" stop-color="#FFE4BF"/></linearGradient><linearGradient id="H" x1="15.6606" x2="16.4087" y1="15.0061" y2="15.437" gradientUnits="userSpaceOnUse"><stop stop-color="#FFE4BF"/><stop offset="1" stop-color="#FFA163"/></linearGradient><radialGradient id="a" cx="0" cy="0" r="1" gradientTransform="rotate(37.997 2.463 31.015)scale(2.85547 3.06614)" gradientUnits="userSpaceOnUse"><stop stop-color="#FCCD10"/><stop offset="0.22" stop-color="#EDAB09"/><stop offset="0.45" stop-color="#E08E02"/><stop offset="0.58" stop-color="#DB8300"/><stop offset="0.71" stop-color="#D67D00"/><stop offset="0.88" stop-color="#C86C00"/><stop offset="1" stop-color="#BA5B00"/></radialGradient><radialGradient id="b" cx="0" cy="0" r="1" gradientTransform="matrix(2.73755 2.13858 -2.29636 2.93951 19.586 3.808)" gradientUnits="userSpaceOnUse"><stop stop-color="#FFE58A"/><stop offset="1"/></radialGradient><radialGradient id="c" cx="0" cy="0" r="1" gradientTransform="rotate(37.997 5.802 29.518)scale(3.42839 3.68132)" gradientUnits="userSpaceOnUse"><stop stop-color="#FFE58A"/><stop offset="1"/></radialGradient><radialGradient id="d" cx="0" cy="0" r="1" gradientTransform="matrix(2.59422 2.02661 -2.17613 2.78561 20.114 5.744)" gradientUnits="userSpaceOnUse"><stop stop-color="#FFE58A"/><stop offset="1"/></radialGradient><radialGradient id="f" cx="0" cy="0" r="1" gradientTransform="matrix(7.4171 .49083 -.578 8.73429 19.705 9.258)" gradientUnits="userSpaceOnUse"><stop stop-color="#E38812"/><stop offset="0.11" stop-color="#E6962D"/><stop offset="0.73" stop-color="#F8E1C3"/><stop offset="1" stop-color="#fff"/></radialGradient><radialGradient id="g" cx="0" cy="0" r="1" gradientTransform="matrix(2.64277 .17489 -.20595 3.1121 17.999 6.235)" gradientUnits="userSpaceOnUse"><stop stop-color="#FFF0B0"/><stop offset="1"/></radialGradient><radialGradient id="C" cx="0" cy="0" r="1" gradientTransform="matrix(3.50925 .23223 -.27347 4.13246 1.782 33.775)" gradientUnits="userSpaceOnUse"><stop stop-color="#ADBDC9"/><stop offset="1" stop-color="#263754"/></radialGradient><radialGradient id="D" cx="0" cy="0" r="1" gradientTransform="rotate(3.786 -294.065 -1.358)scale(13.5728 15.9831)" gradientUnits="userSpaceOnUse"><stop stop-color="#fff"/><stop offset="0.11" stop-color="#FAFAFA"/><stop offset="0.23" stop-color="#EDEDED"/><stop offset="0.36" stop-color="#D6D6D6"/><stop offset="0.5" stop-color="#B7B7B7"/><stop offset="0.64" stop-color="#8E8E8E"/><stop offset="0.78" stop-color="#5C5C5C"/><stop offset="0.92" stop-color="#232323"/><stop offset="1"/></radialGradient><radialGradient id="I" cx="0" cy="0" r="1" gradientTransform="matrix(2.54746 .16858 -.19852 2.99986 25.615 15.419)" gradientUnits="userSpaceOnUse"><stop stop-color="#FCEA10"/><stop offset="0.12" stop-color="#CDBF0D"/><stop offset="0.3" stop-color="#908509"/><stop offset="0.47" stop-color="#5C5606"/><stop offset="0.63" stop-color="#343103"/><stop offset="0.78" stop-color="#181601"/><stop offset="0.91" stop-color="#060600"/><stop offset="1"/></radialGradient></defs></svg>