<svg xmlns="http://www.w3.org/2000/svg" width="23" height="24" fill="none" viewBox="0 0 23 24"><g clip-path="url(#a)"><path fill="#EA4335" d="M10.784 11.442.734 21.97a2.725 2.725 0 0 0 3.992 1.617l11.307-6.44z"/><path fill="#FBBC04" d="m20.945 9.652-4.89-2.8-5.503 4.83 5.526 5.45 4.852-2.77a2.657 2.657 0 0 0 0-4.71z"/><path fill="#4285F4" d="M.735 1.992q-.09.338-.09.689v18.6q0 .35.09.689l10.393-10.26z"/><path fill="#34A853" d="m10.859 11.98 5.196-5.128L4.763.382A2.8 2.8 0 0 0 3.363 0 2.726 2.726 0 0 0 .735 1.984z"/></g><defs><clipPath id="a"><path fill="#fff" d="M.644 0h21.712v24H.644z"/></clipPath></defs></svg>