<svg xmlns="http://www.w3.org/2000/svg" width="28" height="28" fill="none" viewBox="0 0 28 28"><path fill="#FFD400" fill-rule="evenodd" d="M22.146 27.907a.77.77 0 0 0 .73-.138.87.87 0 0 0 .357-.668c.167-2.446-1.159-7.197-.794-8.29.366-1.092 4.137-4.14 5.399-6.218a.9.9 0 0 0 .095-.758.88.88 0 0 0-.508-.555c-2.215-.92-7.018-1.092-7.939-1.776-.73-.547-4.2-8.38-5.558-9.178-.23-.139-.5.114-.666.326-1.533 1.875-2.382 8.15-3.311 8.852-.929.7-7.002-.449-9.21.464a.8.8 0 0 0-.322.216.8.8 0 0 0-.186.347c-.214.676 4.621 5.705 5.137 6.267a7.8 7.8 0 0 1 1.636 2.013c.349 1.093-.969 5.844-.794 8.29a.9.9 0 0 0 .365.668.79.79 0 0 0 .722.138c2.319-.587 6.312-3.35 7.431-3.35 1.12 0 5.121 2.764 7.432 3.35z" clip-rule="evenodd"/><path fill="url(#a)" fill-rule="evenodd" d="M20.685 25.927a.84.84 0 0 0 .73-.147.83.83 0 0 0 .357-.668c.167-2.445-1.15-7.189-.794-8.29.358-1.1 4.129-4.14 5.4-6.218a.92.92 0 0 0-.108-1.092.9.9 0 0 0-.314-.22c-2.207-.913-7.018-1.093-7.939-1.769-.92-.677-2.556-5.29-4.088-7.197a.846.846 0 0 0-1.041-.242.9.9 0 0 0-.301.242C11.055 2.201 9.41 6.846 8.49 7.523c-.92.676-5.716.856-7.939 1.769a.9.9 0 0 0-.313.22.91.91 0 0 0-.232.723.9.9 0 0 0 .124.369c1.27 2.078 5.058 5.118 5.407 6.219s-.977 5.844-.794 8.289a.92.92 0 0 0 .357.67.86.86 0 0 0 .73.145c2.343-.595 6.312-3.317 7.432-3.317s5.113 2.763 7.423 3.358z" clip-rule="evenodd"/><path fill="url(#b)" fill-rule="evenodd" d="M25.464 10.49c-2.667 1.972-4.176 3.146-6.51 4.727a1.04 1.04 0 0 0-.405.44c-.09.183-.127.39-.103.595.69 2.282 2.644 5.942 2.779 8.216.087 1.345-1.032.937-1.683.644-2.263-.995-3.787-2.445-5.955-3.546a1.84 1.84 0 0 0-2.136.18c-1.31.88-3.636 3.023-5.557 3.643-.548.18-.89.138-1.103-.122a.8.8 0 0 0 .333.513.85.85 0 0 0 .73.147c2.319-.595 6.288-3.317 7.408-3.317s5.113 2.763 7.423 3.358a.84.84 0 0 0 .73-.147.83.83 0 0 0 .357-.668c.167-2.446-1.15-7.19-.794-8.29.358-1.1 4.129-4.14 5.4-6.218a.92.92 0 0 0-.108-1.092.9.9 0 0 0-.314-.22c-2.207-.913-7.018-1.093-7.939-1.77-.92-.676-2.556-5.33-4.088-7.237a.846.846 0 0 0-1.041-.242.9.9 0 0 0-.301.242q-.4.519-.723 1.092c.667-.717 1.358-1.165 1.977-.163a25 25 0 0 1 2.27 5.706c.39 1.165.62 1.63 2.859 1.8 2.556.188 4.676.368 6.2.628.842.147.858.75.294 1.166z" clip-rule="evenodd" style="mix-blend-mode:multiply"/><path fill="url(#c)" fill-rule="evenodd" d="M11.785 1.915c-.73 1.378-1.358 2.894-2.04 4.296-.58 1.198-.794 1.907-2.231 2.16-1.787.317-3.605.366-5.391.668-1.93.318-2.382.766-.984 2.356.793.945 4.644 4.49 4.89 5.354s-.19 2.168-.23 3.049c0 .424.143 1.043.794.277 5.28-5.958 6.613-7.067 14.282-9.691.794-.286 1.66-.49 2.493-.75.238-.073.548-.31-.135-.408-2.381-.334-4.303-.065-6.351-.26-.921-.082-1.509-1.223-1.794-2.014-.604-1.67-.913-3.447-1.493-5.126-.445-1.329-1.278-.815-1.762.081z" clip-rule="evenodd" style="mix-blend-mode:screen"/><path fill="url(#d)" fill-rule="evenodd" d="M5.672 9.675c-.492-.098-.373-.628.08-.734.738-.18 1.5-.212 2.23-.391a2.05 2.05 0 0 0 1.004-.454c.29-.24.51-.557.64-.915.793-1.63 1.587-3.798 2.381-5.274.302-.53.643-.448.564.147a42 42 0 0 1-1.207 5.559c-.262.953-.556 1.964-1.826 2.119a16.5 16.5 0 0 1-3.898-.057zm-1.81-.603c-.826.055-1.643.202-2.438.44-.794.277-.61.448.088.489q1.119.073 2.239 0c1.048-.074.905-.962.11-.905z" clip-rule="evenodd" style="mix-blend-mode:screen"/><path fill="url(#e)" fill-rule="evenodd" d="M18.914 23.71c-.349.147-1.183.334-.166.913a6.7 6.7 0 0 0 1.357.562c1.017.294 1.024-.456.874-1.214a25.4 25.4 0 0 0-1.588-4.63c-.278-.644-.627-.994-.508.05.119 1.173.325 2.338.444 3.512.048.538 0 .611-.437.815z" clip-rule="evenodd" style="mix-blend-mode:screen"/><path fill="#848484" fill-rule="evenodd" d="M4.894 25.568a11 11 0 0 0 1.667 2.2.78.78 0 0 0 .722.14c2.319-.588 6.312-3.35 7.431-3.35 1.12 0 5.121 2.762 7.432 3.35a.78.78 0 0 0 .73-.14.89.89 0 0 0 .357-.668c.167-2.445-1.159-7.196-.794-8.289.366-1.092 4.137-4.14 5.399-6.218a.9.9 0 0 0 .095-.758 11 11 0 0 0-1.651-2.323q.107.16.19.334a.84.84 0 0 1-.087.758c-1.27 2.078-5.057 5.118-5.399 6.219-.34 1.1.97 5.844.794 8.289a.8.8 0 0 1-.097.38.8.8 0 0 1-.26.288.85.85 0 0 1-.73.147c-2.318-.595-6.312-3.317-7.431-3.317-1.12 0-5.09 2.722-7.431 3.317a.84.84 0 0 1-.73-.147z" clip-rule="evenodd"/><path fill="url(#f)" fill-rule="evenodd" d="m20.97 16.823 1.493 1.98c.357-1.1 4.136-4.14 5.399-6.21a.9.9 0 0 0 .008-.946c-.45-.77-.983-1.487-1.588-2.135q.107.16.19.334a.83.83 0 0 1-.087.758 3 3 0 0 1-.19.285c-1.414 2.062-4.883 4.89-5.209 5.934z" clip-rule="evenodd"/><path fill="url(#g)" fill-rule="evenodd" d="m22.463 18.803-1.492-1.98c-.35 1.1.968 5.844.794 8.289a.8.8 0 0 1-.098.38.8.8 0 0 1-.26.288h-.055l1.46 1.98h.056a.89.89 0 0 0 .357-.668c.167-2.445-1.159-7.197-.794-8.289z" clip-rule="evenodd"/><path fill="url(#h)" fill-rule="evenodd" d="M20.685 25.927c-2.31-.595-6.304-3.317-7.423-3.317l1.46 1.988c1.128 0 5.113 2.763 7.424 3.35a.82.82 0 0 0 .674-.106l-1.46-1.98a.86.86 0 0 1-.675.106z" clip-rule="evenodd"/><path fill="url(#i)" fill-rule="evenodd" d="M7.283 27.907c2.319-.587 6.312-3.35 7.431-3.35l-1.452-1.947c-1.064 0-4.7 2.445-7.042 3.26l-.39.114a.84.84 0 0 1-.73-.147l-.206-.212a12.4 12.4 0 0 0 1.588 2.103l.11.098a.79.79 0 0 0 .723.138z" clip-rule="evenodd"/><path fill="url(#j)" fill-rule="evenodd" d="M15.755 24.509a1.73 1.73 0 0 0-2.024-.098c-1.89.872-4.304 2.583-6.09 3.048-.794.204-1.16.139-1.588-.187q.208.276.468.497a.78.78 0 0 0 .723.138c2.318-.587 6.311-3.35 7.43-3.35 1.12 0 5.122 2.764 7.432 3.35a.7.7 0 0 0 .317 0 6.3 6.3 0 0 1-1.754-.7c-1.588-.816-3.462-1.981-4.954-2.723z" clip-rule="evenodd" style="mix-blend-mode:multiply"/><path fill="url(#k)" fill-rule="evenodd" d="M22.987 17.271c-1.111 1.084-1.183 1.37-.937 2.942.334 2.111.842 4.385 1.017 6.52.04.314.02.633-.064.938a.9.9 0 0 0 .23-.546c.167-2.445-1.159-7.197-.794-8.29.366-1.091 4.137-4.14 5.399-6.218a.9.9 0 0 0 .095-.758 6.4 6.4 0 0 0-.754-1.214c.46 1.002.357 2.127-.992 3.561-1.017 1.084-2.128 2.054-3.176 3.09z" clip-rule="evenodd" style="mix-blend-mode:multiply"/><path fill="url(#l)" fill-rule="evenodd" d="M26.282 11.093c.754-.147 1.207 1.019 1.159 1.67q-.08.387-.262.734.35-.432.643-.904a.9.9 0 0 0 .008-.946c-.45-.77-.982-1.487-1.588-2.135q.107.16.19.334a.83.83 0 0 1-.087.758 3 3 0 0 1-.19.285c-.08.122-.167.237-.254.359a1 1 0 0 1 .357-.155z" clip-rule="evenodd" style="mix-blend-mode:screen"/><path fill="url(#m)" fill-rule="evenodd" d="M6.291 26.294a1 1 0 0 1-.095-.155.54.54 0 0 1 0-.31l-.326.098a.84.84 0 0 1-.73-.147l-.207-.212c.455.757.987 1.462 1.588 2.103l.111.098a.78.78 0 0 0 .723.138q.352-.084.69-.212a1.07 1.07 0 0 1-.754-.326 11 11 0 0 1-.928-1.075z" clip-rule="evenodd" style="mix-blend-mode:screen"/><path fill="url(#n)" fill-rule="evenodd" d="M20.82 26.147q.43.508.794 1.068c.158.236.325.53.198.603q.156.054.318.09a.77.77 0 0 0 .73-.14.93.93 0 0 0 .318-.448.41.41 0 0 1-.326-.17c-.27-.327-.524-.677-.794-1.028a1.22 1.22 0 0 1-.333-.904.88.88 0 0 1-.35.562.85.85 0 0 1-.73.147l-.183-.057q.2.115.358.285z" clip-rule="evenodd" style="mix-blend-mode:screen"/><defs><radialGradient id="a" cx="0" cy="0" r="1" gradientTransform="matrix(24.7623 0 0 25.4214 8.45 5.2)" gradientUnits="userSpaceOnUse"><stop stop-color="#FCF800"/><stop offset="1" stop-color="#FC9700"/></radialGradient><radialGradient id="b" cx="0" cy="0" r="1" gradientTransform="matrix(23.6031 0 0 24.2314 11.666 7.67)" gradientUnits="userSpaceOnUse"><stop stop-color="#fff"/><stop offset="0.1" stop-color="#FFFDF9"/><stop offset="0.22" stop-color="#FFF7E9"/><stop offset="0.36" stop-color="#FFECCF"/><stop offset="0.51" stop-color="#FFDEAA"/><stop offset="0.67" stop-color="#FFCC7A"/><stop offset="0.84" stop-color="#FFB641"/><stop offset="1" stop-color="#FF9D00"/></radialGradient><radialGradient id="c" cx="0" cy="0" r="1" gradientTransform="matrix(21.7295 0 0 22.3079 5.362 .359)" gradientUnits="userSpaceOnUse"><stop stop-color="#FFF261"/><stop offset="0.11" stop-color="#FAEE5F"/><stop offset="0.23" stop-color="#EDE15A"/><stop offset="0.36" stop-color="#D6CB52"/><stop offset="0.5" stop-color="#B7AD46"/><stop offset="0.64" stop-color="#8E8736"/><stop offset="0.78" stop-color="#5C5823"/><stop offset="0.92" stop-color="#23210D"/><stop offset="1"/></radialGradient><radialGradient id="d" cx="0" cy="0" r="1" gradientTransform="matrix(15.7354 0 0 16.1543 5.442 1.223)" gradientUnits="userSpaceOnUse"><stop stop-color="#FFFACF"/><stop offset="1"/></radialGradient><radialGradient id="e" cx="0" cy="0" r="1" gradientTransform="matrix(10.1304 0 0 10.4 16.048 23.465)" gradientUnits="userSpaceOnUse"><stop/><stop offset="0.08" stop-color="#232112"/><stop offset="0.22" stop-color="#5C582E"/><stop offset="0.36" stop-color="#8E8747"/><stop offset="0.5" stop-color="#B7AE5C"/><stop offset="0.64" stop-color="#D6CC6C"/><stop offset="0.77" stop-color="#EDE277"/><stop offset="0.89" stop-color="#FAEF7E"/><stop offset="1" stop-color="#FFF380"/></radialGradient><radialGradient id="f" cx="0" cy="0" r="1" gradientTransform="matrix(11.5356 0 0 11.8427 19.311 7.4)" gradientUnits="userSpaceOnUse"><stop stop-color="#FCAC00"/><stop offset="1" stop-color="#FF7300"/></radialGradient><radialGradient id="g" cx="0" cy="0" r="1" gradientTransform="matrix(10.5988 0 0 10.8809 13.635 24.86)" gradientUnits="userSpaceOnUse"><stop stop-color="#FC8F00"/><stop offset="1" stop-color="#E86900"/></radialGradient><radialGradient id="h" cx="0" cy="0" r="1" gradientTransform="matrix(13.2505 0 0 13.6032 25.051 16.203)" gradientUnits="userSpaceOnUse"><stop stop-color="#FCAC00"/><stop offset="1" stop-color="#FF7300"/></radialGradient><radialGradient id="i" cx="0" cy="0" r="1" gradientTransform="matrix(10.6067 0 0 10.8891 5.894 30.287)" gradientUnits="userSpaceOnUse"><stop stop-color="#FC8F00"/><stop offset="1" stop-color="#E86900"/></radialGradient><radialGradient id="j" cx="0" cy="0" r="1" gradientTransform="matrix(13.3854 0 0 13.7417 15.024 18.82)" gradientUnits="userSpaceOnUse"><stop stop-color="#fff"/><stop offset="0.1" stop-color="#FEFBF9"/><stop offset="0.22" stop-color="#FBF0E9"/><stop offset="0.36" stop-color="#F6DECF"/><stop offset="0.51" stop-color="#F0C4AA"/><stop offset="0.67" stop-color="#E7A47A"/><stop offset="0.84" stop-color="#DD7C41"/><stop offset="1" stop-color="#D15000"/></radialGradient><radialGradient id="k" cx="0" cy="0" r="1" gradientTransform="matrix(12.7265 0 0 13.0653 15.898 16.114)" gradientUnits="userSpaceOnUse"><stop stop-color="#fff"/><stop offset="0.1" stop-color="#FEFBF9"/><stop offset="0.22" stop-color="#FBF0E9"/><stop offset="0.36" stop-color="#F6DECF"/><stop offset="0.51" stop-color="#F0C4AA"/><stop offset="0.67" stop-color="#E7A47A"/><stop offset="0.84" stop-color="#DD7C41"/><stop offset="1" stop-color="#D15000"/></radialGradient><radialGradient id="l" cx="0" cy="0" r="1" gradientTransform="matrix(5.78765 0 0 5.94172 25.909 8.126)" gradientUnits="userSpaceOnUse"><stop stop-color="#FFF261"/><stop offset="0.11" stop-color="#FAEE5F"/><stop offset="0.23" stop-color="#EDE15A"/><stop offset="0.36" stop-color="#D6CB52"/><stop offset="0.5" stop-color="#B7AD46"/><stop offset="0.64" stop-color="#8E8736"/><stop offset="0.78" stop-color="#5C5823"/><stop offset="0.92" stop-color="#23210D"/><stop offset="1"/></radialGradient><radialGradient id="m" cx="0" cy="0" r="1" gradientTransform="matrix(5.93056 0 0 6.08842 5.45 22.373)" gradientUnits="userSpaceOnUse"><stop stop-color="#FFF261"/><stop offset="0.11" stop-color="#FAEE5F"/><stop offset="0.23" stop-color="#EDE15A"/><stop offset="0.36" stop-color="#D6CB52"/><stop offset="0.5" stop-color="#B7AD46"/><stop offset="0.64" stop-color="#8E8736"/><stop offset="0.78" stop-color="#5C5823"/><stop offset="0.92" stop-color="#23210D"/><stop offset="1"/></radialGradient><radialGradient id="n" cx="0" cy="0" r="1" gradientTransform="matrix(6.28782 0 0 6.4552 24.13 22.56)" gradientUnits="userSpaceOnUse"><stop stop-color="#FFF261"/><stop offset="0.11" stop-color="#FAEE5F"/><stop offset="0.23" stop-color="#EDE15A"/><stop offset="0.36" stop-color="#D6CB52"/><stop offset="0.5" stop-color="#B7AD46"/><stop offset="0.64" stop-color="#8E8736"/><stop offset="0.78" stop-color="#5C5823"/><stop offset="0.92" stop-color="#23210D"/><stop offset="1"/></radialGradient></defs></svg>