<svg xmlns="http://www.w3.org/2000/svg" width="24" height="28" fill="none" viewBox="0 0 24 28"><path fill="url(#a)" fill-rule="evenodd" d="M20.34 5.292c4 3.18 4.777 9.93 1.625 15.662s-9.136 8.415-13.771 6.358a31 31 0 0 1-3.573-1.87l6.225-11.23 6.189-11.22c1.157.69 2.27 1.459 3.33 2.3z" clip-rule="evenodd"/><path fill="url(#b)" fill-rule="evenodd" d="M20.205 6.807c2.769 2.207 3.707 7.106 2.063 11.37s-5.287 6.396-8.385 5.05a19 19 0 0 1-2.403-1.254l3.224-8.368 3.224-8.416q1.186.71 2.277 1.571z" clip-rule="evenodd" style="mix-blend-mode:screen"/><path fill="url(#c)" fill-rule="evenodd" d="M20.607 6.545c3.412 2.721 4.17 8.593 1.608 13.624-2.394 4.675-6.859 7.087-10.637 6.021a8.55 8.55 0 0 1-3.565.375 8.65 8.65 0 0 1-3.418-1.123 31 31 0 0 0 3.572 1.87c4.635 2.038 10.61-.636 13.77-6.358 3.162-5.722 2.376-12.483-1.625-15.662A30 30 0 0 0 17 3.002a8.6 8.6 0 0 1 3 3.122c.197.14.385.29.581.45z" clip-rule="evenodd" style="mix-blend-mode:multiply"/><path fill="#FCCE3A" fill-rule="evenodd" d="M17.696 3.516c4.554 2.749 5.554 9.836 2.25 15.84-3.304 6.002-9.68 8.63-14.226 5.89S.13 15.4 3.478 9.397c3.35-6.003 9.672-8.63 14.218-5.881" clip-rule="evenodd" style="mix-blend-mode:screen"/><path fill="url(#d)" fill-rule="evenodd" d="M17.008 2.992c4.805 2.908 5.93 10.285 2.51 16.485S9.435 28.35 4.595 25.442-1.344 15.157 2.076 8.958 12.204.084 17.008 2.992" clip-rule="evenodd"/><path fill="#FFFCE4" fill-rule="evenodd" d="M12.043 23.282a.94.94 0 0 1-.241.407.9.9 0 0 1-.402.229.9.9 0 0 1-.777-.13 6.12 6.12 0 0 1-4.242-.412c-3.823-1.87-5.055-7.537-2.769-12.68 1.096-2.59 3.055-4.673 5.51-5.862a.95.95 0 0 1 .23-.486.9.9 0 0 1 .45-.271.85.85 0 0 1 .478-.009c.157.043.3.13.414.252a6 6 0 0 1 1.536-.14c.07-.1.167-.177.278-.218a.56.56 0 0 1 .347-.016c.096.018.187.06.264.121a.64.64 0 0 1 .183.234c.468.1.924.258 1.357.468 3.814 1.87 5.055 7.536 2.76 12.679-1.084 2.552-3.004 4.614-5.412 5.816z" clip-rule="evenodd" style="mix-blend-mode:screen"/><path fill="url(#e)" fill-rule="evenodd" d="M15.365 5.283c3.572 2.17 4.34 7.854 1.67 12.698-2.67 4.843-7.743 7.003-11.342 4.824-3.599-2.178-4.34-7.845-1.67-12.697 2.67-4.853 7.716-7.004 11.342-4.825" clip-rule="evenodd"/><path fill="url(#f)" fill-rule="evenodd" d="M5.98 12.025c2.527-4.582 7.34-6.63 10.716-4.573.478.292.914.654 1.295 1.075a6.47 6.47 0 0 0-2.68-3.244c-3.572-2.179-8.67 0-11.341 4.825-2.67 4.824-1.92 10.528 1.67 12.697q.389.23.804.402c-2.456-2.45-2.75-7.125-.518-11.22z" clip-rule="evenodd" opacity="0.5" style="mix-blend-mode:multiply"/><path fill="url(#g)" fill-rule="evenodd" d="M5.202 10.828c2.447-4.432 6.903-6.62 10.404-5.293a2.5 2.5 0 0 1 .33.14 4 4 0 0 0-.294-.214l-.277-.178c-3.572-2.179-8.671 0-11.342 4.825-2.67 4.824-1.92 10.528 1.67 12.697l.295.169.322.159-.277-.234c-2.85-2.506-3.269-7.649-.83-12.071" clip-rule="evenodd"/><path fill="url(#h)" fill-rule="evenodd" d="M13.088 5.161a6.1 6.1 0 0 1 2.518.374 2.5 2.5 0 0 1 .33.14 4 4 0 0 0-.294-.214l-.277-.178c-3.572-2.179-8.671 0-11.342 4.825-2.67 4.824-1.92 10.528 1.67 12.697l.295.169.322.159-.277-.234a6.2 6.2 0 0 1-1.143-1.337c-2.68-2.329-3.09-7.125-.893-11.277 2.107-3.945 5.92-6.003 9.073-5.124z" clip-rule="evenodd" style="mix-blend-mode:multiply"/><path fill="url(#i)" fill-rule="evenodd" d="M16.205 7.387c-6.368-3.04-12.324 5.61-11.44 11.22 3.518-1.374 9.377-4.404 11.44-11.22" clip-rule="evenodd" style="mix-blend-mode:screen"/><path fill="url(#j)" fill-rule="evenodd" d="M12.766 5.255a5.46 5.46 0 0 1-.838 2.943 5.1 5.1 0 0 1-2.26 1.958 4.84 4.84 0 0 1-2.919.311 5 5 0 0 1-2.59-1.442 5.36 5.36 0 0 1-1.386-2.707 5.5 5.5 0 0 1 .286-3.057A5.24 5.24 0 0 1 4.92.888 4.9 4.9 0 0 1 7.729 0a4.93 4.93 0 0 1 3.553 1.54 5.4 5.4 0 0 1 1.484 3.715" clip-rule="evenodd" style="mix-blend-mode:screen"/><defs><radialGradient id="b" cx="0" cy="0" r="1" gradientTransform="matrix(11.6276 0 0 12.1741 14.73 13.82)" gradientUnits="userSpaceOnUse"><stop stop-color="#FFF369"/><stop offset="0.11" stop-color="#FAEF67"/><stop offset="0.23" stop-color="#EDE262"/><stop offset="0.36" stop-color="#D6CC58"/><stop offset="0.5" stop-color="#B7AE4B"/><stop offset="0.64" stop-color="#8E873B"/><stop offset="0.78" stop-color="#5C5826"/><stop offset="0.92" stop-color="#23210E"/><stop offset="1"/></radialGradient><radialGradient id="c" cx="0" cy="0" r="1" gradientTransform="matrix(16.8698 0 0 17.6627 8.631 12.988)" gradientUnits="userSpaceOnUse"><stop offset="0.51" stop-color="#fff"/><stop offset="0.68" stop-color="#E6DDC3"/><stop offset="1" stop-color="#B09444"/></radialGradient><radialGradient id="d" cx="0" cy="0" r="1" gradientTransform="matrix(21.6298 0 0 22.6464 6.38 2.534)" gradientUnits="userSpaceOnUse"><stop stop-color="#FCF80D"/><stop offset="1" stop-color="#FC9C0D"/></radialGradient><radialGradient id="e" cx="0" cy="0" r="1" gradientTransform="matrix(26.4344 0 0 27.6768 .156 .29)" gradientUnits="userSpaceOnUse"><stop stop-color="#FCF80D"/><stop offset="1" stop-color="#F78A0C"/></radialGradient><radialGradient id="f" cx="0" cy="0" r="1" gradientTransform="matrix(15.2713 0 0 15.989 14.892 16.148)" gradientUnits="userSpaceOnUse"><stop offset="0.51" stop-color="#fff"/><stop offset="0.69" stop-color="#FFE2C3"/><stop offset="1" stop-color="#FFA84B"/></radialGradient><radialGradient id="h" cx="0" cy="0" r="1" gradientTransform="matrix(14.8069 0 0 15.5028 15.169 16.83)" gradientUnits="userSpaceOnUse"><stop offset="0.51" stop-color="#fff"/><stop offset="0.68" stop-color="#E6DDC3"/><stop offset="1" stop-color="#B09444"/></radialGradient><radialGradient id="i" cx="0" cy="0" r="1" gradientTransform="matrix(19.6829 0 0 20.608 -.361 .598)" gradientUnits="userSpaceOnUse"><stop stop-color="#FFF369"/><stop offset="0.11" stop-color="#FAEF67"/><stop offset="0.23" stop-color="#EDE262"/><stop offset="0.36" stop-color="#D6CC58"/><stop offset="0.5" stop-color="#B7AE4B"/><stop offset="0.64" stop-color="#8E873B"/><stop offset="0.78" stop-color="#5C5826"/><stop offset="0.92" stop-color="#23210E"/><stop offset="1"/></radialGradient><radialGradient id="j" cx="0" cy="0" r="1" gradientTransform="matrix(5.04576 0 0 5.28291 7.73 5.255)" gradientUnits="userSpaceOnUse"><stop stop-color="#FFF200"/><stop offset="0.07" stop-color="#E1D600"/><stop offset="0.21" stop-color="#A69E00"/><stop offset="0.36" stop-color="#746E00"/><stop offset="0.5" stop-color="#4A4600"/><stop offset="0.64" stop-color="#2A2800"/><stop offset="0.77" stop-color="#131200"/><stop offset="0.89" stop-color="#050500"/><stop offset="1"/></radialGradient><linearGradient id="a" x1="10.2029" x2="23.4529" y1="28.8082" y2="6.88538" gradientUnits="userSpaceOnUse"><stop stop-color="#E86F0C"/><stop offset="0.69" stop-color="#FC940D"/><stop offset="1" stop-color="#E86F0C"/></linearGradient><linearGradient id="g" x1="2.73739" x2="12.9281" y1="21.0194" y2="4.16433" gradientUnits="userSpaceOnUse"><stop stop-color="#FC940D"/><stop offset="1" stop-color="#E86F0C"/></linearGradient></defs></svg>