<svg xmlns="http://www.w3.org/2000/svg" width="16" height="28" fill="none" viewBox="0 0 16 28"><path fill="url(#a)" fill-rule="evenodd" d="M4.582 15.836c-1.016.078-3.068.085-4.113.035a.35.35 0 0 1-.245-.156q.398.626.912 1.17.37.476.845.858c.452 0 1.096.036 1.756.036.289-.667.585-1.32.874-1.944z" clip-rule="evenodd"/><path fill="url(#b)" fill-rule="evenodd" d="M14.178 4.432a212 212 0 0 1-4.78 6.957 85 85 0 0 1 2.854-.064c1.17-1.68 2.386-3.446 3.409-5.013a.4.4 0 0 0 0-.327 14.7 14.7 0 0 0-1.527-1.943h.067a.31.31 0 0 1 0 .32z" clip-rule="evenodd"/><path fill="url(#c)" fill-rule="evenodd" d="M14.304 11.9A154 154 0 0 1 2.64 24.835c-.563.553-1.482 1.418-1.72 1.29.082.156 1.26 1.653 1.483 1.865.193.107 1.156-.709 1.72-1.283 4.137-4.1 8.032-8.418 11.664-12.935a.37.37 0 0 0 .037-.355c0-.07 0-.042-.037-.064-.17-.255-1.171-1.531-1.483-1.843a.315.315 0 0 1-.037.354z" clip-rule="evenodd"/><path fill="url(#d)" fill-rule="evenodd" d="M14.12 4.524c.389.292.68.686.837 1.135.2 1.454-1.26 3.369-2.06 4.44a2.6 2.6 0 0 1-.696.78c-.284.212-.61.37-.957.46h1.008c1.17-1.68 2.386-3.446 3.409-5.013a.4.4 0 0 0 0-.327 14.5 14.5 0 0 0-1.527-1.957h.067a.31.31 0 0 1 0 .32l-.06.092z" clip-rule="evenodd" opacity="0.5" style="mix-blend-mode:multiply"/><path fill="url(#e)" fill-rule="evenodd" d="M15.787 13.353c-.141-.22-.897-1.184-1.297-1.652.8 1.603.8 2.177-.29 3.581a108 108 0 0 1-4.186 5.1 75 75 0 0 1-4.172 4.389 15 15 0 0 1-2.127 1.716 2.26 2.26 0 0 1-2.364.248c.385.497.882 1.114 1.015 1.248.193.107 1.156-.709 1.72-1.283a154 154 0 0 0 11.7-12.928.37.37 0 0 0 .038-.355c0-.07 0-.042-.037-.064" clip-rule="evenodd" opacity="0.5" style="mix-blend-mode:multiply"/><path fill="url(#f)" fill-rule="evenodd" d="M3.44 27.338c-.17.085-.377.142-.481.064a10 10 0 0 1-1.03-1.234.3.3 0 0 1 0-.05.68.68 0 0 1 0-.617c-.445.376-.875.71-1 .624.08.156 1.26 1.653 1.481 1.865.126.071.578-.262 1.038-.66zm10.472-14.843a.46.46 0 0 1 .415-.035l.044.035q.555.59 1.015 1.249a.64.64 0 0 1 0 .56l.423-.532a.37.37 0 0 0 .037-.355c0-.07 0-.042-.037-.064-.17-.255-1.171-1.531-1.482-1.843a.31.31 0 0 1-.037.354l-.482.596-.037.042.096-.042z" clip-rule="evenodd" style="mix-blend-mode:screen"/><path fill="url(#g)" fill-rule="evenodd" d="M6.442 3.95a30.6 30.6 0 0 1 7.492 0 .36.36 0 0 1 .16.066q.072.053.107.133a.31.31 0 0 1 0 .319 212 212 0 0 1-4.78 6.957c1.386-.064 3.498-.086 4.661-.043q.1.002.186.056a.34.34 0 0 1 .125.143.31.31 0 0 1-.037.354 154 154 0 0 1-11.716 12.9c-.563.553-1.482 1.418-1.72 1.29-.236-.127.097-1.106.223-1.595a72 72 0 0 1 3.439-8.695c-1.015.079-3.068.086-4.113.036a.38.38 0 0 1-.287-.164.34.34 0 0 1-.032-.318 61.7 61.7 0 0 1 5.855-11.17.7.7 0 0 1 .437-.269" clip-rule="evenodd"/><path fill="url(#h)" fill-rule="evenodd" d="M13.615 9.36c-1.008.866-2.964 1.42-3.379.852q-.425.604-.837 1.177a85 85 0 0 1 2.853-.064c.452-.645.911-1.305 1.363-1.964" clip-rule="evenodd" style="mix-blend-mode:multiply"/><path fill="url(#i)" fill-rule="evenodd" d="M3.13 15.892c.548.404-.297 1.695-1.409 1.674.104.1.193.177.23.177.452 0 1.097.036 1.756.036.29-.667.586-1.32.875-1.944-.378 0-.897.043-1.482.057z" clip-rule="evenodd" style="mix-blend-mode:multiply"/><path fill="url(#j)" fill-rule="evenodd" d="M6.568 5.553a22.5 22.5 0 0 1 5.35-.093c.235.022.458.105.645.242.356.283.118.907-.193 1.418a220 220 0 0 0 1.809-2.702.31.31 0 0 0 0-.32.34.34 0 0 0-.107-.131.36.36 0 0 0-.16-.067 30.6 30.6 0 0 0-7.492 0 .7.7 0 0 0-.438.27 44.5 44.5 0 0 0-2.964 4.964c.741-1.241 2.386-3.468 3.535-3.645z" clip-rule="evenodd" style="mix-blend-mode:screen"/><path fill="url(#k)" fill-rule="evenodd" d="M14.06 11.347h-1.371c.874.269.874.879.17 1.751-1.882 2.347-6.899 8.19-9.36 9.928-1.244.873-1.652.32-1.696-.46-.311.843-.541 1.545-.66 2.006-.118.461-.4 1.419-.252 1.575.126.064.556-.249 1-.624.253-.22.512-.461.742-.667a154 154 0 0 0 11.182-12.304l.52-.638a.32.32 0 0 0 .036-.355.35.35 0 0 0-.126-.118.4.4 0 0 0-.17-.045z" clip-rule="evenodd" style="mix-blend-mode:screen"/><path fill="url(#l)" fill-rule="evenodd" d="M6.827 4.149a1.04 1.04 0 0 0-.533.234c-1.216 1.198-4.158 6.708-4.588 8.17 0 .098-.066.268 0 .332.067.064.297-.142.364-.24 1.081-1.639 2.045-3.34 3.12-4.965.533-.822 1.17-1.766 1.785-2.539a3.2 3.2 0 0 1 1.697-.773c.808-.212.482-.404-.103-.383q-.89.03-1.764.192z" clip-rule="evenodd" style="mix-blend-mode:screen"/><path fill="url(#m)" fill-rule="evenodd" d="M13.66 11.446c-1.327 0-2.653 0-3.972.05-.645 0-.149.659.304.709a12 12 0 0 0 3.63-.468c.112 0 .275-.079.29-.185s-.163-.085-.252-.085z" clip-rule="evenodd" style="mix-blend-mode:screen"/><path fill="url(#n)" fill-rule="evenodd" d="M2.329 25.133c-.089 1.418 3.238-1.163 3.994-1.83 2.557-2.241 5.61-5.354 7.344-8.262.6-1.007.675-2.298-.207-2.07A154 154 0 0 1 2.722 24.757l-.082.078z" clip-rule="evenodd" opacity="0.5" style="mix-blend-mode:screen"/><path fill="url(#o)" fill-rule="evenodd" d="M6.953 6.638a3.2 3.2 0 0 0-.911.893c-1.223 1.993-2.268 4.078-3.387 6.135-.23.425-.49 1.24.34 1.311.98.085 1.957 0 2.965 0a49 49 0 0 0-2.912 6.496c-.215.71.378.71.837.298 2.134-1.9 5.87-5.815 7.41-8.304.393-.652-.274-.965-.837-.986-.815 0-1.637 0-2.453.036.949-1.482 1.95-2.936 2.853-4.44a1.8 1.8 0 0 0 .245-.709 1 1 0 0 0-.068-.51 1.1 1.1 0 0 0-.31-.419c-.422-.369-1.578-.383-2.534-.206-.418.059-.82.199-1.179.412z" clip-rule="evenodd" style="mix-blend-mode:screen"/><path fill="url(#p)" d="M7.635 10.467c3.02 0 5.469-2.343 5.469-5.233S10.656 0 7.635 0c-3.02 0-5.469 2.343-5.469 5.234s2.449 5.233 5.469 5.233" opacity="0.75" style="mix-blend-mode:screen"/><defs><radialGradient id="a" cx="0" cy="0" r="1" gradientTransform="matrix(6.53614 0 0 6.25477 -1.08 14.601)" gradientUnits="userSpaceOnUse"><stop stop-color="#FCAC00"/><stop offset="1" stop-color="#FF7300"/></radialGradient><radialGradient id="b" cx="0" cy="0" r="1" gradientTransform="matrix(16.0069 0 0 15.3178 11.792 5.66)" gradientUnits="userSpaceOnUse"><stop stop-color="#FCAC00"/><stop offset="1" stop-color="#FF7300"/></radialGradient><radialGradient id="c" cx="0" cy="0" r="1" gradientTransform="matrix(30.087 0 0 28.7918 14.445 23.615)" gradientUnits="userSpaceOnUse"><stop stop-color="#FCAC00"/><stop offset="1" stop-color="#FF7300"/></radialGradient><radialGradient id="d" cx="0" cy="0" r="1" gradientTransform="matrix(3.13468 0 0 2.99973 13.475 7.68)" gradientUnits="userSpaceOnUse"><stop stop-color="#fff"/><stop offset="0.1" stop-color="#FFFDF9"/><stop offset="0.22" stop-color="#FEF6E9"/><stop offset="0.36" stop-color="#FDEACF"/><stop offset="0.51" stop-color="#FBDBAA"/><stop offset="0.67" stop-color="#F9C67A"/><stop offset="0.84" stop-color="#F6AE41"/><stop offset="1" stop-color="#F39200"/></radialGradient><radialGradient id="e" cx="0" cy="0" r="1" gradientTransform="matrix(16.7553 0 0 16.034 1.892 13.297)" gradientUnits="userSpaceOnUse"><stop stop-color="#fff"/><stop offset="0.1" stop-color="#FFFDF9"/><stop offset="0.22" stop-color="#FEF6E9"/><stop offset="0.36" stop-color="#FDEACF"/><stop offset="0.51" stop-color="#FBDBAA"/><stop offset="0.67" stop-color="#F9C67A"/><stop offset="0.84" stop-color="#F6AE41"/><stop offset="1" stop-color="#F39200"/></radialGradient><radialGradient id="f" cx="0" cy="0" r="1" gradientTransform="matrix(10.7972 0 0 10.3324 9.161 20.19)" gradientUnits="userSpaceOnUse"><stop offset="0.58"/><stop offset="0.74" stop-color="#020201"/><stop offset="0.79" stop-color="#090805"/><stop offset="0.83" stop-color="#14130B"/><stop offset="0.87" stop-color="#252315"/><stop offset="0.89" stop-color="#3B3721"/><stop offset="0.92" stop-color="#575131"/><stop offset="0.94" stop-color="#776F43"/><stop offset="0.96" stop-color="#9D9258"/><stop offset="0.98" stop-color="#C8BB70"/><stop offset="1" stop-color="#FFEE8F"/></radialGradient><radialGradient id="g" cx="0" cy="0" r="1" gradientTransform="matrix(23.2693 0 0 22.2675 5.5 3.957)" gradientUnits="userSpaceOnUse"><stop stop-color="#FCF800"/><stop offset="1" stop-color="#FC9700"/></radialGradient><radialGradient id="h" cx="0" cy="0" r="1" gradientTransform="matrix(6.13597 0 0 5.87182 8.872 7.957)" gradientUnits="userSpaceOnUse"><stop stop-color="#fff"/><stop offset="0.1" stop-color="#FFFDF9"/><stop offset="0.22" stop-color="#FFF7E9"/><stop offset="0.36" stop-color="#FFECCF"/><stop offset="0.51" stop-color="#FFDEAA"/><stop offset="0.67" stop-color="#FFCC7A"/><stop offset="0.84" stop-color="#FFB641"/><stop offset="1" stop-color="#FF9D00"/></radialGradient><radialGradient id="i" cx="0" cy="0" r="1" gradientTransform="matrix(5.89142 0 0 5.6378 1.75 15.928)" gradientUnits="userSpaceOnUse"><stop stop-color="#fff"/><stop offset="0.1" stop-color="#FFFDF9"/><stop offset="0.22" stop-color="#FFF7E9"/><stop offset="0.36" stop-color="#FFECCF"/><stop offset="0.51" stop-color="#FFDEAA"/><stop offset="0.67" stop-color="#FFCC7A"/><stop offset="0.84" stop-color="#FFB641"/><stop offset="1" stop-color="#FF9D00"/></radialGradient><radialGradient id="j" cx="0" cy="0" r="1" gradientTransform="matrix(12.346 0 0 11.8146 11.792 8.857)" gradientUnits="userSpaceOnUse"><stop/><stop offset="0.08" stop-color="#232112"/><stop offset="0.22" stop-color="#5C582E"/><stop offset="0.36" stop-color="#8E8747"/><stop offset="0.5" stop-color="#B7AE5C"/><stop offset="0.64" stop-color="#D6CC6C"/><stop offset="0.77" stop-color="#EDE277"/><stop offset="0.89" stop-color="#FAEF7E"/><stop offset="1" stop-color="#FFF380"/></radialGradient><radialGradient id="k" cx="0" cy="0" r="1" gradientTransform="matrix(24.8255 0 0 23.7568 18.121 33.245)" gradientUnits="userSpaceOnUse"><stop stop-color="#FFD000"/><stop offset="0.11" stop-color="#FACC00"/><stop offset="0.23" stop-color="#EDC100"/><stop offset="0.36" stop-color="#D6AF00"/><stop offset="0.5" stop-color="#B79500"/><stop offset="0.64" stop-color="#8E7400"/><stop offset="0.78" stop-color="#5C4B00"/><stop offset="0.92" stop-color="#231C00"/><stop offset="1"/></radialGradient><radialGradient id="n" cx="0" cy="0" r="1" gradientTransform="matrix(18.1485 0 0 17.3673 .454 8.864)" gradientUnits="userSpaceOnUse"><stop stop-color="#0FF"/><stop offset="0.11" stop-color="#00FAFA"/><stop offset="0.23" stop-color="#00EDED"/><stop offset="0.36" stop-color="#00D6D6"/><stop offset="0.5" stop-color="#00B7B7"/><stop offset="0.64" stop-color="#008E8E"/><stop offset="0.78" stop-color="#005C5C"/><stop offset="0.92" stop-color="#002323"/><stop offset="1"/></radialGradient><radialGradient id="o" cx="0" cy="0" r="1" gradientTransform="matrix(17.1555 0 0 16.417 -3.31 6.595)" gradientUnits="userSpaceOnUse"><stop stop-color="#FFF261"/><stop offset="0.11" stop-color="#FAEE5F"/><stop offset="0.23" stop-color="#EDE15A"/><stop offset="0.36" stop-color="#D6CB52"/><stop offset="0.5" stop-color="#B7AD46"/><stop offset="0.64" stop-color="#8E8736"/><stop offset="0.78" stop-color="#5C5823"/><stop offset="0.92" stop-color="#23210D"/><stop offset="1"/></radialGradient><radialGradient id="p" cx="0" cy="0" r="1" gradientTransform="matrix(5.46902 0 0 5.23358 7.635 5.234)" gradientUnits="userSpaceOnUse"><stop stop-color="#FCEA10"/><stop offset="0.1" stop-color="#CEBF0D"/><stop offset="0.23" stop-color="#988D0A"/><stop offset="0.36" stop-color="#696207"/><stop offset="0.5" stop-color="#433F04"/><stop offset="0.63" stop-color="#262302"/><stop offset="0.76" stop-color="#111001"/><stop offset="0.88" stop-color="#040400"/><stop offset="1"/></radialGradient><linearGradient id="l" x1="8.16844" x2="1.67833" y1="3.08482" y2="16.0278" gradientUnits="userSpaceOnUse"><stop stop-color="#FFFACF"/><stop offset="1"/></linearGradient><linearGradient id="m" x1="9.37644" x2="13.9117" y1="11.8146" y2="11.8146" gradientUnits="userSpaceOnUse"><stop stop-color="#FFFACF"/><stop offset="1"/></linearGradient></defs></svg>