<svg xmlns="http://www.w3.org/2000/svg" width="28" height="28" fill="none" viewBox="0 0 28 28"><path fill="url(#a)" fill-rule="evenodd" d="M15.812 1.184a1.752 1.752 0 1 1-2.392.648 1.76 1.76 0 0 1 2.392-.648" clip-rule="evenodd"/><path fill="url(#b)" fill-rule="evenodd" d="M15.53 1.29a1.333 1.333 0 1 1-1.828.488 1.34 1.34 0 0 1 1.828-.487" clip-rule="evenodd" style="mix-blend-mode:screen"/><path fill="url(#c)" fill-rule="evenodd" d="M14.593 1.298a.914.914 0 0 1 1.174.48.907.907 0 0 1-.762.998.907.907 0 0 1-1.166-.48.9.9 0 0 1 .762-.998z" clip-rule="evenodd" style="mix-blend-mode:screen"/><path fill="url(#d)" fill-rule="evenodd" d="M16.33 1.87a1.608 1.608 0 0 1-2.232 2.148 1.6 1.6 0 0 1-.51-.464q.13.135.289.236a1.669 1.669 0 0 0 2.43-1.92z" clip-rule="evenodd" style="mix-blend-mode:screen"/><path fill="url(#e)" d="M13.793 4.689q.436.26.914.427a.716.716 0 0 0 .922-.229c.168-.297.053-.617-.267-.907a5 5 0 0 0-.822-.579 5.5 5.5 0 0 0-.915-.426c-.411-.138-.762-.069-.922.228s-.06.625.267.907q.38.334.823.579"/><path fill="url(#f)" fill-rule="evenodd" d="M14.708 5.116a5 5 0 0 1-.915-.427 4.6 4.6 0 0 1-.823-.58.94.94 0 0 1-.274-.342.25.25 0 0 1 0-.22.24.24 0 0 1 .183-.13q.227-.013.442.06.473.172.907.427.442.25.83.58.165.149.274.342a.25.25 0 0 1 0 .229.25.25 0 0 1-.183.13 1.2 1.2 0 0 1-.434-.07z" clip-rule="evenodd" style="mix-blend-mode:multiply"/><path fill="url(#g)" fill-rule="evenodd" d="M12.94 3.28a.12.12 0 0 1 0-.138c.389-.487 2.118.587 2.118 1.189a4.44 4.44 0 0 0-1.897-.983c-.1 0-.229 0-.244-.069z" clip-rule="evenodd" style="mix-blend-mode:screen"/><path fill="url(#h)" fill-rule="evenodd" d="M22.052 25.451c-3.619-2.575-6.095-2.887-7.832-4.167a1.6 1.6 0 0 1-.442-.435.56.56 0 0 1 0-.647 112 112 0 0 0 5.722-9.905c-.115.274 0 .594.518.975 1.745 1.272 4.213 1.592 7.832 4.168a50.5 50.5 0 0 0-5.798 10.034z" clip-rule="evenodd"/><path fill="url(#i)" fill-rule="evenodd" d="M26.83 14.739a24 24 0 0 0-3.589-1.882 55 55 0 0 1-2.606 5.074 55 55 0 0 1-3.192 4.983 25 25 0 0 1 3.589 1.874 27.5 27.5 0 0 1 2.361-5.25 27.3 27.3 0 0 1 3.437-4.8" clip-rule="evenodd" opacity="0.75" style="mix-blend-mode:screen"/><path fill="url(#j)" fill-rule="evenodd" d="M16.993 22.693a16.9 16.9 0 0 1 2.332-5.76 19.6 19.6 0 0 1 3.222-4.381 12.6 12.6 0 0 1-2.53-1.303c-.517-.38-.632-.7-.517-.975a112 112 0 0 1-5.722 9.905.56.56 0 0 0 0 .647q.178.261.442.435a13.8 13.8 0 0 0 2.773 1.41z" clip-rule="evenodd" style="mix-blend-mode:multiply"/><path fill="url(#k)" fill-rule="evenodd" d="M22.791 23.798c-3.26-2.286-5.539-2.66-7.184-3.81a4 4 0 0 1-.87-.617.64.64 0 0 1-.167-.411l-.434.685a.57.57 0 0 0 .122.465c.19.207.412.385.655.526 1.7 1.211 4.069 1.524 7.497 3.977.122-.267.244-.54.381-.815m-.251-10.301a15.7 15.7 0 0 1-3.002-1.524c-.396-.29-.541-.549-.518-.762l-.45.838a1 1 0 0 0 .488.678c.875.576 1.81 1.053 2.789 1.425a31.6 31.6 0 0 1 4.983 2.705l.502-.724a27.3 27.3 0 0 0-4.784-2.636z" clip-rule="evenodd"/><path fill="url(#l)" fill-rule="evenodd" d="M19.058 12.72a11.4 11.4 0 0 0 2.286 1.196c.198-.252.396-.48.586-.701a11.3 11.3 0 0 1-2.37-1.235c-.395-.289-.54-.548-.517-.761l-.45.838a1 1 0 0 0 .488.678zm-1.638 8.236a11 11 0 0 1-1.814-.968 4 4 0 0 1-.868-.617.64.64 0 0 1-.168-.411l-.434.685a.57.57 0 0 0 .122.465c.19.207.412.385.655.526a11.8 11.8 0 0 0 2.286 1.173q.102-.41.251-.853z" clip-rule="evenodd" style="mix-blend-mode:multiply"/><path fill="url(#m)" fill-rule="evenodd" d="M15.911 19.196a61.6 61.6 0 0 0 5.836-10.11c-.137.334-.67.472-1.127.594-.457.121-.99.259-1.12.594a99 99 0 0 1-5.783 9.829 2.6 2.6 0 0 1 1.112-.389 1.9 1.9 0 0 0 1.082-.518" clip-rule="evenodd"/><path fill="url(#n)" fill-rule="evenodd" d="M16.003 19.25a62.6 62.6 0 0 0 5.745-10.165c.106-.282 0-.594-.519-.975-1.257-.945-3.603-1.73-6.186-3.109L9.244 15.043c2.583 1.38 4.9 2.164 6.187 3.109.305.22.83.686.572 1.097" clip-rule="evenodd"/><path fill="url(#o)" fill-rule="evenodd" d="M21.23 8.11q-.369-.27-.762-.503a61 61 0 0 1-2.827 5.47 57 57 0 0 1-2.91 4.572q.396.21.761.473c.305.22.83.685.572 1.097a62.6 62.6 0 0 0 5.744-10.164c.107-.282 0-.595-.518-.976z" clip-rule="evenodd" style="mix-blend-mode:screen"/><path fill="url(#p)" fill-rule="evenodd" d="M22.502 14.457q1.636.733 3.177 1.653l.571-.693a29 29 0 0 0-3.36-1.76q-.183.396-.388.762zm-.846 8.594a26 26 0 0 0-3.208-1.66q-.25.374-.503.761a24.4 24.4 0 0 1 3.36 1.745c.1-.282.214-.564.328-.846z" clip-rule="evenodd" style="mix-blend-mode:screen"/><path fill="url(#q)" fill-rule="evenodd" d="M18.723 6.769C17.64 6.266 16.376 5.717 15.043 5l-5.79 10.042c1.37.762 2.674 1.303 3.809 1.814.762-1.181 1.463-2.416 2.202-3.696a148 148 0 0 0 3.482-6.392z" clip-rule="evenodd" style="mix-blend-mode:multiply"/><path fill="url(#r)" d="M9.305 14.952c1.113.594 2.172 1.082 3.124 1.524a19 19 0 0 1 3.048 1.608c.219.142.4.335.526.563a.64.64 0 0 1 0 .526.88.88 0 0 1-.495.434 5 5 0 0 1-.701.221 4.5 4.5 0 0 0-.663.214.7.7 0 0 0-.396.327.4.4 0 0 0 0 .358c.11.2.27.367.464.488.807.54 1.674.985 2.583 1.326a26.8 26.8 0 0 1 5.189 2.925.36.36 0 0 1-.229.084 26 26 0 0 0-5.036-2.819 13.4 13.4 0 0 1-2.56-1.34 1.6 1.6 0 0 1-.526-.565.6.6 0 0 1 0-.525.85.85 0 0 1 .473-.435q.335-.145.693-.22.344-.082.67-.214a.7.7 0 0 0 .389-.328.42.42 0 0 0 0-.365 1.5 1.5 0 0 0-.465-.488 18.5 18.5 0 0 0-3.048-1.577c-.96-.442-2.026-.922-3.139-1.524l.1-.175z"/><path fill="url(#s)" fill-rule="evenodd" d="M16.46 16.682c-1.288-.945-3.696-1.776-6.324-3.185l-.442.762c2.606 1.402 4.975 2.21 6.263 3.162.328.228.815.685.564 1.082.16-.229.327-.48.51-.762.221-.389-.236-.823-.571-1.075zm4.945-6.774c.106-.282 0-.61-.526-.968-1.295-.952-3.665-1.76-6.24-3.162l-.45.762c2.637 1.418 5.044 2.286 6.34 3.2.48.343.655.679.533.976.137-.282.259-.556.38-.816z" clip-rule="evenodd"/><path fill="url(#t)" fill-rule="evenodd" d="M21.405 9.908c.107-.282 0-.61-.526-.968a8 8 0 0 0-.823-.502l-.388.761q.428.232.823.519c.48.342.655.678.533.975.137-.282.259-.556.38-.815zm-4.374 7.848c.221-.389-.236-.823-.571-1.075-.335-.25-.48-.32-.762-.487-.168.259-.328.503-.495.762q.398.216.762.488c.327.228.815.685.564 1.081.16-.228.327-.48.51-.761z" clip-rule="evenodd" style="mix-blend-mode:screen"/><path fill="url(#u)" fill-rule="evenodd" d="M14.151 6.548c1.349.762 2.637 1.295 3.749 1.806l.411-.762c-1.097-.533-2.377-1.097-3.672-1.814l-.45.762zm-.19 8.793c-1.128-.526-2.446-1.105-3.81-1.844l-.442.762c1.38.762 2.69 1.318 3.81 1.836.16-.252.312-.51.465-.762z" clip-rule="evenodd" style="mix-blend-mode:multiply"/><path fill="url(#v)" fill-rule="evenodd" d="M14.205 3.98q.46.266.83.648c.19.198.274.38.213.488l-3.001 5.196-2.873 4.983-1.272-.762-1.265-.762A323 323 0 0 0 9.77 8.834c.96-1.654 2.004-3.55 2.941-5.227.061-.107.26-.13.526-.06q.512.13.968.395z" clip-rule="evenodd"/><path fill="url(#w)" fill-rule="evenodd" d="M10.266 8.895A443 443 0 0 0 13.26 3.56c-.26-.06-.457-.045-.526.054-.914 1.63-1.905 3.459-2.857 5.059-.137.244-.274.487-.42.762a179 179 0 0 1-2.62 4.335c.068-.107.282-.114.564-.046.967-1.615 1.927-3.23 2.865-4.86z" clip-rule="evenodd" style="mix-blend-mode:multiply"/><path fill="url(#x)" fill-rule="evenodd" d="M13.587 3.69a444 444 0 0 1-3.047 5.334c-.983 1.684-1.867 3.208-2.82 4.8q.316.126.61.297l.13.07a474 474 0 0 0 2.78-4.763l3.086-5.402-.122-.076a6 6 0 0 0-.617-.29z" clip-rule="evenodd" style="mix-blend-mode:screen"/><path fill="url(#y)" fill-rule="evenodd" d="M14.806 4.4 11.76 9.732a611 611 0 0 1-2.804 4.83c.343.282.525.557.442.701l2.872-4.967.114-.199 2.865-4.99c.061-.107 0-.29-.213-.488-.069-.076-.145-.144-.229-.22" clip-rule="evenodd" style="mix-blend-mode:multiply"/><path fill="#A71B00" fill-rule="evenodd" d="M8.33 14.152c.701.404 1.173.907 1.044 1.12-.13.213-.762.069-1.524-.335s-1.173-.915-1.044-1.128c.13-.213.762-.068 1.524.343" clip-rule="evenodd"/><path fill="url(#z)" fill-rule="evenodd" d="M9.176 15.295c-.968 1.608-1.181 1.912-2.118 3.543-.937 1.63-3.726 6.476-4.61 8.13l-1.143-.656-1.143-.647c.991-1.608 3.81-6.454 4.778-8.084s1.104-1.958 2.004-3.612c.053-.091.22-.114.464-.06.3.076.588.197.854.357.28.15.537.34.762.564.167.175.243.335.182.434z" clip-rule="evenodd"/><path fill="url(#A)" fill-rule="evenodd" d="M8.993 14.838a2.6 2.6 0 0 0-.419-.358l-2.171 3.725c-.976 1.677-3.81 6.606-4.77 8.298l.815.464c.9-1.653 3.68-6.53 4.625-8.152.945-1.623 1.15-1.935 2.118-3.543.061-.1 0-.26-.183-.434z" clip-rule="evenodd" style="mix-blend-mode:multiply"/><path fill="url(#B)" fill-rule="evenodd" d="M.505 25.847c.99-1.668 3.863-6.575 4.839-8.266.975-1.692 1.135-2.004 2.057-3.68-.236-.054-.404 0-.457.06-.9 1.669-1.06 2.004-2.004 3.62-.945 1.615-3.787 6.476-4.778 8.084l.328.182z" clip-rule="evenodd" style="mix-blend-mode:multiply"/><path fill="url(#C)" fill-rule="evenodd" d="M1.511 25.962c.617.358 1.036.807.922.998s-.701.053-1.326-.305-1.036-.8-.945-.99.709-.054 1.334.304z" clip-rule="evenodd"/><path fill="url(#D)" fill-rule="evenodd" d="M8.208 14.243a3.7 3.7 0 0 0-.67-.29C4.917 18.526 1.762 24.172 1.93 24.27s3.627-5.417 6.278-10.027" clip-rule="evenodd" style="mix-blend-mode:screen"/><path fill="url(#E)" fill-rule="evenodd" d="M10.35 13.596c.129-.236-.42-.762-1.045-1.128a2.3 2.3 0 0 0-1.41-.411l-.48.762c.222-.122.839.06 1.433.403s1.174.9 1.044 1.12l.457-.761zm2.956-8.061c.297.175 1.219.815 1.043 1.127.153-.259.297-.525.45-.762.152-.236-.762-.983-1.044-1.127s-1.181-.602-1.448-.389l-.426.762c.29-.16 1.158.251 1.425.404z" clip-rule="evenodd"/><path fill="url(#F)" fill-rule="evenodd" d="M12.704 5.253q.31.12.602.282l.13.083.449-.761-.13-.077q-.295-.165-.61-.29zm-3.261 7.299-.137-.084q-.286-.164-.595-.282l-.457.762q.31.12.594.29l.138.076z" clip-rule="evenodd" style="mix-blend-mode:screen"/><path fill="url(#G)" fill-rule="evenodd" d="M11.88 5.13a.76.76 0 0 1 .504 0c.152-.258.297-.525.441-.761-.22-.053-.419-.076-.518 0zM8.4 12.08a.9.9 0 0 0-.503 0l-.48.761a.85.85 0 0 1 .518 0z" clip-rule="evenodd" style="mix-blend-mode:multiply"/><path fill="url(#H)" fill-rule="evenodd" d="m9.915 12.895-.457.762c.328.282.518.556.434.7l.458-.761c.083-.153-.115-.427-.435-.701m3.962-6.934c.29.244.541.526.442.701l.45-.762c.106-.182-.153-.464-.442-.7z" clip-rule="evenodd" style="mix-blend-mode:multiply"/><path fill="url(#I)" fill-rule="evenodd" d="M22.791 9.413a2.24 2.24 0 1 1-4.48 0 2.24 2.24 0 0 1 4.48 0" clip-rule="evenodd" opacity="0.75" style="mix-blend-mode:screen"/><defs><linearGradient id="e" x1="12.7033" x2="15.629" y1="3.20319" y2="4.88703" gradientUnits="userSpaceOnUse"><stop offset="0.05" stop-color="#ED9500"/><stop offset="0.4" stop-color="#FC0"/><stop offset="0.93" stop-color="#B36600"/></linearGradient><linearGradient id="h" x1="16.4444" x2="24.9322" y1="15.5615" y2="20.4607" gradientUnits="userSpaceOnUse"><stop stop-color="#9C0E0E"/><stop offset="0.69" stop-color="#FC3F00"/><stop offset="1" stop-color="#C4020B"/></linearGradient><linearGradient id="i" x1="19.18" x2="24.0487" y1="17.0853" y2="19.8968" gradientUnits="userSpaceOnUse"><stop/><stop offset="0.13" stop-color="#3E1111"/><stop offset="0.31" stop-color="#902727"/><stop offset="0.47" stop-color="#CC3737"/><stop offset="0.58" stop-color="#F14141"/><stop offset="0.64" stop-color="#FF4545"/><stop offset="0.68" stop-color="#F24040"/><stop offset="0.77" stop-color="#D03333"/><stop offset="0.89" stop-color="#991D1D"/><stop offset="1" stop-color="#630808"/></linearGradient><linearGradient id="j" x1="16.4444" x2="19.9416" y1="15.5615" y2="17.5806" gradientUnits="userSpaceOnUse"><stop stop-color="#800C0C"/><stop offset="1" stop-color="#FFE4BF"/></linearGradient><linearGradient id="k" x1="16.4522" x2="24.8181" y1="15.6377" y2="20.4759" gradientUnits="userSpaceOnUse"><stop offset="0.07" stop-color="#B36600"/><stop offset="0.6" stop-color="#FC0"/><stop offset="0.95" stop-color="#ED9500"/></linearGradient><linearGradient id="l" x1="16.4522" x2="19.4923" y1="15.6377" y2="17.3978" gradientUnits="userSpaceOnUse"><stop offset="0.57" stop-color="#FFA163"/><stop offset="1" stop-color="#FFE4BF"/></linearGradient><linearGradient id="m" x1="17.1074" x2="18.6008" y1="14.2358" y2="15.0968" gradientUnits="userSpaceOnUse"><stop stop-color="#960007"/><stop offset="1" stop-color="#610000"/></linearGradient><linearGradient id="n" x1="12.1855" x2="19.2713" y1="9.94611" y2="14.0376" gradientUnits="userSpaceOnUse"><stop stop-color="#9C0E0E"/><stop offset="0.75" stop-color="#FC3F00"/><stop offset="1" stop-color="#C4020B"/></linearGradient><linearGradient id="o" x1="17.3589" x2="19.2713" y1="12.9329" y2="14.0377" gradientUnits="userSpaceOnUse"><stop/><stop offset="0.68" stop-color="#FF7373"/><stop offset="0.74" stop-color="#F26D6D"/><stop offset="0.84" stop-color="#D05E5E"/><stop offset="0.97" stop-color="#994545"/><stop offset="1" stop-color="#8C3F3F"/></linearGradient><linearGradient id="p" x1="20.4596" x2="23.7588" y1="17.8244" y2="19.7292" gradientUnits="userSpaceOnUse"><stop/><stop offset="0.02" stop-color="#0F0E0B"/><stop offset="0.1" stop-color="#4E4936"/><stop offset="0.18" stop-color="#847C5B"/><stop offset="0.25" stop-color="#B0A67A"/><stop offset="0.33" stop-color="#D2C691"/><stop offset="0.4" stop-color="#EBDDA2"/><stop offset="0.46" stop-color="#FAEBAC"/><stop offset="0.51" stop-color="#FFF0B0"/><stop offset="0.56" stop-color="#F9EAAC"/><stop offset="0.62" stop-color="#E8DAA0"/><stop offset="0.69" stop-color="#CCC08D"/><stop offset="0.77" stop-color="#A59B72"/><stop offset="0.85" stop-color="#736C4F"/><stop offset="0.93" stop-color="#373326"/><stop offset="1"/></linearGradient><linearGradient id="q" x1="12.2236" x2="17.8695" y1="9.88516" y2="13.1462" gradientUnits="userSpaceOnUse"><stop stop-color="#FF3030"/><stop offset="1" stop-color="#FFE4BF"/></linearGradient><linearGradient id="r" x1="8.61974" x2="22.7305" y1="16.1329" y2="24.2779" gradientUnits="userSpaceOnUse"><stop stop-color="#C4020B"/><stop offset="1" stop-color="#FC3F00"/></linearGradient><linearGradient id="s" x1="12.193" x2="19.2027" y1="9.94617" y2="13.992" gradientUnits="userSpaceOnUse"><stop offset="0.07" stop-color="#B36600"/><stop offset="0.6" stop-color="#FC0"/><stop offset="0.95" stop-color="#ED9500"/></linearGradient><linearGradient id="t" x1="17.4276" x2="19.2029" y1="12.971" y2="13.992" gradientUnits="userSpaceOnUse"><stop/><stop offset="1" stop-color="#FFF0B0"/></linearGradient><linearGradient id="u" x1="12.2236" x2="15.8808" y1="9.88522" y2="12.0034" gradientUnits="userSpaceOnUse"><stop stop-color="#FFA163"/><stop offset="1" stop-color="#FFE4BF"/></linearGradient><linearGradient id="v" x1="9.88459" x2="12.4218" y1="8.52902" y2="9.99953" gradientUnits="userSpaceOnUse"><stop stop-color="#9C0E0E"/><stop offset="0.3" stop-color="#FC3F00"/><stop offset="1" stop-color="#C4020B"/></linearGradient><linearGradient id="w" x1="9.85412" x2="10.296" y1="8.58233" y2="8.83376" gradientUnits="userSpaceOnUse"><stop stop-color="#800C0C"/><stop offset="1" stop-color="#FFE4BF"/></linearGradient><linearGradient id="x" x1="10.4481" x2="11.7205" y1="8.62044" y2="9.3595" gradientUnits="userSpaceOnUse"><stop/><stop offset="0.09" stop-color="#3E1111"/><stop offset="0.21" stop-color="#902727"/><stop offset="0.31" stop-color="#CC3737"/><stop offset="0.38" stop-color="#F14141"/><stop offset="0.42" stop-color="#FF4545"/><stop offset="0.5" stop-color="#F24040"/><stop offset="0.64" stop-color="#D03333"/><stop offset="0.83" stop-color="#991D1D"/><stop offset="1" stop-color="#630808"/></linearGradient><linearGradient id="y" x1="11.7739" x2="12.4063" y1="9.65663" y2="10.0224" gradientUnits="userSpaceOnUse"><stop stop-color="#FFE4BF"/><stop offset="1" stop-color="#800C0C"/></linearGradient><linearGradient id="z" x1="3.65969" x2="5.91497" y1="19.6454" y2="20.9483" gradientUnits="userSpaceOnUse"><stop stop-color="#546578"/><stop offset="0.32" stop-color="#8DA0B8"/><stop offset="1" stop-color="#546578"/></linearGradient><linearGradient id="A" x1="4.94741" x2="5.77028" y1="20.3997" y2="20.8721" gradientUnits="userSpaceOnUse"><stop stop-color="#fff"/><stop offset="0.52" stop-color="#C3CEE0"/><stop offset="1" stop-color="#8A9FC2"/></linearGradient><linearGradient id="B" x1="3.62921" x2="4.87876" y1="19.6987" y2="20.4225" gradientUnits="userSpaceOnUse"><stop stop-color="#8A9FC2"/><stop offset="0.48" stop-color="#C3CEE0"/><stop offset="1" stop-color="#fff"/></linearGradient><linearGradient id="E" x1="9.93779" x2="10.9435" y1="8.47563" y2="9.05469" gradientUnits="userSpaceOnUse"><stop offset="0.07" stop-color="#B36600"/><stop offset="0.6" stop-color="#FC0"/><stop offset="0.95" stop-color="#ED9500"/></linearGradient><linearGradient id="F" x1="10.7075" x2="11.4313" y1="8.68899" y2="9.10805" gradientUnits="userSpaceOnUse"><stop stop-color="#FFF0B0"/><stop offset="1"/></linearGradient><linearGradient id="G" x1="9.92255" x2="10.334" y1="8.49088" y2="8.72707" gradientUnits="userSpaceOnUse"><stop stop-color="#FFA163"/><stop offset="1" stop-color="#FFE4BF"/></linearGradient><linearGradient id="H" x1="11.8124" x2="12.4448" y1="9.59568" y2="9.9614" gradientUnits="userSpaceOnUse"><stop stop-color="#FFE4BF"/><stop offset="1" stop-color="#FFA163"/></linearGradient><radialGradient id="a" cx="0" cy="0" r="1" gradientTransform="rotate(30 3.608 28.43)scale(2.39243)" gradientUnits="userSpaceOnUse"><stop stop-color="#FCCD10"/><stop offset="0.22" stop-color="#EDAB09"/><stop offset="0.45" stop-color="#E08E02"/><stop offset="0.58" stop-color="#DB8300"/><stop offset="0.71" stop-color="#D67D00"/><stop offset="0.88" stop-color="#C86C00"/><stop offset="1" stop-color="#BA5B00"/></radialGradient><radialGradient id="b" cx="0" cy="0" r="1" gradientTransform="rotate(30 5.29 27.783)scale(2.91053)" gradientUnits="userSpaceOnUse"><stop stop-color="#FFE58A"/><stop offset="1"/></radialGradient><radialGradient id="c" cx="0" cy="0" r="1" gradientTransform="rotate(30 6.718 26.947)scale(2.87244)" gradientUnits="userSpaceOnUse"><stop stop-color="#FFE58A"/><stop offset="1"/></radialGradient><radialGradient id="d" cx="0" cy="0" r="1" gradientTransform="rotate(30 2.94 29.561)scale(2.75815)" gradientUnits="userSpaceOnUse"><stop stop-color="#FFE58A"/><stop offset="1"/></radialGradient><radialGradient id="f" cx="0" cy="0" r="1" gradientTransform="matrix(6.52204 0 0 6.52203 15.02 5.123)" gradientUnits="userSpaceOnUse"><stop stop-color="#E38812"/><stop offset="0.11" stop-color="#E6962D"/><stop offset="0.73" stop-color="#F8E1C3"/><stop offset="1" stop-color="#fff"/></radialGradient><radialGradient id="g" cx="0" cy="0" r="1" gradientTransform="translate(13.351 2.96)scale(2.32386)" gradientUnits="userSpaceOnUse"><stop stop-color="#FFF0B0"/><stop offset="1"/></radialGradient><radialGradient id="C" cx="0" cy="0" r="1" gradientTransform="translate(.749 24.232)scale(3.08578)" gradientUnits="userSpaceOnUse"><stop stop-color="#ADBDC9"/><stop offset="1" stop-color="#263754"/></radialGradient><radialGradient id="D" cx="0" cy="0" r="1" gradientTransform="translate(-2.283 13.68)scale(11.9088)" gradientUnits="userSpaceOnUse"><stop stop-color="#fff"/><stop offset="0.11" stop-color="#FAFAFA"/><stop offset="0.23" stop-color="#EDEDED"/><stop offset="0.36" stop-color="#D6D6D6"/><stop offset="0.5" stop-color="#B7B7B7"/><stop offset="0.64" stop-color="#8E8E8E"/><stop offset="0.78" stop-color="#5C5C5C"/><stop offset="0.92" stop-color="#232323"/><stop offset="1"/></radialGradient><radialGradient id="I" cx="0" cy="0" r="1" gradientTransform="translate(20.551 9.413)scale(2.24004)" gradientUnits="userSpaceOnUse"><stop stop-color="#FCEA10"/><stop offset="0.12" stop-color="#CDBF0D"/><stop offset="0.3" stop-color="#908509"/><stop offset="0.47" stop-color="#5C5606"/><stop offset="0.63" stop-color="#343103"/><stop offset="0.78" stop-color="#181601"/><stop offset="0.91" stop-color="#060600"/><stop offset="1"/></radialGradient></defs></svg>