<svg xmlns="http://www.w3.org/2000/svg" width="22" height="28" fill="none" viewBox="0 0 22 28"><path fill="url(#a)" fill-rule="evenodd" d="m17.937 3.323-1.457 2.33L13.7 4.09c.38-.654.725-1.291 1.34-2.395.067-.122.294-.147.598-.073a4 4 0 0 1 1.111.45c.353.184.675.421.952.702.219.23.311.425.236.548" clip-rule="evenodd"/><path fill="url(#b)" fill-rule="evenodd" d="M17.7 2.775a3 3 0 0 0-.547-.45 149 149 0 0 1-1.684 2.772l.993.556 1.457-2.33c.076-.123 0-.319-.235-.548z" clip-rule="evenodd" style="mix-blend-mode:multiply"/><path fill="url(#c)" fill-rule="evenodd" d="M14.105 4.32c.446-.776.842-1.447 1.524-2.705-.303-.058-.522-.041-.59.081-.614 1.104-.96 1.741-1.339 2.395z" clip-rule="evenodd" style="mix-blend-mode:multiply"/><path fill="#CBBBA0" fill-rule="evenodd" d="M16.682 2.031a4.7 4.7 0 0 0-.843-.367c-.9 1.52-.059 1.929.843.367" clip-rule="evenodd" opacity="0.2" style="mix-blend-mode:screen"/><path fill="url(#d)" fill-rule="evenodd" d="M11.123 9.83c-2.35-1.316-4.388-2.575-5.617-3.45-.11-.065.235-.768 1.734-3.27C8.74.61 9.194-.044 9.304.02c1.398.597 3.537 1.676 5.895 2.992s4.388 2.575 5.618 3.45c.11.065-.236.768-1.727 3.27-1.49 2.501-1.962 3.139-2.08 3.139-1.39-.597-3.529-1.676-5.896-3z" clip-rule="evenodd"/><path fill="url(#e)" fill-rule="evenodd" d="M17.01 12.87c-1.39-.596-3.529-1.675-5.895-3-2.367-1.324-4.38-2.615-5.61-3.49.143.766.363 1.516.658 2.24q.031.066.092.106c1.23.875 3.243 2.117 5.55 3.409s4.498 2.403 5.896 3l-.657-2.264z" clip-rule="evenodd"/><path fill="url(#f)" fill-rule="evenodd" d="M19.116 9.732c-1.407 2.321-1.912 3.04-2.072 3.139l.648 2.297c.11.057.564-.58 2.064-3.098 1.355-2.29 1.768-3.074 1.743-3.27a10.6 10.6 0 0 0-.674-2.305c.05.13-.345.899-1.743 3.27z" clip-rule="evenodd"/><path fill="url(#g)" fill-rule="evenodd" d="M9.767 5.636a7.4 7.4 0 0 1 2.783-1.06 7.5 7.5 0 0 1 2.986.12c1.087.23 4.674 1.202 4.97 2.543.294-.565.361-.777.302-.818-1.23-.875-3.267-2.133-5.617-3.45C12.84 1.656 10.694.61 9.304.005c-.11-.065-.573.605-2.063 3.057s-1.845 3.221-1.735 3.27a54 54 0 0 0 3.099 1.995c-.396-.818-.177-1.889 1.162-2.739z" clip-rule="evenodd" opacity="0.5" style="mix-blend-mode:screen"/><path fill="url(#h)" fill-rule="evenodd" d="M10.559 2.023c2.005.065 3.963.607 5.702 1.578l-1.07-.605C12.84 1.68 10.694.61 9.304.004 9.194-.06 8.73.61 7.24 3.061l-.245.417a4.85 4.85 0 0 1 1.621-1.105 5 5 0 0 1 1.942-.382z" clip-rule="evenodd" opacity="0.5" style="mix-blend-mode:screen"/><path fill="url(#i)" fill-rule="evenodd" d="M19.503 11.775c-.707 1.006-1.878 1.635-2.148.72q-.122.197-.311.335l.648 2.297c.11.057.564-.58 2.064-3.098 1.355-2.29 1.768-3.074 1.743-3.27a10.6 10.6 0 0 0-.674-2.305c0 .065-.059.286-.32.817a.93.93 0 0 1 .547.482c.405.891-.968 3.197-1.55 4.038z" clip-rule="evenodd" opacity="0.5" style="mix-blend-mode:multiply"/><path fill="url(#j)" fill-rule="evenodd" d="M16.589 12.642c-.707 1.512-4.211-.335-5.483-1.022a22.6 22.6 0 0 1-3.68-2.51 7.9 7.9 0 0 1-1.844-2.297q.216.92.572 1.799.032.066.093.106c1.23.875 3.242 2.117 5.55 3.409s4.497 2.403 5.895 3l-.648-2.256-.421-.188z" clip-rule="evenodd" opacity="0.6" style="mix-blend-mode:multiply"/><path fill="url(#k)" fill-rule="evenodd" d="M12.816 11.996c-1.272 2.052-1.558 2.452-2.788 4.512s-1.322 2.297-2.527 4.398l-1.482-.817-1.482-.818c1.272-2.052 1.432-2.223 2.678-4.291s1.457-2.502 2.636-4.61c.067-.123.295-.148.606-.074a4.1 4.1 0 0 1 1.12.45q.539.29.97.719c.218.229.32.433.243.556z" clip-rule="evenodd"/><path fill="url(#l)" fill-rule="evenodd" d="M12.572 11.44a3.5 3.5 0 0 0-.548-.458c-1.28 2.142-1.575 2.616-2.863 4.758s-1.432 2.452-2.695 4.577l1.061.589c1.179-2.1 1.263-2.322 2.527-4.398 1.263-2.076 1.515-2.452 2.787-4.512.076-.123 0-.327-.244-.556z" clip-rule="evenodd" style="mix-blend-mode:multiply"/><path fill="url(#m)" fill-rule="evenodd" d="M4.984 19.484c1.313-2.134 1.507-2.38 2.787-4.529s1.5-2.559 2.704-4.692c-.312-.065-.53 0-.598.082-1.18 2.109-1.39 2.542-2.636 4.61s-1.407 2.24-2.678 4.292z" clip-rule="evenodd" style="mix-blend-mode:multiply"/><path fill="#4A2121" fill-rule="evenodd" d="M7.737 17.228c.784.44 1.297.98 1.163 1.217-.135.238-.843.066-1.685-.367-.842-.434-1.297-.981-1.162-1.218s.884-.066 1.684.367" clip-rule="evenodd"/><path fill="#CBBBA0" fill-rule="evenodd" d="M11.536 10.688a4.6 4.6 0 0 0-.842-.376c-2.864 4.84-3.04 5.37-2.813 5.51s.918-.458 3.697-5.134z" clip-rule="evenodd" opacity="0.2" style="mix-blend-mode:screen"/><path fill="url(#n)" fill-rule="evenodd" d="M9.009 18.486c.059-.098-.059-.27-.295-.482a6 6 0 0 0-1.002-.695 5.8 5.8 0 0 0-1.12-.498c-.303-.09-.522-.098-.573 0l-.842 1.48 1.465.817 1.466.817q.445-.723.901-1.447z" clip-rule="evenodd"/><path fill="url(#o)" fill-rule="evenodd" d="M8.167 19.933c.05-.098-.05-.294-.261-.54a6 6 0 0 0-.927-.817 5.5 5.5 0 0 0-1.035-.646c-.304-.155-.523-.155-.582-.098l-.842 1.472 1.373 1.03 1.348 1.021c.294-.465.59-.948.892-1.422z" clip-rule="evenodd"/><path fill="url(#p)" fill-rule="evenodd" d="M7.51 20.996c.059-.09-.059-.27-.303-.482a6 6 0 0 0-1.01-.695 6.5 6.5 0 0 0-1.13-.507c-.311-.09-.53-.106-.58 0-.278.482-.548.973-.843 1.447l1.483.817 1.482.818.884-1.414z" clip-rule="evenodd"/><path fill="url(#q)" fill-rule="evenodd" d="M7.022 21.862c.058-.09-.06-.27-.304-.482a6 6 0 0 0-1.027-.703q-.54-.316-1.137-.507c-.312-.098-.53-.114-.581 0l-.86 1.406 1.5.818 1.499.817.842-1.414z" clip-rule="evenodd"/><path fill="url(#r)" fill-rule="evenodd" d="M6.365 22.974c.059-.09-.076-.245-.337-.433a6 6 0 0 0-1.103-.58 6.3 6.3 0 0 0-1.213-.393c-.329-.065-.556-.065-.606 0l-.834 1.439 1.591.678 1.61.687.841-1.398z" clip-rule="evenodd"/><path fill="url(#s)" fill-rule="evenodd" d="M5.573 24.315c.05-.09-.067-.27-.303-.499a6.5 6.5 0 0 0-1.002-.76 6 6 0 0 0-1.112-.572c-.303-.115-.522-.14-.573-.05L1.7 23.997l3.015 1.692.842-1.373z" clip-rule="evenodd"/><path fill="url(#t)" fill-rule="evenodd" d="M5.582 24.233a.9.9 0 0 0-.253-.36 4.5 4.5 0 0 0-.53-.482c.374-.296.618-.72.682-1.185q.338.163.64.384c.12.075.219.18.286.302a.09.09 0 0 1 0 .082c-.27.425-.53.817-.783 1.259z" clip-rule="evenodd" opacity="0.5" style="mix-blend-mode:multiply"/><path fill="url(#u)" fill-rule="evenodd" d="M6.373 22.892a.8.8 0 0 0-.286-.302 4 4 0 0 0-.64-.384c.212-.142.387-.33.513-.548a1.6 1.6 0 0 0 .211-.711q.317.21.598.466a.8.8 0 0 1 .261.351.09.09 0 0 1 0 .082l-.648 1.046z" clip-rule="evenodd" opacity="0.5" style="mix-blend-mode:multiply"/><path fill="url(#v)" fill-rule="evenodd" d="M7.03 21.764a.8.8 0 0 0-.261-.351 5 5 0 0 0-.598-.466c.137-.093.252-.215.335-.356.083-.142.133-.3.145-.462q.321.212.606.466a.8.8 0 0 1 .261.352.09.09 0 0 1 0 .082l-.48.768z" clip-rule="evenodd" opacity="0.5" style="mix-blend-mode:multiply"/><path fill="url(#w)" fill-rule="evenodd" d="M7.519 20.914a.8.8 0 0 0-.261-.351 5 5 0 0 0-.607-.466 2.56 2.56 0 0 0 .674-1.218q.297.256.547.556c.109.114.19.251.236.4a.2.2 0 0 1 0 .098q-.313.49-.615.981z" clip-rule="evenodd" opacity="0.5" style="mix-blend-mode:multiply"/><path fill="url(#x)" fill-rule="evenodd" d="M8.167 19.835a1 1 0 0 0-.236-.4 5 5 0 0 0-.547-.556c.4-.34.665-.806.75-1.316q.376.24.698.547c.152.164.228.295.177.376z" clip-rule="evenodd" opacity="0.5" style="mix-blend-mode:multiply"/><path fill="url(#y)" fill-rule="evenodd" d="M3.198 22.5a1.1 1.1 0 0 0-.547-.114l.455-.818a.09.09 0 0 1 .067-.05c.19-.045.39-.045.581.001a1.76 1.76 0 0 0-.556.924z" clip-rule="evenodd" opacity="0.5" style="mix-blend-mode:multiply"/><path fill="url(#z)" fill-rule="evenodd" d="M3.754 21.576a1.2 1.2 0 0 0-.581 0l.783-1.439a.09.09 0 0 1 .067-.049c.195-.02.393.008.573.082a3.9 3.9 0 0 0-.842 1.406" clip-rule="evenodd" opacity="0.5" style="mix-blend-mode:multiply"/><path fill="url(#A)" fill-rule="evenodd" d="M4.613 20.17a1.2 1.2 0 0 0-.572-.082l.446-.817a.1.1 0 0 1 .032-.033.1.1 0 0 1 .044-.016c.19-.025.382.004.556.082a1.63 1.63 0 0 0-.506.817z" clip-rule="evenodd" opacity="0.5" style="mix-blend-mode:multiply"/><path fill="url(#B)" fill-rule="evenodd" d="M5.118 19.336a1.03 1.03 0 0 0-.556-.081l.843-1.423a.1.1 0 0 1 .033-.057c.188 0 .372.05.531.147-.41.383-.702.87-.842 1.406z" clip-rule="evenodd" opacity="0.5" style="mix-blend-mode:multiply"/><path fill="url(#C)" fill-rule="evenodd" d="M5.97 17.93a1 1 0 0 0-.532-.155l.556-.973c.06-.106.295-.09.64 0-.244 0-.614.769-.665 1.096z" clip-rule="evenodd" opacity="0.5" style="mix-blend-mode:multiply"/><path fill="#4A2121" fill-rule="evenodd" d="M7.072 18.347q.485.264.91.613c.177.122.317.29.404.483l-.244.392a1.35 1.35 0 0 0-.363-.548 7 7 0 0 0-.842-.735 6 6 0 0 0-.918-.589 1.1 1.1 0 0 0-.59-.18c.217-.025.436.009.632.098q.521.196 1.003.466zM6.28 19.68q.509.233.97.547c.252.172.412.328.437.434l-.168.278a1.24 1.24 0 0 0-.405-.483 7.1 7.1 0 0 0-1.928-1.079 1.17 1.17 0 0 0-.623-.098c.22-.032.445-.012.656.058q.548.142 1.062.375zm-.505.842q.517.22.986.523c.252.171.412.327.438.441l-.169.27a1.15 1.15 0 0 0-.412-.482 6 6 0 0 0-.927-.622 8 8 0 0 0-1.01-.425 1.2 1.2 0 0 0-.64-.098c.223-.032.451-.013.665.058q.55.152 1.07.384zM5 21.862a6.6 6.6 0 0 1 1.053.434c.27.147.447.277.48.376l-.16.261a1.1 1.1 0 0 0-.455-.417 5.7 5.7 0 0 0-.993-.515 6.6 6.6 0 0 0-1.087-.367 1.4 1.4 0 0 0-.665-.05c.228-.046.463-.046.69 0q.58.096 1.137.278m-.656 1.071q.498.247.951.564c.183.116.332.277.43.466l-.143.237a1.3 1.3 0 0 0-.405-.507 7 7 0 0 0-.91-.67 7 7 0 0 0-.993-.531c-.19-.1-.406-.149-.623-.14.221-.025.445.01.648.099q.54.185 1.045.45z" clip-rule="evenodd" opacity="0.35" style="mix-blend-mode:multiply"/><path fill="#3D2004" fill-rule="evenodd" d="M3.476 24.388c.842.466 1.39 1.046 1.238 1.3-.152.253-.943.074-1.777-.392s-1.39-1.047-1.238-1.3.943-.074 1.777.392" clip-rule="evenodd"/><path fill="url(#D)" fill-rule="evenodd" d="M4.562 25.663c-.64 1.022-1.01 1.635-1.39 2.216L.52 26.399c.362-.63.69-1.234 1.28-2.289.059-.114.27-.13.564-.065a3.7 3.7 0 0 1 1.061.425q.502.272.91.662c.202.22.295.409.227.523z" clip-rule="evenodd"/><path fill="url(#E)" fill-rule="evenodd" d="M4.335 25.132a3.6 3.6 0 0 0-.522-.433c-.7 1.25-1.12 1.88-1.592 2.656l.952.524c.379-.614.75-1.194 1.39-2.216.067-.114 0-.302-.228-.523z" clip-rule="evenodd" style="mix-blend-mode:multiply"/><path fill="url(#F)" fill-rule="evenodd" d="M.907 26.612c.421-.736.775-1.374 1.449-2.575-.287-.057-.497 0-.556.073-.59 1.055-.918 1.635-1.28 2.29z" clip-rule="evenodd" style="mix-blend-mode:multiply"/><path fill="#CBBBA0" fill-rule="evenodd" d="M3.358 24.437a4.3 4.3 0 0 0-.842-.351c-.842 1.48-1.137 2.158-.927 2.28.21.123.75-.237 1.752-1.929z" clip-rule="evenodd" opacity="0.2" style="mix-blend-mode:screen"/><path fill="url(#G)" fill-rule="evenodd" d="M2.086 26.767c.725.409 1.213.924 1.087 1.136-.127.213-.842.066-1.567-.343-.724-.41-1.212-.916-1.086-1.136.126-.221.842-.066 1.566.343" clip-rule="evenodd"/><path fill="url(#H)" fill-rule="evenodd" d="M2.406 23.947q.104-.403.32-.76c.117-.254.276-.486.472-.687a1.1 1.1 0 0 0-.547-.114.13.13 0 0 0-.068.049l-.884 1.56c.076-.13.345-.146.707-.048" clip-rule="evenodd" opacity="0.5" style="mix-blend-mode:multiply"/><path fill="url(#I)" fill-rule="evenodd" d="M4.798 23.432a4.1 4.1 0 0 1-.8 1.308c.514.376.842.76.7.948l.841-1.373c.051-.09-.067-.27-.303-.499a4 4 0 0 0-.438-.384" clip-rule="evenodd" opacity="0.5" style="mix-blend-mode:multiply"/><defs><linearGradient id="a" x1="14.4668" x2="17.3203" y1="2.66094" y2="4.3531" gradientUnits="userSpaceOnUse"><stop stop-color="#7F4E2F"/><stop offset="0.31" stop-color="#D68833"/><stop offset="1" stop-color="#70442E"/></linearGradient><linearGradient id="b" x1="16.3194" x2="17.3477" y1="3.7072" y2="4.32241" gradientUnits="userSpaceOnUse"><stop stop-color="#fff"/><stop offset="0.4" stop-color="#C3C7E6"/><stop offset="1" stop-color="#616DBE"/></linearGradient><linearGradient id="c" x1="14.4247" x2="14.8893" y1="2.72632" y2="2.99984" gradientUnits="userSpaceOnUse"><stop stop-color="#616DBE"/><stop offset="0.6" stop-color="#C3C7E6"/><stop offset="1" stop-color="#fff"/></linearGradient><linearGradient id="k" x1="7.34137" x2="10.2611" y1="14.5709" y2="16.3057" gradientUnits="userSpaceOnUse"><stop stop-color="#7F4E2F"/><stop offset="0.31" stop-color="#D68833"/><stop offset="1" stop-color="#70442E"/></linearGradient><linearGradient id="l" x1="9.21979" x2="10.2899" y1="15.6335" y2="16.266" gradientUnits="userSpaceOnUse"><stop stop-color="#fff"/><stop offset="0.4" stop-color="#C3C7E6"/><stop offset="1" stop-color="#616DBE"/></linearGradient><linearGradient id="m" x1="7.29963" x2="7.78902" y1="14.6362" y2="14.9268" gradientUnits="userSpaceOnUse"><stop stop-color="#616DBE"/><stop offset="0.6" stop-color="#C3C7E6"/><stop offset="1" stop-color="#fff"/></linearGradient><linearGradient id="n" x1="5.65705" x2="8.60155" y1="17.3747" y2="19.1265" gradientUnits="userSpaceOnUse"><stop stop-color="#611412"/><stop offset="0.31" stop-color="#8A4835"/><stop offset="1" stop-color="#450E0E"/></linearGradient><linearGradient id="o" x1="4.86556" x2="7.83518" y1="18.6661" y2="20.4267" gradientUnits="userSpaceOnUse"><stop stop-color="#611412"/><stop offset="0.31" stop-color="#8A4835"/><stop offset="1" stop-color="#450E0E"/></linearGradient><linearGradient id="p" x1="4.15802" x2="7.1358" y1="19.8515" y2="21.6205" gradientUnits="userSpaceOnUse"><stop stop-color="#611412"/><stop offset="0.31" stop-color="#8A4835"/><stop offset="1" stop-color="#450E0E"/></linearGradient><linearGradient id="q" x1="3.64435" x2="6.6554" y1="20.6853" y2="22.4714" gradientUnits="userSpaceOnUse"><stop stop-color="#611412"/><stop offset="0.31" stop-color="#8A4835"/><stop offset="1" stop-color="#450E0E"/></linearGradient><linearGradient id="r" x1="2.84442" x2="5.86363" y1="22.0258" y2="23.8204" gradientUnits="userSpaceOnUse"><stop stop-color="#611412"/><stop offset="0.31" stop-color="#8A4835"/><stop offset="1" stop-color="#450E0E"/></linearGradient><linearGradient id="s" x1="2.20429" x2="5.23165" y1="23.0803" y2="24.8834" gradientUnits="userSpaceOnUse"><stop stop-color="#611412"/><stop offset="0.31" stop-color="#8A4835"/><stop offset="1" stop-color="#450E0E"/></linearGradient><linearGradient id="t" x1="5.01731" x2="6.02904" y1="22.9331" y2="23.5398" gradientUnits="userSpaceOnUse"><stop stop-color="#fff"/><stop offset="0.4" stop-color="#C3C7E6"/><stop offset="1" stop-color="#616DBE"/></linearGradient><linearGradient id="u" x1="5.75839" x2="6.78676" y1="21.6334" y2="22.2486" gradientUnits="userSpaceOnUse"><stop stop-color="#fff"/><stop offset="0.4" stop-color="#C3C7E6"/><stop offset="1" stop-color="#616DBE"/></linearGradient><linearGradient id="v" x1="6.33092" x2="7.35961" y1="20.6444" y2="21.2512" gradientUnits="userSpaceOnUse"><stop stop-color="#fff"/><stop offset="0.4" stop-color="#C3C7E6"/><stop offset="1" stop-color="#616DBE"/></linearGradient><linearGradient id="w" x1="6.92062" x2="7.95748" y1="19.6062" y2="20.2216" gradientUnits="userSpaceOnUse"><stop stop-color="#fff"/><stop offset="0.4" stop-color="#C3C7E6"/><stop offset="1" stop-color="#616DBE"/></linearGradient><linearGradient id="x" x1="7.60276" x2="8.65625" y1="18.4127" y2="19.0366" gradientUnits="userSpaceOnUse"><stop stop-color="#fff"/><stop offset="0.4" stop-color="#C3C7E6"/><stop offset="1" stop-color="#616DBE"/></linearGradient><linearGradient id="y" x1="2.95407" x2="3.43497" y1="21.8378" y2="22.1283" gradientUnits="userSpaceOnUse"><stop stop-color="#616DBE"/><stop offset="0.6" stop-color="#C3C7E6"/><stop offset="1" stop-color="#fff"/></linearGradient><linearGradient id="z" x1="3.62764" x2="4.11703" y1="20.7097" y2="21.0003" gradientUnits="userSpaceOnUse"><stop stop-color="#616DBE"/><stop offset="0.6" stop-color="#C3C7E6"/><stop offset="1" stop-color="#fff"/></linearGradient><linearGradient id="A" x1="4.32687" x2="4.80778" y1="19.5653" y2="19.8558" gradientUnits="userSpaceOnUse"><stop stop-color="#616DBE"/><stop offset="0.6" stop-color="#C3C7E6"/><stop offset="1" stop-color="#fff"/></linearGradient><linearGradient id="B" x1="5.00044" x2="5.48983" y1="18.4454" y2="18.736" gradientUnits="userSpaceOnUse"><stop stop-color="#616DBE"/><stop offset="0.6" stop-color="#C3C7E6"/><stop offset="1" stop-color="#fff"/></linearGradient><linearGradient id="C" x1="5.77535" x2="6.26474" y1="17.1621" y2="17.4526" gradientUnits="userSpaceOnUse"><stop stop-color="#616DBE"/><stop offset="0.6" stop-color="#C3C7E6"/><stop offset="1" stop-color="#fff"/></linearGradient><linearGradient id="D" x1="1.25248" x2="3.97284" y1="25.0258" y2="26.6493" gradientUnits="userSpaceOnUse"><stop stop-color="#7F4E2F"/><stop offset="0.31" stop-color="#D68833"/><stop offset="1" stop-color="#70442E"/></linearGradient><linearGradient id="E" x1="3.01285" x2="3.99163" y1="26.0312" y2="26.6123" gradientUnits="userSpaceOnUse"><stop stop-color="#fff"/><stop offset="0.4" stop-color="#C3C7E6"/><stop offset="1" stop-color="#616DBE"/></linearGradient><linearGradient id="F" x1="1.21037" x2="1.64985" y1="25.0912" y2="25.356" gradientUnits="userSpaceOnUse"><stop stop-color="#616DBE"/><stop offset="0.6" stop-color="#C3C7E6"/><stop offset="1" stop-color="#fff"/></linearGradient><linearGradient id="G" x1="0.503056" x2="3.18965" y1="27.1429" y2="27.1429" gradientUnits="userSpaceOnUse"><stop stop-color="#8A5821"/><stop offset="1" stop-color="#543323"/></linearGradient><linearGradient id="H" x1="2.18745" x2="2.71827" y1="23.1048" y2="23.421" gradientUnits="userSpaceOnUse"><stop stop-color="#616DBE"/><stop offset="0.6" stop-color="#C3C7E6"/><stop offset="1" stop-color="#fff"/></linearGradient><linearGradient id="I" x1="4.28464" x2="5.24678" y1="24.2901" y2="24.8626" gradientUnits="userSpaceOnUse"><stop stop-color="#fff"/><stop offset="0.4" stop-color="#C3C7E6"/><stop offset="1" stop-color="#616DBE"/></linearGradient><radialGradient id="d" cx="0" cy="0" r="1" gradientTransform="matrix(14.7384 0 0 14.305 9.135 .405)" gradientUnits="userSpaceOnUse"><stop stop-color="#89A5C4"/><stop offset="1" stop-color="#575E91"/></radialGradient><radialGradient id="e" cx="0" cy="0" r="1" gradientTransform="matrix(18.7641 0 0 18.2123 5.287 5.84)" gradientUnits="userSpaceOnUse"><stop stop-color="#5D7085"/><stop offset="1" stop-color="#40456B"/></radialGradient><radialGradient id="f" cx="0" cy="0" r="1" gradientTransform="matrix(10.1063 0 0 9.80914 16.454 5.121)" gradientUnits="userSpaceOnUse"><stop stop-color="#5D7085"/><stop offset="1" stop-color="#40456B"/></radialGradient><radialGradient id="g" cx="0" cy="0" r="1" gradientTransform="matrix(14.9321 0 0 14.493 12.698 8.26)" gradientUnits="userSpaceOnUse"><stop/><stop offset="1" stop-color="azure"/></radialGradient><radialGradient id="h" cx="0" cy="0" r="1" gradientTransform="matrix(10.0726 0 0 9.77645 9.843 3.576)" gradientUnits="userSpaceOnUse"><stop/><stop offset="1" stop-color="azure"/></radialGradient><radialGradient id="i" cx="0" cy="0" r="1" gradientTransform="matrix(10.4937 0 0 10.1852 15.822 7.296)" gradientUnits="userSpaceOnUse"><stop stop-color="#fff"/><stop offset="1" stop-color="#545F85"/></radialGradient><radialGradient id="j" cx="0" cy="0" r="1" gradientTransform="matrix(10.3842 0 0 10.0789 13.59 4.942)" gradientUnits="userSpaceOnUse"><stop stop-color="#fff"/><stop offset="1" stop-color="#545F85"/></radialGradient></defs></svg>