<svg xmlns="http://www.w3.org/2000/svg" width="26" height="26" fill="none" viewBox="0 0 26 26"><path fill="url(#a)" fill-rule="evenodd" d="m18.142 6.357 5.735 4.614.957 3.24-4.385-.05-7.159-3.296L7.555 6.25l-.957-3.23 4.385.04z" clip-rule="evenodd"/><path fill="url(#b)" fill-rule="evenodd" d="M6.598 3.019.953 4.99l1.3 4.41 5.302-3.15z" clip-rule="evenodd"/><path fill="url(#c)" fill-rule="evenodd" d="M7.555 6.25 2.254 9.4l7.83 6.308 3.207-4.843z" clip-rule="evenodd"/><path fill="url(#d)" fill-rule="evenodd" d="m13.29 10.865 7.159 3.297-.597 6.046-9.769-4.5z" clip-rule="evenodd"/><path fill="url(#e)" fill-rule="evenodd" d="m24.834 14.21 1.006 6.055-5.988-.057.597-6.046z" clip-rule="evenodd"/><path fill="url(#f)" fill-rule="evenodd" d="M2.254 9.4 5.674 26l4.41-10.292z" clip-rule="evenodd"/><path fill="url(#g)" fill-rule="evenodd" d="m10.083 15.708 9.769 4.5L5.674 26z" clip-rule="evenodd"/><path fill="url(#h)" fill-rule="evenodd" d="M25.84 20.265 5.674 26l14.178-5.792z" clip-rule="evenodd"/><path fill="#85F2FF" fill-rule="evenodd" d="M.953 4.99 5.673 26 2.254 9.4z" clip-rule="evenodd"/><path fill="url(#i)" fill-rule="evenodd" d="M12.644 3.829c1.972 1.906 5.85 7.87 6.889 9.916l.916.417h2.356a49 49 0 0 1-5.808-8.353z" clip-rule="evenodd" opacity="0.5" style="mix-blend-mode:screen"/><path fill="#9FDFFF" fill-rule="evenodd" d="M3.105 13.507c-.074-2.97 1.162-2.078 2.454-.752 4.09 4.18 2.708 6.594.941 11.314l3.583-8.361L2.254 9.4c.286 1.375.564 2.741.818 4.09z" clip-rule="evenodd" opacity="0.75" style="mix-blend-mode:screen"/><path fill="url(#j)" fill-rule="evenodd" d="M13.119 17.099c4 1.857 2.331 4.009-1.056 5.727L5.673 26l14.179-5.8z" clip-rule="evenodd" opacity="0.5" style="mix-blend-mode:screen"/><path fill="#8FFCFF" fill-rule="evenodd" d="M7.555 6.25 6.68 3.297c.31 1.505.507 2.037.074 2.692-.68.847-1.492 1.58-2.406 2.168z" clip-rule="evenodd" style="mix-blend-mode:screen"/><path fill="#fff" fill-rule="evenodd" d="M13.29 10.865 7.564 6.25 4.357 8.157c1.636-.868 2.568-1.178 3.182-.95a12.3 12.3 0 0 1 2.626 1.702c1.326.99 1.915 2.005 1.923 2.545 0 .67-.63 1.988-1.481 3.477l2.692-4.09z" clip-rule="evenodd"/><path fill="#8FFCFF" fill-rule="evenodd" d="m13.29 10.865-2.691 4.09c1.243-1.775 2.209-2.593 2.888-2.749.916-.22 2.25.082 4.851 1.015l-5.048-2.332z" clip-rule="evenodd" opacity="0.5" style="mix-blend-mode:screen"/><path fill="url(#k)" fill-rule="evenodd" d="m9.74 3.052-3.166-.033.646 2.176.31 1.055 5.728 4.615 2.773 1.276c-1.726-1.538-6.152-7.748-6.324-9.09z" clip-rule="evenodd" style="mix-blend-mode:screen"/><path fill="url(#l)" d="M6.917 13.515A6.758 6.758 0 1 0 6.917 0a6.758 6.758 0 0 0 0 13.515" opacity="0.75" style="mix-blend-mode:screen"/><defs><radialGradient id="a" cx="0" cy="0" r="1" gradientTransform="translate(7.989 6.48)scale(22.8993)" gradientUnits="userSpaceOnUse"><stop stop-color="#C4EEFF"/><stop offset="0.33" stop-color="#4CCAFF"/><stop offset="1" stop-color="#003EB0"/></radialGradient><radialGradient id="b" cx="0" cy="0" r="1" gradientTransform="translate(.323 1.972)scale(8.70485)" gradientUnits="userSpaceOnUse"><stop stop-color="#A5E2FF"/><stop offset="1" stop-color="#218CF3"/></radialGradient><radialGradient id="c" cx="0" cy="0" r="1" gradientTransform="translate(7.662 7.036)scale(25.1737)" gradientUnits="userSpaceOnUse"><stop stop-color="#A5E2FF"/><stop offset="1" stop-color="#08F"/></radialGradient><radialGradient id="d" cx="0" cy="0" r="1" gradientTransform="translate(11.728 27.12)scale(17.4997)" gradientUnits="userSpaceOnUse"><stop stop-color="#A5E2FF"/><stop offset="1" stop-color="#0069C2"/></radialGradient><radialGradient id="e" cx="0" cy="0" r="1" gradientTransform="translate(26.961 10.513)scale(12.7137)" gradientUnits="userSpaceOnUse"><stop stop-color="#4CCAFF"/><stop offset="1" stop-color="#003EB0"/></radialGradient><radialGradient id="f" cx="0" cy="0" r="1" gradientTransform="matrix(11.102 0 0 11.1019 .34 19.3)" gradientUnits="userSpaceOnUse"><stop stop-color="#A5E2FF"/><stop offset="1" stop-color="#218CF3"/></radialGradient><radialGradient id="g" cx="0" cy="0" r="1" gradientTransform="translate(8.742 29.698)scale(20.4122)" gradientUnits="userSpaceOnUse"><stop stop-color="#77D6FF"/><stop offset="1" stop-color="#001FB0"/></radialGradient><radialGradient id="h" cx="0" cy="0" r="1" gradientTransform="translate(6.017 26.769)scale(18.5223)" gradientUnits="userSpaceOnUse"><stop stop-color="#A5E2FF"/><stop offset="1" stop-color="#0081FF"/></radialGradient><radialGradient id="i" cx="0" cy="0" r="1" gradientTransform="translate(20.874 14.702)scale(10.8074)" gradientUnits="userSpaceOnUse"><stop stop-color="#00000D"/><stop offset="1" stop-color="#fff"/></radialGradient><radialGradient id="j" cx="0" cy="0" r="1" gradientTransform="translate(9.953 16.125)scale(11.6174)" gradientUnits="userSpaceOnUse"><stop offset="0.31" stop-color="#00000D"/><stop offset="1" stop-color="#1CB4FF"/></radialGradient><radialGradient id="k" cx="0" cy="0" r="1" gradientTransform="translate(20.44 -1.53)scale(18.8578)" gradientUnits="userSpaceOnUse"><stop offset="0.57" stop-color="#00000D"/><stop offset="0.6" stop-color="#030613"/><stop offset="0.63" stop-color="#0D1524"/><stop offset="0.68" stop-color="#1C2F3F"/><stop offset="0.72" stop-color="#315466"/><stop offset="0.77" stop-color="#4C8298"/><stop offset="0.82" stop-color="#6DBAD3"/><stop offset="0.86" stop-color="#85E3FF"/></radialGradient><radialGradient id="l" cx="0" cy="0" r="1" gradientTransform="translate(6.917 6.758)scale(6.75771)" gradientUnits="userSpaceOnUse"><stop stop-color="#fff"/><stop offset="0.2" stop-color="#6EFFFF"/><stop offset="0.24" stop-color="#61E1E1"/><stop offset="0.32" stop-color="#4BADAD"/><stop offset="0.41" stop-color="#377F7F"/><stop offset="0.5" stop-color="#265858"/><stop offset="0.59" stop-color="#183838"/><stop offset="0.68" stop-color="#0D1F1F"/><stop offset="0.77" stop-color="#060E0E"/><stop offset="0.88" stop-color="#010303"/><stop offset="1"/></radialGradient></defs></svg>