<svg xmlns="http://www.w3.org/2000/svg" width="22" height="28" fill="none" viewBox="0 0 22 28"><path fill="url(#a)" fill-rule="evenodd" d="M7.167 22.69c2.284 1.29 3.563 3.266 2.874 4.475s-3.098 1.078-5.374-.213c-2.275-1.29-3.571-3.266-2.873-4.475.697-1.208 3.098-1.085 5.373.213" clip-rule="evenodd"/><path fill="#5ACCC9" fill-rule="evenodd" d="M10.166 27.01c-.632 1.061-2.99.865-5.283-.433-2.292-1.299-3.638-3.218-3.023-4.28 1.038 1.953 4.842 4.59 8.306 4.713" clip-rule="evenodd" style="mix-blend-mode:multiply"/><path fill="#fff" fill-rule="evenodd" d="m13.953 6.628-.598.988c-.83 1.363-.465.996-1.786 2a5.17 5.17 0 0 1-2.491.988c-2.907.515-5.573 1.634-7.11 4.239a7.07 7.07 0 0 0-.939 3.486 8.33 8.33 0 0 0 1.187 4.262 8.5 8.5 0 0 0 3.215 3.087 8.7 8.7 0 0 0 4.32 1.197 8.7 8.7 0 0 0 4.343-1.107 7.23 7.23 0 0 0 2.583-2.572c1.537-2.621 1.18-5.438.175-8.166a4.9 4.9 0 0 1-.358-2.588c.225-1.633.084-1.127.873-2.524l.573-1.004a9.2 9.2 0 0 1-2.127-.906 9.5 9.5 0 0 1-1.852-1.348z" clip-rule="evenodd" opacity="0.15"/><path fill="url(#b)" fill-rule="evenodd" d="M9.335 13.062c4.419 0 8.007 1.633 8.007 3.61s-3.613 3.633-8.007 3.633-8.007-1.633-8.007-3.609 3.555-3.634 8.007-3.634" clip-rule="evenodd"/><path fill="url(#c)" fill-rule="evenodd" d="M9.335 20.305c-4.427 0-8.007-1.633-8.007-3.609q0-.264.084-.514a7 7 0 0 0-.383 2.147 8.33 8.33 0 0 0 1.187 4.262 8.5 8.5 0 0 0 3.215 3.087 8.7 8.7 0 0 0 4.32 1.197 8.7 8.7 0 0 0 4.343-1.107 7.23 7.23 0 0 0 2.583-2.572 8.5 8.5 0 0 0 .59-6.867q.05.193.05.392c0 1.992-3.588 3.609-8.007 3.609z" clip-rule="evenodd"/><path fill="url(#d)" fill-rule="evenodd" d="M15.98 18.256c0-1.87-3.323-3.39-7.475-3.39-3.323 0-6.089.956-7.102 2.28.457 1.78 3.82 3.16 7.932 3.16 2.285.089 4.552-.44 6.553-1.528.053-.16.08-.329.083-.498z" clip-rule="evenodd" style="mix-blend-mode:screen"/><path fill="url(#e)" fill-rule="evenodd" d="M13.895 18.631c0-1.633-2.866-2.89-6.404-2.89-2.707 0-4.983.751-5.955 1.82.83 1.577 4.012 2.744 7.774 2.744 1.356.01 2.707-.152 4.02-.481a1.7 1.7 0 0 0 .565-1.193" clip-rule="evenodd" style="mix-blend-mode:screen"/><path fill="url(#f)" fill-rule="evenodd" d="M9.335 20.305c-3.762 0-6.919-1.167-7.774-2.743a1.7 1.7 0 0 1-.166-.384 6 6 0 0 0-.108 1.086 7.26 7.26 0 0 0 1.04 3.731 7.4 7.4 0 0 0 2.822 2.695 7.64 7.64 0 0 0 3.789 1.051 7.64 7.64 0 0 0 3.81-.969 6.4 6.4 0 0 0 2.268-2.254 6.7 6.7 0 0 0 .88-3.74 9.1 9.1 0 0 1-2.558 1.07c-1.313.33-2.664.492-4.02.482z" clip-rule="evenodd" style="mix-blend-mode:screen"/><path fill="url(#g)" fill-rule="evenodd" d="M9.335 20.305c-3.762 0-6.918-1.167-7.774-2.743l.05-.058v-.106.155a4.3 4.3 0 0 0-.067.735 5.96 5.96 0 0 0 .858 3.037 6.1 6.1 0 0 0 2.299 2.198 6.21 6.21 0 0 0 6.188.065 5.2 5.2 0 0 0 1.768-1.837 5.3 5.3 0 0 0 .69-1.936 16 16 0 0 1-4.02.482z" clip-rule="evenodd" style="mix-blend-mode:screen"/><path fill="url(#h)" fill-rule="evenodd" d="m18.006 10.237.681-1.209-.423-.049-.432-.106-.565.98a5.4 5.4 0 0 0-.515 5.194c.988 2.71 1.354 5.503-.174 8.092a7.1 7.1 0 0 1-2.542 2.54 8.6 8.6 0 0 1-4.294 1.09 8.6 8.6 0 0 1-4.269-1.18 8.45 8.45 0 0 1-3.178-3.05 8.26 8.26 0 0 1-1.182-4.21 7.1 7.1 0 0 1 .963-3.438c1.528-2.596 4.153-3.666 7.043-4.189a1.22 1.22 0 0 1 .972.164c.764.563 1.337 1.502 2.566 2.057-.706-.53-1.777-1.755-1.785-2.45a.42.42 0 0 1 .174-.375 5.97 5.97 0 0 0 2.392-2.45l.59-.971c-.117-.107-.216-.213-.316-.319a4 4 0 0 1-.274-.327l-.714 1.193a4.7 4.7 0 0 1-1.53 1.798 4.8 4.8 0 0 1-2.224.847c-3.181.572-5.98 1.805-7.617 4.598-2.358 4.017-.706 9.3 3.705 11.8 4.41 2.498 9.892 1.273 12.25-2.744 1.662-2.793 1.33-5.79.233-8.787a4.59 4.59 0 0 1 .465-4.5" clip-rule="evenodd"/><path fill="url(#i)" fill-rule="evenodd" d="M16.893 10.653a7.3 7.3 0 0 0-.2 3.087q.232 1.723.682 3.405a20 20 0 0 1-1.32-3.495 6.7 6.7 0 0 1 .83-2.988z" clip-rule="evenodd" style="mix-blend-mode:screen"/><path fill="url(#j)" fill-rule="evenodd" d="M16.088 7.501 17.99 8.58c-1.512 2.573-3.588 4.173-4.635 3.577s-.681-3.168.83-5.716l1.903 1.086z" clip-rule="evenodd" opacity="0.5" style="mix-blend-mode:screen"/><path fill="url(#k)" fill-rule="evenodd" d="m15.415 7.044.872.564c-1.03 1.633-2.268 2.719-2.75 2.408-.481-.31-.05-1.853.997-3.486l.88.555z" clip-rule="evenodd" opacity="0.5" style="mix-blend-mode:screen"/><path fill="url(#l)" fill-rule="evenodd" d="M6.287 13.544c-.191-.18-.415-.4-.673-.384-.93.041-2.043 1.176-2.492 1.87A5.7 5.7 0 0 0 2 17.64a5.6 5.6 0 0 0 .292 2.82c.224.49 1.71 1.38 1.744 1.054a5.1 5.1 0 0 1 .581-2.45 8.5 8.5 0 0 1 2.318-2.548c.905-.685.963-.914.623-1.396a18 18 0 0 0-1.271-1.633zm4.012-1.241c.946 1.029.896 1.633.465 2.115-.83.906-2.102.49-2.94-.531-.84-1.02-.989-1.552-.549-2.009.656-.678 2.077-.612 3.024.425" clip-rule="evenodd" style="mix-blend-mode:screen"/><path fill="url(#m)" fill-rule="evenodd" d="M9.7 12.385a1.45 1.45 0 0 0-1.91-.335c-.266.261-.15.588.399 1.216.548.63 1.379.915 1.869.392.257-.277.265-.596-.357-1.274m-4.219 1.388c-.108-.066-.232-.066-.432 0a5.1 5.1 0 0 0-1.528 1.445 5.3 5.3 0 0 0-1.04 2.07 5.2 5.2 0 0 0-.048 2.307c.042.155.158.44.307.49.15.049.142 0 .183-.22a5.2 5.2 0 0 1 .631-1.47 10 10 0 0 1 2.559-2.736c.34-.253.415-.408.373-.547a8.3 8.3 0 0 0-1.005-1.34" clip-rule="evenodd" style="mix-blend-mode:screen"/><path fill="url(#n)" fill-rule="evenodd" d="m15.232 7.044.457.302c-.706 1.176-1.479 1.993-1.728 1.83s.125-1.258.83-2.45l.45.302z" clip-rule="evenodd" opacity="0.5" style="mix-blend-mode:screen"/><path fill="#7F8E99" fill-rule="evenodd" d="M17.99 10.253c-.258.433-1.479-.155-2.741-1.306s-2.077-2.45-1.82-2.875a8.2 8.2 0 0 0 2.368 1.92 8.2 8.2 0 0 0 2.898 1.06l-.714 1.218z" clip-rule="evenodd" opacity="0.5" style="mix-blend-mode:multiply"/><path fill="url(#o)" fill-rule="evenodd" d="M19.983 9.126c-.515.572-2.392.188-4.319-.906s-3.198-2.507-2.957-3.217a6.7 6.7 0 0 1 1.271-1.968l3.555 2.008 3.546 2.026a6.6 6.6 0 0 1-1.096 2.057m-.042-2.172-2.64-1.51-2.659-1.503q-.183.261-.323.547c-.997 1.707 4.368 4.753 5.373 3.046q.17-.278.29-.58z" clip-rule="evenodd"/><path fill="#fff" fill-rule="evenodd" d="M19.742 7.591q.2-.329.34-.686L17.35 5.354l-2.74-1.552q-.243.295-.424.629c-1.072 1.837 4.476 4.981 5.556 3.16" clip-rule="evenodd" opacity="0.15"/><path fill="#8E633F" fill-rule="evenodd" d="M18.978 7.624c-.29.326-1.429.073-2.608-.596-1.18-.67-1.927-1.454-1.844-1.878q.21-.597.498-1.16l4.685 2.654c-.266.384-.523.735-.731.98" clip-rule="evenodd"/><path fill="url(#p)" fill-rule="evenodd" d="M9.426 27.091c-2.608.229-6.279-1.633-7.267-4.123a11.4 11.4 0 0 0 7.267 4.123" clip-rule="evenodd" style="mix-blend-mode:screen"/><path fill="#fff" fill-rule="evenodd" d="M12.167 26.454a8.9 8.9 0 0 0 3.497-2.472 8.7 8.7 0 0 0 1.902-3.8c-.1 3.34-2.193 5.84-5.399 6.272" clip-rule="evenodd"/><path fill="url(#q)" fill-rule="evenodd" d="M13.297 5.754c-.125-.629.83-1.903 1.22-2.41l-.54-.31a6.7 6.7 0 0 0-1.27 1.969c-.224.67.83 1.919 2.542 2.964-.79-.555-1.761-1.437-1.952-2.213" clip-rule="evenodd" style="mix-blend-mode:screen"/><path fill="url(#r)" fill-rule="evenodd" d="M18.189 3.925c1.943 1.118 3.256 2.523 2.89 3.144-.365.62-2.25.22-4.21-.899s-3.256-2.515-2.891-3.135c.365-.621 2.25-.22 4.21.89" clip-rule="evenodd"/><path fill="#fff" fill-rule="evenodd" d="M20.132 7.346a7.25 7.25 0 0 1-3.43-1.11q-.652-.372-1.254-.817a.56.56 0 0 1-.404.208.56.56 0 0 1-.427-.159.9.9 0 0 1-.216-1.037c-.456-.539-.64-1.02-.456-1.331a.15.15 0 0 1 .041-.057c-.24.62 1.096 1.976 3.057 3.086a10.1 10.1 0 0 0 3.09 1.217" clip-rule="evenodd"/><path fill="#8E633F" fill-rule="evenodd" d="M19.958 6.317c-.307.351-1.528.074-2.8-.645-1.27-.718-2.059-1.551-2.009-2.009A26 26 0 0 1 16.909.08l4.752 4c-.574.817-1.097 1.544-1.703 2.246z" clip-rule="evenodd"/><path fill="url(#s)" fill-rule="evenodd" d="M19.983 5.86c-.282.31-1.404.049-2.575-.612-1.17-.662-1.902-1.43-1.827-1.838A21 21 0 0 1 17.093.234l4.327 3.634c-.515.694-.889 1.363-1.437 1.992" clip-rule="evenodd" style="mix-blend-mode:screen"/><path fill="url(#t)" fill-rule="evenodd" d="M19.16 2.226c-.963 1.633-1.885 2.45-2.624 1.878-.74-.571-.29-2.106.673-3.748z" clip-rule="evenodd" style="mix-blend-mode:screen"/><path fill="url(#u)" fill-rule="evenodd" d="M17.192 3.516a.6.6 0 0 1 .4.194.6.6 0 0 1 .157.41.8.8 0 0 1-.11.45.8.8 0 0 1-.339.318c-.257.082-.556-.343-.614-.751-.059-.408.182-.678.506-.62" clip-rule="evenodd"/><path fill="url(#v)" fill-rule="evenodd" d="M20.249 4.562a.75.75 0 0 1-.266.922.734.734 0 0 1-.88-.155c-.167-.188 0-.563.29-.767s.706-.245.83 0z" clip-rule="evenodd"/><path fill="#EDCAA6" fill-rule="evenodd" d="M19.659 1.418C18.305.38 17.1-.281 16.852.152c-.133.22 0 .694.357 1.25a.81.81 0 0 0 .016 1.045.76.76 0 0 0 .988.18q.24.228.5.432c1.42 1.094 2.632 1.503 2.948 1.02.315-.48-.64-1.632-2.002-2.661" clip-rule="evenodd" opacity="0.25" style="mix-blend-mode:screen"/><path fill="#936E4E" fill-rule="evenodd" d="M19.717 1.32c1.329 1.127 2.193 2.319 1.944 2.76s-1.529-.106-2.866-1.184-2.2-2.311-1.943-2.744 1.536.09 2.865 1.168" clip-rule="evenodd"/><path fill="url(#w)" fill-rule="evenodd" d="M19.302 1.1c1.088.89 1.81 1.894 1.595 2.253s-1.28-.09-2.368-.964C17.441 1.516 16.72.487 16.927.128s1.27.081 2.375.971" clip-rule="evenodd" style="mix-blend-mode:screen"/><path fill="url(#x)" fill-rule="evenodd" d="M18.58.748c.415.31.689.662.614.817s-.474 0-.889-.319C17.89.928 17.615.593 17.7.43c.083-.164.473 0 .88.31z" clip-rule="evenodd"/><path fill="url(#y)" fill-rule="evenodd" d="M19.476 2.324c.3.212.482.482.416.596-.067.115-.366 0-.665-.18-.299-.179-.482-.481-.407-.604.075-.122.357 0 .656.188" clip-rule="evenodd"/><path fill="url(#z)" fill-rule="evenodd" d="M20.963 2.863c.332.261.532.58.457.719s-.407 0-.74-.237c-.332-.237-.531-.58-.456-.719s.407 0 .739.237" clip-rule="evenodd"/><path fill="url(#A)" fill-rule="evenodd" d="M18.114 2.447a.57.57 0 0 1-.78-.204.593.593 0 0 1-.059-.817c.2-.155.59 0 .83.294.242.294.208.58 0 .727z" clip-rule="evenodd"/><path fill="url(#B)" fill-rule="evenodd" d="M16.553 21.596a7.3 7.3 0 0 1-1.68 2.533 7.5 7.5 0 0 1-2.573 1.654 7.6 7.6 0 0 1-6.013-.251 15.46 15.46 0 0 0 10.266-3.936" clip-rule="evenodd" style="mix-blend-mode:screen"/><defs><radialGradient id="a" cx="0" cy="0" r="1" gradientTransform="matrix(14.3521 0 0 14.1106 -.897 18.321)" gradientUnits="userSpaceOnUse"><stop stop-color="#fff"/><stop offset="1" stop-color="#5E689E"/></radialGradient><radialGradient id="b" cx="0" cy="0" r="1" gradientTransform="matrix(11.7026 0 0 11.5057 6.411 20.91)" gradientUnits="userSpaceOnUse"><stop stop-color="#95C11F"/><stop offset="1" stop-color="#3D8C00"/></radialGradient><radialGradient id="c" cx="0" cy="0" r="1" gradientTransform="matrix(14.9584 0 0 14.7067 6.528 18.909)" gradientUnits="userSpaceOnUse"><stop stop-color="#79A600"/><stop offset="0.61" stop-color="#007011"/><stop offset="0.89" stop-color="#95C11F"/></radialGradient><radialGradient id="d" cx="0" cy="0" r="1" gradientTransform="matrix(14.0448 0 0 13.8085 7.217 22.388)" gradientUnits="userSpaceOnUse"><stop stop-color="#468A00"/><stop offset="1"/></radialGradient><radialGradient id="e" cx="0" cy="0" r="1" gradientTransform="matrix(12.201 0 0 11.9957 4.277 22.886)" gradientUnits="userSpaceOnUse"><stop stop-color="#64AA19"/><stop offset="1"/></radialGradient><radialGradient id="f" cx="0" cy="0" r="1" gradientTransform="matrix(9.97505 0 0 9.8072 8.098 16.892)" gradientUnits="userSpaceOnUse"><stop stop-color="#95C11F"/><stop offset="1"/></radialGradient><radialGradient id="g" cx="0" cy="0" r="1" gradientTransform="matrix(9.1611 0 0 9.00695 5.706 17.741)" gradientUnits="userSpaceOnUse"><stop stop-color="#95C11F"/><stop offset="1"/></radialGradient><radialGradient id="h" cx="0" cy="0" r="1" gradientTransform="matrix(32.4501 0 0 31.904 8.305 10.147)" gradientUnits="userSpaceOnUse"><stop stop-color="#CCF0EF"/><stop offset="1" stop-color="#5E73E6"/></radialGradient><radialGradient id="j" cx="0" cy="0" r="1" gradientTransform="matrix(9.62621 0 0 9.46423 9.925 5.574)" gradientUnits="userSpaceOnUse"><stop stop-color="#fff"/><stop offset="1"/></radialGradient><radialGradient id="k" cx="0" cy="0" r="1" gradientTransform="matrix(5.1744 0 0 5.08733 12.99 6.832)" gradientUnits="userSpaceOnUse"><stop stop-color="#fff"/><stop offset="1"/></radialGradient><radialGradient id="l" cx="0" cy="0" r="1" gradientTransform="matrix(13.9202 0 0 13.686 10.357 20.518)" gradientUnits="userSpaceOnUse"><stop offset="0.37"/><stop offset="1" stop-color="#fff"/></radialGradient><radialGradient id="m" cx="0" cy="0" r="1" gradientTransform="matrix(14.2441 0 0 14.0045 9.202 18.999)" gradientUnits="userSpaceOnUse"><stop/><stop offset="1" stop-color="#fff"/></radialGradient><radialGradient id="n" cx="0" cy="0" r="1" gradientTransform="matrix(3.72092 0 0 3.65831 13.862 7.256)" gradientUnits="userSpaceOnUse"><stop stop-color="#fff"/><stop offset="1"/></radialGradient><radialGradient id="o" cx="0" cy="0" r="1" gradientTransform="matrix(11.4368 0 0 11.2444 14.402 3.01)" gradientUnits="userSpaceOnUse"><stop stop-color="#CCF0EF"/><stop offset="1" stop-color="#364E82"/></radialGradient><radialGradient id="q" cx="0" cy="0" r="1" gradientTransform="matrix(4.46012 0 0 4.38507 16.179 6.154)" gradientUnits="userSpaceOnUse"><stop/><stop offset="1" stop-color="#fff"/></radialGradient><radialGradient id="r" cx="0" cy="0" r="1" gradientTransform="matrix(13.3305 0 0 13.1062 14.011 2.888)" gradientUnits="userSpaceOnUse"><stop stop-color="#F2FFFF"/><stop offset="1" stop-color="#6A79C2"/></radialGradient><radialGradient id="s" cx="0" cy="0" r="1" gradientTransform="matrix(5.60629 0 0 5.51196 17.068 1.254)" gradientUnits="userSpaceOnUse"><stop stop-color="#CA9E67"/><stop offset="1"/></radialGradient><radialGradient id="t" cx="0" cy="0" r="1" gradientTransform="matrix(4.09467 0 0 4.02577 17.2 .528)" gradientUnits="userSpaceOnUse"><stop stop-color="#CA9E67"/><stop offset="1"/></radialGradient><radialGradient id="w" cx="0" cy="0" r="1" gradientTransform="matrix(6.02988 0 0 5.92842 17.608 -1.383)" gradientUnits="userSpaceOnUse"><stop stop-color="#CA9E67"/><stop offset="1"/></radialGradient><radialGradient id="B" cx="0" cy="0" r="1" gradientTransform="matrix(9.86708 0 0 9.70104 10.398 19.897)" gradientUnits="userSpaceOnUse"><stop stop-color="#95C11F"/><stop offset="1"/></radialGradient><linearGradient id="i" x1="16.2454" x2="17.9406" y1="10.6534" y2="22.2246" gradientUnits="userSpaceOnUse"><stop stop-color="#fff"/><stop offset="1"/></linearGradient><linearGradient id="p" x1="1.79355" x2="9.11898" y1="23.3268" y2="27.7805" gradientUnits="userSpaceOnUse"><stop stop-color="#fff"/><stop offset="1"/></linearGradient><linearGradient id="u" x1="17.6573" x2="16.7593" y1="4.61062" y2="3.68897" gradientUnits="userSpaceOnUse"><stop stop-color="#B07A38"/><stop offset="1" stop-color="#704824"/></linearGradient><linearGradient id="v" x1="20.1158" x2="19.3483" y1="5.37004" y2="4.58942" gradientUnits="userSpaceOnUse"><stop stop-color="#B07A38"/><stop offset="1" stop-color="#704824"/></linearGradient><linearGradient id="x" x1="17.6822" x2="19.2021" y1="0.984962" y2="0.984962" gradientUnits="userSpaceOnUse"><stop stop-color="#6B4E35"/><stop offset="1" stop-color="#87643A"/></linearGradient><linearGradient id="y" x1="18.8035" x2="19.8998" y1="2.52831" y2="2.52831" gradientUnits="userSpaceOnUse"><stop stop-color="#6B4E35"/><stop offset="1" stop-color="#87643A"/></linearGradient><linearGradient id="z" x1="20.1989" x2="21.4281" y1="3.1081" y2="3.1081" gradientUnits="userSpaceOnUse"><stop stop-color="#6B4E35"/><stop offset="1" stop-color="#87643A"/></linearGradient><linearGradient id="A" x1="18.1639" x2="17.2331" y1="2.42217" y2="1.47546" gradientUnits="userSpaceOnUse"><stop stop-color="#B07A38"/><stop offset="1" stop-color="#704824"/></linearGradient></defs></svg>