<svg xmlns="http://www.w3.org/2000/svg" width="46" height="75" fill="none" viewBox="0 0 46 75"><path fill="url(#a)" fill-rule="evenodd" d="M13.017 37.128c-2.966.238-8.961.26-12.013.108a1 1 0 0 1-.714-.476 24 24 0 0 0 2.662 3.571c.72.964 1.548 1.842 2.468 2.62 1.32 0 3.203.107 5.13.107a268 268 0 0 1 2.553-5.93z" clip-rule="evenodd"/><path fill="url(#b)" fill-rule="evenodd" d="M41.045 2.325c-4.177 6.688-9.437 14.588-13.96 21.233 2.38-.109 5.476-.174 8.333-.195 3.42-5.13 6.969-10.519 9.956-15.302a1.25 1.25 0 0 0 0-.996 44.6 44.6 0 0 0-4.459-5.93h.195a.97.97 0 0 1 0 .974z" clip-rule="evenodd"/><path fill="url(#c)" fill-rule="evenodd" d="M41.412 25.116A464 464 0 0 1 7.345 64.594c-1.645 1.688-4.328 4.328-5.021 3.939.238.476 3.68 5.043 4.329 5.692.562.325 3.376-2.164 5.021-3.917A465 465 0 0 0 45.741 30.83a1.17 1.17 0 0 0 .108-1.083c0-.216 0-.13-.108-.194-.498-.78-3.42-4.675-4.329-5.628a1 1 0 0 1-.108 1.082z" clip-rule="evenodd"/><path fill="url(#d)" fill-rule="evenodd" d="M40.872 2.607a7.34 7.34 0 0 1 2.446 3.463c.584 4.437-3.68 10.28-6.017 13.548a7.92 7.92 0 0 1-4.827 3.788h2.944c3.42-5.13 6.97-10.519 9.956-15.302a1.25 1.25 0 0 0 0-.996 44 44 0 0 0-4.459-5.973h.195a.97.97 0 0 1 0 .974l-.173.281z" clip-rule="evenodd" opacity="0.5" style="mix-blend-mode:multiply"/><path fill="url(#e)" fill-rule="evenodd" d="M45.742 29.553c-.411-.671-2.619-3.615-3.787-5.043 2.337 4.891 2.337 6.644-.845 10.93-3.939 5.303-7.986 10.519-12.228 15.562-3.896 4.631-7.943 9.112-12.186 13.397a45 45 0 0 1-6.211 5.238 6.36 6.36 0 0 1-6.905.757c1.126 1.515 2.576 3.398 2.965 3.81.563.324 3.377-2.165 5.022-3.918A465 465 0 0 0 45.742 30.83a1.17 1.17 0 0 0 .108-1.082c0-.217 0-.13-.108-.195" clip-rule="evenodd" opacity="0.5" style="mix-blend-mode:multiply"/><path fill="url(#f)" fill-rule="evenodd" d="M9.683 72.234c-.498.26-1.104.433-1.407.195a30 30 0 0 1-3.008-3.766 1 1 0 0 1 0-.152 2.17 2.17 0 0 1 0-1.883c-1.299 1.147-2.554 2.165-2.922 1.905.238.476 3.68 5.043 4.329 5.692.367.217 1.688-.8 3.03-2.013zm30.583-45.3a1.3 1.3 0 0 1 1.212-.108l.13.108a33 33 0 0 1 2.965 3.809 2.04 2.04 0 0 1 0 1.71l1.233-1.623a1.17 1.17 0 0 0 .108-1.083c0-.216 0-.13-.108-.194-.498-.78-3.42-4.675-4.328-5.628a1 1 0 0 1-.109 1.082l-1.407 1.819-.108.13.282-.13z" clip-rule="evenodd" style="mix-blend-mode:screen"/><path fill="url(#g)" fill-rule="evenodd" d="M18.45.853a85.6 85.6 0 0 1 21.88 0 1.02 1.02 0 0 1 .78.606.98.98 0 0 1 0 .974c-4.177 6.688-9.437 14.588-13.96 21.233 4.047-.195 10.216-.26 13.614-.13a1.02 1.02 0 0 1 .909.606 1 1 0 0 1-.108 1.082 464 464 0 0 1-34.22 39.37c-1.644 1.688-4.328 4.328-5.02 3.939-.693-.39.28-3.377.649-4.87a225 225 0 0 1 10.043-26.535c-2.966.238-8.96.26-12.013.108a1.083 1.083 0 0 1-.93-1.472A191.5 191.5 0 0 1 17.172 1.676 2.03 2.03 0 0 1 18.45.853" clip-rule="evenodd"/><path fill="url(#h)" fill-rule="evenodd" d="M39.4 17.367c-2.943 2.641-8.657 4.33-9.87 2.598-.822 1.233-1.644 2.424-2.445 3.593 2.38-.109 5.476-.174 8.333-.195 1.32-1.97 2.662-3.983 3.982-5.996" clip-rule="evenodd" style="mix-blend-mode:multiply"/><path fill="url(#i)" fill-rule="evenodd" d="M8.774 37.301c1.602 1.234-.866 5.173-4.112 5.108.303.303.563.541.67.541 1.321 0 3.204.108 5.13.108a272 272 0 0 1 2.554-5.93c-1.104 0-2.619.13-4.328.173z" clip-rule="evenodd" style="mix-blend-mode:multiply"/><path fill="url(#j)" fill-rule="evenodd" d="M18.817 5.745a63 63 0 0 1 15.627-.282 3.7 3.7 0 0 1 1.883.736c1.038.866.346 2.77-.563 4.329a676 676 0 0 0 5.281-8.246.98.98 0 0 0 0-.974 1.02 1.02 0 0 0-.78-.606 85.6 85.6 0 0 0-21.88 0 2.03 2.03 0 0 0-1.278.822 137 137 0 0 0-8.657 15.15c2.164-3.787 6.969-10.583 10.324-11.124z" clip-rule="evenodd" style="mix-blend-mode:screen"/><path fill="url(#k)" fill-rule="evenodd" d="M40.7 23.428h-4.005c2.554.822 2.554 2.683.498 5.345-5.497 7.165-20.15 24.999-27.336 30.302-3.636 2.662-4.826.973-4.956-1.407-.91 2.575-1.58 4.718-1.927 6.125-.346 1.407-1.168 4.329-.735 4.805.367.195 1.623-.758 2.921-1.905.736-.67 1.494-1.407 2.165-2.034a464 464 0 0 0 32.66-37.552l1.515-1.948a1 1 0 0 0 .108-1.082 1.04 1.04 0 0 0-.865-.498z" clip-rule="evenodd" style="mix-blend-mode:screen"/><path fill="url(#l)" fill-rule="evenodd" d="M19.574 1.46a2.96 2.96 0 0 0-1.558.714C14.466 5.83 5.874 22.648 4.62 27.107c0 .303-.195.822 0 1.017.194.195.865-.433 1.06-.736 3.16-5 5.996-10.194 9.112-15.15 1.558-2.51 3.42-5.39 5.216-7.749a9.15 9.15 0 0 1 4.957-2.359C27.323 1.48 26.37.897 24.66.961c-1.73.058-3.453.253-5.152.585z" clip-rule="evenodd" style="mix-blend-mode:screen"/><path fill="url(#m)" fill-rule="evenodd" d="M39.53 23.73c-3.875 0-7.749 0-11.601.152-1.883 0-.433 2.013.887 2.164a33.5 33.5 0 0 0 10.605-1.428c.325 0 .801-.238.845-.563s-.477-.26-.736-.26z" clip-rule="evenodd" style="mix-blend-mode:screen"/><path fill="url(#n)" fill-rule="evenodd" d="M6.437 65.503c-.26 4.328 9.458-3.55 11.666-5.584 7.467-6.84 16.384-16.341 21.449-25.215 1.753-3.074 1.97-7.013-.606-6.32A462 462 0 0 1 7.584 64.356l-.238.238z" clip-rule="evenodd" opacity="0.5" style="mix-blend-mode:screen"/><path fill="url(#o)" fill-rule="evenodd" d="M19.943 9.056a9.7 9.7 0 0 0-2.663 2.727c-3.57 6.082-6.623 12.445-9.89 18.722-.672 1.299-1.43 3.787.995 4.004 2.857.26 5.714 0 8.657 0a152 152 0 0 0-8.506 19.825c-.627 2.165 1.104 2.165 2.446.91 6.233-5.801 17.142-17.748 21.644-25.345 1.147-1.991-.801-2.944-2.446-3.009-2.38 0-4.783 0-7.164.109 2.77-4.524 5.692-8.96 8.333-13.55a5.65 5.65 0 0 0 .714-2.164 3.25 3.25 0 0 0-1.104-2.835c-1.233-1.125-4.61-1.169-7.402-.628a9 9 0 0 0-3.441 1.256z" clip-rule="evenodd" style="mix-blend-mode:screen"/><defs><radialGradient id="a" cx="0" cy="0" r="1" gradientTransform="translate(-3.52 33.362)scale(19.0897)" gradientUnits="userSpaceOnUse"><stop stop-color="#00BDFC"/><stop offset="1" stop-color="#0061BD"/></radialGradient><radialGradient id="b" cx="0" cy="0" r="1" gradientTransform="translate(34.076 6.07)scale(46.7502)" gradientUnits="userSpaceOnUse"><stop stop-color="#00BDFC"/><stop offset="1" stop-color="#0061BD"/></radialGradient><radialGradient id="c" cx="0" cy="0" r="1" gradientTransform="translate(41.824 60.871)scale(87.8731)" gradientUnits="userSpaceOnUse"><stop stop-color="#0061BD"/><stop offset="1" stop-color="#00BDFC"/></radialGradient><radialGradient id="d" cx="0" cy="0" r="1" gradientTransform="translate(30.656 2.477)scale(22.9855)" gradientUnits="userSpaceOnUse"><stop stop-color="#fff"/><stop offset="0.11" stop-color="#F9FAFB"/><stop offset="0.26" stop-color="#E9ECF1"/><stop offset="0.42" stop-color="#CFD5DF"/><stop offset="0.6" stop-color="#AAB6C6"/><stop offset="0.79" stop-color="#7A8DA6"/><stop offset="0.98" stop-color="#415B80"/><stop offset="1" stop-color="#3C577D"/></radialGradient><radialGradient id="e" cx="0" cy="0" r="1" gradientTransform="matrix(48.9362 0 0 48.9363 5.16 29.38)" gradientUnits="userSpaceOnUse"><stop stop-color="#fff"/><stop offset="0.11" stop-color="#F9FAFB"/><stop offset="0.26" stop-color="#E9ECF1"/><stop offset="0.42" stop-color="#CFD5DF"/><stop offset="0.6" stop-color="#AAB6C6"/><stop offset="0.79" stop-color="#7A8DA6"/><stop offset="0.98" stop-color="#415B80"/><stop offset="1" stop-color="#3C577D"/></radialGradient><radialGradient id="f" cx="0" cy="0" r="1" gradientTransform="translate(26.392 50.417)scale(31.5348)" gradientUnits="userSpaceOnUse"><stop offset="0.58"/><stop offset="0.74" stop-color="#000202"/><stop offset="0.79" stop-color="#000909"/><stop offset="0.83" stop-color="#001414"/><stop offset="0.87" stop-color="#002525"/><stop offset="0.89" stop-color="#003B3B"/><stop offset="0.92" stop-color="#005757"/><stop offset="0.94" stop-color="#077"/><stop offset="0.96" stop-color="#009D9D"/><stop offset="0.98" stop-color="#00C8C8"/><stop offset="1" stop-color="#0FF"/></radialGradient><radialGradient id="g" cx="0" cy="0" r="1" gradientTransform="translate(15.7 .875)scale(67.961)" gradientUnits="userSpaceOnUse"><stop stop-color="#00F9FC"/><stop offset="1" stop-color="#0081FC"/></radialGradient><radialGradient id="h" cx="0" cy="0" r="1" gradientTransform="translate(25.548 13.082)scale(17.9209)" gradientUnits="userSpaceOnUse"><stop stop-color="#fff"/><stop offset="0.11" stop-color="#F9FAFB"/><stop offset="0.26" stop-color="#E9ECF1"/><stop offset="0.42" stop-color="#CFD5DF"/><stop offset="0.6" stop-color="#AAB6C6"/><stop offset="0.79" stop-color="#7A8DA6"/><stop offset="0.98" stop-color="#415B80"/><stop offset="1" stop-color="#3C577D"/></radialGradient><radialGradient id="i" cx="0" cy="0" r="1" gradientTransform="translate(4.748 37.41)scale(17.2067)" gradientUnits="userSpaceOnUse"><stop stop-color="#fff"/><stop offset="0.11" stop-color="#F9FAFB"/><stop offset="0.26" stop-color="#E9ECF1"/><stop offset="0.42" stop-color="#CFD5DF"/><stop offset="0.6" stop-color="#AAB6C6"/><stop offset="0.79" stop-color="#7A8DA6"/><stop offset="0.98" stop-color="#415B80"/><stop offset="1" stop-color="#3C577D"/></radialGradient><radialGradient id="j" cx="0" cy="0" r="1" gradientTransform="translate(34.076 15.83)scale(36.0583)" gradientUnits="userSpaceOnUse"><stop/><stop offset="0.08" stop-color="#002323"/><stop offset="0.22" stop-color="#005C5C"/><stop offset="0.36" stop-color="#008E8E"/><stop offset="0.5" stop-color="#00B7B7"/><stop offset="0.64" stop-color="#00D6D6"/><stop offset="0.77" stop-color="#00EDED"/><stop offset="0.89" stop-color="#00FAFA"/><stop offset="1" stop-color="#0FF"/></radialGradient><radialGradient id="k" cx="0" cy="0" r="1" gradientTransform="translate(52.56 90.263)scale(72.5062)" gradientUnits="userSpaceOnUse"><stop stop-color="#0FF"/><stop offset="0.11" stop-color="#00FAFA"/><stop offset="0.23" stop-color="#00EDED"/><stop offset="0.36" stop-color="#00D6D6"/><stop offset="0.5" stop-color="#00B7B7"/><stop offset="0.64" stop-color="#008E8E"/><stop offset="0.78" stop-color="#005C5C"/><stop offset="0.92" stop-color="#002323"/><stop offset="1"/></radialGradient><radialGradient id="n" cx="0" cy="0" r="1" gradientTransform="matrix(53.0052 0 0 53.0053 .961 15.852)" gradientUnits="userSpaceOnUse"><stop stop-color="#0FF"/><stop offset="0.11" stop-color="#00FAFA"/><stop offset="0.23" stop-color="#00EDED"/><stop offset="0.36" stop-color="#00D6D6"/><stop offset="0.5" stop-color="#00B7B7"/><stop offset="0.64" stop-color="#008E8E"/><stop offset="0.78" stop-color="#005C5C"/><stop offset="0.92" stop-color="#002323"/><stop offset="1"/></radialGradient><radialGradient id="o" cx="0" cy="0" r="1" gradientTransform="translate(-10.034 8.926)scale(50.105)" gradientUnits="userSpaceOnUse"><stop stop-color="#0FF"/><stop offset="0.11" stop-color="#00FAFA"/><stop offset="0.23" stop-color="#00EDED"/><stop offset="0.36" stop-color="#00D6D6"/><stop offset="0.5" stop-color="#00B7B7"/><stop offset="0.64" stop-color="#008E8E"/><stop offset="0.78" stop-color="#005C5C"/><stop offset="0.92" stop-color="#002323"/><stop offset="1"/></radialGradient><linearGradient id="l" x1="23.4919" x2="3.16856" y1="-1.78725" y2="36.9981" gradientUnits="userSpaceOnUse"><stop stop-color="#A1E1FF"/><stop offset="1"/></linearGradient><linearGradient id="m" x1="27.0196" x2="40.2655" y1="24.8559" y2="24.8559" gradientUnits="userSpaceOnUse"><stop stop-color="#A1E1FF"/><stop offset="1"/></linearGradient></defs></svg>