<svg xmlns="http://www.w3.org/2000/svg" width="72" height="86" fill="none"><path fill="#E2791D" d="M57.474 0H14.526L0 14.382V37.93C0 52.604 7.602 66.4 20.578 75.372L35.976 86l15.397-10.628c12.977-8.97 20.579-22.768 20.579-37.442V14.382z"/><path fill="#C26616" d="M36.024 0v86l15.398-10.628C64.398 66.402 72 52.604 72 37.93V14.382L57.474 0z"/><path fill="#FEB678" d="M60.621 37.93V19.16l-7.796-7.703H19.222l-7.795 7.703v18.77c0 10.92 5.713 21.158 15.64 27.984l8.957 6.191 8.958-6.191c9.974-6.874 15.64-17.064 15.64-27.984Z"/><path fill="#FFA75B" d="M36.024 11.457v60.648l8.958-6.191c9.926-6.874 15.64-17.064 15.64-27.984V19.16l-7.796-7.703z"/><path fill="#FCD3B0" d="M19.223 11.457h16.802V0h-21.45L.049 14.333l11.378 4.827z"/><path fill="#E2791D" d="M52.826 11.457H36.024V0h21.45L72 14.333 60.622 19.16z"/><path fill="#D2894A" d="M52.826 11.457h-3.1l7.651 7.703v18.77c0 10.92-5.713 21.158-15.64 27.984l-5.761 3.949v2.242l8.957-6.191c9.926-6.874 15.64-17.064 15.64-27.984V19.16z"/><path fill="#000" d="M27.632 26.232q.128-3.424 2.24-5.28t5.728-1.856q2.4 0 4.096.832 1.728.832 2.592 2.272.896 1.44.896 3.232 0 2.112-1.056 3.456-1.057 1.312-2.464 1.792v.128q1.824.608 2.88 2.016T43.6 36.44q0 1.984-.928 3.52-.897 1.504-2.656 2.368-1.728.864-4.128.864-3.84 0-6.144-1.888-2.273-1.888-2.4-5.696h5.312q.032 1.408.8 2.24.768.8 2.24.8 1.248 0 1.92-.704.704-.735.704-1.92 0-1.536-.992-2.208-.96-.704-3.104-.704H33.2v-4.448h1.024q1.632 0 2.624-.544 1.023-.576 1.024-2.016 0-1.152-.64-1.792t-1.76-.64q-1.216 0-1.824.736-.576.736-.672 1.824z"/><path fill="#0A0001" d="M36.419 62.212a2 2 0 0 1-2.838 0l-5.462-5.498a2 2 0 0 1 0-2.82l.953-.958a2 2 0 0 1 2.84.002l1.668 1.684a2 2 0 0 0 2.84.002l10.334-10.415a2 2 0 0 1 2.839 0l.954.96a2 2 0 0 1 0 2.818z"/></svg>