<svg xmlns="http://www.w3.org/2000/svg" width="128" height="24" fill="none"><path fill="#FFD400" fill-rule="evenodd" d="M18.981 23.92a.66.66 0 0 0 .626-.118.74.74 0 0 0 .306-.573c.143-2.096-.993-6.169-.68-7.105s3.545-3.549 4.627-5.33a.77.77 0 0 0 .082-.65.76.76 0 0 0-.436-.475c-1.898-.79-6.015-.936-6.805-1.523-.626-.468-3.6-7.182-4.763-7.866-.197-.12-.429.097-.572.279-1.313 1.607-2.041 6.986-2.837 7.587-.797.6-6.002-.384-7.894.398a.7.7 0 0 0-.277.185.7.7 0 0 0-.159.297c-.183.58 3.96 4.89 4.403 5.373a6.7 6.7 0 0 1 1.402 1.725c.3.936-.83 5.01-.68 7.105a.77.77 0 0 0 .312.573.67.67 0 0 0 .62.119c1.987-.503 5.41-2.872 6.37-2.872.959 0 4.388 2.369 6.369 2.872h-.014Z" clip-rule="evenodd"/><path fill="url(#a)" fill-rule="evenodd" d="M17.73 22.223a.72.72 0 0 0 .626-.126.71.71 0 0 0 .306-.573c.143-2.096-.987-6.161-.68-7.105.306-.943 3.538-3.549 4.627-5.33a.79.79 0 0 0-.092-.936.8.8 0 0 0-.269-.189c-1.892-.782-6.015-.936-6.805-1.516-.789-.58-2.19-4.534-3.504-6.169a.725.725 0 0 0-.892-.207.74.74 0 0 0-.258.207C9.475 1.886 8.067 5.87 7.277 6.45c-.789.58-4.9.733-6.805 1.515a.76.76 0 0 0-.434.477.8.8 0 0 0 .074.648c1.088 1.781 4.334 4.387 4.634 5.33s-.837 5.01-.68 7.105a.78.78 0 0 0 .305.575.74.74 0 0 0 .627.124c2.007-.51 5.41-2.843 6.37-2.843.959 0 4.382 2.368 6.362 2.878z" clip-rule="evenodd"/><path fill="url(#b)" fill-rule="evenodd" d="M21.827 8.991c-2.287 1.69-3.58 2.697-5.58 4.052a.9.9 0 0 0-.348.377.9.9 0 0 0-.088.51c.592 1.957 2.266 5.093 2.382 7.042.075 1.153-.885.804-1.443.552-1.94-.852-3.246-2.096-5.104-3.039a1.58 1.58 0 0 0-1.83.154c-1.123.755-3.117 2.592-4.764 3.123-.47.154-.762.119-.946-.105a.7.7 0 0 0 .286.44.73.73 0 0 0 .626.126c1.987-.51 5.39-2.843 6.35-2.843.959 0 4.382 2.368 6.362 2.878a.72.72 0 0 0 .626-.126.71.71 0 0 0 .306-.573c.143-2.096-.986-6.162-.68-7.105s3.538-3.549 4.627-5.33a.788.788 0 0 0-.36-1.125c-1.892-.782-6.016-.936-6.805-1.516-.79-.58-2.192-4.569-3.505-6.204a.725.725 0 0 0-.892-.207.74.74 0 0 0-.258.207 8 8 0 0 0-.62.937c.572-.615 1.164-1 1.695-.14a21.5 21.5 0 0 1 1.946 4.89c.334 1 .531 1.397 2.45 1.544 2.191.16 4.008.315 5.315.538.721.126.735.643.252 1z" clip-rule="evenodd" style="mix-blend-mode:multiply"/><path fill="url(#c)" fill-rule="evenodd" d="M10.102 1.642c-.626 1.18-1.164 2.48-1.75 3.681-.496 1.027-.68 1.635-1.911 1.852-1.532.272-3.09.314-4.621.573-1.654.272-2.042.656-.844 2.019.68.81 3.981 3.849 4.192 4.59.21.74-.163 1.858-.197 2.612 0 .364.122.895.68.238C10.177 12.1 11.32 11.15 17.893 8.9c.68-.244 1.423-.419 2.137-.642.204-.063.47-.266-.116-.35-2.041-.286-3.688-.056-5.444-.223-.789-.07-1.293-1.048-1.538-1.726-.517-1.432-.782-2.955-1.279-4.394-.38-1.139-1.096-.699-1.51.07z" clip-rule="evenodd" style="mix-blend-mode:screen"/><path fill="url(#d)" fill-rule="evenodd" d="M4.861 8.293c-.422-.084-.32-.538.068-.63.633-.153 1.286-.18 1.913-.335a1.76 1.76 0 0 0 .86-.389 1.83 1.83 0 0 0 .548-.784c.68-1.397 1.361-3.256 2.042-4.52.258-.454.55-.384.483.126A36 36 0 0 1 9.74 6.525c-.224.817-.476 1.684-1.565 1.816-1.112.117-2.233.1-3.34-.048zM3.31 7.776a9.5 9.5 0 0 0-2.09.377c-.68.237-.523.384.075.419q.96.063 1.92 0c.898-.063.775-.824.095-.775z" clip-rule="evenodd" style="mix-blend-mode:screen"/><path fill="url(#e)" fill-rule="evenodd" d="M16.213 20.323c-.3.125-1.014.286-.143.782q.557.306 1.164.482c.87.252.878-.391.748-1.04a22 22 0 0 0-1.36-3.969c-.239-.552-.538-.852-.436.042.102 1.006.279 2.005.38 3.011.042.461 0 .524-.373.699z" clip-rule="evenodd" style="mix-blend-mode:screen"/><path fill="#848484" fill-rule="evenodd" d="M4.195 21.916a9.5 9.5 0 0 0 1.43 1.886.67.67 0 0 0 .619.119c1.987-.503 5.41-2.872 6.37-2.872.959 0 4.388 2.369 6.369 2.872a.66.66 0 0 0 .626-.12.74.74 0 0 0 .306-.572c.143-2.096-.994-6.169-.68-7.105.312-.936 3.545-3.549 4.627-5.33a.77.77 0 0 0 .081-.65 9.5 9.5 0 0 0-1.415-1.991q.091.137.163.286a.72.72 0 0 1-.075.65c-1.088 1.781-4.334 4.387-4.627 5.33s.83 5.01.68 7.105a.71.71 0 0 1-.306.573.72.72 0 0 1-.626.126c-1.987-.51-5.41-2.843-6.37-2.843-.959 0-4.361 2.333-6.369 2.843a.72.72 0 0 1-.626-.126z" clip-rule="evenodd"/><path fill="url(#f)" fill-rule="evenodd" d="m17.975 14.42 1.279 1.697c.306-.943 3.545-3.549 4.627-5.323a.77.77 0 0 0 .007-.81 10.3 10.3 0 0 0-1.36-1.831q.09.137.163.286a.72.72 0 0 1-.075.65 3 3 0 0 1-.164.244c-1.211 1.768-4.185 4.192-4.464 5.086z" clip-rule="evenodd"/><path fill="url(#g)" fill-rule="evenodd" d="m19.254 16.117-1.28-1.698c-.299.943.83 5.01.681 7.105a.71.71 0 0 1-.306.573H18.3l1.252 1.698h.048a.74.74 0 0 0 .306-.573c.143-2.096-.993-6.169-.68-7.105h.027Z" clip-rule="evenodd"/><path fill="url(#h)" fill-rule="evenodd" d="M17.73 22.223c-1.98-.51-5.403-2.843-6.363-2.843l1.252 1.705c.967 0 4.383 2.368 6.363 2.87a.7.7 0 0 0 .578-.09l-1.252-1.697a.74.74 0 0 1-.578.09z" clip-rule="evenodd"/><path fill="url(#i)" fill-rule="evenodd" d="M6.244 23.921c1.987-.503 5.41-2.871 6.37-2.871l-1.246-1.67c-.912 0-4.029 2.096-6.036 2.794l-.334.098a.72.72 0 0 1-.626-.125l-.177-.182c.39.649.846 1.253 1.361 1.802l.096.084a.67.67 0 0 0 .619.119z" clip-rule="evenodd"/><path fill="url(#j)" fill-rule="evenodd" d="M13.503 21.008a1.48 1.48 0 0 0-1.735-.084c-1.62.747-3.688 2.214-5.22 2.613-.68.174-.993.118-1.36-.161q.177.236.401.426a.67.67 0 0 0 .62.119c1.986-.503 5.41-2.872 6.369-2.872.96 0 4.389 2.369 6.37 2.872a.6.6 0 0 0 .271 0 5.4 5.4 0 0 1-1.504-.601c-1.36-.699-2.966-1.698-4.246-2.333l.034.02Z" clip-rule="evenodd" style="mix-blend-mode:multiply"/><path fill="url(#k)" fill-rule="evenodd" d="M19.703 14.803c-.952.93-1.013 1.174-.802 2.523.285 1.809.72 3.758.87 5.588.036.27.017.543-.054.804a.76.76 0 0 0 .198-.468c.142-2.096-.994-6.169-.681-7.105s3.545-3.55 4.627-5.33a.77.77 0 0 0 .082-.65 5.5 5.5 0 0 0-.646-1.041c.394.86.306 1.823-.851 3.053-.871.929-1.824 1.76-2.722 2.648l-.02-.021Z" clip-rule="evenodd" style="mix-blend-mode:multiply"/><path fill="url(#l)" fill-rule="evenodd" d="M22.528 9.508c.646-.126 1.034.873.993 1.432a2.4 2.4 0 0 1-.224.63q.3-.37.551-.776a.77.77 0 0 0 .007-.81 10.3 10.3 0 0 0-1.361-1.831q.09.137.163.286a.72.72 0 0 1-.075.65 3 3 0 0 1-.163.244c-.068.105-.143.203-.218.308a.9.9 0 0 1 .306-.133h.02Z" clip-rule="evenodd" style="mix-blend-mode:screen"/><path fill="url(#m)" fill-rule="evenodd" d="M5.392 22.537a1 1 0 0 1-.081-.133.47.47 0 0 1 0-.265l-.28.084a.72.72 0 0 1-.626-.126l-.176-.182c.39.65.845 1.254 1.36 1.803l.096.084a.67.67 0 0 0 .619.118q.3-.073.592-.181a.9.9 0 0 1-.646-.28 9 9 0 0 1-.797-.922z" clip-rule="evenodd" style="mix-blend-mode:screen"/><path fill="url(#n)" fill-rule="evenodd" d="M17.845 22.412q.37.435.68.915c.137.202.28.454.17.517q.135.046.273.076a.66.66 0 0 0 .626-.118.8.8 0 0 0 .272-.384.35.35 0 0 1-.279-.147c-.231-.28-.449-.58-.68-.88a1.05 1.05 0 0 1-.286-.776.75.75 0 0 1-.3.482.73.73 0 0 1-.625.126l-.157-.049q.172.098.306.245z" clip-rule="evenodd" style="mix-blend-mode:screen"/><path fill="#FFD400" fill-rule="evenodd" d="M44.981 23.92a.66.66 0 0 0 .626-.118.74.74 0 0 0 .306-.573c.143-2.096-.993-6.169-.68-7.105s3.545-3.549 4.627-5.33a.77.77 0 0 0 .082-.65.76.76 0 0 0-.436-.475c-1.898-.79-6.015-.936-6.805-1.523-.626-.468-3.6-7.182-4.763-7.866-.197-.12-.429.097-.572.279-1.313 1.607-2.041 6.986-2.837 7.587-.797.6-6.002-.384-7.894.398a.7.7 0 0 0-.277.185.7.7 0 0 0-.159.297c-.183.58 3.96 4.89 4.403 5.373a6.7 6.7 0 0 1 1.402 1.725c.3.936-.83 5.01-.68 7.105a.77.77 0 0 0 .313.573.67.67 0 0 0 .619.119c1.987-.503 5.41-2.872 6.37-2.872.959 0 4.388 2.369 6.369 2.872h-.014Z" clip-rule="evenodd"/><path fill="url(#o)" fill-rule="evenodd" d="M43.73 22.223a.72.72 0 0 0 .626-.126.71.71 0 0 0 .306-.573c.143-2.096-.987-6.161-.68-7.105.306-.943 3.538-3.549 4.627-5.33a.79.79 0 0 0-.092-.936.8.8 0 0 0-.269-.189c-1.892-.782-6.015-.936-6.805-1.516-.789-.58-2.19-4.534-3.504-6.169a.725.725 0 0 0-.892-.207.74.74 0 0 0-.258.207c-1.314 1.607-2.722 5.59-3.512 6.17-.789.58-4.9.733-6.805 1.515a.76.76 0 0 0-.434.477.8.8 0 0 0 .074.648c1.089 1.781 4.335 4.387 4.634 5.33s-.837 5.01-.68 7.105a.78.78 0 0 0 .305.575.74.74 0 0 0 .627.124c2.007-.51 5.41-2.843 6.37-2.843.959 0 4.382 2.368 6.362 2.878z" clip-rule="evenodd"/><path fill="url(#p)" fill-rule="evenodd" d="M47.827 8.991c-2.287 1.69-3.58 2.697-5.58 4.052a.9.9 0 0 0-.348.377.9.9 0 0 0-.088.51c.592 1.957 2.266 5.093 2.382 7.042.075 1.153-.885.804-1.443.552-1.94-.852-3.246-2.096-5.104-3.039a1.58 1.58 0 0 0-1.83.154c-1.123.755-3.117 2.592-4.764 3.123-.47.154-.762.119-.946-.105a.7.7 0 0 0 .286.44.73.73 0 0 0 .626.126c1.987-.51 5.39-2.843 6.35-2.843.959 0 4.382 2.368 6.362 2.878a.72.72 0 0 0 .626-.126.71.71 0 0 0 .306-.573c.143-2.096-.986-6.162-.68-7.105s3.538-3.549 4.627-5.33a.788.788 0 0 0-.36-1.125c-1.892-.782-6.016-.936-6.805-1.516-.79-.58-2.192-4.569-3.505-6.204a.725.725 0 0 0-.892-.207.74.74 0 0 0-.258.207 8 8 0 0 0-.62.937c.572-.615 1.164-1 1.695-.14a21.5 21.5 0 0 1 1.946 4.89c.334 1 .531 1.397 2.45 1.544 2.191.16 4.008.315 5.315.538.721.126.735.643.252 1z" clip-rule="evenodd" style="mix-blend-mode:multiply"/><path fill="url(#q)" fill-rule="evenodd" d="M36.102 1.642c-.626 1.18-1.164 2.48-1.75 3.681-.496 1.027-.68 1.635-1.911 1.852-1.532.272-3.09.314-4.621.573-1.654.272-2.042.656-.844 2.019.68.81 3.981 3.849 4.192 4.59.21.74-.163 1.858-.197 2.612 0 .364.122.895.68.238C36.176 12.1 37.32 11.15 43.893 8.9c.68-.244 1.423-.419 2.137-.642.204-.063.47-.266-.116-.35-2.041-.286-3.688-.056-5.444-.223-.789-.07-1.292-1.048-1.538-1.726-.517-1.432-.782-2.955-1.279-4.394-.38-1.139-1.096-.699-1.51.07z" clip-rule="evenodd" style="mix-blend-mode:screen"/><path fill="url(#r)" fill-rule="evenodd" d="M30.861 8.293c-.422-.084-.32-.538.068-.63.633-.153 1.287-.18 1.913-.335a1.76 1.76 0 0 0 .86-.389 1.83 1.83 0 0 0 .548-.784c.68-1.397 1.361-3.256 2.042-4.52.258-.454.55-.384.483.126a36 36 0 0 1-1.035 4.764c-.224.817-.476 1.684-1.565 1.816-1.111.117-2.233.1-3.34-.048zm-1.551-.517a9.5 9.5 0 0 0-2.09.377c-.68.237-.523.384.076.419q.96.063 1.919 0c.898-.063.775-.824.095-.775z" clip-rule="evenodd" style="mix-blend-mode:screen"/><path fill="url(#s)" fill-rule="evenodd" d="M42.213 20.323c-.3.125-1.014.286-.143.782q.556.306 1.164.482c.87.252.878-.391.748-1.04a22 22 0 0 0-1.36-3.969c-.239-.552-.538-.852-.436.042.102 1.006.279 2.005.38 3.011.042.461 0 .524-.373.699z" clip-rule="evenodd" style="mix-blend-mode:screen"/><path fill="#848484" fill-rule="evenodd" d="M30.195 21.916a9.5 9.5 0 0 0 1.43 1.886.67.67 0 0 0 .619.119c1.987-.503 5.41-2.872 6.37-2.872.959 0 4.388 2.369 6.369 2.872a.66.66 0 0 0 .626-.12.74.74 0 0 0 .306-.572c.143-2.096-.994-6.169-.68-7.105.312-.936 3.545-3.549 4.627-5.33a.77.77 0 0 0 .081-.65 9.5 9.5 0 0 0-1.415-1.991q.091.137.163.286a.72.72 0 0 1-.075.65c-1.088 1.781-4.334 4.387-4.627 5.33s.83 5.01.68 7.105a.71.71 0 0 1-.306.573.72.72 0 0 1-.626.126c-1.987-.51-5.41-2.843-6.37-2.843-.959 0-4.361 2.333-6.369 2.843a.72.72 0 0 1-.626-.126z" clip-rule="evenodd"/><path fill="url(#t)" fill-rule="evenodd" d="m43.975 14.42 1.279 1.697c.306-.943 3.545-3.549 4.627-5.323a.77.77 0 0 0 .007-.81 10.3 10.3 0 0 0-1.36-1.831q.09.137.163.286a.72.72 0 0 1-.075.65 3 3 0 0 1-.164.244c-1.211 1.768-4.185 4.192-4.464 5.086z" clip-rule="evenodd"/><path fill="url(#u)" fill-rule="evenodd" d="m45.254 16.117-1.28-1.698c-.299.943.83 5.01.681 7.105a.71.71 0 0 1-.306.573H44.3l1.252 1.698h.048a.74.74 0 0 0 .306-.573c.143-2.096-.993-6.169-.68-7.105z" clip-rule="evenodd"/><path fill="url(#v)" fill-rule="evenodd" d="M43.73 22.223c-1.98-.51-5.403-2.843-6.363-2.843l1.252 1.705c.967 0 4.383 2.368 6.363 2.87a.7.7 0 0 0 .578-.09l-1.252-1.697a.74.74 0 0 1-.578.09z" clip-rule="evenodd"/><path fill="url(#w)" fill-rule="evenodd" d="M32.244 23.921c1.987-.503 5.41-2.871 6.37-2.871l-1.246-1.67c-.912 0-4.029 2.096-6.036 2.794l-.334.098a.72.72 0 0 1-.626-.125l-.177-.182c.39.649.846 1.253 1.361 1.802l.096.084a.67.67 0 0 0 .619.119z" clip-rule="evenodd"/><path fill="url(#x)" fill-rule="evenodd" d="M39.503 21.008a1.48 1.48 0 0 0-1.735-.084c-1.62.747-3.688 2.214-5.22 2.613-.68.174-.993.118-1.36-.161q.177.236.401.426a.67.67 0 0 0 .62.119c1.986-.503 5.41-2.872 6.369-2.872.96 0 4.389 2.369 6.37 2.872a.6.6 0 0 0 .271 0 5.4 5.4 0 0 1-1.504-.601c-1.36-.699-2.967-1.698-4.246-2.333l.034.02Z" clip-rule="evenodd" style="mix-blend-mode:multiply"/><path fill="url(#y)" fill-rule="evenodd" d="M45.703 14.803c-.952.93-1.013 1.174-.803 2.523.286 1.809.722 3.758.872 5.588.035.27.016.543-.055.804a.76.76 0 0 0 .197-.468c.143-2.096-.993-6.169-.68-7.105s3.545-3.55 4.627-5.33a.77.77 0 0 0 .082-.65 5.5 5.5 0 0 0-.646-1.041c.394.86.306 1.823-.851 3.053-.871.929-1.824 1.76-2.722 2.648l-.02-.021Z" clip-rule="evenodd" style="mix-blend-mode:multiply"/><path fill="url(#z)" fill-rule="evenodd" d="M48.528 9.508c.646-.126 1.034.873.993 1.432a2.4 2.4 0 0 1-.224.63q.3-.37.551-.776a.77.77 0 0 0 .007-.81 10.3 10.3 0 0 0-1.361-1.831q.09.137.163.286a.72.72 0 0 1-.075.65 3 3 0 0 1-.163.244c-.068.105-.143.203-.218.308a.9.9 0 0 1 .306-.133z" clip-rule="evenodd" style="mix-blend-mode:screen"/><path fill="url(#A)" fill-rule="evenodd" d="M31.392 22.537a1 1 0 0 1-.081-.133.47.47 0 0 1 0-.265l-.28.084a.72.72 0 0 1-.626-.126l-.177-.182c.39.65.846 1.254 1.361 1.803l.096.084a.67.67 0 0 0 .619.118q.3-.073.592-.181a.9.9 0 0 1-.646-.28 9 9 0 0 1-.797-.922h-.06Z" clip-rule="evenodd" style="mix-blend-mode:screen"/><path fill="url(#B)" fill-rule="evenodd" d="M43.845 22.412q.37.435.68.915c.137.202.28.454.17.517q.135.046.273.076a.66.66 0 0 0 .626-.118.8.8 0 0 0 .272-.384.35.35 0 0 1-.279-.147c-.231-.28-.449-.58-.68-.88a1.05 1.05 0 0 1-.286-.776.75.75 0 0 1-.3.482.73.73 0 0 1-.625.126l-.157-.049q.172.098.306.245z" clip-rule="evenodd" style="mix-blend-mode:screen"/><path fill="#FFD400" fill-rule="evenodd" d="M70.981 23.92a.66.66 0 0 0 .626-.118.74.74 0 0 0 .306-.573c.143-2.096-.993-6.169-.68-7.105s3.545-3.549 4.627-5.33a.77.77 0 0 0 .082-.65.76.76 0 0 0-.436-.475c-1.898-.79-6.015-.936-6.805-1.523-.626-.468-3.6-7.182-4.763-7.866-.197-.12-.429.097-.572.279-1.313 1.607-2.041 6.986-2.837 7.587-.797.6-6.002-.384-7.894.398a.7.7 0 0 0-.277.185.7.7 0 0 0-.159.297c-.183.58 3.96 4.89 4.403 5.373a6.7 6.7 0 0 1 1.402 1.725c.3.936-.83 5.01-.68 7.105a.77.77 0 0 0 .313.573.67.67 0 0 0 .619.119c1.987-.503 5.41-2.872 6.37-2.872.959 0 4.388 2.369 6.369 2.872h-.014Z" clip-rule="evenodd"/><path fill="url(#C)" fill-rule="evenodd" d="M69.73 22.223a.72.72 0 0 0 .626-.126.71.71 0 0 0 .306-.573c.143-2.096-.987-6.161-.68-7.105.306-.943 3.538-3.549 4.627-5.33a.79.79 0 0 0-.092-.936.8.8 0 0 0-.269-.189c-1.892-.782-6.015-.936-6.805-1.516-.789-.58-2.19-4.534-3.504-6.169a.725.725 0 0 0-.892-.207.74.74 0 0 0-.258.207c-1.314 1.607-2.722 5.59-3.512 6.17-.789.58-4.9.733-6.805 1.515a.76.76 0 0 0-.434.477.8.8 0 0 0 .074.648c1.088 1.781 4.334 4.387 4.634 5.33s-.837 5.01-.68 7.105a.78.78 0 0 0 .305.575.74.74 0 0 0 .627.124c2.007-.51 5.41-2.843 6.37-2.843.959 0 4.382 2.368 6.362 2.878z" clip-rule="evenodd"/><path fill="url(#D)" fill-rule="evenodd" d="M73.827 8.991c-2.287 1.69-3.58 2.697-5.58 4.052a.9.9 0 0 0-.348.377.9.9 0 0 0-.088.51c.592 1.957 2.266 5.093 2.382 7.042.075 1.153-.885.804-1.443.552-1.94-.852-3.246-2.096-5.104-3.039a1.58 1.58 0 0 0-1.83.154c-1.123.755-3.117 2.592-4.764 3.123-.47.154-.762.119-.946-.105a.7.7 0 0 0 .286.44.73.73 0 0 0 .626.126c1.987-.51 5.39-2.843 6.35-2.843.959 0 4.382 2.368 6.362 2.878a.72.72 0 0 0 .626-.126.71.71 0 0 0 .306-.573c.143-2.096-.986-6.162-.68-7.105s3.538-3.549 4.627-5.33a.788.788 0 0 0-.36-1.125c-1.892-.782-6.016-.936-6.805-1.516-.79-.58-2.192-4.569-3.505-6.204a.725.725 0 0 0-.892-.207.74.74 0 0 0-.258.207 8 8 0 0 0-.62.937c.572-.615 1.164-1 1.695-.14a21.5 21.5 0 0 1 1.946 4.89c.334 1 .531 1.397 2.45 1.544 2.191.16 4.008.315 5.315.538.721.126.735.643.252 1z" clip-rule="evenodd" style="mix-blend-mode:multiply"/><path fill="url(#E)" fill-rule="evenodd" d="M62.102 1.642c-.626 1.18-1.164 2.48-1.75 3.681-.496 1.027-.68 1.635-1.911 1.852-1.532.272-3.09.314-4.621.573-1.654.272-2.042.656-.844 2.019.68.81 3.981 3.849 4.192 4.59.21.74-.163 1.858-.197 2.612 0 .364.122.895.68.238C62.176 12.1 63.32 11.15 69.893 8.9c.68-.244 1.423-.419 2.137-.642.204-.063.47-.266-.116-.35-2.041-.286-3.688-.056-5.444-.223-.789-.07-1.293-1.048-1.537-1.726-.518-1.432-.783-2.955-1.28-4.394-.38-1.139-1.096-.699-1.51.07z" clip-rule="evenodd" style="mix-blend-mode:screen"/><path fill="url(#F)" fill-rule="evenodd" d="M56.861 8.293c-.422-.084-.32-.538.068-.63.633-.153 1.286-.18 1.913-.335a1.76 1.76 0 0 0 .86-.389 1.83 1.83 0 0 0 .548-.784c.68-1.397 1.361-3.256 2.042-4.52.258-.454.55-.384.483.126a36 36 0 0 1-1.035 4.764c-.224.817-.476 1.684-1.565 1.816-1.111.117-2.233.1-3.34-.048zm-1.551-.517a9.5 9.5 0 0 0-2.09.377c-.68.237-.523.384.075.419q.96.063 1.92 0c.898-.063.775-.824.095-.775z" clip-rule="evenodd" style="mix-blend-mode:screen"/><path fill="url(#G)" fill-rule="evenodd" d="M68.213 20.323c-.3.125-1.014.286-.143.782q.557.306 1.164.482c.87.252.878-.391.748-1.04a22 22 0 0 0-1.36-3.969c-.239-.552-.538-.852-.436.042.102 1.006.279 2.005.38 3.011.042.461 0 .524-.374.699z" clip-rule="evenodd" style="mix-blend-mode:screen"/><path fill="#848484" fill-rule="evenodd" d="M56.195 21.916a9.5 9.5 0 0 0 1.43 1.886.67.67 0 0 0 .619.119c1.987-.503 5.41-2.872 6.37-2.872.959 0 4.388 2.369 6.369 2.872a.66.66 0 0 0 .626-.12.74.74 0 0 0 .306-.572c.143-2.096-.994-6.169-.68-7.105.312-.936 3.545-3.549 4.627-5.33a.77.77 0 0 0 .081-.65 9.5 9.5 0 0 0-1.415-1.991q.09.137.163.286a.72.72 0 0 1-.075.65c-1.088 1.781-4.334 4.387-4.627 5.33s.83 5.01.68 7.105a.71.71 0 0 1-.306.573.72.72 0 0 1-.626.126c-1.987-.51-5.41-2.843-6.37-2.843-.959 0-4.361 2.333-6.369 2.843a.72.72 0 0 1-.626-.126z" clip-rule="evenodd"/><path fill="url(#H)" fill-rule="evenodd" d="m69.975 14.42 1.279 1.697c.306-.943 3.545-3.549 4.627-5.323a.77.77 0 0 0 .007-.81 10.3 10.3 0 0 0-1.36-1.831q.09.137.162.286a.72.72 0 0 1-.074.65 3 3 0 0 1-.164.244c-1.211 1.768-4.185 4.192-4.464 5.086z" clip-rule="evenodd"/><path fill="url(#I)" fill-rule="evenodd" d="m71.254 16.117-1.28-1.698c-.299.943.83 5.01.681 7.105a.71.71 0 0 1-.306.573H70.3l1.252 1.698h.048a.74.74 0 0 0 .306-.573c.143-2.096-.993-6.169-.68-7.105h.027Z" clip-rule="evenodd"/><path fill="url(#J)" fill-rule="evenodd" d="M69.73 22.223c-1.98-.51-5.403-2.843-6.363-2.843l1.252 1.705c.967 0 4.383 2.368 6.363 2.87a.7.7 0 0 0 .578-.09l-1.252-1.697a.74.74 0 0 1-.578.09z" clip-rule="evenodd"/><path fill="url(#K)" fill-rule="evenodd" d="M58.244 23.921c1.987-.503 5.41-2.871 6.37-2.871l-1.246-1.67c-.912 0-4.029 2.096-6.036 2.794l-.334.098a.72.72 0 0 1-.626-.125l-.177-.182c.39.649.846 1.253 1.361 1.802l.096.084a.67.67 0 0 0 .619.119z" clip-rule="evenodd"/><path fill="url(#L)" fill-rule="evenodd" d="M65.503 21.008a1.48 1.48 0 0 0-1.735-.084c-1.62.747-3.688 2.214-5.22 2.613-.68.174-.993.118-1.36-.161q.177.236.401.426a.67.67 0 0 0 .62.119c1.986-.503 5.41-2.872 6.369-2.872.96 0 4.389 2.369 6.37 2.872a.6.6 0 0 0 .271 0 5.4 5.4 0 0 1-1.503-.601c-1.361-.699-2.967-1.698-4.247-2.333l.034.02Z" clip-rule="evenodd" style="mix-blend-mode:multiply"/><path fill="url(#M)" fill-rule="evenodd" d="M71.704 14.803c-.953.93-1.014 1.174-.803 2.523.285 1.809.72 3.758.87 5.588.036.27.017.543-.054.804a.76.76 0 0 0 .198-.468c.142-2.096-.994-6.169-.681-7.105s3.545-3.55 4.627-5.33a.77.77 0 0 0 .082-.65 5.5 5.5 0 0 0-.646-1.041c.394.86.306 1.823-.851 3.053-.871.929-1.824 1.76-2.722 2.648z" clip-rule="evenodd" style="mix-blend-mode:multiply"/><path fill="url(#N)" fill-rule="evenodd" d="M74.528 9.508c.646-.126 1.034.873.993 1.432a2.4 2.4 0 0 1-.224.63q.3-.37.551-.776a.77.77 0 0 0 .007-.81 10.3 10.3 0 0 0-1.361-1.831q.09.137.163.286a.72.72 0 0 1-.075.65 3 3 0 0 1-.163.244c-.068.105-.143.203-.218.308a.9.9 0 0 1 .306-.133h.02Z" clip-rule="evenodd" style="mix-blend-mode:screen"/><path fill="url(#O)" fill-rule="evenodd" d="M57.392 22.537a1 1 0 0 1-.082-.133.47.47 0 0 1 0-.265l-.279.084a.72.72 0 0 1-.626-.126l-.177-.182c.39.65.846 1.254 1.361 1.803l.096.084a.67.67 0 0 0 .619.118q.3-.073.592-.181a.9.9 0 0 1-.646-.28 9 9 0 0 1-.797-.922z" clip-rule="evenodd" style="mix-blend-mode:screen"/><path fill="url(#P)" fill-rule="evenodd" d="M69.845 22.412q.37.435.68.915c.137.202.28.454.17.517q.135.046.273.076a.66.66 0 0 0 .626-.118.8.8 0 0 0 .272-.384.35.35 0 0 1-.279-.147c-.231-.28-.449-.58-.68-.88a1.05 1.05 0 0 1-.286-.776.75.75 0 0 1-.3.482.73.73 0 0 1-.625.126l-.157-.049q.172.098.306.245z" clip-rule="evenodd" style="mix-blend-mode:screen"/><path fill="#FFD400" fill-rule="evenodd" d="M96.981 23.92a.66.66 0 0 0 .626-.118.74.74 0 0 0 .306-.573c.143-2.096-.993-6.169-.68-7.105s3.545-3.549 4.627-5.33a.77.77 0 0 0 .082-.65.74.74 0 0 0-.436-.475c-1.898-.79-6.015-.936-6.805-1.523-.626-.468-3.6-7.182-4.763-7.866-.197-.12-.429.097-.572.279-1.313 1.607-2.041 6.986-2.837 7.587-.797.6-6.002-.384-7.894.398a.7.7 0 0 0-.277.185.7.7 0 0 0-.159.297c-.183.58 3.96 4.89 4.403 5.373a6.7 6.7 0 0 1 1.402 1.725c.3.936-.83 5.01-.68 7.105a.77.77 0 0 0 .313.573.67.67 0 0 0 .619.119c1.987-.503 5.41-2.872 6.37-2.872.959 0 4.388 2.369 6.369 2.872h-.014Z" clip-rule="evenodd"/><path fill="url(#Q)" fill-rule="evenodd" d="M95.729 22.223a.72.72 0 0 0 .626-.126.71.71 0 0 0 .306-.573c.143-2.096-.987-6.161-.68-7.105.306-.943 3.538-3.549 4.627-5.33a.8.8 0 0 0 .074-.648.76.76 0 0 0-.435-.476c-1.891-.783-6.015-.937-6.805-1.517-.789-.58-2.19-4.534-3.504-6.169a.725.725 0 0 0-.892-.207.74.74 0 0 0-.258.207c-1.314 1.607-2.722 5.59-3.512 6.17-.789.58-4.9.733-6.805 1.515a.76.76 0 0 0-.434.477.8.8 0 0 0 .074.648c1.088 1.781 4.334 4.387 4.634 5.33s-.837 5.01-.68 7.105a.78.78 0 0 0 .305.575.74.74 0 0 0 .627.124c2.007-.51 5.41-2.843 6.37-2.843.959 0 4.382 2.368 6.362 2.878z" clip-rule="evenodd"/><path fill="url(#R)" fill-rule="evenodd" d="M99.826 8.991c-2.287 1.69-3.58 2.697-5.58 4.052a.9.9 0 0 0-.348.377.9.9 0 0 0-.088.51c.592 1.957 2.266 5.093 2.382 7.042.075 1.153-.885.804-1.443.552-1.94-.852-3.246-2.096-5.104-3.039a1.58 1.58 0 0 0-1.83.154c-1.123.755-3.117 2.592-4.764 3.123-.47.154-.762.119-.945-.105a.7.7 0 0 0 .285.44.73.73 0 0 0 .626.126c1.987-.51 5.39-2.843 6.35-2.843.959 0 4.382 2.368 6.362 2.878a.72.72 0 0 0 .626-.126.71.71 0 0 0 .306-.573c.143-2.096-.986-6.162-.68-7.105s3.538-3.549 4.627-5.33a.785.785 0 0 0-.36-1.125c-1.892-.782-6.016-.936-6.805-1.516-.79-.58-2.192-4.569-3.505-6.204a.725.725 0 0 0-1.15 0 8 8 0 0 0-.62.937c.572-.615 1.164-1 1.695-.14.846 1.54 1.5 3.183 1.946 4.89.334 1 .531 1.397 2.45 1.544 2.191.16 4.008.315 5.315.538.721.126.735.643.252 1z" clip-rule="evenodd" style="mix-blend-mode:multiply"/><path fill="url(#S)" fill-rule="evenodd" d="M88.1 1.642c-.625 1.18-1.163 2.48-1.748 3.681-.497 1.027-.68 1.635-1.913 1.852-1.53.272-3.089.314-4.62.573-1.654.272-2.041.656-.844 2.019.68.81 3.981 3.849 4.192 4.59s-.163 1.858-.197 2.612c0 .364.122.895.68.238C88.175 12.1 89.32 11.15 95.892 8.9c.68-.244 1.423-.419 2.137-.642.204-.063.47-.266-.116-.35-2.041-.286-3.688-.056-5.444-.223-.789-.07-1.292-1.048-1.537-1.726-.518-1.432-.783-2.955-1.28-4.394-.38-1.139-1.095-.699-1.51.07z" clip-rule="evenodd" style="mix-blend-mode:screen"/><path fill="url(#T)" fill-rule="evenodd" d="M82.86 8.293c-.422-.084-.32-.538.068-.63.633-.153 1.287-.18 1.913-.335a1.76 1.76 0 0 0 .86-.389 1.83 1.83 0 0 0 .548-.784c.68-1.397 1.361-3.256 2.042-4.52.258-.454.55-.384.483.126a36 36 0 0 1-1.034 4.764c-.225.817-.477 1.684-1.566 1.816-1.112.117-2.233.1-3.34-.048zm-1.551-.517a9.5 9.5 0 0 0-2.09.377c-.68.237-.523.384.076.419q.959.063 1.918 0c.899-.063.776-.824.096-.775z" clip-rule="evenodd" style="mix-blend-mode:screen"/><path fill="url(#U)" fill-rule="evenodd" d="M94.211 20.323c-.3.125-1.014.286-.143.782q.557.306 1.164.482c.87.252.878-.391.748-1.04a22 22 0 0 0-1.36-3.969c-.239-.552-.538-.852-.436.042.102 1.006.279 2.005.38 3.011.042.461 0 .524-.373.699z" clip-rule="evenodd" style="mix-blend-mode:screen"/><path fill="#848484" fill-rule="evenodd" d="M82.193 21.916a9.5 9.5 0 0 0 1.43 1.886.67.67 0 0 0 .619.119c1.987-.503 5.41-2.872 6.37-2.872.959 0 4.388 2.369 6.369 2.872a.66.66 0 0 0 .626-.12.74.74 0 0 0 .306-.572c.143-2.096-.994-6.169-.68-7.105.312-.936 3.545-3.549 4.627-5.33a.77.77 0 0 0 .081-.65 9.5 9.5 0 0 0-1.415-1.991q.092.137.163.286a.72.72 0 0 1-.075.65c-1.088 1.781-4.334 4.387-4.627 5.33-.292.944.83 5.01.68 7.105a.71.71 0 0 1-.306.573.73.73 0 0 1-.626.126c-1.987-.51-5.41-2.843-6.37-2.843-.959 0-4.361 2.333-6.369 2.843a.72.72 0 0 1-.626-.126z" clip-rule="evenodd"/><path fill="url(#V)" fill-rule="evenodd" d="m95.974 14.42 1.279 1.697c.306-.943 3.545-3.549 4.627-5.323a.77.77 0 0 0 .007-.81 10.2 10.2 0 0 0-1.361-1.831q.092.137.163.286a.7.7 0 0 1-.074.65q-.075.127-.164.244c-1.211 1.768-4.185 4.192-4.464 5.086z" clip-rule="evenodd"/><path fill="url(#W)" fill-rule="evenodd" d="m97.253 16.117-1.28-1.698c-.299.943.83 5.01.681 7.105a.7.7 0 0 1-.306.573H96.3l1.252 1.698h.048a.74.74 0 0 0 .306-.573c.143-2.096-.993-6.169-.68-7.105z" clip-rule="evenodd"/><path fill="url(#X)" fill-rule="evenodd" d="M95.729 22.223c-1.98-.51-5.403-2.843-6.363-2.843l1.252 1.705c.967 0 4.383 2.368 6.363 2.87a.7.7 0 0 0 .578-.09l-1.252-1.697a.74.74 0 0 1-.578.09z" clip-rule="evenodd"/><path fill="url(#Y)" fill-rule="evenodd" d="M84.242 23.921c1.987-.503 5.41-2.871 6.37-2.871l-1.246-1.67c-.912 0-4.029 2.096-6.036 2.794l-.334.098a.72.72 0 0 1-.626-.125l-.177-.182c.39.649.846 1.253 1.361 1.802l.096.084a.67.67 0 0 0 .619.119z" clip-rule="evenodd"/><path fill="url(#Z)" fill-rule="evenodd" d="M91.503 21.008a1.48 1.48 0 0 0-1.735-.084c-1.62.747-3.688 2.214-5.22 2.613-.68.174-.993.118-1.36-.161q.177.236.401.426a.67.67 0 0 0 .62.119c1.986-.503 5.41-2.872 6.369-2.872.96 0 4.389 2.369 6.37 2.872a.6.6 0 0 0 .271 0 5.4 5.4 0 0 1-1.503-.601c-1.361-.699-2.967-1.698-4.247-2.333l.034.02Z" clip-rule="evenodd" style="mix-blend-mode:multiply"/><path fill="url(#aa)" fill-rule="evenodd" d="M97.702 14.803c-.953.93-1.014 1.174-.803 2.523.285 1.809.72 3.758.87 5.588.036.27.017.543-.054.804a.76.76 0 0 0 .197-.468c.143-2.096-.993-6.169-.68-7.105s3.545-3.55 4.627-5.33a.77.77 0 0 0 .082-.65 5.5 5.5 0 0 0-.646-1.041c.394.86.306 1.823-.851 3.053-.871.929-1.824 1.76-2.722 2.648z" clip-rule="evenodd" style="mix-blend-mode:multiply"/><path fill="url(#ab)" fill-rule="evenodd" d="M100.526 9.508c.646-.126 1.034.873.993 1.432a2.4 2.4 0 0 1-.224.63 8 8 0 0 0 .551-.776.77.77 0 0 0 .082-.65 1 1 0 0 0-.075-.16 10.3 10.3 0 0 0-1.361-1.831q.091.137.163.286a.72.72 0 0 1-.075.65 2 2 0 0 1-.163.244c-.068.105-.143.203-.218.308a.9.9 0 0 1 .306-.133z" clip-rule="evenodd" style="mix-blend-mode:screen"/><path fill="url(#ac)" fill-rule="evenodd" d="M83.391 22.537a1 1 0 0 1-.082-.133.47.47 0 0 1 0-.265l-.278.084a.72.72 0 0 1-.627-.126l-.176-.182c.39.65.846 1.254 1.36 1.803l.096.084a.67.67 0 0 0 .62.118q.3-.073.591-.181a.9.9 0 0 1-.646-.28 9 9 0 0 1-.797-.922h-.06Z" clip-rule="evenodd" style="mix-blend-mode:screen"/><path fill="url(#ad)" fill-rule="evenodd" d="M95.844 22.412q.37.435.68.915c.137.202.28.454.17.517q.135.046.273.076a.66.66 0 0 0 .626-.118.8.8 0 0 0 .272-.384.35.35 0 0 1-.279-.147c-.231-.28-.449-.58-.68-.88a1.05 1.05 0 0 1-.286-.776.75.75 0 0 1-.3.482.73.73 0 0 1-.625.126l-.157-.049q.172.098.306.245z" clip-rule="evenodd" style="mix-blend-mode:screen"/><path fill="#FFD400" fill-rule="evenodd" d="M122.981 23.92a.66.66 0 0 0 .626-.118.74.74 0 0 0 .306-.573c.143-2.096-.993-6.169-.68-7.105s3.545-3.549 4.627-5.33a.77.77 0 0 0 .082-.65.74.74 0 0 0-.436-.475c-1.898-.79-6.015-.936-6.805-1.523-.626-.468-3.599-7.182-4.763-7.866-.197-.12-.429.097-.572.279-1.313 1.607-2.041 6.986-2.837 7.587-.797.6-6.002-.384-7.894.398a.7.7 0 0 0-.277.185.7.7 0 0 0-.159.297c-.183.58 3.961 4.89 4.403 5.373a6.7 6.7 0 0 1 1.402 1.725c.299.936-.83 5.01-.681 7.105a.75.75 0 0 0 .313.573.68.68 0 0 0 .62.119c1.987-.503 5.41-2.872 6.369-2.872.96 0 4.389 2.369 6.37 2.872h-.014Z" clip-rule="evenodd"/><path fill="url(#ae)" fill-rule="evenodd" d="M121.729 22.223a.72.72 0 0 0 .626-.126.71.71 0 0 0 .306-.573c.143-2.096-.987-6.161-.68-7.105.306-.943 3.538-3.549 4.627-5.33a.8.8 0 0 0 .074-.648.76.76 0 0 0-.435-.476c-1.891-.783-6.015-.937-6.805-1.517-.789-.58-2.191-4.534-3.504-6.169a.7.7 0 0 0-.255-.207.7.7 0 0 0-.317-.072.72.72 0 0 0-.578.28c-1.314 1.606-2.722 5.588-3.512 6.168-.789.58-4.899.734-6.805 1.516a.76.76 0 0 0-.434.477.8.8 0 0 0 .074.648c1.089 1.781 4.334 4.387 4.634 5.33.299.944-.837 5.01-.681 7.105a.8.8 0 0 0 .306.575.74.74 0 0 0 .627.124c2.007-.51 5.41-2.843 6.369-2.843.96 0 4.383 2.368 6.363 2.878z" clip-rule="evenodd"/><path fill="url(#af)" fill-rule="evenodd" d="M125.826 8.991c-2.287 1.69-3.58 2.697-5.58 4.052a.9.9 0 0 0-.348.377.93.93 0 0 0-.088.51c.592 1.957 2.266 5.093 2.382 7.042.075 1.153-.885.804-1.443.552-1.939-.852-3.246-2.096-5.104-3.039a1.58 1.58 0 0 0-1.83.154c-1.123.755-3.117 2.592-4.764 3.123-.469.154-.762.119-.946-.105.036.18.138.338.286.44a.72.72 0 0 0 .626.126c1.987-.51 5.39-2.843 6.349-2.843s4.383 2.368 6.363 2.878a.72.72 0 0 0 .626-.126.7.7 0 0 0 .306-.573c.143-2.096-.986-6.162-.68-7.105s3.538-3.549 4.627-5.33a.785.785 0 0 0-.36-1.125c-1.892-.782-6.016-.936-6.805-1.516-.79-.58-2.192-4.569-3.505-6.204a.72.72 0 0 0-.892-.207.74.74 0 0 0-.258.207 8 8 0 0 0-.619.937c.571-.615 1.163-1 1.694-.14a21.4 21.4 0 0 1 1.946 4.89c.334 1 .531 1.397 2.45 1.544 2.191.16 4.008.315 5.315.538.721.126.735.643.252 1z" clip-rule="evenodd" style="mix-blend-mode:multiply"/><path fill="url(#ag)" fill-rule="evenodd" d="M114.101 1.642c-.626 1.18-1.164 2.48-1.749 3.681-.497 1.027-.681 1.635-1.912 1.852-1.532.272-3.09.314-4.621.573-1.654.272-2.042.656-.844 2.019.681.81 3.981 3.849 4.192 4.59s-.163 1.858-.197 2.612c0 .364.122.895.68.238 4.525-5.107 5.669-6.057 12.242-8.307.681-.244 1.423-.419 2.137-.642.204-.063.47-.266-.116-.35-2.041-.286-3.688-.056-5.444-.223-.789-.07-1.293-1.048-1.537-1.726-.518-1.432-.783-2.955-1.28-4.394-.381-1.139-1.095-.699-1.511.07z" clip-rule="evenodd" style="mix-blend-mode:screen"/><path fill="url(#ah)" fill-rule="evenodd" d="M108.86 8.293c-.422-.084-.32-.538.068-.63.633-.153 1.287-.18 1.913-.335.315-.048.612-.182.86-.389.248-.206.437-.477.548-.784.681-1.397 1.361-3.256 2.042-4.52.258-.454.551-.384.483.126a36 36 0 0 1-1.034 4.764c-.225.817-.477 1.684-1.566 1.816-1.111.117-2.233.1-3.341-.048zm-1.551-.517a9.5 9.5 0 0 0-2.089.377c-.681.237-.524.384.075.419a15 15 0 0 0 1.919 0c.898-.063.775-.824.095-.775z" clip-rule="evenodd" style="mix-blend-mode:screen"/><path fill="url(#ai)" fill-rule="evenodd" d="M120.211 20.323c-.299.125-1.014.286-.143.782a5.7 5.7 0 0 0 1.164.482c.871.252.878-.391.748-1.04a21.7 21.7 0 0 0-1.361-3.969c-.238-.552-.537-.852-.435.042.102 1.006.279 2.005.381 3.011.041.461 0 .524-.374.699z" clip-rule="evenodd" style="mix-blend-mode:screen"/><path fill="#848484" fill-rule="evenodd" d="M108.193 21.916a9.6 9.6 0 0 0 1.429 1.886.68.68 0 0 0 .62.119c1.987-.503 5.41-2.872 6.369-2.872.96 0 4.389 2.369 6.37 2.872a.66.66 0 0 0 .626-.12.74.74 0 0 0 .217-.25.8.8 0 0 0 .089-.322c.143-2.096-.994-6.169-.681-7.105s3.546-3.549 4.628-5.33a.77.77 0 0 0 .081-.65 9.5 9.5 0 0 0-1.415-1.991q.092.137.163.286a.72.72 0 0 1-.075.65c-1.088 1.781-4.334 4.387-4.627 5.33s.83 5.01.681 7.105a.7.7 0 0 1-.307.573.72.72 0 0 1-.626.126c-1.987-.51-5.41-2.843-6.369-2.843-.96 0-4.362 2.333-6.37 2.843a.72.72 0 0 1-.626-.126z" clip-rule="evenodd"/><path fill="url(#aj)" fill-rule="evenodd" d="m121.974 14.42 1.279 1.697c.306-.943 3.545-3.549 4.627-5.323a.77.77 0 0 0 .007-.81 10.2 10.2 0 0 0-1.361-1.831q.092.137.163.286a.7.7 0 0 1-.074.65q-.075.127-.164.244c-1.211 1.768-4.185 4.192-4.464 5.086z" clip-rule="evenodd"/><path fill="url(#ak)" fill-rule="evenodd" d="m123.253 16.117-1.279-1.698c-.3.943.83 5.01.68 7.105a.71.71 0 0 1-.306.573h-.048l1.252 1.698h.048a.76.76 0 0 0 .306-.573c.143-2.096-.993-6.169-.68-7.105z" clip-rule="evenodd"/><path fill="url(#al)" fill-rule="evenodd" d="M121.729 22.223c-1.98-.51-5.403-2.843-6.363-2.843l1.252 1.705c.967 0 4.383 2.368 6.363 2.87a.7.7 0 0 0 .578-.09l-1.252-1.697a.74.74 0 0 1-.578.09z" clip-rule="evenodd"/><path fill="url(#am)" fill-rule="evenodd" d="M110.242 23.921c1.987-.503 5.41-2.871 6.369-2.871l-1.245-1.67c-.912 0-4.029 2.096-6.036 2.794l-.334.098a.72.72 0 0 1-.626-.125l-.177-.182c.39.649.846 1.253 1.361 1.802l.096.084a.67.67 0 0 0 .619.119z" clip-rule="evenodd"/><path fill="url(#an)" fill-rule="evenodd" d="M117.503 21.008a1.485 1.485 0 0 0-1.735-.084c-1.62.747-3.688 2.214-5.22 2.613-.68.174-.993.118-1.36-.161q.177.236.401.426a.67.67 0 0 0 .619.119c1.987-.503 5.41-2.872 6.37-2.872.959 0 4.389 2.369 6.369 2.872q.137.03.272 0a5.4 5.4 0 0 1-1.503-.601c-1.361-.699-2.967-1.698-4.247-2.333l.034.02Z" clip-rule="evenodd" style="mix-blend-mode:multiply"/><path fill="url(#ao)" fill-rule="evenodd" d="M123.702 14.803c-.953.93-1.014 1.174-.803 2.523.285 1.809.721 3.758.871 5.588.035.27.016.543-.055.804a.76.76 0 0 0 .198-.468c.142-2.096-.994-6.169-.681-7.105s3.545-3.55 4.627-5.33a.77.77 0 0 0 .082-.65 5.5 5.5 0 0 0-.646-1.041c.394.86.306 1.823-.851 3.053-.871.929-1.824 1.76-2.722 2.648z" clip-rule="evenodd" style="mix-blend-mode:multiply"/><path fill="url(#ap)" fill-rule="evenodd" d="M126.526 9.508c.646-.126 1.034.873.993 1.432a2.4 2.4 0 0 1-.224.63 8 8 0 0 0 .551-.776.77.77 0 0 0 .082-.65 1 1 0 0 0-.075-.16 10.3 10.3 0 0 0-1.361-1.831q.091.137.163.286a.72.72 0 0 1-.075.65 2 2 0 0 1-.163.244c-.068.105-.143.203-.218.308a.9.9 0 0 1 .306-.133z" clip-rule="evenodd" style="mix-blend-mode:screen"/><path fill="url(#aq)" fill-rule="evenodd" d="M109.391 22.537a1 1 0 0 1-.081-.133.46.46 0 0 1 0-.265l-.279.084a.72.72 0 0 1-.627-.126l-.176-.182c.389.65.846 1.254 1.361 1.803l.095.084a.67.67 0 0 0 .619.118q.301-.073.592-.181a.9.9 0 0 1-.646-.28 9 9 0 0 1-.797-.922z" clip-rule="evenodd" style="mix-blend-mode:screen"/><path fill="url(#ar)" fill-rule="evenodd" d="M121.844 22.412q.369.435.681.915c.136.202.279.454.17.517q.134.046.272.076a.67.67 0 0 0 .626-.118.8.8 0 0 0 .272-.384.36.36 0 0 1-.279-.147c-.231-.28-.449-.58-.68-.88a1 1 0 0 1-.221-.358 1.1 1.1 0 0 1-.065-.418.75.75 0 0 1-.299.482.73.73 0 0 1-.626.126l-.157-.049q.172.098.306.245z" clip-rule="evenodd" style="mix-blend-mode:screen"/><defs><radialGradient id="a" cx="0" cy="0" r="1" gradientTransform="matrix(21.2248 0 0 21.7898 7.243 4.457)" gradientUnits="userSpaceOnUse"><stop stop-color="#FCF800"/><stop offset="1" stop-color="#FC9700"/></radialGradient><radialGradient id="b" cx="0" cy="0" r="1" gradientTransform="matrix(20.2313 0 0 20.7698 10 6.574)" gradientUnits="userSpaceOnUse"><stop stop-color="#fff"/><stop offset=".1" stop-color="#FFFDF9"/><stop offset=".22" stop-color="#FFF7E9"/><stop offset=".36" stop-color="#FFECCF"/><stop offset=".51" stop-color="#FFDEAA"/><stop offset=".67" stop-color="#FFCC7A"/><stop offset=".84" stop-color="#FFB641"/><stop offset="1" stop-color="#FF9D00"/></radialGradient><radialGradient id="c" cx="0" cy="0" r="1" gradientTransform="matrix(18.6253 0 0 19.1211 4.596 .307)" gradientUnits="userSpaceOnUse"><stop stop-color="#FFF261"/><stop offset=".11" stop-color="#FAEE5F"/><stop offset=".23" stop-color="#EDE15A"/><stop offset=".36" stop-color="#D6CB52"/><stop offset=".5" stop-color="#B7AD46"/><stop offset=".64" stop-color="#8E8736"/><stop offset=".78" stop-color="#5C5823"/><stop offset=".92" stop-color="#23210D"/><stop offset="1"/></radialGradient><radialGradient id="d" cx="0" cy="0" r="1" gradientTransform="matrix(13.4875 0 0 13.8465 4.664 1.048)" gradientUnits="userSpaceOnUse"><stop stop-color="#FFFACF"/><stop offset="1"/></radialGradient><radialGradient id="e" cx="0" cy="0" r="1" gradientTransform="matrix(8.68318 0 0 8.91432 13.756 20.113)" gradientUnits="userSpaceOnUse"><stop/><stop offset=".08" stop-color="#232112"/><stop offset=".22" stop-color="#5C582E"/><stop offset=".36" stop-color="#8E8747"/><stop offset=".5" stop-color="#B7AE5C"/><stop offset=".64" stop-color="#D6CC6C"/><stop offset=".77" stop-color="#EDE277"/><stop offset=".89" stop-color="#FAEF7E"/><stop offset="1" stop-color="#FFF380"/></radialGradient><radialGradient id="f" cx="0" cy="0" r="1" gradientTransform="matrix(9.88766 0 0 10.1509 16.552 6.343)" gradientUnits="userSpaceOnUse"><stop stop-color="#FCAC00"/><stop offset="1" stop-color="#FF7300"/></radialGradient><radialGradient id="g" cx="0" cy="0" r="1" gradientTransform="matrix(9.08467 0 0 9.32651 11.687 21.308)" gradientUnits="userSpaceOnUse"><stop stop-color="#FC8F00"/><stop offset="1" stop-color="#E86900"/></radialGradient><radialGradient id="h" cx="0" cy="0" r="1" gradientTransform="matrix(11.3575 0 0 11.6599 21.473 13.889)" gradientUnits="userSpaceOnUse"><stop stop-color="#FCAC00"/><stop offset="1" stop-color="#FF7300"/></radialGradient><radialGradient id="i" cx="0" cy="0" r="1" gradientTransform="matrix(9.09148 0 0 9.33349 5.053 25.961)" gradientUnits="userSpaceOnUse"><stop stop-color="#FC8F00"/><stop offset="1" stop-color="#E86900"/></radialGradient><radialGradient id="j" cx="0" cy="0" r="1" gradientTransform="matrix(11.4732 0 0 11.7786 12.877 16.131)" gradientUnits="userSpaceOnUse"><stop stop-color="#fff"/><stop offset=".1" stop-color="#FEFBF9"/><stop offset=".22" stop-color="#FBF0E9"/><stop offset=".36" stop-color="#F6DECF"/><stop offset=".51" stop-color="#F0C4AA"/><stop offset=".67" stop-color="#E7A47A"/><stop offset=".84" stop-color="#DD7C41"/><stop offset="1" stop-color="#D15000"/></radialGradient><radialGradient id="k" cx="0" cy="0" r="1" gradientTransform="matrix(10.9084 0 0 11.1988 13.627 13.812)" gradientUnits="userSpaceOnUse"><stop stop-color="#fff"/><stop offset=".1" stop-color="#FEFBF9"/><stop offset=".22" stop-color="#FBF0E9"/><stop offset=".36" stop-color="#F6DECF"/><stop offset=".51" stop-color="#F0C4AA"/><stop offset=".67" stop-color="#E7A47A"/><stop offset=".84" stop-color="#DD7C41"/><stop offset="1" stop-color="#D15000"/></radialGradient><radialGradient id="l" cx="0" cy="0" r="1" gradientTransform="matrix(4.96084 0 0 5.0929 22.208 6.965)" gradientUnits="userSpaceOnUse"><stop stop-color="#FFF261"/><stop offset=".11" stop-color="#FAEE5F"/><stop offset=".23" stop-color="#EDE15A"/><stop offset=".36" stop-color="#D6CB52"/><stop offset=".5" stop-color="#B7AD46"/><stop offset=".64" stop-color="#8E8736"/><stop offset=".78" stop-color="#5C5823"/><stop offset=".92" stop-color="#23210D"/><stop offset="1"/></radialGradient><radialGradient id="m" cx="0" cy="0" r="1" gradientTransform="matrix(5.08333 0 0 5.21865 4.67 19.177)" gradientUnits="userSpaceOnUse"><stop stop-color="#FFF261"/><stop offset=".11" stop-color="#FAEE5F"/><stop offset=".23" stop-color="#EDE15A"/><stop offset=".36" stop-color="#D6CB52"/><stop offset=".5" stop-color="#B7AD46"/><stop offset=".64" stop-color="#8E8736"/><stop offset=".78" stop-color="#5C5823"/><stop offset=".92" stop-color="#23210D"/><stop offset="1"/></radialGradient><radialGradient id="n" cx="0" cy="0" r="1" gradientTransform="matrix(5.38956 0 0 5.53303 20.683 19.338)" gradientUnits="userSpaceOnUse"><stop stop-color="#FFF261"/><stop offset=".11" stop-color="#FAEE5F"/><stop offset=".23" stop-color="#EDE15A"/><stop offset=".36" stop-color="#D6CB52"/><stop offset=".5" stop-color="#B7AD46"/><stop offset=".64" stop-color="#8E8736"/><stop offset=".78" stop-color="#5C5823"/><stop offset=".92" stop-color="#23210D"/><stop offset="1"/></radialGradient><radialGradient id="o" cx="0" cy="0" r="1" gradientTransform="matrix(21.2248 0 0 21.7898 33.243 4.457)" gradientUnits="userSpaceOnUse"><stop stop-color="#FCF800"/><stop offset="1" stop-color="#FC9700"/></radialGradient><radialGradient id="p" cx="0" cy="0" r="1" gradientTransform="matrix(20.2313 0 0 20.7698 36 6.574)" gradientUnits="userSpaceOnUse"><stop stop-color="#fff"/><stop offset=".1" stop-color="#FFFDF9"/><stop offset=".22" stop-color="#FFF7E9"/><stop offset=".36" stop-color="#FFECCF"/><stop offset=".51" stop-color="#FFDEAA"/><stop offset=".67" stop-color="#FFCC7A"/><stop offset=".84" stop-color="#FFB641"/><stop offset="1" stop-color="#FF9D00"/></radialGradient><radialGradient id="q" cx="0" cy="0" r="1" gradientTransform="matrix(18.6253 0 0 19.1211 30.596 .307)" gradientUnits="userSpaceOnUse"><stop stop-color="#FFF261"/><stop offset=".11" stop-color="#FAEE5F"/><stop offset=".23" stop-color="#EDE15A"/><stop offset=".36" stop-color="#D6CB52"/><stop offset=".5" stop-color="#B7AD46"/><stop offset=".64" stop-color="#8E8736"/><stop offset=".78" stop-color="#5C5823"/><stop offset=".92" stop-color="#23210D"/><stop offset="1"/></radialGradient><radialGradient id="r" cx="0" cy="0" r="1" gradientTransform="matrix(13.4875 0 0 13.8465 30.664 1.048)" gradientUnits="userSpaceOnUse"><stop stop-color="#FFFACF"/><stop offset="1"/></radialGradient><radialGradient id="s" cx="0" cy="0" r="1" gradientTransform="matrix(8.68318 0 0 8.91432 39.756 20.113)" gradientUnits="userSpaceOnUse"><stop/><stop offset=".08" stop-color="#232112"/><stop offset=".22" stop-color="#5C582E"/><stop offset=".36" stop-color="#8E8747"/><stop offset=".5" stop-color="#B7AE5C"/><stop offset=".64" stop-color="#D6CC6C"/><stop offset=".77" stop-color="#EDE277"/><stop offset=".89" stop-color="#FAEF7E"/><stop offset="1" stop-color="#FFF380"/></radialGradient><radialGradient id="t" cx="0" cy="0" r="1" gradientTransform="matrix(9.88766 0 0 10.1509 42.552 6.343)" gradientUnits="userSpaceOnUse"><stop stop-color="#FCAC00"/><stop offset="1" stop-color="#FF7300"/></radialGradient><radialGradient id="u" cx="0" cy="0" r="1" gradientTransform="matrix(9.08467 0 0 9.32651 37.687 21.308)" gradientUnits="userSpaceOnUse"><stop stop-color="#FC8F00"/><stop offset="1" stop-color="#E86900"/></radialGradient><radialGradient id="v" cx="0" cy="0" r="1" gradientTransform="matrix(11.3575 0 0 11.6599 47.473 13.889)" gradientUnits="userSpaceOnUse"><stop stop-color="#FCAC00"/><stop offset="1" stop-color="#FF7300"/></radialGradient><radialGradient id="w" cx="0" cy="0" r="1" gradientTransform="matrix(9.09148 0 0 9.33349 31.053 25.961)" gradientUnits="userSpaceOnUse"><stop stop-color="#FC8F00"/><stop offset="1" stop-color="#E86900"/></radialGradient><radialGradient id="x" cx="0" cy="0" r="1" gradientTransform="matrix(11.4732 0 0 11.7786 38.877 16.131)" gradientUnits="userSpaceOnUse"><stop stop-color="#fff"/><stop offset=".1" stop-color="#FEFBF9"/><stop offset=".22" stop-color="#FBF0E9"/><stop offset=".36" stop-color="#F6DECF"/><stop offset=".51" stop-color="#F0C4AA"/><stop offset=".67" stop-color="#E7A47A"/><stop offset=".84" stop-color="#DD7C41"/><stop offset="1" stop-color="#D15000"/></radialGradient><radialGradient id="y" cx="0" cy="0" r="1" gradientTransform="matrix(10.9084 0 0 11.1988 39.627 13.812)" gradientUnits="userSpaceOnUse"><stop stop-color="#fff"/><stop offset=".1" stop-color="#FEFBF9"/><stop offset=".22" stop-color="#FBF0E9"/><stop offset=".36" stop-color="#F6DECF"/><stop offset=".51" stop-color="#F0C4AA"/><stop offset=".67" stop-color="#E7A47A"/><stop offset=".84" stop-color="#DD7C41"/><stop offset="1" stop-color="#D15000"/></radialGradient><radialGradient id="z" cx="0" cy="0" r="1" gradientTransform="matrix(4.96084 0 0 5.0929 48.208 6.965)" gradientUnits="userSpaceOnUse"><stop stop-color="#FFF261"/><stop offset=".11" stop-color="#FAEE5F"/><stop offset=".23" stop-color="#EDE15A"/><stop offset=".36" stop-color="#D6CB52"/><stop offset=".5" stop-color="#B7AD46"/><stop offset=".64" stop-color="#8E8736"/><stop offset=".78" stop-color="#5C5823"/><stop offset=".92" stop-color="#23210D"/><stop offset="1"/></radialGradient><radialGradient id="A" cx="0" cy="0" r="1" gradientTransform="matrix(5.08333 0 0 5.21865 30.67 19.177)" gradientUnits="userSpaceOnUse"><stop stop-color="#FFF261"/><stop offset=".11" stop-color="#FAEE5F"/><stop offset=".23" stop-color="#EDE15A"/><stop offset=".36" stop-color="#D6CB52"/><stop offset=".5" stop-color="#B7AD46"/><stop offset=".64" stop-color="#8E8736"/><stop offset=".78" stop-color="#5C5823"/><stop offset=".92" stop-color="#23210D"/><stop offset="1"/></radialGradient><radialGradient id="B" cx="0" cy="0" r="1" gradientTransform="matrix(5.38956 0 0 5.53303 46.683 19.338)" gradientUnits="userSpaceOnUse"><stop stop-color="#FFF261"/><stop offset=".11" stop-color="#FAEE5F"/><stop offset=".23" stop-color="#EDE15A"/><stop offset=".36" stop-color="#D6CB52"/><stop offset=".5" stop-color="#B7AD46"/><stop offset=".64" stop-color="#8E8736"/><stop offset=".78" stop-color="#5C5823"/><stop offset=".92" stop-color="#23210D"/><stop offset="1"/></radialGradient><radialGradient id="C" cx="0" cy="0" r="1" gradientTransform="matrix(21.2248 0 0 21.7898 59.243 4.457)" gradientUnits="userSpaceOnUse"><stop stop-color="#FCF800"/><stop offset="1" stop-color="#FC9700"/></radialGradient><radialGradient id="D" cx="0" cy="0" r="1" gradientTransform="matrix(20.2313 0 0 20.7698 62 6.574)" gradientUnits="userSpaceOnUse"><stop stop-color="#fff"/><stop offset=".1" stop-color="#FFFDF9"/><stop offset=".22" stop-color="#FFF7E9"/><stop offset=".36" stop-color="#FFECCF"/><stop offset=".51" stop-color="#FFDEAA"/><stop offset=".67" stop-color="#FFCC7A"/><stop offset=".84" stop-color="#FFB641"/><stop offset="1" stop-color="#FF9D00"/></radialGradient><radialGradient id="E" cx="0" cy="0" r="1" gradientTransform="matrix(18.6253 0 0 19.1211 56.596 .307)" gradientUnits="userSpaceOnUse"><stop stop-color="#FFF261"/><stop offset=".11" stop-color="#FAEE5F"/><stop offset=".23" stop-color="#EDE15A"/><stop offset=".36" stop-color="#D6CB52"/><stop offset=".5" stop-color="#B7AD46"/><stop offset=".64" stop-color="#8E8736"/><stop offset=".78" stop-color="#5C5823"/><stop offset=".92" stop-color="#23210D"/><stop offset="1"/></radialGradient><radialGradient id="F" cx="0" cy="0" r="1" gradientTransform="matrix(13.4875 0 0 13.8465 56.664 1.048)" gradientUnits="userSpaceOnUse"><stop stop-color="#FFFACF"/><stop offset="1"/></radialGradient><radialGradient id="G" cx="0" cy="0" r="1" gradientTransform="matrix(8.68318 0 0 8.91432 65.756 20.113)" gradientUnits="userSpaceOnUse"><stop/><stop offset=".08" stop-color="#232112"/><stop offset=".22" stop-color="#5C582E"/><stop offset=".36" stop-color="#8E8747"/><stop offset=".5" stop-color="#B7AE5C"/><stop offset=".64" stop-color="#D6CC6C"/><stop offset=".77" stop-color="#EDE277"/><stop offset=".89" stop-color="#FAEF7E"/><stop offset="1" stop-color="#FFF380"/></radialGradient><radialGradient id="H" cx="0" cy="0" r="1" gradientTransform="matrix(9.88766 0 0 10.1509 68.552 6.343)" gradientUnits="userSpaceOnUse"><stop stop-color="#FCAC00"/><stop offset="1" stop-color="#FF7300"/></radialGradient><radialGradient id="I" cx="0" cy="0" r="1" gradientTransform="matrix(9.08467 0 0 9.32651 63.687 21.308)" gradientUnits="userSpaceOnUse"><stop stop-color="#FC8F00"/><stop offset="1" stop-color="#E86900"/></radialGradient><radialGradient id="J" cx="0" cy="0" r="1" gradientTransform="matrix(11.3575 0 0 11.6599 73.473 13.889)" gradientUnits="userSpaceOnUse"><stop stop-color="#FCAC00"/><stop offset="1" stop-color="#FF7300"/></radialGradient><radialGradient id="K" cx="0" cy="0" r="1" gradientTransform="matrix(9.09148 0 0 9.33349 57.053 25.961)" gradientUnits="userSpaceOnUse"><stop stop-color="#FC8F00"/><stop offset="1" stop-color="#E86900"/></radialGradient><radialGradient id="L" cx="0" cy="0" r="1" gradientTransform="matrix(11.4732 0 0 11.7786 64.877 16.131)" gradientUnits="userSpaceOnUse"><stop stop-color="#fff"/><stop offset=".1" stop-color="#FEFBF9"/><stop offset=".22" stop-color="#FBF0E9"/><stop offset=".36" stop-color="#F6DECF"/><stop offset=".51" stop-color="#F0C4AA"/><stop offset=".67" stop-color="#E7A47A"/><stop offset=".84" stop-color="#DD7C41"/><stop offset="1" stop-color="#D15000"/></radialGradient><radialGradient id="M" cx="0" cy="0" r="1" gradientTransform="matrix(10.9084 0 0 11.1988 65.627 13.812)" gradientUnits="userSpaceOnUse"><stop stop-color="#fff"/><stop offset=".1" stop-color="#FEFBF9"/><stop offset=".22" stop-color="#FBF0E9"/><stop offset=".36" stop-color="#F6DECF"/><stop offset=".51" stop-color="#F0C4AA"/><stop offset=".67" stop-color="#E7A47A"/><stop offset=".84" stop-color="#DD7C41"/><stop offset="1" stop-color="#D15000"/></radialGradient><radialGradient id="N" cx="0" cy="0" r="1" gradientTransform="matrix(4.96084 0 0 5.0929 74.208 6.965)" gradientUnits="userSpaceOnUse"><stop stop-color="#FFF261"/><stop offset=".11" stop-color="#FAEE5F"/><stop offset=".23" stop-color="#EDE15A"/><stop offset=".36" stop-color="#D6CB52"/><stop offset=".5" stop-color="#B7AD46"/><stop offset=".64" stop-color="#8E8736"/><stop offset=".78" stop-color="#5C5823"/><stop offset=".92" stop-color="#23210D"/><stop offset="1"/></radialGradient><radialGradient id="O" cx="0" cy="0" r="1" gradientTransform="matrix(5.08333 0 0 5.21865 56.67 19.177)" gradientUnits="userSpaceOnUse"><stop stop-color="#FFF261"/><stop offset=".11" stop-color="#FAEE5F"/><stop offset=".23" stop-color="#EDE15A"/><stop offset=".36" stop-color="#D6CB52"/><stop offset=".5" stop-color="#B7AD46"/><stop offset=".64" stop-color="#8E8736"/><stop offset=".78" stop-color="#5C5823"/><stop offset=".92" stop-color="#23210D"/><stop offset="1"/></radialGradient><radialGradient id="P" cx="0" cy="0" r="1" gradientTransform="matrix(5.38956 0 0 5.53303 72.683 19.338)" gradientUnits="userSpaceOnUse"><stop stop-color="#FFF261"/><stop offset=".11" stop-color="#FAEE5F"/><stop offset=".23" stop-color="#EDE15A"/><stop offset=".36" stop-color="#D6CB52"/><stop offset=".5" stop-color="#B7AD46"/><stop offset=".64" stop-color="#8E8736"/><stop offset=".78" stop-color="#5C5823"/><stop offset=".92" stop-color="#23210D"/><stop offset="1"/></radialGradient><radialGradient id="Q" cx="0" cy="0" r="1" gradientTransform="matrix(21.2248 0 0 21.7898 85.242 4.457)" gradientUnits="userSpaceOnUse"><stop stop-color="#FCF800"/><stop offset="1" stop-color="#FC9700"/></radialGradient><radialGradient id="R" cx="0" cy="0" r="1" gradientTransform="matrix(20.2313 0 0 20.7698 87.999 6.574)" gradientUnits="userSpaceOnUse"><stop stop-color="#fff"/><stop offset=".1" stop-color="#FFFDF9"/><stop offset=".22" stop-color="#FFF7E9"/><stop offset=".36" stop-color="#FFECCF"/><stop offset=".51" stop-color="#FFDEAA"/><stop offset=".67" stop-color="#FFCC7A"/><stop offset=".84" stop-color="#FFB641"/><stop offset="1" stop-color="#FF9D00"/></radialGradient><radialGradient id="S" cx="0" cy="0" r="1" gradientTransform="matrix(18.6253 0 0 19.1211 82.595 .307)" gradientUnits="userSpaceOnUse"><stop stop-color="#FFF261"/><stop offset=".11" stop-color="#FAEE5F"/><stop offset=".23" stop-color="#EDE15A"/><stop offset=".36" stop-color="#D6CB52"/><stop offset=".5" stop-color="#B7AD46"/><stop offset=".64" stop-color="#8E8736"/><stop offset=".78" stop-color="#5C5823"/><stop offset=".92" stop-color="#23210D"/><stop offset="1"/></radialGradient><radialGradient id="T" cx="0" cy="0" r="1" gradientTransform="matrix(13.4875 0 0 13.8465 82.663 1.048)" gradientUnits="userSpaceOnUse"><stop stop-color="#FFFACF"/><stop offset="1"/></radialGradient><radialGradient id="U" cx="0" cy="0" r="1" gradientTransform="matrix(8.68318 0 0 8.91432 91.754 20.113)" gradientUnits="userSpaceOnUse"><stop/><stop offset=".08" stop-color="#232112"/><stop offset=".22" stop-color="#5C582E"/><stop offset=".36" stop-color="#8E8747"/><stop offset=".5" stop-color="#B7AE5C"/><stop offset=".64" stop-color="#D6CC6C"/><stop offset=".77" stop-color="#EDE277"/><stop offset=".89" stop-color="#FAEF7E"/><stop offset="1" stop-color="#FFF380"/></radialGradient><radialGradient id="V" cx="0" cy="0" r="1" gradientTransform="matrix(9.88766 0 0 10.1509 94.551 6.343)" gradientUnits="userSpaceOnUse"><stop stop-color="#FCAC00"/><stop offset="1" stop-color="#FF7300"/></radialGradient><radialGradient id="W" cx="0" cy="0" r="1" gradientTransform="matrix(9.08467 0 0 9.32651 89.686 21.308)" gradientUnits="userSpaceOnUse"><stop stop-color="#FC8F00"/><stop offset="1" stop-color="#E86900"/></radialGradient><radialGradient id="X" cx="0" cy="0" r="1" gradientTransform="matrix(11.3575 0 0 11.6599 99.472 13.889)" gradientUnits="userSpaceOnUse"><stop stop-color="#FCAC00"/><stop offset="1" stop-color="#FF7300"/></radialGradient><radialGradient id="Y" cx="0" cy="0" r="1" gradientTransform="matrix(9.09148 0 0 9.33349 83.05 25.961)" gradientUnits="userSpaceOnUse"><stop stop-color="#FC8F00"/><stop offset="1" stop-color="#E86900"/></radialGradient><radialGradient id="Z" cx="0" cy="0" r="1" gradientTransform="matrix(11.4732 0 0 11.7786 90.877 16.131)" gradientUnits="userSpaceOnUse"><stop stop-color="#fff"/><stop offset=".1" stop-color="#FEFBF9"/><stop offset=".22" stop-color="#FBF0E9"/><stop offset=".36" stop-color="#F6DECF"/><stop offset=".51" stop-color="#F0C4AA"/><stop offset=".67" stop-color="#E7A47A"/><stop offset=".84" stop-color="#DD7C41"/><stop offset="1" stop-color="#D15000"/></radialGradient><radialGradient id="aa" cx="0" cy="0" r="1" gradientTransform="matrix(10.9084 0 0 11.1988 91.625 13.812)" gradientUnits="userSpaceOnUse"><stop stop-color="#fff"/><stop offset=".1" stop-color="#FEFBF9"/><stop offset=".22" stop-color="#FBF0E9"/><stop offset=".36" stop-color="#F6DECF"/><stop offset=".51" stop-color="#F0C4AA"/><stop offset=".67" stop-color="#E7A47A"/><stop offset=".84" stop-color="#DD7C41"/><stop offset="1" stop-color="#D15000"/></radialGradient><radialGradient id="ab" cx="0" cy="0" r="1" gradientTransform="matrix(4.96084 0 0 5.0929 100.206 6.965)" gradientUnits="userSpaceOnUse"><stop stop-color="#FFF261"/><stop offset=".11" stop-color="#FAEE5F"/><stop offset=".23" stop-color="#EDE15A"/><stop offset=".36" stop-color="#D6CB52"/><stop offset=".5" stop-color="#B7AD46"/><stop offset=".64" stop-color="#8E8736"/><stop offset=".78" stop-color="#5C5823"/><stop offset=".92" stop-color="#23210D"/><stop offset="1"/></radialGradient><radialGradient id="ac" cx="0" cy="0" r="1" gradientTransform="matrix(5.08333 0 0 5.21865 82.67 19.177)" gradientUnits="userSpaceOnUse"><stop stop-color="#FFF261"/><stop offset=".11" stop-color="#FAEE5F"/><stop offset=".23" stop-color="#EDE15A"/><stop offset=".36" stop-color="#D6CB52"/><stop offset=".5" stop-color="#B7AD46"/><stop offset=".64" stop-color="#8E8736"/><stop offset=".78" stop-color="#5C5823"/><stop offset=".92" stop-color="#23210D"/><stop offset="1"/></radialGradient><radialGradient id="ad" cx="0" cy="0" r="1" gradientTransform="matrix(5.38956 0 0 5.53303 98.682 19.338)" gradientUnits="userSpaceOnUse"><stop stop-color="#FFF261"/><stop offset=".11" stop-color="#FAEE5F"/><stop offset=".23" stop-color="#EDE15A"/><stop offset=".36" stop-color="#D6CB52"/><stop offset=".5" stop-color="#B7AD46"/><stop offset=".64" stop-color="#8E8736"/><stop offset=".78" stop-color="#5C5823"/><stop offset=".92" stop-color="#23210D"/><stop offset="1"/></radialGradient><radialGradient id="ae" cx="0" cy="0" r="1" gradientTransform="matrix(21.2248 0 0 21.7898 111.242 4.457)" gradientUnits="userSpaceOnUse"><stop stop-color="#FCF800"/><stop offset="1" stop-color="#FC9700"/></radialGradient><radialGradient id="af" cx="0" cy="0" r="1" gradientTransform="matrix(20.2313 0 0 20.7698 113.999 6.574)" gradientUnits="userSpaceOnUse"><stop stop-color="#fff"/><stop offset=".1" stop-color="#FFFDF9"/><stop offset=".22" stop-color="#FFF7E9"/><stop offset=".36" stop-color="#FFECCF"/><stop offset=".51" stop-color="#FFDEAA"/><stop offset=".67" stop-color="#FFCC7A"/><stop offset=".84" stop-color="#FFB641"/><stop offset="1" stop-color="#FF9D00"/></radialGradient><radialGradient id="ag" cx="0" cy="0" r="1" gradientTransform="matrix(18.6253 0 0 19.1211 108.595 .307)" gradientUnits="userSpaceOnUse"><stop stop-color="#FFF261"/><stop offset=".11" stop-color="#FAEE5F"/><stop offset=".23" stop-color="#EDE15A"/><stop offset=".36" stop-color="#D6CB52"/><stop offset=".5" stop-color="#B7AD46"/><stop offset=".64" stop-color="#8E8736"/><stop offset=".78" stop-color="#5C5823"/><stop offset=".92" stop-color="#23210D"/><stop offset="1"/></radialGradient><radialGradient id="ah" cx="0" cy="0" r="1" gradientTransform="matrix(13.4875 0 0 13.8465 108.663 1.048)" gradientUnits="userSpaceOnUse"><stop stop-color="#FFFACF"/><stop offset="1"/></radialGradient><radialGradient id="ai" cx="0" cy="0" r="1" gradientTransform="matrix(8.68318 0 0 8.91432 117.754 20.113)" gradientUnits="userSpaceOnUse"><stop/><stop offset=".08" stop-color="#232112"/><stop offset=".22" stop-color="#5C582E"/><stop offset=".36" stop-color="#8E8747"/><stop offset=".5" stop-color="#B7AE5C"/><stop offset=".64" stop-color="#D6CC6C"/><stop offset=".77" stop-color="#EDE277"/><stop offset=".89" stop-color="#FAEF7E"/><stop offset="1" stop-color="#FFF380"/></radialGradient><radialGradient id="aj" cx="0" cy="0" r="1" gradientTransform="matrix(9.88766 0 0 10.1509 120.551 6.343)" gradientUnits="userSpaceOnUse"><stop stop-color="#FCAC00"/><stop offset="1" stop-color="#FF7300"/></radialGradient><radialGradient id="ak" cx="0" cy="0" r="1" gradientTransform="matrix(9.08467 0 0 9.32651 115.686 21.308)" gradientUnits="userSpaceOnUse"><stop stop-color="#FC8F00"/><stop offset="1" stop-color="#E86900"/></radialGradient><radialGradient id="al" cx="0" cy="0" r="1" gradientTransform="matrix(11.3575 0 0 11.6599 125.472 13.889)" gradientUnits="userSpaceOnUse"><stop stop-color="#FCAC00"/><stop offset="1" stop-color="#FF7300"/></radialGradient><radialGradient id="am" cx="0" cy="0" r="1" gradientTransform="matrix(9.09148 0 0 9.33349 109.051 25.961)" gradientUnits="userSpaceOnUse"><stop stop-color="#FC8F00"/><stop offset="1" stop-color="#E86900"/></radialGradient><radialGradient id="an" cx="0" cy="0" r="1" gradientTransform="matrix(11.4732 0 0 11.7786 116.877 16.131)" gradientUnits="userSpaceOnUse"><stop stop-color="#fff"/><stop offset=".1" stop-color="#FEFBF9"/><stop offset=".22" stop-color="#FBF0E9"/><stop offset=".36" stop-color="#F6DECF"/><stop offset=".51" stop-color="#F0C4AA"/><stop offset=".67" stop-color="#E7A47A"/><stop offset=".84" stop-color="#DD7C41"/><stop offset="1" stop-color="#D15000"/></radialGradient><radialGradient id="ao" cx="0" cy="0" r="1" gradientTransform="matrix(10.9084 0 0 11.1988 117.625 13.812)" gradientUnits="userSpaceOnUse"><stop stop-color="#fff"/><stop offset=".1" stop-color="#FEFBF9"/><stop offset=".22" stop-color="#FBF0E9"/><stop offset=".36" stop-color="#F6DECF"/><stop offset=".51" stop-color="#F0C4AA"/><stop offset=".67" stop-color="#E7A47A"/><stop offset=".84" stop-color="#DD7C41"/><stop offset="1" stop-color="#D15000"/></radialGradient><radialGradient id="ap" cx="0" cy="0" r="1" gradientTransform="matrix(4.96084 0 0 5.0929 126.206 6.965)" gradientUnits="userSpaceOnUse"><stop stop-color="#FFF261"/><stop offset=".11" stop-color="#FAEE5F"/><stop offset=".23" stop-color="#EDE15A"/><stop offset=".36" stop-color="#D6CB52"/><stop offset=".5" stop-color="#B7AD46"/><stop offset=".64" stop-color="#8E8736"/><stop offset=".78" stop-color="#5C5823"/><stop offset=".92" stop-color="#23210D"/><stop offset="1"/></radialGradient><radialGradient id="aq" cx="0" cy="0" r="1" gradientTransform="matrix(5.08333 0 0 5.21865 108.67 19.177)" gradientUnits="userSpaceOnUse"><stop stop-color="#FFF261"/><stop offset=".11" stop-color="#FAEE5F"/><stop offset=".23" stop-color="#EDE15A"/><stop offset=".36" stop-color="#D6CB52"/><stop offset=".5" stop-color="#B7AD46"/><stop offset=".64" stop-color="#8E8736"/><stop offset=".78" stop-color="#5C5823"/><stop offset=".92" stop-color="#23210D"/><stop offset="1"/></radialGradient><radialGradient id="ar" cx="0" cy="0" r="1" gradientTransform="matrix(5.38956 0 0 5.53303 124.682 19.338)" gradientUnits="userSpaceOnUse"><stop stop-color="#FFF261"/><stop offset=".11" stop-color="#FAEE5F"/><stop offset=".23" stop-color="#EDE15A"/><stop offset=".36" stop-color="#D6CB52"/><stop offset=".5" stop-color="#B7AD46"/><stop offset=".64" stop-color="#8E8736"/><stop offset=".78" stop-color="#5C5823"/><stop offset=".92" stop-color="#23210D"/><stop offset="1"/></radialGradient></defs></svg>