<svg xmlns="http://www.w3.org/2000/svg" width="213" height="128" fill="none" viewBox="0 0 213 128"><path fill="url(#paint0_radial_7_147)" d="M106.165 128c57.467 0 104.053-28.654 104.053-64S163.632 0 106.165 0 2.111 28.654 2.111 64s46.587 64 104.054 64" style="mix-blend-mode:screen"/><path fill="#4ABAFF" d="M29.518 95.462c.044.405 5.197 15.761 23.579 15.98 18.381.219 25.486-13.103 25.486-13.103s-6.448 8.219-14.904 10.193c-8.456 1.973-15.43 1.927-19.939-.246S31.05 94.332 31.05 94.332zm94.978.585s7.405 16.85 27.626 15.614c20.22-1.236 29.495-18.266 29.495-18.266s-16.061 15.575-27.763 16.293c-19.964 1.202-29.358-13.642-29.358-13.642"/><path fill="url(#a)" d="M81.93 88.28s-1.808 22.511-27.52 22.777c-25.711.265-26.2-25.343-26.2-25.343l3.403-.18c.248 3.365.96 6.671 2.114 9.815 2.502 6.797 7.943 14.492 19.701 13.701 11.258-.744 17.419-6.233 20.715-11.083a23.5 23.5 0 0 0 3.527-7.741z"/><path fill="#89C2FE" d="M81.93 88.28s-1.808 22.511-27.52 22.777c-25.711.265-26.2-25.343-26.2-25.343l3.403-.18c.248 3.365.96 6.671 2.114 9.815-.412.884-1.138 3.322.95 6.644 2.659 4.24 15.862 14.452 33.524 5.363 7.674-3.947 8.2-7.19 5.942-9.376a23.5 23.5 0 0 0 3.527-7.74z" style="mix-blend-mode:multiply"/><path fill="#4ABAFF" d="M45.473 98.339s9.606 28.312 30.965 27.242c21.358-1.069 26.131-23.036 26.131-23.036s-6.524 18.844-21.772 20.425-26.174-7.668-27.169-12.08c-.994-4.412-8.155-12.551-8.155-12.551"/><path fill="url(#b)" d="M106.615 78.777v.771c-.15 5.907-2.158 43.854-29.452 45.249-7.455.372-13.66-2.657-18.763-7.402a43.5 43.5 0 0 1-5.29-5.94c-9.207-12.279-13.542-29.143-14.436-32.957-.125-.511-.181-.79-.181-.79h6.773a101.2 101.2 0 0 0 5.504 22.511c4.128 10.824 11.126 21.575 22.666 22.12 17.268.817 24.573-11.442 27.631-23.076a71.3 71.3 0 0 0 2.127-19.987l.719-.1z"/><path fill="#89C2FE" d="M50.851 107.169a21.8 21.8 0 0 0 2.246 4.273c-9.207-12.28-13.541-29.143-14.435-32.957l4.665-.79h1.94a101.2 101.2 0 0 0 5.503 22.511c-.738.997-1.414 3.023.081 6.963m55.758-27.621c-.15 5.907-2.158 43.854-29.451 45.249-7.456.372-13.66-2.657-18.763-7.402 5.491 4.659 12.364 7.089 19.388 6.857 15.336-.292 24.536-19.501 23.885-23.72a2.14 2.14 0 0 0-.625-1.283 71.2 71.2 0 0 0 2.151-19.973l.72-.1z" style="mix-blend-mode:multiply"/><path fill="url(#c)" d="M189.86 79.116s-10.501 30.346-38.664 31.728c-27.519 1.329-31.272-27.741-31.409-29.077a.2.2 0 0 1 0-.053h.05l3.402-.292a39.4 39.4 0 0 0 4.691 14.997c3.753 6.604 10.551 12.77 22.622 12.159a31.1 31.1 0 0 0 12.938-3.374c4.048-2.058 7.654-4.981 10.591-8.586 3.907-4.731 6.838-10.279 8.606-16.286z"/><path fill="#89C2FE" d="M189.86 79.116s-10.501 30.346-38.664 31.728c-27.519 1.329-31.272-27.741-31.409-29.077l.043-.053 3.403-.292a39.3 39.3 0 0 0 4.691 14.997c-.626.365-.964 1.329.318 3.641 2.671 4.804 8.925 12.113 27.645 9.614 14.435-1.926 18.5-9.495 18.187-13.07 3.908-4.726 6.842-10.269 8.613-16.272z" style="mix-blend-mode:multiply"/><path fill="#4ABAFF" d="M1.604 39.316s.789 11.7 9.182 17.162 13.897 3.735 13.897 3.735zm7.944 54.631c.031.285.313 6.491 1.876 8.053 1.564 1.561 16.843.332 23.854-11.74 7.011-12.074-25.73 3.687-25.73 3.687m168.21-3.429s14.385 11.96 22.053 9.043c3.127-1.176-19.013-16.106-19.013-16.106zm34.437-62.578s-1.251 5.27-1.557 5.316-2.221-.1-2.915.578-.976-1.947-.882-1.994 5.354-3.9 5.354-3.9m-3.766 8.904a42.3 42.3 0 0 1-5.003 8.638 38 38 0 0 1-6.999 7.05v-3.323z"/><path fill="#115434" d="M27.923 59.402c-1.421.214-2.86.26-4.29.14-4.834-.355-9.492-2.068-13.497-4.964C1.023 48.08-.272 29.09.04 26.85c.313-2.239 2.114-6.132 2.114-6.132z"/><path fill="#89C2FE" d="M23.632 59.542c-4.833-.355-9.49-2.068-13.497-4.964C4.42 49.887 3.75 40.691 5.208 42.392c4.278 4.983 17.156 11.296 17.156 11.296z" style="mix-blend-mode:multiply"/><path fill="#115434" d="M11.88 19.86a7.4 7.4 0 0 0 5.004 1.15 10.7 10.7 0 0 0 4.078-1.515l.15 2.884-8.274.432z"/><path fill="url(#d)" d="M40.025 46.419a8.9 8.9 0 0 1-2.502 3.515c-3.23 2.983-7.26 4.819-11.52 5.249-4.263.43-8.544-.567-12.246-2.85C8.04 48.91 4.307 39.275 2.624 31.507c-1.176-5.455-1.345-9.966-.47-10.79 1.077-.99 4.635-1.668 8.976-1.814q.11.184.244.352a5.8 5.8 0 0 0 2.174 1.942 5.4 5.4 0 0 0 2.786.59 6.26 6.26 0 0 0 3.383-1.07 5.4 5.4 0 0 0 1.25-1.223c3.922.618 7.506 1.76 9.676 3.555a52 52 0 0 1 3.697 3.355l.306.313c9.244 9.508 6.511 15.807 5.379 19.7"/><path fill="url(#e)" d="M39 60.565c-4.284-8.663-9.616-16.694-15.862-23.887-4.626-5.413-9.997-10.05-15.93-13.754a45 45 0 0 0-4.083-2.2c.425.093 14.103 3.382 28.87 21.263 15.016 18.18 7.004 18.578 7.004 18.578" opacity="0.6" style="mix-blend-mode:multiply"/><path fill="#CBE4FE" d="M23.139 36.658c-4.628-5.406-9.998-10.036-15.93-13.734a52 52 0 0 1 9.05 5.887 30.6 30.6 0 0 1 6.88 7.847" style="mix-blend-mode:multiply"/><path fill="url(#f)" d="M37.524 49.934c-3.231 2.983-7.26 4.819-11.521 5.249s-8.544-.567-12.246-2.85C8.041 48.91 4.307 39.275 2.625 31.507c2.032 3.555 5.247 7.509 10.05 9.562 9.075 3.887 20.014-12.106 21.653-14.665l.225-.345.081.664z" style="mix-blend-mode:multiply"/><path fill="url(#g)" d="M9.723 37.502C2.887 34.179.829 22.219 2.624 20.718c1.595-1.33 5.066-1.695 8.756-1.462a5.8 5.8 0 0 0 2.174 1.942 5.4 5.4 0 0 0 2.786.59 6.26 6.26 0 0 0 3.384-1.07c1.29.31 2.514.88 3.602 1.68 2.583 2.433-6.773 18.46-13.603 15.104" opacity="0.5" style="mix-blend-mode:screen"/><path fill="#353600" d="M3.125 21.522c-2.364-.565.181 9.415 3.314 11.62 3.134 2.207 10.289.393 10.007-1.48-.281-1.875-8.105-8.891-13.321-10.14" opacity="0.5" style="mix-blend-mode:screen"/><path fill="#115434" d="M30.544 4.598s-5.58 4.465-6.292 17.502c-.582 10.63 1.457 18.06 1.457 18.06L39 32.764z"/><path fill="url(#h)" d="M48.587 38.89c-3.921 11.814-12.433 10.632-18.644 6.253-1.764-1.25-2.977-6.572-3.49-13.004-.525-6.644-.3-14.478.863-20.192.707-3.502 1.777-6.206 3.221-7.349 1.301-1.03 9.22 7.595 14.285 17.156a44 44 0 0 1 3.334 7.814c1 3.442 1.307 6.684.431 9.322"/><path fill="url(#i)" d="M40.207 36.465s-.37-3.362-1.251-8.053c-1.007-5.362-2.683-12.465-5.248-18.22v-.04a31.3 31.3 0 0 0-2.658-4.896c.626.83 10.633 14.352 11.04 30.664.393 16.844-1.883.545-1.883.545" opacity="0.6" style="mix-blend-mode:multiply"/><path fill="url(#j)" d="M48.156 29.568 26.453 32.14c-.525-6.644-.3-14.478.863-20.192.2 4.73 1.802 10.073 7.78 10.644 5.104.485 8.044-.086 9.726-.837a44 44 0 0 1 3.334 7.814" style="mix-blend-mode:multiply"/><path fill="url(#k)" d="M30.7 4.598c-.788-.086-4.74 6.266-1.876 11.82 2.864 5.556 12.508 6.645 14.591 4.938C45.498 19.648 33.033 4.837 30.7 4.598" opacity="0.5" style="mix-blend-mode:screen"/><path fill="#353600" d="M30.725 5.21c-.895-.413-3.44 4.803-2.34 8.51 1.101 3.709 8.757 9.383 8.582 6.778-.176-2.604-5.123-14.777-6.242-15.289" opacity="0.5" style="mix-blend-mode:screen"/><path fill="#CBE4FE" d="m39.788 28.571-.832-.166c-1.007-5.355-2.683-12.458-5.248-18.212a41.3 41.3 0 0 1 3.71 9.302c1.907 6.651 2.37 9.076 2.37 9.076" style="mix-blend-mode:multiply"/><path fill="#115434" d="M206.441 7.163s5.529 11.13-2.502 25.714c-8.03 14.585-15.992 5.894-15.992 5.894z"/><path fill="#89C2FE" d="M206.591 18.665c.144-.565 1.251 3.873.119 9.01s-3.584 2.744-3.584 2.744 3.096-10.273 3.465-11.754" style="mix-blend-mode:multiply"/><path fill="url(#l)" d="M206.935 15.216c-1.026 8.85-5.085 22.113-10.113 28.478a12.8 12.8 0 0 1-2.502 2.492c-5.992 4.379-11.145 1.84-14.929-1.84a37.3 37.3 0 0 1-4.835-6.034c-4.334-6.505-.168-13.289 6.386-18.963C189.504 12 202.088 6.645 205.246 6.465c1.864-.093 2.296 3.575 1.689 8.75"/><path fill="url(#m)" d="M205.39 7.17c-12.296 9.64-22.334 24.524-22.334 24.524l-2.971-1.382a55 55 0 0 1 4.021-4.578c2.033-2.133 4.891-4.923 8.682-8.2l.769-.664c8.03-6.903 11.583-9.561 11.833-9.7" opacity="0.6" style="mix-blend-mode:multiply"/><path fill="url(#n)" d="M206.935 15.216c-1.026 8.85-5.085 22.113-10.113 28.478-5.761.24-12.459.492-17.419.665a37.2 37.2 0 0 1-4.834-6.033c-4.335-6.505-.169-13.29 6.385-18.964.651 3.608 5.329 6.552 25.981-4.146" style="mix-blend-mode:multiply"/><path fill="url(#o)" d="M204.933 6.804c-2.051-.664-23.641 10.007-21.752 12.279s19.388-2.106 21.471-4.87 1.77-6.944.281-7.409" opacity="0.5" style="mix-blend-mode:screen"/><path fill="#353600" d="M205.308 7.814c-1.319-.246-8.537 6.452-6.804 7.8 1.732 1.35 7.111.446 8.18-1.122 1.07-1.568-.043-6.432-1.376-6.678" opacity="0.5" style="mix-blend-mode:screen"/><path fill="#CBE4FE" d="M193.557 16.87c-4.41 4.452-9.107 9.628-9.382 9.788l-.1-.924c2.033-2.133 4.891-4.923 8.681-8.2z" style="mix-blend-mode:multiply"/><path fill="#115434" d="M172.992 26.578a4.4 4.4 0 0 1-.506 2.306c-2.246 3.986-11.208 1.329-11.208 1.329l-.744-27.914s2.739 0 5.629 3.987c.906 1.242 4.784 9.302 6.254 16.08a23.6 23.6 0 0 1 .575 4.212"/><path fill="#89C2FE" d="M172.993 26.578a4.4 4.4 0 0 1-.507 2.306c-1.182.664-3.033.06-3.033.06s-3.284-15.11-2.014-15.808c1.269-.697 3.502 4.425 5.003 9.19a23.7 23.7 0 0 1 .551 4.252" style="mix-blend-mode:multiply"/><path fill="url(#p)" d="M171.154 32.12a2.3 2.3 0 0 1-.907 1.103c-4.134 2.877-19.226.431-20.739-1.542a3.25 3.25 0 0 1-.551-1.256c-.625-2.551.169-7.309 1.664-12.226 2.452-7.973 6.78-16.305 9.913-15.88 1.17.16 2.902 2.943 4.641 6.77 3.558 7.821 7.148 20.027 5.979 23.03"/><path fill="url(#q)" d="M158.02 31.728c.137.146-2.321 12.538-2.834-2.917v-1.788a59.6 59.6 0 0 1 3.353-20.206q.658-1.901 1.545-3.694c-4.303 14.153-2.19 28.458-2.064 28.605" opacity="0.6" style="mix-blend-mode:multiply"/><path fill="url(#r)" d="M171.154 32.12a2.3 2.3 0 0 1-.907 1.103c-4.885-.665-13.885-1.834-21.265-2.798-.625-2.551.169-7.309 1.664-12.226 1.42 2.186 4.378 4.651 10.47 3.176 5.528-1.328 5.353-7.242 4.084-12.285 3.533 7.82 7.123 20.026 5.954 23.03" style="mix-blend-mode:multiply"/><path fill="url(#s)" d="M159.746 2.591c-1.057-.279-9.901 13.781-7.787 15.681s12.127-.863 12.527-6.69c.401-5.828-3.533-8.665-4.74-8.99" opacity="0.5" style="mix-blend-mode:screen"/><path fill="#353600" d="M160.428 3.548c-1.095-.12-2.902 10.751-1.877 11.914s5.379-1.07 5.748-4.492-2.095-7.222-3.871-7.422" opacity="0.5" style="mix-blend-mode:screen"/><path fill="#CBE4FE" d="m156.318 26.385-1.163.665a59.7 59.7 0 0 1 3.352-20.206c-3.402 11.674-2.189 19.541-2.189 19.541" style="mix-blend-mode:multiply"/><path fill="#115434" d="M211.945 25.674s-1.558-1.588-10.045-1.421a55.3 55.3 0 0 0-15.01 2.372l5.522 6.252zm-3.515 11.17s-.594-2.399.588-3.648-2.627-1.143-2.627-1.143l-.313 4.492z"/><path fill="url(#t)" d="M211.582 30.053c-.307.87-.701 1.834-1.163 2.857h-.426c-.963.107-2.02.499-2.164 1.681a2.96 2.96 0 0 0 .613 2.193c-4.803 8.638-13.065 18.718-19.044 15.767-9.788-4.81-8.206-19.03-6.63-21.295 1.826-2.658 9.081-4.578 15.942-5.562 6.055-.863 11.809-.963 13.247-.08.644.46.444 2.12-.375 4.44"/><path fill="url(#u)" d="m209.981 29.495-.094.126c-3.309 5.166-7.524 9.606-12.415 13.077a29.85 29.85 0 0 1-12.027 4.983c-17.387 2.857-.744-3.661-.744-3.661s12.94.246 27.244-17.94a24 24 0 0 1-1.964 3.415" opacity="0.6" style="mix-blend-mode:multiply"/><path fill="url(#v)" d="M207.973 36.027c.109.297.263.573.457.817-4.804 8.638-13.066 18.718-19.045 15.767-9.788-4.81-8.206-19.03-6.63-21.295 1.827-2.658 9.082-4.578 15.943-5.562-3.878 3.575-12.453 12.744-2.502 16.093 4.566 1.535 8.543-1.435 11.777-5.82" style="mix-blend-mode:multiply"/><path fill="url(#w)" d="M211.569 30.08c-.306.87-.7 1.834-1.163 2.857h-.426a41 41 0 0 0 1.589-2.857" style="mix-blend-mode:multiply"/><path fill="url(#x)" d="M211.307 25.754c-.626-.877-10.364-.87-11.596 1.21s-.744 10.245 2.302 10.784c3.046.538 10.063-10.878 9.294-11.994" opacity="0.5" style="mix-blend-mode:screen"/><path fill="#353600" d="M200.299 26.638c-.838.438-.913 6.026 1.332 6.585 2.245.558 10.388-5.98 9.625-7.077s-7.367-1.382-10.957.492" opacity="0.5" style="mix-blend-mode:screen"/><path fill="#CBE4FE" d="M209.887 29.621c-3.309 5.166-7.524 9.606-12.415 13.077a6 6 0 0 1-.175-1.024c0-.159 2.189-1.036 5.629-4.066a53.3 53.3 0 0 0 6.961-7.987" style="mix-blend-mode:multiply"/><path fill="#115434" d="m37.643 54.93-26.388 45.602s-3.608-8.326-1.538-19.708a40.3 40.3 0 0 1 2.833-9.203c2.582-5.712 6.947-10.297 12.352-12.976a34.2 34.2 0 0 1 12.74-3.715"/><path fill="#89C2FE" d="M10.324 83.057a7.8 7.8 0 0 1-.626-2.22 40.3 40.3 0 0 1 2.833-9.202c2.585-5.72 6.957-10.312 12.372-12.99 14.497.677-11.771 29.315-14.58 24.411" style="mix-blend-mode:multiply"/><path fill="url(#y)" d="M11.256 100.532a1.1 1.1 0 0 1-.244-.266c-1.614-2.359-1.99-15.854 2.408-25.25.433-.939.928-1.845 1.482-2.71 5.466-8.558 13.009-13.914 18.763-15.283 3.277-.777 5.973-.259 7.38 1.714a6.24 6.24 0 0 1 1.063 3.482c1.57 40.273-28.976 39.688-30.852 38.313"/><path fill="#353600" d="M11.017 97.954c.87 1.56 13.066-11.848 13.235-14.519s-7.506-9.594-9.282-8.073c-1.776 1.522-7.036 17.063-3.953 22.592" opacity="0.5" style="mix-blend-mode:screen"/><path fill="url(#z)" d="M43.74 62.372s-8.6 15.176-17.7 25.096-14.603 12.545-14.603 12.545a125 125 0 0 0 4.64-4.538 111.3 111.3 0 0 0 12.69-15.668c6.017-9.036 8.13-15.395 8.13-15.395z" opacity="0.6" style="mix-blend-mode:multiply"/><path fill="url(#A)" d="M11.255 100.532a1.1 1.1 0 0 1-.244-.266C24.09 102.87 33.571 84.06 25.496 76.89c-4.059-3.608-8.55-3.222-12.077-1.9q.651-1.412 1.482-2.711c5.467-8.558 13.01-13.914 18.763-15.282l7.38 1.714a6.24 6.24 0 0 1 1.064 3.482c1.57 40.299-28.976 39.714-30.853 38.339" style="mix-blend-mode:multiply"/><path fill="#115434" d="M10.549 84.804c-.5-.665-.626-6.226 1.663-6.79 2.29-.566-.781 8-1.663 6.79"/><path fill="#89C2FE" d="M10.255 82.904c0 .339.988-2.38 1.282-1.788.293.592.625 1.27 1.02.718.393-.552.893-3.668 0-3.794-.895-.126-2.415 1.156-2.302 4.864" style="mix-blend-mode:multiply"/><path fill="#CBE4FE" d="M29.042 79.84a41.5 41.5 0 0 1-4.96 7.868c-2.614 2.996-7.674 7.461-7.986 7.74a111.4 111.4 0 0 0 12.671-15.64z" style="mix-blend-mode:multiply"/><path fill="#115434" d="M202.432 95.017c-2.052 11.96-16.887-25.88-16.887-25.88l8.525-6.147 1.538-1.11a105 105 0 0 1 5.191 15.562c1.483 5.967 2.496 12.531 1.633 17.575"/><path fill="#89C2FE" d="M200.537 78.332c-1.551-.664-6.373-9.907-6.373-9.907l-.094-5.435 1.538-1.11a105 105 0 0 1 5.191 15.562c.044.658-.037.963-.262.89" style="mix-blend-mode:multiply"/><path fill="url(#B)" d="M201.644 97.734a3.4 3.4 0 0 1-1.175 1.468 3.1 3.1 0 0 1-1.733.565c-3.653.08-9.075-2.126-13.979-5.255-6.085-3.9-11.376-9.243-11.483-13.455a4.45 4.45 0 0 1 .363-1.94c.088-.2.194-.413.306-.625 2.69-5.083 11.784-12.758 18.451-11.96 5.904.757 12.802 24.1 9.25 31.202"/><path fill="url(#C)" d="M199.405 99.336c-4.944-2.665-9.333-6.36-12.903-10.864-5.767-7.369-6.323-11.648-6.323-11.648l2.564-1.389a41.6 41.6 0 0 0 3.634 9.568c.281.572.594 1.156.925 1.761 2.252 4.106 6.399 7.974 9.201 10.312h.043c1.608 1.37 2.765 2.193 2.859 2.26" opacity="0.6" style="mix-blend-mode:multiply"/><path fill="url(#D)" d="M201.644 97.734c-.344-4.378-1.733-10.1-6.342-13.03-5.554-3.528-8.988 4.432-10.545 9.808-6.086-3.9-11.377-9.243-11.483-13.455l.669-2.565c2.69-5.083 11.783-12.758 18.45-11.96 5.905.757 12.803 24.1 9.251 31.202" style="mix-blend-mode:multiply"/><path fill="#353600" d="M190.13 88.97c-1.145 1.595 7.148 9.216 9.75 9.415 2.602.2-.738-10.704-3.315-12.624s-5.184 1.462-6.435 3.21" opacity="0.5" style="mix-blend-mode:screen"/><path fill="#CBE4FE" d="M196.502 97.077c-8.287-6.094-10.87-11.914-10.932-11.914l.807-.16c.281.572.594 1.156.925 1.761 2.252 4.107 6.398 7.974 9.2 10.313" style="mix-blend-mode:multiply"/><path fill="#97D13D" d="M30.957 6.02c-.476-.452.512 3.123 1.3 4.87.789 1.748 2.434 3.728 2.358 2.864-.075-.864-2.883-7.01-3.658-7.734M2.78 21.734c-.474.087 1.396 2.406 2.503 2.797 1.107.393 3.127.054 2.62-.664s-3.915-2.345-5.122-2.133M159.727 5.043c-.225.106-1.176 4.611-.882 4.97.294.36 1.488-.571 1.626-1.873s-.563-3.177-.744-3.097m38.377 8.944c-.663.87 2.658-.665 3.377-1.183s1.876-3.435 1.52-3.435c-.357 0-3.884 3.296-4.897 4.618m-3.947 79.408c-.951-.053 3.252 4.107 4.628 4.34s1.207-3.994-4.628-4.34"/><path fill="#4ABAFF" d="M23.32 74.027s.25 12.996 4.272 15.568c4.021 2.571 160.254 5.415 163.926-.99 2.301-3.987 3.752-18.107 3.752-18.107z"/><path fill="url(#E)" d="M199.011 35.508c0 11.176-4.378 47.382-8.488 52.193q-.085.11-.187.2c-5.698 5.315-158.666 3.388-163.17 0a1.5 1.5 0 0 1-.187-.167c-1.764-1.854-3.428-10.85-4.66-21.076-1.25-10.598-2.101-22.519-2.101-29.183 0-.99 0-1.854.056-2.591q.035-.893.169-1.774l.882-5.077c.087-.492.194-.784.338-.85 13.972-6.558 130.89-5.575 166.365-1.794 5.116.545 8.537 1.15 9.707 1.794.112.06.2.292.269.664l.875 5.07c.113.858.157 1.725.132 2.591"/><path fill="#6E1A46" d="M190.523 87.708q-.085.11-.187.199c-5.698 5.316-158.667 3.389-163.17 0a1.5 1.5 0 0 1-.187-.166 11.9 11.9 0 0 1 1.007-5.449s159.129-3.222 160.736-1.515c1.445 1.522 1.351 2.745 1.801 6.93" opacity="0.4" style="mix-blend-mode:multiply"/><path fill="url(#F)" d="M197.128 45.023a250 250 0 0 1-.519 4.698 309 309 0 0 1-1.288 9.708 322 322 0 0 1-.526 3.448.2.2 0 0 1 0 .053l-.031.153c-1.526 9.435-3.402 17.469-5.21 19.156-.625.578-3.021 1.07-6.792 1.489-3.872.425-9.213.77-15.573 1.03-43.631 1.827-135.72.086-139.185-2.519-.975-.737-1.932-3.747-2.802-8.013-.556-2.764-1.082-6.06-1.557-9.595-.1-.757-.2-1.528-.306-2.305v-.26a55 55 0 0 0-.12-.996c0-.2-.043-.36-.055-.445a.4.4 0 0 0 0-.08 324 324 0 0 1-1.657-18.585c0-.531-.063-1.043-.088-1.555v-.365c-.382-7.243-.338-12.578.319-12.877 15.986-7.509 166.753-5.136 176.053 0 .675.432.331 8.232-.663 17.86"/><path fill="#FF6D40" d="M197.128 45.023c.031-.478.925-15.229-1.827-16.551-9.919-4.778-166.821-7.974-172.056.883-2.32 3.914-1.94 9.303-1.877 10.705-.381-7.243-.337-12.578.32-12.877 15.985-7.509 166.752-5.136 176.053 0 .725.412.381 8.212-.613 17.84M23.139 60.565v.027z"/><path fill="#C93B28" d="M194.745 63.123c-1.526 9.435-3.402 17.468-5.21 19.156-5.629 5.27-157.09 3.362-161.55 0-1.744-1.329-3.408-9.894-4.665-19.933.625 4.378 2.608 15.441 7.636 18.531 6.323 3.88 150.029 3.322 155.733-.458 5.248-3.502 7.706-15.449 8.056-17.296"/><path fill="#C93B28" d="M124.59 83.455s14.686-4.591 23.485-4.332c8.8.26 19.339 4.113 19.339 4.113z"/><path fill="#FFAF80" d="M27.517 28.964c-6.023.744-3.484 43.574 6.073 49.242 9.556 5.668 144.756 4.346 151.824 0 7.067-4.346 9.594-44.651 7.93-46.352-6.091-6.186-112.922-9.455-165.827-2.89" opacity="0.3" style="mix-blend-mode:soft-light"/><path fill="url(#G)" d="M125.772 86.106s13.385-6.046 21.841-5.727c5.344.303 10.541 1.967 15.154 4.85z"/><path fill="#884CC4" d="M133.916 82.99c-1.039.492 29.939 3.608 28.463 1.993s-15.404-8.166-28.463-1.993" opacity="0.5" style="mix-blend-mode:multiply"/><path fill="#DD358D" d="M196.609 49.734a309 309 0 0 1-1.289 9.708c-14.923-6.731-57.252-23.708-102.89-22.658-37.363.877-59.341 10.724-70.017 17.376a324 324 0 0 1-.963-12.18c2.132-.744 4.784-1.568 8.005-2.412h.075l.226-.053c11.795-3.09 31.102-6.405 60.366-6.957 40.435-.724 80.462 9.362 99.826 15.11 2.614.784 4.847 1.502 6.661 2.066" opacity="0.4" style="mix-blend-mode:multiply"/><path fill="#DD358D" d="M182.743 83.774c-3.871.425-9.213.77-15.573 1.03-20.089-14.24-51.286-32.525-81.181-34.452-32.442-2.1-51.499 13.13-60.805 23.92-.557-2.764-1.082-6.06-1.558-9.594 7.14-5.664 15.028-10.174 23.41-13.382h.082c.87-.346 1.751-.665 2.664-1.01h.1a124.7 124.7 0 0 1 32.88-6.844c16.805-1.329 35.893 4.651 53.568 12.844 7.161 3.322 14.084 7.036 20.539 10.79h.044c10.075 5.841 19.025 11.841 25.83 16.698" opacity="0.4" style="mix-blend-mode:multiply"/><path fill="#944B71" d="M189.948 47.681c-21.89-5.814-60.804-14.844-90.857-14.571-41.478.372-66.39 5.72-69.335 6.385 11.795-3.07 31.103-6.385 60.367-6.937 40.434-.71 80.462 9.376 99.825 15.123m-53.606 8.539c-11.314-4.938-26.112-9.861-41.329-10.672-24.135-1.262-39.22 2.658-45.119 4.651a124.7 124.7 0 0 1 32.88-6.843c16.793-1.283 35.881 4.644 53.568 12.863" opacity="0.4" style="mix-blend-mode:multiply"/><path fill="#FFAF80" d="M33.377 69.25c-3.553 3.428.625 8.079 14.128 9.866 13.503 1.788 99.388.545 93.134-6.804S73.248 30.738 33.377 69.25m88.924-42.067c-3.709.757 66.296 20.173 68.535 18.81s1.664-12.89.744-14.14c-.919-1.248-54.531-7.7-69.279-4.67m-2.977 11.913c-1.401 0 57.746 40.884 63.419 37.529 5.673-3.356 8.218-16.525 6.917-18.153s-46.044-18.977-70.336-19.376" opacity="0.3" style="mix-blend-mode:soft-light"/><path fill="#D45028" d="M66.05 51.322s10.932-2.91 27.056-.784a97.4 97.4 0 0 1 29.051 8.864s-29.158-13.17-56.108-8.08"/><path fill="#6E1A35" d="M29.043 73.21s3.983 2.312 7.148 2.146c3.165-.167 5.348-2.791 5.348-2.791a17.4 17.4 0 0 1-5.435 1.402 45 45 0 0 1-7.061-.758m-1.213-5.435s.913 2.113 2.445 2.784 4.647-.086 4.647-.086a16.3 16.3 0 0 1-4.06-.758 32 32 0 0 1-3.032-1.94"/><path fill="#DB602C" d="M27.83 67.774a10.8 10.8 0 0 0 2.908 1.993 16.2 16.2 0 0 0 4.184.665 34 34 0 0 1-3.928-1.163 28 28 0 0 1-3.164-1.495m1.213 5.436a21.9 21.9 0 0 0 6.998 1.076c1.94-.068 3.833-.66 5.498-1.721-1.805.387-3.63.649-5.467.784a50 50 0 0 1-7.03-.14"/><path fill="url(#H)" d="M148.882 49.302v-.1a24 24 0 0 1 1.877-.165q-.931.19-1.877.265m-23.141 8.678c-1.369-.146-2.264-1.023-2.683-2.658a9.6 9.6 0 0 1 .394-1.594q2.62-5.09 5.911-5.097c1.551 0 2.539.698 2.952 2.093a7.9 7.9 0 0 1-.782 3.23q-2.702 4.032-5.366 4.04-.198.006-.394-.014zm38.196 6.24 7.43 5.64 10.914-23.514-.72-2.87-5.979-5.17-3.752 8.352-5.698-8.053-5.398 4.99.513 2.87 6.192 7.601-4.003 7.103zm-25.775-21.436 3.897 26.877 8.206-1.222-.376-8.193 6.136 9.355 6.342-4.485-.519-3.063a378 378 0 0 0-4.485-6.073q3.234-2.85 3.39-5.98c.036-.631 0-1.265-.106-1.887l-.507-2.89a6.3 6.3 0 0 0-.363-1.33q-2.964-4.996-8.13-5.54c-.144 0-.294 0-.438-.04l-1.939-.1q-9.1.81-11.389 1.66zm-62.28 20.28q3.64 7.368 9.638 6.703 8.293-1.103 10.732-9.222l.132-3.017-6.374-2.91q-1.958 2.305-3.446 2.532-.476.059-.95 0-2.39-.246-3.128-3.768.92-3.249 4.378-3.987c1.176-.186 2.358.32 3.54 1.502l5.304-4.651c0 .153-.031.299-.044.452l-.144 2.91a78 78 0 0 1 6.911-.306l.038 3.004q-.15 12.18.45 17.335h6.961q.17-4.478.163-9.814v-2.99q0-3.588-.088-7.574c1.877 0 3.934.053 6.186.152a23.6 23.6 0 0 0-.626 4.053v.665l.063 2.977c.013 1.57.213 3.133.594 4.65q2.039 7.31 8.813 7.881 5.816 0 9.562-3.9 4.622-6.12 4.629-13.037v-.85c0-.585 0-1.15-.082-1.708l-.281-2.777v-.133a14 14 0 0 0-.569-2.83 9.9 9.9 0 0 0-3.209-4.302 9.04 9.04 0 0 0-4.866-1.845q-.533-.061-1.094-.073c-2.907.009-5.73 1.033-8.034 2.916s-3.96 4.52-4.712 7.503l-.063-2.093a215 215 0 0 0-1.345-8.412q-10.488 0-18.137.16-.431 1.993-.788 4.816-2.577-4.47-6.88-4.93a10.5 10.5 0 0 0-2.69.073 8.3 8.3 0 0 0-3.183.984q-7.505 4.371-8.356 11.588l-.344 2.937a16 16 0 0 0-.112 1.907q.001 1.272.175 2.531c.142 1.701.575 3.36 1.276 4.897M36.898 46.105l7.987 23.661 7.605-.04 6.568-22.259-.188 1.522 3.409-.2v10.386l-3.221.572-.507 3.036.431 7.077h14.623l.357-3.104.769-7.209-3.878-.458-.45-10.14c1.1 0 2.233.06 3.396.153l.35-2.897-.625-7.973-13.216.498-.487 2.824-.15 1.17-8.031-4.519-.582 2.824-1.92 9.528q-2.795-10.964-3.09-11.561-6.93 3.322-8.405 4.239z"/><path fill="url(#I)" d="m59.783 42.77-8.131-4.564-2.245 10.963-.294 1.429q-.18-.726-.357-1.402-2.459-9.628-2.733-10.18-6.93 3.323-8.406 4.24l2.24 6.578 5.666 16.837 7.505-.04 1.182-3.986 2.558-8.638 1.463-4.977 1.308-4.405.5-1.708z"/><path fill="url(#J)" d="m70.853 59.096-.437-9.807-.144-3.242q1.875 0 3.884.152l-.626-7.973-13.209.498-.507 4.067-.218 1.78-.188 1.515 3.37-.199v13.21l-3.69.664.426 7.01h14.479l.763-7.21z"/><path fill="url(#K)" d="M90.01 54.618c-1.307 1.535-2.458 2.372-3.446 2.532q-3.321.438-4.178-4.074a9.5 9.5 0 0 1 .394-2.777q.938-3.083 4.265-3.774c1.17-.186 2.333.306 3.503 1.482L96 43.189l.063-.053s0-.053-.044-.08q-3.339-5.774-9.594-4.85a8.3 8.3 0 0 0-3.183.997q-6.88 3.986-8.13 10.378-.201.967-.264 1.954a18 18 0 0 0 .132 3.641c.138 1.68.562 3.318 1.25 4.837.207.419.42.824.626 1.203q3.47 6.02 8.9 5.428 8.25-1.083 10.632-9.13z"/><path fill="url(#L)" d="M109.905 49.063c0-.884-.044-1.78-.069-2.698q2.908 0 6.43.16c-.332-2.472-.788-5.276-1.345-8.419q-10.488 0-18.138.16-.43 1.993-.788 4.81v.133a162 162 0 0 0-.381 3.509 85 85 0 0 1 6.836-.3l.037 2.97v3.868c-.08 4.436.081 8.873.482 13.289h6.88q.168-4.486.156-9.847V54.83c-.031-1.848-.056-3.768-.1-5.768"/><path fill="url(#M)" d="M138.218 44.425q-2.601-6.06-9.163-6.219a13.3 13.3 0 0 0-4.271.77q-8.532 3.768-9.294 14.5-.013 1.352.131 2.697c.087.873.242 1.738.463 2.584q2.02 7.23 8.756 7.795a14 14 0 0 0 4.09-.565 12.04 12.04 0 0 0 5.373-3.322c.212-.28.413-.559.625-.838q.517-.745.97-1.501c1.915-3.14 2.938-6.798 2.945-10.539a15.4 15.4 0 0 0-.625-5.362m-12.021 13.582q-2.909 0-3.315-3.867a8.4 8.4 0 0 1 .469-3.323q2.584-5.043 5.848-5.043 3.127 0 3.127 3.854a8.73 8.73 0 0 1-.781 4.359q-2.709 4.013-5.348 4.02"/><path fill="url(#N)" d="M161.847 62.08q-5.354-7.362-6.116-8.093c2.914-2.166 4.415-4.452 4.528-6.857a7.4 7.4 0 0 0-.463-3.163q-3.127-5.204-8.569-5.582l-1.945-.1q-9.087.811-11.383 1.669l3.515 24.239.344 2.359 4.222-.612 3.903-.571-.407-8.12 6.079 9.303zm-13.065-12.764-.294-3.01c1.185-.18 2.384-.22 3.577-.12.814.16 1.214.558 1.17 1.21q-.075 1.548-4.453 1.92"/><path fill="url(#O)" d="m175.6 38.306-3.752 8.352-5.742-8.06-5.372 4.99 7.455 9.15-4.753 8.431 7.342 5.588 10.808-23.255z"/><path fill="#DFE300" d="M46.048 38.997q.282.558 2.734 10.172c-3.365.153-6.355.38-8.925.625l-2.214-6.565q1.475-.95 8.405-4.232m24.223 7.05.144 3.242a219 219 0 0 0-7.668-.292v-3.15l-3.371.2.188-1.515-1.307 4.405c-3.165 0-6.117.073-8.825.193l2.207-10.924 8.131 4.565.507-4.067 13.209-.498.625 7.973a57 57 0 0 0-3.84-.133m39.565.32q.12 4.464.151 8.471a239 239 0 0 0-7.506-1.581v-3.867l-.037-2.97a85 85 0 0 0-6.836.299 162 162 0 0 1 .381-3.509l-5.454 4.798c-1.169-1.176-2.332-1.668-3.502-1.482q-3.321.664-4.265 3.774-3.966-.465-7.687-.704 1.294-6.366 8.13-10.379a8.3 8.3 0 0 1 3.184-.99q6.255-.924 9.594 4.85.356-2.79.788-4.81 7.624-.16 18.138-.16c.557 3.143 1.013 5.947 1.345 8.419q-3.51-.16-6.424-.16" opacity="0.5" style="mix-blend-mode:screen"/><path fill="#DFE300" d="M138.218 44.425q-2.601-6.06-9.163-6.219a13.3 13.3 0 0 0-4.271.77q-8.532 3.768-9.294 14.5-.013 1.352.131 2.697a247 247 0 0 1 19.257 5.688c2.534-3.453 3.928-7.696 3.965-12.074a15.4 15.4 0 0 0-.625-5.362m-6.63 9.542q-2.702 4.033-5.366 4.04-2.909 0-3.315-3.867a8.4 8.4 0 0 1 .47-3.323q2.583-5.043 5.847-5.043 3.127 0 3.127 3.854a8.7 8.7 0 0 1-.788 4.339zm30.259 8.113q-5.354-7.362-6.116-8.093c2.914-2.166 4.415-4.452 4.528-6.857a7.4 7.4 0 0 0-.463-3.163q-3.127-5.204-8.569-5.582l-1.945-.1q-9.087.811-11.383 1.669l3.515 24.239c1.52.558 3.034 1.142 4.566 1.747l3.903-.571-.407-8.12 6.079 9.303zm-13.065-12.764-.294-3.01c1.185-.18 2.384-.22 3.577-.12.814.16 1.214.558 1.17 1.21q-.075 1.548-4.453 1.92m32.798-5.847-10.808 23.288-7.343-5.588 4.754-8.431-7.455-9.15 5.403-4.99 5.742 8.06 3.727-8.352z" opacity="0.5" style="mix-blend-mode:screen"/><path fill="#E3C1C1" d="m56.793 53.934-2.558 8.638a7.43 7.43 0 0 1-1.99-3.383c-.9-3.03 2.79-4.657 4.548-5.255m-4.366 1.408c-.706.253-.925-4.146 0-3.176.926.97 2.064 2.452 0 3.176m25.656.306c.052 1.945-.38 3.87-1.251 5.581a15 15 0 0 1-.626-1.202 14.6 14.6 0 0 1-1.25-4.838 18 18 0 0 1-.132-3.64c1.15.371 3.158 1.607 3.258 4.099m31.91 1.056c-.863-1.329-1.72-3.621-1.557-5.422s.882-2.219 1.47-2.219q.065 2.991.081 5.774.007.949.006 1.867m-2.42-1.355c-.707-.479-1.464 3.036-.307 3.322s1.658-2.379.307-3.322m28.251 5.01q-.452.756-.97 1.501c-.194.28-.394.559-.625.838a12.04 12.04 0 0 1-5.373 3.322c.307-1.993 1.37-5.721 4.422-5.887a7.1 7.1 0 0 1 2.546.226" opacity="0.5" style="mix-blend-mode:multiply"/><path fill="url(#P)" d="M46.905 66.904s1.001-2.539 2.502-1.927c.44.19.827.5 1.12.9.293.398.483.872.55 1.372z"/><path fill="url(#Q)" d="M83.275 49.322s-.526-3.063.625-3.428a2.7 2.7 0 0 1 1.352.111c.436.153.83.416 1.15.766-.094.08-3.127 2.551-3.127 2.551"/><path fill="url(#R)" d="M163.104 46.77s2.433-1.122 3.334.791-.388 2.831-.388 2.831z"/><defs><linearGradient id="a" x1="55.0796" x2="54.9737" y1="84.7708" y2="127.628" gradientUnits="userSpaceOnUse"><stop stop-color="#0C3B37"/><stop offset="0.08" stop-color="#144533"/><stop offset="0.5" stop-color="#39721E"/><stop offset="0.81" stop-color="#508E12"/><stop offset="1" stop-color="#59980D"/></linearGradient><linearGradient id="b" x1="72.4725" x2="74.5685" y1="76.3389" y2="120.553" gradientUnits="userSpaceOnUse"><stop stop-color="#0C3B37"/><stop offset="0.08" stop-color="#144533"/><stop offset="0.5" stop-color="#39721E"/><stop offset="0.81" stop-color="#508E12"/><stop offset="1" stop-color="#59980D"/></linearGradient><linearGradient id="c" x1="154.486" x2="156.582" y1="72.4518" y2="116.673" gradientUnits="userSpaceOnUse"><stop stop-color="#0C3B37"/><stop offset="0.08" stop-color="#144533"/><stop offset="0.5" stop-color="#39721E"/><stop offset="0.81" stop-color="#508E12"/><stop offset="1" stop-color="#59980D"/></linearGradient><linearGradient id="d" x1="40.1625" x2="1.38665" y1="53.4818" y2="23.4928" gradientUnits="userSpaceOnUse"><stop offset="0.01" stop-color="#187447"/><stop offset="0.34" stop-color="#33832F"/><stop offset="0.76" stop-color="#4F9216"/><stop offset="1" stop-color="#59980D"/></linearGradient><linearGradient id="e" x1="51.6269" x2="-10.8087" y1="70.3322" y2="6.96602" gradientUnits="userSpaceOnUse"><stop stop-color="#806EEE"/><stop offset="0.24" stop-color="#A095F1"/><stop offset="0.59" stop-color="#CAC6F5"/><stop offset="0.85" stop-color="#E3E5F8"/><stop offset="1" stop-color="#EDF1F9"/></linearGradient><linearGradient id="f" x1="-1.82232" x2="39.6074" y1="15.4884" y2="49.2185" gradientUnits="userSpaceOnUse"><stop stop-color="#DBF8FE"/><stop offset="0.27" stop-color="#D9F5FE"/><stop offset="0.44" stop-color="#D3ECFE"/><stop offset="0.6" stop-color="#C7DDFE"/><stop offset="0.73" stop-color="#B8C8FE"/><stop offset="0.86" stop-color="#A4ACFF"/><stop offset="0.98" stop-color="#8B8BFF"/><stop offset="1" stop-color="#8785FF"/></linearGradient><linearGradient id="g" x1="23.3887" x2="1.01393" y1="41.9535" y2="11.2237" gradientUnits="userSpaceOnUse"><stop/><stop offset="0.62" stop-color="#363600"/><stop offset="1" stop-color="#525300"/></linearGradient><linearGradient id="h" x1="39.8251" x2="31.8989" y1="44.4252" y2="9.071" gradientUnits="userSpaceOnUse"><stop offset="0.01" stop-color="#187447"/><stop offset="0.34" stop-color="#33832F"/><stop offset="0.76" stop-color="#4F9216"/><stop offset="1" stop-color="#59980D"/></linearGradient><linearGradient id="i" x1="45.2101" x2="29.3059" y1="49.4884" y2="-1.54622" gradientUnits="userSpaceOnUse"><stop stop-color="#806EEE"/><stop offset="0.24" stop-color="#A095F1"/><stop offset="0.59" stop-color="#CAC6F5"/><stop offset="0.85" stop-color="#E3E5F8"/><stop offset="1" stop-color="#EDF1F9"/></linearGradient><linearGradient id="j" x1="33.0704" x2="38.3741" y1="-2.99668" y2="34.7071" gradientUnits="userSpaceOnUse"><stop stop-color="#DBF8FE"/><stop offset="0.27" stop-color="#D9F5FE"/><stop offset="0.44" stop-color="#D3ECFE"/><stop offset="0.6" stop-color="#C7DDFE"/><stop offset="0.73" stop-color="#B8C8FE"/><stop offset="0.86" stop-color="#A4ACFF"/><stop offset="0.98" stop-color="#8B8BFF"/><stop offset="1" stop-color="#8785FF"/></linearGradient><linearGradient id="k" x1="45.0161" x2="21.9494" y1="31.5881" y2="-0.0993857" gradientUnits="userSpaceOnUse"><stop/><stop offset="0.62" stop-color="#363600"/><stop offset="1" stop-color="#525300"/></linearGradient><linearGradient id="l" x1="179.91" x2="203.753" y1="44.5382" y2="10.8202" gradientUnits="userSpaceOnUse"><stop offset="0.01" stop-color="#187447"/><stop offset="0.34" stop-color="#33832F"/><stop offset="0.76" stop-color="#4F9216"/><stop offset="1" stop-color="#59980D"/></linearGradient><linearGradient id="m" x1="192.737" x2="192.737" y1="-8.64452" y2="34.0664" gradientUnits="userSpaceOnUse"><stop stop-color="#806EEE"/><stop offset="0.24" stop-color="#A095F1"/><stop offset="0.59" stop-color="#CAC6F5"/><stop offset="0.85" stop-color="#E3E5F8"/><stop offset="1" stop-color="#EDF1F9"/></linearGradient><linearGradient id="n" x1="190.924" x2="189.138" y1="-13.8206" y2="42.4587" gradientUnits="userSpaceOnUse"><stop stop-color="#DBF8FE"/><stop offset="0.27" stop-color="#D9F5FE"/><stop offset="0.44" stop-color="#D3ECFE"/><stop offset="0.6" stop-color="#C7DDFE"/><stop offset="0.73" stop-color="#B8C8FE"/><stop offset="0.86" stop-color="#A4ACFF"/><stop offset="0.98" stop-color="#8B8BFF"/><stop offset="1" stop-color="#8785FF"/></linearGradient><linearGradient id="o" x1="200.487" x2="189.74" y1="22.6711" y2="7.90919" gradientUnits="userSpaceOnUse"><stop/><stop offset="0.62" stop-color="#363600"/><stop offset="1" stop-color="#525300"/></linearGradient><linearGradient id="p" x1="160.259" x2="159.56" y1="40.1395" y2="6.42687" gradientUnits="userSpaceOnUse"><stop offset="0.01" stop-color="#187447"/><stop offset="0.34" stop-color="#33832F"/><stop offset="0.76" stop-color="#4F9216"/><stop offset="1" stop-color="#59980D"/></linearGradient><linearGradient id="q" x1="157.607" x2="157.607" y1="-18.505" y2="39.8073" gradientUnits="userSpaceOnUse"><stop stop-color="#806EEE"/><stop offset="0.24" stop-color="#A095F1"/><stop offset="0.59" stop-color="#CAC6F5"/><stop offset="0.85" stop-color="#E3E5F8"/><stop offset="1" stop-color="#EDF1F9"/></linearGradient><linearGradient id="r" x1="160.065" x2="160.065" y1="-6.49167" y2="35.5416" gradientUnits="userSpaceOnUse"><stop stop-color="#DBF8FE"/><stop offset="0.27" stop-color="#D9F5FE"/><stop offset="0.44" stop-color="#D3ECFE"/><stop offset="0.6" stop-color="#C7DDFE"/><stop offset="0.73" stop-color="#B8C8FE"/><stop offset="0.86" stop-color="#A4ACFF"/><stop offset="0.98" stop-color="#8B8BFF"/><stop offset="1" stop-color="#8785FF"/></linearGradient><linearGradient id="s" x1="163.63" x2="150.259" y1="21.3954" y2="3.02749" gradientUnits="userSpaceOnUse"><stop/><stop offset="0.62" stop-color="#363600"/><stop offset="1" stop-color="#525300"/></linearGradient><linearGradient id="t" x1="182.975" x2="203.852" y1="44.3588" y2="35.1882" gradientUnits="userSpaceOnUse"><stop offset="0.01" stop-color="#187447"/><stop offset="0.34" stop-color="#33832F"/><stop offset="0.76" stop-color="#4F9216"/><stop offset="1" stop-color="#59980D"/></linearGradient><linearGradient id="u" x1="194.739" x2="194.739" y1="11.6146" y2="50.5714" gradientUnits="userSpaceOnUse"><stop stop-color="#806EEE"/><stop offset="0.24" stop-color="#A095F1"/><stop offset="0.59" stop-color="#CAC6F5"/><stop offset="0.85" stop-color="#E3E5F8"/><stop offset="1" stop-color="#EDF1F9"/></linearGradient><linearGradient id="v" x1="196.065" x2="194.42" y1="-0.578077" y2="51.21" gradientUnits="userSpaceOnUse"><stop stop-color="#DBF8FE"/><stop offset="0.27" stop-color="#D9F5FE"/><stop offset="0.44" stop-color="#D3ECFE"/><stop offset="0.6" stop-color="#C7DDFE"/><stop offset="0.73" stop-color="#B8C8FE"/><stop offset="0.86" stop-color="#A4ACFF"/><stop offset="0.98" stop-color="#8B8BFF"/><stop offset="1" stop-color="#8785FF"/></linearGradient><linearGradient id="w" x1="210.894" x2="210.717" y1="27.2624" y2="32.7767" gradientUnits="userSpaceOnUse"><stop stop-color="#DBF8FE"/><stop offset="0.27" stop-color="#D9F5FE"/><stop offset="0.44" stop-color="#D3ECFE"/><stop offset="0.6" stop-color="#C7DDFE"/><stop offset="0.73" stop-color="#B8C8FE"/><stop offset="0.86" stop-color="#A4ACFF"/><stop offset="0.98" stop-color="#8B8BFF"/><stop offset="1" stop-color="#8785FF"/></linearGradient><linearGradient id="x" x1="210.369" x2="198.646" y1="38.1262" y2="22.0242" gradientUnits="userSpaceOnUse"><stop/><stop offset="0.62" stop-color="#363600"/><stop offset="1" stop-color="#525300"/></linearGradient><linearGradient id="y" x1="36.0103" x2="15.2133" y1="62.6777" y2="94.3351" gradientUnits="userSpaceOnUse"><stop offset="0.01" stop-color="#187447"/><stop offset="0.34" stop-color="#33832F"/><stop offset="0.76" stop-color="#4F9216"/><stop offset="1" stop-color="#59980D"/></linearGradient><linearGradient id="z" x1="44.2155" x2="-16.1565" y1="61.4883" y2="122.233" gradientUnits="userSpaceOnUse"><stop stop-color="#806EEE"/><stop offset="0.24" stop-color="#A095F1"/><stop offset="0.59" stop-color="#CAC6F5"/><stop offset="0.85" stop-color="#E3E5F8"/><stop offset="1" stop-color="#EDF1F9"/></linearGradient><linearGradient id="A" x1="-8.85255" x2="55.0981" y1="112.751" y2="59.195" gradientUnits="userSpaceOnUse"><stop stop-color="#DBF8FE"/><stop offset="0.27" stop-color="#D9F5FE"/><stop offset="0.44" stop-color="#D3ECFE"/><stop offset="0.6" stop-color="#C7DDFE"/><stop offset="0.73" stop-color="#B8C8FE"/><stop offset="0.86" stop-color="#A4ACFF"/><stop offset="0.98" stop-color="#8B8BFF"/><stop offset="1" stop-color="#8785FF"/></linearGradient><linearGradient id="B" x1="178.953" x2="201.019" y1="69.1894" y2="94.2082" gradientUnits="userSpaceOnUse"><stop offset="0.01" stop-color="#187447"/><stop offset="0.34" stop-color="#33832F"/><stop offset="0.76" stop-color="#4F9216"/><stop offset="1" stop-color="#59980D"/></linearGradient><linearGradient id="C" x1="189.792" x2="189.792" y1="60.0265" y2="101.648" gradientUnits="userSpaceOnUse"><stop stop-color="#806EEE"/><stop offset="0.24" stop-color="#A095F1"/><stop offset="0.59" stop-color="#CAC6F5"/><stop offset="0.85" stop-color="#E3E5F8"/><stop offset="1" stop-color="#EDF1F9"/></linearGradient><linearGradient id="D" x1="202.995" x2="179.19" y1="164.904" y2="53.2805" gradientUnits="userSpaceOnUse"><stop stop-color="#DBF8FE"/><stop offset="0.27" stop-color="#D9F5FE"/><stop offset="0.44" stop-color="#D3ECFE"/><stop offset="0.6" stop-color="#C7DDFE"/><stop offset="0.73" stop-color="#B8C8FE"/><stop offset="0.86" stop-color="#A4ACFF"/><stop offset="0.98" stop-color="#8B8BFF"/><stop offset="1" stop-color="#8785FF"/></linearGradient><linearGradient id="E" x1="109.611" x2="109.611" y1="22.2459" y2="92.4319" gradientUnits="userSpaceOnUse"><stop stop-color="#400D3C"/><stop offset="1" stop-color="#5C0049"/></linearGradient><linearGradient id="F" x1="109.611" x2="109.611" y1="-25.5548" y2="125.741" gradientUnits="userSpaceOnUse"><stop stop-color="#FF682B"/><stop offset="1" stop-color="#6E0025"/></linearGradient><linearGradient id="G" x1="144.267" x2="144.267" y1="75.5416" y2="85.515" gradientUnits="userSpaceOnUse"><stop stop-color="#400D3C"/><stop offset="1" stop-color="#5C0049"/></linearGradient><linearGradient id="H" x1="109.611" x2="109.611" y1="11.3954" y2="66.5781" gradientUnits="userSpaceOnUse"><stop stop-color="#75186E"/><stop offset="1" stop-color="#8C006F"/></linearGradient><linearGradient id="I" x1="48.8437" x2="48.8437" y1="67.6678" y2="23.8273" gradientUnits="userSpaceOnUse"><stop stop-color="#FFB5F4"/><stop offset="0.36" stop-color="#FECEF6"/><stop offset="0.74" stop-color="#FCE3F8"/><stop offset="1" stop-color="#FCEAF9"/></linearGradient><linearGradient id="J" x1="66.8943" x2="66.8943" y1="67.6677" y2="23.8272" gradientUnits="userSpaceOnUse"><stop stop-color="#FFB5F4"/><stop offset="0.36" stop-color="#FECEF6"/><stop offset="0.74" stop-color="#FCE3F8"/><stop offset="1" stop-color="#FCEAF9"/></linearGradient><linearGradient id="K" x1="85.5818" x2="85.5818" y1="67.6744" y2="23.8272" gradientUnits="userSpaceOnUse"><stop stop-color="#FFB5F4"/><stop offset="0.36" stop-color="#FECEF6"/><stop offset="0.74" stop-color="#FCE3F8"/><stop offset="1" stop-color="#FCEAF9"/></linearGradient><linearGradient id="L" x1="105.94" x2="105.94" y1="67.6678" y2="23.8273" gradientUnits="userSpaceOnUse"><stop stop-color="#FFB5F4"/><stop offset="0.36" stop-color="#FECEF6"/><stop offset="0.74" stop-color="#FCE3F8"/><stop offset="1" stop-color="#FCEAF9"/></linearGradient><linearGradient id="M" x1="127.154" x2="127.154" y1="67.6678" y2="23.8273" gradientUnits="userSpaceOnUse"><stop stop-color="#FFB5F4"/><stop offset="0.36" stop-color="#FECEF6"/><stop offset="0.74" stop-color="#FCE3F8"/><stop offset="1" stop-color="#FCEAF9"/></linearGradient><linearGradient id="N" x1="149.864" x2="149.864" y1="67.6678" y2="23.8272" gradientUnits="userSpaceOnUse"><stop stop-color="#FFB5F4"/><stop offset="0.36" stop-color="#FECEF6"/><stop offset="0.74" stop-color="#FCE3F8"/><stop offset="1" stop-color="#FCEAF9"/></linearGradient><linearGradient id="O" x1="171.154" x2="171.154" y1="67.6678" y2="23.8273" gradientUnits="userSpaceOnUse"><stop stop-color="#FFB5F4"/><stop offset="0.36" stop-color="#FECEF6"/><stop offset="0.74" stop-color="#FCE3F8"/><stop offset="1" stop-color="#FCEAF9"/></linearGradient><linearGradient id="P" x1="48.9755" x2="48.9613" y1="64.804" y2="68.784" gradientUnits="userSpaceOnUse"><stop stop-color="#75186E"/><stop offset="1" stop-color="#8C006F"/></linearGradient><linearGradient id="Q" x1="84.763" x2="84.7489" y1="45.7076" y2="51.6013" gradientUnits="userSpaceOnUse"><stop stop-color="#75186E"/><stop offset="1" stop-color="#8C006F"/></linearGradient><linearGradient id="R" x1="164.931" x2="164.917" y1="46.3123" y2="52.9568" gradientUnits="userSpaceOnUse"><stop stop-color="#75186E"/><stop offset="1" stop-color="#8C006F"/></linearGradient></defs></svg>