<svg xmlns="http://www.w3.org/2000/svg" width="23" height="24" viewBox="0 0 23 24" fill="none">
  <g clip-path="url(#clip0_2021_116)">
    <path d="M10.7837 11.4416L0.734863 21.9698C0.847711 22.3698 1.0505 22.7386 1.32774 23.0481C1.60497 23.3576 1.9493 23.5997 2.33442 23.7557C2.71953 23.9118 3.13523 23.9777 3.54973 23.9485C3.96424 23.9193 4.36657 23.7957 4.72599 23.5872L16.0329 17.1475L10.7837 11.4416Z" fill="#EA4335"/>
    <path d="M20.9449 9.65207L16.0555 6.85145L10.5518 11.6811L16.0779 17.1324L20.9301 14.3618C21.36 14.1368 21.72 13.7983 21.9712 13.3832C22.2224 12.9681 22.3552 12.4921 22.3552 12.0069C22.3552 11.5217 22.2224 11.0457 21.9712 10.6306C21.72 10.2155 21.36 9.87707 20.9301 9.65199L20.9449 9.65207Z" fill="#FBBC04"/>
    <path d="M0.73494 1.99183C0.674235 2.21639 0.644 2.44809 0.645046 2.68071V21.2809C0.645645 21.5134 0.675853 21.7449 0.73494 21.9698L11.1283 11.7112L0.73494 1.99183Z" fill="#4285F4"/>
    <path d="M10.8586 11.9808L16.0553 6.85153L4.76347 0.381881C4.33862 0.133079 3.85542 0.00131285 3.36308 1.38646e-06C2.14128 -0.00237317 1.06713 0.808538 0.734863 1.98437L10.8586 11.9808Z" fill="#34A853"/>
  </g>
  <defs>
    <clipPath id="clip0_2021_116">
      <rect width="21.7125" height="24" fill="white" transform="translate(0.643799)"/>
    </clipPath>
  </defs>
</svg>