<svg aria-hidden="true" style="position: absolute; width: 0; height: 0; overflow: hidden;" version="1.1" xmlns="http://www.w3.org/2000/svg" xmlns:xlink="http://www.w3.org/1999/xlink">
<defs>
<symbol id="icon-burger-menu" viewBox="0 0 32 32">
<path fill="#fff" style="fill: var(--color1, #fff)" d="M29.128 25.026c0.632 0 1.24 0.244 1.697 0.68s0.73 1.032 0.76 1.663c0.030 0.631-0.183 1.25-0.597 1.729s-0.995 0.779-1.624 0.84l-0.236 0.011h-26.256c-0.632-0-1.24-0.244-1.697-0.68s-0.73-1.032-0.76-1.663 0.183-1.25 0.597-1.729c0.413-0.478 0.995-0.779 1.624-0.84l0.236-0.011h26.256zM29.128 13.538c0.653 0 1.279 0.259 1.741 0.721s0.721 1.088 0.721 1.741c0 0.653-0.259 1.279-0.721 1.741s-1.088 0.721-1.741 0.721h-26.256c-0.653 0-1.279-0.259-1.741-0.721s-0.721-1.088-0.721-1.741c0-0.653 0.259-1.279 0.721-1.741s1.088-0.721 1.741-0.721h26.256zM29.128 2.051c0.653 0 1.279 0.259 1.741 0.721s0.721 1.088 0.721 1.741-0.259 1.279-0.721 1.741c-0.462 0.462-1.088 0.721-1.741 0.721h-26.256c-0.653 0-1.279-0.259-1.741-0.721s-0.721-1.088-0.721-1.741c0-0.653 0.259-1.279 0.721-1.741s1.088-0.721 1.741-0.721h26.256z"></path>
</symbol>
<symbol id="icon-close-btn" viewBox="0 0 32 32">
<path fill="#fff" style="fill: var(--color1, #fff)" d="M16 20.116l10.285 10.284c0.546 0.546 1.286 0.852 2.058 0.852s1.512-0.307 2.058-0.852c0.546-0.546 0.852-1.286 0.852-2.058s-0.307-1.512-0.852-2.058l-10.288-10.285 10.287-10.285c0.27-0.27 0.484-0.591 0.63-0.944s0.221-0.731 0.221-1.113-0.076-0.76-0.222-1.113c-0.146-0.353-0.361-0.674-0.631-0.944s-0.591-0.484-0.944-0.63c-0.353-0.146-0.731-0.221-1.113-0.221s-0.76 0.075-1.113 0.222c-0.353 0.146-0.674 0.361-0.944 0.631l-10.283 10.285-10.285-10.285c-0.268-0.278-0.589-0.5-0.944-0.652s-0.737-0.233-1.123-0.237c-0.386-0.004-0.769 0.070-1.127 0.216s-0.683 0.362-0.956 0.635c-0.273 0.273-0.489 0.598-0.636 0.955s-0.22 0.74-0.217 1.127c0.003 0.386 0.083 0.768 0.236 1.123s0.374 0.676 0.651 0.945l10.289 10.287-10.287 10.287c-0.278 0.268-0.499 0.59-0.651 0.945s-0.232 0.737-0.236 1.123 0.071 0.769 0.217 1.127c0.146 0.358 0.363 0.682 0.636 0.955s0.598 0.489 0.956 0.635c0.358 0.146 0.741 0.22 1.127 0.216s0.768-0.084 1.123-0.237 0.676-0.374 0.944-0.652l10.283-10.283z"></path>
</symbol>
<symbol id="icon-down-bold_pc" viewBox="0 0 32 32">
<path d="M28.728 10.586c-0.362-0.362-0.862-0.586-1.414-0.586s-1.052 0.224-1.414 0.586l-9.9 9.9-9.9-9.9c-0.359-0.347-0.849-0.561-1.389-0.561-1.105 0-2 0.895-2 2 0 0.54 0.214 1.030 0.562 1.39l-0.001-0.001 11.314 11.314c0.362 0.362 0.862 0.586 1.414 0.586s1.052-0.224 1.414-0.586l11.314-11.314c0.362-0.362 0.586-0.862 0.586-1.414s-0.224-1.052-0.586-1.414v0z"></path>
</symbol>
<symbol id="icon-left-bold_pc" viewBox="0 0 32 32">
<path d="M21.046 25.56c0.271-0.271 0.439-0.646 0.439-1.060s-0.168-0.789-0.439-1.060l-7.425-7.425 7.425-7.425c0.261-0.269 0.421-0.637 0.421-1.042 0-0.828-0.672-1.5-1.5-1.5-0.405 0-0.773 0.161-1.043 0.421l-8.486 8.485c-0.271 0.271-0.439 0.646-0.439 1.060s0.168 0.789 0.439 1.061l8.486 8.486c0.271 0.271 0.646 0.439 1.060 0.439s0.789-0.168 1.060-0.439l-0 0z"></path>
</symbol>
<symbol id="icon-right-bold_pc" viewBox="0 0 32 32">
<path d="M9.954 6.44c-0.271 0.271-0.439 0.646-0.439 1.060s0.168 0.789 0.439 1.060l7.425 7.425-7.425 7.425c-0.261 0.269-0.421 0.637-0.421 1.042 0 0.828 0.672 1.5 1.5 1.5 0.405 0 0.773-0.161 1.043-0.421l8.486-8.485c0.271-0.271 0.439-0.646 0.439-1.060s-0.168-0.789-0.439-1.060l-8.486-8.486c-0.271-0.271-0.646-0.439-1.060-0.439s-0.789 0.168-1.060 0.439l0-0z"></path>
</symbol>
<symbol id="icon-up-bold_pc" viewBox="0 0 32 32">
<path d="M3.272 21.414c0.362 0.362 0.862 0.586 1.414 0.586s1.052-0.224 1.414-0.586l9.9-9.9 9.9 9.9c0.359 0.347 0.849 0.561 1.389 0.561 1.105 0 2-0.895 2-2 0-0.54-0.214-1.030-0.562-1.39l0.001 0.001-11.314-11.314c-0.362-0.362-0.862-0.586-1.414-0.586s-1.052 0.224-1.414 0.586l-11.314 11.314c-0.362 0.362-0.586 0.862-0.586 1.414s0.224 1.052 0.586 1.414v0z"></path>
</symbol>
</defs>
</svg>
