<svg width="32" height="32" viewBox="0 0 32 32" fill="none" xmlns="http://www.w3.org/2000/svg">
<path d="M21.0457 25.5608C21.3269 25.2795 21.4849 24.8981 21.4849 24.5003C21.4849 24.1026 21.3269 23.7211 21.0457 23.4398L13.6207 16.0148L21.0457 8.58982C21.3189 8.30692 21.4701 7.92801 21.4667 7.53472C21.4633 7.14142 21.3055 6.7652 21.0274 6.48709C20.7493 6.20898 20.3731 6.05123 19.9798 6.04781C19.5865 6.04439 19.2076 6.19558 18.9247 6.46882L10.4392 14.9543C10.158 15.2356 10 15.6171 10 16.0148C10 16.4126 10.158 16.794 10.4392 17.0753L18.9247 25.5608C19.206 25.842 19.5874 26 19.9852 26C20.3829 26 20.7644 25.842 21.0457 25.5608Z" fill="#0A0001"/>
</svg>
