<svg width="46" height="75" viewBox="0 0 46 75" fill="none" xmlns="http://www.w3.org/2000/svg">
<path fill-rule="evenodd" clip-rule="evenodd" d="M13.0165 37.128C10.0513 37.366 4.05603 37.3877 1.00428 37.2362C0.857247 37.2151 0.716792 37.1614 0.593205 37.079C0.469619 36.9966 0.366033 36.8876 0.290039 36.76C1.06388 38.031 1.95516 39.2266 2.95221 40.3312C3.67269 41.2949 4.50047 42.1735 5.41958 42.9501C6.73984 42.9501 8.62284 43.0583 10.5491 43.0583C11.3932 41.0238 12.259 39.0326 13.1031 37.128H13.0165Z" fill="url(#paint0_radial_1_3530)"/>
<path fill-rule="evenodd" clip-rule="evenodd" d="M41.045 2.32517C36.8678 9.01305 31.6084 16.913 27.0848 23.5576C29.4656 23.4493 32.5607 23.3844 35.4176 23.3628C38.8373 18.2332 42.3869 12.844 45.3737 8.06073C45.4416 7.90355 45.4766 7.73414 45.4766 7.56292C45.4766 7.39171 45.4416 7.2223 45.3737 7.06512C44.0548 4.96795 42.5634 2.98431 40.9151 1.13477H41.1099C41.1954 1.28283 41.2404 1.45078 41.2404 1.62175C41.2404 1.79271 41.1954 1.96067 41.1099 2.10873L41.045 2.32517Z" fill="url(#paint1_radial_1_3530)"/>
<path fill-rule="evenodd" clip-rule="evenodd" d="M41.4124 25.1157C30.8052 38.9028 19.4316 52.0829 7.3453 64.5937C5.70038 66.2819 3.01657 68.9224 2.32397 68.5328C2.56205 69.009 6.00339 73.5758 6.6527 74.2251C7.21543 74.5497 10.0291 72.0607 11.674 70.3076C23.7597 57.7963 35.1333 44.6162 45.7411 30.8296C45.8455 30.6715 45.9099 30.4904 45.9288 30.3019C45.9476 30.1133 45.9203 29.9231 45.8493 29.7474C45.8493 29.531 45.8493 29.6176 45.7411 29.5526C45.2433 28.7735 42.3214 24.8776 41.4124 23.9253C41.5012 24.0967 41.5383 24.2903 41.5191 24.4825C41.4999 24.6746 41.4252 24.857 41.3042 25.0075L41.4124 25.1157Z" fill="url(#paint2_radial_1_3530)"/>
<path style="mix-blend-mode:multiply" opacity="0.5" fill-rule="evenodd" clip-rule="evenodd" d="M40.8722 2.60653C42.0105 3.49505 42.8612 4.69967 43.3179 6.06951C43.9023 10.5065 39.6385 16.3502 37.301 19.6184C36.7888 20.539 36.0981 21.3481 35.2693 21.9985C34.4406 22.6488 33.4904 23.1274 32.4745 23.4061H35.418C38.8377 18.2765 42.3873 12.8873 45.3741 8.10401C45.442 7.94684 45.477 7.77743 45.477 7.60621C45.477 7.43499 45.442 7.26559 45.3741 7.10841C44.0589 4.99508 42.5674 2.99674 40.9155 1.13477H41.1103C41.1958 1.28283 41.2408 1.45078 41.2408 1.62175C41.2408 1.79271 41.1958 1.96067 41.1103 2.10873L40.9371 2.3901L40.8722 2.60653Z" fill="url(#paint3_radial_1_3530)"/>
<path style="mix-blend-mode:multiply" opacity="0.5" fill-rule="evenodd" clip-rule="evenodd" d="M45.7421 29.5527C45.3309 28.8818 43.1232 25.9382 41.9545 24.5098C44.292 29.4012 44.292 31.1544 41.1104 35.4398C37.1712 40.7425 33.1239 45.9586 28.8817 51.0016C24.9859 55.6333 20.9385 60.1135 16.6964 64.399C14.7881 66.3288 12.7091 68.0819 10.4846 69.6367C9.53095 70.4184 8.37069 70.9061 7.14496 71.0406C5.91922 71.1751 4.68081 70.9506 3.58032 70.3943C4.70579 71.9093 6.15591 73.7923 6.5455 74.2035C7.10823 74.5282 9.92191 72.0392 11.5668 70.286C23.6889 57.7847 35.0987 44.6118 45.7421 30.8297C45.8465 30.6716 45.9109 30.4905 45.9298 30.302C45.9486 30.1134 45.9214 29.9232 45.8503 29.7475C45.8503 29.5311 45.8503 29.6177 45.7421 29.5527Z" fill="url(#paint4_radial_1_3530)"/>
<path style="mix-blend-mode:screen" fill-rule="evenodd" clip-rule="evenodd" d="M9.68302 72.2339C9.18521 72.4936 8.57919 72.6667 8.27618 72.4287C7.17495 71.2552 6.16894 69.9959 5.26772 68.6627C5.2636 68.6123 5.2636 68.5616 5.26772 68.5112C5.12588 68.2176 5.05221 67.8957 5.05221 67.5697C5.05221 67.2436 5.12588 66.9218 5.26772 66.6282C3.9691 67.7753 2.71377 68.7925 2.34583 68.5328C2.58391 69.009 6.02524 73.5758 6.67455 74.2251C7.04249 74.4415 8.36276 73.4243 9.70466 72.2122L9.68302 72.2339ZM40.2655 26.9338C40.4433 26.8181 40.6467 26.7478 40.858 26.7289C41.0693 26.71 41.282 26.7432 41.4775 26.8255L41.6074 26.9338C42.6866 28.1301 43.6776 29.4032 44.5725 30.743C44.6966 31.011 44.7609 31.3027 44.7609 31.598C44.7609 31.8932 44.6966 32.1849 44.5725 32.4529L45.8062 30.8296C45.9106 30.6715 45.975 30.4904 45.9939 30.3019C46.0127 30.1133 45.9855 29.9231 45.9145 29.7474C45.9145 29.531 45.9145 29.6176 45.8062 29.5526C45.3084 28.7735 42.3865 24.8776 41.4775 23.9253C41.5664 24.0967 41.6034 24.2903 41.5842 24.4825C41.565 24.6746 41.4903 24.857 41.3693 25.0075L39.9625 26.8255L39.8542 26.9554L40.1356 26.8255L40.2655 26.9338Z" fill="url(#paint5_radial_1_3530)"/>
<path fill-rule="evenodd" clip-rule="evenodd" d="M18.4491 0.85308C25.713 -0.082537 33.0669 -0.082537 40.3308 0.85308C40.5014 0.87965 40.6625 0.949226 40.7988 1.05525C40.9351 1.16127 41.0422 1.30025 41.11 1.4591C41.1954 1.60716 41.2404 1.77512 41.2404 1.94608C41.2404 2.11705 41.1954 2.285 41.11 2.43307C36.9327 9.12095 31.6733 17.0209 27.1498 23.6655C31.1972 23.4707 37.3656 23.4057 40.7637 23.5356C40.9571 23.5397 41.1454 23.5989 41.3064 23.7062C41.4675 23.8136 41.5945 23.9646 41.6727 24.1416C41.7616 24.3131 41.7986 24.5067 41.7794 24.6988C41.7602 24.8909 41.6855 25.0733 41.5645 25.2238C30.9051 38.9779 19.4808 52.1219 7.3459 64.5936C5.70099 66.2818 3.01718 68.9223 2.32458 68.5327C1.63199 68.1431 2.60595 65.1563 2.97389 63.6629C5.75848 54.6149 9.11273 45.7522 13.0165 37.1278C10.0514 37.3659 4.05607 37.3875 1.00432 37.236C0.835363 37.2238 0.671626 37.1721 0.526287 37.0851C0.380947 36.9981 0.258065 36.8782 0.167529 36.735C0.0769932 36.5919 0.0213322 36.4294 0.0050258 36.2608C-0.0112806 36.0922 0.0122228 35.9221 0.0736447 35.7643C4.62456 23.8607 10.3525 12.4411 17.1721 1.67554C17.4756 1.24681 17.9332 0.952101 18.4491 0.85308Z" fill="url(#paint6_radial_1_3530)"/>
<path style="mix-blend-mode:multiply" fill-rule="evenodd" clip-rule="evenodd" d="M39.4001 17.3674C36.4565 20.008 30.7426 21.6962 29.5306 19.9647C28.7081 21.1984 27.8857 22.3888 27.0848 23.5575C29.4656 23.4493 32.5607 23.3844 35.4176 23.3627C36.7379 21.3931 38.0798 19.3803 39.4001 17.3674Z" fill="url(#paint7_radial_1_3530)"/>
<path style="mix-blend-mode:multiply" fill-rule="evenodd" clip-rule="evenodd" d="M8.77409 37.3011C10.3757 38.5348 7.90835 42.4739 4.6618 42.409C4.96482 42.712 5.22454 42.9501 5.33276 42.9501C6.65302 42.9501 8.53601 43.0583 10.4623 43.0583C11.3064 41.0238 12.1721 39.0326 13.0162 37.1279C11.9124 37.1279 10.3974 37.2578 8.68752 37.3011H8.77409Z" fill="url(#paint8_radial_1_3530)"/>
<path style="mix-blend-mode:screen" fill-rule="evenodd" clip-rule="evenodd" d="M18.8169 5.74468C23.9939 5.00155 29.2433 4.90703 34.4436 5.46331C35.1277 5.52797 35.78 5.78289 36.3266 6.19919C37.3655 7.06494 36.6729 8.96958 35.7639 10.5279C37.6036 7.69261 39.4 4.90058 41.045 2.2817C41.1304 2.13364 41.1754 1.96568 41.1754 1.79472C41.1754 1.62375 41.1304 1.45579 41.045 1.30773C40.9772 1.14889 40.8701 1.0099 40.7338 0.903881C40.5975 0.797857 40.4364 0.728283 40.2658 0.701713C33.0019 -0.233904 25.648 -0.233904 18.3841 0.701713C17.8682 0.800733 17.4106 1.09545 17.1071 1.52417C13.9025 6.38538 11.0108 11.4458 8.44965 16.6747C10.614 12.8871 15.4189 6.09098 18.7737 5.54989L18.8169 5.74468Z" fill="url(#paint9_radial_1_3530)"/>
<path style="mix-blend-mode:screen" fill-rule="evenodd" clip-rule="evenodd" d="M40.6993 23.4275C39.6171 23.4275 38.2102 23.4275 36.6952 23.4275C39.2491 24.2499 39.2491 26.1113 37.193 28.7735C31.6955 35.9375 17.0428 53.7719 9.85709 59.0746C6.22096 61.7367 5.03056 60.0485 4.9007 57.6677C3.99167 60.2433 3.32072 62.386 2.97442 63.7929C2.62812 65.1997 1.80566 68.1216 2.23854 68.5977C2.60648 68.7925 3.86181 67.8402 5.16043 66.6931C5.89631 66.0222 6.65384 65.2863 7.32479 64.6586C18.8754 52.7346 29.7778 40.1993 39.985 27.1069L41.5001 25.159C41.6211 25.0085 41.6958 24.8261 41.715 24.634C41.7342 24.4418 41.6971 24.2482 41.6083 24.0768C41.5174 23.9278 41.3905 23.8041 41.2392 23.7171C41.0878 23.63 40.9171 23.5826 40.7426 23.579L40.6993 23.4275Z" fill="url(#paint10_radial_1_3530)"/>
<path style="mix-blend-mode:screen" fill-rule="evenodd" clip-rule="evenodd" d="M19.5744 1.45929C18.996 1.53875 18.4539 1.78722 18.0161 2.17353C14.4665 5.8313 5.87401 22.6484 4.61868 27.107C4.61868 27.41 4.42389 27.9294 4.61868 28.1242C4.81347 28.319 5.48442 27.6914 5.67922 27.3884C8.83919 22.3887 11.6745 17.1942 14.7912 12.2378C16.3495 9.72716 18.2109 6.84856 20.0073 4.4894C21.3792 3.21458 23.1092 2.39118 24.9637 2.13024C27.3228 1.48094 26.3705 0.896558 24.6607 0.961488C22.9308 1.01866 21.2082 1.21407 19.5095 1.54587L19.5744 1.45929Z" fill="url(#paint11_linear_1_3530)"/>
<path style="mix-blend-mode:screen" fill-rule="evenodd" clip-rule="evenodd" d="M39.5296 23.7305C35.6554 23.7305 31.7812 23.7305 27.9286 23.882C26.0457 23.882 27.4958 25.8948 28.816 26.0463C32.4048 26.1411 35.9856 25.6588 39.4214 24.6179C39.7461 24.6179 40.2222 24.3798 40.2655 24.0551C40.3088 23.7305 39.7894 23.7954 39.5296 23.7954V23.7305Z" fill="url(#paint12_linear_1_3530)"/>
<path style="mix-blend-mode:screen" opacity="0.5" fill-rule="evenodd" clip-rule="evenodd" d="M6.43706 65.5027C6.17733 69.8314 15.8953 61.9531 18.103 59.9186C25.57 53.0792 34.4872 43.5777 39.5518 34.7038C41.3049 31.6304 41.5214 27.6913 38.9458 28.3839C29.1191 40.9071 18.6512 52.9137 7.58417 64.3556L7.34609 64.5936L6.43706 65.5027Z" fill="url(#paint13_radial_1_3530)"/>
<path style="mix-blend-mode:screen" fill-rule="evenodd" clip-rule="evenodd" d="M19.9426 9.05602C18.8831 9.77955 17.9782 10.7066 17.2804 11.7831C13.7092 17.865 10.6574 24.2282 7.38925 30.5049C6.71829 31.8035 5.96077 34.2925 8.38485 34.5089C11.2418 34.7687 14.0988 34.5089 17.0423 34.5089C13.7405 40.9074 10.898 47.5327 8.53636 54.3345C7.9087 56.4989 9.64018 56.4989 10.9821 55.2435C17.2155 49.443 28.1238 37.4958 32.6257 29.8988C33.7728 27.9076 31.8249 26.9553 30.18 26.8904C27.7992 26.8904 25.3967 26.8904 23.016 26.9986C25.7863 22.4751 28.7082 18.0381 31.3487 13.4497C31.7314 12.7842 31.9744 12.0478 32.063 11.2853C32.1246 10.7585 32.0562 10.2246 31.8638 9.73034C31.6714 9.23607 31.3608 8.79648 30.9592 8.45C29.7255 7.32453 26.3491 7.28124 23.557 7.82233C22.3359 7.99994 21.1644 8.42727 20.1157 9.07767L19.9426 9.05602Z" fill="url(#paint14_radial_1_3530)"/>
<defs>
<radialGradient id="paint0_radial_1_3530" cx="0" cy="0" r="1" gradientUnits="userSpaceOnUse" gradientTransform="translate(-3.51924 33.362) scale(19.0897 19.0897)">
<stop stop-color="#00BDFC"/>
<stop offset="1" stop-color="#0061BD"/>
</radialGradient>
<radialGradient id="paint1_radial_1_3530" cx="0" cy="0" r="1" gradientUnits="userSpaceOnUse" gradientTransform="translate(34.0757 6.06951) scale(46.7502)">
<stop stop-color="#00BDFC"/>
<stop offset="1" stop-color="#0061BD"/>
</radialGradient>
<radialGradient id="paint2_radial_1_3530" cx="0" cy="0" r="1" gradientUnits="userSpaceOnUse" gradientTransform="translate(41.8236 60.871) scale(87.8731 87.8731)">
<stop stop-color="#0061BD"/>
<stop offset="1" stop-color="#00BDFC"/>
</radialGradient>
<radialGradient id="paint3_radial_1_3530" cx="0" cy="0" r="1" gradientUnits="userSpaceOnUse" gradientTransform="translate(30.6564 2.47667) scale(22.9855 22.9855)">
<stop stop-color="white"/>
<stop offset="0.11" stop-color="#F9FAFB"/>
<stop offset="0.26" stop-color="#E9ECF1"/>
<stop offset="0.42" stop-color="#CFD5DF"/>
<stop offset="0.6" stop-color="#AAB6C6"/>
<stop offset="0.79" stop-color="#7A8DA6"/>
<stop offset="0.98" stop-color="#415B80"/>
<stop offset="1" stop-color="#3C577D"/>
</radialGradient>
<radialGradient id="paint4_radial_1_3530" cx="0" cy="0" r="1" gradientUnits="userSpaceOnUse" gradientTransform="translate(5.16031 29.3796) scale(48.9362 48.9363)">
<stop stop-color="white"/>
<stop offset="0.11" stop-color="#F9FAFB"/>
<stop offset="0.26" stop-color="#E9ECF1"/>
<stop offset="0.42" stop-color="#CFD5DF"/>
<stop offset="0.6" stop-color="#AAB6C6"/>
<stop offset="0.79" stop-color="#7A8DA6"/>
<stop offset="0.98" stop-color="#415B80"/>
<stop offset="1" stop-color="#3C577D"/>
</radialGradient>
<radialGradient id="paint5_radial_1_3530" cx="0" cy="0" r="1" gradientUnits="userSpaceOnUse" gradientTransform="translate(26.3919 50.4171) scale(31.5348 31.5348)">
<stop offset="0.58"/>
<stop offset="0.74" stop-color="#000202"/>
<stop offset="0.79" stop-color="#000909"/>
<stop offset="0.83" stop-color="#001414"/>
<stop offset="0.87" stop-color="#002525"/>
<stop offset="0.89" stop-color="#003B3B"/>
<stop offset="0.92" stop-color="#005757"/>
<stop offset="0.94" stop-color="#007777"/>
<stop offset="0.96" stop-color="#009D9D"/>
<stop offset="0.98" stop-color="#00C8C8"/>
<stop offset="1" stop-color="#00FFFF"/>
</radialGradient>
<radialGradient id="paint6_radial_1_3530" cx="0" cy="0" r="1" gradientUnits="userSpaceOnUse" gradientTransform="translate(15.7003 0.874725) scale(67.961 67.961)">
<stop stop-color="#00F9FC"/>
<stop offset="1" stop-color="#0081FC"/>
</radialGradient>
<radialGradient id="paint7_radial_1_3530" cx="0" cy="0" r="1" gradientUnits="userSpaceOnUse" gradientTransform="translate(25.5481 13.082) scale(17.9209)">
<stop stop-color="white"/>
<stop offset="0.11" stop-color="#F9FAFB"/>
<stop offset="0.26" stop-color="#E9ECF1"/>
<stop offset="0.42" stop-color="#CFD5DF"/>
<stop offset="0.6" stop-color="#AAB6C6"/>
<stop offset="0.79" stop-color="#7A8DA6"/>
<stop offset="0.98" stop-color="#415B80"/>
<stop offset="1" stop-color="#3C577D"/>
</radialGradient>
<radialGradient id="paint8_radial_1_3530" cx="0" cy="0" r="1" gradientUnits="userSpaceOnUse" gradientTransform="translate(4.74838 37.4093) scale(17.2067 17.2067)">
<stop stop-color="white"/>
<stop offset="0.11" stop-color="#F9FAFB"/>
<stop offset="0.26" stop-color="#E9ECF1"/>
<stop offset="0.42" stop-color="#CFD5DF"/>
<stop offset="0.6" stop-color="#AAB6C6"/>
<stop offset="0.79" stop-color="#7A8DA6"/>
<stop offset="0.98" stop-color="#415B80"/>
<stop offset="1" stop-color="#3C577D"/>
</radialGradient>
<radialGradient id="paint9_radial_1_3530" cx="0" cy="0" r="1" gradientUnits="userSpaceOnUse" gradientTransform="translate(34.0757 15.8306) scale(36.0583 36.0583)">
<stop/>
<stop offset="0.08" stop-color="#002323"/>
<stop offset="0.22" stop-color="#005C5C"/>
<stop offset="0.36" stop-color="#008E8E"/>
<stop offset="0.5" stop-color="#00B7B7"/>
<stop offset="0.64" stop-color="#00D6D6"/>
<stop offset="0.77" stop-color="#00EDED"/>
<stop offset="0.89" stop-color="#00FAFA"/>
<stop offset="1" stop-color="#00FFFF"/>
</radialGradient>
<radialGradient id="paint10_radial_1_3530" cx="0" cy="0" r="1" gradientUnits="userSpaceOnUse" gradientTransform="translate(52.56 90.263) scale(72.5062 72.5062)">
<stop stop-color="#00FFFF"/>
<stop offset="0.11" stop-color="#00FAFA"/>
<stop offset="0.23" stop-color="#00EDED"/>
<stop offset="0.36" stop-color="#00D6D6"/>
<stop offset="0.5" stop-color="#00B7B7"/>
<stop offset="0.64" stop-color="#008E8E"/>
<stop offset="0.78" stop-color="#005C5C"/>
<stop offset="0.92" stop-color="#002323"/>
<stop offset="1"/>
</radialGradient>
<linearGradient id="paint11_linear_1_3530" x1="23.4919" y1="-1.78725" x2="3.16856" y2="36.9981" gradientUnits="userSpaceOnUse">
<stop stop-color="#A1E1FF"/>
<stop offset="1"/>
</linearGradient>
<linearGradient id="paint12_linear_1_3530" x1="27.0196" y1="24.8559" x2="40.2655" y2="24.8559" gradientUnits="userSpaceOnUse">
<stop stop-color="#A1E1FF"/>
<stop offset="1"/>
</linearGradient>
<radialGradient id="paint13_radial_1_3530" cx="0" cy="0" r="1" gradientUnits="userSpaceOnUse" gradientTransform="translate(0.961219 15.8522) scale(53.0052 53.0053)">
<stop stop-color="#00FFFF"/>
<stop offset="0.11" stop-color="#00FAFA"/>
<stop offset="0.23" stop-color="#00EDED"/>
<stop offset="0.36" stop-color="#00D6D6"/>
<stop offset="0.5" stop-color="#00B7B7"/>
<stop offset="0.64" stop-color="#008E8E"/>
<stop offset="0.78" stop-color="#005C5C"/>
<stop offset="0.92" stop-color="#002323"/>
<stop offset="1"/>
</radialGradient>
<radialGradient id="paint14_radial_1_3530" cx="0" cy="0" r="1" gradientUnits="userSpaceOnUse" gradientTransform="translate(-10.0339 8.92616) scale(50.105 50.105)">
<stop stop-color="#00FFFF"/>
<stop offset="0.11" stop-color="#00FAFA"/>
<stop offset="0.23" stop-color="#00EDED"/>
<stop offset="0.36" stop-color="#00D6D6"/>
<stop offset="0.5" stop-color="#00B7B7"/>
<stop offset="0.64" stop-color="#008E8E"/>
<stop offset="0.78" stop-color="#005C5C"/>
<stop offset="0.92" stop-color="#002323"/>
<stop offset="1"/>
</radialGradient>
</defs>
</svg>
