<svg width="32" height="32" viewBox="0 0 32 32" fill="none" xmlns="http://www.w3.org/2000/svg">
<path d="M9.95438 6.43918C9.67317 6.72047 9.5152 7.10193 9.5152 7.49968C9.5152 7.89743 9.67317 8.27889 9.95438 8.56018L17.3794 15.9852L9.95438 23.4102C9.68114 23.6931 9.52995 24.072 9.53337 24.4653C9.53679 24.8586 9.69454 25.2348 9.97265 25.5129C10.2508 25.791 10.627 25.9488 11.0203 25.9522C11.4136 25.9556 11.7925 25.8044 12.0754 25.5312L20.5609 17.0457C20.8421 16.7644 21.0001 16.3829 21.0001 15.9852C21.0001 15.5874 20.8421 15.206 20.5609 14.9247L12.0754 6.43918C11.7941 6.15797 11.4126 6 11.0149 6C10.6171 6 10.2357 6.15797 9.95438 6.43918Z" fill="#0A0001"/>
</svg>
