<svg width="32" height="32" viewBox="0 0 32 32"  xmlns="http://www.w3.org/2000/svg">
<path d="M3.58557 22.7276C3.96063 23.1025 4.46924 23.3131 4.99957 23.3131C5.5299 23.3131 6.03852 23.1025 6.41357 22.7276L16.3136 12.8276L26.2136 22.7276C26.5908 23.0919 27.096 23.2935 27.6204 23.2889C28.1448 23.2844 28.6464 23.074 29.0172 22.7032C29.388 22.3324 29.5984 21.8308 29.6029 21.3064C29.6075 20.782 29.4059 20.2768 29.0416 19.8996L17.7276 8.58557C17.3525 8.21063 16.8439 8 16.3136 8C15.7832 8 15.2746 8.21063 14.8996 8.58557L3.58557 19.8996C3.21063 20.2746 3 20.7832 3 21.3136C3 21.8439 3.21063 22.3525 3.58557 22.7276Z" fill="#0A0001"/>
</svg>
