<svg width="208" height="22" viewBox="0 0 208 22" fill="none" xmlns="http://www.w3.org/2000/svg">
<path d="M198.386 0.0986181C198.118 2.74181 196.591 4.88735 193.382 6.37092L190.273 6.46012C188.477 6.50707 186.092 6.56341 183.673 6.60097C180.645 6.64791 177.563 6.66669 175.493 6.60097H175.024C172.077 6.51579 169.276 5.68127 167.144 4.25355C167.144 4.25355 165.804 5.95777 164.263 6.60097C162.923 7.15965 139.011 7.07045 124.867 6.88735L119.815 6.81223C107.876 6.59627 104.05 0.845097 104.05 0.845097C104.05 0.845097 100.205 6.59627 88.2718 6.79815L83.22 6.87327C69.0763 7.04697 45.1639 7.14557 43.8239 6.58688C42.3097 5.94838 40.9429 4.23946 40.9429 4.23946C38.8112 5.66718 36.0101 6.5017 33.0637 6.58688H32.5947C30.5244 6.64791 27.4424 6.62914 24.414 6.58688C21.9953 6.54932 19.6101 6.49298 17.8145 6.44604L14.7057 6.35683C11.4964 4.87327 9.96878 2.72773 9.70078 0.0845337L0.126465 10.831L9.67398 21.5587C9.94868 18.9202 11.4763 16.7794 14.6789 15.2958C14.6789 15.2958 15.9184 15.2535 17.7877 15.2066C21.8077 15.1033 28.7556 14.9531 32.5277 15.0658H33.0637H33.3518H33.6332H33.8811C36.5311 15.2529 39.0162 16.0542 40.9429 17.3428C40.9429 17.3428 42.2829 15.6432 43.8239 14.9953C44.3465 14.7747 48.3062 14.6573 53.7802 14.601H53.8003C57.7466 14.5634 62.4634 14.5587 67.2606 14.601H67.3008C75.1599 14.6338 83.1932 14.7183 88.245 14.8075C100.305 15.0141 104.024 20.7465 104.024 20.7465C104.024 20.7465 107.742 15.0141 119.795 14.8075C124.847 14.7183 132.88 14.6338 140.74 14.601H140.78C145.577 14.601 150.294 14.601 154.24 14.601H154.3C159.774 14.6573 163.734 14.7747 164.257 14.9953C165.771 15.6338 167.138 17.3428 167.138 17.3428C169.064 16.0542 171.549 15.2529 174.199 15.0658H174.447H174.729H175.017H175.553C179.298 14.9531 186.239 15.1033 190.293 15.2066C192.162 15.2535 193.402 15.2958 193.402 15.2958C196.604 16.7794 198.132 18.9202 198.407 21.5587L207.954 10.831L198.386 0.0986181Z" fill="url(#paint0_linear_1_2222)"/>
<defs>
<linearGradient id="paint0_linear_1_2222" x1="104.037" y1="0.0986182" x2="104.037" y2="21.5681" gradientUnits="userSpaceOnUse">
<stop stop-color="#FD9850"/>
<stop offset="1" stop-color="#E16F3E"/>
</linearGradient>
</defs>
</svg>
