<svg width="213" height="128" viewBox="0 0 213 128" fill="none" xmlns="http://www.w3.org/2000/svg">
<path style="mix-blend-mode:screen" d="M106.165 128C163.632 128 210.218 99.3462 210.218 64C210.218 28.6538 163.632 0 106.165 0C48.6976 0 2.11133 28.6538 2.11133 64C2.11133 99.3462 48.6976 128 106.165 128Z" fill="url(#paint0_radial_7_147)"/>
<path d="M29.5181 95.4618C29.5618 95.8672 34.7154 111.223 53.0969 111.442C71.4784 111.661 78.5834 98.3389 78.5834 98.3389C78.5834 98.3389 72.1351 106.558 63.6793 108.532C55.2234 110.505 48.2498 110.459 43.7404 108.286C39.2311 106.113 31.0504 94.3323 31.0504 94.3323L29.5181 95.4618Z" fill="#4ABAFF"/>
<path d="M124.496 96.0465C124.496 96.0465 131.901 112.897 152.122 111.661C172.342 110.425 181.617 93.3953 181.617 93.3953C181.617 93.3953 165.556 108.97 153.854 109.688C133.89 110.89 124.496 96.0465 124.496 96.0465Z" fill="#4ABAFF"/>
<path d="M81.9295 88.2791C81.9295 88.2791 80.122 110.791 54.4104 111.057C28.6988 111.322 28.2109 85.7143 28.2109 85.7143L31.6133 85.5349C31.8615 88.8986 32.5737 92.2053 33.7273 95.3489C36.229 102.146 41.6703 109.841 53.4284 109.05C64.6862 108.306 70.8468 102.817 74.1428 97.9668C75.7686 95.6466 76.9655 93.0199 77.6703 90.2259L81.9295 88.2791Z" fill="url(#paint1_linear_7_147)"/>
<g style="mix-blend-mode:multiply">
<path d="M81.9295 88.2791C81.9295 88.2791 80.122 110.791 54.4104 111.057C28.6988 111.322 28.2109 85.7143 28.2109 85.7143L31.6133 85.5349C31.8615 88.8986 32.5737 92.2053 33.7273 95.3489C33.3145 96.2326 32.589 98.6711 34.6779 101.993C37.336 106.233 50.5389 116.445 68.2012 107.356C75.8753 103.409 76.4006 100.166 74.1428 97.9801C75.7686 95.6598 76.9655 93.0332 77.6703 90.2392L81.9295 88.2791Z" fill="#89C2FE"/>
</g>
<path d="M45.4727 98.3389C45.4727 98.3389 55.0793 126.651 76.4379 125.581C97.7965 124.512 102.569 102.545 102.569 102.545C102.569 102.545 96.0452 121.389 80.7972 122.97C65.5491 124.551 54.6228 115.302 53.6283 110.89C52.6339 106.478 45.4727 98.3389 45.4727 98.3389Z" fill="#4ABAFF"/>
<path d="M106.615 78.7774C106.615 78.7774 106.615 79.0498 106.615 79.5482C106.465 85.4552 104.457 123.402 77.1633 124.797C69.7081 125.169 63.5038 122.14 58.4002 117.395C56.4688 115.592 54.6977 113.603 53.1091 111.455C43.9027 99.1761 39.5684 82.3123 38.6741 78.4983C38.549 77.9867 38.4927 77.7076 38.4927 77.7076H45.2661C46.2383 85.4201 48.0864 92.9791 50.7699 100.219C54.8978 111.043 61.8964 121.794 73.4357 122.339C90.7039 123.156 98.009 110.897 101.067 99.2625C102.715 92.7512 103.432 86.0136 103.194 79.2757L103.913 79.1761L106.615 78.7774Z" fill="url(#paint2_linear_7_147)"/>
<g style="mix-blend-mode:multiply">
<path d="M50.8513 107.169C51.4435 108.68 52.1968 110.114 53.0966 111.442C43.8902 99.1628 39.556 82.299 38.6616 78.485L43.3274 77.6943H45.2662C46.2384 85.4068 48.0865 92.9657 50.77 100.206C50.032 101.203 49.3565 103.229 50.8513 107.169Z" fill="#89C2FE"/>
</g>
<g style="mix-blend-mode:multiply">
<path d="M106.609 79.5482C106.459 85.4552 104.451 123.402 77.1575 124.797C69.7024 125.169 63.4981 122.14 58.3945 117.395C63.8863 122.054 70.7589 124.484 77.783 124.252C93.1186 123.96 102.319 104.751 101.668 100.532C101.609 100.039 101.388 99.5846 101.043 99.2492C102.698 92.7435 103.423 86.0105 103.194 79.2758L103.914 79.1761L106.609 79.5482Z" fill="#89C2FE"/>
</g>
<path d="M189.86 79.1163C189.86 79.1163 179.359 109.462 151.196 110.844C123.677 112.173 119.924 83.103 119.787 81.7674C119.785 81.7497 119.785 81.732 119.787 81.7143H119.837L123.239 81.4219C123.789 86.7166 125.387 91.8276 127.93 96.4186C131.683 103.023 138.481 109.189 150.552 108.578C155.037 108.41 159.441 107.262 163.49 105.204C167.538 103.146 171.144 100.223 174.081 96.6179C177.988 91.887 180.919 86.3394 182.687 80.3322L189.86 79.1163Z" fill="url(#paint3_linear_7_147)"/>
<g style="mix-blend-mode:multiply">
<path d="M189.86 79.1163C189.86 79.1163 179.359 109.462 151.196 110.844C123.677 112.173 119.924 83.103 119.787 81.7674L119.83 81.7143L123.233 81.4219C123.782 86.7166 125.381 91.8276 127.924 96.4186C127.298 96.784 126.96 97.7475 128.242 100.06C130.913 104.864 137.167 112.173 155.887 109.674C170.322 107.748 174.387 100.179 174.074 96.6046C177.982 91.8782 180.916 86.3352 182.687 80.3322L189.86 79.1163Z" fill="#89C2FE"/>
</g>
<path d="M1.60449 39.3156C1.60449 39.3156 2.39254 51.0166 10.7859 56.4784C19.1792 61.9402 24.683 60.2126 24.683 60.2126L1.60449 39.3156Z" fill="#4ABAFF"/>
<path d="M9.54785 93.9468C9.57912 94.2325 9.86057 100.438 11.4242 102C12.9877 103.561 28.2671 102.332 35.2782 90.2591C42.2893 78.186 9.54785 93.9468 9.54785 93.9468Z" fill="#4ABAFF"/>
<path d="M177.758 90.5183C177.758 90.5183 192.143 102.478 199.811 99.5615C202.938 98.3854 180.798 83.4551 180.798 83.4551L177.758 90.5183Z" fill="#4ABAFF"/>
<path d="M212.195 27.9402C212.195 27.9402 210.944 33.2093 210.638 33.2558C210.331 33.3023 208.417 33.1561 207.723 33.8339C207.029 34.5116 206.747 31.887 206.841 31.8405C206.935 31.794 212.195 27.9402 212.195 27.9402Z" fill="#4ABAFF"/>
<path d="M208.429 36.8439C207.098 39.9282 205.418 42.8289 203.426 45.4817C201.394 48.1479 199.041 50.5182 196.427 52.5316V49.2093L208.429 36.8439Z" fill="#4ABAFF"/>
<path d="M27.9229 59.402C26.5019 59.6156 25.0631 59.6624 23.6325 59.5415C18.7991 59.1866 14.1412 57.4736 10.1356 54.5781C1.02303 48.0797 -0.271618 29.0897 0.0410994 26.8505C0.353816 24.6113 2.15507 20.7176 2.15507 20.7176L27.9229 59.402Z" fill="#115434"/>
<g style="mix-blend-mode:multiply">
<path d="M23.6324 59.5415C18.7989 59.1866 14.1411 57.4737 10.1355 54.5781C4.41902 49.887 3.74981 40.691 5.20707 42.392C9.48504 47.3754 22.3627 53.6877 22.3627 53.6877L23.6324 59.5415Z" fill="#89C2FE"/>
</g>
<path d="M11.8809 19.8604C13.3783 20.8337 15.1421 21.2389 16.8843 21.0099C18.3239 20.7935 19.7094 20.2788 20.9622 19.495L21.1123 22.3787L12.8378 22.8106L11.8809 19.8604Z" fill="#115434"/>
<path d="M40.0249 46.4186C39.4812 47.7943 38.621 49.003 37.5232 49.9336C34.2922 52.9171 30.2638 54.7525 26.0021 55.1826C21.7403 55.6127 17.4587 54.6161 13.7567 52.3323C8.04022 48.9103 4.30638 39.2758 2.62396 31.5083C1.44815 26.0532 1.27928 21.5416 2.15489 20.7176C3.23064 19.7276 6.78935 19.0499 11.1299 18.9037C11.2039 19.0266 11.2854 19.1442 11.3738 19.2558C11.9329 20.0875 12.6806 20.7556 13.5477 21.1981C14.4147 21.6407 15.373 21.8434 16.3335 21.7874C17.5324 21.7673 18.7029 21.3972 19.7171 20.7176C20.1941 20.3855 20.6167 19.9725 20.9679 19.495C24.8894 20.113 28.4732 21.2558 30.6434 23.0499C32.0381 24.206 33.2702 25.3289 34.3397 26.4053L34.6462 26.7176C43.8901 36.2259 41.157 42.525 40.0249 46.4186Z" fill="url(#paint4_linear_7_147)"/>
<path style="mix-blend-mode:multiply" opacity="0.6" d="M38.9994 60.5648C34.7159 51.9015 29.3836 43.8709 23.1384 36.6777C18.5123 31.2651 13.1415 26.6278 7.2086 22.9236C5.87642 22.1196 4.52548 21.3821 3.12451 20.7242C3.54981 20.8173 17.228 24.1063 31.9945 41.9867C47.0112 60.1661 38.9994 60.5648 38.9994 60.5648Z" fill="url(#paint5_linear_7_147)"/>
<g style="mix-blend-mode:multiply">
<path d="M23.1388 36.6578C18.5114 31.2523 13.1406 26.6218 7.20898 22.9236C10.4056 24.5552 13.4378 26.5277 16.259 28.8106C18.961 30.9854 21.2886 33.6402 23.1388 36.6578Z" fill="#CBE4FE"/>
</g>
<path style="mix-blend-mode:multiply" d="M37.5237 49.9336C34.2927 52.9171 30.2643 54.7525 26.0026 55.1826C21.7409 55.6127 17.4592 54.6161 13.7572 52.3322C8.04077 48.9103 4.30693 39.2758 2.62451 31.5083C4.65717 35.0631 7.8719 39.0166 12.6752 41.0698C21.7503 44.9568 32.6891 28.9635 34.3278 26.4053L34.5529 26.0598L34.6342 26.7243L37.5237 49.9336Z" fill="url(#paint6_linear_7_147)"/>
<path style="mix-blend-mode:screen" opacity="0.5" d="M9.72297 37.5016C2.88698 34.1794 0.829297 22.2192 2.62429 20.7176C4.21915 19.3887 7.69031 19.0232 11.3804 19.2558C11.9394 20.0874 12.6872 20.7555 13.5543 21.1981C14.4213 21.6407 15.3796 21.8434 16.3401 21.7873C17.5389 21.7672 18.7095 21.3972 19.7237 20.7176C21.0148 21.0276 22.2378 21.5983 23.3262 22.3986C25.9092 24.8305 16.5527 40.8571 9.72297 37.5016Z" fill="url(#paint7_linear_7_147)"/>
<g style="mix-blend-mode:screen" opacity="0.5">
<path d="M3.12468 21.5216C0.760536 20.9568 3.30605 30.9369 6.43948 33.1429C9.5729 35.3488 16.7279 33.5349 16.4464 31.6611C16.165 29.7874 8.3408 22.7708 3.12468 21.5216Z" fill="#353600"/>
</g>
<path d="M30.5437 4.59802C30.5437 4.59802 24.9648 9.06314 24.2518 22.0997C23.6702 32.7309 25.7091 40.1595 25.7091 40.1595L38.9996 32.7641L30.5437 4.59802Z" fill="#115434"/>
<path d="M48.5874 38.8904C44.666 50.7043 36.1538 49.5216 29.9432 45.1428C28.1795 43.8937 26.9662 38.5714 26.4533 32.1395C25.928 25.495 26.1531 17.6611 27.3164 11.9468C28.0232 8.44517 29.0926 5.74085 30.5374 4.59799C31.8383 3.56809 39.7563 12.1927 44.8223 21.7541C46.179 24.2325 47.2959 26.8505 48.1559 29.5681C49.1566 33.01 49.463 36.2525 48.5874 38.8904Z" fill="url(#paint8_linear_7_147)"/>
<path style="mix-blend-mode:multiply" opacity="0.6" d="M40.2066 36.4651C40.2066 36.4651 39.8376 33.103 38.9558 28.4119C37.9488 23.0498 36.2727 15.9468 33.7084 10.1927V10.1528C32.9655 8.43739 32.0757 6.79815 31.0503 5.2558C31.6757 6.08636 41.6827 19.608 42.0892 35.9203C42.4832 52.7641 40.2066 36.4651 40.2066 36.4651Z" fill="url(#paint9_linear_7_147)"/>
<path style="mix-blend-mode:multiply" d="M48.1559 29.5681L26.4533 32.1395C25.928 25.495 26.1531 17.6611 27.3164 11.9468C27.5166 16.6777 29.1177 22.0199 35.0968 22.5914C40.2004 23.0764 43.1399 22.505 44.8223 21.7541C46.179 24.2325 47.2959 26.8505 48.1559 29.5681Z" fill="url(#paint10_linear_7_147)"/>
<path style="mix-blend-mode:screen" opacity="0.5" d="M30.6999 4.59804C29.9119 4.51166 25.9591 10.8638 28.8236 16.4186C31.6881 21.9735 41.3323 23.0632 43.415 21.3555C45.4977 19.6479 33.0328 4.83724 30.6999 4.59804Z" fill="url(#paint11_linear_7_147)"/>
<g style="mix-blend-mode:screen" opacity="0.5">
<path d="M30.7247 5.20932C29.8303 4.79736 27.2848 10.0133 28.3856 13.7209C29.4864 17.4286 37.1417 23.103 36.9666 20.4984C36.7914 17.8937 31.8442 5.72095 30.7247 5.20932Z" fill="#353600"/>
</g>
<g style="mix-blend-mode:multiply">
<path d="M39.7877 28.5714L38.9559 28.4053C37.9489 23.0498 36.2728 15.9468 33.7085 10.1927C35.3105 13.1142 36.5567 16.2399 37.4173 19.495C39.3249 26.1462 39.7877 28.5714 39.7877 28.5714Z" fill="#CBE4FE"/>
</g>
<path d="M206.441 7.16278C206.441 7.16278 211.97 18.2923 203.939 32.8771C195.909 47.4618 187.947 38.7708 187.947 38.7708L206.441 7.16278Z" fill="#115434"/>
<g style="mix-blend-mode:multiply">
<path d="M206.591 18.6645C206.735 18.0997 207.842 22.5382 206.71 27.6744C205.578 32.8106 203.126 30.4186 203.126 30.4186C203.126 30.4186 206.222 20.1462 206.591 18.6645Z" fill="#89C2FE"/>
</g>
<path d="M206.935 15.2159C205.909 24.0664 201.85 37.3289 196.822 43.6943C196.1 44.643 195.258 45.4814 194.32 46.186C188.328 50.5648 183.175 48.0266 179.391 44.3455C177.585 42.5203 175.964 40.4981 174.556 38.3123C170.222 31.8073 174.388 25.0232 180.942 19.3488C189.504 12 202.088 6.64451 205.246 6.46511C207.11 6.37209 207.542 10.0399 206.935 15.2159Z" fill="url(#paint12_linear_7_147)"/>
<path style="mix-blend-mode:multiply" opacity="0.6" d="M205.39 7.16943C193.094 16.8106 183.056 31.6944 183.056 31.6944L180.085 30.3123C181.345 28.7083 182.687 27.1799 184.106 25.7342C186.139 23.6013 188.997 20.8106 192.788 17.5349L193.557 16.8704C201.587 9.96678 205.14 7.30897 205.39 7.16943Z" fill="url(#paint13_linear_7_147)"/>
<path style="mix-blend-mode:multiply" d="M206.935 15.2159C205.909 24.0664 201.85 37.3289 196.822 43.6943C191.061 43.9336 184.363 44.186 179.403 44.3588C177.597 42.5336 175.976 40.5114 174.569 38.3256C170.234 31.8206 174.4 25.0365 180.954 19.3621C181.605 22.9701 186.283 25.9136 206.935 15.2159Z" fill="url(#paint14_linear_7_147)"/>
<path style="mix-blend-mode:screen" opacity="0.5" d="M204.933 6.80396C202.882 6.13951 181.292 16.8106 183.181 19.083C185.07 21.3555 202.569 16.9767 204.652 14.2126C206.735 11.4485 206.422 7.26908 204.933 6.80396Z" fill="url(#paint15_linear_7_147)"/>
<g style="mix-blend-mode:screen" opacity="0.5">
<path d="M205.308 7.81397C203.989 7.56812 196.771 14.2658 198.504 15.6146C200.236 16.9635 205.615 16.0598 206.684 14.4917C207.754 12.9236 206.641 8.05982 205.308 7.81397Z" fill="#353600"/>
</g>
<g style="mix-blend-mode:multiply">
<path d="M193.557 16.8704C189.147 21.3222 184.45 26.4983 184.175 26.6578L184.075 25.7342C186.108 23.6013 188.966 20.8106 192.756 17.5349L193.557 16.8704Z" fill="#CBE4FE"/>
</g>
<path d="M172.992 26.5781C173.035 27.3824 172.86 28.1828 172.486 28.8837C170.24 32.8704 161.278 30.2126 161.278 30.2126L160.534 2.29901C160.534 2.29901 163.273 2.29901 166.163 6.28572C167.069 7.52825 170.947 15.588 172.417 22.3655C172.735 23.747 172.927 25.1576 172.992 26.5781Z" fill="#115434"/>
<g style="mix-blend-mode:multiply">
<path d="M172.993 26.5781C173.036 27.3824 172.86 28.1828 172.486 28.8837C171.304 29.5482 169.453 28.9435 169.453 28.9435C169.453 28.9435 166.169 13.8339 167.439 13.1362C168.708 12.4385 170.941 17.5614 172.442 22.3256C172.754 23.721 172.938 25.1451 172.993 26.5781Z" fill="#89C2FE"/>
</g>
<path d="M171.154 32.1196C170.971 32.5811 170.653 32.9679 170.247 33.2226C166.113 36.0996 151.021 33.6545 149.508 31.681C149.239 31.311 149.051 30.882 148.957 30.4252C148.332 27.8737 149.126 23.1162 150.621 18.1993C153.073 10.2259 157.401 1.89365 160.534 2.3189C161.704 2.47837 163.436 5.26243 165.175 9.08967C168.733 16.9103 172.323 29.1162 171.154 32.1196Z" fill="url(#paint16_linear_7_147)"/>
<path style="mix-blend-mode:multiply" opacity="0.6" d="M158.02 31.7276C158.157 31.8738 155.699 44.2658 155.186 28.8106C155.186 28.206 155.186 27.608 155.186 27.0233C155.133 20.127 156.269 13.2787 158.539 6.81728C158.977 5.55144 159.493 4.31737 160.084 3.12292C155.781 17.2757 157.894 31.5814 158.02 31.7276Z" fill="url(#paint17_linear_7_147)"/>
<path style="mix-blend-mode:multiply" d="M171.154 32.1196C170.971 32.5812 170.653 32.9679 170.247 33.2226C165.362 32.5582 156.362 31.3887 148.982 30.4253C148.357 27.8738 149.151 23.1163 150.646 18.1994C152.066 20.3854 155.024 22.8505 161.116 21.3754C166.644 20.0465 166.469 14.1329 165.2 9.08972C168.733 16.9103 172.323 29.1163 171.154 32.1196Z" fill="url(#paint18_linear_7_147)"/>
<path style="mix-blend-mode:screen" opacity="0.5" d="M159.746 2.59138C158.689 2.31231 149.845 16.3721 151.959 18.2724C154.073 20.1728 164.086 17.4087 164.486 11.5814C164.887 5.75417 160.953 2.91696 159.746 2.59138Z" fill="url(#paint19_linear_7_147)"/>
<g style="mix-blend-mode:screen" opacity="0.5">
<path d="M160.428 3.54816C159.333 3.42856 157.526 14.299 158.551 15.4618C159.577 16.6246 163.93 14.392 164.299 10.9701C164.668 7.54816 162.204 3.7475 160.428 3.54816Z" fill="#353600"/>
</g>
<g style="mix-blend-mode:multiply">
<path d="M156.318 26.3854L155.155 27.0499C155.102 20.1536 156.238 13.3053 158.507 6.84387C155.105 18.5183 156.318 26.3854 156.318 26.3854Z" fill="#CBE4FE"/>
</g>
<path d="M211.945 25.6744C211.945 25.6744 210.387 24.0864 201.9 24.2525C196.821 24.3474 191.775 25.1448 186.89 26.6246L192.412 32.8771L211.945 25.6744Z" fill="#115434"/>
<path d="M208.43 36.8438C208.43 36.8438 207.836 34.4452 209.018 33.196C210.2 31.9468 206.391 32.0532 206.391 32.0532L206.078 36.5448L208.43 36.8438Z" fill="#115434"/>
<path d="M211.582 30.0531C211.275 30.9236 210.881 31.887 210.419 32.9103C210.281 32.9103 210.137 32.9103 209.993 32.9103C209.03 33.0166 207.973 33.4086 207.829 34.5914C207.768 35.0565 207.822 35.5306 207.986 35.9668C208.095 36.2638 208.249 36.5399 208.442 36.784C203.639 45.4219 195.377 55.5016 189.398 52.5515C179.61 47.7409 181.192 33.5216 182.768 31.2558C184.594 28.598 191.849 26.6777 198.71 25.6943C204.765 24.8306 210.519 24.7309 211.957 25.6146C212.601 26.0731 212.401 27.7342 211.582 30.0531Z" fill="url(#paint20_linear_7_147)"/>
<path style="mix-blend-mode:multiply" opacity="0.6" d="M209.981 29.495L209.887 29.6212C206.578 34.7871 202.363 39.2269 197.472 42.6977C193.838 45.2407 189.74 46.9389 185.445 47.681C168.058 50.5382 184.701 44.0199 184.701 44.0199C184.701 44.0199 197.641 44.2658 211.945 26.0797C211.382 27.2752 210.725 28.4177 209.981 29.495Z" fill="url(#paint21_linear_7_147)"/>
<path style="mix-blend-mode:multiply" d="M207.973 36.0266C208.082 36.3236 208.236 36.5997 208.43 36.8439C203.626 45.4817 195.364 55.5615 189.385 52.6113C179.597 47.8007 181.179 33.5814 182.755 31.3156C184.582 28.6578 191.837 26.7375 198.698 25.7542C194.82 29.3289 186.245 38.4983 196.196 41.8472C200.762 43.3821 204.739 40.412 207.973 36.0266Z" fill="url(#paint22_linear_7_147)"/>
<path style="mix-blend-mode:multiply" d="M211.569 30.0797C211.263 30.9501 210.869 31.9136 210.406 32.9369C210.268 32.9369 210.124 32.9369 209.98 32.9369C210.543 32.0266 211.069 31.0565 211.569 30.0797Z" fill="url(#paint23_linear_7_147)"/>
<path style="mix-blend-mode:screen" opacity="0.5" d="M211.307 25.7541C210.681 24.8771 200.943 24.8837 199.711 26.9634C198.479 29.0432 198.967 37.2093 202.013 37.7475C205.059 38.2857 212.076 26.8704 211.307 25.7541Z" fill="url(#paint24_linear_7_147)"/>
<g style="mix-blend-mode:screen" opacity="0.5">
<path d="M200.299 26.6379C199.461 27.0764 199.386 32.6645 201.631 33.2226C203.876 33.7808 212.019 27.2425 211.256 26.1462C210.493 25.0499 203.889 24.7641 200.299 26.6379Z" fill="#353600"/>
</g>
<g style="mix-blend-mode:multiply">
<path d="M209.887 29.6213C206.578 34.7871 202.363 39.2269 197.472 42.6977C197.384 42.3631 197.325 42.0205 197.297 41.6744C197.297 41.515 199.486 40.6379 202.926 37.608C205.492 35.1997 207.824 32.524 209.887 29.6213Z" fill="#CBE4FE"/>
</g>
<path d="M37.6425 54.9302L11.2555 100.532C11.2555 100.532 7.64671 92.206 9.7169 80.8239C10.2934 77.642 11.2453 74.5501 12.5501 71.6213C15.1322 65.9091 19.4971 61.3235 24.9024 58.6445C28.8958 56.5784 33.2159 55.3189 37.6425 54.9302Z" fill="#115434"/>
<g style="mix-blend-mode:multiply">
<path d="M10.3237 83.0565C10.0069 82.3562 9.79579 81.6073 9.69824 80.8372C10.2747 77.6553 11.2266 74.5634 12.5315 71.6346C15.1159 65.9141 19.4881 61.3231 24.9025 58.6445C39.4001 59.3223 13.1319 87.9601 10.3237 83.0565Z" fill="#89C2FE"/>
</g>
<path d="M11.2556 100.532C11.1608 100.458 11.0783 100.368 11.0117 100.266C9.39811 97.907 9.02284 84.412 13.4196 75.0166C13.853 74.077 14.3483 73.1711 14.9019 72.3056C20.3682 63.7475 27.911 58.392 33.6649 57.0233C36.9422 56.2458 39.6378 56.7641 41.0451 58.7375C41.7333 59.7515 42.1052 60.9692 42.1083 62.2193C43.6781 102.492 13.1319 101.907 11.2556 100.532Z" fill="url(#paint25_linear_7_147)"/>
<g style="mix-blend-mode:screen" opacity="0.5">
<path d="M11.0174 97.9535C11.8868 99.5149 24.0827 86.1063 24.2516 83.4352C24.4205 80.7641 16.7464 73.8405 14.9702 75.3621C13.1939 76.8837 7.93404 92.4252 11.0174 97.9535Z" fill="#353600"/>
</g>
<path style="mix-blend-mode:multiply" opacity="0.6" d="M43.7402 62.3721C43.7402 62.3721 35.1405 77.5481 26.0404 87.4684C16.9403 97.3887 11.4365 100.013 11.4365 100.013C13.0752 98.4895 14.6221 96.9767 16.0772 95.4751C20.7491 90.6755 24.9969 85.4309 28.7673 79.8073C34.784 70.7707 36.8979 64.4119 36.8979 64.4119L43.7402 62.3721Z" fill="url(#paint26_linear_7_147)"/>
<path style="mix-blend-mode:multiply" d="M11.2551 100.532C11.1603 100.458 11.0778 100.368 11.0112 100.266C24.0891 102.87 33.5706 84.0598 25.4963 76.8903C21.4372 73.2824 16.9466 73.6677 13.4192 74.99C13.8525 74.0504 14.3478 73.1445 14.9014 72.279C20.3677 63.7209 27.9105 58.3654 33.6644 56.9966L41.0446 58.7109C41.7328 59.7249 42.1047 60.9425 42.1078 62.1927C43.6776 102.492 13.1315 101.907 11.2551 100.532Z" fill="url(#paint27_linear_7_147)"/>
<path d="M10.5487 84.804C10.0483 84.1395 9.92324 78.5781 12.2123 78.0133C14.5014 77.4485 11.4305 86.0133 10.5487 84.804Z" fill="#115434"/>
<g style="mix-blend-mode:multiply">
<path d="M10.2545 82.9037C10.2545 83.2425 11.2426 80.5249 11.5366 81.1163C11.8305 81.7077 12.162 82.3854 12.5561 81.8339C12.9501 81.2824 13.4504 78.1661 12.5561 78.0399C11.6617 77.9136 10.1419 79.196 10.2545 82.9037Z" fill="#89C2FE"/>
</g>
<g style="mix-blend-mode:multiply">
<path d="M29.0422 79.8405C27.6791 82.6567 26.0148 85.2965 24.0825 87.7076C21.4682 90.7043 16.4084 95.1694 16.0957 95.4485C20.7599 90.6565 25.0013 85.4209 28.767 79.8073L29.0422 79.8405Z" fill="#CBE4FE"/>
</g>
<path d="M202.432 95.0166C200.38 106.977 185.545 69.1362 185.545 69.1362L194.07 62.99L195.608 61.8804C197.737 66.9077 199.473 72.1124 200.799 77.4418C202.282 83.4086 203.295 89.9734 202.432 95.0166Z" fill="#115434"/>
<g style="mix-blend-mode:multiply">
<path d="M200.537 78.3322C198.986 77.6677 194.164 68.4252 194.164 68.4252L194.07 62.99L195.608 61.8804C197.737 66.9077 199.473 72.1124 200.799 77.4418C200.843 78.0996 200.762 78.4053 200.537 78.3322Z" fill="#89C2FE"/>
</g>
<path d="M201.644 97.7342C201.392 98.3325 200.985 98.8419 200.469 99.2021C199.954 99.5624 199.352 99.7586 198.736 99.7674C195.083 99.8472 189.661 97.6412 184.757 94.5116C178.672 90.6113 173.381 85.2691 173.274 81.0565C173.249 80.3884 173.373 79.7234 173.637 79.1163C173.725 78.9169 173.831 78.7043 173.943 78.4917C176.633 73.4086 185.727 65.7342 192.394 66.5316C198.298 67.289 205.196 90.6312 201.644 97.7342Z" fill="url(#paint28_linear_7_147)"/>
<path style="mix-blend-mode:multiply" opacity="0.6" d="M199.405 99.3355C194.461 96.6714 190.072 92.9767 186.502 88.4717C180.735 81.103 180.179 76.8239 180.179 76.8239L182.743 75.4352C183.561 78.7775 184.783 81.9935 186.377 85.0033C186.658 85.5747 186.971 86.1594 187.302 86.7641C189.554 90.8704 193.701 94.7375 196.503 97.0764H196.546C198.154 98.4452 199.311 99.2691 199.405 99.3355Z" fill="url(#paint29_linear_7_147)"/>
<path style="mix-blend-mode:multiply" d="M201.644 97.7342C201.3 93.3555 199.911 87.6345 195.302 84.7043C189.748 81.1761 186.314 89.1362 184.757 94.5116C178.671 90.6113 173.38 85.2691 173.274 81.0565L173.943 78.4917C176.633 73.4086 185.726 65.7342 192.393 66.5316C198.298 67.289 205.196 90.6312 201.644 97.7342Z" fill="url(#paint30_linear_7_147)"/>
<g style="mix-blend-mode:screen" opacity="0.5">
<path d="M190.13 88.9701C188.985 90.5648 197.278 98.1861 199.88 98.3854C202.482 98.5847 199.142 87.6811 196.565 85.7608C193.989 83.8405 191.381 87.2226 190.13 88.9701Z" fill="#353600"/>
</g>
<g style="mix-blend-mode:multiply">
<path d="M196.502 97.0765C188.215 90.9834 185.632 85.1628 185.57 85.1628L186.377 85.0034C186.658 85.5748 186.971 86.1595 187.302 86.7642C189.554 90.8705 193.7 94.7376 196.502 97.0765Z" fill="#CBE4FE"/>
</g>
<path d="M30.9566 6.0199C30.4813 5.56807 31.4695 9.14282 32.2576 10.8903C33.0456 12.6378 34.6905 14.6179 34.6154 13.7541C34.5404 12.8903 31.7322 6.74415 30.9566 6.0199Z" fill="#97D13D"/>
<path d="M2.78094 21.7342C2.30561 21.8206 4.17566 24.1395 5.28268 24.5315C6.38969 24.9236 8.40985 24.5847 7.90324 23.8671C7.39664 23.1495 3.98803 21.5216 2.78094 21.7342Z" fill="#97D13D"/>
<path d="M159.727 5.04317C159.502 5.14949 158.551 9.65447 158.845 10.0133C159.139 10.3721 160.333 9.44184 160.471 8.13952C160.609 6.83719 159.908 4.96344 159.727 5.04317Z" fill="#97D13D"/>
<path d="M198.104 13.9867C197.441 14.8571 200.762 13.3223 201.481 12.804C202.2 12.2857 203.357 9.36877 203.001 9.36877C202.644 9.36877 199.117 12.6645 198.104 13.9867Z" fill="#97D13D"/>
<path d="M194.157 93.3953C193.206 93.3422 197.409 97.5017 198.785 97.7342C200.161 97.9668 199.992 93.7409 194.157 93.3953Z" fill="#97D13D"/>
<path d="M23.3198 74.0266C23.3198 74.0266 23.57 87.0233 27.5915 89.5947C31.6131 92.1661 187.846 95.01 191.518 88.6047C193.819 84.618 195.27 70.4984 195.27 70.4984L23.3198 74.0266Z" fill="#4ABAFF"/>
<path d="M199.011 35.5083C199.011 46.6844 194.633 82.8904 190.523 87.701C190.467 87.7739 190.404 87.8407 190.336 87.9003C184.638 93.2159 31.6695 91.289 27.1663 87.9003C27.0996 87.8506 27.0368 87.795 26.9787 87.7342C25.215 85.8804 23.5513 76.8837 22.3192 66.6578C21.0684 56.0598 20.2178 44.1395 20.2178 37.4751C20.2178 36.4851 20.2178 35.6213 20.2741 34.8837C20.2975 34.2894 20.3539 33.697 20.4429 33.1096L21.3248 28.0332C21.4124 27.5415 21.5187 27.2492 21.6625 27.1827C35.6347 20.6246 152.553 21.608 188.028 25.3887C193.144 25.9336 196.565 26.5382 197.735 27.1827C197.847 27.2425 197.935 27.4751 198.004 27.8472L198.879 32.917C198.992 33.7753 199.036 34.6421 199.011 35.5083Z" fill="url(#paint31_linear_7_147)"/>
<g style="mix-blend-mode:multiply" opacity="0.4">
<path d="M190.523 87.7076C190.467 87.7805 190.404 87.8473 190.336 87.9069C184.638 93.2226 31.6694 91.2956 27.1663 87.9069C27.0995 87.8572 27.0367 87.8017 26.9787 87.7408C26.8824 85.8639 27.2285 83.9912 27.9856 82.2923C27.9856 82.2923 187.115 79.0697 188.722 80.7774C190.167 82.299 190.073 83.5216 190.523 87.7076Z" fill="#6E1A46"/>
</g>
<path d="M197.128 45.0232C196.972 46.5515 196.803 48.1196 196.609 49.7209C196.234 52.9169 195.802 56.2193 195.321 59.4286C195.15 60.5936 194.974 61.7431 194.795 62.8771C194.797 62.8947 194.797 62.9126 194.795 62.9302L194.764 63.083C193.238 72.5183 191.362 80.5515 189.554 82.2392C188.929 82.8173 186.533 83.309 182.762 83.7276C178.89 84.1528 173.549 84.4983 167.189 84.7575C123.558 86.5847 31.4693 84.8438 28.0044 82.2392C27.0288 81.5016 26.0718 78.4917 25.2025 74.2259C24.6459 71.4618 24.1205 68.1661 23.6452 64.6312C23.5451 63.8737 23.445 63.103 23.3387 62.3256C23.3387 62.2325 23.3387 62.1462 23.3387 62.0664C23.3012 61.7342 23.2636 61.402 23.2199 61.0698C23.2199 60.8704 23.1761 60.7109 23.1636 60.6246C23.1664 60.5981 23.1664 60.5713 23.1636 60.5448C22.9134 58.4385 22.682 56.2923 22.4693 54.1395C22.0566 49.9335 21.7313 45.7408 21.5062 41.9601C21.5062 41.4286 21.4436 40.9169 21.4186 40.4053C21.4186 40.4053 21.4186 40.3721 21.4186 40.299C21.4186 40.2259 21.4186 40.1727 21.4186 40.1063V40.0398C21.0371 32.7973 21.0809 27.4618 21.7376 27.1628C37.7237 19.6545 188.491 22.0266 197.791 27.1628C198.466 27.5947 198.122 35.3953 197.128 45.0232Z" fill="url(#paint32_linear_7_147)"/>
<path d="M197.128 45.0233C197.159 44.5449 198.053 29.794 195.301 28.4718C185.382 23.6944 28.4795 20.4983 23.2446 29.3555C20.9243 33.2691 21.3058 38.6578 21.3683 40.0598C20.9868 32.8173 21.0306 27.4817 21.6873 27.1827C37.6734 19.6744 188.44 22.0465 197.741 27.1827C198.466 27.5947 198.122 35.3954 197.128 45.0233Z" fill="#FF6D40"/>
<path d="M23.1387 60.5648C23.1415 60.6005 23.1415 60.6363 23.1387 60.672C23.1415 60.6453 23.1415 60.6183 23.1387 60.5916V60.5648Z" fill="#FF6D40"/>
<path d="M194.745 63.1229C193.219 72.5581 191.343 80.5914 189.535 82.2791C183.906 87.5482 32.4449 85.6412 27.9856 82.2791C26.2406 80.9502 24.5769 72.3854 23.3198 62.3455C23.9453 66.7243 25.9279 77.7874 30.9564 80.8771C37.2795 84.7575 180.985 84.1993 186.689 80.4186C191.937 76.9169 194.395 64.9701 194.745 63.1229Z" fill="#C93B28"/>
<path d="M124.59 83.4552C124.59 83.4552 139.276 78.8638 148.075 79.1229C156.875 79.3821 167.414 83.2359 167.414 83.2359L124.59 83.4552Z" fill="#C93B28"/>
<g style="mix-blend-mode:soft-light" opacity="0.3">
<path d="M27.5167 28.9635C21.4938 29.7076 24.0331 72.5382 33.5897 78.206C43.1463 83.8738 178.346 82.5515 185.414 78.206C192.481 73.8605 195.008 33.5548 193.344 31.8538C187.253 25.6678 80.4222 22.3987 27.5167 28.9635Z" fill="#FFAF80"/>
</g>
<path d="M125.772 86.1063C125.772 86.1063 139.157 80.0598 147.613 80.3788C152.957 80.682 158.154 82.3456 162.767 85.2293L125.772 86.1063Z" fill="url(#paint33_linear_7_147)"/>
<g style="mix-blend-mode:multiply" opacity="0.5">
<path d="M133.916 82.99C132.877 83.4817 163.855 86.598 162.379 84.9834C160.903 83.3688 146.975 76.8173 133.916 82.99Z" fill="#884CC4"/>
</g>
<g style="mix-blend-mode:multiply" opacity="0.4">
<path d="M196.609 49.7342C196.233 52.9303 195.802 56.2326 195.32 59.4419C180.397 52.711 138.068 35.7342 92.4302 36.7841C55.0668 37.6612 33.089 47.5083 22.4129 54.1595C22.0001 49.9535 21.6749 45.7608 21.4497 41.9801C23.5824 41.2359 26.2343 40.412 29.4553 39.5681H29.5303L29.7555 39.515C41.5512 36.4253 60.8583 33.1097 90.1224 32.5582C130.557 31.8339 170.584 41.9203 189.948 47.6678C192.562 48.4518 194.795 49.1695 196.609 49.7342Z" fill="#DD358D"/>
</g>
<g style="mix-blend-mode:multiply" opacity="0.4">
<path d="M182.743 83.7741C178.872 84.1994 173.53 84.5449 167.17 84.804C147.081 70.5648 115.884 52.2791 85.9885 50.3522C53.5472 48.2525 34.4903 63.4818 25.1838 74.2725C24.6272 71.5083 24.1018 68.2127 23.6265 64.6778C30.7651 59.0136 38.654 54.504 47.0365 51.2957H47.1178C47.9871 50.9502 48.869 50.6313 49.7821 50.2857H49.8822C60.5224 46.5245 71.5717 44.2245 82.7612 43.4419C99.5667 42.113 118.655 48.0931 136.33 56.2857C143.491 59.608 150.414 63.3223 156.869 67.0764H156.913C166.988 72.917 175.938 78.917 182.743 83.7741Z" fill="#DD358D"/>
</g>
<g style="mix-blend-mode:multiply" opacity="0.4">
<path d="M189.948 47.6811C168.058 41.8671 129.144 32.8372 99.0915 33.1096C57.6127 33.4817 32.7017 38.8306 29.7559 39.495C41.5515 36.4252 60.8587 33.1096 90.1227 32.5581C130.557 31.8472 170.585 41.9335 189.948 47.6811Z" fill="#944B71"/>
</g>
<g style="mix-blend-mode:multiply" opacity="0.4">
<path d="M136.342 56.2193C125.028 51.2824 110.23 46.3588 95.0133 45.5482C70.8778 44.2857 55.7924 48.206 49.8945 50.1994C60.5347 46.4381 71.5841 44.1381 82.7736 43.3555C99.5665 42.0731 118.655 48 136.342 56.2193Z" fill="#944B71"/>
</g>
<g style="mix-blend-mode:soft-light" opacity="0.3">
<path d="M33.3766 69.2492C29.8241 72.6778 34.002 77.3289 47.5052 79.1163C61.0083 80.9037 146.893 79.6611 140.639 72.3123C134.384 64.9635 73.248 30.7376 33.3766 69.2492Z" fill="#FFAF80"/>
</g>
<g style="mix-blend-mode:soft-light" opacity="0.3">
<path d="M122.301 27.1828C118.592 27.9402 188.597 47.3555 190.836 45.9934C193.075 44.6313 192.5 33.103 191.58 31.8538C190.661 30.6047 137.049 24.1529 122.301 27.1828Z" fill="#FFAF80"/>
</g>
<g style="mix-blend-mode:soft-light" opacity="0.3">
<path d="M119.324 39.0964C117.923 39.0964 177.07 79.9801 182.743 76.6246C188.416 73.2691 190.961 60.0997 189.66 58.4718C188.359 56.8439 143.616 39.495 119.324 39.0964Z" fill="#FFAF80"/>
</g>
<path d="M66.0493 51.3223C66.0493 51.3223 76.9819 48.412 93.1056 50.5382C103.15 51.942 112.942 54.9295 122.157 59.402C122.157 59.402 92.9993 46.2326 66.0493 51.3223Z" fill="#D45028"/>
<path d="M29.0425 73.2093C29.0425 73.2093 33.0265 75.5216 36.1912 75.3555C39.3559 75.1894 41.5386 72.5648 41.5386 72.5648C39.8055 73.326 37.9723 73.7989 36.1036 73.9668C33.7355 73.9005 31.3753 73.6473 29.0425 73.2093Z" fill="#6E1A35"/>
<path d="M27.8296 67.7741C27.8296 67.7741 28.7427 69.8871 30.275 70.5582C31.8073 71.2293 34.922 70.4718 34.922 70.4718C33.5453 70.3931 32.1825 70.1388 30.8629 69.7143C29.8187 69.128 28.806 68.4802 27.8296 67.7741Z" fill="#6E1A35"/>
<path d="M27.8296 67.7741C28.6927 68.5991 29.6746 69.2721 30.7379 69.7675C32.1013 70.1722 33.5068 70.3954 34.922 70.4319C33.5927 70.1255 32.2812 69.7373 30.9943 69.2691C29.9121 68.8388 28.8553 68.3395 27.8296 67.7741Z" fill="#DB602C"/>
<path d="M29.0425 73.2093C31.3095 73.9476 33.67 74.3106 36.0411 74.2858C37.9816 74.2182 39.8737 73.6259 41.5386 72.5648C39.7345 72.9521 37.9086 73.214 36.0724 73.3489C33.7287 73.4674 31.3803 73.4208 29.0425 73.2093Z" fill="#DB602C"/>
<path d="M148.882 49.3024V49.2027C149.564 49.1163 150.196 49.0632 150.759 49.0366C150.139 49.1634 149.512 49.2522 148.882 49.3024ZM125.741 57.9801C124.372 57.8339 123.477 56.9568 123.058 55.3223C123.144 54.7792 123.276 54.2454 123.452 53.7276C125.199 50.3345 127.169 48.6357 129.363 48.6313C130.914 48.6313 131.902 49.3289 132.315 50.7243C132.286 51.8495 132.019 52.9534 131.533 53.9535C129.732 56.6423 127.943 57.989 126.167 57.9934C126.035 57.9976 125.904 57.9932 125.773 57.9801H125.741ZM163.937 64.2193L171.367 69.8605L182.281 46.3455L181.561 43.4751L175.582 38.3057L171.83 46.6578L166.132 38.6047L160.734 43.5947L161.247 46.4651L167.439 54.0665L163.436 61.1695L163.937 64.2193ZM138.162 42.7841L142.059 69.6612L150.265 68.4386L149.889 60.2459L156.025 69.6014L162.367 65.1163L161.848 62.0532C159.896 59.3688 158.401 57.3444 157.363 55.9801C159.519 54.0798 160.649 52.0864 160.753 50C160.789 49.3688 160.753 48.7352 160.647 48.113L160.14 45.2226C160.068 44.7663 159.946 44.3204 159.777 43.8937C157.801 40.5626 155.091 38.7154 151.647 38.3522C151.503 38.3522 151.353 38.3522 151.209 38.3123L149.27 38.2127C143.203 38.7531 139.407 39.3068 137.881 39.8738L138.162 42.7841ZM75.8817 63.0632C78.3084 67.9757 81.5211 70.2104 85.5197 69.7675C91.0485 69.0321 94.626 65.9579 96.2521 60.5449L96.3835 57.5283L90.0103 54.618C88.7052 56.1551 87.5565 56.9989 86.5641 57.1495C86.2483 57.189 85.9293 57.189 85.6135 57.1495C84.0207 56.9856 82.9783 55.7298 82.4863 53.3821C83.0992 51.216 84.5586 49.8871 86.8644 49.3954C88.0402 49.2093 89.2222 49.7143 90.4043 50.897L95.708 46.2459C95.708 46.3987 95.6767 46.5449 95.6642 46.6977L95.5204 49.608C97.9179 49.3998 100.222 49.2979 102.431 49.3024L102.469 52.3057C102.369 60.4253 102.519 66.2038 102.919 69.6412H109.88C109.993 66.6556 110.047 63.3843 110.043 59.8273V56.8372C110.043 54.4452 110.014 51.9203 109.955 49.2625C111.832 49.2625 113.889 49.3156 116.141 49.4153C115.815 50.743 115.606 52.0998 115.515 53.4685V54.1329L115.578 57.1097C115.591 58.6804 115.791 60.2431 116.172 61.7608C117.531 66.6335 120.469 69.2603 124.985 69.6412C128.862 69.6412 132.05 68.3411 134.547 65.7409C137.629 61.6612 139.171 57.3156 139.176 52.7043C139.176 52.4186 139.176 52.1329 139.176 51.8539C139.176 51.2691 139.176 50.7043 139.094 50.1462L138.813 47.3688V47.2359C138.72 46.2733 138.529 45.3242 138.244 44.4053C137.574 42.6807 136.462 41.1904 135.035 40.1038C133.608 39.0173 131.922 38.3782 130.169 38.2592C129.813 38.2193 129.45 38.1927 129.075 38.1861C126.168 38.1946 123.345 39.2195 121.041 41.1025C118.737 42.9855 117.081 45.622 116.329 48.6047L116.266 46.5117C115.928 44.0443 115.48 41.2403 114.921 38.0997C107.929 38.0997 101.883 38.1529 96.7837 38.2592C96.496 39.5881 96.2334 41.1938 95.9957 43.0764C94.2778 40.0953 91.9846 38.4519 89.1159 38.1462C88.22 38.0554 87.317 38.08 86.4266 38.2193C85.316 38.3278 84.2353 38.6616 83.2431 39.2027C78.2396 42.1174 75.4544 45.9801 74.8873 50.7907L74.5433 53.7276C74.4675 54.3601 74.4299 54.997 74.4307 55.6346C74.4317 56.4818 74.4903 57.3279 74.6058 58.1661C74.7484 59.8671 75.1807 61.5264 75.8817 63.0632ZM36.8984 46.1063L44.8852 69.7675L52.4905 69.7276L59.0576 47.4685L58.8699 48.9901L62.2785 48.7907V59.1761L59.0576 59.7475L58.551 62.7841L58.9825 69.8605H73.6052L73.9617 66.7575L74.7309 59.5482L70.8532 59.0897L70.4029 48.9502C71.5037 48.9502 72.6357 49.01 73.799 49.103L74.1493 46.206L73.5238 38.2326L60.3084 38.7309L59.8206 41.5548L59.6705 42.7243L51.6399 38.206L51.0583 41.0299L49.1382 50.5582C47.2744 43.2492 46.2445 39.3954 46.0485 38.9967C41.4287 41.2115 38.6267 42.6246 37.6427 43.2359L36.8984 46.1063Z" fill="url(#paint34_linear_7_147)"/>
<path d="M59.7826 42.7708L51.6519 38.206L49.4066 49.1694L49.1127 50.598C48.9938 50.113 48.875 49.6479 48.7562 49.196C47.1175 42.7774 46.2065 39.3843 46.023 39.0166C41.4031 41.2315 38.6012 42.6445 37.6172 43.2558L39.8562 49.8339L45.5227 66.6711L53.0279 66.6312L54.21 62.6445L56.768 54.0067L58.2315 49.0299L59.5386 44.6246L60.039 42.917L59.7826 42.7708Z" fill="url(#paint35_linear_7_147)"/>
<path d="M70.8533 59.0963L70.4155 49.289L70.2716 46.0465C71.5225 46.0465 72.8171 46.0974 74.1556 46.1993L73.5301 38.2259L60.321 38.7242L59.8144 42.7907L59.5955 44.5714L59.4078 46.0864L62.7789 45.887V59.0963L59.0889 59.7608L59.5142 66.7707H73.993L74.756 59.5614L70.8533 59.0963Z" fill="url(#paint36_linear_7_147)"/>
<path d="M90.0099 54.6179C88.7027 56.1528 87.5519 56.99 86.5638 57.1495C84.3497 57.4419 82.9571 56.0842 82.3858 53.0764C82.3797 52.1344 82.5127 51.1972 82.7799 50.299C83.4053 48.2436 84.8271 46.9856 87.0453 46.5249C88.2149 46.3389 89.3782 46.8306 90.5478 48.0066L96.0015 43.1894L96.0641 43.1362C96.0641 43.1362 96.0641 43.0831 96.0203 43.0565C93.7938 39.2071 90.5957 37.5902 86.4262 38.206C85.3143 38.3164 84.2332 38.6549 83.2427 39.2027C78.6562 41.8605 75.946 45.32 75.1121 49.5814C74.979 50.2247 74.8912 50.8777 74.8494 51.5349C74.77 52.7501 74.814 53.9709 74.9807 55.1761C75.1192 56.8555 75.543 58.4944 76.2316 60.0133C76.438 60.4319 76.6506 60.8372 76.857 61.2159C79.1711 65.2292 82.1378 67.0388 85.7569 66.6445C91.2566 65.9225 94.8007 62.8793 96.3893 57.5149L90.0099 54.6179Z" fill="url(#paint37_linear_7_147)"/>
<path d="M109.905 49.0631C109.905 48.1794 109.861 47.2824 109.836 46.3655C111.775 46.3655 113.918 46.4186 116.266 46.5249C115.934 44.0532 115.478 41.2492 114.921 38.1063C107.929 38.1063 101.883 38.1595 96.7833 38.2658C96.4956 39.5947 96.2329 41.1982 95.9953 43.0764V43.2093C95.8639 44.2857 95.7389 45.4618 95.6138 46.7176C97.9842 46.5249 100.267 46.4186 102.45 46.4186L102.487 49.3887C102.487 50.7176 102.487 52.0465 102.487 53.2558C102.407 57.6917 102.568 62.1287 102.969 66.5449H109.849C109.961 63.5548 110.013 60.2724 110.005 56.6977C110.005 56.0864 110.005 55.4618 110.005 54.8306C109.974 52.9834 109.949 51.0631 109.905 49.0631Z" fill="url(#paint38_linear_7_147)"/>
<path d="M138.218 44.4253C136.484 40.3854 133.429 38.3123 129.055 38.206C127.603 38.2266 126.162 38.4866 124.784 38.9768C119.096 41.4884 115.998 46.3212 115.49 53.4751C115.481 54.3763 115.525 55.2773 115.621 56.1728C115.708 57.0464 115.863 57.9109 116.084 58.7575C117.431 63.577 120.349 66.175 124.84 66.5515C126.222 66.5674 127.598 66.3773 128.93 65.9867C130.961 65.3915 132.813 64.2468 134.303 62.6645C134.515 62.3854 134.716 62.1063 134.928 61.8273C135.272 61.3289 135.597 60.8306 135.898 60.3256C137.813 57.1869 138.836 53.528 138.843 49.7874C138.952 47.9742 138.74 46.1556 138.218 44.4253ZM126.197 58.0067C124.258 58.0067 123.153 56.7176 122.882 54.1396C122.813 53.0092 122.973 51.8762 123.351 50.8173C125.074 47.4552 127.023 45.7741 129.199 45.7741C131.284 45.7741 132.326 47.0587 132.326 49.6279C132.444 51.1293 132.173 52.6363 131.545 53.9867C129.739 56.6623 127.957 58.0022 126.197 58.0067Z" fill="url(#paint39_linear_7_147)"/>
<path d="M161.847 62.0797C158.278 57.1716 156.239 54.474 155.731 53.9867C158.645 51.8206 160.146 49.5349 160.259 47.1296C160.337 46.0514 160.179 44.9687 159.796 43.9668C157.711 40.4983 154.855 38.6379 151.227 38.3854L149.282 38.2857C143.224 38.8261 139.43 39.3821 137.899 39.9535L141.414 64.1927L141.758 66.5515L145.98 65.9402L149.883 65.3688L149.476 57.2492L155.555 66.5515L161.847 62.0797ZM148.782 49.3156L148.488 46.3056C149.673 46.126 150.872 46.0859 152.065 46.186C152.879 46.3455 153.279 46.7442 153.235 47.3953C153.185 48.4275 151.701 49.0675 148.782 49.3156Z" fill="url(#paint40_linear_7_147)"/>
<path d="M175.6 38.3057L171.848 46.6578L166.106 38.598L160.734 43.5881L168.189 52.7376L163.436 61.1694L170.778 66.7575L181.586 43.5017L175.6 38.3057Z" fill="url(#paint41_linear_7_147)"/>
<g style="mix-blend-mode:screen" opacity="0.5">
<path d="M46.0484 38.9966C46.236 39.3687 47.1471 42.7597 48.7816 49.1694C45.4167 49.3222 42.4271 49.5481 39.8566 49.794L37.6426 43.2292C38.6266 42.5958 41.4285 41.1849 46.0484 38.9966Z" fill="#DFE300"/>
</g>
<g style="mix-blend-mode:screen" opacity="0.5">
<path d="M70.2711 46.0465L70.4149 49.2891C67.7589 49.1429 65.203 49.0454 62.7471 48.9967V45.8472L59.376 46.0465L59.5637 44.5316L58.2565 48.9369C55.0918 48.9369 52.1398 49.01 49.4316 49.1296L51.6394 38.206L59.7701 42.7708L60.2767 38.7043L73.4858 38.206L74.1113 46.1794C72.8104 46.0908 71.5303 46.0465 70.2711 46.0465Z" fill="#DFE300"/>
</g>
<g style="mix-blend-mode:screen" opacity="0.5">
<path d="M109.836 46.3655C109.916 49.3422 109.966 52.1661 109.987 54.8372C107.435 54.2525 104.927 53.7342 102.481 53.2558C102.481 52.0332 102.481 50.7376 102.481 49.3887L102.444 46.4186C100.261 46.4186 97.9782 46.5249 95.6078 46.7176C95.7329 45.4618 95.858 44.2857 95.9893 43.2093L90.5355 48.0067C89.366 46.8306 88.2027 46.3389 87.0331 46.5249C84.8191 46.9679 83.3972 48.2259 82.7676 50.299C80.1241 49.9889 77.5619 49.7542 75.0811 49.5947C75.9442 45.3511 78.6544 41.8915 83.2117 39.216C84.2027 38.6705 85.2838 38.3343 86.3952 38.2259C90.5647 37.6102 93.7628 39.227 95.9893 43.0764C96.227 41.216 96.4897 39.6124 96.7774 38.2658C101.86 38.1595 107.906 38.1063 114.915 38.1063C115.472 41.2492 115.928 44.0532 116.26 46.5249C113.92 46.4186 111.779 46.3655 109.836 46.3655Z" fill="#DFE300"/>
</g>
<g style="mix-blend-mode:screen" opacity="0.5">
<path d="M138.218 44.4253C136.484 40.3854 133.429 38.3123 129.055 38.206C127.603 38.2266 126.162 38.4866 124.784 38.9768C119.096 41.4884 115.998 46.3212 115.49 53.4751C115.481 54.3763 115.525 55.2773 115.621 56.1728C121.844 57.7409 128.28 59.6146 134.878 61.8605C137.412 58.4079 138.806 54.1652 138.843 49.7874C138.952 47.9742 138.74 46.1556 138.218 44.4253ZM131.588 53.9668C129.787 56.6556 127.998 58.0022 126.222 58.0067C124.283 58.0067 123.178 56.7176 122.907 54.1396C122.838 53.0092 122.998 51.8762 123.377 50.8173C125.099 47.4552 127.048 45.7741 129.224 45.7741C131.309 45.7741 132.351 47.0587 132.351 49.6279C132.463 51.1233 132.191 52.623 131.563 53.9668H131.588Z" fill="#DFE300"/>
</g>
<g style="mix-blend-mode:screen" opacity="0.5">
<path d="M161.847 62.0797C158.278 57.1716 156.239 54.474 155.731 53.9867C158.645 51.8206 160.146 49.5349 160.259 47.1296C160.337 46.0514 160.179 44.9687 159.796 43.9668C157.711 40.4983 154.855 38.6379 151.227 38.3854L149.282 38.2857C143.224 38.8261 139.43 39.3821 137.899 39.9535L141.414 64.1927C142.934 64.7508 144.448 65.3355 145.98 65.9402L149.883 65.3688L149.476 57.2492L155.555 66.5515L161.847 62.0797ZM148.782 49.3156L148.488 46.3056C149.673 46.126 150.872 46.0859 152.065 46.186C152.879 46.3455 153.279 46.7442 153.235 47.3953C153.185 48.4275 151.701 49.0675 148.782 49.3156Z" fill="#DFE300"/>
</g>
<g style="mix-blend-mode:screen" opacity="0.5">
<path d="M181.58 43.4685L170.772 66.7575L163.429 61.1694L168.183 52.7376L160.728 43.5881L166.131 38.598L171.873 46.6578L175.6 38.3057L181.58 43.4685Z" fill="#DFE300"/>
</g>
<g style="mix-blend-mode:multiply" opacity="0.5">
<path d="M56.7928 53.9336L54.2348 62.5715C53.2913 61.6602 52.603 60.4898 52.2459 59.1894C51.3452 56.1595 55.0353 54.5316 56.7928 53.9336Z" fill="#E3C1C1"/>
</g>
<g style="mix-blend-mode:multiply" opacity="0.5">
<path d="M52.4274 55.3422C51.7206 55.5947 51.5017 51.196 52.4274 52.1661C53.353 53.1362 54.4913 54.6179 52.4274 55.3422Z" fill="#E3C1C1"/>
</g>
<g style="mix-blend-mode:multiply" opacity="0.5">
<path d="M78.0825 55.6478C78.1348 57.5928 77.7033 59.518 76.8316 61.2292C76.6127 60.8505 76.4001 60.4452 76.2062 60.0266C75.5176 58.5077 75.0938 56.8688 74.9553 55.1894C74.7886 53.9841 74.7446 52.7634 74.824 51.5482C75.9748 51.9202 77.9824 53.1561 78.0825 55.6478Z" fill="#E3C1C1"/>
</g>
<g style="mix-blend-mode:multiply" opacity="0.5">
<path d="M109.992 56.7043C109.129 55.3754 108.272 53.083 108.435 51.2824C108.598 49.4817 109.317 49.0631 109.905 49.0631C109.949 51.0565 109.974 52.9834 109.986 54.8372C109.992 55.4684 109.992 56.093 109.992 56.7043Z" fill="#E3C1C1"/>
</g>
<g style="mix-blend-mode:multiply" opacity="0.5">
<path d="M107.572 55.3488C106.865 54.8704 106.108 58.3854 107.265 58.6711C108.422 58.9568 108.923 56.2923 107.572 55.3488Z" fill="#E3C1C1"/>
</g>
<g style="mix-blend-mode:multiply" opacity="0.5">
<path d="M135.823 60.3588C135.523 60.8637 135.197 61.3621 134.853 61.8604C134.659 62.1395 134.459 62.4186 134.228 62.6976C132.738 64.28 130.887 65.4246 128.855 66.0199C129.162 64.0265 130.225 60.299 133.277 60.1329C134.132 60.0531 134.993 60.1295 135.823 60.3588Z" fill="#E3C1C1"/>
</g>
<path d="M46.9053 66.9036C46.9053 66.9036 47.906 64.3654 49.407 64.9767C49.8479 65.1677 50.234 65.4779 50.5269 65.8766C50.8199 66.2753 51.0095 66.7485 51.0769 67.2492L46.9053 66.9036Z" fill="url(#paint42_linear_7_147)"/>
<path d="M83.2745 49.3223C83.2745 49.3223 82.7491 46.2591 83.8999 45.8937C84.3526 45.8143 84.8166 45.8526 85.2523 46.0053C85.688 46.1581 86.0824 46.4207 86.4016 46.7708C86.3078 46.8505 83.2745 49.3223 83.2745 49.3223Z" fill="url(#paint43_linear_7_147)"/>
<path d="M163.104 46.7708C163.104 46.7708 165.537 45.6479 166.438 47.5615C167.339 49.4751 166.05 50.392 166.05 50.392L163.104 46.7708Z" fill="url(#paint44_linear_7_147)"/>
<defs>

<linearGradient id="paint1_linear_7_147" x1="55.0796" y1="84.7708" x2="54.9737" y2="127.628" gradientUnits="userSpaceOnUse">
<stop stop-color="#0C3B37"/>
<stop offset="0.08" stop-color="#144533"/>
<stop offset="0.5" stop-color="#39721E"/>
<stop offset="0.81" stop-color="#508E12"/>
<stop offset="1" stop-color="#59980D"/>
</linearGradient>
<linearGradient id="paint2_linear_7_147" x1="72.4725" y1="76.3389" x2="74.5685" y2="120.553" gradientUnits="userSpaceOnUse">
<stop stop-color="#0C3B37"/>
<stop offset="0.08" stop-color="#144533"/>
<stop offset="0.5" stop-color="#39721E"/>
<stop offset="0.81" stop-color="#508E12"/>
<stop offset="1" stop-color="#59980D"/>
</linearGradient>
<linearGradient id="paint3_linear_7_147" x1="154.486" y1="72.4518" x2="156.582" y2="116.673" gradientUnits="userSpaceOnUse">
<stop stop-color="#0C3B37"/>
<stop offset="0.08" stop-color="#144533"/>
<stop offset="0.5" stop-color="#39721E"/>
<stop offset="0.81" stop-color="#508E12"/>
<stop offset="1" stop-color="#59980D"/>
</linearGradient>
<linearGradient id="paint4_linear_7_147" x1="40.1625" y1="53.4818" x2="1.38665" y2="23.4928" gradientUnits="userSpaceOnUse">
<stop offset="0.01" stop-color="#187447"/>
<stop offset="0.34" stop-color="#33832F"/>
<stop offset="0.76" stop-color="#4F9216"/>
<stop offset="1" stop-color="#59980D"/>
</linearGradient>
<linearGradient id="paint5_linear_7_147" x1="51.6269" y1="70.3322" x2="-10.8087" y2="6.96602" gradientUnits="userSpaceOnUse">
<stop stop-color="#806EEE"/>
<stop offset="0.24" stop-color="#A095F1"/>
<stop offset="0.59" stop-color="#CAC6F5"/>
<stop offset="0.85" stop-color="#E3E5F8"/>
<stop offset="1" stop-color="#EDF1F9"/>
</linearGradient>
<linearGradient id="paint6_linear_7_147" x1="-1.82232" y1="15.4884" x2="39.6074" y2="49.2185" gradientUnits="userSpaceOnUse">
<stop stop-color="#DBF8FE"/>
<stop offset="0.27" stop-color="#D9F5FE"/>
<stop offset="0.44" stop-color="#D3ECFE"/>
<stop offset="0.6" stop-color="#C7DDFE"/>
<stop offset="0.73" stop-color="#B8C8FE"/>
<stop offset="0.86" stop-color="#A4ACFF"/>
<stop offset="0.98" stop-color="#8B8BFF"/>
<stop offset="1" stop-color="#8785FF"/>
</linearGradient>
<linearGradient id="paint7_linear_7_147" x1="23.3887" y1="41.9535" x2="1.01393" y2="11.2237" gradientUnits="userSpaceOnUse">
<stop/>
<stop offset="0.62" stop-color="#363600"/>
<stop offset="1" stop-color="#525300"/>
</linearGradient>
<linearGradient id="paint8_linear_7_147" x1="39.8251" y1="44.4252" x2="31.8989" y2="9.071" gradientUnits="userSpaceOnUse">
<stop offset="0.01" stop-color="#187447"/>
<stop offset="0.34" stop-color="#33832F"/>
<stop offset="0.76" stop-color="#4F9216"/>
<stop offset="1" stop-color="#59980D"/>
</linearGradient>
<linearGradient id="paint9_linear_7_147" x1="45.2101" y1="49.4884" x2="29.3059" y2="-1.54622" gradientUnits="userSpaceOnUse">
<stop stop-color="#806EEE"/>
<stop offset="0.24" stop-color="#A095F1"/>
<stop offset="0.59" stop-color="#CAC6F5"/>
<stop offset="0.85" stop-color="#E3E5F8"/>
<stop offset="1" stop-color="#EDF1F9"/>
</linearGradient>
<linearGradient id="paint10_linear_7_147" x1="33.0704" y1="-2.99668" x2="38.3741" y2="34.7071" gradientUnits="userSpaceOnUse">
<stop stop-color="#DBF8FE"/>
<stop offset="0.27" stop-color="#D9F5FE"/>
<stop offset="0.44" stop-color="#D3ECFE"/>
<stop offset="0.6" stop-color="#C7DDFE"/>
<stop offset="0.73" stop-color="#B8C8FE"/>
<stop offset="0.86" stop-color="#A4ACFF"/>
<stop offset="0.98" stop-color="#8B8BFF"/>
<stop offset="1" stop-color="#8785FF"/>
</linearGradient>
<linearGradient id="paint11_linear_7_147" x1="45.0161" y1="31.5881" x2="21.9494" y2="-0.0993857" gradientUnits="userSpaceOnUse">
<stop/>
<stop offset="0.62" stop-color="#363600"/>
<stop offset="1" stop-color="#525300"/>
</linearGradient>
<linearGradient id="paint12_linear_7_147" x1="179.91" y1="44.5382" x2="203.753" y2="10.8202" gradientUnits="userSpaceOnUse">
<stop offset="0.01" stop-color="#187447"/>
<stop offset="0.34" stop-color="#33832F"/>
<stop offset="0.76" stop-color="#4F9216"/>
<stop offset="1" stop-color="#59980D"/>
</linearGradient>
<linearGradient id="paint13_linear_7_147" x1="192.737" y1="-8.64452" x2="192.737" y2="34.0664" gradientUnits="userSpaceOnUse">
<stop stop-color="#806EEE"/>
<stop offset="0.24" stop-color="#A095F1"/>
<stop offset="0.59" stop-color="#CAC6F5"/>
<stop offset="0.85" stop-color="#E3E5F8"/>
<stop offset="1" stop-color="#EDF1F9"/>
</linearGradient>
<linearGradient id="paint14_linear_7_147" x1="190.924" y1="-13.8206" x2="189.138" y2="42.4587" gradientUnits="userSpaceOnUse">
<stop stop-color="#DBF8FE"/>
<stop offset="0.27" stop-color="#D9F5FE"/>
<stop offset="0.44" stop-color="#D3ECFE"/>
<stop offset="0.6" stop-color="#C7DDFE"/>
<stop offset="0.73" stop-color="#B8C8FE"/>
<stop offset="0.86" stop-color="#A4ACFF"/>
<stop offset="0.98" stop-color="#8B8BFF"/>
<stop offset="1" stop-color="#8785FF"/>
</linearGradient>
<linearGradient id="paint15_linear_7_147" x1="200.487" y1="22.6711" x2="189.74" y2="7.90919" gradientUnits="userSpaceOnUse">
<stop/>
<stop offset="0.62" stop-color="#363600"/>
<stop offset="1" stop-color="#525300"/>
</linearGradient>
<linearGradient id="paint16_linear_7_147" x1="160.259" y1="40.1395" x2="159.56" y2="6.42687" gradientUnits="userSpaceOnUse">
<stop offset="0.01" stop-color="#187447"/>
<stop offset="0.34" stop-color="#33832F"/>
<stop offset="0.76" stop-color="#4F9216"/>
<stop offset="1" stop-color="#59980D"/>
</linearGradient>
<linearGradient id="paint17_linear_7_147" x1="157.607" y1="-18.505" x2="157.607" y2="39.8073" gradientUnits="userSpaceOnUse">
<stop stop-color="#806EEE"/>
<stop offset="0.24" stop-color="#A095F1"/>
<stop offset="0.59" stop-color="#CAC6F5"/>
<stop offset="0.85" stop-color="#E3E5F8"/>
<stop offset="1" stop-color="#EDF1F9"/>
</linearGradient>
<linearGradient id="paint18_linear_7_147" x1="160.065" y1="-6.49167" x2="160.065" y2="35.5416" gradientUnits="userSpaceOnUse">
<stop stop-color="#DBF8FE"/>
<stop offset="0.27" stop-color="#D9F5FE"/>
<stop offset="0.44" stop-color="#D3ECFE"/>
<stop offset="0.6" stop-color="#C7DDFE"/>
<stop offset="0.73" stop-color="#B8C8FE"/>
<stop offset="0.86" stop-color="#A4ACFF"/>
<stop offset="0.98" stop-color="#8B8BFF"/>
<stop offset="1" stop-color="#8785FF"/>
</linearGradient>
<linearGradient id="paint19_linear_7_147" x1="163.63" y1="21.3954" x2="150.259" y2="3.02749" gradientUnits="userSpaceOnUse">
<stop/>
<stop offset="0.62" stop-color="#363600"/>
<stop offset="1" stop-color="#525300"/>
</linearGradient>
<linearGradient id="paint20_linear_7_147" x1="182.975" y1="44.3588" x2="203.852" y2="35.1882" gradientUnits="userSpaceOnUse">
<stop offset="0.01" stop-color="#187447"/>
<stop offset="0.34" stop-color="#33832F"/>
<stop offset="0.76" stop-color="#4F9216"/>
<stop offset="1" stop-color="#59980D"/>
</linearGradient>
<linearGradient id="paint21_linear_7_147" x1="194.739" y1="11.6146" x2="194.739" y2="50.5714" gradientUnits="userSpaceOnUse">
<stop stop-color="#806EEE"/>
<stop offset="0.24" stop-color="#A095F1"/>
<stop offset="0.59" stop-color="#CAC6F5"/>
<stop offset="0.85" stop-color="#E3E5F8"/>
<stop offset="1" stop-color="#EDF1F9"/>
</linearGradient>
<linearGradient id="paint22_linear_7_147" x1="196.065" y1="-0.578077" x2="194.42" y2="51.21" gradientUnits="userSpaceOnUse">
<stop stop-color="#DBF8FE"/>
<stop offset="0.27" stop-color="#D9F5FE"/>
<stop offset="0.44" stop-color="#D3ECFE"/>
<stop offset="0.6" stop-color="#C7DDFE"/>
<stop offset="0.73" stop-color="#B8C8FE"/>
<stop offset="0.86" stop-color="#A4ACFF"/>
<stop offset="0.98" stop-color="#8B8BFF"/>
<stop offset="1" stop-color="#8785FF"/>
</linearGradient>
<linearGradient id="paint23_linear_7_147" x1="210.894" y1="27.2624" x2="210.717" y2="32.7767" gradientUnits="userSpaceOnUse">
<stop stop-color="#DBF8FE"/>
<stop offset="0.27" stop-color="#D9F5FE"/>
<stop offset="0.44" stop-color="#D3ECFE"/>
<stop offset="0.6" stop-color="#C7DDFE"/>
<stop offset="0.73" stop-color="#B8C8FE"/>
<stop offset="0.86" stop-color="#A4ACFF"/>
<stop offset="0.98" stop-color="#8B8BFF"/>
<stop offset="1" stop-color="#8785FF"/>
</linearGradient>
<linearGradient id="paint24_linear_7_147" x1="210.369" y1="38.1262" x2="198.646" y2="22.0242" gradientUnits="userSpaceOnUse">
<stop/>
<stop offset="0.62" stop-color="#363600"/>
<stop offset="1" stop-color="#525300"/>
</linearGradient>
<linearGradient id="paint25_linear_7_147" x1="36.0103" y1="62.6777" x2="15.2133" y2="94.3351" gradientUnits="userSpaceOnUse">
<stop offset="0.01" stop-color="#187447"/>
<stop offset="0.34" stop-color="#33832F"/>
<stop offset="0.76" stop-color="#4F9216"/>
<stop offset="1" stop-color="#59980D"/>
</linearGradient>
<linearGradient id="paint26_linear_7_147" x1="44.2155" y1="61.4883" x2="-16.1565" y2="122.233" gradientUnits="userSpaceOnUse">
<stop stop-color="#806EEE"/>
<stop offset="0.24" stop-color="#A095F1"/>
<stop offset="0.59" stop-color="#CAC6F5"/>
<stop offset="0.85" stop-color="#E3E5F8"/>
<stop offset="1" stop-color="#EDF1F9"/>
</linearGradient>
<linearGradient id="paint27_linear_7_147" x1="-8.85255" y1="112.751" x2="55.0981" y2="59.195" gradientUnits="userSpaceOnUse">
<stop stop-color="#DBF8FE"/>
<stop offset="0.27" stop-color="#D9F5FE"/>
<stop offset="0.44" stop-color="#D3ECFE"/>
<stop offset="0.6" stop-color="#C7DDFE"/>
<stop offset="0.73" stop-color="#B8C8FE"/>
<stop offset="0.86" stop-color="#A4ACFF"/>
<stop offset="0.98" stop-color="#8B8BFF"/>
<stop offset="1" stop-color="#8785FF"/>
</linearGradient>
<linearGradient id="paint28_linear_7_147" x1="178.953" y1="69.1894" x2="201.019" y2="94.2082" gradientUnits="userSpaceOnUse">
<stop offset="0.01" stop-color="#187447"/>
<stop offset="0.34" stop-color="#33832F"/>
<stop offset="0.76" stop-color="#4F9216"/>
<stop offset="1" stop-color="#59980D"/>
</linearGradient>
<linearGradient id="paint29_linear_7_147" x1="189.792" y1="60.0265" x2="189.792" y2="101.648" gradientUnits="userSpaceOnUse">
<stop stop-color="#806EEE"/>
<stop offset="0.24" stop-color="#A095F1"/>
<stop offset="0.59" stop-color="#CAC6F5"/>
<stop offset="0.85" stop-color="#E3E5F8"/>
<stop offset="1" stop-color="#EDF1F9"/>
</linearGradient>
<linearGradient id="paint30_linear_7_147" x1="202.995" y1="164.904" x2="179.19" y2="53.2805" gradientUnits="userSpaceOnUse">
<stop stop-color="#DBF8FE"/>
<stop offset="0.27" stop-color="#D9F5FE"/>
<stop offset="0.44" stop-color="#D3ECFE"/>
<stop offset="0.6" stop-color="#C7DDFE"/>
<stop offset="0.73" stop-color="#B8C8FE"/>
<stop offset="0.86" stop-color="#A4ACFF"/>
<stop offset="0.98" stop-color="#8B8BFF"/>
<stop offset="1" stop-color="#8785FF"/>
</linearGradient>
<linearGradient id="paint31_linear_7_147" x1="109.611" y1="22.2459" x2="109.611" y2="92.4319" gradientUnits="userSpaceOnUse">
<stop stop-color="#400D3C"/>
<stop offset="1" stop-color="#5C0049"/>
</linearGradient>
<linearGradient id="paint32_linear_7_147" x1="109.611" y1="-25.5548" x2="109.611" y2="125.741" gradientUnits="userSpaceOnUse">
<stop stop-color="#FF682B"/>
<stop offset="1" stop-color="#6E0025"/>
</linearGradient>
<linearGradient id="paint33_linear_7_147" x1="144.267" y1="75.5416" x2="144.267" y2="85.515" gradientUnits="userSpaceOnUse">
<stop stop-color="#400D3C"/>
<stop offset="1" stop-color="#5C0049"/>
</linearGradient>
<linearGradient id="paint34_linear_7_147" x1="109.611" y1="11.3954" x2="109.611" y2="66.5781" gradientUnits="userSpaceOnUse">
<stop stop-color="#75186E"/>
<stop offset="1" stop-color="#8C006F"/>
</linearGradient>
<linearGradient id="paint35_linear_7_147" x1="48.8437" y1="67.6678" x2="48.8437" y2="23.8273" gradientUnits="userSpaceOnUse">
<stop stop-color="#FFB5F4"/>
<stop offset="0.36" stop-color="#FECEF6"/>
<stop offset="0.74" stop-color="#FCE3F8"/>
<stop offset="1" stop-color="#FCEAF9"/>
</linearGradient>
<linearGradient id="paint36_linear_7_147" x1="66.8943" y1="67.6677" x2="66.8943" y2="23.8272" gradientUnits="userSpaceOnUse">
<stop stop-color="#FFB5F4"/>
<stop offset="0.36" stop-color="#FECEF6"/>
<stop offset="0.74" stop-color="#FCE3F8"/>
<stop offset="1" stop-color="#FCEAF9"/>
</linearGradient>
<linearGradient id="paint37_linear_7_147" x1="85.5818" y1="67.6744" x2="85.5818" y2="23.8272" gradientUnits="userSpaceOnUse">
<stop stop-color="#FFB5F4"/>
<stop offset="0.36" stop-color="#FECEF6"/>
<stop offset="0.74" stop-color="#FCE3F8"/>
<stop offset="1" stop-color="#FCEAF9"/>
</linearGradient>
<linearGradient id="paint38_linear_7_147" x1="105.94" y1="67.6678" x2="105.94" y2="23.8273" gradientUnits="userSpaceOnUse">
<stop stop-color="#FFB5F4"/>
<stop offset="0.36" stop-color="#FECEF6"/>
<stop offset="0.74" stop-color="#FCE3F8"/>
<stop offset="1" stop-color="#FCEAF9"/>
</linearGradient>
<linearGradient id="paint39_linear_7_147" x1="127.154" y1="67.6678" x2="127.154" y2="23.8273" gradientUnits="userSpaceOnUse">
<stop stop-color="#FFB5F4"/>
<stop offset="0.36" stop-color="#FECEF6"/>
<stop offset="0.74" stop-color="#FCE3F8"/>
<stop offset="1" stop-color="#FCEAF9"/>
</linearGradient>
<linearGradient id="paint40_linear_7_147" x1="149.864" y1="67.6678" x2="149.864" y2="23.8272" gradientUnits="userSpaceOnUse">
<stop stop-color="#FFB5F4"/>
<stop offset="0.36" stop-color="#FECEF6"/>
<stop offset="0.74" stop-color="#FCE3F8"/>
<stop offset="1" stop-color="#FCEAF9"/>
</linearGradient>
<linearGradient id="paint41_linear_7_147" x1="171.154" y1="67.6678" x2="171.154" y2="23.8273" gradientUnits="userSpaceOnUse">
<stop stop-color="#FFB5F4"/>
<stop offset="0.36" stop-color="#FECEF6"/>
<stop offset="0.74" stop-color="#FCE3F8"/>
<stop offset="1" stop-color="#FCEAF9"/>
</linearGradient>
<linearGradient id="paint42_linear_7_147" x1="48.9755" y1="64.804" x2="48.9613" y2="68.784" gradientUnits="userSpaceOnUse">
<stop stop-color="#75186E"/>
<stop offset="1" stop-color="#8C006F"/>
</linearGradient>
<linearGradient id="paint43_linear_7_147" x1="84.763" y1="45.7076" x2="84.7489" y2="51.6013" gradientUnits="userSpaceOnUse">
<stop stop-color="#75186E"/>
<stop offset="1" stop-color="#8C006F"/>
</linearGradient>
<linearGradient id="paint44_linear_7_147" x1="164.931" y1="46.3123" x2="164.917" y2="52.9568" gradientUnits="userSpaceOnUse">
<stop stop-color="#75186E"/>
<stop offset="1" stop-color="#8C006F"/>
</linearGradient>
</defs>
</svg>
