<svg xmlns="http://www.w3.org/2000/svg" width="22" height="28" viewBox="0 0 22 28" fill="none">
  <path fill-rule="evenodd" clip-rule="evenodd" d="M17.9367 3.32305L16.4797 5.65273L13.7004 4.09144C14.0794 3.4375 14.4247 2.7999 15.0395 1.69637C15.1069 1.57376 15.3343 1.54923 15.6375 1.6228C16.0292 1.71771 16.4039 1.86927 16.7492 2.07239C17.1024 2.25693 17.4235 2.49415 17.7009 2.77538C17.9198 3.00426 18.0125 3.20044 17.9367 3.32305Z" fill="url(#paint0_linear_1_1797)"/>
  <path style="mix-blend-mode:multiply" fill-rule="evenodd" clip-rule="evenodd" d="M17.7006 2.77533C17.5382 2.6038 17.3543 2.45275 17.1531 2.32574C16.3867 3.60911 15.9741 4.28757 15.4688 5.09683L16.4625 5.65268L17.9195 3.32301C17.9953 3.20039 17.9195 3.00421 17.6837 2.77533H17.7006Z" fill="url(#paint1_linear_1_1797)"/>
  <path style="mix-blend-mode:multiply" fill-rule="evenodd" clip-rule="evenodd" d="M14.1047 4.3203C14.5511 3.54375 14.9469 2.87346 15.6291 1.61462C15.3259 1.5574 15.1069 1.57374 15.0395 1.69636C14.4247 2.79989 14.0794 3.43748 13.7004 4.09142L14.1047 4.3203Z" fill="url(#paint2_linear_1_1797)"/>
  <g style="mix-blend-mode:screen" opacity="0.2">
    <path fill-rule="evenodd" clip-rule="evenodd" d="M16.6816 2.03148C16.4143 1.88184 16.1321 1.75861 15.8394 1.66364C14.9383 3.18405 15.7805 3.59277 16.6816 2.03148Z" fill="#CBBBA0"/>
  </g>
  <path fill-rule="evenodd" clip-rule="evenodd" d="M11.1229 9.8298C8.77322 8.51374 6.73511 7.2549 5.50551 6.38025C5.39602 6.31485 5.74132 5.61187 7.24043 3.11053C8.73953 0.609203 9.19431 -0.0447398 9.3038 0.0206544C10.7018 0.617377 12.841 1.69638 15.1991 3.01244C17.5573 4.3285 19.587 5.58734 20.8166 6.46199C20.9261 6.52739 20.5808 7.23037 19.0901 9.73171C17.5994 12.233 17.1278 12.8706 17.0099 12.8706C15.6202 12.2739 13.4811 11.1949 11.1145 9.87067L11.1229 9.8298Z" fill="url(#paint3_radial_1_1797)"/>
  <path fill-rule="evenodd" clip-rule="evenodd" d="M17.0102 12.8706C15.6206 12.2739 13.4814 11.1949 11.1149 9.87067C8.7483 8.54643 6.73546 7.2549 5.50586 6.38025C5.64764 7.14616 5.86769 7.89645 6.16277 8.62C6.18354 8.66268 6.21548 8.69932 6.25541 8.72627C7.48501 9.60092 9.49785 10.8434 11.8055 12.1349C14.1131 13.4265 16.3028 14.5382 17.7008 15.1349L17.0439 12.8706H17.0102Z" fill="url(#paint4_radial_1_1797)"/>
  <path fill-rule="evenodd" clip-rule="evenodd" d="M19.1155 9.73171C17.709 12.0532 17.2037 12.7725 17.0437 12.8706L17.6922 15.1676C17.8017 15.2248 18.2565 14.5872 19.7556 12.0696C21.1115 9.78075 21.5242 8.99602 21.4989 8.79984C21.3629 8.00962 21.1369 7.2365 20.8251 6.49469C20.8757 6.62548 20.4798 7.39386 19.0818 9.76441L19.1155 9.73171Z" fill="url(#paint5_radial_1_1797)"/>
  <path style="mix-blend-mode:screen" opacity="0.5" fill-rule="evenodd" clip-rule="evenodd" d="M9.76722 5.63635C10.6086 5.09893 11.5563 4.73775 12.5496 4.57589C13.5429 4.41403 14.5601 4.45504 15.5362 4.69631C16.6227 4.92519 20.2104 5.89793 20.5052 7.23852C20.7999 6.67449 20.8673 6.46196 20.8084 6.42109C19.5788 5.54644 17.5407 4.2876 15.1909 2.97154C12.8412 1.65548 10.6936 0.609169 9.30401 0.00427186C9.19453 -0.0611224 8.73132 0.609169 7.24064 3.06145C5.74996 5.51374 5.39624 6.28212 5.50572 6.33117C6.27212 6.87067 7.3417 7.56549 8.60499 8.3257C8.20916 7.50827 8.42813 6.43744 9.76722 5.58731V5.63635Z" fill="url(#paint6_radial_1_1797)"/>
  <path style="mix-blend-mode:screen" opacity="0.5" fill-rule="evenodd" clip-rule="evenodd" d="M10.5588 2.02332C12.5638 2.08829 14.5216 2.63003 16.2605 3.60096L15.1909 2.99606C12.8412 1.68 10.6936 0.609169 9.30395 0.00427186C9.19446 -0.0611224 8.73125 0.609169 7.24057 3.06146L6.99634 3.47834C7.45247 3.00549 8.00438 2.62924 8.61743 2.37323C9.23048 2.11721 9.89144 1.98695 10.5588 1.99062V2.02332Z" fill="url(#paint7_radial_1_1797)"/>
  <path style="mix-blend-mode:multiply" opacity="0.5" fill-rule="evenodd" clip-rule="evenodd" d="M19.5029 11.7752C18.7955 12.7806 17.6248 13.4101 17.3553 12.4945C17.2754 12.6252 17.1695 12.7392 17.0437 12.8297L17.6922 15.1267C17.8017 15.1839 18.2565 14.5463 19.7556 12.0286C21.1115 9.7398 21.5242 8.95507 21.4989 8.75888C21.3629 7.96867 21.1369 7.19555 20.8251 6.45374C20.8251 6.51913 20.7662 6.73984 20.5051 7.27116C20.6256 7.31077 20.7364 7.37403 20.8305 7.45701C20.9247 7.53998 21.0003 7.64089 21.0525 7.75345C21.4568 8.64444 20.084 10.9496 19.5029 11.7915V11.7752Z" fill="url(#paint8_radial_1_1797)"/>
  <path style="mix-blend-mode:multiply" opacity="0.6" fill-rule="evenodd" clip-rule="evenodd" d="M16.589 12.6417C15.8816 14.154 12.378 12.3066 11.1063 11.62C9.79639 10.9047 8.56345 10.064 7.42594 9.11045C6.6696 8.46253 6.04414 7.6836 5.58154 6.81348C5.72563 7.42604 5.91707 8.02719 6.15423 8.61182C6.175 8.6545 6.20695 8.69114 6.24688 8.71809C7.47648 9.59273 9.48932 10.8352 11.7969 12.1268C14.1045 13.4183 16.2942 14.53 17.6923 15.1267L17.0438 12.8706L16.6227 12.6826L16.589 12.6417Z" fill="url(#paint9_radial_1_1797)"/>
  <path fill-rule="evenodd" clip-rule="evenodd" d="M12.8156 11.996C11.5439 14.0477 11.2576 14.4483 10.028 16.5082C8.79836 18.5681 8.70572 18.8051 7.50138 20.9059L6.01912 20.0885L4.53687 19.2711C5.80858 17.2193 5.96859 17.0477 7.21504 14.9796C8.46148 12.9115 8.67203 12.4783 9.8511 10.3693C9.91848 10.2467 10.1459 10.2221 10.4575 10.2957C10.8519 10.3903 11.2295 10.5419 11.5776 10.7453C11.9347 10.9382 12.261 11.1805 12.5461 11.4646C12.7651 11.6935 12.8661 11.8979 12.7904 12.0205L12.8156 11.996Z" fill="url(#paint10_linear_1_1797)"/>
  <path style="mix-blend-mode:multiply" fill-rule="evenodd" clip-rule="evenodd" d="M12.5717 11.4401C12.4057 11.27 12.2222 11.1166 12.0243 10.9824C10.7442 13.124 10.4494 13.5981 9.16084 15.7398C7.87228 17.8815 7.72911 18.1921 6.46582 20.3174L7.52698 20.9059C8.70605 18.8052 8.79027 18.5844 10.0536 16.5082C11.3168 14.4319 11.5695 14.0559 12.8412 11.996C12.917 11.8734 12.8412 11.669 12.597 11.4401H12.5717Z" fill="url(#paint11_linear_1_1797)"/>
  <path style="mix-blend-mode:multiply" fill-rule="evenodd" clip-rule="evenodd" d="M4.9836 19.4836C6.29742 17.3501 6.49112 17.1048 7.77125 14.955C9.05139 12.8052 9.27036 12.3964 10.4747 10.263C10.1631 10.1976 9.94411 10.263 9.87674 10.3447C8.69767 12.4537 8.48712 12.8869 7.24067 14.955C5.99423 17.0231 5.83421 17.1948 4.5625 19.2465L4.9836 19.4836Z" fill="url(#paint12_linear_1_1797)"/>
  <path fill-rule="evenodd" clip-rule="evenodd" d="M7.73734 17.2275C8.52058 17.6689 9.03431 18.2084 8.89956 18.4455C8.76481 18.6825 8.05737 18.5109 7.21518 18.0776C6.37299 17.6444 5.9182 17.0967 6.05295 16.8596C6.1877 16.6226 6.93725 16.7943 7.73734 17.2275Z" fill="#4A2121"/>
  <g style="mix-blend-mode:screen" opacity="0.2">
    <path fill-rule="evenodd" clip-rule="evenodd" d="M11.5357 10.6881C11.269 10.5349 10.9868 10.4089 10.6935 10.3121C7.83002 15.1513 7.65316 15.6826 7.88055 15.8215C8.10794 15.9605 8.79854 15.3638 11.5778 10.6881H11.5357Z" fill="#CBBBA0"/>
  </g>
  <path fill-rule="evenodd" clip-rule="evenodd" d="M9.00898 18.4864C9.06793 18.3883 8.95003 18.2166 8.71421 18.0041C8.40512 17.7403 8.06935 17.5075 7.712 17.3093C7.35823 17.1044 6.98267 16.9372 6.59189 16.8106C6.2887 16.7207 6.06973 16.7126 6.01919 16.8106L5.177 18.2902L6.64242 19.1076L8.10783 19.9251C8.4026 19.4428 8.70579 18.9605 9.00898 18.4782V18.4864Z" fill="url(#paint13_linear_1_1797)"/>
  <path fill-rule="evenodd" clip-rule="evenodd" d="M8.16696 19.9332C8.21749 19.8351 8.11643 19.6389 7.90588 19.3937C7.62784 19.09 7.31729 18.816 6.97947 18.5762C6.66028 18.3238 6.31279 18.1072 5.94357 17.9305C5.64038 17.7751 5.42141 17.7751 5.36246 17.8324L4.52026 19.3037L5.89304 20.3337L7.24055 21.3555C7.53531 20.8895 7.83008 20.4073 8.13327 19.9332H8.16696Z" fill="url(#paint14_linear_1_1797)"/>
  <path fill-rule="evenodd" clip-rule="evenodd" d="M7.50995 20.9959C7.56891 20.906 7.451 20.7261 7.20676 20.5136C6.89595 20.2482 6.55721 20.0153 6.19613 19.8188C5.83791 19.6145 5.45993 19.4447 5.06759 19.312C4.75598 19.2221 4.53701 19.2057 4.48648 19.312C4.20856 19.7943 3.93905 20.2847 3.64429 20.7588L5.12655 21.5763L6.6088 22.3937L7.49311 20.9795L7.50995 20.9959Z" fill="url(#paint15_linear_1_1797)"/>
  <path fill-rule="evenodd" clip-rule="evenodd" d="M7.02154 21.8623C7.0805 21.7724 6.96259 21.5926 6.71835 21.3801C6.40184 21.1119 6.05751 20.8763 5.69088 20.6771C5.33245 20.4677 4.95112 20.2977 4.55392 20.1703C4.24231 20.0722 4.02334 20.0558 3.97281 20.1703L3.11377 21.5762L4.61287 22.3937L6.11198 23.2111L6.95417 21.797L7.02154 21.8623Z" fill="url(#paint16_linear_1_1797)"/>
  <path fill-rule="evenodd" clip-rule="evenodd" d="M6.36478 22.974C6.42374 22.8841 6.28899 22.7288 6.02791 22.5408C5.68157 22.3112 5.31188 22.1167 4.92464 21.9604C4.53551 21.7891 4.12906 21.6576 3.71188 21.568C3.38342 21.5026 3.15603 21.5026 3.1055 21.568L2.27173 23.0067L3.86347 23.6852L5.47206 24.3718L6.31425 22.974H6.36478Z" fill="url(#paint17_linear_1_1797)"/>
  <path fill-rule="evenodd" clip-rule="evenodd" d="M5.57306 24.3146C5.62359 24.2247 5.50568 24.0449 5.26987 23.816C4.9622 23.5314 4.62653 23.2768 4.26766 23.0558C3.91949 22.8266 3.54675 22.6347 3.15597 22.4836C2.85278 22.3691 2.63381 22.3446 2.58328 22.4345L1.69897 23.9958L4.71402 25.6879L5.55622 24.3146H5.57306Z" fill="url(#paint18_linear_1_1797)"/>
  <path style="mix-blend-mode:multiply" opacity="0.5" fill-rule="evenodd" clip-rule="evenodd" d="M5.58158 24.2329C5.52929 24.0945 5.44248 23.971 5.32892 23.8732C5.16573 23.6988 4.98829 23.5375 4.79834 23.3909C5.17315 23.0947 5.41718 22.6707 5.48052 22.2056C5.70562 22.3143 5.91989 22.4429 6.12058 22.5898C6.241 22.6653 6.33956 22.7694 6.40693 22.8923C6.41358 22.9049 6.41705 22.9189 6.41705 22.9331C6.41705 22.9474 6.41358 22.9614 6.40693 22.974C6.13743 23.3991 5.87635 23.7914 5.62369 24.2329H5.58158Z" fill="url(#paint19_linear_1_1797)"/>
  <path style="mix-blend-mode:multiply" opacity="0.5" fill-rule="evenodd" clip-rule="evenodd" d="M6.37319 22.8923C6.30582 22.7694 6.20726 22.6653 6.08684 22.5898C5.88615 22.4429 5.67188 22.3142 5.44678 22.2056C5.65862 22.0635 5.83406 21.8761 5.95962 21.6579C6.08518 21.4397 6.15752 21.1964 6.17106 20.9468C6.38225 21.0872 6.58215 21.2429 6.76902 21.4127C6.88704 21.5049 6.97723 21.6264 7.0301 21.7642C7.03675 21.7769 7.04022 21.7909 7.04022 21.8051C7.04022 21.8193 7.03675 21.8333 7.0301 21.8459L6.38161 22.8923H6.37319Z" fill="url(#paint20_linear_1_1797)"/>
  <path style="mix-blend-mode:multiply" opacity="0.5" fill-rule="evenodd" clip-rule="evenodd" d="M7.02993 21.7643C6.97707 21.6264 6.88687 21.505 6.76886 21.4128C6.58198 21.243 6.38209 21.0872 6.1709 20.9468C6.30846 20.8537 6.42292 20.7321 6.50596 20.5907C6.589 20.4493 6.63853 20.2917 6.65095 20.1294C6.86459 20.27 7.06727 20.4258 7.25733 20.5953C7.37535 20.6876 7.46554 20.809 7.51841 20.9468C7.52506 20.9595 7.52853 20.9735 7.52853 20.9877C7.52853 21.0019 7.52506 21.0159 7.51841 21.0286L7.03836 21.7969L7.02993 21.7643Z" fill="url(#paint21_linear_1_1797)"/>
  <path style="mix-blend-mode:multiply" opacity="0.5" fill-rule="evenodd" clip-rule="evenodd" d="M7.51858 20.9141C7.46572 20.7763 7.37552 20.6549 7.2575 20.5626C7.06744 20.3931 6.86477 20.2373 6.65112 20.0967C6.98555 19.7577 7.21847 19.3366 7.32488 18.8787C7.52282 19.0491 7.70592 19.235 7.8723 19.4346C7.98086 19.5492 8.06146 19.6861 8.10812 19.8351C8.11706 19.8672 8.11706 19.9011 8.10812 19.9332C7.89757 20.2602 7.69544 20.5871 7.49332 20.9141H7.51858Z" fill="url(#paint22_linear_1_1797)"/>
  <path style="mix-blend-mode:multiply" opacity="0.5" fill-rule="evenodd" clip-rule="evenodd" d="M8.16703 19.8351C8.12037 19.6861 8.03978 19.5492 7.93121 19.4345C7.76483 19.2349 7.58173 19.049 7.38379 18.8787C7.7841 18.5382 8.04923 18.0727 8.13334 17.5626C8.38433 17.7224 8.61847 17.9059 8.83236 18.1103C8.98396 18.2738 9.05975 18.4046 9.00922 18.4863L8.16703 19.8351Z" fill="url(#paint23_linear_1_1797)"/>
  <path style="mix-blend-mode:multiply" opacity="0.5" fill-rule="evenodd" clip-rule="evenodd" d="M3.1983 22.4999C3.02914 22.4164 2.84049 22.3769 2.65088 22.3855L3.10566 21.5681C3.11147 21.5549 3.12075 21.5434 3.13258 21.5348C3.14441 21.5262 3.15836 21.5207 3.17304 21.519C3.3638 21.4727 3.56339 21.4727 3.75415 21.519C3.47535 21.7641 3.28124 22.0866 3.1983 22.4427V22.4999Z" fill="url(#paint24_linear_1_1797)"/>
  <path style="mix-blend-mode:multiply" opacity="0.5" fill-rule="evenodd" clip-rule="evenodd" d="M3.75396 21.5762C3.56321 21.5298 3.36361 21.5298 3.17285 21.5762L3.95609 20.1375C3.9619 20.1243 3.97118 20.1129 3.98301 20.1043C3.99484 20.0957 4.00879 20.0902 4.02347 20.0885C4.21843 20.0677 4.41562 20.0959 4.59616 20.1702C4.21774 20.577 3.9309 21.0558 3.75396 21.5762Z" fill="url(#paint25_linear_1_1797)"/>
  <path style="mix-blend-mode:multiply" opacity="0.5" fill-rule="evenodd" clip-rule="evenodd" d="M4.61322 20.1702C4.43268 20.0959 4.23549 20.0677 4.04053 20.0885L4.48689 19.2711C4.49469 19.2577 4.50561 19.2463 4.51877 19.2378C4.53194 19.2293 4.54698 19.2239 4.56269 19.222C4.75221 19.1972 4.94508 19.2256 5.11853 19.3038C4.87017 19.5215 4.69425 19.8061 4.61322 20.1212V20.1702Z" fill="url(#paint26_linear_1_1797)"/>
  <path style="mix-blend-mode:multiply" opacity="0.5" fill-rule="evenodd" clip-rule="evenodd" d="M5.11835 19.3364C4.94489 19.2583 4.75202 19.2299 4.5625 19.2547L5.40469 17.8324C5.41033 17.8107 5.42198 17.7909 5.43838 17.7752C5.62601 17.7746 5.80996 17.8256 5.96896 17.9223C5.55845 18.3054 5.2667 18.7925 5.12677 19.3283L5.11835 19.3364Z" fill="url(#paint27_linear_1_1797)"/>
  <path style="mix-blend-mode:multiply" opacity="0.5" fill-rule="evenodd" clip-rule="evenodd" d="M5.96906 17.9304C5.81095 17.8309 5.62693 17.777 5.43848 17.7751L5.99432 16.8024C6.05328 16.6961 6.28909 16.7125 6.63439 16.8024C6.39015 16.8024 6.01959 17.5708 5.96906 17.8977V17.9304Z" fill="url(#paint28_linear_1_1797)"/>
  <g style="mix-blend-mode:multiply" opacity="0.35">
    <path fill-rule="evenodd" clip-rule="evenodd" d="M7.07196 18.3473C7.39454 18.5232 7.69911 18.7285 7.98153 18.9604C8.15896 19.0825 8.29872 19.2493 8.38578 19.4427L8.14155 19.8351C8.06839 19.6267 7.9441 19.4387 7.7794 19.2874C7.51957 19.0205 7.23792 18.7745 6.93721 18.5517C6.65079 18.3282 6.34345 18.1311 6.01922 17.9632C5.84479 17.8491 5.63999 17.7866 5.42969 17.7833C5.64555 17.7576 5.86452 17.7916 6.06133 17.8814C6.40757 18.0108 6.74269 18.1666 7.06354 18.3473H7.07196Z" fill="#4A2121"/>
  </g>
  <g style="mix-blend-mode:multiply" opacity="0.35">
    <path fill-rule="evenodd" clip-rule="evenodd" d="M6.28057 19.6798C6.61898 19.8351 6.94301 20.0183 7.24909 20.2275C7.50175 20.3991 7.66177 20.5545 7.68704 20.6607L7.5186 20.9386C7.42845 20.747 7.28929 20.581 7.11434 20.4564C6.82526 20.2291 6.51833 20.0241 6.19635 19.8433C5.87449 19.659 5.53626 19.5031 5.18572 19.3774C4.99169 19.2882 4.77562 19.2542 4.5625 19.2793C4.78303 19.2469 5.00834 19.2665 5.21941 19.3365C5.58383 19.4313 5.93893 19.5571 6.28057 19.7125V19.6798Z" fill="#4A2121"/>
  </g>
  <g style="mix-blend-mode:multiply" opacity="0.35">
    <path fill-rule="evenodd" clip-rule="evenodd" d="M5.77544 20.5217C6.11896 20.6679 6.44867 20.843 6.76081 21.0449C7.01347 21.2165 7.17348 21.3718 7.19875 21.4863L7.03031 21.756C6.94207 21.5609 6.79907 21.3938 6.61764 21.2738C6.32941 21.0392 6.01927 20.8312 5.69123 20.6525C5.36525 20.4876 5.02751 20.3455 4.68059 20.2274C4.48073 20.1378 4.25913 20.1038 4.04053 20.1294C4.26383 20.0966 4.49197 20.1162 4.70586 20.1866C5.07193 20.2881 5.4295 20.4165 5.77544 20.5708V20.5217Z" fill="#4A2121"/>
  </g>
  <g style="mix-blend-mode:multiply" opacity="0.35">
    <path fill-rule="evenodd" clip-rule="evenodd" d="M5.00041 21.8623C5.3638 21.9763 5.71608 22.1213 6.05315 22.2956C6.32265 22.4427 6.49951 22.5735 6.5332 22.6716L6.37318 22.9332C6.2662 22.7545 6.10826 22.6097 5.9184 22.5163C5.60572 22.3128 5.27279 22.1402 4.92461 22.0013C4.57438 21.8478 4.21082 21.7247 3.83818 21.6335C3.6238 21.5649 3.39544 21.5481 3.17285 21.5844C3.40058 21.5381 3.63572 21.5381 3.86345 21.5844C4.24935 21.648 4.6295 21.741 5.00041 21.8623Z" fill="#4A2121"/>
  </g>
  <g style="mix-blend-mode:multiply" opacity="0.35">
    <path fill-rule="evenodd" clip-rule="evenodd" d="M4.34369 22.9331C4.67542 23.0971 4.9936 23.2856 5.29536 23.4972C5.47839 23.613 5.62658 23.7737 5.72488 23.9631L5.58171 24.2002C5.49297 24.0009 5.35394 23.8266 5.17746 23.6934C4.89344 23.4464 4.58926 23.2222 4.26789 23.0231C3.95154 22.8209 3.61925 22.6432 3.2741 22.4917C3.08321 22.3914 2.86776 22.3433 2.65088 22.3528C2.87221 22.3274 3.09648 22.3613 3.29937 22.4509C3.65884 22.5745 4.00797 22.7248 4.34369 22.9005V22.9331Z" fill="#4A2121"/>
  </g>
  <path fill-rule="evenodd" clip-rule="evenodd" d="M3.47602 24.3882C4.31821 24.8541 4.86564 25.4345 4.71404 25.6879C4.56245 25.9413 3.77079 25.7615 2.93701 25.2955C2.10324 24.8296 1.5474 24.2492 1.69899 23.9958C1.85059 23.7424 2.64225 23.9223 3.47602 24.3882Z" fill="#3D2004"/>
  <path fill-rule="evenodd" clip-rule="evenodd" d="M4.5623 25.6634C3.92223 26.6851 3.55167 27.2982 3.17268 27.8786L0.519775 26.399C0.881918 25.7696 1.21037 25.1647 1.79991 24.1102C1.85886 23.9958 2.06941 23.9794 2.36418 24.0448C2.73885 24.1311 3.09702 24.2746 3.42534 24.4699C3.75769 24.6501 4.06362 24.8728 4.33491 25.132C4.53703 25.3527 4.62968 25.5407 4.5623 25.6552V25.6634Z" fill="url(#paint29_linear_1_1797)"/>
  <path style="mix-blend-mode:multiply" fill-rule="evenodd" clip-rule="evenodd" d="M4.33509 25.132C4.17541 24.9721 4.00058 24.827 3.81294 24.6988C3.11392 25.9495 2.69282 26.5789 2.22119 27.3554L3.17287 27.8786C3.55186 27.2655 3.92242 26.6851 4.56249 25.6634C4.62986 25.5489 4.56249 25.3609 4.33509 25.1402V25.132Z" fill="url(#paint30_linear_1_1797)"/>
  <path style="mix-blend-mode:multiply" fill-rule="evenodd" clip-rule="evenodd" d="M0.907184 26.6116C1.32828 25.8759 1.682 25.2383 2.35576 24.0367C2.06941 23.9795 1.85886 24.0367 1.79991 24.1102C1.21037 25.1647 0.881918 25.7451 0.519775 26.399L0.907184 26.6116Z" fill="url(#paint31_linear_1_1797)"/>
  <g style="mix-blend-mode:screen" opacity="0.2">
    <path fill-rule="evenodd" clip-rule="evenodd" d="M3.35795 24.4372C3.09124 24.2907 2.80883 24.1728 2.51576 24.0858C1.67357 25.5653 1.3788 26.2438 1.58935 26.3664C1.79989 26.489 2.3389 26.1293 3.34111 24.4372H3.35795Z" fill="#CBBBA0"/>
  </g>
  <path fill-rule="evenodd" clip-rule="evenodd" d="M2.08638 26.7669C2.81066 27.1756 3.29914 27.6906 3.17281 27.9031C3.04648 28.1156 2.33061 27.9685 1.60633 27.5598C0.882043 27.1511 0.393571 26.6443 0.5199 26.4236C0.646229 26.2029 1.36209 26.3582 2.08638 26.7669Z" fill="url(#paint32_linear_1_1797)"/>
  <path style="mix-blend-mode:multiply" opacity="0.5" fill-rule="evenodd" clip-rule="evenodd" d="M2.40642 23.9468C2.47465 23.6797 2.58245 23.4236 2.72645 23.1866C2.84257 22.9335 3.00203 22.7013 3.19808 22.4999C3.02891 22.4164 2.84026 22.3769 2.65065 22.3855C2.62337 22.3944 2.59976 22.4116 2.58328 22.4345L1.69897 23.9958C1.77477 23.865 2.04427 23.8487 2.40642 23.9468Z" fill="url(#paint33_linear_1_1797)"/>
  <path style="mix-blend-mode:multiply" opacity="0.5" fill-rule="evenodd" clip-rule="evenodd" d="M4.79837 23.4318C4.61835 23.9125 4.34695 24.3561 3.99829 24.7397C4.51203 25.1157 4.84048 25.4999 4.69731 25.6879L5.5395 24.3146C5.59003 24.2247 5.47213 24.0448 5.23631 23.816C5.10099 23.6769 4.95456 23.5484 4.79837 23.4318Z" fill="url(#paint34_linear_1_1797)"/>
  <defs>
    <linearGradient id="paint0_linear_1_1797" x1="14.4668" y1="2.66094" x2="17.3203" y2="4.3531" gradientUnits="userSpaceOnUse">
      <stop stop-color="#7F4E2F"/>
      <stop offset="0.31" stop-color="#D68833"/>
      <stop offset="1" stop-color="#70442E"/>
    </linearGradient>
    <linearGradient id="paint1_linear_1_1797" x1="16.3194" y1="3.7072" x2="17.3477" y2="4.32241" gradientUnits="userSpaceOnUse">
      <stop stop-color="white"/>
      <stop offset="0.4" stop-color="#C3C7E6"/>
      <stop offset="1" stop-color="#616DBE"/>
    </linearGradient>
    <linearGradient id="paint2_linear_1_1797" x1="14.4247" y1="2.72632" x2="14.8893" y2="2.99984" gradientUnits="userSpaceOnUse">
      <stop stop-color="#616DBE"/>
      <stop offset="0.6" stop-color="#C3C7E6"/>
      <stop offset="1" stop-color="white"/>
    </linearGradient>
    <radialGradient id="paint3_radial_1_1797" cx="0" cy="0" r="1" gradientUnits="userSpaceOnUse" gradientTransform="translate(9.13536 0.404846) scale(14.7384 14.305)">
      <stop stop-color="#89A5C4"/>
      <stop offset="1" stop-color="#575E91"/>
    </radialGradient>
    <radialGradient id="paint4_radial_1_1797" cx="0" cy="0" r="1" gradientUnits="userSpaceOnUse" gradientTransform="translate(5.28689 5.84075) scale(18.7641 18.2123)">
      <stop stop-color="#5D7085"/>
      <stop offset="1" stop-color="#40456B"/>
    </radialGradient>
    <radialGradient id="paint5_radial_1_1797" cx="0" cy="0" r="1" gradientUnits="userSpaceOnUse" gradientTransform="translate(16.4542 5.12141) scale(10.1063 9.80914)">
      <stop stop-color="#5D7085"/>
      <stop offset="1" stop-color="#40456B"/>
    </radialGradient>
    <radialGradient id="paint6_radial_1_1797" cx="0" cy="0" r="1" gradientUnits="userSpaceOnUse" gradientTransform="translate(12.698 8.2603) scale(14.9321 14.493)">
      <stop/>
      <stop offset="1" stop-color="#F0FFFF"/>
    </radialGradient>
    <radialGradient id="paint7_radial_1_1797" cx="0" cy="0" r="1" gradientUnits="userSpaceOnUse" gradientTransform="translate(9.84295 3.57643) scale(10.0726 9.77645)">
      <stop/>
      <stop offset="1" stop-color="#F0FFFF"/>
    </radialGradient>
    <radialGradient id="paint8_radial_1_1797" cx="0" cy="0" r="1" gradientUnits="userSpaceOnUse" gradientTransform="translate(15.8225 7.29569) scale(10.4937 10.1852)">
      <stop stop-color="white"/>
      <stop offset="1" stop-color="#545F85"/>
    </radialGradient>
    <radialGradient id="paint9_radial_1_1797" cx="0" cy="0" r="1" gradientUnits="userSpaceOnUse" gradientTransform="translate(13.5908 4.94156) scale(10.3842 10.0789)">
      <stop stop-color="white"/>
      <stop offset="1" stop-color="#545F85"/>
    </radialGradient>
    <linearGradient id="paint10_linear_1_1797" x1="7.34137" y1="14.5709" x2="10.2611" y2="16.3057" gradientUnits="userSpaceOnUse">
      <stop stop-color="#7F4E2F"/>
      <stop offset="0.31" stop-color="#D68833"/>
      <stop offset="1" stop-color="#70442E"/>
    </linearGradient>
    <linearGradient id="paint11_linear_1_1797" x1="9.21979" y1="15.6335" x2="10.2899" y2="16.266" gradientUnits="userSpaceOnUse">
      <stop stop-color="white"/>
      <stop offset="0.4" stop-color="#C3C7E6"/>
      <stop offset="1" stop-color="#616DBE"/>
    </linearGradient>
    <linearGradient id="paint12_linear_1_1797" x1="7.29963" y1="14.6362" x2="7.78902" y2="14.9268" gradientUnits="userSpaceOnUse">
      <stop stop-color="#616DBE"/>
      <stop offset="0.6" stop-color="#C3C7E6"/>
      <stop offset="1" stop-color="white"/>
    </linearGradient>
    <linearGradient id="paint13_linear_1_1797" x1="5.65705" y1="17.3747" x2="8.60155" y2="19.1265" gradientUnits="userSpaceOnUse">
      <stop stop-color="#611412"/>
      <stop offset="0.31" stop-color="#8A4835"/>
      <stop offset="1" stop-color="#450E0E"/>
    </linearGradient>
    <linearGradient id="paint14_linear_1_1797" x1="4.86556" y1="18.6661" x2="7.83518" y2="20.4267" gradientUnits="userSpaceOnUse">
      <stop stop-color="#611412"/>
      <stop offset="0.31" stop-color="#8A4835"/>
      <stop offset="1" stop-color="#450E0E"/>
    </linearGradient>
    <linearGradient id="paint15_linear_1_1797" x1="4.15802" y1="19.8515" x2="7.1358" y2="21.6205" gradientUnits="userSpaceOnUse">
      <stop stop-color="#611412"/>
      <stop offset="0.31" stop-color="#8A4835"/>
      <stop offset="1" stop-color="#450E0E"/>
    </linearGradient>
    <linearGradient id="paint16_linear_1_1797" x1="3.64435" y1="20.6853" x2="6.6554" y2="22.4714" gradientUnits="userSpaceOnUse">
      <stop stop-color="#611412"/>
      <stop offset="0.31" stop-color="#8A4835"/>
      <stop offset="1" stop-color="#450E0E"/>
    </linearGradient>
    <linearGradient id="paint17_linear_1_1797" x1="2.84442" y1="22.0258" x2="5.86363" y2="23.8204" gradientUnits="userSpaceOnUse">
      <stop stop-color="#611412"/>
      <stop offset="0.31" stop-color="#8A4835"/>
      <stop offset="1" stop-color="#450E0E"/>
    </linearGradient>
    <linearGradient id="paint18_linear_1_1797" x1="2.20429" y1="23.0803" x2="5.23165" y2="24.8834" gradientUnits="userSpaceOnUse">
      <stop stop-color="#611412"/>
      <stop offset="0.31" stop-color="#8A4835"/>
      <stop offset="1" stop-color="#450E0E"/>
    </linearGradient>
    <linearGradient id="paint19_linear_1_1797" x1="5.01731" y1="22.9331" x2="6.02904" y2="23.5398" gradientUnits="userSpaceOnUse">
      <stop stop-color="white"/>
      <stop offset="0.4" stop-color="#C3C7E6"/>
      <stop offset="1" stop-color="#616DBE"/>
    </linearGradient>
    <linearGradient id="paint20_linear_1_1797" x1="5.75839" y1="21.6334" x2="6.78676" y2="22.2486" gradientUnits="userSpaceOnUse">
      <stop stop-color="white"/>
      <stop offset="0.4" stop-color="#C3C7E6"/>
      <stop offset="1" stop-color="#616DBE"/>
    </linearGradient>
    <linearGradient id="paint21_linear_1_1797" x1="6.33092" y1="20.6444" x2="7.35961" y2="21.2512" gradientUnits="userSpaceOnUse">
      <stop stop-color="white"/>
      <stop offset="0.4" stop-color="#C3C7E6"/>
      <stop offset="1" stop-color="#616DBE"/>
    </linearGradient>
    <linearGradient id="paint22_linear_1_1797" x1="6.92062" y1="19.6062" x2="7.95748" y2="20.2216" gradientUnits="userSpaceOnUse">
      <stop stop-color="white"/>
      <stop offset="0.4" stop-color="#C3C7E6"/>
      <stop offset="1" stop-color="#616DBE"/>
    </linearGradient>
    <linearGradient id="paint23_linear_1_1797" x1="7.60276" y1="18.4127" x2="8.65625" y2="19.0366" gradientUnits="userSpaceOnUse">
      <stop stop-color="white"/>
      <stop offset="0.4" stop-color="#C3C7E6"/>
      <stop offset="1" stop-color="#616DBE"/>
    </linearGradient>
    <linearGradient id="paint24_linear_1_1797" x1="2.95407" y1="21.8378" x2="3.43497" y2="22.1283" gradientUnits="userSpaceOnUse">
      <stop stop-color="#616DBE"/>
      <stop offset="0.6" stop-color="#C3C7E6"/>
      <stop offset="1" stop-color="white"/>
    </linearGradient>
    <linearGradient id="paint25_linear_1_1797" x1="3.62764" y1="20.7097" x2="4.11703" y2="21.0003" gradientUnits="userSpaceOnUse">
      <stop stop-color="#616DBE"/>
      <stop offset="0.6" stop-color="#C3C7E6"/>
      <stop offset="1" stop-color="white"/>
    </linearGradient>
    <linearGradient id="paint26_linear_1_1797" x1="4.32687" y1="19.5653" x2="4.80778" y2="19.8558" gradientUnits="userSpaceOnUse">
      <stop stop-color="#616DBE"/>
      <stop offset="0.6" stop-color="#C3C7E6"/>
      <stop offset="1" stop-color="white"/>
    </linearGradient>
    <linearGradient id="paint27_linear_1_1797" x1="5.00044" y1="18.4454" x2="5.48983" y2="18.736" gradientUnits="userSpaceOnUse">
      <stop stop-color="#616DBE"/>
      <stop offset="0.6" stop-color="#C3C7E6"/>
      <stop offset="1" stop-color="white"/>
    </linearGradient>
    <linearGradient id="paint28_linear_1_1797" x1="5.77535" y1="17.1621" x2="6.26474" y2="17.4526" gradientUnits="userSpaceOnUse">
      <stop stop-color="#616DBE"/>
      <stop offset="0.6" stop-color="#C3C7E6"/>
      <stop offset="1" stop-color="white"/>
    </linearGradient>
    <linearGradient id="paint29_linear_1_1797" x1="1.25248" y1="25.0258" x2="3.97284" y2="26.6493" gradientUnits="userSpaceOnUse">
      <stop stop-color="#7F4E2F"/>
      <stop offset="0.31" stop-color="#D68833"/>
      <stop offset="1" stop-color="#70442E"/>
    </linearGradient>
    <linearGradient id="paint30_linear_1_1797" x1="3.01285" y1="26.0312" x2="3.99163" y2="26.6123" gradientUnits="userSpaceOnUse">
      <stop stop-color="white"/>
      <stop offset="0.4" stop-color="#C3C7E6"/>
      <stop offset="1" stop-color="#616DBE"/>
    </linearGradient>
    <linearGradient id="paint31_linear_1_1797" x1="1.21037" y1="25.0912" x2="1.64985" y2="25.356" gradientUnits="userSpaceOnUse">
      <stop stop-color="#616DBE"/>
      <stop offset="0.6" stop-color="#C3C7E6"/>
      <stop offset="1" stop-color="white"/>
    </linearGradient>
    <linearGradient id="paint32_linear_1_1797" x1="0.503056" y1="27.1429" x2="3.18965" y2="27.1429" gradientUnits="userSpaceOnUse">
      <stop stop-color="#8A5821"/>
      <stop offset="1" stop-color="#543323"/>
    </linearGradient>
    <linearGradient id="paint33_linear_1_1797" x1="2.18745" y1="23.1048" x2="2.71827" y2="23.421" gradientUnits="userSpaceOnUse">
      <stop stop-color="#616DBE"/>
      <stop offset="0.6" stop-color="#C3C7E6"/>
      <stop offset="1" stop-color="white"/>
    </linearGradient>
    <linearGradient id="paint34_linear_1_1797" x1="4.28464" y1="24.2901" x2="5.24678" y2="24.8626" gradientUnits="userSpaceOnUse">
      <stop stop-color="white"/>
      <stop offset="0.4" stop-color="#C3C7E6"/>
      <stop offset="1" stop-color="#616DBE"/>
    </linearGradient>
  </defs>
</svg>