<svg xmlns="http://www.w3.org/2000/svg" width="28" height="28" viewBox="0 0 28 28" fill="none">
  <path fill-rule="evenodd" clip-rule="evenodd" d="M15.8124 1.18409C16.113 1.35664 16.3556 1.61444 16.5097 1.9249C16.6637 2.23535 16.7223 2.58452 16.6779 2.92825C16.6335 3.27198 16.4882 3.59483 16.2604 3.85598C16.0325 4.11713 15.7324 4.30486 15.3978 4.39542C15.0633 4.48598 14.7094 4.47531 14.3809 4.36475C14.0524 4.2542 13.7641 4.04873 13.5524 3.77432C13.3407 3.49991 13.2151 3.16889 13.1916 2.82311C13.168 2.47734 13.2475 2.13233 13.42 1.83172C13.6527 1.43008 14.0347 1.13667 14.4828 1.01537C14.9309 0.894076 15.4088 0.954716 15.8124 1.18409Z" fill="url(#paint0_radial_1_2928)"/>
  <path style="mix-blend-mode:screen" fill-rule="evenodd" clip-rule="evenodd" d="M15.5302 1.29074C15.7576 1.42349 15.9406 1.6206 16.0561 1.8572C16.1716 2.0938 16.2145 2.35931 16.1794 2.62025C16.1442 2.8812 16.0326 3.12589 15.8586 3.32348C15.6846 3.52108 15.4559 3.66272 15.2015 3.73057C14.9471 3.79841 14.6783 3.78941 14.429 3.7047C14.1797 3.62 13.9611 3.46337 13.8006 3.25458C13.6402 3.04579 13.5452 2.79418 13.5276 2.53147C13.51 2.26876 13.5705 2.00672 13.7016 1.77837C13.88 1.47178 14.1725 1.24834 14.5152 1.15695C14.8579 1.06556 15.2229 1.11366 15.5302 1.29074Z" fill="url(#paint1_radial_1_2928)"/>
  <path style="mix-blend-mode:screen" fill-rule="evenodd" clip-rule="evenodd" d="M14.5931 1.29837C14.8128 1.2112 15.0577 1.2125 15.2765 1.30199C15.4952 1.39148 15.6708 1.56222 15.7665 1.77838C15.7928 2.01092 15.7282 2.24465 15.5862 2.43068C15.4442 2.6167 15.2358 2.74062 15.0045 2.77649C14.7859 2.86334 14.5421 2.86181 14.3246 2.77225C14.1071 2.68268 13.9329 2.51208 13.8388 2.29648C13.8105 2.06359 13.8743 1.82885 14.0166 1.64237C14.159 1.45589 14.3686 1.33244 14.6007 1.29837H14.5931Z" fill="url(#paint2_radial_1_2928)"/>
  <path style="mix-blend-mode:screen" fill-rule="evenodd" clip-rule="evenodd" d="M16.3303 1.86981C16.4975 2.179 16.5588 2.53448 16.5048 2.88182C16.4508 3.22916 16.2844 3.54921 16.0311 3.79298C15.7778 4.03674 15.4516 4.19077 15.1025 4.23149C14.7533 4.27221 14.4005 4.19737 14.0979 4.01843C13.8955 3.9031 13.7212 3.74438 13.5874 3.55365C13.6744 3.64342 13.7715 3.7227 13.8769 3.78985C14.166 3.95566 14.4981 4.03112 14.8304 4.00652C15.1627 3.98192 15.4801 3.85838 15.7415 3.65182C16.003 3.44525 16.1967 3.16512 16.2975 2.84752C16.3984 2.52992 16.4018 2.1894 16.3075 1.86981H16.3303Z" fill="url(#paint3_radial_1_2928)"/>
  <path d="M13.7928 4.68893C14.0823 4.86191 14.3886 5.00488 14.7071 5.1156C14.8622 5.19671 15.0416 5.21824 15.2114 5.17613C15.3813 5.13402 15.5298 5.03118 15.629 4.88703C15.7967 4.58988 15.6824 4.26987 15.3624 3.98034C15.108 3.76042 14.8324 3.56644 14.5395 3.40128C14.2484 3.23139 13.9424 3.08857 13.6252 2.97461C13.2138 2.83746 12.8633 2.90604 12.7033 3.20319C12.5433 3.50033 12.6423 3.82796 12.9699 4.10987C13.2224 4.33224 13.4983 4.52641 13.7928 4.68893Z" fill="url(#paint4_linear_1_2928)"/>
  <path style="mix-blend-mode:multiply" fill-rule="evenodd" clip-rule="evenodd" d="M14.7076 5.11561C14.3891 5.00488 14.0827 4.86191 13.7933 4.68893C13.4987 4.52641 13.2228 4.33225 12.9704 4.10987C12.8531 4.01892 12.7591 3.90141 12.6961 3.76701C12.6793 3.73261 12.6705 3.69482 12.6705 3.65653C12.6705 3.61824 12.6793 3.58045 12.6961 3.54605C12.7135 3.51101 12.7393 3.48083 12.7712 3.45822C12.8031 3.43562 12.8401 3.42129 12.879 3.41653C13.0288 3.40821 13.1789 3.4289 13.3209 3.47748C13.6355 3.59167 13.939 3.73449 14.2276 3.90415C14.5221 4.0704 14.8002 4.2643 15.0581 4.48321C15.1675 4.58184 15.2601 4.69765 15.3323 4.82608C15.3504 4.86147 15.3598 4.90063 15.3598 4.94037C15.3598 4.9801 15.3504 5.01926 15.3323 5.05465C15.314 5.08891 15.2879 5.11844 15.2561 5.14091C15.2244 5.16339 15.1879 5.1782 15.1495 5.18418C15.0017 5.18908 14.8543 5.16581 14.7152 5.11561H14.7076Z" fill="url(#paint5_radial_1_2928)"/>
  <path style="mix-blend-mode:screen" fill-rule="evenodd" clip-rule="evenodd" d="M12.9399 3.27939C12.9262 3.25916 12.9188 3.23527 12.9188 3.21081C12.9188 3.18636 12.9262 3.16246 12.9399 3.14224C13.3285 2.65461 15.058 3.72892 15.058 4.33084C14.515 3.85373 13.8638 3.51634 13.1609 3.34796C13.0618 3.34796 12.9323 3.34796 12.9171 3.27939H12.9399Z" fill="url(#paint6_radial_1_2928)"/>
  <path fill-rule="evenodd" clip-rule="evenodd" d="M22.0521 25.4513C18.433 22.876 15.9568 22.5636 14.2196 21.2835C14.0453 21.1691 13.8951 21.0216 13.7777 20.8493C13.7111 20.7544 13.6754 20.6413 13.6754 20.5254C13.6754 20.4096 13.7111 20.2965 13.7777 20.2016C15.8528 16.9998 17.7627 13.6938 19.4997 10.2967C19.3854 10.571 19.4997 10.891 20.0178 11.2719C21.7626 12.5443 24.2312 12.8643 27.8503 15.4396C25.5388 18.5508 23.5933 21.9178 22.0521 25.4741V25.4513Z" fill="url(#paint7_linear_1_2928)"/>
  <path style="mix-blend-mode:screen" opacity="0.75" fill-rule="evenodd" clip-rule="evenodd" d="M26.8297 14.7386C25.6885 14.0116 24.488 13.3821 23.2411 12.8567C22.4613 14.5923 21.5916 16.2861 20.6353 17.931C19.6609 19.6478 18.5952 21.3112 17.4429 22.914C18.6876 23.4411 19.8877 24.0679 21.0315 24.7883C21.6332 22.9607 22.4248 21.2012 23.3935 19.5387C24.362 17.8192 25.5142 16.2097 26.8297 14.7386Z" fill="url(#paint8_linear_1_2928)"/>
  <path style="mix-blend-mode:multiply" fill-rule="evenodd" clip-rule="evenodd" d="M16.993 22.6931C17.4081 20.6457 18.1986 18.6927 19.3245 16.933C20.1896 15.3298 21.2744 13.8552 22.5474 12.5519C21.6578 12.2142 20.8093 11.7772 20.0178 11.2491C19.4997 10.8681 19.3854 10.5481 19.4997 10.2738C17.7627 13.671 15.8528 16.9769 13.7777 20.1788C13.7111 20.2736 13.6754 20.3867 13.6754 20.5026C13.6754 20.6185 13.7111 20.7315 13.7777 20.8264C13.8951 20.9987 14.0453 21.1463 14.2196 21.2607C15.0881 21.8334 16.0184 22.3062 16.993 22.6702V22.6931Z" fill="url(#paint9_linear_1_2928)"/>
  <path fill-rule="evenodd" clip-rule="evenodd" d="M22.7914 23.7979C19.5304 21.5121 17.2522 21.1388 15.6065 19.9883C15.2904 19.8228 14.9982 19.6152 14.7379 19.3711C14.6347 19.2584 14.5752 19.1125 14.5703 18.9597L14.136 19.6454C14.1213 19.7271 14.1247 19.811 14.1457 19.8912C14.1668 19.9715 14.205 20.0462 14.2579 20.1102C14.4486 20.3174 14.6695 20.4947 14.9131 20.6359C16.6122 21.8474 18.9818 22.1598 22.4104 24.6131C22.5323 24.3465 22.6542 24.0722 22.7914 23.7979ZM22.54 13.4967C21.4875 13.0979 20.4811 12.587 19.538 11.9729C19.1418 11.6834 18.997 11.4243 19.0199 11.211L18.5704 12.0491C18.5988 12.1903 18.657 12.3238 18.7411 12.4407C18.8251 12.5576 18.9332 12.6553 19.058 12.7272C19.9327 13.3026 20.8678 13.7804 21.8466 14.152C23.5852 14.9026 25.2529 15.8078 26.8296 16.8568L27.3324 16.133C25.8296 15.0964 24.2267 14.2133 22.5476 13.4967H22.54Z" fill="url(#paint10_linear_1_2928)"/>
  <path style="mix-blend-mode:multiply" fill-rule="evenodd" clip-rule="evenodd" d="M19.058 12.7196C19.7723 13.2033 20.5391 13.6046 21.3437 13.9158C21.5418 13.6644 21.7399 13.4358 21.9304 13.2148C21.0945 12.8987 20.299 12.4843 19.5609 11.9805C19.1647 11.691 19.0199 11.4319 19.0427 11.2186L18.5932 12.0567C18.6216 12.1979 18.6798 12.3314 18.7639 12.4483C18.848 12.5653 18.956 12.6629 19.0808 12.7348L19.058 12.7196ZM17.4199 20.9559C16.7864 20.6909 16.1793 20.367 15.6065 19.9883C15.2904 19.8228 14.9982 19.6152 14.7379 19.3711C14.6347 19.2584 14.5752 19.1125 14.5703 18.9597L14.136 19.6454C14.1213 19.7271 14.1247 19.811 14.1457 19.8913C14.1668 19.9715 14.205 20.0462 14.2579 20.1102C14.4486 20.3174 14.6695 20.4947 14.9131 20.6359C15.63 21.1092 16.3965 21.5027 17.1989 21.8093C17.2675 21.535 17.3513 21.2531 17.4503 20.9559H17.4199Z" fill="url(#paint11_linear_1_2928)"/>
  <path fill-rule="evenodd" clip-rule="evenodd" d="M15.9112 19.1959C18.1724 16.0181 20.1266 12.6327 21.7475 9.08521C21.6103 9.42045 21.077 9.5576 20.6199 9.6795C20.1627 9.80141 19.6294 9.93855 19.4998 10.2738C17.7635 13.6589 15.8326 16.9407 13.7169 20.1026C14.0535 19.8905 14.4338 19.7577 14.8293 19.714C15.2363 19.6623 15.6158 19.4806 15.9112 19.1959Z" fill="url(#paint12_linear_1_2928)"/>
  <path fill-rule="evenodd" clip-rule="evenodd" d="M16.0027 19.2492C18.2303 16.0477 20.1536 12.6448 21.7476 9.08514C21.8542 8.80323 21.7476 8.49084 21.2294 8.10988C19.9723 7.1651 17.6256 6.38033 15.0427 5.00125L9.24445 15.0434C11.8274 16.4224 14.1436 17.2072 15.4312 18.152C15.736 18.3729 16.2617 18.8377 16.0027 19.2492Z" fill="url(#paint13_linear_1_2928)"/>
  <path style="mix-blend-mode:screen" fill-rule="evenodd" clip-rule="evenodd" d="M21.2295 8.10995C20.984 7.92975 20.7297 7.76192 20.4675 7.60709C19.7056 9.30617 18.7456 11.1653 17.6408 13.0777C16.6808 14.7463 15.6903 16.3006 14.7303 17.6492C14.9948 17.789 15.2494 17.9468 15.4922 18.1216C15.797 18.3425 16.3227 18.8073 16.0636 19.2187C18.2913 16.0172 20.2146 12.6144 21.8085 9.05473C21.9152 8.77282 21.8085 8.46044 21.2904 8.07948L21.2295 8.10995Z" fill="url(#paint14_linear_1_2928)"/>
  <path style="mix-blend-mode:screen" fill-rule="evenodd" clip-rule="evenodd" d="M22.5016 14.4568C23.5923 14.9448 24.6532 15.4969 25.6788 16.1101L26.2502 15.4168C25.1701 14.7569 24.0477 14.1689 22.8902 13.6567C22.7683 13.9209 22.6387 14.1748 22.5016 14.4187V14.4568ZM21.6559 23.0512C20.627 22.4228 19.5551 21.8678 18.4482 21.3902C18.2806 21.6417 18.1129 21.8931 17.9453 22.1521C19.1088 22.646 20.2322 23.2293 21.3054 23.8969C21.4044 23.615 21.5187 23.3331 21.633 23.0512H21.6559Z" fill="url(#paint15_linear_1_2928)"/>
  <path style="mix-blend-mode:multiply" fill-rule="evenodd" clip-rule="evenodd" d="M18.7228 6.76891C17.6409 6.26604 16.3761 5.71746 15.0427 5.00125L9.25214 15.0434C10.6236 15.8053 11.9265 16.3462 13.0617 16.8567C13.8237 15.6757 14.5246 14.4414 15.2637 13.1614C16.5437 10.9442 17.7094 8.78799 18.7457 6.76891H18.7228Z" fill="url(#paint16_linear_1_2928)"/>
  <path d="M9.30547 14.952C10.4179 15.5463 11.4769 16.0339 12.4293 16.4758C13.4921 16.9177 14.5122 17.4558 15.477 18.0835C15.6958 18.2255 15.8763 18.4191 16.0027 18.6473C16.04 18.7299 16.0592 18.8195 16.0592 18.9101C16.0592 19.0008 16.04 19.0904 16.0027 19.173C15.8998 19.3762 15.7224 19.5318 15.5075 19.6073C15.28 19.6992 15.0456 19.7731 14.8065 19.8283C14.5804 19.8821 14.3588 19.9534 14.1437 20.0416C13.9749 20.0967 13.8333 20.2138 13.7475 20.3692C13.7199 20.4249 13.7056 20.4862 13.7056 20.5483C13.7056 20.6104 13.7199 20.6716 13.7475 20.7273C13.8586 20.9266 14.0186 21.0943 14.2122 21.2149C15.0191 21.7551 15.8859 22.2 16.7951 22.5407C18.6282 23.3197 20.3686 24.3011 21.9838 25.4665C21.9198 25.5202 21.8389 25.5499 21.7552 25.5503C20.1862 24.4268 18.497 23.4813 16.719 22.7312C15.8198 22.3776 14.9615 21.928 14.1589 21.3902C13.9401 21.2481 13.7596 21.0545 13.6332 20.8264C13.5939 20.7443 13.5736 20.6545 13.5736 20.5635C13.5736 20.4725 13.5939 20.3827 13.6332 20.3006C13.7281 20.0999 13.8976 19.9441 14.1056 19.8663C14.3288 19.7699 14.5611 19.6959 14.7989 19.6454C15.0276 19.5916 15.2517 19.5203 15.4694 19.4321C15.635 19.3747 15.7734 19.2579 15.858 19.1044C15.8856 19.0474 15.9 18.9849 15.9 18.9216C15.9 18.8582 15.8856 18.7957 15.858 18.7387C15.7414 18.5435 15.5826 18.3769 15.3932 18.2511C14.4284 17.632 13.4081 17.104 12.3455 16.6739C11.3855 16.232 10.3188 15.752 9.20642 15.1501L9.30547 14.9748V14.952Z" fill="url(#paint17_linear_1_2928)"/>
  <path fill-rule="evenodd" clip-rule="evenodd" d="M16.4598 16.6815C15.1721 15.7368 12.7644 14.9063 10.1358 13.4967L9.69391 14.2586C12.2997 15.6606 14.6692 16.4682 15.9569 17.4206C16.2845 17.6492 16.7721 18.1063 16.5207 18.5025C16.6807 18.274 16.8483 18.0225 17.0312 17.7406C17.2522 17.352 16.795 16.9177 16.4598 16.6663V16.6815ZM21.4046 9.90808C21.5113 9.62617 21.4046 9.29854 20.8789 8.94044C19.5836 7.98804 17.2141 7.18041 14.6388 5.77847L14.1892 6.54039C16.8255 7.95756 19.2331 8.82615 20.5284 9.74046C21.0084 10.0833 21.1837 10.4186 21.0618 10.7157C21.1989 10.4338 21.3208 10.1595 21.4427 9.90046L21.4046 9.90808Z" fill="url(#paint18_linear_1_2928)"/>
  <path style="mix-blend-mode:screen" fill-rule="evenodd" clip-rule="evenodd" d="M21.4048 9.90807C21.5115 9.62616 21.4048 9.29853 20.8791 8.94043C20.6151 8.7566 20.3403 8.58867 20.0563 8.43756L19.6677 9.19948C19.9531 9.35378 20.228 9.52686 20.4905 9.71759C20.9706 10.0605 21.1458 10.3957 21.0239 10.6928C21.161 10.4109 21.2829 10.1366 21.4048 9.87759V9.90807ZM17.0314 17.7558C17.2524 17.3673 16.7952 16.933 16.46 16.6815C16.1247 16.4301 15.98 16.3615 15.6981 16.1939C15.5304 16.453 15.3704 16.6968 15.2028 16.9558C15.4682 17.0999 15.7228 17.2628 15.9647 17.4435C16.2924 17.672 16.78 18.1292 16.5286 18.5254C16.6886 18.2968 16.8562 18.0454 17.039 17.7635L17.0314 17.7558Z" fill="url(#paint19_linear_1_2928)"/>
  <path style="mix-blend-mode:multiply" fill-rule="evenodd" clip-rule="evenodd" d="M14.1513 6.54801C15.4999 7.30993 16.7875 7.84328 17.8999 8.35376L18.3114 7.59184C17.2142 7.0585 15.9342 6.49468 14.6389 5.77847L14.1894 6.54039L14.1513 6.54801ZM13.9608 15.3406C12.8332 14.8148 11.515 14.2358 10.1512 13.4967L9.70929 14.2586C11.0884 15.0206 12.3989 15.5768 13.5189 16.0949C13.6789 15.8434 13.8313 15.5844 13.9837 15.3329L13.9608 15.3406Z" fill="url(#paint20_linear_1_2928)"/>
  <path fill-rule="evenodd" clip-rule="evenodd" d="M14.2047 3.98036C14.5107 4.15599 14.7903 4.37403 15.0352 4.62799C15.2257 4.82609 15.3095 5.00895 15.2485 5.11562L12.2465 10.3119L9.37411 15.2949L8.1017 14.5329L6.83691 13.771C7.82741 12.1329 8.81029 10.4872 9.77031 8.83379C10.7303 7.18042 11.7742 5.28324 12.7113 3.60702C12.7723 3.50035 12.9704 3.47749 13.237 3.54606C13.5763 3.63303 13.9019 3.76635 14.2047 3.94226V3.98036Z" fill="url(#paint21_linear_1_2928)"/>
  <path style="mix-blend-mode:multiply" fill-rule="evenodd" clip-rule="evenodd" d="M10.2656 8.89471C11.2332 7.20325 12.3075 5.28321 13.2599 3.56128C13.0008 3.50032 12.8027 3.51556 12.7342 3.61461C11.8199 5.24512 10.8294 7.07373 9.87697 8.67376C9.73983 8.91757 9.60268 9.16139 9.45792 9.43568C8.60457 10.8935 7.7309 12.3386 6.83691 13.771C6.90549 13.6643 7.11882 13.6567 7.40073 13.7253C8.36837 12.11 9.32839 10.4947 10.2656 8.86424V8.89471Z" fill="url(#paint22_linear_1_2928)"/>
  <path style="mix-blend-mode:screen" fill-rule="evenodd" clip-rule="evenodd" d="M13.5872 3.69082C12.6196 5.40514 11.5224 7.34041 10.5396 9.02426C9.55669 10.7081 8.67286 12.2319 7.72046 13.8243C7.93089 13.9078 8.13466 14.0071 8.33 14.1215L8.45952 14.1901C9.38906 12.6129 10.3262 11.0205 11.2405 9.42807L14.3263 4.02606L14.2044 3.94987C14.0044 3.84168 13.7983 3.74501 13.5872 3.66034V3.69082Z" fill="url(#paint23_linear_1_2928)"/>
  <path style="mix-blend-mode:multiply" fill-rule="evenodd" clip-rule="evenodd" d="M14.8063 4.39938L11.7586 9.73282C10.8291 11.3481 9.89955 12.9557 8.95477 14.5634C9.29764 14.8453 9.4805 15.1196 9.39669 15.2644L12.2691 10.2966L12.3834 10.0985L15.2482 5.10797C15.3092 5.0013 15.2482 4.81844 15.0349 4.62034C14.9663 4.54415 14.8901 4.47558 14.8063 4.39938Z" fill="url(#paint24_linear_1_2928)"/>
  <path fill-rule="evenodd" clip-rule="evenodd" d="M8.33009 14.152C9.03106 14.5558 9.50345 15.0586 9.37392 15.272C9.2444 15.4853 8.612 15.3406 7.85008 14.9367C7.08816 14.5329 6.67673 14.0224 6.80625 13.8091C6.93578 13.5958 7.56817 13.7405 8.33009 14.152Z" fill="#A71B00"/>
  <path fill-rule="evenodd" clip-rule="evenodd" d="M9.17599 15.2949C8.20835 16.9025 7.99501 17.2073 7.05785 18.8378C6.12069 20.4683 3.33206 25.3141 2.44824 26.9675L1.30536 26.3122L0.162476 25.6646C1.15297 24.0569 3.97208 19.2111 4.93971 17.5806C5.90735 15.9501 6.0445 15.6225 6.94356 13.9691C6.9969 13.8777 7.16452 13.8548 7.40833 13.9082C7.70881 13.985 7.99634 14.1057 8.26168 14.2663C8.54218 14.4154 8.79895 14.6054 9.0236 14.8301C9.19123 15.0053 9.26742 15.1653 9.20646 15.2644L9.17599 15.2949Z" fill="url(#paint25_linear_1_2928)"/>
  <path style="mix-blend-mode:multiply" fill-rule="evenodd" clip-rule="evenodd" d="M8.9932 14.8377C8.86657 14.7038 8.7261 14.5838 8.57415 14.4796L6.40267 18.2053C5.42742 19.8816 2.59308 24.8112 1.63306 26.5026L2.44831 26.9674C3.34738 25.3141 6.12838 20.4378 7.07316 18.8149C8.01794 17.192 8.22366 16.8796 9.1913 15.2719C9.25226 15.1729 9.1913 15.0129 9.00844 14.8377H8.9932Z" fill="url(#paint26_linear_1_2928)"/>
  <path style="mix-blend-mode:multiply" fill-rule="evenodd" clip-rule="evenodd" d="M0.50534 25.8474C1.49584 24.1788 4.36827 19.272 5.34353 17.5805C6.31879 15.8891 6.47879 15.5767 7.40071 13.9005C7.16452 13.8471 6.9969 13.9005 6.94356 13.9614C6.0445 15.63 5.88449 15.9653 4.93971 17.5805C3.99493 19.1958 1.15297 24.0569 0.162476 25.6645L0.490101 25.8474H0.50534Z" fill="url(#paint27_linear_1_2928)"/>
  <path fill-rule="evenodd" clip-rule="evenodd" d="M1.51095 25.9617C2.12811 26.3198 2.54716 26.7694 2.43287 26.9599C2.31859 27.1503 1.73191 27.0132 1.10713 26.6551C0.482359 26.297 0.0709221 25.8551 0.162353 25.6646C0.253783 25.4741 0.870938 25.6113 1.49571 25.9694L1.51095 25.9617Z" fill="url(#paint28_radial_1_2928)"/>
  <path style="mix-blend-mode:screen" fill-rule="evenodd" clip-rule="evenodd" d="M8.20821 14.2434C7.99478 14.125 7.7702 14.0281 7.53772 13.9538C4.91672 18.5253 1.76237 24.1712 1.92999 24.2702C2.09761 24.3693 5.55673 18.853 8.20821 14.2434Z" fill="url(#paint29_radial_1_2928)"/>
  <path fill-rule="evenodd" clip-rule="evenodd" d="M10.3492 13.5957C10.4788 13.3595 9.93017 12.8338 9.30539 12.4681C8.89358 12.1797 8.39815 12.035 7.89584 12.0567L7.41583 12.8186C7.63679 12.6967 8.25394 12.8795 8.84824 13.2224C9.44254 13.5653 10.0216 14.1215 9.89207 14.3424L10.3492 13.5805V13.5957ZM13.3055 5.53462C13.6026 5.70986 14.5245 6.34988 14.3493 6.66226C14.5017 6.40321 14.6465 6.13654 14.7988 5.90034C14.9512 5.66415 14.0369 4.91747 13.755 4.7727C13.4731 4.62794 12.574 4.17079 12.3074 4.38412L11.8807 5.14604C12.1702 4.98604 13.0388 5.39748 13.3055 5.54986V5.53462Z" fill="url(#paint30_linear_1_2928)"/>
  <path style="mix-blend-mode:screen" fill-rule="evenodd" clip-rule="evenodd" d="M12.7037 5.25273C12.9101 5.33395 13.1111 5.42811 13.3056 5.53464L13.4351 5.61846L13.8847 4.85654L13.7552 4.78034C13.5591 4.66954 13.3554 4.57279 13.1456 4.49081L12.7037 5.25273ZM9.44268 12.5519L9.30554 12.4681C9.11512 12.3587 8.91641 12.2645 8.71124 12.1862L8.25409 12.9481C8.4601 13.0275 8.65892 13.1243 8.84839 13.2377L8.98553 13.3138L9.44268 12.5519Z" fill="url(#paint31_linear_1_2928)"/>
  <path style="mix-blend-mode:multiply" fill-rule="evenodd" clip-rule="evenodd" d="M11.8807 5.13081C12.0435 5.0739 12.2208 5.0739 12.3836 5.13081C12.5359 4.87176 12.6807 4.60509 12.8255 4.36889C12.6045 4.31556 12.4064 4.2927 12.3074 4.36889L11.8807 5.13081ZM8.39871 12.0795C8.23456 12.0313 8.05999 12.0313 7.89584 12.0795L7.41583 12.8414C7.58428 12.7872 7.76549 12.7872 7.93394 12.8414L8.39871 12.0795Z" fill="url(#paint32_linear_1_2928)"/>
  <path style="mix-blend-mode:multiply" fill-rule="evenodd" clip-rule="evenodd" d="M9.91522 12.8948L9.45807 13.6567C9.78569 13.9386 9.97617 14.2129 9.89236 14.3577L10.3495 13.5958C10.4333 13.4434 10.2352 13.1691 9.91522 12.8948ZM13.8772 5.96132C14.1667 6.20514 14.4182 6.48705 14.3191 6.66229L14.7687 5.90037C14.8753 5.71751 14.6163 5.4356 14.3267 5.1994L13.8772 5.96132Z" fill="url(#paint33_linear_1_2928)"/>
  <path style="mix-blend-mode:screen" opacity="0.75" fill-rule="evenodd" clip-rule="evenodd" d="M22.7911 9.41283C22.7911 9.85587 22.6597 10.289 22.4136 10.6573C22.1675 11.0257 21.8176 11.3128 21.4083 11.4824C20.999 11.6519 20.5486 11.6963 20.1141 11.6098C19.6795 11.5234 19.2804 11.3101 18.9671 10.9968C18.6539 10.6835 18.4405 10.2844 18.3541 9.84985C18.2676 9.41532 18.312 8.96492 18.4815 8.55561C18.6511 8.14629 18.9382 7.79645 19.3066 7.55031C19.675 7.30417 20.108 7.17279 20.5511 7.17279C21.1452 7.17279 21.7149 7.40879 22.135 7.82888C22.5551 8.24897 22.7911 8.81874 22.7911 9.41283Z" fill="url(#paint34_radial_1_2928)"/>
  <defs>
    <radialGradient id="paint0_radial_1_2928" cx="0" cy="0" r="1" gradientUnits="userSpaceOnUse" gradientTransform="translate(14.6984 2.00474) rotate(30) scale(2.39243)">
      <stop stop-color="#FCCD10"/>
      <stop offset="0.22" stop-color="#EDAB09"/>
      <stop offset="0.45" stop-color="#E08E02"/>
      <stop offset="0.58" stop-color="#DB8300"/>
      <stop offset="0.71" stop-color="#D67D00"/>
      <stop offset="0.88" stop-color="#C86C00"/>
      <stop offset="1" stop-color="#BA5B00"/>
    </radialGradient>
    <radialGradient id="paint1_radial_1_2928" cx="0" cy="0" r="1" gradientUnits="userSpaceOnUse" gradientTransform="translate(14.6002 1.07719) rotate(30) scale(2.91053)">
      <stop stop-color="#FFE58A"/>
      <stop offset="1"/>
    </radialGradient>
    <radialGradient id="paint2_radial_1_2928" cx="0" cy="0" r="1" gradientUnits="userSpaceOnUse" gradientTransform="translate(14.3734 0.251154) rotate(30) scale(2.87244)">
      <stop stop-color="#FFE58A"/>
      <stop offset="1"/>
    </radialGradient>
    <radialGradient id="paint3_radial_1_2928" cx="0" cy="0" r="1" gradientUnits="userSpaceOnUse" gradientTransform="translate(15.1743 2.49072) rotate(30) scale(2.75815)">
      <stop stop-color="#FFE58A"/>
      <stop offset="1"/>
    </radialGradient>
    <linearGradient id="paint4_linear_1_2928" x1="12.7033" y1="3.20319" x2="15.629" y2="4.88703" gradientUnits="userSpaceOnUse">
      <stop offset="0.05" stop-color="#ED9500"/>
      <stop offset="0.4" stop-color="#FFCC00"/>
      <stop offset="0.93" stop-color="#B36600"/>
    </linearGradient>
    <radialGradient id="paint5_radial_1_2928" cx="0" cy="0" r="1" gradientUnits="userSpaceOnUse" gradientTransform="translate(15.02 5.12323) scale(6.52204 6.52203)">
      <stop stop-color="#E38812"/>
      <stop offset="0.11" stop-color="#E6962D"/>
      <stop offset="0.73" stop-color="#F8E1C3"/>
      <stop offset="1" stop-color="white"/>
    </radialGradient>
    <radialGradient id="paint6_radial_1_2928" cx="0" cy="0" r="1" gradientUnits="userSpaceOnUse" gradientTransform="translate(13.3513 2.95938) scale(2.32386)">
      <stop stop-color="#FFF0B0"/>
      <stop offset="1"/>
    </radialGradient>
    <linearGradient id="paint7_linear_1_2928" x1="16.4444" y1="15.5615" x2="24.9322" y2="20.4607" gradientUnits="userSpaceOnUse">
      <stop stop-color="#9C0E0E"/>
      <stop offset="0.69" stop-color="#FC3F00"/>
      <stop offset="1" stop-color="#C4020B"/>
    </linearGradient>
    <linearGradient id="paint8_linear_1_2928" x1="19.18" y1="17.0853" x2="24.0487" y2="19.8968" gradientUnits="userSpaceOnUse">
      <stop/>
      <stop offset="0.13" stop-color="#3E1111"/>
      <stop offset="0.31" stop-color="#902727"/>
      <stop offset="0.47" stop-color="#CC3737"/>
      <stop offset="0.58" stop-color="#F14141"/>
      <stop offset="0.64" stop-color="#FF4545"/>
      <stop offset="0.68" stop-color="#F24040"/>
      <stop offset="0.77" stop-color="#D03333"/>
      <stop offset="0.89" stop-color="#991D1D"/>
      <stop offset="1" stop-color="#630808"/>
    </linearGradient>
    <linearGradient id="paint9_linear_1_2928" x1="16.4444" y1="15.5615" x2="19.9416" y2="17.5806" gradientUnits="userSpaceOnUse">
      <stop stop-color="#800C0C"/>
      <stop offset="1" stop-color="#FFE4BF"/>
    </linearGradient>
    <linearGradient id="paint10_linear_1_2928" x1="16.4522" y1="15.6377" x2="24.8181" y2="20.4759" gradientUnits="userSpaceOnUse">
      <stop offset="0.07" stop-color="#B36600"/>
      <stop offset="0.6" stop-color="#FFCC00"/>
      <stop offset="0.95" stop-color="#ED9500"/>
    </linearGradient>
    <linearGradient id="paint11_linear_1_2928" x1="16.4522" y1="15.6377" x2="19.4923" y2="17.3978" gradientUnits="userSpaceOnUse">
      <stop offset="0.57" stop-color="#FFA163"/>
      <stop offset="1" stop-color="#FFE4BF"/>
    </linearGradient>
    <linearGradient id="paint12_linear_1_2928" x1="17.1074" y1="14.2358" x2="18.6008" y2="15.0968" gradientUnits="userSpaceOnUse">
      <stop stop-color="#960007"/>
      <stop offset="1" stop-color="#610000"/>
    </linearGradient>
    <linearGradient id="paint13_linear_1_2928" x1="12.1855" y1="9.94611" x2="19.2713" y2="14.0376" gradientUnits="userSpaceOnUse">
      <stop stop-color="#9C0E0E"/>
      <stop offset="0.75" stop-color="#FC3F00"/>
      <stop offset="1" stop-color="#C4020B"/>
    </linearGradient>
    <linearGradient id="paint14_linear_1_2928" x1="17.3589" y1="12.9329" x2="19.2713" y2="14.0377" gradientUnits="userSpaceOnUse">
      <stop/>
      <stop offset="0.68" stop-color="#FF7373"/>
      <stop offset="0.74" stop-color="#F26D6D"/>
      <stop offset="0.84" stop-color="#D05E5E"/>
      <stop offset="0.97" stop-color="#994545"/>
      <stop offset="1" stop-color="#8C3F3F"/>
    </linearGradient>
    <linearGradient id="paint15_linear_1_2928" x1="20.4596" y1="17.8244" x2="23.7588" y2="19.7292" gradientUnits="userSpaceOnUse">
      <stop/>
      <stop offset="0.02" stop-color="#0F0E0B"/>
      <stop offset="0.1" stop-color="#4E4936"/>
      <stop offset="0.18" stop-color="#847C5B"/>
      <stop offset="0.25" stop-color="#B0A67A"/>
      <stop offset="0.33" stop-color="#D2C691"/>
      <stop offset="0.4" stop-color="#EBDDA2"/>
      <stop offset="0.46" stop-color="#FAEBAC"/>
      <stop offset="0.51" stop-color="#FFF0B0"/>
      <stop offset="0.56" stop-color="#F9EAAC"/>
      <stop offset="0.62" stop-color="#E8DAA0"/>
      <stop offset="0.69" stop-color="#CCC08D"/>
      <stop offset="0.77" stop-color="#A59B72"/>
      <stop offset="0.85" stop-color="#736C4F"/>
      <stop offset="0.93" stop-color="#373326"/>
      <stop offset="1"/>
    </linearGradient>
    <linearGradient id="paint16_linear_1_2928" x1="12.2236" y1="9.88516" x2="17.8695" y2="13.1462" gradientUnits="userSpaceOnUse">
      <stop stop-color="#FF3030"/>
      <stop offset="1" stop-color="#FFE4BF"/>
    </linearGradient>
    <linearGradient id="paint17_linear_1_2928" x1="8.61974" y1="16.1329" x2="22.7305" y2="24.2779" gradientUnits="userSpaceOnUse">
      <stop stop-color="#C4020B"/>
      <stop offset="1" stop-color="#FC3F00"/>
    </linearGradient>
    <linearGradient id="paint18_linear_1_2928" x1="12.193" y1="9.94617" x2="19.2027" y2="13.992" gradientUnits="userSpaceOnUse">
      <stop offset="0.07" stop-color="#B36600"/>
      <stop offset="0.6" stop-color="#FFCC00"/>
      <stop offset="0.95" stop-color="#ED9500"/>
    </linearGradient>
    <linearGradient id="paint19_linear_1_2928" x1="17.4276" y1="12.971" x2="19.2029" y2="13.992" gradientUnits="userSpaceOnUse">
      <stop/>
      <stop offset="1" stop-color="#FFF0B0"/>
    </linearGradient>
    <linearGradient id="paint20_linear_1_2928" x1="12.2236" y1="9.88522" x2="15.8808" y2="12.0034" gradientUnits="userSpaceOnUse">
      <stop stop-color="#FFA163"/>
      <stop offset="1" stop-color="#FFE4BF"/>
    </linearGradient>
    <linearGradient id="paint21_linear_1_2928" x1="9.88459" y1="8.52902" x2="12.4218" y2="9.99953" gradientUnits="userSpaceOnUse">
      <stop stop-color="#9C0E0E"/>
      <stop offset="0.3" stop-color="#FC3F00"/>
      <stop offset="1" stop-color="#C4020B"/>
    </linearGradient>
    <linearGradient id="paint22_linear_1_2928" x1="9.85412" y1="8.58233" x2="10.296" y2="8.83376" gradientUnits="userSpaceOnUse">
      <stop stop-color="#800C0C"/>
      <stop offset="1" stop-color="#FFE4BF"/>
    </linearGradient>
    <linearGradient id="paint23_linear_1_2928" x1="10.4481" y1="8.62044" x2="11.7205" y2="9.3595" gradientUnits="userSpaceOnUse">
      <stop/>
      <stop offset="0.09" stop-color="#3E1111"/>
      <stop offset="0.21" stop-color="#902727"/>
      <stop offset="0.31" stop-color="#CC3737"/>
      <stop offset="0.38" stop-color="#F14141"/>
      <stop offset="0.42" stop-color="#FF4545"/>
      <stop offset="0.5" stop-color="#F24040"/>
      <stop offset="0.64" stop-color="#D03333"/>
      <stop offset="0.83" stop-color="#991D1D"/>
      <stop offset="1" stop-color="#630808"/>
    </linearGradient>
    <linearGradient id="paint24_linear_1_2928" x1="11.7739" y1="9.65663" x2="12.4063" y2="10.0224" gradientUnits="userSpaceOnUse">
      <stop stop-color="#FFE4BF"/>
      <stop offset="1" stop-color="#800C0C"/>
    </linearGradient>
    <linearGradient id="paint25_linear_1_2928" x1="3.65969" y1="19.6454" x2="5.91497" y2="20.9483" gradientUnits="userSpaceOnUse">
      <stop stop-color="#546578"/>
      <stop offset="0.32" stop-color="#8DA0B8"/>
      <stop offset="1" stop-color="#546578"/>
    </linearGradient>
    <linearGradient id="paint26_linear_1_2928" x1="4.94741" y1="20.3997" x2="5.77028" y2="20.8721" gradientUnits="userSpaceOnUse">
      <stop stop-color="white"/>
      <stop offset="0.52" stop-color="#C3CEE0"/>
      <stop offset="1" stop-color="#8A9FC2"/>
    </linearGradient>
    <linearGradient id="paint27_linear_1_2928" x1="3.62921" y1="19.6987" x2="4.87876" y2="20.4225" gradientUnits="userSpaceOnUse">
      <stop stop-color="#8A9FC2"/>
      <stop offset="0.48" stop-color="#C3CEE0"/>
      <stop offset="1" stop-color="white"/>
    </linearGradient>
    <radialGradient id="paint28_radial_1_2928" cx="0" cy="0" r="1" gradientUnits="userSpaceOnUse" gradientTransform="translate(0.749031 24.2322) scale(3.08578 3.08578)">
      <stop stop-color="#ADBDC9"/>
      <stop offset="1" stop-color="#263754"/>
    </radialGradient>
    <radialGradient id="paint29_radial_1_2928" cx="0" cy="0" r="1" gradientUnits="userSpaceOnUse" gradientTransform="translate(-2.28343 13.6795) scale(11.9088)">
      <stop stop-color="white"/>
      <stop offset="0.11" stop-color="#FAFAFA"/>
      <stop offset="0.23" stop-color="#EDEDED"/>
      <stop offset="0.36" stop-color="#D6D6D6"/>
      <stop offset="0.5" stop-color="#B7B7B7"/>
      <stop offset="0.64" stop-color="#8E8E8E"/>
      <stop offset="0.78" stop-color="#5C5C5C"/>
      <stop offset="0.92" stop-color="#232323"/>
      <stop offset="1"/>
    </radialGradient>
    <linearGradient id="paint30_linear_1_2928" x1="9.93779" y1="8.47563" x2="10.9435" y2="9.05469" gradientUnits="userSpaceOnUse">
      <stop offset="0.07" stop-color="#B36600"/>
      <stop offset="0.6" stop-color="#FFCC00"/>
      <stop offset="0.95" stop-color="#ED9500"/>
    </linearGradient>
    <linearGradient id="paint31_linear_1_2928" x1="10.7075" y1="8.68899" x2="11.4313" y2="9.10805" gradientUnits="userSpaceOnUse">
      <stop stop-color="#FFF0B0"/>
      <stop offset="1"/>
    </linearGradient>
    <linearGradient id="paint32_linear_1_2928" x1="9.92255" y1="8.49088" x2="10.334" y2="8.72707" gradientUnits="userSpaceOnUse">
      <stop stop-color="#FFA163"/>
      <stop offset="1" stop-color="#FFE4BF"/>
    </linearGradient>
    <linearGradient id="paint33_linear_1_2928" x1="11.8124" y1="9.59568" x2="12.4448" y2="9.9614" gradientUnits="userSpaceOnUse">
      <stop stop-color="#FFE4BF"/>
      <stop offset="1" stop-color="#FFA163"/>
    </linearGradient>
    <radialGradient id="paint34_radial_1_2928" cx="0" cy="0" r="1" gradientUnits="userSpaceOnUse" gradientTransform="translate(20.5511 9.41283) scale(2.24004)">
      <stop stop-color="#FCEA10"/>
      <stop offset="0.12" stop-color="#CDBF0D"/>
      <stop offset="0.3" stop-color="#908509"/>
      <stop offset="0.47" stop-color="#5C5606"/>
      <stop offset="0.63" stop-color="#343103"/>
      <stop offset="0.78" stop-color="#181601"/>
      <stop offset="0.91" stop-color="#060600"/>
      <stop offset="1"/>
    </radialGradient>
  </defs>
</svg>