<svg xmlns="http://www.w3.org/2000/svg" width="22" height="28" viewBox="0 0 22 28" fill="none">
  <path fill-rule="evenodd" clip-rule="evenodd" d="M7.16732 22.6898C9.45136 23.98 10.7304 25.9562 10.0411 27.1647C9.35169 28.3733 6.94307 28.2426 4.66733 26.9524C2.39159 25.6622 1.09591 23.6861 1.79358 22.4775C2.49125 21.269 4.89158 21.3915 7.16732 22.6898Z" fill="url(#paint0_radial_1_2986)"/>
  <g style="mix-blend-mode:multiply">
    <path fill-rule="evenodd" clip-rule="evenodd" d="M10.1656 27.0096C9.5344 28.0711 7.1756 27.8751 4.88325 26.5768C2.5909 25.2784 1.24539 23.3594 1.86001 22.2979C2.89821 24.2495 6.70218 26.8871 10.1656 27.0096Z" fill="#5ACCC9"/>
  </g>
  <path opacity="0.15" fill-rule="evenodd" clip-rule="evenodd" d="M13.953 6.62759L13.355 7.61566C12.5245 8.97936 12.8899 8.6119 11.5693 9.6163C10.8431 10.158 9.98289 10.4991 9.07763 10.6044C6.17066 11.1188 3.50455 12.2375 1.96802 14.8425C1.35772 15.907 1.03463 17.1073 1.02948 18.3293C1.03282 19.8283 1.44243 21.2995 2.21614 22.5912C2.98984 23.8829 4.0997 24.9486 5.43146 25.6785C6.73803 26.4462 8.22848 26.859 9.75049 26.8748C11.2725 26.8906 12.7715 26.5088 14.0942 25.7684C15.1645 25.1419 16.0538 24.2564 16.6773 23.1961C18.2138 20.5749 17.8567 17.7577 16.8517 15.0303C16.5013 14.2138 16.3781 13.3204 16.4945 12.4417C16.7188 10.8085 16.5776 11.3148 17.3666 9.91844L17.9397 8.91404C17.1947 8.70186 16.4802 8.39727 15.8135 8.00762C15.143 7.63369 14.5211 7.18127 13.9613 6.66026L13.953 6.62759Z" fill="white"/>
  <path fill-rule="evenodd" clip-rule="evenodd" d="M9.33505 13.0623C13.7536 13.0623 17.3417 14.6955 17.3417 16.6716C17.3417 18.6477 13.7287 20.3054 9.33505 20.3054C4.94137 20.3054 1.32843 18.6722 1.32843 16.6961C1.32843 14.72 4.88323 13.0623 9.33505 13.0623Z" fill="url(#paint1_radial_1_2986)"/>
  <path fill-rule="evenodd" clip-rule="evenodd" d="M9.3351 20.3054C4.9082 20.3054 1.32848 18.6722 1.32848 16.6961C1.328 16.5213 1.35604 16.3477 1.41154 16.1816C1.17164 16.8737 1.04275 17.5982 1.02948 18.3293C1.03282 19.8283 1.44243 21.2994 2.21614 22.5912C2.98984 23.8829 4.0997 24.9486 5.43146 25.6785C6.73803 26.4462 8.22848 26.859 9.75049 26.8748C11.2725 26.8906 12.7715 26.5088 14.0942 25.7684C15.1646 25.1419 16.0538 24.2564 16.6773 23.1961C17.2496 22.1525 17.5973 21.0042 17.6988 19.8227C17.8002 18.6412 17.6532 17.4518 17.267 16.3286C17.2996 16.4568 17.3164 16.5884 17.3168 16.7206C17.3168 18.7131 13.7288 20.3299 9.31018 20.3299L9.3351 20.3054Z" fill="url(#paint2_radial_1_2986)"/>
  <path style="mix-blend-mode:screen" fill-rule="evenodd" clip-rule="evenodd" d="M15.9796 18.2558C15.9796 16.3858 12.6573 14.8669 8.5045 14.8669C5.18226 14.8669 2.41648 15.8223 1.4032 17.1452C1.86001 18.9254 5.22378 20.3054 9.33506 20.3054C11.6204 20.395 13.8869 19.8669 15.8882 18.7784C15.9406 18.6173 15.9686 18.4494 15.9713 18.2803L15.9796 18.2558Z" fill="url(#paint3_radial_1_2986)"/>
  <path style="mix-blend-mode:screen" fill-rule="evenodd" clip-rule="evenodd" d="M13.8948 18.6314C13.8948 16.9982 11.0294 15.7407 7.4912 15.7407C4.78357 15.7407 2.50783 16.492 1.53607 17.5617C2.36663 19.1377 5.54769 20.3054 9.31013 20.3054C10.6656 20.3152 12.0167 20.1533 13.3301 19.8236C13.4997 19.6715 13.637 19.4878 13.7339 19.2832C13.8309 19.0785 13.8856 18.857 13.8948 18.6314Z" fill="url(#paint4_radial_1_2986)"/>
  <path style="mix-blend-mode:screen" fill-rule="evenodd" clip-rule="evenodd" d="M9.33507 20.3054C5.57263 20.3054 2.41649 19.1377 1.56101 17.5617C1.49025 17.4407 1.43449 17.3119 1.3949 17.1779C1.32526 17.5359 1.28911 17.8994 1.28693 18.2639C1.28825 19.5766 1.64716 20.865 2.32634 21.9952C3.00552 23.1253 3.98019 24.056 5.14904 24.6905C6.29501 25.3643 7.60241 25.727 8.93763 25.7413C10.2729 25.7557 11.588 25.4212 12.7487 24.7721C13.6865 24.2219 14.4667 23.4464 15.0161 22.5184C15.6705 21.3813 15.9762 20.0825 15.8965 18.7784C15.1051 19.2628 14.2422 19.6237 13.3384 19.8481C12.025 20.1778 10.6739 20.3397 9.31846 20.3299L9.33507 20.3054Z" fill="url(#paint5_radial_1_2986)"/>
  <path style="mix-blend-mode:screen" fill-rule="evenodd" clip-rule="evenodd" d="M9.3351 20.3054C5.57266 20.3054 2.41652 19.1377 1.56105 17.5617L1.61088 17.5045C1.61088 17.4637 1.61088 17.431 1.61088 17.3983V17.5535C1.56745 17.7962 1.54522 18.042 1.54443 18.2884C1.55172 19.3576 1.84779 20.4056 2.40234 21.3253C2.9569 22.245 3.75003 23.0034 4.70057 23.5227C5.63335 24.0723 6.69804 24.368 7.78541 24.3795C8.87278 24.3909 9.94369 24.1178 10.8883 23.5881C11.6243 23.13 12.2324 22.4984 12.6574 21.7508C13.0123 21.1556 13.2464 20.4983 13.3467 19.8154C12.0334 20.1451 10.6823 20.307 9.3268 20.2972L9.3351 20.3054Z" fill="url(#paint6_radial_1_2986)"/>
  <path fill-rule="evenodd" clip-rule="evenodd" d="M18.0061 10.2369L18.6872 9.02833L18.2636 8.97934L17.8317 8.87318L17.2669 9.85309C16.7494 10.6087 16.4313 11.4791 16.3414 12.3858C16.2515 13.2925 16.3926 14.2069 16.752 15.0466C17.7404 17.7576 18.1058 20.5504 16.5776 23.1389C15.9662 24.186 15.091 25.0606 14.0361 25.6785C12.7279 26.4087 11.2464 26.785 9.74219 26.7693C8.23802 26.7535 6.76496 26.3461 5.47296 25.5887C4.15783 24.8662 3.06126 23.8135 2.2952 22.5382C1.52913 21.2628 1.12102 19.8104 1.11251 18.3293C1.13442 17.1219 1.46579 15.9394 2.07597 14.8914C3.6042 12.2947 6.22877 11.225 9.11913 10.7023C9.28361 10.6601 9.45535 10.6528 9.62292 10.681C9.79049 10.7091 9.95002 10.7721 10.0909 10.8657C10.855 11.4291 11.4281 12.3682 12.6573 12.9234C11.9513 12.3927 10.8799 11.1678 10.8716 10.4737C10.8658 10.4017 10.8787 10.3294 10.9093 10.2636C10.9398 10.1979 10.9869 10.1409 11.046 10.0981C12.0696 9.52865 12.9011 8.67703 13.4381 7.6483L14.0278 6.67657C13.9115 6.57041 13.8118 6.46425 13.7121 6.3581C13.6125 6.25194 13.5377 6.16212 13.4381 6.03146L12.7238 7.22368C12.3767 7.94085 11.8502 8.55974 11.1937 9.02245C10.5371 9.48516 9.7719 9.77657 8.96963 9.86942C5.78858 10.441 2.98958 11.6741 1.35338 14.4668C-1.00542 18.4844 0.647399 23.7677 5.05768 26.2665C9.46797 28.7652 14.9497 27.5403 17.3085 23.5227C18.9696 20.73 18.6374 17.7331 17.541 14.7363C17.2239 14.0091 17.1002 13.2146 17.1816 12.4274C17.263 11.6403 17.5467 10.8865 18.0061 10.2369Z" fill="url(#paint7_radial_1_2986)"/>
  <path style="mix-blend-mode:screen" fill-rule="evenodd" clip-rule="evenodd" d="M16.8932 10.6534C16.6063 11.657 16.5384 12.7088 16.6939 13.74C16.8478 14.8881 17.0752 16.0254 17.3749 17.1452C16.826 16.0228 16.3839 14.8528 16.0543 13.6502C16.0931 12.6043 16.3773 11.5815 16.8849 10.6615L16.8932 10.6534Z" fill="url(#paint8_linear_1_2986)"/>
  <path style="mix-blend-mode:screen" opacity="0.5" fill-rule="evenodd" clip-rule="evenodd" d="M16.0876 7.50132L17.9896 8.57921C16.478 11.1515 14.4016 12.752 13.3551 12.1559C12.3085 11.5598 12.674 8.98751 14.1856 6.43976L16.0876 7.52582V7.50132Z" fill="url(#paint9_radial_1_2986)"/>
  <path style="mix-blend-mode:screen" opacity="0.5" fill-rule="evenodd" clip-rule="evenodd" d="M15.4147 7.04405L16.2868 7.6075C15.2569 9.24067 14.0194 10.3267 13.5377 10.0164C13.056 9.70612 13.4878 8.16277 14.5344 6.5296L15.4147 7.08488V7.04405Z" fill="url(#paint10_radial_1_2986)"/>
  <path style="mix-blend-mode:screen" fill-rule="evenodd" clip-rule="evenodd" d="M6.28691 13.5441C6.09588 13.3644 5.87163 13.1439 5.61415 13.1603C4.68392 13.2011 3.57097 14.3361 3.12247 15.0302C2.5315 15.7941 2.14565 16.6919 2.00049 17.6409C1.85534 18.5899 1.95556 19.5596 2.2919 20.4605C2.51616 20.9505 4.00286 21.8406 4.03608 21.5139C4.02208 20.6628 4.22177 19.8214 4.61748 19.0642C5.20631 18.0693 5.99469 17.2025 6.93475 16.5164C7.84006 15.8305 7.8982 15.6019 7.55767 15.1201C7.16661 14.5519 6.74231 14.0066 6.28691 13.4869V13.5441ZM10.2985 12.3028C11.2454 13.3317 11.1955 13.936 10.7636 14.4178C9.93307 15.3242 8.66231 14.9078 7.82345 13.887C6.98458 12.8663 6.83508 12.3355 7.27528 11.8782C7.93142 11.2005 9.35168 11.2658 10.2985 12.3028Z" fill="url(#paint11_radial_1_2986)"/>
  <g style="mix-blend-mode:screen">
    <path fill-rule="evenodd" clip-rule="evenodd" d="M9.70054 12.3845C9.48348 12.1025 9.16621 11.9114 8.81208 11.8493C8.45796 11.7873 8.09305 11.8588 7.79025 12.0497C7.52447 12.311 7.64075 12.6377 8.18892 13.2664C8.73709 13.8952 9.56765 14.181 10.0577 13.6584C10.3152 13.3808 10.3235 13.0623 9.70054 12.3845ZM5.48129 13.7727C5.37331 13.7074 5.24873 13.7074 5.04939 13.7727C4.44276 14.1441 3.92213 14.6365 3.52116 15.2181C3.02385 15.8242 2.66853 16.5307 2.48047 17.2872C2.29242 18.0437 2.27625 18.8316 2.43312 19.595C2.47465 19.7501 2.59093 20.0359 2.74043 20.0849C2.88993 20.1339 2.88163 20.0849 2.92316 19.8644C3.05643 19.3458 3.26928 18.8502 3.55438 18.3946C4.22425 17.3325 5.09218 16.4043 6.11251 15.659C6.45304 15.4059 6.52779 15.2507 6.48627 15.1119C6.19792 14.6334 5.86122 14.1848 5.48129 13.7727Z" fill="url(#paint12_radial_1_2986)"/>
  </g>
  <path style="mix-blend-mode:screen" opacity="0.5" fill-rule="evenodd" clip-rule="evenodd" d="M15.232 7.04405L15.6889 7.34619C14.9829 8.52208 14.2105 9.33866 13.9613 9.17534C13.7121 9.01203 14.0859 7.9178 14.7919 6.72559L15.2404 7.02772L15.232 7.04405Z" fill="url(#paint13_radial_1_2986)"/>
  <g style="mix-blend-mode:multiply" opacity="0.5">
    <path fill-rule="evenodd" clip-rule="evenodd" d="M17.9895 10.2532C17.7321 10.686 16.5111 10.0981 15.2487 8.94668C13.9862 7.79529 13.1723 6.49692 13.4297 6.0723C14.0889 6.85272 14.892 7.50377 15.7969 7.99127C16.6844 8.52551 17.6687 8.88598 18.6955 9.05284L17.9812 10.2695L17.9895 10.2532Z" fill="#7F8E99"/>
  </g>
  <path fill-rule="evenodd" clip-rule="evenodd" d="M19.9829 9.12634C19.468 9.69795 17.5909 9.31415 15.664 8.21993C13.7371 7.1257 12.4663 5.71301 12.7072 5.00258C13.0104 4.27851 13.4405 3.6124 13.978 3.03461L17.5328 5.04341L21.0793 7.06854C20.8397 7.81249 20.4686 8.50909 19.9829 9.12634ZM19.9414 6.95422L17.3002 5.44354L14.6424 3.94102C14.5206 4.11514 14.4124 4.29803 14.3185 4.48813C13.3218 6.1948 18.6873 9.24066 19.6922 7.534C19.8056 7.34916 19.9029 7.1552 19.9829 6.95422H19.9414Z" fill="url(#paint14_radial_1_2986)"/>
  <path opacity="0.15" fill-rule="evenodd" clip-rule="evenodd" d="M19.742 7.59114C19.8753 7.37247 19.9892 7.14299 20.0826 6.90521L17.35 5.3537L14.6092 3.80219C14.4485 3.99848 14.3067 4.20897 14.1856 4.43096C13.1142 6.26828 18.6623 9.41213 19.742 7.59114Z" fill="white"/>
  <path fill-rule="evenodd" clip-rule="evenodd" d="M18.9779 7.62383C18.6872 7.95046 17.5493 7.69732 16.3699 7.02772C15.1905 6.35812 14.443 5.5742 14.5261 5.14957C14.6657 4.75258 14.8322 4.36521 15.0244 3.99002L19.7088 6.64393C19.443 7.02772 19.1855 7.37885 18.9779 7.62383Z" fill="#8E633F"/>
  <path style="mix-blend-mode:screen" fill-rule="evenodd" clip-rule="evenodd" d="M9.42641 27.0912C6.81845 27.3199 3.14737 25.4581 2.159 22.9675C3.95813 25.2027 6.55779 26.6779 9.42641 27.0912Z" fill="url(#paint15_linear_1_2986)"/>
  <path fill-rule="evenodd" clip-rule="evenodd" d="M12.1672 26.4543C13.5215 25.9249 14.7224 25.0758 15.6639 23.9821C16.6054 22.8884 17.2587 21.5836 17.5659 20.1829C17.4662 23.5228 15.3732 26.0215 12.1672 26.4543Z" fill="white"/>
  <path style="mix-blend-mode:screen" fill-rule="evenodd" clip-rule="evenodd" d="M13.2969 5.75384C13.1723 5.12507 14.1274 3.85119 14.5178 3.34491L13.9779 3.03461C13.4404 3.6124 13.0103 4.27851 12.7072 5.00258C12.4829 5.67218 13.5377 6.92156 15.2487 7.96679C14.4597 7.41151 13.4879 6.5296 13.2969 5.75384Z" fill="url(#paint16_radial_1_2986)"/>
  <path fill-rule="evenodd" clip-rule="evenodd" d="M18.1889 3.92468C20.1324 5.0434 21.4447 6.44793 21.0793 7.06853C20.7138 7.68914 18.8284 7.28901 16.8683 6.17029C14.9082 5.05157 13.6125 3.6552 13.978 3.0346C14.3434 2.41399 16.2288 2.81412 18.1889 3.92468Z" fill="url(#paint17_radial_1_2986)"/>
  <path fill-rule="evenodd" clip-rule="evenodd" d="M20.1323 7.34616C18.9113 7.26989 17.7304 6.88757 16.7021 6.23561C16.268 5.98811 15.8492 5.71544 15.448 5.41902C15.3994 5.47977 15.3382 5.52971 15.2686 5.56555C15.1989 5.60139 15.1224 5.62231 15.0439 5.62694C14.9654 5.63157 14.8868 5.6198 14.8133 5.59241C14.7398 5.56502 14.673 5.52262 14.6174 5.46802C14.4765 5.3385 14.38 5.16912 14.3413 4.98332C14.3026 4.79752 14.3236 4.60449 14.4015 4.43095C13.9447 3.892 13.7619 3.41022 13.9447 3.09992C13.9536 3.07784 13.9678 3.05823 13.9862 3.04276C13.7453 3.66336 15.0825 5.01889 17.0427 6.12945C17.9969 6.7005 19.041 7.11167 20.1323 7.34616Z" fill="white"/>
  <path fill-rule="evenodd" clip-rule="evenodd" d="M19.9579 6.31727C19.6506 6.6684 18.4297 6.39076 17.1589 5.67217C15.8882 4.95357 15.0991 4.12065 15.149 3.66337C15.6414 2.42575 16.2301 1.22727 16.9098 0.0785522L21.6606 4.07982C21.0875 4.89641 20.5642 5.62317 19.9579 6.32544V6.31727Z" fill="#8E633F"/>
  <path style="mix-blend-mode:screen" fill-rule="evenodd" clip-rule="evenodd" d="M19.9829 5.85998C19.7005 6.17028 18.5792 5.90898 17.4082 5.24754C16.2371 4.58611 15.5062 3.81852 15.5809 3.41022C15.9948 2.31221 16.5004 1.24975 17.0925 0.233704L21.4198 3.86751C20.9048 4.56161 20.5311 5.23121 19.9829 5.85998Z" fill="url(#paint18_radial_1_2986)"/>
  <path style="mix-blend-mode:screen" fill-rule="evenodd" clip-rule="evenodd" d="M19.1607 2.22618C18.1972 3.85936 17.2753 4.67594 16.5361 4.10433C15.7969 3.53272 16.2454 1.99754 17.2088 0.356201L19.1607 2.22618Z" fill="url(#paint19_radial_1_2986)"/>
  <path fill-rule="evenodd" clip-rule="evenodd" d="M17.1922 3.51639C17.3457 3.52881 17.4886 3.59817 17.5919 3.7104C17.6953 3.82262 17.7513 3.9693 17.7487 4.12067C17.7569 4.27746 17.719 4.43326 17.6394 4.5694C17.5599 4.70554 17.4421 4.81624 17.3002 4.88826C17.0427 4.96992 16.7437 4.54529 16.6856 4.137C16.6274 3.7287 16.8683 3.45923 17.1922 3.51639Z" fill="url(#paint20_linear_1_2986)"/>
  <path fill-rule="evenodd" clip-rule="evenodd" d="M20.2487 4.56162C20.3191 4.72202 20.3311 4.90137 20.2827 5.06946C20.2343 5.23754 20.1284 5.38408 19.9829 5.48436C19.8397 5.55943 19.675 5.58495 19.5153 5.55681C19.3556 5.52866 19.2102 5.44849 19.1025 5.32921C18.9364 5.1414 19.1025 4.76577 19.3932 4.56162C19.6839 4.35747 20.0992 4.31664 20.2237 4.56162H20.2487Z" fill="url(#paint21_linear_1_2986)"/>
  <g style="mix-blend-mode:screen" opacity="0.25">
    <path fill-rule="evenodd" clip-rule="evenodd" d="M19.6589 1.41776C18.3051 0.380697 17.1008 -0.280738 16.8516 0.152053C16.7188 0.372531 16.8517 0.846151 17.2088 1.40143C17.0868 1.55006 17.0217 1.73603 17.0247 1.927C17.0277 2.11797 17.0987 2.30185 17.2254 2.44666C17.338 2.59203 17.5016 2.69098 17.6843 2.72419C17.867 2.7574 18.0558 2.72251 18.2138 2.62631C18.3723 2.77885 18.5386 2.92331 18.7121 3.0591C20.1324 4.15332 21.345 4.56162 21.6606 4.07983C21.9762 3.59805 21.0211 2.44666 19.6589 1.41776Z" fill="#EDCAA6"/>
  </g>
  <path fill-rule="evenodd" clip-rule="evenodd" d="M19.7171 1.31977C21.046 2.44666 21.9098 3.63888 21.6606 4.07983C21.4114 4.52079 20.1324 3.97368 18.7952 2.89578C17.458 1.81789 16.5942 0.584844 16.8517 0.152053C17.1091 -0.280737 18.3882 0.241878 19.7171 1.31977Z" fill="#936E4E"/>
  <path style="mix-blend-mode:screen" fill-rule="evenodd" clip-rule="evenodd" d="M19.3019 1.09928C20.3899 1.98936 21.1125 2.99376 20.8965 3.35306C20.6806 3.71236 19.6175 3.26324 18.5294 2.38949C17.4414 1.51574 16.7188 0.486843 16.9265 0.127545C17.1341 -0.231753 18.1972 0.209204 19.3019 1.09928Z" fill="url(#paint22_radial_1_2986)"/>
  <path fill-rule="evenodd" clip-rule="evenodd" d="M18.5792 0.748152C18.9945 1.05845 19.2686 1.40959 19.1938 1.56474C19.1191 1.71989 18.7204 1.56474 18.3051 1.24627C17.8898 0.927801 17.6157 0.593001 17.6988 0.429683C17.7819 0.266366 18.1722 0.429683 18.5792 0.739986V0.748152Z" fill="url(#paint23_linear_1_2986)"/>
  <path fill-rule="evenodd" clip-rule="evenodd" d="M19.4762 2.32416C19.7752 2.53647 19.9579 2.80594 19.8915 2.92027C19.8251 3.03459 19.5261 2.92027 19.2271 2.74062C18.9281 2.56097 18.7453 2.25883 18.8201 2.13634C18.8948 2.01386 19.1772 2.13634 19.4762 2.32416Z" fill="url(#paint24_linear_1_2986)"/>
  <path fill-rule="evenodd" clip-rule="evenodd" d="M20.963 2.86313C21.2952 3.12444 21.4946 3.4429 21.4198 3.58172C21.3451 3.72054 21.0128 3.58172 20.6806 3.34491C20.3484 3.1081 20.149 2.76514 20.2238 2.62632C20.2985 2.4875 20.6308 2.62632 20.963 2.86313Z" fill="url(#paint25_linear_1_2986)"/>
  <path fill-rule="evenodd" clip-rule="evenodd" d="M18.1141 2.44666C18.0494 2.48452 17.9777 2.50928 17.9031 2.51949C17.8286 2.52971 17.7527 2.52518 17.68 2.50616C17.6073 2.48714 17.5391 2.45402 17.4796 2.40875C17.4201 2.36347 17.3703 2.30695 17.3333 2.24252C17.2195 2.13943 17.15 1.99742 17.1392 1.84559C17.1284 1.69376 17.177 1.54361 17.2752 1.42593C17.4745 1.27078 17.8649 1.42593 18.1058 1.7199C18.3466 2.01387 18.3134 2.29968 18.1058 2.44666H18.1141Z" fill="url(#paint26_linear_1_2986)"/>
  <path style="mix-blend-mode:screen" fill-rule="evenodd" clip-rule="evenodd" d="M16.5526 21.5956C16.1777 22.5452 15.606 23.4078 14.8739 24.1287C14.1418 24.8495 13.2653 25.4129 12.3001 25.783C11.3348 26.1531 10.3017 26.3219 9.26658 26.2786C8.23142 26.2353 7.21671 25.9809 6.28687 25.5316C10.0869 25.5171 13.7458 24.1143 16.5526 21.5956Z" fill="url(#paint27_radial_1_2986)"/>
  <defs>
    <radialGradient id="paint0_radial_1_2986" cx="0" cy="0" r="1" gradientUnits="userSpaceOnUse" gradientTransform="translate(-0.897438 18.3211) scale(14.3521 14.1106)">
      <stop stop-color="white"/>
      <stop offset="1" stop-color="#5E689E"/>
    </radialGradient>
    <radialGradient id="paint1_radial_1_2986" cx="0" cy="0" r="1" gradientUnits="userSpaceOnUse" gradientTransform="translate(6.41147 20.9097) scale(11.7026 11.5057)">
      <stop stop-color="#95C11F"/>
      <stop offset="1" stop-color="#3D8C00"/>
    </radialGradient>
    <radialGradient id="paint2_radial_1_2986" cx="0" cy="0" r="1" gradientUnits="userSpaceOnUse" gradientTransform="translate(6.5278 18.909) scale(14.9584 14.7067)">
      <stop stop-color="#79A600"/>
      <stop offset="0.61" stop-color="#007011"/>
      <stop offset="0.89" stop-color="#95C11F"/>
    </radialGradient>
    <radialGradient id="paint3_radial_1_2986" cx="0" cy="0" r="1" gradientUnits="userSpaceOnUse" gradientTransform="translate(7.21713 22.3877) scale(14.0448 13.8085)">
      <stop stop-color="#468A00"/>
      <stop offset="1"/>
    </radialGradient>
    <radialGradient id="paint4_radial_1_2986" cx="0" cy="0" r="1" gradientUnits="userSpaceOnUse" gradientTransform="translate(4.27693 22.8858) scale(12.201 11.9957)">
      <stop stop-color="#64AA19"/>
      <stop offset="1"/>
    </radialGradient>
    <radialGradient id="paint5_radial_1_2986" cx="0" cy="0" r="1" gradientUnits="userSpaceOnUse" gradientTransform="translate(8.09753 16.8921) scale(9.97505 9.8072)">
      <stop stop-color="#95C11F"/>
      <stop offset="1"/>
    </radialGradient>
    <radialGradient id="paint6_radial_1_2986" cx="0" cy="0" r="1" gradientUnits="userSpaceOnUse" gradientTransform="translate(5.70555 17.7413) scale(9.1611 9.00695)">
      <stop stop-color="#95C11F"/>
      <stop offset="1"/>
    </radialGradient>
    <radialGradient id="paint7_radial_1_2986" cx="0" cy="0" r="1" gradientUnits="userSpaceOnUse" gradientTransform="translate(8.30518 10.1471) scale(32.4501 31.904)">
      <stop stop-color="#CCF0EF"/>
      <stop offset="1" stop-color="#5E73E6"/>
    </radialGradient>
    <linearGradient id="paint8_linear_1_2986" x1="16.2454" y1="10.6534" x2="17.9406" y2="22.2246" gradientUnits="userSpaceOnUse">
      <stop stop-color="white"/>
      <stop offset="1"/>
    </linearGradient>
    <radialGradient id="paint9_radial_1_2986" cx="0" cy="0" r="1" gradientUnits="userSpaceOnUse" gradientTransform="translate(9.92484 5.57418) scale(9.62621 9.46423)">
      <stop stop-color="white"/>
      <stop offset="1"/>
    </radialGradient>
    <radialGradient id="paint10_radial_1_2986" cx="0" cy="0" r="1" gradientUnits="userSpaceOnUse" gradientTransform="translate(12.9895 6.83174) scale(5.1744 5.08733)">
      <stop stop-color="white"/>
      <stop offset="1"/>
    </radialGradient>
    <radialGradient id="paint11_radial_1_2986" cx="0" cy="0" r="1" gradientUnits="userSpaceOnUse" gradientTransform="translate(10.3567 20.5177) scale(13.9202 13.686)">
      <stop offset="0.37"/>
      <stop offset="1" stop-color="white"/>
    </radialGradient>
    <radialGradient id="paint12_radial_1_2986" cx="0" cy="0" r="1" gradientUnits="userSpaceOnUse" gradientTransform="translate(9.2022 18.9989) scale(14.2441 14.0045)">
      <stop/>
      <stop offset="1" stop-color="white"/>
    </radialGradient>
    <radialGradient id="paint13_radial_1_2986" cx="0" cy="0" r="1" gradientUnits="userSpaceOnUse" gradientTransform="translate(13.8616 7.25637) scale(3.72092 3.65831)">
      <stop stop-color="white"/>
      <stop offset="1"/>
    </radialGradient>
    <radialGradient id="paint14_radial_1_2986" cx="0" cy="0" r="1" gradientUnits="userSpaceOnUse" gradientTransform="translate(14.4016 3.01011) scale(11.4368 11.2444)">
      <stop stop-color="#CCF0EF"/>
      <stop offset="1" stop-color="#364E82"/>
    </radialGradient>
    <linearGradient id="paint15_linear_1_2986" x1="1.79355" y1="23.3268" x2="9.11898" y2="27.7805" gradientUnits="userSpaceOnUse">
      <stop stop-color="white"/>
      <stop offset="1"/>
    </linearGradient>
    <radialGradient id="paint16_radial_1_2986" cx="0" cy="0" r="1" gradientUnits="userSpaceOnUse" gradientTransform="translate(16.1789 6.15397) scale(4.46012 4.38507)">
      <stop/>
      <stop offset="1" stop-color="white"/>
    </radialGradient>
    <radialGradient id="paint17_radial_1_2986" cx="0" cy="0" r="1" gradientUnits="userSpaceOnUse" gradientTransform="translate(14.0112 2.88761) scale(13.3305 13.1062)">
      <stop stop-color="#F2FFFF"/>
      <stop offset="1" stop-color="#6A79C2"/>
    </radialGradient>
    <radialGradient id="paint18_radial_1_2986" cx="0" cy="0" r="1" gradientUnits="userSpaceOnUse" gradientTransform="translate(17.0676 1.25444) scale(5.60629 5.51196)">
      <stop stop-color="#CA9E67"/>
      <stop offset="1"/>
    </radialGradient>
    <radialGradient id="paint19_radial_1_2986" cx="0" cy="0" r="1" gradientUnits="userSpaceOnUse" gradientTransform="translate(17.2005 0.527684) scale(4.09467 4.02577)">
      <stop stop-color="#CA9E67"/>
      <stop offset="1"/>
    </radialGradient>
    <linearGradient id="paint20_linear_1_2986" x1="17.6573" y1="4.61062" x2="16.7593" y2="3.68897" gradientUnits="userSpaceOnUse">
      <stop stop-color="#B07A38"/>
      <stop offset="1" stop-color="#704824"/>
    </linearGradient>
    <linearGradient id="paint21_linear_1_2986" x1="20.1158" y1="5.37004" x2="19.3483" y2="4.58942" gradientUnits="userSpaceOnUse">
      <stop stop-color="#B07A38"/>
      <stop offset="1" stop-color="#704824"/>
    </linearGradient>
    <radialGradient id="paint22_radial_1_2986" cx="0" cy="0" r="1" gradientUnits="userSpaceOnUse" gradientTransform="translate(17.6075 -1.38314) scale(6.02988 5.92842)">
      <stop stop-color="#CA9E67"/>
      <stop offset="1"/>
    </radialGradient>
    <linearGradient id="paint23_linear_1_2986" x1="17.6822" y1="0.984962" x2="19.2021" y2="0.984962" gradientUnits="userSpaceOnUse">
      <stop stop-color="#6B4E35"/>
      <stop offset="1" stop-color="#87643A"/>
    </linearGradient>
    <linearGradient id="paint24_linear_1_2986" x1="18.8035" y1="2.52831" x2="19.8998" y2="2.52831" gradientUnits="userSpaceOnUse">
      <stop stop-color="#6B4E35"/>
      <stop offset="1" stop-color="#87643A"/>
    </linearGradient>
    <linearGradient id="paint25_linear_1_2986" x1="20.1989" y1="3.1081" x2="21.4281" y2="3.1081" gradientUnits="userSpaceOnUse">
      <stop stop-color="#6B4E35"/>
      <stop offset="1" stop-color="#87643A"/>
    </linearGradient>
    <linearGradient id="paint26_linear_1_2986" x1="18.1639" y1="2.42217" x2="17.2331" y2="1.47546" gradientUnits="userSpaceOnUse">
      <stop stop-color="#B07A38"/>
      <stop offset="1" stop-color="#704824"/>
    </linearGradient>
    <radialGradient id="paint27_radial_1_2986" cx="0" cy="0" r="1" gradientUnits="userSpaceOnUse" gradientTransform="translate(10.3981 19.8971) scale(9.86708 9.70104)">
      <stop stop-color="#95C11F"/>
      <stop offset="1"/>
    </radialGradient>
  </defs>
</svg>