<svg xmlns="http://www.w3.org/2000/svg" width="24" height="28" viewBox="0 0 24 28" fill="none">
  <path fill-rule="evenodd" clip-rule="evenodd" d="M20.3391 5.29229C24.34 8.47139 25.117 15.2223 21.9645 20.954C18.812 26.6857 12.8285 29.3693 8.19356 27.3122C6.96636 26.7683 5.77323 26.1437 4.62134 25.4421L10.8459 14.2125L17.0348 2.99213C18.1916 3.68255 19.3043 4.45089 20.3659 5.29229H20.3391Z" fill="url(#paint0_linear_1_1783)"/>
  <path style="mix-blend-mode:screen" fill-rule="evenodd" clip-rule="evenodd" d="M20.2054 6.80705C22.9739 9.01372 23.9116 13.9133 22.2683 18.177C20.6251 22.4407 16.9814 24.5726 13.8825 23.2261C13.0551 22.8672 12.2524 22.4485 11.4802 21.9732L14.7042 13.6047L17.9281 5.18945C18.7183 5.66192 19.4789 6.1866 20.2054 6.7603V6.80705Z" fill="url(#paint1_radial_1_1783)"/>
  <path style="mix-blend-mode:multiply" fill-rule="evenodd" clip-rule="evenodd" d="M20.6072 6.54522C24.0187 9.26615 24.7778 15.1381 22.2147 20.1686C19.8213 24.8437 15.356 27.2561 11.5784 26.1902C10.4265 26.5659 9.21373 26.6933 8.01343 26.5647C6.81313 26.4362 5.65016 26.0543 4.59473 25.4421C5.74662 26.1437 6.93974 26.7683 8.16695 27.3122C12.8019 29.3505 18.7764 26.6764 21.9379 20.954C25.0993 15.2316 24.3134 8.47138 20.3125 5.29228C19.2569 4.45399 18.1501 3.68875 16.9993 3.00146C18.237 3.75815 19.2698 4.83307 19.9999 6.12446C20.1964 6.26471 20.384 6.41432 20.5804 6.57327L20.6072 6.54522Z" fill="url(#paint2_radial_1_1783)"/>
  <g style="mix-blend-mode:screen">
    <path fill-rule="evenodd" clip-rule="evenodd" d="M17.6956 3.51573C22.2502 6.26471 23.2505 13.3522 19.9461 19.3551C16.6418 25.358 10.2654 27.9854 5.71977 25.2458C1.17411 22.5061 0.129238 15.3999 3.4782 9.39705C6.82716 3.39417 13.15 0.766744 17.6956 3.51573Z" fill="#FCCE3A"/>
  </g>
  <path fill-rule="evenodd" clip-rule="evenodd" d="M17.0083 2.9921C21.8129 5.90004 22.9381 13.2774 19.5177 19.4766C16.0973 25.6759 9.43515 28.3501 4.59479 25.4421C-0.245575 22.5342 -1.34403 15.1568 2.07637 8.95758C5.49677 2.75835 12.2036 0.0841671 17.0083 2.9921Z" fill="url(#paint3_radial_1_1783)"/>
  <g style="mix-blend-mode:screen">
    <path fill-rule="evenodd" clip-rule="evenodd" d="M12.0427 23.2822C11.9975 23.4375 11.9144 23.5778 11.8017 23.6893C11.689 23.8008 11.5504 23.8796 11.3997 23.918C11.2688 23.9558 11.1317 23.9637 10.9977 23.9411C10.8636 23.9185 10.7357 23.866 10.6228 23.7871C9.20549 24.1624 7.7081 24.0172 6.38077 23.3757C2.55849 21.5056 1.32608 15.8394 3.6123 10.6967C4.70784 8.10659 6.66652 6.02261 9.12245 4.83409C9.15141 4.65175 9.23134 4.48248 9.35215 4.34767C9.47295 4.21287 9.62921 4.11858 9.80117 4.07672C9.95707 4.02827 10.1226 4.02531 10.28 4.06815C10.4374 4.111 10.5806 4.19802 10.6942 4.31983C11.199 4.20865 11.7147 4.16156 12.2303 4.17957C12.3 4.07938 12.3969 4.00349 12.5084 3.96179C12.6199 3.9201 12.7409 3.91453 12.8554 3.94582C12.9514 3.96383 13.0419 4.00543 13.1195 4.0672C13.1972 4.12897 13.2597 4.20914 13.302 4.30113C13.7701 4.40165 14.2256 4.55853 14.6594 4.76864C18.4727 6.6387 19.7141 12.305 17.4189 17.4476C16.3348 19.9997 14.4155 22.0623 12.007 23.2635L12.0427 23.2822Z" fill="#FFFCE4"/>
  </g>
  <path fill-rule="evenodd" clip-rule="evenodd" d="M15.3651 5.2829C18.9373 7.45217 19.7054 13.1371 17.0351 17.9806C14.3649 22.824 9.29235 24.9839 5.69333 22.8053C2.09432 20.6267 1.35308 14.9604 4.02332 10.1076C6.69355 5.25485 11.7393 3.10429 15.3651 5.2829Z" fill="url(#paint4_radial_1_1783)"/>
  <path style="mix-blend-mode:multiply" opacity="0.5" fill-rule="evenodd" clip-rule="evenodd" d="M5.9793 12.0245C8.50665 7.44283 13.3202 5.39512 16.696 7.45218C17.1744 7.74411 17.6105 8.1062 17.9909 8.52746C17.4712 7.16159 16.5275 6.01868 15.3117 5.28292C11.7395 3.1043 6.64016 5.28292 3.96993 10.1077C1.29969 14.9324 2.04986 20.6361 5.63994 22.8053C5.89887 22.9582 6.1674 23.0926 6.44369 23.2074C3.98779 20.7576 3.69308 16.0825 5.92572 11.9871L5.9793 12.0245Z" fill="url(#paint5_radial_1_1783)"/>
  <path fill-rule="evenodd" clip-rule="evenodd" d="M5.20223 10.8276C7.6492 6.3956 12.1055 4.20763 15.6063 5.53537C15.7194 5.57404 15.8299 5.6209 15.9368 5.67563C15.8421 5.59865 15.7438 5.52687 15.642 5.46057L15.3652 5.28292C11.793 3.1043 6.69363 5.28292 4.02339 10.1077C1.35316 14.9324 2.10332 20.6361 5.69341 22.8053L5.98812 22.9736L6.30962 23.1326L6.03277 22.8988C3.18392 20.393 2.76419 15.2503 5.20223 10.8276Z" fill="url(#paint6_linear_1_1783)"/>
  <path style="mix-blend-mode:multiply" fill-rule="evenodd" clip-rule="evenodd" d="M13.0879 5.16136C13.9429 5.10613 14.7997 5.23337 15.6063 5.53537C15.7194 5.57404 15.8299 5.6209 15.9368 5.67563C15.8421 5.59865 15.7438 5.52687 15.642 5.46057L15.3652 5.28292C11.793 3.1043 6.69363 5.28292 4.02339 10.1077C1.35316 14.9324 2.10332 20.6361 5.69341 22.8053L5.98812 22.9736L6.30962 23.1326L6.03277 22.8988C5.59259 22.5127 5.20763 22.0624 4.88966 21.5617C2.21049 19.2335 1.79969 14.4368 3.9966 10.2853C6.10421 6.3395 9.91756 4.28244 13.07 5.16136H13.0879Z" fill="url(#paint7_radial_1_1783)"/>
  <path style="mix-blend-mode:screen" fill-rule="evenodd" clip-rule="evenodd" d="M16.2048 7.38673C9.83732 4.34789 3.88064 12.9969 4.76477 18.6071C8.2834 17.2326 14.1418 14.2031 16.2048 7.38673Z" fill="url(#paint8_radial_1_1783)"/>
  <path style="mix-blend-mode:screen" fill-rule="evenodd" clip-rule="evenodd" d="M12.7663 5.25486C12.7716 6.3013 12.4799 7.32581 11.9283 8.19847C11.3767 9.07112 10.59 9.7526 9.668 10.1565C8.74597 10.5604 7.73014 10.6684 6.74935 10.467C5.76857 10.2656 4.86701 9.76375 4.15902 9.02512C3.45103 8.28648 2.9685 7.34434 2.77264 6.31818C2.57678 5.29202 2.6764 4.22807 3.05887 3.26128C3.44135 2.29448 4.08944 1.46839 4.92096 0.88777C5.75248 0.307154 6.72996 -0.00182923 7.72943 8.14711e-06C9.06147 0.0024569 10.3386 0.556286 11.2821 1.5407C12.2257 2.52511 12.7592 3.86023 12.7663 5.25486Z" fill="url(#paint9_radial_1_1783)"/>
  <defs>
    <linearGradient id="paint0_linear_1_1783" x1="10.2029" y1="28.8082" x2="23.4529" y2="6.88538" gradientUnits="userSpaceOnUse">
      <stop stop-color="#E86F0C"/>
      <stop offset="0.69" stop-color="#FC940D"/>
      <stop offset="1" stop-color="#E86F0C"/>
    </linearGradient>
    <radialGradient id="paint1_radial_1_1783" cx="0" cy="0" r="1" gradientUnits="userSpaceOnUse" gradientTransform="translate(14.7309 13.8198) scale(11.6276 12.1741)">
      <stop stop-color="#FFF369"/>
      <stop offset="0.11" stop-color="#FAEF67"/>
      <stop offset="0.23" stop-color="#EDE262"/>
      <stop offset="0.36" stop-color="#D6CC58"/>
      <stop offset="0.5" stop-color="#B7AE4B"/>
      <stop offset="0.64" stop-color="#8E873B"/>
      <stop offset="0.78" stop-color="#5C5826"/>
      <stop offset="0.92" stop-color="#23210E"/>
      <stop offset="1"/>
    </radialGradient>
    <radialGradient id="paint2_radial_1_1783" cx="0" cy="0" r="1" gradientUnits="userSpaceOnUse" gradientTransform="translate(8.63134 12.9876) scale(16.8698 17.6627)">
      <stop offset="0.51" stop-color="white"/>
      <stop offset="0.68" stop-color="#E6DDC3"/>
      <stop offset="1" stop-color="#B09444"/>
    </radialGradient>
    <radialGradient id="paint3_radial_1_1783" cx="0" cy="0" r="1" gradientUnits="userSpaceOnUse" gradientTransform="translate(6.3809 2.53394) scale(21.6298 22.6464)">
      <stop stop-color="#FCF80D"/>
      <stop offset="1" stop-color="#FC9C0D"/>
    </radialGradient>
    <radialGradient id="paint4_radial_1_1783" cx="0" cy="0" r="1" gradientUnits="userSpaceOnUse" gradientTransform="translate(0.156389 0.289856) scale(26.4344 27.6768)">
      <stop stop-color="#FCF80D"/>
      <stop offset="1" stop-color="#F78A0C"/>
    </radialGradient>
    <radialGradient id="paint5_radial_1_1783" cx="0" cy="0" r="1" gradientUnits="userSpaceOnUse" gradientTransform="translate(14.892 16.1479) scale(15.2713 15.989)">
      <stop offset="0.51" stop-color="white"/>
      <stop offset="0.69" stop-color="#FFE2C3"/>
      <stop offset="1" stop-color="#FFA84B"/>
    </radialGradient>
    <linearGradient id="paint6_linear_1_1783" x1="2.73739" y1="21.0194" x2="12.9281" y2="4.16433" gradientUnits="userSpaceOnUse">
      <stop stop-color="#FC940D"/>
      <stop offset="1" stop-color="#E86F0C"/>
    </linearGradient>
    <radialGradient id="paint7_radial_1_1783" cx="0" cy="0" r="1" gradientUnits="userSpaceOnUse" gradientTransform="translate(15.1687 16.8305) scale(14.8069 15.5028)">
      <stop offset="0.51" stop-color="white"/>
      <stop offset="0.68" stop-color="#E6DDC3"/>
      <stop offset="1" stop-color="#B09444"/>
    </radialGradient>
    <radialGradient id="paint8_radial_1_1783" cx="0" cy="0" r="1" gradientUnits="userSpaceOnUse" gradientTransform="translate(-0.361373 0.598429) scale(19.6829 20.608)">
      <stop stop-color="#FFF369"/>
      <stop offset="0.11" stop-color="#FAEF67"/>
      <stop offset="0.23" stop-color="#EDE262"/>
      <stop offset="0.36" stop-color="#D6CC58"/>
      <stop offset="0.5" stop-color="#B7AE4B"/>
      <stop offset="0.64" stop-color="#8E873B"/>
      <stop offset="0.78" stop-color="#5C5826"/>
      <stop offset="0.92" stop-color="#23210E"/>
      <stop offset="1"/>
    </radialGradient>
    <radialGradient id="paint9_radial_1_1783" cx="0" cy="0" r="1" gradientUnits="userSpaceOnUse" gradientTransform="translate(7.72943 5.25486) scale(5.04576 5.28291)">
      <stop stop-color="#FFF200"/>
      <stop offset="0.07" stop-color="#E1D600"/>
      <stop offset="0.21" stop-color="#A69E00"/>
      <stop offset="0.36" stop-color="#746E00"/>
      <stop offset="0.5" stop-color="#4A4600"/>
      <stop offset="0.64" stop-color="#2A2800"/>
      <stop offset="0.77" stop-color="#131200"/>
      <stop offset="0.89" stop-color="#050500"/>
      <stop offset="1"/>
    </radialGradient>
  </defs>
</svg>