<svg xmlns="http://www.w3.org/2000/svg" width="16" height="28" viewBox="0 0 16 28" fill="none">
  <path fill-rule="evenodd" clip-rule="evenodd" d="M4.58173 15.8355C3.56648 15.9135 1.51375 15.9206 0.468854 15.8709C0.418511 15.864 0.370421 15.8464 0.328106 15.8194C0.285791 15.7924 0.250324 15.7567 0.224304 15.7149C0.489259 16.1313 0.794429 16.5231 1.13581 16.885C1.38249 17.2008 1.66592 17.4887 1.98061 17.7431C2.43266 17.7431 3.07738 17.7786 3.73692 17.7786C4.02594 17.1119 4.32236 16.4595 4.61137 15.8355H4.58173Z" fill="url(#paint0_radial_1_2890)"/>
  <path fill-rule="evenodd" clip-rule="evenodd" d="M14.1784 4.43224C12.7481 6.62354 10.9548 9.21196 9.39856 11.3891C10.2137 11.3536 11.2734 11.3323 12.2516 11.3252C13.4225 9.64455 14.6378 7.87875 15.6605 6.31151C15.6838 6.26001 15.6957 6.2045 15.6957 6.1484C15.6957 6.0923 15.6838 6.0368 15.6605 5.9853C15.2089 5.29816 14.6983 4.64821 14.1339 4.04221H14.2006C14.2299 4.09072 14.2453 4.14575 14.2453 4.20177C14.2453 4.25778 14.2299 4.31281 14.2006 4.36133L14.1784 4.43224Z" fill="url(#paint1_radial_1_2890)"/>
  <path fill-rule="evenodd" clip-rule="evenodd" d="M14.3044 11.8996C10.6726 16.417 6.77839 20.7355 2.64016 24.8347C2.07695 25.3878 1.15804 26.253 0.920898 26.1253C1.00241 26.2814 2.1807 27.7777 2.40302 27.9904C2.59569 28.0968 3.55907 27.2813 4.12227 26.7068C8.26031 22.6075 12.1545 18.289 15.7865 13.7718C15.8223 13.72 15.8443 13.6607 15.8508 13.5989C15.8572 13.5371 15.8479 13.4748 15.8236 13.4172C15.8236 13.3463 15.8236 13.3747 15.7865 13.3534C15.6161 13.0981 14.6157 11.8216 14.3044 11.5096C14.3348 11.5658 14.3475 11.6292 14.341 11.6922C14.3344 11.7551 14.3088 11.8149 14.2674 11.8642L14.3044 11.8996Z" fill="url(#paint2_radial_1_2890)"/>
  <path style="mix-blend-mode:multiply" opacity="0.5" fill-rule="evenodd" clip-rule="evenodd" d="M14.1193 4.52443C14.509 4.81556 14.8003 5.21025 14.9567 5.65908C15.1567 7.11286 13.6969 9.02758 12.8965 10.0984C12.7211 10.4 12.4846 10.6651 12.2009 10.8782C11.9171 11.0913 11.5918 11.2481 11.244 11.3394H12.2518C13.4227 9.65873 14.638 7.89293 15.6607 6.32569C15.6839 6.27419 15.6959 6.21868 15.6959 6.16259C15.6959 6.10649 15.6839 6.05098 15.6607 5.99948C15.2104 5.30704 14.6997 4.65229 14.1341 4.04221H14.2008C14.2301 4.09072 14.2455 4.14575 14.2455 4.20177C14.2455 4.25778 14.2301 4.31281 14.2008 4.36133L14.1415 4.45352L14.1193 4.52443Z" fill="url(#paint3_radial_1_2890)"/>
  <path style="mix-blend-mode:multiply" opacity="0.5" fill-rule="evenodd" clip-rule="evenodd" d="M15.7866 13.3534C15.6458 13.1336 14.8899 12.1691 14.4897 11.7011C15.2901 13.3038 15.2901 13.8782 14.2007 15.2823C12.852 17.0198 11.4662 18.7288 10.0138 20.3812C8.67984 21.8988 7.29406 23.3667 5.84159 24.7708C5.18823 25.4032 4.47638 25.9776 3.71475 26.487C3.38821 26.7431 2.99095 26.9029 2.57127 26.947C2.15159 26.9911 1.72757 26.9175 1.35077 26.7352C1.73612 27.2316 2.23263 27.8486 2.36602 27.9833C2.5587 28.0897 3.52207 27.2742 4.08528 26.6998C8.23577 22.6037 12.1424 18.2875 15.7866 13.7718C15.8223 13.72 15.8444 13.6607 15.8509 13.5989C15.8573 13.5371 15.848 13.4748 15.8237 13.4172C15.8237 13.3463 15.8237 13.3747 15.7866 13.3534Z" fill="url(#paint4_radial_1_2890)"/>
  <path style="mix-blend-mode:screen" fill-rule="evenodd" clip-rule="evenodd" d="M3.44047 27.338C3.27003 27.4231 3.06253 27.4798 2.95879 27.4018C2.58173 27.0173 2.23729 26.6047 1.92871 26.1679C1.9273 26.1514 1.9273 26.1348 1.92871 26.1182C1.88015 26.0221 1.85493 25.9166 1.85493 25.8098C1.85493 25.7029 1.88015 25.5975 1.92871 25.5013C1.48408 25.8771 1.05426 26.2104 0.928284 26.1253C1.0098 26.2814 2.18808 27.7777 2.4104 27.9904C2.53638 28.0613 2.98843 27.728 3.44789 27.3309L3.44047 27.338ZM13.9116 12.4953C13.9725 12.4574 14.0422 12.4344 14.1145 12.4282C14.1869 12.422 14.2597 12.4329 14.3266 12.4599L14.3711 12.4953C14.7406 12.8873 15.0799 13.3045 15.3863 13.7435C15.4288 13.8312 15.4508 13.9268 15.4508 14.0236C15.4508 14.1203 15.4288 14.2159 15.3863 14.3037L15.8088 13.7718C15.8445 13.72 15.8665 13.6607 15.873 13.5989C15.8795 13.5371 15.8701 13.4748 15.8458 13.4172C15.8458 13.3463 15.8458 13.3747 15.8088 13.3534C15.6383 13.0981 14.6379 11.8216 14.3266 11.5096C14.3571 11.5658 14.3698 11.6292 14.3632 11.6922C14.3566 11.7551 14.331 11.8149 14.2896 11.8642L13.8079 12.4599L13.7708 12.5024L13.8672 12.4599L13.9116 12.4953Z" fill="url(#paint5_radial_1_2890)"/>
  <path fill-rule="evenodd" clip-rule="evenodd" d="M6.44181 3.95001C8.9289 3.64345 11.4468 3.64345 13.9339 3.95001C13.9923 3.95872 14.0475 3.98151 14.0942 4.01625C14.1408 4.05099 14.1775 4.09653 14.2007 4.14857C14.23 4.19709 14.2454 4.25212 14.2454 4.30813C14.2454 4.36415 14.23 4.41918 14.2007 4.4677C12.7705 6.65899 10.9771 9.24741 9.42086 11.4245C10.8066 11.3607 12.9187 11.3394 14.0821 11.382C14.1484 11.3833 14.2128 11.4027 14.268 11.4379C14.3231 11.4731 14.3666 11.5225 14.3934 11.5805C14.4238 11.6367 14.4365 11.7001 14.4299 11.7631C14.4233 11.8261 14.3978 11.8858 14.3563 11.9351C10.7066 16.4417 6.79507 20.7483 2.64017 24.8347C2.07697 25.3878 1.15806 26.253 0.920917 26.1254C0.683778 25.9977 1.01725 25.0191 1.14323 24.5297C2.09665 21.5652 3.24512 18.6613 4.58175 15.8355C3.5665 15.9135 1.51376 15.9206 0.468871 15.8709C0.411021 15.8669 0.354959 15.85 0.305196 15.8215C0.255433 15.793 0.213359 15.7537 0.182361 15.7068C0.151362 15.6599 0.132304 15.6067 0.126721 15.5514C0.121138 15.4962 0.129185 15.4404 0.150215 15.3887C1.70841 11.4885 3.66959 7.74686 6.00458 4.21949C6.10851 4.07902 6.26518 3.98245 6.44181 3.95001Z" fill="url(#paint6_radial_1_2890)"/>
  <path style="mix-blend-mode:multiply" fill-rule="evenodd" clip-rule="evenodd" d="M13.6152 9.36087C12.6073 10.226 10.651 10.7792 10.236 10.2119C9.95435 10.6161 9.67275 11.0061 9.39856 11.3891C10.2137 11.3536 11.2734 11.3323 12.2516 11.3252C12.7037 10.6799 13.1631 10.0204 13.6152 9.36087Z" fill="url(#paint7_radial_1_2890)"/>
  <path style="mix-blend-mode:multiply" fill-rule="evenodd" clip-rule="evenodd" d="M3.12926 15.8922C3.67765 16.2964 2.83284 17.5871 1.72125 17.5658C1.825 17.6651 1.91393 17.7431 1.95098 17.7431C2.40303 17.7431 3.04775 17.7786 3.70729 17.7786C3.9963 17.112 4.29273 16.4595 4.58174 15.8355C4.2038 15.8355 3.68506 15.878 3.09962 15.8922H3.12926Z" fill="url(#paint8_radial_1_2890)"/>
  <path style="mix-blend-mode:screen" fill-rule="evenodd" clip-rule="evenodd" d="M6.5678 5.55269C8.34034 5.30921 10.1377 5.27824 11.9182 5.4605C12.1525 5.48169 12.3758 5.56521 12.563 5.70162C12.9187 5.98528 12.6815 6.60934 12.3703 7.11993C13.0002 6.19094 13.6153 5.27612 14.1785 4.41804C14.2077 4.36953 14.2232 4.3145 14.2232 4.25848C14.2232 4.20246 14.2077 4.14743 14.1785 4.09892C14.1553 4.04688 14.1186 4.00134 14.0719 3.9666C14.0253 3.93186 13.9701 3.90906 13.9117 3.90036C11.4246 3.5938 8.90668 3.5938 6.41959 3.90036C6.24296 3.9328 6.08629 4.02937 5.98236 4.16984C4.88513 5.76262 3.89505 7.42068 3.01813 9.13394C3.75919 7.89291 5.40434 5.66616 6.55298 5.48887L6.5678 5.55269Z" fill="url(#paint9_radial_1_2890)"/>
  <path style="mix-blend-mode:screen" fill-rule="evenodd" clip-rule="evenodd" d="M14.06 11.3465C13.6894 11.3465 13.2077 11.3465 12.689 11.3465C13.5634 11.616 13.5634 12.2259 12.8594 13.0981C10.9771 15.4455 5.96018 21.2889 3.49986 23.0263C2.25488 23.8986 1.8473 23.3455 1.80284 22.5654C1.49159 23.4093 1.26186 24.1114 1.1433 24.5723C1.02473 25.0333 0.743124 25.9906 0.891335 26.1466C1.01732 26.2105 1.44713 25.8984 1.89176 25.5226C2.14373 25.3027 2.4031 25.0616 2.63282 24.856C6.58765 20.949 10.3205 16.8418 13.8154 12.5521L14.3341 11.9139C14.3756 11.8646 14.4012 11.8048 14.4077 11.7418C14.4143 11.6789 14.4016 11.6154 14.3712 11.5593C14.3401 11.5104 14.2966 11.4699 14.2448 11.4414C14.193 11.4129 14.1345 11.3973 14.0748 11.3962L14.06 11.3465Z" fill="url(#paint10_radial_1_2890)"/>
  <path style="mix-blend-mode:screen" fill-rule="evenodd" clip-rule="evenodd" d="M6.82712 4.14855C6.62907 4.17459 6.44345 4.256 6.29356 4.38257C5.07822 5.58105 2.13621 11.0912 1.7064 12.5521C1.7064 12.6513 1.6397 12.8215 1.7064 12.8854C1.7731 12.9492 2.00282 12.7435 2.06952 12.6443C3.15147 11.0061 4.11484 9.30412 5.18938 7.68015C5.72294 6.85753 6.36025 5.91435 6.97533 5.14137C7.44507 4.72368 8.03738 4.45389 8.67236 4.36839C9.48011 4.15564 9.15404 3.96417 8.56861 3.98545C7.97631 4.00418 7.38652 4.06821 6.80489 4.17692L6.82712 4.14855Z" fill="url(#paint11_linear_1_2890)"/>
  <path style="mix-blend-mode:screen" fill-rule="evenodd" clip-rule="evenodd" d="M13.6598 11.4458C12.3333 11.4458 11.0068 11.4458 9.68768 11.4954C9.04296 11.4954 9.53947 12.155 9.99152 12.2046C11.2203 12.2356 12.4463 12.0776 13.6227 11.7366C13.7339 11.7366 13.8969 11.6585 13.9117 11.5522C13.9265 11.4458 13.7487 11.4671 13.6598 11.4671V11.4458Z" fill="url(#paint12_linear_1_2890)"/>
  <path style="mix-blend-mode:screen" opacity="0.5" fill-rule="evenodd" clip-rule="evenodd" d="M2.32896 25.1325C2.24003 26.5508 5.56739 23.9695 6.32327 23.3029C8.87992 21.062 11.9331 17.9488 13.6672 15.0412C14.2674 14.0342 14.3415 12.7435 13.4597 12.9705C10.0951 17.0737 6.51098 21.0077 2.72172 24.7567L2.6402 24.8347L2.32896 25.1325Z" fill="url(#paint13_radial_1_2890)"/>
  <path style="mix-blend-mode:screen" fill-rule="evenodd" clip-rule="evenodd" d="M6.95312 6.63771C6.59038 6.87478 6.28053 7.17851 6.04162 7.53125C4.81887 9.52398 3.77397 11.6089 2.65497 13.6655C2.42525 14.091 2.16588 14.9065 2.99586 14.9774C3.97406 15.0625 4.95226 14.9774 5.9601 14.9774C4.82958 17.0739 3.85634 19.2446 3.04774 21.4733C2.83283 22.1824 3.42568 22.1824 3.88513 21.7711C6.01938 19.8706 9.75432 15.956 11.2957 13.4669C11.6885 12.8145 11.0215 12.5024 10.4583 12.4812C9.64316 12.4812 8.82059 12.4812 8.00542 12.5166C8.95398 11.0345 9.95441 9.58071 10.8585 8.0773C10.9895 7.85927 11.0727 7.61797 11.103 7.36814C11.1241 7.19553 11.1007 7.0206 11.0348 6.85865C10.969 6.6967 10.8626 6.55267 10.7251 6.43915C10.3027 6.07038 9.14665 6.0562 8.19069 6.23349C7.77257 6.29168 7.37147 6.4317 7.0124 6.6448L6.95312 6.63771Z" fill="url(#paint14_radial_1_2890)"/>
  <path style="mix-blend-mode:screen" opacity="0.75" d="M7.63503 10.4672C10.6555 10.4672 13.104 8.12401 13.104 5.23358C13.104 2.34315 10.6555 0 7.63503 0C4.61458 0 2.16602 2.34315 2.16602 5.23358C2.16602 8.12401 4.61458 10.4672 7.63503 10.4672Z" fill="url(#paint15_radial_1_2890)"/>
  <defs>
    <radialGradient id="paint0_radial_1_2890" cx="0" cy="0" r="1" gradientUnits="userSpaceOnUse" gradientTransform="translate(-1.07996 14.6015) scale(6.53614 6.25477)">
      <stop stop-color="#FCAC00"/>
      <stop offset="1" stop-color="#FF7300"/>
    </radialGradient>
    <radialGradient id="paint1_radial_1_2890" cx="0" cy="0" r="1" gradientUnits="userSpaceOnUse" gradientTransform="translate(11.7922 5.65908) scale(16.0069 15.3178)">
      <stop stop-color="#FCAC00"/>
      <stop offset="1" stop-color="#FF7300"/>
    </radialGradient>
    <radialGradient id="paint2_radial_1_2890" cx="0" cy="0" r="1" gradientUnits="userSpaceOnUse" gradientTransform="translate(14.4452 23.6149) scale(30.087 28.7918)">
      <stop stop-color="#FCAC00"/>
      <stop offset="1" stop-color="#FF7300"/>
    </radialGradient>
    <radialGradient id="paint3_radial_1_2890" cx="0" cy="0" r="1" gradientUnits="userSpaceOnUse" gradientTransform="translate(13.4745 7.68018) scale(3.13468 2.99973)">
      <stop stop-color="white"/>
      <stop offset="0.1" stop-color="#FFFDF9"/>
      <stop offset="0.22" stop-color="#FEF6E9"/>
      <stop offset="0.36" stop-color="#FDEACF"/>
      <stop offset="0.51" stop-color="#FBDBAA"/>
      <stop offset="0.67" stop-color="#F9C67A"/>
      <stop offset="0.84" stop-color="#F6AE41"/>
      <stop offset="1" stop-color="#F39200"/>
    </radialGradient>
    <radialGradient id="paint4_radial_1_2890" cx="0" cy="0" r="1" gradientUnits="userSpaceOnUse" gradientTransform="translate(1.89174 13.2967) scale(16.7553 16.034)">
      <stop stop-color="white"/>
      <stop offset="0.1" stop-color="#FFFDF9"/>
      <stop offset="0.22" stop-color="#FEF6E9"/>
      <stop offset="0.36" stop-color="#FDEACF"/>
      <stop offset="0.51" stop-color="#FBDBAA"/>
      <stop offset="0.67" stop-color="#F9C67A"/>
      <stop offset="0.84" stop-color="#F6AE41"/>
      <stop offset="1" stop-color="#F39200"/>
    </radialGradient>
    <radialGradient id="paint5_radial_1_2890" cx="0" cy="0" r="1" gradientUnits="userSpaceOnUse" gradientTransform="translate(9.16145 20.1897) scale(10.7972 10.3324)">
      <stop offset="0.58"/>
      <stop offset="0.74" stop-color="#020201"/>
      <stop offset="0.79" stop-color="#090805"/>
      <stop offset="0.83" stop-color="#14130B"/>
      <stop offset="0.87" stop-color="#252315"/>
      <stop offset="0.89" stop-color="#3B3721"/>
      <stop offset="0.92" stop-color="#575131"/>
      <stop offset="0.94" stop-color="#776F43"/>
      <stop offset="0.96" stop-color="#9D9258"/>
      <stop offset="0.98" stop-color="#C8BB70"/>
      <stop offset="1" stop-color="#FFEE8F"/>
    </radialGradient>
    <radialGradient id="paint6_radial_1_2890" cx="0" cy="0" r="1" gradientUnits="userSpaceOnUse" gradientTransform="translate(5.50066 3.9571) scale(23.2693 22.2675)">
      <stop stop-color="#FCF800"/>
      <stop offset="1" stop-color="#FC9700"/>
    </radialGradient>
    <radialGradient id="paint7_radial_1_2890" cx="0" cy="0" r="1" gradientUnits="userSpaceOnUse" gradientTransform="translate(8.87241 7.95674) scale(6.13597 5.87182)">
      <stop stop-color="white"/>
      <stop offset="0.1" stop-color="#FFFDF9"/>
      <stop offset="0.22" stop-color="#FFF7E9"/>
      <stop offset="0.36" stop-color="#FFECCF"/>
      <stop offset="0.51" stop-color="#FFDEAA"/>
      <stop offset="0.67" stop-color="#FFCC7A"/>
      <stop offset="0.84" stop-color="#FFB641"/>
      <stop offset="1" stop-color="#FF9D00"/>
    </radialGradient>
    <radialGradient id="paint8_radial_1_2890" cx="0" cy="0" r="1" gradientUnits="userSpaceOnUse" gradientTransform="translate(1.75089 15.9277) scale(5.89142 5.6378)">
      <stop stop-color="white"/>
      <stop offset="0.1" stop-color="#FFFDF9"/>
      <stop offset="0.22" stop-color="#FFF7E9"/>
      <stop offset="0.36" stop-color="#FFECCF"/>
      <stop offset="0.51" stop-color="#FFDEAA"/>
      <stop offset="0.67" stop-color="#FFCC7A"/>
      <stop offset="0.84" stop-color="#FFB641"/>
      <stop offset="1" stop-color="#FF9D00"/>
    </radialGradient>
    <radialGradient id="paint9_radial_1_2890" cx="0" cy="0" r="1" gradientUnits="userSpaceOnUse" gradientTransform="translate(11.7923 8.85737) scale(12.346 11.8146)">
      <stop/>
      <stop offset="0.08" stop-color="#232112"/>
      <stop offset="0.22" stop-color="#5C582E"/>
      <stop offset="0.36" stop-color="#8E8747"/>
      <stop offset="0.5" stop-color="#B7AE5C"/>
      <stop offset="0.64" stop-color="#D6CC6C"/>
      <stop offset="0.77" stop-color="#EDE277"/>
      <stop offset="0.89" stop-color="#FAEF7E"/>
      <stop offset="1" stop-color="#FFF380"/>
    </radialGradient>
    <radialGradient id="paint10_radial_1_2890" cx="0" cy="0" r="1" gradientUnits="userSpaceOnUse" gradientTransform="translate(18.121 33.2453) scale(24.8255 23.7568)">
      <stop stop-color="#FFD000"/>
      <stop offset="0.11" stop-color="#FACC00"/>
      <stop offset="0.23" stop-color="#EDC100"/>
      <stop offset="0.36" stop-color="#D6AF00"/>
      <stop offset="0.5" stop-color="#B79500"/>
      <stop offset="0.64" stop-color="#8E7400"/>
      <stop offset="0.78" stop-color="#5C4B00"/>
      <stop offset="0.92" stop-color="#231C00"/>
      <stop offset="1"/>
    </radialGradient>
    <linearGradient id="paint11_linear_1_2890" x1="8.16844" y1="3.08482" x2="1.67833" y2="16.0278" gradientUnits="userSpaceOnUse">
      <stop stop-color="#FFFACF"/>
      <stop offset="1"/>
    </linearGradient>
    <linearGradient id="paint12_linear_1_2890" x1="9.37644" y1="11.8146" x2="13.9117" y2="11.8146" gradientUnits="userSpaceOnUse">
      <stop stop-color="#FFFACF"/>
      <stop offset="1"/>
    </linearGradient>
    <radialGradient id="paint13_radial_1_2890" cx="0" cy="0" r="1" gradientUnits="userSpaceOnUse" gradientTransform="translate(0.45408 8.86445) scale(18.1485 17.3673)">
      <stop stop-color="#00FFFF"/>
      <stop offset="0.11" stop-color="#00FAFA"/>
      <stop offset="0.23" stop-color="#00EDED"/>
      <stop offset="0.36" stop-color="#00D6D6"/>
      <stop offset="0.5" stop-color="#00B7B7"/>
      <stop offset="0.64" stop-color="#008E8E"/>
      <stop offset="0.78" stop-color="#005C5C"/>
      <stop offset="0.92" stop-color="#002323"/>
      <stop offset="1"/>
    </radialGradient>
    <radialGradient id="paint14_radial_1_2890" cx="0" cy="0" r="1" gradientUnits="userSpaceOnUse" gradientTransform="translate(-3.31055 6.59516) scale(17.1555 16.417)">
      <stop stop-color="#FFF261"/>
      <stop offset="0.11" stop-color="#FAEE5F"/>
      <stop offset="0.23" stop-color="#EDE15A"/>
      <stop offset="0.36" stop-color="#D6CB52"/>
      <stop offset="0.5" stop-color="#B7AD46"/>
      <stop offset="0.64" stop-color="#8E8736"/>
      <stop offset="0.78" stop-color="#5C5823"/>
      <stop offset="0.92" stop-color="#23210D"/>
      <stop offset="1"/>
    </radialGradient>
    <radialGradient id="paint15_radial_1_2890" cx="0" cy="0" r="1" gradientUnits="userSpaceOnUse" gradientTransform="translate(7.63503 5.23358) scale(5.46902 5.23358)">
      <stop stop-color="#FCEA10"/>
      <stop offset="0.1" stop-color="#CEBF0D"/>
      <stop offset="0.23" stop-color="#988D0A"/>
      <stop offset="0.36" stop-color="#696207"/>
      <stop offset="0.5" stop-color="#433F04"/>
      <stop offset="0.63" stop-color="#262302"/>
      <stop offset="0.76" stop-color="#111001"/>
      <stop offset="0.88" stop-color="#040400"/>
      <stop offset="1"/>
    </radialGradient>
  </defs>
</svg>