<svg xmlns="http://www.w3.org/2000/svg" width="28" height="28" viewBox="0 0 28 28" fill="none">
  <path fill-rule="evenodd" clip-rule="evenodd" d="M22.1456 27.9074C22.2691 27.9472 22.4002 27.9553 22.5275 27.9312C22.6548 27.907 22.7745 27.8513 22.876 27.7688C22.9809 27.6924 23.0676 27.5926 23.1295 27.4768C23.1914 27.3611 23.2269 27.2324 23.2332 27.1005C23.4 24.6553 22.0741 19.9036 22.4393 18.8114C22.8045 17.7192 26.5756 14.6709 27.838 12.5926C27.9078 12.4815 27.9526 12.3558 27.969 12.2246C27.9855 12.0935 27.9733 11.9602 27.9332 11.8346C27.8943 11.709 27.8285 11.5941 27.7405 11.4982C27.6526 11.4022 27.5448 11.3278 27.4251 11.2803C25.2101 10.3593 20.4069 10.1882 19.486 9.50352C18.7556 8.95744 15.2861 1.1248 13.9285 0.326053C13.6983 0.187494 13.4284 0.44016 13.2617 0.652073C11.7294 2.52669 10.8799 8.80258 9.95102 9.50352C9.02214 10.2045 2.94867 9.05524 0.741586 9.9681C0.618442 10.0118 0.507676 10.086 0.419063 10.1841C0.33045 10.2822 0.266714 10.4011 0.23348 10.5305C0.0191224 11.207 4.85407 16.2358 5.37012 16.7982C6.02146 17.3703 6.57434 18.0509 7.00559 18.8114C7.35491 19.9036 6.03701 24.6553 6.21167 27.1005C6.21954 27.2329 6.25647 27.3618 6.31971 27.4776C6.38295 27.5933 6.47087 27.6929 6.57687 27.7688C6.6775 27.85 6.79575 27.9049 6.92155 27.9291C7.04734 27.9532 7.17695 27.9457 7.29934 27.9074C9.61757 27.3205 13.611 24.5575 14.7304 24.5575C15.8498 24.5575 19.8512 27.3205 22.1615 27.9074H22.1456Z" fill="#FFD400"/>
  <path fill-rule="evenodd" clip-rule="evenodd" d="M20.6848 25.9268C20.8094 25.9603 20.9399 25.9644 21.0663 25.939C21.1928 25.9136 21.312 25.8593 21.4152 25.7801C21.5233 25.707 21.6124 25.6079 21.6746 25.4914C21.7369 25.375 21.7705 25.2446 21.7725 25.1117C21.9392 22.6666 20.6213 17.923 20.9785 16.8227C21.3358 15.7224 25.1069 12.6822 26.3772 10.6039C26.4442 10.4918 26.4866 10.3661 26.5015 10.2354C26.5164 10.1048 26.5033 9.97245 26.4633 9.84753C26.4232 9.72262 26.3571 9.60817 26.2696 9.51216C26.182 9.41615 26.0752 9.34089 25.9564 9.29162C23.7493 8.37876 18.9382 8.19945 18.0172 7.52296C17.0963 6.84647 15.4608 2.23328 13.9286 0.326065C13.8489 0.223235 13.7474 0.140422 13.6318 0.0839264C13.5163 0.0274313 13.3897 -0.00125686 13.2617 4.49075e-05C13.1325 -0.0012942 13.0048 0.0273308 12.8879 0.0837834C12.7711 0.140236 12.6681 0.223058 12.5868 0.326065C11.0546 2.20068 9.41117 6.84647 8.49023 7.52296C7.56929 8.19945 2.77403 8.37876 0.551066 9.29162C0.432299 9.34089 0.325423 9.41615 0.237883 9.51216C0.150343 9.60817 0.0842433 9.72262 0.0441888 9.84753C0.00413423 9.97245 -0.00891232 10.1048 0.00595787 10.2354C0.0208281 10.3661 0.0632573 10.4918 0.13029 10.6039C1.40056 12.6822 5.18754 15.7224 5.53686 16.8227C5.88619 17.923 4.56035 22.6666 4.74295 25.1117C4.75065 25.2436 4.78663 25.3721 4.84832 25.488C4.91001 25.6039 4.99589 25.7044 5.09981 25.7822C5.20373 25.8601 5.32312 25.9135 5.44946 25.9384C5.57579 25.9634 5.70595 25.9595 5.83061 25.9268C8.17267 25.3318 12.1422 22.6095 13.2617 22.6095C14.3811 22.6095 18.3745 25.3726 20.6848 25.9676V25.9268Z" fill="url(#paint0_radial_1_2967)"/>
  <path style="mix-blend-mode:multiply" fill-rule="evenodd" clip-rule="evenodd" d="M25.4642 10.4897C22.7966 12.4622 21.2882 13.6358 18.9541 15.217C18.7799 15.3195 18.6389 15.4722 18.5485 15.6562C18.4582 15.8403 18.4225 16.0475 18.446 16.2521C19.1367 18.5343 21.0897 22.1939 21.2247 24.4679C21.312 25.8127 20.1926 25.4052 19.5416 25.1117C17.2789 24.1174 15.7546 22.6666 13.5872 21.5663C13.2557 21.3695 12.8737 21.2813 12.4921 21.3134C12.1105 21.3454 11.7475 21.4962 11.4515 21.7456C10.1416 22.6258 7.81541 24.7694 5.89413 25.3889C5.34633 25.5682 5.00495 25.5274 4.79059 25.2666C4.83188 25.476 4.95162 25.6604 5.12403 25.7801C5.22722 25.8593 5.34647 25.9136 5.47292 25.939C5.59937 25.9644 5.72978 25.9603 5.85444 25.9268C8.17267 25.3318 12.1423 22.6095 13.2617 22.6095C14.3811 22.6095 18.3745 25.3726 20.6848 25.9675C20.8095 26.001 20.9399 26.0052 21.0663 25.9798C21.1928 25.9544 21.312 25.9001 21.4152 25.8208C21.5233 25.7478 21.6124 25.6487 21.6746 25.5322C21.7369 25.4157 21.7705 25.2854 21.7725 25.1525C21.9392 22.7073 20.6213 17.9638 20.9785 16.8634C21.3358 15.7631 25.1069 12.723 26.3772 10.6446C26.4442 10.5325 26.4866 10.4068 26.5015 10.2762C26.5164 10.1456 26.5033 10.0132 26.4633 9.88829C26.4232 9.76337 26.3571 9.64892 26.2696 9.55292C26.182 9.45691 26.0752 9.38164 25.9564 9.33237C23.7493 8.41951 18.9382 8.2402 18.0172 7.56371C17.0963 6.88722 15.4608 2.23328 13.9286 0.326065C13.8489 0.223235 13.7474 0.140422 13.6318 0.0839264C13.5163 0.0274313 13.3897 -0.00125686 13.2617 4.49075e-05C13.1325 -0.0012942 13.0048 0.0273308 12.8879 0.0837834C12.7711 0.140236 12.6682 0.223058 12.5868 0.326065C12.3204 0.67152 12.0789 1.03655 11.8644 1.41823C12.5313 0.700988 13.222 0.25271 13.8412 1.25522C14.8275 3.05206 15.5903 4.9688 16.1118 6.96057C16.5009 8.1261 16.7311 8.59068 18.9699 8.76184C21.5264 8.9493 23.6461 9.12861 25.1704 9.38943C26.012 9.53613 26.0279 10.1393 25.4642 10.5549V10.4897Z" fill="url(#paint1_radial_1_2967)"/>
  <path style="mix-blend-mode:screen" fill-rule="evenodd" clip-rule="evenodd" d="M11.785 1.91543C11.0546 3.29286 10.4274 4.80885 9.74462 6.21074C9.16506 7.40887 8.95071 8.11796 7.51372 8.37063C5.72741 8.6885 3.90934 8.7374 2.12303 9.03897C0.193809 9.35684 -0.258723 9.80511 1.13857 11.3945C1.93249 12.3399 5.78298 15.8854 6.0291 16.7493C6.27521 17.6133 5.83856 18.9174 5.79886 19.7976C5.79886 20.2215 5.94176 20.8409 6.59278 20.0747C11.8723 14.1167 13.2061 13.0083 20.8753 10.3838C21.6693 10.0985 22.5346 9.89477 23.3682 9.63395C23.6064 9.5606 23.916 9.32423 23.2333 9.22643C20.8515 8.89226 18.9302 9.16122 16.8819 8.96561C15.961 8.88411 15.3735 7.74304 15.0877 6.95244C14.4843 5.28158 14.1747 3.50477 13.5951 1.82577C13.1505 0.497238 12.3169 1.01072 11.8326 1.90728L11.785 1.91543Z" fill="url(#paint2_radial_1_2967)"/>
  <path style="mix-blend-mode:screen" fill-rule="evenodd" clip-rule="evenodd" d="M5.67184 9.6747C5.17961 9.57689 5.2987 9.04711 5.75123 8.94115C6.48958 8.76184 7.25174 8.72924 7.98214 8.54993C8.35036 8.49356 8.6971 8.33677 8.98617 8.09592C9.27524 7.85507 9.49605 7.53898 9.62555 7.18064C10.4195 5.55054 11.2134 3.38251 12.0073 1.90727C12.309 1.37748 12.6504 1.45899 12.571 2.05398C12.2957 3.93352 11.8925 5.79096 11.3642 7.61262C11.1022 8.56623 10.8085 9.57689 9.53822 9.73175C8.24105 9.86737 6.93295 9.84822 5.64009 9.6747H5.67184ZM3.86171 9.07156C3.03608 9.12665 2.21878 9.27424 1.42439 9.51169C0.630473 9.78881 0.813073 9.95997 1.51172 10.0007C2.25724 10.0496 3.00504 10.0496 3.75057 10.0007C4.79853 9.92736 4.65563 9.03896 3.86171 9.09601V9.07156Z" fill="url(#paint3_radial_1_2967)"/>
  <path style="mix-blend-mode:screen" fill-rule="evenodd" clip-rule="evenodd" d="M18.9144 23.7099C18.565 23.8566 17.7314 24.044 18.7476 24.6227C19.179 24.8602 19.6342 25.0487 20.1052 25.1851C21.1215 25.4785 21.1294 24.7287 20.9785 23.9707C20.5987 22.3777 20.0668 20.8271 19.3907 19.3412C19.1128 18.6973 18.7635 18.3468 18.8826 19.3901C19.0017 20.5638 19.2081 21.7293 19.3272 22.903C19.3748 23.4409 19.3272 23.5142 18.8905 23.718L18.9144 23.7099Z" fill="url(#paint4_radial_1_2967)"/>
  <path fill-rule="evenodd" clip-rule="evenodd" d="M4.8938 25.5682C5.35774 26.3704 5.91785 27.1097 6.56102 27.7688C6.66165 27.85 6.7799 27.905 6.9057 27.9291C7.03149 27.9532 7.1611 27.9458 7.28349 27.9074C9.60172 27.3205 13.5951 24.5575 14.7145 24.5575C15.834 24.5575 19.8353 27.3205 22.1456 27.9074C22.2691 27.9472 22.4003 27.9553 22.5276 27.9312C22.6549 27.907 22.7745 27.8513 22.876 27.7688C22.981 27.6925 23.0677 27.5926 23.1295 27.4768C23.1914 27.3611 23.2269 27.2324 23.2333 27.1005C23.4 24.6553 22.0742 19.9036 22.4394 18.8114C22.8046 17.7192 26.5757 14.671 27.838 12.5926C27.9078 12.4815 27.9526 12.3558 27.9691 12.2246C27.9856 12.0935 27.9733 11.9602 27.9333 11.8346C27.4839 10.9896 26.9288 10.2087 26.2819 9.51169C26.353 9.61835 26.4167 9.73002 26.4725 9.84586C26.5193 9.96993 26.5358 10.1039 26.5206 10.236C26.5053 10.3681 26.4588 10.4944 26.3851 10.6039C25.1149 12.6822 21.3279 15.7224 20.9865 16.8227C20.6451 17.923 21.9551 22.6666 21.7804 25.1118C21.7784 25.2446 21.7449 25.375 21.6826 25.4915C21.6203 25.6079 21.5312 25.707 21.4231 25.7801C21.32 25.8593 21.2007 25.9136 21.0743 25.939C20.9478 25.9644 20.8174 25.9603 20.6927 25.9268C18.3745 25.3318 14.3811 22.6095 13.2617 22.6095C12.1423 22.6095 8.17267 25.3318 5.83062 25.9268C5.70596 25.9603 5.57556 25.9644 5.44911 25.939C5.32265 25.9136 5.2034 25.8593 5.10022 25.7801L4.8938 25.5682Z" fill="#848484"/>
  <path fill-rule="evenodd" clip-rule="evenodd" d="M20.9706 16.8227L22.4631 18.8033C22.8204 17.7029 26.5994 14.6628 27.8618 12.5926C27.9316 12.4815 27.9764 12.3558 27.9929 12.2246C28.0093 12.0935 27.9971 11.9602 27.957 11.8346C27.9331 11.7697 27.9039 11.707 27.8697 11.6471C27.4198 10.8766 26.8872 10.1604 26.2819 9.51169C26.353 9.61835 26.4166 9.73002 26.4724 9.84586C26.5192 9.96993 26.5358 10.1039 26.5205 10.236C26.5053 10.3681 26.4588 10.4944 26.3851 10.6039C26.327 10.7027 26.2634 10.7979 26.1946 10.8891C24.7814 12.9512 21.312 15.7794 20.9865 16.8227H20.9706Z" fill="url(#paint5_radial_1_2967)"/>
  <path fill-rule="evenodd" clip-rule="evenodd" d="M22.4631 18.8033L20.9706 16.8227C20.6213 17.923 21.9392 22.6666 21.7645 25.1118C21.7625 25.2446 21.7289 25.375 21.6667 25.4915C21.6044 25.6079 21.5153 25.707 21.4072 25.7801H21.3517L22.8125 27.7607H22.868C22.973 27.6843 23.0597 27.5845 23.1216 27.4687C23.1835 27.3529 23.2189 27.2242 23.2253 27.0923C23.392 24.6472 22.0662 19.8954 22.4314 18.8033H22.4631Z" fill="url(#paint6_radial_1_2967)"/>
  <path fill-rule="evenodd" clip-rule="evenodd" d="M20.6848 25.9268C18.3745 25.3318 14.3811 22.6096 13.2617 22.6096L14.7225 24.5983C15.8498 24.5983 19.8353 27.3613 22.1456 27.9481C22.259 27.9799 22.3777 27.9868 22.4939 27.9686C22.6102 27.9503 22.7214 27.9073 22.8204 27.8422L21.3596 25.8616C21.2598 25.9249 21.1486 25.9669 21.0327 25.9851C20.9168 26.0033 20.7984 25.9973 20.6848 25.9676V25.9268Z" fill="url(#paint7_radial_1_2967)"/>
  <path fill-rule="evenodd" clip-rule="evenodd" d="M7.28349 27.9074C9.60172 27.3205 13.5951 24.5575 14.7145 24.5575L13.2617 22.6096C12.1978 22.6096 8.56169 25.0547 6.21964 25.8698L5.83062 25.9839C5.70596 26.0173 5.57556 26.0215 5.44911 25.9961C5.32265 25.9707 5.2034 25.9164 5.10022 25.8372L4.8938 25.6252C5.34847 26.3824 5.88078 27.0873 6.48163 27.7281L6.59278 27.8259C6.69341 27.907 6.81166 27.962 6.93745 27.9862C7.06325 28.0103 7.19286 28.0028 7.31524 27.9644L7.28349 27.9074Z" fill="url(#paint8_radial_1_2967)"/>
  <path style="mix-blend-mode:multiply" fill-rule="evenodd" clip-rule="evenodd" d="M15.7546 24.5086C15.4679 24.2804 15.1197 24.1486 14.7574 24.1311C14.3951 24.1136 14.0363 24.2113 13.7301 24.4108C11.8406 25.2829 9.42706 26.9945 7.64075 27.4591C6.84683 27.6629 6.48163 27.5977 6.05292 27.2716C6.19083 27.4545 6.34791 27.6212 6.52133 27.7688C6.62196 27.85 6.74021 27.905 6.866 27.9291C6.9918 27.9532 7.12141 27.9458 7.24379 27.9074C9.56203 27.3205 13.5554 24.5575 14.6749 24.5575C15.7943 24.5575 19.7956 27.3205 22.1059 27.9074C22.2105 27.9316 22.3189 27.9316 22.4235 27.9074C21.808 27.7645 21.2166 27.5283 20.6689 27.2064C19.0811 26.3914 17.2074 25.2259 15.7149 24.4842L15.7546 24.5086Z" fill="url(#paint9_radial_1_2967)"/>
  <path style="mix-blend-mode:multiply" fill-rule="evenodd" clip-rule="evenodd" d="M22.9872 17.271C21.8757 18.355 21.8042 18.6402 22.0503 20.2133C22.3838 22.3243 22.8919 24.5983 23.0666 26.7337C23.1078 27.0473 23.0862 27.3663 23.003 27.671C23.1392 27.5219 23.2206 27.3289 23.2333 27.1249C23.4 24.6798 22.0742 19.928 22.4394 18.8358C22.8046 17.7437 26.5757 14.6954 27.838 12.617C27.9078 12.5059 27.9526 12.3802 27.9691 12.2491C27.9856 12.1179 27.9733 11.9847 27.9333 11.859C27.7273 11.4263 27.4743 11.0189 27.179 10.6446C27.6395 11.6471 27.5363 12.7719 26.1866 14.2064C25.1704 15.2904 24.0589 16.2603 23.011 17.2954L22.9872 17.271Z" fill="url(#paint10_radial_1_2967)"/>
  <path style="mix-blend-mode:screen" fill-rule="evenodd" clip-rule="evenodd" d="M26.2819 11.0929C27.0361 10.9462 27.4886 12.1117 27.441 12.7637C27.3883 13.0199 27.3001 13.2669 27.179 13.4973C27.4115 13.2098 27.6263 12.9076 27.8221 12.5926C27.8919 12.4815 27.9367 12.3558 27.9532 12.2246C27.9697 12.0935 27.9574 11.9602 27.9174 11.8346C27.8934 11.7697 27.8642 11.707 27.83 11.6471C27.3801 10.8766 26.8475 10.1604 26.2422 9.51169C26.3133 9.61835 26.3769 9.73002 26.4327 9.84586C26.4796 9.96993 26.4961 10.1039 26.4808 10.236C26.4656 10.3681 26.4191 10.4944 26.3454 10.6039C26.2874 10.7027 26.2237 10.7979 26.1549 10.8891C26.0755 11.0114 25.9881 11.1255 25.9008 11.2477C26.009 11.1729 26.1304 11.1203 26.2581 11.0929H26.2819Z" fill="url(#paint11_radial_1_2967)"/>
  <path style="mix-blend-mode:screen" fill-rule="evenodd" clip-rule="evenodd" d="M6.29107 26.2936C6.25546 26.2446 6.22361 26.1928 6.1958 26.1387C6.16575 26.0378 6.16575 25.9299 6.1958 25.829L5.87029 25.9268C5.74563 25.9603 5.61523 25.9644 5.48878 25.939C5.36233 25.9136 5.24308 25.8593 5.13989 25.7801L4.93347 25.5682C5.38814 26.3253 5.92045 27.0302 6.5213 27.671L6.63245 27.7688C6.73308 27.85 6.85133 27.905 6.97713 27.9291C7.10292 27.9532 7.23253 27.9458 7.35492 27.9074C7.5891 27.8511 7.81975 27.7803 8.04562 27.6955C7.76229 27.6926 7.4914 27.5755 7.2914 27.3694C6.95893 27.0323 6.64862 26.6729 6.36252 26.2936H6.29107Z" fill="url(#paint12_radial_1_2967)"/>
  <path style="mix-blend-mode:screen" fill-rule="evenodd" clip-rule="evenodd" d="M20.8197 26.1469C21.1059 26.4853 21.3711 26.8419 21.6136 27.2146C21.7724 27.451 21.9391 27.7444 21.8121 27.8177C21.9161 27.8541 22.0222 27.8841 22.1297 27.9074C22.2532 27.9472 22.3843 27.9553 22.5116 27.9312C22.639 27.907 22.7586 27.8513 22.8601 27.7688C23.0079 27.656 23.1187 27.4997 23.1777 27.3205C23.1144 27.319 23.0522 27.3028 22.9958 27.2732C22.9395 27.2435 22.8904 27.2012 22.8522 27.1494C22.5822 26.8234 22.3282 26.4729 22.0582 26.1224C21.9452 26.0031 21.8573 25.8612 21.8 25.7056C21.7426 25.55 21.717 25.3839 21.7248 25.2177C21.7058 25.3305 21.6651 25.4384 21.6051 25.5349C21.5452 25.6315 21.4671 25.7148 21.3755 25.7801C21.2723 25.8593 21.153 25.9136 21.0266 25.939C20.9001 25.9644 20.7697 25.9603 20.6451 25.9268L20.4625 25.8698C20.595 25.9456 20.7155 26.0418 20.8197 26.155V26.1469Z" fill="url(#paint13_radial_1_2967)"/>
  <defs>
    <radialGradient id="paint0_radial_1_2967" cx="0" cy="0" r="1" gradientUnits="userSpaceOnUse" gradientTransform="translate(8.45054 5.20007) scale(24.7623 25.4214)">
      <stop stop-color="#FCF800"/>
      <stop offset="1" stop-color="#FC9700"/>
    </radialGradient>
    <radialGradient id="paint1_radial_1_2967" cx="0" cy="0" r="1" gradientUnits="userSpaceOnUse" gradientTransform="translate(11.6659 7.66967) scale(23.6031 24.2314)">
      <stop stop-color="white"/>
      <stop offset="0.1" stop-color="#FFFDF9"/>
      <stop offset="0.22" stop-color="#FFF7E9"/>
      <stop offset="0.36" stop-color="#FFECCF"/>
      <stop offset="0.51" stop-color="#FFDEAA"/>
      <stop offset="0.67" stop-color="#FFCC7A"/>
      <stop offset="0.84" stop-color="#FFB641"/>
      <stop offset="1" stop-color="#FF9D00"/>
    </radialGradient>
    <radialGradient id="paint2_radial_1_2967" cx="0" cy="0" r="1" gradientUnits="userSpaceOnUse" gradientTransform="translate(5.36221 0.358679) scale(21.7295 22.3079)">
      <stop stop-color="#FFF261"/>
      <stop offset="0.11" stop-color="#FAEE5F"/>
      <stop offset="0.23" stop-color="#EDE15A"/>
      <stop offset="0.36" stop-color="#D6CB52"/>
      <stop offset="0.5" stop-color="#B7AD46"/>
      <stop offset="0.64" stop-color="#8E8736"/>
      <stop offset="0.78" stop-color="#5C5823"/>
      <stop offset="0.92" stop-color="#23210D"/>
      <stop offset="1"/>
    </radialGradient>
    <radialGradient id="paint3_radial_1_2967" cx="0" cy="0" r="1" gradientUnits="userSpaceOnUse" gradientTransform="translate(5.44161 1.22262) scale(15.7354 16.1543)">
      <stop stop-color="#FFFACF"/>
      <stop offset="1"/>
    </radialGradient>
    <radialGradient id="paint4_radial_1_2967" cx="0" cy="0" r="1" gradientUnits="userSpaceOnUse" gradientTransform="translate(16.0483 23.4653) scale(10.1304 10.4)">
      <stop/>
      <stop offset="0.08" stop-color="#232112"/>
      <stop offset="0.22" stop-color="#5C582E"/>
      <stop offset="0.36" stop-color="#8E8747"/>
      <stop offset="0.5" stop-color="#B7AE5C"/>
      <stop offset="0.64" stop-color="#D6CC6C"/>
      <stop offset="0.77" stop-color="#EDE277"/>
      <stop offset="0.89" stop-color="#FAEF7E"/>
      <stop offset="1" stop-color="#FFF380"/>
    </radialGradient>
    <radialGradient id="paint5_radial_1_2967" cx="0" cy="0" r="1" gradientUnits="userSpaceOnUse" gradientTransform="translate(19.3113 7.40071) scale(11.5356 11.8427)">
      <stop stop-color="#FCAC00"/>
      <stop offset="1" stop-color="#FF7300"/>
    </radialGradient>
    <radialGradient id="paint6_radial_1_2967" cx="0" cy="0" r="1" gradientUnits="userSpaceOnUse" gradientTransform="translate(13.6348 24.8591) scale(10.5988 10.8809)">
      <stop stop-color="#FC8F00"/>
      <stop offset="1" stop-color="#E86900"/>
    </radialGradient>
    <radialGradient id="paint7_radial_1_2967" cx="0" cy="0" r="1" gradientUnits="userSpaceOnUse" gradientTransform="translate(25.0513 16.2033) scale(13.2505 13.6032)">
      <stop stop-color="#FCAC00"/>
      <stop offset="1" stop-color="#FF7300"/>
    </radialGradient>
    <radialGradient id="paint8_radial_1_2967" cx="0" cy="0" r="1" gradientUnits="userSpaceOnUse" gradientTransform="translate(5.89413 30.2873) scale(10.6067 10.8891)">
      <stop stop-color="#FC8F00"/>
      <stop offset="1" stop-color="#E86900"/>
    </radialGradient>
    <radialGradient id="paint9_radial_1_2967" cx="0" cy="0" r="1" gradientUnits="userSpaceOnUse" gradientTransform="translate(15.0242 18.8196) scale(13.3854 13.7417)">
      <stop stop-color="white"/>
      <stop offset="0.1" stop-color="#FEFBF9"/>
      <stop offset="0.22" stop-color="#FBF0E9"/>
      <stop offset="0.36" stop-color="#F6DECF"/>
      <stop offset="0.51" stop-color="#F0C4AA"/>
      <stop offset="0.67" stop-color="#E7A47A"/>
      <stop offset="0.84" stop-color="#DD7C41"/>
      <stop offset="1" stop-color="#D15000"/>
    </radialGradient>
    <radialGradient id="paint10_radial_1_2967" cx="0" cy="0" r="1" gradientUnits="userSpaceOnUse" gradientTransform="translate(15.8975 16.1136) scale(12.7265 13.0653)">
      <stop stop-color="white"/>
      <stop offset="0.1" stop-color="#FEFBF9"/>
      <stop offset="0.22" stop-color="#FBF0E9"/>
      <stop offset="0.36" stop-color="#F6DECF"/>
      <stop offset="0.51" stop-color="#F0C4AA"/>
      <stop offset="0.67" stop-color="#E7A47A"/>
      <stop offset="0.84" stop-color="#DD7C41"/>
      <stop offset="1" stop-color="#D15000"/>
    </radialGradient>
    <radialGradient id="paint11_radial_1_2967" cx="0" cy="0" r="1" gradientUnits="userSpaceOnUse" gradientTransform="translate(25.9088 8.1261) scale(5.78765 5.94172)">
      <stop stop-color="#FFF261"/>
      <stop offset="0.11" stop-color="#FAEE5F"/>
      <stop offset="0.23" stop-color="#EDE15A"/>
      <stop offset="0.36" stop-color="#D6CB52"/>
      <stop offset="0.5" stop-color="#B7AD46"/>
      <stop offset="0.64" stop-color="#8E8736"/>
      <stop offset="0.78" stop-color="#5C5823"/>
      <stop offset="0.92" stop-color="#23210D"/>
      <stop offset="1"/>
    </radialGradient>
    <radialGradient id="paint12_radial_1_2967" cx="0" cy="0" r="1" gradientUnits="userSpaceOnUse" gradientTransform="translate(5.44952 22.3732) scale(5.93056 6.08842)">
      <stop stop-color="#FFF261"/>
      <stop offset="0.11" stop-color="#FAEE5F"/>
      <stop offset="0.23" stop-color="#EDE15A"/>
      <stop offset="0.36" stop-color="#D6CB52"/>
      <stop offset="0.5" stop-color="#B7AD46"/>
      <stop offset="0.64" stop-color="#8E8736"/>
      <stop offset="0.78" stop-color="#5C5823"/>
      <stop offset="0.92" stop-color="#23210D"/>
      <stop offset="1"/>
    </radialGradient>
    <radialGradient id="paint13_radial_1_2967" cx="0" cy="0" r="1" gradientUnits="userSpaceOnUse" gradientTransform="translate(24.1304 22.5606) scale(6.28782 6.4552)">
      <stop stop-color="#FFF261"/>
      <stop offset="0.11" stop-color="#FAEE5F"/>
      <stop offset="0.23" stop-color="#EDE15A"/>
      <stop offset="0.36" stop-color="#D6CB52"/>
      <stop offset="0.5" stop-color="#B7AD46"/>
      <stop offset="0.64" stop-color="#8E8736"/>
      <stop offset="0.78" stop-color="#5C5823"/>
      <stop offset="0.92" stop-color="#23210D"/>
      <stop offset="1"/>
    </radialGradient>
  </defs>
</svg>