<svg xmlns="http://www.w3.org/2000/svg" width="59" height="56" fill="none"><g clip-path="url(#a)"><path fill="url(#b)" fill-rule="evenodd" d="m44.55 17.337 10.716 8.622 1.789 6.054-8.194-.092-13.377-6.16-10.717-8.623-1.789-6.039 8.194.076 13.377 6.162Z" clip-rule="evenodd"/><path fill="url(#c)" fill-rule="evenodd" d="m22.978 11.1-10.549 3.684 2.431 8.24 9.907-5.886-1.79-6.039Z" clip-rule="evenodd"/><path fill="url(#d)" fill-rule="evenodd" d="m24.767 17.138-9.907 5.886L29.49 34.81l5.993-9.05-10.716-8.623Z" clip-rule="evenodd"/><path fill="url(#e)" fill-rule="evenodd" d="m35.484 25.76 13.377 6.161-1.116 11.298-18.254-8.408 5.993-9.05Z" clip-rule="evenodd"/><path fill="url(#f)" fill-rule="evenodd" d="m57.055 32.013 1.88 11.313-11.19-.107 1.116-11.298 8.194.092Z" clip-rule="evenodd"/><path fill="url(#g)" fill-rule="evenodd" d="m14.86 23.024 6.39 31.02 8.24-19.233-14.63-11.787Z" clip-rule="evenodd"/><path fill="url(#h)" fill-rule="evenodd" d="m29.49 34.81 18.255 8.41L21.25 54.042l8.24-19.232Z" clip-rule="evenodd"/><path fill="url(#i)" fill-rule="evenodd" d="M58.935 43.326 21.251 54.043 47.745 43.22l11.19.107Z" clip-rule="evenodd"/><path fill="#85F2FF" fill-rule="evenodd" d="m12.43 14.784 8.82 39.26-6.39-31.02-2.43-8.24Z" clip-rule="evenodd"/><path fill="url(#j)" fill-rule="evenodd" d="M34.276 12.613c3.684 3.562 10.93 14.707 12.872 18.529l1.713.78h4.403a91.722 91.722 0 0 1-10.855-15.61l-8.133-3.7Z" clip-rule="evenodd" opacity=".5" style="mix-blend-mode:screen"/><path fill="#9FDFFF" fill-rule="evenodd" d="M16.45 30.698c-.138-5.55 2.17-3.883 4.586-1.406 7.644 7.812 5.06 12.322 1.758 21.143l6.697-15.624L14.86 23.024a398.323 398.323 0 0 1 1.529 7.644l.06.03Z" clip-rule="evenodd" opacity=".75" style="mix-blend-mode:screen"/><path fill="url(#k)" fill-rule="evenodd" d="M35.163 37.41c7.475 3.47 4.357 7.49-1.973 10.701l-11.94 5.932 26.495-10.84-12.582-5.793Z" clip-rule="evenodd" opacity=".5" style="mix-blend-mode:screen"/><path fill="#8FFCFF" fill-rule="evenodd" d="m24.767 17.138-1.636-5.52c.581 2.814.948 3.808.138 5.03a18.867 18.867 0 0 1-4.495 4.052l5.993-3.562Z" clip-rule="evenodd" style="mix-blend-mode:screen"/><path fill="#fff" fill-rule="evenodd" d="m35.484 25.76-10.702-8.622-5.993 3.562c3.058-1.62 4.8-2.201 5.947-1.773a22.932 22.932 0 0 1 4.908 3.18c2.476 1.85 3.577 3.745 3.592 4.754 0 1.254-1.177 3.715-2.767 6.497l5.03-7.644-.015.046Z" clip-rule="evenodd"/><path fill="#8FFCFF" fill-rule="evenodd" d="m35.483 25.76-5.03 7.644c2.324-3.317 4.128-4.846 5.397-5.137 1.712-.412 4.204.153 9.066 1.896l-9.433-4.357v-.046Z" clip-rule="evenodd" opacity=".5" style="mix-blend-mode:screen"/><path fill="url(#l)" fill-rule="evenodd" d="m28.849 11.16-5.917-.06 1.208 4.066.58 1.972 10.702 8.622 5.183 2.385C37.38 25.271 29.11 13.668 28.787 11.16h.062Z" clip-rule="evenodd" style="mix-blend-mode:screen"/><path fill="url(#m)" d="M23.574 30.714c6.974 0 12.628-5.654 12.628-12.628S30.548 5.458 23.574 5.458 10.946 11.11 10.946 18.086c0 6.974 5.654 12.628 12.628 12.628Z" opacity=".75" style="mix-blend-mode:screen"/></g><defs><radialGradient id="b" cx="0" cy="0" r="1" gradientTransform="translate(25.577 17.566) scale(42.7912)" gradientUnits="userSpaceOnUse"><stop stop-color="#C4EEFF"/><stop offset=".33" stop-color="#4CCAFF"/><stop offset="1" stop-color="#003EB0"/></radialGradient><radialGradient id="c" cx="0" cy="0" r="1" gradientTransform="translate(11.252 9.142) scale(16.2664)" gradientUnits="userSpaceOnUse"><stop stop-color="#A5E2FF"/><stop offset="1" stop-color="#218CF3"/></radialGradient><radialGradient id="d" cx="0" cy="0" r="1" gradientTransform="translate(24.965 18.605) scale(47.0412)" gradientUnits="userSpaceOnUse"><stop stop-color="#A5E2FF"/><stop offset="1" stop-color="#08F"/></radialGradient><radialGradient id="e" cx="0" cy="0" r="1" gradientTransform="translate(32.564 56.138) scale(32.7011)" gradientUnits="userSpaceOnUse"><stop stop-color="#A5E2FF"/><stop offset="1" stop-color="#0069C2"/></radialGradient><radialGradient id="f" cx="0" cy="0" r="1" gradientTransform="translate(61.03 25.103) scale(23.7576)" gradientUnits="userSpaceOnUse"><stop stop-color="#4CCAFF"/><stop offset="1" stop-color="#003EB0"/></radialGradient><radialGradient id="g" cx="0" cy="0" r="1" gradientTransform="translate(11.283 41.522) scale(20.7458)" gradientUnits="userSpaceOnUse"><stop stop-color="#A5E2FF"/><stop offset="1" stop-color="#218CF3"/></radialGradient><radialGradient id="h" cx="0" cy="0" r="1" gradientTransform="translate(26.983 60.953) scale(38.1436)" gradientUnits="userSpaceOnUse"><stop stop-color="#77D6FF"/><stop offset="1" stop-color="#001FB0"/></radialGradient><radialGradient id="i" cx="0" cy="0" r="1" gradientTransform="translate(21.893 55.48) scale(34.6121)" gradientUnits="userSpaceOnUse"><stop stop-color="#A5E2FF"/><stop offset="1" stop-color="#0081FF"/></radialGradient><radialGradient id="j" cx="0" cy="0" r="1" gradientTransform="translate(49.656 32.93) scale(20.1955)" gradientUnits="userSpaceOnUse"><stop stop-color="#00000D"/><stop offset="1" stop-color="#fff"/></radialGradient><radialGradient id="k" cx="0" cy="0" r="1" gradientTransform="translate(29.246 35.59) scale(21.709)" gradientUnits="userSpaceOnUse"><stop offset=".31" stop-color="#00000D"/><stop offset="1" stop-color="#1CB4FF"/></radialGradient><radialGradient id="l" cx="0" cy="0" r="1" gradientTransform="translate(48.845 2.599) scale(35.2389)" gradientUnits="userSpaceOnUse"><stop offset=".57" stop-color="#00000D"/><stop offset=".6" stop-color="#030613"/><stop offset=".63" stop-color="#0D1524"/><stop offset=".68" stop-color="#1C2F3F"/><stop offset=".72" stop-color="#315466"/><stop offset=".77" stop-color="#4C8298"/><stop offset=".82" stop-color="#6DBAD3"/><stop offset=".86" stop-color="#85E3FF"/></radialGradient><radialGradient id="m" cx="0" cy="0" r="1" gradientTransform="translate(23.574 18.086) scale(12.6279)" gradientUnits="userSpaceOnUse"><stop stop-color="#fff"/><stop offset=".2" stop-color="#6EFFFF"/><stop offset=".24" stop-color="#61E1E1"/><stop offset=".32" stop-color="#4BADAD"/><stop offset=".41" stop-color="#377F7F"/><stop offset=".5" stop-color="#265858"/><stop offset=".59" stop-color="#183838"/><stop offset=".68" stop-color="#0D1F1F"/><stop offset=".77" stop-color="#060E0E"/><stop offset=".88" stop-color="#010303"/><stop offset="1"/></radialGradient><clipPath id="a"><path fill="#fff" d="M0 0h58.935v56H0z"/></clipPath></defs></svg>