<svg xmlns="http://www.w3.org/2000/svg" width="57" height="56" fill="none"><g clip-path="url(#a)"><path fill="url(#b)" d="M47.497 48.43C58.519 37.95 58.96 20.521 48.482 9.5 38.004-1.523 20.575-1.964 9.552 8.514-1.47 18.992-1.91 36.422 8.567 47.444c10.478 11.022 27.907 11.463 38.93.985Z" style="mix-blend-mode:screen"/><path fill="url(#c)" fill-rule="evenodd" d="M24.005 41.566c4.113 2.363 6.417 5.983 5.175 8.197-1.241 2.213-5.579 1.974-9.677-.39-4.098-2.362-6.432-5.982-5.175-8.196 1.256-2.213 5.579-1.989 9.677.39Z" clip-rule="evenodd"/><path fill="#5ACCC9" fill-rule="evenodd" d="M29.405 49.479c-1.137 1.944-5.385 1.585-9.513-.793s-6.551-5.893-5.444-7.838c1.87 3.575 8.72 8.406 14.957 8.63Z" clip-rule="evenodd" style="mix-blend-mode:multiply"/><path fill="#fff" fill-rule="evenodd" d="m36.226 12.145-1.077 1.81c-1.496 2.498-.838 1.825-3.216 3.665a9.214 9.214 0 0 1-4.487 1.81c-5.235.942-10.037 2.99-12.804 7.762a13.118 13.118 0 0 0-1.69 6.387 15.451 15.451 0 0 0 7.928 13.462 15.48 15.48 0 0 0 15.6.164 13.133 13.133 0 0 0 4.652-4.711c2.767-4.802 2.124-9.962.314-14.958a9.155 9.155 0 0 1-.643-4.741c.403-2.992.15-2.064 1.57-4.622l1.032-1.84a16.448 16.448 0 0 1-3.829-1.66 17.188 17.188 0 0 1-3.335-2.468l-.015-.06Z" clip-rule="evenodd" opacity=".15"/><path fill="url(#d)" fill-rule="evenodd" d="M27.909 23.932c7.957 0 14.419 2.991 14.419 6.61 0 3.62-6.507 6.657-14.419 6.657-7.912 0-14.419-2.992-14.419-6.611 0-3.62 6.402-6.656 14.419-6.656Z" clip-rule="evenodd"/><path fill="url(#e)" fill-rule="evenodd" d="M27.91 37.199c-7.973 0-14.42-2.992-14.42-6.611 0-.32.05-.639.15-.943a12.909 12.909 0 0 0-.688 3.934 15.451 15.451 0 0 0 7.928 13.462 15.48 15.48 0 0 0 15.6.164 13.133 13.133 0 0 0 4.652-4.711 15.824 15.824 0 0 0 1.062-12.58c.058.235.089.476.09.718 0 3.65-6.462 6.612-14.42 6.612l.045-.045Z" clip-rule="evenodd"/><path fill="url(#f)" fill-rule="evenodd" d="M39.875 33.444c0-3.425-5.983-6.207-13.462-6.207-5.982 0-10.963 1.75-12.788 4.173.823 3.26 6.88 5.789 14.284 5.789a22.526 22.526 0 0 0 11.802-2.797c.094-.295.144-.603.149-.913l.015-.044Z" clip-rule="evenodd" style="mix-blend-mode:screen"/><path fill="url(#g)" fill-rule="evenodd" d="M36.12 34.132c0-2.991-5.16-5.294-11.531-5.294-4.877 0-8.975 1.376-10.725 3.335 1.496 2.887 7.225 5.026 14 5.026a28.42 28.42 0 0 0 7.24-.883 3.128 3.128 0 0 0 1.017-2.184Z" clip-rule="evenodd" style="mix-blend-mode:screen"/><path fill="url(#h)" fill-rule="evenodd" d="M27.91 37.199c-6.776 0-12.46-2.14-14-5.026a3.204 3.204 0 0 1-.3-.703c-.125.656-.19 1.322-.194 1.99a13.537 13.537 0 0 0 6.955 11.77 13.582 13.582 0 0 0 13.686.15 11.607 11.607 0 0 0 4.083-4.128 12.4 12.4 0 0 0 1.586-6.85 16.24 16.24 0 0 1-4.607 1.96c-2.365.603-4.798.9-7.24.882l.03-.045Z" clip-rule="evenodd" style="mix-blend-mode:screen"/><path fill="url(#i)" fill-rule="evenodd" d="M27.909 37.199c-6.776 0-12.46-2.14-14-5.026l.09-.105v-.194.284a7.91 7.91 0 0 0-.12 1.346 11.053 11.053 0 0 0 5.684 9.588 11.04 11.04 0 0 0 11.143.12 9.422 9.422 0 0 0 3.186-3.366 9.767 9.767 0 0 0 1.241-3.545 28.42 28.42 0 0 1-7.24.883l.016.015Z" clip-rule="evenodd" style="mix-blend-mode:screen"/><path fill="url(#j)" fill-rule="evenodd" d="m43.525 18.756 1.226-2.213-.762-.09-.778-.194-1.017 1.794a10.052 10.052 0 0 0-.928 9.513c1.78 4.966 2.438 10.081-.299 14.823a13.027 13.027 0 0 1-4.592 4.651 15.332 15.332 0 0 1-15.42-.164 15.332 15.332 0 0 1-7.853-13.297c.04-2.212.636-4.377 1.735-6.297 2.752-4.756 7.479-6.716 12.684-7.673a2.153 2.153 0 0 1 1.75.299c1.376 1.032 2.408 2.752 4.621 3.77-1.27-.973-3.2-3.216-3.215-4.488a.778.778 0 0 1 .314-.688 10.844 10.844 0 0 0 4.307-4.487l1.062-1.78c-.209-.194-.389-.389-.568-.583a7 7 0 0 1-.494-.599l-1.286 2.184a8.6 8.6 0 0 1-6.76 4.846c-5.73 1.047-10.77 3.306-13.716 8.421-4.248 7.36-1.272 17.037 6.67 21.613 7.943 4.577 17.815 2.334 22.063-5.025 2.991-5.116 2.393-10.605.418-16.094a8.542 8.542 0 0 1 .838-8.242Z" clip-rule="evenodd"/><path fill="url(#k)" fill-rule="evenodd" d="M41.52 19.52a13.552 13.552 0 0 0-.359 5.653 50.379 50.379 0 0 0 1.227 6.237 36.954 36.954 0 0 1-2.378-6.401c.07-1.916.581-3.79 1.495-5.475l.015-.015Z" clip-rule="evenodd" style="mix-blend-mode:screen"/><path fill="url(#l)" fill-rule="evenodd" d="m40.07 13.746 3.425 1.974c-2.722 4.712-6.462 7.643-8.346 6.551-1.885-1.091-1.227-5.803 1.495-10.47l3.425 1.99v-.045Z" clip-rule="evenodd" opacity=".5" style="mix-blend-mode:screen"/><path fill="url(#m)" fill-rule="evenodd" d="m38.858 12.908 1.57 1.032c-1.854 2.992-4.083 4.98-4.95 4.413-.868-.569-.09-3.396 1.794-6.387l1.586 1.017v-.075Z" clip-rule="evenodd" opacity=".5" style="mix-blend-mode:screen"/><path fill="url(#n)" fill-rule="evenodd" d="M22.42 24.814c-.344-.329-.748-.733-1.212-.703-1.675.075-3.68 2.154-4.487 3.425a10.47 10.47 0 0 0-1.496 9.947c.404.897 3.081 2.528 3.141 1.93a9.483 9.483 0 0 1 1.047-4.488 15.556 15.556 0 0 1 4.173-4.666c1.63-1.257 1.735-1.676 1.122-2.558a32.444 32.444 0 0 0-2.288-2.992v.105Zm7.224-2.273c1.705 1.884 1.615 2.991.838 3.873-1.496 1.66-3.785.898-5.295-.972-1.511-1.87-1.78-2.842-.988-3.68 1.182-1.24 3.74-1.121 5.445.779Z" clip-rule="evenodd" style="mix-blend-mode:screen"/><path fill="url(#o)" fill-rule="evenodd" d="M28.567 22.69a2.572 2.572 0 0 0-3.44-.613c-.479.479-.27 1.077.718 2.229.987 1.151 2.483 1.675 3.365.717.464-.508.479-1.091-.643-2.333Zm-7.598 2.543c-.195-.12-.42-.12-.778 0a9.201 9.201 0 0 0-2.752 2.647 9.706 9.706 0 0 0-1.96 8.017c.09.285.285.808.554.898.269.09.254 0 .329-.404.24-.95.623-1.858 1.137-2.692a18.174 18.174 0 0 1 4.607-5.011c.613-.464.747-.748.672-1.002a15.15 15.15 0 0 0-1.81-2.453Z" clip-rule="evenodd" style="mix-blend-mode:screen"/><path fill="url(#p)" fill-rule="evenodd" d="m38.53 12.908.822.553c-1.272 2.154-2.663 3.65-3.111 3.35-.449-.298.224-2.303 1.495-4.486l.808.553-.015.03Z" clip-rule="evenodd" opacity=".5" style="mix-blend-mode:screen"/><path fill="#7F8E99" fill-rule="evenodd" d="M43.494 18.786c-.463.793-2.662-.284-4.935-2.393-2.274-2.109-3.74-4.487-3.276-5.265a14.762 14.762 0 0 0 4.263 3.515 14.537 14.537 0 0 0 5.22 1.945l-1.286 2.228.014-.03Z" clip-rule="evenodd" opacity=".5" style="mix-blend-mode:multiply"/><path fill="url(#q)" fill-rule="evenodd" d="M47.084 16.722c-.927 1.047-4.308.344-7.778-1.66-3.47-2.004-5.758-4.592-5.325-5.893a12.25 12.25 0 0 1 2.289-3.605l6.401 3.68 6.387 3.709a12.159 12.159 0 0 1-1.974 3.77Zm0-3.978-4.831-2.768-4.787-2.752c-.219.32-.414.654-.583 1.002-1.795 3.126 7.868 8.706 9.677 5.58.204-.342.383-.697.539-1.062h-.015Z" clip-rule="evenodd"/><path fill="#fff" fill-rule="evenodd" d="M46.65 13.91c.247-.397.453-.818.614-1.256l-4.92-2.842-4.937-2.842c-.289.36-.544.745-.762 1.152-1.93 3.365 8.061 9.124 10.006 5.788Z" clip-rule="evenodd" opacity=".15"/><path fill="#8E633F" fill-rule="evenodd" d="M45.275 13.97c-.524.598-2.573.135-4.697-1.092-2.124-1.226-3.47-2.662-3.32-3.44.251-.727.55-1.437.897-2.124l8.436 4.861c-.479.703-.943 1.346-1.316 1.795Z" clip-rule="evenodd"/><path fill="url(#r)" fill-rule="evenodd" d="M28.074 49.628c-4.697.419-11.308-2.991-13.088-7.553a20.476 20.476 0 0 0 13.088 7.553Z" clip-rule="evenodd" style="mix-blend-mode:screen"/><path fill="#fff" fill-rule="evenodd" d="M33.01 48.462a15.99 15.99 0 0 0 9.722-11.488c-.18 6.118-3.949 10.695-9.722 11.488Z" clip-rule="evenodd"/><path fill="url(#s)" fill-rule="evenodd" d="M35.044 10.545c-.225-1.152 1.495-3.485 2.198-4.413l-.972-.568a12.249 12.249 0 0 0-2.288 3.605c-.404 1.226 1.495 3.515 4.577 5.43-1.421-1.018-3.171-2.633-3.515-4.054Z" clip-rule="evenodd" style="mix-blend-mode:screen"/><path fill="url(#t)" fill-rule="evenodd" d="M43.854 7.194c3.5 2.05 5.863 4.622 5.205 5.759-.658 1.137-4.054.404-7.584-1.645-3.53-2.05-5.863-4.607-5.205-5.744.658-1.137 4.054-.404 7.584 1.63Z" clip-rule="evenodd"/><path fill="#fff" fill-rule="evenodd" d="M47.354 13.461a12.91 12.91 0 0 1-6.178-2.034c-.779-.45-1.528-.95-2.243-1.495a1.018 1.018 0 0 1-1.496.09 1.675 1.675 0 0 1-.389-1.9c-.808-.987-1.152-1.87-.823-2.438a.268.268 0 0 1 .075-.105c-.433 1.137 1.975 3.62 5.505 5.654a18.158 18.158 0 0 0 5.549 2.228Z" clip-rule="evenodd"/><path fill="#8E633F" fill-rule="evenodd" d="M47.04 11.577c-.554.643-2.753.134-5.041-1.182-2.289-1.316-3.71-2.842-3.62-3.68A47.389 47.389 0 0 1 41.55.15l8.556 7.329c-1.032 1.495-1.975 2.827-3.067 4.113v-.015Z" clip-rule="evenodd"/><path fill="url(#u)" fill-rule="evenodd" d="M47.084 10.74c-.508.568-2.528.089-4.637-1.123C40.34 8.406 39.023 7 39.157 6.252A38.89 38.89 0 0 1 41.879.434l7.793 6.656c-.927 1.271-1.6 2.498-2.588 3.65Z" clip-rule="evenodd" style="mix-blend-mode:screen"/><path fill="url(#v)" fill-rule="evenodd" d="M45.603 4.083c-1.735 2.992-3.395 4.487-4.726 3.44-1.332-1.047-.524-3.859 1.211-6.865l3.515 3.425Z" clip-rule="evenodd" style="mix-blend-mode:screen"/><path fill="url(#w)" fill-rule="evenodd" d="M42.059 6.447a1.092 1.092 0 0 1 1.002 1.106 1.495 1.495 0 0 1-.808 1.406c-.463.15-1.002-.628-1.106-1.376-.105-.748.329-1.241.912-1.136Z" clip-rule="evenodd"/><path fill="url(#x)" fill-rule="evenodd" d="M47.563 8.361a1.39 1.39 0 0 1-.478 1.69 1.302 1.302 0 0 1-1.586-.284c-.284-.344 0-1.032.524-1.406.523-.374 1.271-.449 1.495 0h.045Z" clip-rule="evenodd"/><path fill="#EDCAA6" fill-rule="evenodd" d="M46.501 2.603C44.063.703 41.894-.51 41.445.284c-.239.404 0 1.272.644 2.289a1.495 1.495 0 0 0 .03 1.914 1.346 1.346 0 0 0 1.78.33c.285.279.584.543.897.792 2.558 2.004 4.741 2.752 5.31 1.87.568-.883-1.152-2.992-3.605-4.876Z" clip-rule="evenodd" opacity=".25" style="mix-blend-mode:screen"/><path fill="#936E4E" fill-rule="evenodd" d="M46.606 2.423c2.393 2.064 3.949 4.248 3.5 5.056-.449.807-2.752-.195-5.16-2.17-2.408-1.974-3.964-4.232-3.5-5.025.464-.793 2.767.165 5.16 2.139Z" clip-rule="evenodd"/><path fill="url(#y)" fill-rule="evenodd" d="M45.858 2.02c1.959 1.63 3.26 3.47 2.871 4.127-.389.658-2.303-.164-4.262-1.765-1.96-1.6-3.261-3.485-2.887-4.143.374-.658 2.288.15 4.278 1.78Z" clip-rule="evenodd" style="mix-blend-mode:screen"/><path fill="url(#z)" fill-rule="evenodd" d="M44.556 1.376c.748.568 1.242 1.212 1.107 1.496-.134.284-.852 0-1.6-.584-.748-.583-1.242-1.196-1.092-1.495.15-.3.853 0 1.586.568v.015Z" clip-rule="evenodd"/><path fill="url(#A)" fill-rule="evenodd" d="M46.172 4.263c.538.389.867.882.748 1.092-.12.21-.659 0-1.197-.33-.538-.328-.867-.882-.733-1.106.135-.225.643 0 1.182.344Z" clip-rule="evenodd"/><path fill="url(#B)" fill-rule="evenodd" d="M48.85 5.25c.598.479.957 1.062.822 1.316-.134.254-.733 0-1.33-.434-.6-.433-.958-1.062-.823-1.316.134-.254.732 0 1.33.434Z" clip-rule="evenodd"/><path fill="url(#C)" fill-rule="evenodd" d="M43.72 4.487a1.017 1.017 0 0 1-1.407-.374 1.092 1.092 0 0 1-.104-1.496c.359-.284 1.061 0 1.495.539.434.538.374 1.062 0 1.331h.015Z" clip-rule="evenodd"/><path fill="url(#D)" fill-rule="evenodd" d="M40.907 39.562a13.46 13.46 0 0 1-18.487 7.21 27.581 27.581 0 0 0 18.487-7.21Z" clip-rule="evenodd" style="mix-blend-mode:screen"/></g><defs><radialGradient id="b" cx="0" cy="0" r="1" gradientTransform="translate(28.523 28.481) scale(27.5363)" gradientUnits="userSpaceOnUse"><stop stop-color="#F33218"/><stop offset=".1" stop-color="#CD2A14"/><stop offset=".29" stop-color="#901E0E"/><stop offset=".46" stop-color="#5C1309"/><stop offset=".63" stop-color="#340B05"/><stop offset=".78" stop-color="#180502"/><stop offset=".91" stop-color="#060101"/><stop offset="1"/></radialGradient><radialGradient id="c" cx="0" cy="0" r="1" gradientTransform="matrix(25.8462 0 0 25.8461 9.481 33.564)" gradientUnits="userSpaceOnUse"><stop stop-color="#fff"/><stop offset="1" stop-color="#5E689E"/></radialGradient><radialGradient id="d" cx="0" cy="0" r="1" gradientTransform="translate(22.644 38.306) scale(21.0748)" gradientUnits="userSpaceOnUse"><stop stop-color="#FF4F51"/><stop offset="1" stop-color="#8F0000"/></radialGradient><radialGradient id="e" cx="0" cy="0" r="1" gradientTransform="translate(22.854 34.641) scale(26.938)" gradientUnits="userSpaceOnUse"><stop stop-color="#FF2B60"/><stop offset=".61" stop-color="#690000"/><stop offset=".89" stop-color="#CF0034"/></radialGradient><radialGradient id="f" cx="0" cy="0" r="1" gradientTransform="translate(24.095 41.013) scale(25.2927)" gradientUnits="userSpaceOnUse"><stop stop-color="#E71D73"/><stop offset="1"/></radialGradient><radialGradient id="g" cx="0" cy="0" r="1" gradientTransform="translate(18.8 41.925) scale(21.9722)" gradientUnits="userSpaceOnUse"><stop stop-color="#E71D73"/><stop offset="1"/></radialGradient><radialGradient id="h" cx="0" cy="0" r="1" gradientTransform="translate(25.681 30.947) scale(17.9637)" gradientUnits="userSpaceOnUse"><stop stop-color="#E71D73"/><stop offset="1"/></radialGradient><radialGradient id="i" cx="0" cy="0" r="1" gradientTransform="translate(21.372 32.502) scale(16.4979)" gradientUnits="userSpaceOnUse"><stop stop-color="#E71D73"/><stop offset="1"/></radialGradient><radialGradient id="j" cx="0" cy="0" r="1" gradientTransform="translate(26.055 18.592) scale(58.438)" gradientUnits="userSpaceOnUse"><stop stop-color="#94D4D3"/><stop offset="1" stop-color="#4566C4"/></radialGradient><radialGradient id="l" cx="0" cy="0" r="1" gradientTransform="translate(28.971 10.216) scale(17.3355)" gradientUnits="userSpaceOnUse"><stop stop-color="#fff"/><stop offset="1"/></radialGradient><radialGradient id="m" cx="0" cy="0" r="1" gradientTransform="translate(34.49 12.52) scale(9.31838)" gradientUnits="userSpaceOnUse"><stop stop-color="#fff"/><stop offset="1"/></radialGradient><radialGradient id="n" cx="0" cy="0" r="1" gradientTransform="translate(29.749 37.588) scale(25.0684)" gradientUnits="userSpaceOnUse"><stop offset=".37"/><stop offset="1" stop-color="#fff"/></radialGradient><radialGradient id="o" cx="0" cy="0" r="1" gradientTransform="translate(27.67 34.806) scale(25.6517)" gradientUnits="userSpaceOnUse"><stop/><stop offset="1" stop-color="#fff"/></radialGradient><radialGradient id="p" cx="0" cy="0" r="1" gradientTransform="translate(36.061 13.297) scale(6.70085)" gradientUnits="userSpaceOnUse"><stop stop-color="#fff"/><stop offset="1"/></radialGradient><radialGradient id="q" cx="0" cy="0" r="1" gradientTransform="translate(37.033 5.52) scale(20.5962)" gradientUnits="userSpaceOnUse"><stop stop-color="#CCF0EF"/><stop offset="1" stop-color="#364E82"/></radialGradient><radialGradient id="s" cx="0" cy="0" r="1" gradientTransform="translate(40.234 11.278) scale(8.03205)" gradientUnits="userSpaceOnUse"><stop/><stop offset="1" stop-color="#fff"/></radialGradient><radialGradient id="t" cx="0" cy="0" r="1" gradientTransform="translate(36.33 5.295) scale(24.0064)" gradientUnits="userSpaceOnUse"><stop stop-color="#F2FFFF"/><stop offset="1" stop-color="#6A79C2"/></radialGradient><radialGradient id="u" cx="0" cy="0" r="1" gradientTransform="translate(41.834 2.303) scale(10.0962)" gradientUnits="userSpaceOnUse"><stop stop-color="#CA9E67"/><stop offset="1"/></radialGradient><radialGradient id="v" cx="0" cy="0" r="1" gradientTransform="translate(42.073 .972) scale(7.37393)" gradientUnits="userSpaceOnUse"><stop stop-color="#CA9E67"/><stop offset="1"/></radialGradient><radialGradient id="y" cx="0" cy="0" r="1" gradientTransform="translate(42.806 -2.528) scale(10.859)" gradientUnits="userSpaceOnUse"><stop stop-color="#CA9E67"/><stop offset="1"/></radialGradient><radialGradient id="D" cx="0" cy="0" r="1" gradientTransform="translate(29.824 36.45) scale(17.7692)" gradientUnits="userSpaceOnUse"><stop stop-color="#E71D73"/><stop offset="1"/></radialGradient><linearGradient id="k" x1="40.354" x2="43.51" y1="19.519" y2="40.699" gradientUnits="userSpaceOnUse"><stop stop-color="#fff"/><stop offset="1"/></linearGradient><linearGradient id="r" x1="14.328" x2="27.64" y1="42.733" y2="50.69" gradientUnits="userSpaceOnUse"><stop stop-color="#fff"/><stop offset="1"/></linearGradient><linearGradient id="w" x1="42.897" x2="41.251" y1="8.451" y2="6.791" gradientUnits="userSpaceOnUse"><stop stop-color="#B07A38"/><stop offset="1" stop-color="#704824"/></linearGradient><linearGradient id="x" x1="47.324" x2="45.918" y1="9.842" y2="8.436" gradientUnits="userSpaceOnUse"><stop stop-color="#B07A38"/><stop offset="1" stop-color="#704824"/></linearGradient><linearGradient id="z" x1="42.941" x2="45.678" y1="1.81" y2="1.81" gradientUnits="userSpaceOnUse"><stop stop-color="#6B4E35"/><stop offset="1" stop-color="#87643A"/></linearGradient><linearGradient id="A" x1="44.96" x2="46.934" y1="4.637" y2="4.637" gradientUnits="userSpaceOnUse"><stop stop-color="#6B4E35"/><stop offset="1" stop-color="#87643A"/></linearGradient><linearGradient id="B" x1="47.474" x2="49.687" y1="5.699" y2="5.699" gradientUnits="userSpaceOnUse"><stop stop-color="#6B4E35"/><stop offset="1" stop-color="#87643A"/></linearGradient><linearGradient id="C" x1="43.809" x2="42.104" y1="4.442" y2="2.737" gradientUnits="userSpaceOnUse"><stop stop-color="#B07A38"/><stop offset="1" stop-color="#704824"/></linearGradient><clipPath id="a"><path fill="#fff" d="M.986 0h55.058v56H.986z"/></clipPath></defs></svg>