<svg xmlns="http://www.w3.org/2000/svg" width="50" height="56" fill="none"><g clip-path="url(#a)"><path fill="url(#b)" d="M49.689 28.956C51.898 15.347 42.657 2.524 29.048.316 15.439-1.895 2.616 7.346.407 20.955c-2.209 13.61 7.032 26.432 20.641 28.641 13.61 2.21 26.432-7.032 28.641-20.641Z" opacity=".5" style="mix-blend-mode:screen"/><path fill="url(#c)" fill-rule="evenodd" d="m25.043 50.013-13.432-7.76a4.016 4.016 0 0 0-1.915 2.33 1.943 1.943 0 0 0 0 .857c.075.324.222.626.429.886.185.181.418.305.672.357a1.3 1.3 0 0 0 0 .7c.127.465.34.9.628 1.286.266.322.61.568 1 .715a1.9 1.9 0 0 0 .386.729 7.144 7.144 0 0 0 1.887 1.429.843.843 0 0 0 .514 0c.07.165.183.308.329.414.657.43 1.382.749 2.143.943.273.057.556.057.829 0 .319.265.704.438 1.114.5.479.053.963.02 1.43-.1.227-.071.426-.21.57-.4.175.189.398.327.644.4.331.042.667.013.986-.085.277-.066.536-.193.757-.372a4.03 4.03 0 0 0 1.058-2.858l-.029.029Z" clip-rule="evenodd"/><path fill="url(#d)" fill-rule="evenodd" d="M16.912 48.584a10.76 10.76 0 0 1-5.215-5.559 2.372 2.372 0 0 1 0-1.6c.257-.629.928-1 1.314-1.572a2.429 2.429 0 0 0-.214-3.087c-.529-.614-2.43-.857-3.172-1.657a4.287 4.287 0 0 1-.844-4.115c.615-2.13 3.93-6.016 4.287-6.93.618-1.631.942-3.358.958-5.102a14.46 14.46 0 0 1 7.487-10.174 16.09 16.09 0 0 1 5.53-1.53 17.29 17.29 0 0 1 12.218 2.587 17.347 17.347 0 0 1 8.359 9.288 16.35 16.35 0 0 1 1.429 5.559 14.533 14.533 0 0 1-5.044 11.517 14.288 14.288 0 0 0-3.916 3.387c-.585.8-2.3 5.616-3.83 7.144a4.286 4.286 0 0 1-3.986 1.344c-1.057-.243-2.229-1.772-3.03-1.915a2.443 2.443 0 0 0-2.786 1.343c-.3.614-.271 1.429-.686 1.943-.375.411-.879.683-1.428.772a10.774 10.774 0 0 1-7.43-1.643Z" clip-rule="evenodd"/><path fill="url(#e)" fill-rule="evenodd" d="M25.514 25.535a6.702 6.702 0 0 0-2.1-2.1c-4.573-3.058-7.83-.886-8.574 3.443-.614 3.415 4.073 5.173 6.959 4.559 2.643-.5 5.344-3.116 3.715-5.96v.058Z" clip-rule="evenodd"/><path fill="url(#f)" fill-rule="evenodd" d="M32.531 29.579c1 .04 1.978.309 2.858.786 4.944 2.415 4.673 6.33 1.315 9.145-2.658 2.23-6.516-.957-7.488-3.715-.972-2.758 0-6.202 3.3-6.216h.015Z" clip-rule="evenodd"/><path fill="url(#g)" fill-rule="evenodd" d="M15.984 20.62c-.086.671.1 1.857.872 1.428a5.716 5.716 0 0 1 3.93-.614 9.332 9.332 0 0 1 5.715 4.43.914.914 0 0 0 1.729-.329c0-2.858-4.53-6.702-6.988-7.545-1.657-.557-4.886.472-5.2 2.572l-.058.057Z" clip-rule="evenodd" opacity=".5" style="mix-blend-mode:screen"/><path fill="url(#h)" fill-rule="evenodd" d="M41.519 35.38c-.515.415-1.658.843-1.6-.071a5.716 5.716 0 0 0-1.544-3.644 9.274 9.274 0 0 0-6.673-2.686.929.929 0 0 1-.572-1.672c2.43-1.429 8.074.572 10.003 2.286 1.329 1.158 2.043 4.473.371 5.787h.015Z" clip-rule="evenodd" opacity=".5" style="mix-blend-mode:screen"/><path fill="url(#i)" fill-rule="evenodd" d="M22.942 31.508a5.419 5.419 0 0 1-1.557.386 7.702 7.702 0 0 1-6.23-2.2 7.912 7.912 0 0 1-.729-1.23c-.7-.943-1.343.4-1.429 1.1a3.43 3.43 0 0 0 1.743 2.658 6.386 6.386 0 0 0 5.144 1.015 8.417 8.417 0 0 0 3.058-1.043c.615-.543.372-.858 0-.686Z" clip-rule="evenodd" opacity=".65" style="mix-blend-mode:multiply"/><path fill="url(#j)" fill-rule="evenodd" d="M28.658 34.837a5.6 5.6 0 0 0 .458 1.544 7.63 7.63 0 0 0 5.03 4.286c.475.044.953.044 1.428 0 1.158.13.33 1.358-.257 1.73a3.358 3.358 0 0 1-3.172-.186 6.302 6.302 0 0 1-3.487-3.901 8.018 8.018 0 0 1-.628-3.187c.157-.814.557-.743.614-.286h.014Z" clip-rule="evenodd" opacity=".65" style="mix-blend-mode:multiply"/><path fill="url(#k)" fill-rule="evenodd" d="m20.156 35.895 6.088 3.515a16.588 16.588 0 0 0 1.2-6.573c0-.515-.114-1.286-.572-1.543-.457-.258-1.157 0-1.629.271a16.803 16.803 0 0 0-5.087 4.287v.043Z" clip-rule="evenodd" style="mix-blend-mode:screen"/><path fill="url(#l)" fill-rule="evenodd" d="M24.786 34.537a2.402 2.402 0 0 0-.143-.771.686.686 0 0 0-.543-.329c-1.23-.186-2.687 1.1-3.415 1.858-.367.39-.706.806-1.015 1.243-.757 1.072-1.215 3 0 4.087.8.728 1.429 0 1.815-.572.214-.271.5-.7.643-.886.371-.486.557-.386.314.186-.085.214-.329.672-.443.986-.271.671-.614 1.529.415 1.872 1.529.5 2.972-.872 3.53-2.058.224-.486.415-.988.57-1.5.287-1.015.672-2.858-.1-3.887a.715.715 0 0 0-.557-.314c-.26.048-.512.14-.743.271a.257.257 0 0 1-.314-.186h-.014Z" clip-rule="evenodd"/><path fill="url(#m)" fill-rule="evenodd" d="M19.813 26.535c-2.244-.714-4.959-.386-5.001 1.43.414 2.714 4.415 4.057 6.987 3.572a5.843 5.843 0 0 0 2-.786 1.229 1.229 0 0 0 .2-1.8 10.274 10.274 0 0 0-4.186-2.373v-.043Z" clip-rule="evenodd" opacity=".5" style="mix-blend-mode:screen"/><path fill="url(#n)" fill-rule="evenodd" d="M34.517 35.037c1.744 1.572 2.858 4.087 1.3 5.016-2.557 1-5.715-1.786-6.587-4.287a5.93 5.93 0 0 1-.314-2.129 1.216 1.216 0 0 1 1.429-1.072 10.131 10.131 0 0 1 4.144 2.444l.028.028Z" clip-rule="evenodd" opacity=".5" style="mix-blend-mode:screen"/><path fill="url(#o)" fill-rule="evenodd" d="M14.683 37.881c.197-1.329.245-2.676.143-4.015 0-.229-.414-.529-.615-.386-.485.357-.671 1.172-1.1 1.7-.729.886-3.744.072-3.772-2.215a6.116 6.116 0 0 1 .443-2.429c1.143-2.858 2.386-3.272 4.287-5.244a3.115 3.115 0 0 0 .843-2.172c.085-.857 0-1.715.1-2.572a10.275 10.275 0 0 1 2.143-6.816A15.576 15.576 0 0 1 29.03 7.145c-.63 0-1.3 0-2 .157a16.09 16.09 0 0 0-5.517 1.486 14.46 14.46 0 0 0-7.444 10.131 14.76 14.76 0 0 1-.958 5.101c-.414.915-3.73 4.802-4.287 6.93a4.287 4.287 0 0 0 .844 4.116c.743.8 2.643 1.043 3.172 1.658a2.429 2.429 0 0 1 .1 3.086c-.386.572-1.058.943-1.315 1.572a2.372 2.372 0 0 0 0 1.6 7.93 7.93 0 0 0 2.172 3.273 5.388 5.388 0 0 1-1.643-4.159c.229-1 1.429-1.5 1.886-2.172.341-.634.56-1.327.643-2.043Z" clip-rule="evenodd" style="mix-blend-mode:multiply"/><path fill="url(#p)" fill-rule="evenodd" d="M27.23 45.14a17.688 17.688 0 0 1 3.386-2.115c.228-.1.671.086.643.329 0 .586-.672 1.172-.915 1.8-.4 1.072 1.8 3.273 3.801 2.158a6.258 6.258 0 0 0 1.915-1.586c1.858-2.4 1.658-3.715 2.415-6.33a3.144 3.144 0 0 1 1.429-1.83c.7-.5 1.429-.9 2.172-1.428a10.174 10.174 0 0 0 4.83-5.259 15.718 15.718 0 0 0-.186-13.617c.286.571.572 1.171.857 1.814a16.35 16.35 0 0 1 1.43 5.559 14.534 14.534 0 0 1-5.045 11.517 14.29 14.29 0 0 0-3.872 3.444c-.586.8-2.301 5.616-3.83 7.144a4.287 4.287 0 0 1-3.987 1.344c-1.057-.243-2.229-1.772-3.029-1.915a2.444 2.444 0 0 0-2.786 1.343c-.3.614-.272 1.429-.686 1.943-.376.411-.88.683-1.43.772a8.088 8.088 0 0 1-3.886-.186 5.4 5.4 0 0 0 4.43-.657c.757-.715.557-2.043.943-2.715a5.713 5.713 0 0 1 1.429-1.586l-.029.057Z" clip-rule="evenodd" style="mix-blend-mode:multiply"/><path fill="url(#q)" fill-rule="evenodd" d="M21.671 10.203c-4.172 2.586-2.043 5.372 1.358 7.144a40.58 40.58 0 0 0 18.276 5.63c6.944.443 5-6.659 1.429-9.688-6.345-5.373-13.418-7.873-21.049-3.144l-.014.058Z" clip-rule="evenodd" style="mix-blend-mode:screen"/><path fill="url(#r)" fill-rule="evenodd" d="M23.043 13.032c3.544 2.858 17.933 3.143 16.318-.957-.828-2.087-6.173-4.287-9.202-4.13-4.287.214-10.16 2.6-7.145 5.087h.029Z" clip-rule="evenodd" style="mix-blend-mode:screen"/><path fill="url(#s)" fill-rule="evenodd" d="M18.998 37.481c-.165.46-.271.941-.314 1.429-.021.37.037.74.171 1.086a5.245 5.245 0 0 0 4.43 2.572c.369-.063.72-.204 1.029-.414a5.348 5.348 0 0 0 1.129-1.015 2 2 0 0 1-.515.857c-.2.186-.486.286-.657.5-.172.215-.286.615-.514.858a1.6 1.6 0 0 1-1 .443 4.815 4.815 0 0 1-2.673-.729 4.673 4.673 0 0 1-2.015-1.929 1.429 1.429 0 0 1-.128-1.129c.085-.328.371-.557.471-.871.053-.275.09-.551.115-.83.076-.327.239-.628.471-.87v.042Z" clip-rule="evenodd" style="mix-blend-mode:multiply"/><path fill="url(#t)" fill-rule="evenodd" d="M24.372 51.442a2.115 2.115 0 0 1-.543 1.1 1.714 1.714 0 0 1-1.844.371.657.657 0 0 1-.314-.571c.01-.443.107-.88.286-1.286a.8.8 0 0 1 .228-.3 2.744 2.744 0 0 1 1.515-.472c.672 0 .757.672.672 1.158Z" clip-rule="evenodd" opacity=".5" style="mix-blend-mode:screen"/><path fill="url(#u)" fill-rule="evenodd" d="M21.27 50.384c.151.093.259.242.3.415.115.457.072 1.886-.4 2.229a2.4 2.4 0 0 1-2.072 0c-.285-.157-.443-.157-.443-.572.068-.799.371-1.56.872-2.186a.5.5 0 0 1 .271-.186c.23 0 .286.086.686.143.4.057.543 0 .758.157h.028Z" clip-rule="evenodd" opacity=".5" style="mix-blend-mode:screen"/><path fill="url(#v)" fill-rule="evenodd" d="M18.87 49.613a.571.571 0 0 1 .258.657c-.072.343-.2.657-.3.986a7.237 7.237 0 0 1-.486 1.243c-.229.357-.7.286-1.043.186a6.491 6.491 0 0 1-1.644-.8.715.715 0 0 1-.228-.315.328.328 0 0 1 0-.228c.275-.758.66-1.47 1.143-2.115a.729.729 0 0 1 .4-.315c.414-.1.614.215 1.429.515.17.053.337.115.5.186h-.029Z" clip-rule="evenodd" opacity=".5" style="mix-blend-mode:screen"/><path fill="url(#w)" fill-rule="evenodd" d="M10.596 43.525a1.972 1.972 0 0 0-.671 1.03 1.7 1.7 0 0 0 .6 1.771.671.671 0 0 0 .657 0c.368-.232.692-.527.957-.872a.943.943 0 0 0 .158-.371 2.772 2.772 0 0 0-.358-1.543c-.314-.586-.957-.315-1.343 0v-.015Z" clip-rule="evenodd" opacity=".5" style="mix-blend-mode:screen"/><path fill="url(#x)" fill-rule="evenodd" d="M13.112 45.726a.643.643 0 0 0-.515 0c-.443.129-1.657.886-1.729 1.429a2.443 2.443 0 0 0 .986 1.829c.3.157.472.243.758 0a4.13 4.13 0 0 0 1.428-1.858.444.444 0 0 0 0-.328c-.1-.2-.2-.2-.457-.53-.257-.328-.3-.442-.514-.57l.043.028Z" clip-rule="evenodd" opacity=".5" style="mix-blend-mode:screen"/><path fill="url(#y)" fill-rule="evenodd" d="M14.97 47.37a.543.543 0 0 0-.686.114c-.252.23-.486.478-.7.743-.31.32-.587.67-.83 1.043-.214.371.1.743.358 1 .454.409.964.75 1.515 1.014a.872.872 0 0 0 .385 0c.072 0 .129-.085.186-.142a8.93 8.93 0 0 0 1.258-2.058.715.715 0 0 0 0-.5c-.115-.415-.486-.429-1.13-.929a3.099 3.099 0 0 0-.414-.343l.058.057Z" clip-rule="evenodd" opacity=".5" style="mix-blend-mode:screen"/><path fill="url(#z)" fill-rule="evenodd" d="M22.814 50.956a1.515 1.515 0 0 1 .128 1.686.63.63 0 0 1-.243.3.7.7 0 0 1-.686-.1.743.743 0 0 1-.243-.629 1.9 1.9 0 0 1 .43-1.271.43.43 0 0 1 .628 0l-.014.014Z" clip-rule="evenodd" opacity=".5" style="mix-blend-mode:screen"/><path fill="url(#A)" fill-rule="evenodd" d="M20.4 50.784c.185.686.114 1.987-.572 2.344-.329.171-1.072-.2-1.1-.486a4.63 4.63 0 0 1 .542-1.858c.07-.137.162-.263.272-.371.357-.3.743 0 .857.371Z" clip-rule="evenodd" opacity=".5" style="mix-blend-mode:screen"/><path fill="url(#B)" fill-rule="evenodd" d="M13.311 46.469c-.185.643-.871 1.629-1.629 1.557-.371 0-.814-.728-.7-.971.38-.5.868-.906 1.43-1.186a1.3 1.3 0 0 1 .413-.143c.458 0 .658.357.543.743h-.057Z" clip-rule="evenodd" opacity=".5" style="mix-blend-mode:screen"/><path fill="url(#C)" fill-rule="evenodd" d="M18.113 49.498a5.515 5.515 0 0 1-1.058 2.858.443.443 0 0 1-.271 0c-.329 0-1.258-.514-1.3-.857a5.715 5.715 0 0 1 1.243-2.3.886.886 0 0 1 .3-.215c.257-.1 1.014.343 1.086.486v.028Z" clip-rule="evenodd" opacity=".5" style="mix-blend-mode:screen"/><path fill="url(#D)" fill-rule="evenodd" d="M14.711 47.383a5.559 5.559 0 0 0-1.957 2.101.429.429 0 0 0 .085.286c.172.286.915 1.086 1.23.957a5.83 5.83 0 0 0 1.428-2.186.903.903 0 0 0 0-.386c0-.271-.743-.786-.9-.772h.114Z" clip-rule="evenodd" opacity=".5" style="mix-blend-mode:screen"/><path fill="url(#E)" fill-rule="evenodd" d="M11.511 43.268a1.744 1.744 0 0 0-1.428 1.157.713.713 0 0 0 0 .415.615.615 0 0 0 .514.457.8.8 0 0 0 .657-.271c.384-.334.646-.787.743-1.286 0-.258-.128-.486-.4-.472h-.086Z" clip-rule="evenodd" opacity=".5" style="mix-blend-mode:screen"/><path fill="url(#F)" fill-rule="evenodd" d="M12.768 36.724c-.528-.615-2.429-.858-3.172-1.658a3.93 3.93 0 0 1-.8-1.429 8.574 8.574 0 0 0 .772 3.058c.16.344.372.663.628.943.7.757 2.444 1.029 3.072 1.572a2.43 2.43 0 0 0-.5-2.544v.058Z" clip-rule="evenodd"/><path fill="url(#G)" fill-rule="evenodd" d="M29.216 46.226a2.443 2.443 0 0 0-2.787 1.343c-.3.615-.271 1.43-.686 1.944-.196.227-.44.407-.714.528a3.901 3.901 0 0 1-1.043 2.73c-.221.179-.48.306-.758.371a2.343 2.343 0 0 1-.986.086 1.43 1.43 0 0 1-.643-.4 1.158 1.158 0 0 1-.571.4c-.467.119-.95.153-1.43.1a2.272 2.272 0 0 1-1.114-.5 2.016 2.016 0 0 1-.829 0 7.146 7.146 0 0 1-2.143-.943.987.987 0 0 1-.329-.415.843.843 0 0 1-.514 0 7.145 7.145 0 0 1-1.886-1.429 1.9 1.9 0 0 1-.386-.728 2.387 2.387 0 0 1-1-.715 3.86 3.86 0 0 1-.629-1.286 1.3 1.3 0 0 1 0-.7 1.343 1.343 0 0 1-.672-.357 2.242 2.242 0 0 1-.242-.53l.414 1.873c.013.14.042.28.086.414.067.328.208.636.414.9.188.178.42.302.672.358a1.259 1.259 0 0 0 0 .686c.124.465.338.902.628 1.286a2.3 2.3 0 0 0 1 .728c.08.266.211.514.386.73a6.79 6.79 0 0 0 1.887 1.428c.158.08.338.11.514.086.071.169.19.313.343.414.652.432 1.372.75 2.13.943.272.058.555.058.828 0a2.27 2.27 0 0 0 1.114.5c.479.053.963.02 1.43-.1.224-.076.422-.215.571-.4.176.184.398.317.643.386.33.054.668.03.986-.071.281-.062.542-.194.757-.386a3.872 3.872 0 0 0 1.043-2.715 1.8 1.8 0 0 0 .715-.543c.414-.529.4-1.315.7-1.93a2.414 2.414 0 0 1 2.772-1.428c.8.157 1.972 1.686 3.03 1.915a4.287 4.287 0 0 0 3.986-1.33c1.544-1.585 3.244-6.4 3.83-7.215a14.292 14.292 0 0 1 3.944-3.373 14.53 14.53 0 0 0 5.044-11.517 15.078 15.078 0 0 0-.7-3.63c0 .33 0 .658.1.987a14.534 14.534 0 0 1-5.044 11.517 14.29 14.29 0 0 0-3.987 3.358c-.586.8-2.3 5.616-3.83 7.145a4.287 4.287 0 0 1-3.986 1.343c-1.058-.243-2.23-1.772-3.03-1.915l-.028.057Z" clip-rule="evenodd"/><path fill="url(#H)" fill-rule="evenodd" d="M27.043 50.213a2.414 2.414 0 0 1 2.772-1.43c.284.082.547.223.772.415-.886-.743-1.172-2.558-.6-2.643a2.216 2.216 0 0 0-.772-.4 2.444 2.444 0 0 0-2.786 1.343c.786-.1 1.071 1.5.614 2.643v.072Z" clip-rule="evenodd" style="mix-blend-mode:multiply"/><path fill="url(#I)" fill-rule="evenodd" d="M32.703 48.212c.943.415 1.714 2.386.6 2.63a4.387 4.387 0 0 0 3.53-1.43c.745-.936 1.36-1.97 1.828-3.072-.5.7-1.057-1.3-.6-2.629a12.864 12.864 0 0 1-1.886 3.087 4.401 4.401 0 0 1-3.53 1.428l.058-.014Z" clip-rule="evenodd" opacity=".5" style="mix-blend-mode:screen"/><path fill="url(#J)" fill-rule="evenodd" d="M39.519 40.639c.714.271.928 1.929.6 2.643.155-.365.337-.718.543-1.057a14.29 14.29 0 0 1 3.944-3.372c.472-.367.912-.773 1.314-1.215-.614 0-.986-1.8-.6-2.63-.406.435-.846.836-1.315 1.201a14.291 14.291 0 0 0-3.915 3.387 7.83 7.83 0 0 0-.543 1.043h-.028Z" clip-rule="evenodd" style="mix-blend-mode:multiply"/><path fill="url(#K)" fill-rule="evenodd" d="m15.798 54.142-.614-2.7a.843.843 0 0 1-.514 0 7.144 7.144 0 0 1-1.887-1.43 1.9 1.9 0 0 1-.385-.728l.543 2.672c.079.266.21.513.385.729a6.786 6.786 0 0 0 1.886 1.429c.16.08.339.11.515.086l.071-.058Z" clip-rule="evenodd"/><path fill="url(#L)" fill-rule="evenodd" d="m15.184 51.442.614 2.7c.071.17.19.313.343.415.652.431 1.372.75 2.13.943.272.057.555.057.828 0l-.615-2.63a2.016 2.016 0 0 1-.828 0 7.147 7.147 0 0 1-2.144-.942.986.986 0 0 1-.328-.415v-.071Z" clip-rule="evenodd"/><path fill="url(#M)" fill-rule="evenodd" d="m18.484 52.87.6 2.644c.32.265.705.438 1.115.5.478.053.963.02 1.429-.1.224-.077.423-.215.572-.4l-.6-2.643a1.158 1.158 0 0 1-.572.4c-.466.119-.95.153-1.43.1a2.272 2.272 0 0 1-1.114-.5Z" clip-rule="evenodd"/><path fill="url(#N)" fill-rule="evenodd" d="m21.6 52.87.6 2.644c.176.184.398.317.643.386.33.054.667.03.986-.072.281-.06.542-.194.757-.385a3.872 3.872 0 0 0 1.043-2.715l-.6-2.715a3.901 3.901 0 0 1-1.043 2.729c-.221.18-.48.306-.757.372a2.343 2.343 0 0 1-.986.085 1.429 1.429 0 0 1-.643-.4v.072Z" clip-rule="evenodd"/><path fill="url(#O)" fill-rule="evenodd" d="m12.94 51.956-.6-2.644a2.386 2.386 0 0 1-1-.714 3.86 3.86 0 0 1-.63-1.286l.43 1.858.157.7v.071c.124.465.338.902.628 1.286.261.33.607.582 1 .73h.015Z" clip-rule="evenodd"/></g><defs><radialGradient id="b" cx="0" cy="0" r="1" gradientTransform="translate(25.052 24.964) scale(24.9635)" gradientUnits="userSpaceOnUse"><stop stop-color="#FCEA10"/><stop offset=".12" stop-color="#CDBF0D"/><stop offset=".3" stop-color="#908509"/><stop offset=".47" stop-color="#5C5606"/><stop offset=".63" stop-color="#343103"/><stop offset=".78" stop-color="#181601"/><stop offset=".91" stop-color="#060600"/><stop offset="1"/></radialGradient><radialGradient id="c" cx="0" cy="0" r="1" gradientTransform="translate(15.212 51.899) scale(9.14519)" gradientUnits="userSpaceOnUse"><stop stop-color="#B09972"/><stop offset="1" stop-color="#6E542F"/></radialGradient><radialGradient id="d" cx="0" cy="0" r="1" gradientTransform="translate(18.584 3.3) scale(54.7711)" gradientUnits="userSpaceOnUse"><stop stop-color="#FFEEB5"/><stop offset="1" stop-color="#A89271"/></radialGradient><radialGradient id="e" cx="0" cy="0" r="1" gradientTransform="translate(17.912 31.851) scale(10.3884)" gradientUnits="userSpaceOnUse"><stop stop-color="#4A3122"/><stop offset="1" stop-color="#291B12"/></radialGradient><radialGradient id="f" cx="0" cy="0" r="1" gradientTransform="translate(31.388 38.696) scale(10.1026)" gradientUnits="userSpaceOnUse"><stop stop-color="#4A3122"/><stop offset="1" stop-color="#291B12"/></radialGradient><radialGradient id="g" cx="0" cy="0" r="1" gradientTransform="translate(19.385 12.403) scale(16.4756)" gradientUnits="userSpaceOnUse"><stop stop-color="#FFDAB0"/><stop offset="1" stop-color="#000505"/></radialGradient><radialGradient id="h" cx="0" cy="0" r="1" gradientTransform="translate(34.374 17.033) scale(19.605)" gradientUnits="userSpaceOnUse"><stop stop-color="#FFDAB0"/><stop offset="1" stop-color="#000505"/></radialGradient><radialGradient id="i" cx="0" cy="0" r="1" gradientTransform="translate(22.342 23.549) scale(14.6037)" gradientUnits="userSpaceOnUse"><stop stop-color="#A8798D"/><stop offset=".54" stop-color="#D8C3CC"/><stop offset="1" stop-color="#fff"/></radialGradient><radialGradient id="j" cx="0" cy="0" r="1" gradientTransform="translate(32.674 32.008) scale(13.4892)" gradientUnits="userSpaceOnUse"><stop stop-color="#A8798D"/><stop offset=".54" stop-color="#D8C3CC"/><stop offset="1" stop-color="#fff"/></radialGradient><radialGradient id="k" cx="0" cy="0" r="1" gradientTransform="translate(23.243 38.31) scale(7.77341)" gradientUnits="userSpaceOnUse"><stop stop-color="#FFDAB0"/><stop offset="1" stop-color="#000505"/></radialGradient><radialGradient id="l" cx="0" cy="0" r="1" gradientTransform="translate(20.513 42.725) scale(10.4169)" gradientUnits="userSpaceOnUse"><stop stop-color="#4A3122"/><stop offset="1" stop-color="#261911"/></radialGradient><radialGradient id="m" cx="0" cy="0" r="1" gradientTransform="translate(17.67 36.51) scale(10.9171)" gradientUnits="userSpaceOnUse"><stop stop-color="#F39200"/><stop offset="1"/></radialGradient><radialGradient id="n" cx="0" cy="0" r="1" gradientTransform="translate(27.759 42.325) scale(11.3886)" gradientUnits="userSpaceOnUse"><stop stop-color="#F39200"/><stop offset="1"/></radialGradient><radialGradient id="o" cx="0" cy="0" r="1" gradientTransform="translate(37.303 27.864) scale(31.0508)" gradientUnits="userSpaceOnUse"><stop offset=".64" stop-color="#fff"/><stop offset=".81" stop-color="#D8C3CC"/><stop offset="1" stop-color="#A8798D"/></radialGradient><radialGradient id="p" cx="0" cy="0" r="1" gradientTransform="translate(19.013 12.103) scale(39.7959)" gradientUnits="userSpaceOnUse"><stop offset=".64" stop-color="#fff"/><stop offset=".81" stop-color="#D8C3CC"/><stop offset="1" stop-color="#A8798D"/></radialGradient><radialGradient id="q" cx="0" cy="0" r="1" gradientTransform="translate(30.96 1.843) scale(27.5213)" gradientUnits="userSpaceOnUse"><stop stop-color="#FFDAB0"/><stop offset="1" stop-color="#000505"/></radialGradient><radialGradient id="r" cx="0" cy="0" r="1" gradientTransform="translate(28.073 3.044) scale(23.5203)" gradientUnits="userSpaceOnUse"><stop stop-color="#FFDAB0"/><stop offset="1" stop-color="#000505"/></radialGradient><radialGradient id="s" cx="0" cy="0" r="1" gradientTransform="translate(21.585 40.053) scale(10.2455)" gradientUnits="userSpaceOnUse"><stop stop-color="#A8798D"/><stop offset=".19" stop-color="#D8C3CC"/><stop offset=".36" stop-color="#fff"/></radialGradient><radialGradient id="t" cx="0" cy="0" r="1" gradientTransform="translate(20.814 52.77) scale(4.47257)" gradientUnits="userSpaceOnUse"><stop stop-color="#FFDAB0"/><stop offset="1" stop-color="#000505"/></radialGradient><radialGradient id="u" cx="0" cy="0" r="1" gradientTransform="translate(17.855 51.242) scale(4.3011)" gradientUnits="userSpaceOnUse"><stop stop-color="#FFDAB0"/><stop offset="1" stop-color="#000505"/></radialGradient><radialGradient id="v" cx="0" cy="0" r="1" gradientTransform="translate(14.427 49.97) scale(5.52998)" gradientUnits="userSpaceOnUse"><stop stop-color="#FFDAB0"/><stop offset="1" stop-color="#000505"/></radialGradient><radialGradient id="w" cx="0" cy="0" r="1" gradientTransform="translate(8.953 42.768) scale(4.75836)" gradientUnits="userSpaceOnUse"><stop stop-color="#FFDAB0"/><stop offset="1" stop-color="#000505"/></radialGradient><radialGradient id="x" cx="0" cy="0" r="1" gradientTransform="translate(9.84 45.755) scale(4.88696)" gradientUnits="userSpaceOnUse"><stop stop-color="#FFDAB0"/><stop offset="1" stop-color="#000505"/></radialGradient><radialGradient id="y" cx="0" cy="0" r="1" gradientTransform="translate(11.997 47.712) scale(5.48711)" gradientUnits="userSpaceOnUse"><stop stop-color="#FFDAB0"/><stop offset="1" stop-color="#000505"/></radialGradient><radialGradient id="z" cx="0" cy="0" r="1" gradientTransform="matrix(3.24368 0 0 3.24369 20.542 53.156)" gradientUnits="userSpaceOnUse"><stop stop-color="#FFDAB0"/><stop offset="1" stop-color="#000505"/></radialGradient><radialGradient id="A" cx="0" cy="0" r="1" gradientTransform="translate(18.142 52.656) scale(3.2294)" gradientUnits="userSpaceOnUse"><stop stop-color="#FFDAB0"/><stop offset="1" stop-color="#000505"/></radialGradient><radialGradient id="B" cx="0" cy="0" r="1" gradientTransform="rotate(31.945 -76.207 41.56) scale(3.23488 3.00211)" gradientUnits="userSpaceOnUse"><stop stop-color="#FFDAB0"/><stop offset="1" stop-color="#000505"/></radialGradient><radialGradient id="C" cx="0" cy="0" r="1" gradientTransform="translate(14.726 51.585) scale(4.27252)" gradientUnits="userSpaceOnUse"><stop stop-color="#FFDAB0"/><stop offset="1" stop-color="#000505"/></radialGradient><radialGradient id="D" cx="0" cy="0" r="1" gradientTransform="translate(12.168 49.713) scale(3.72952)" gradientUnits="userSpaceOnUse"><stop stop-color="#FFDAB0"/><stop offset="1" stop-color="#000505"/></radialGradient><radialGradient id="E" cx="0" cy="0" r="1" gradientTransform="translate(10.04 42.74) scale(3.24368)" gradientUnits="userSpaceOnUse"><stop stop-color="#FFDAB0"/><stop offset="1" stop-color="#000505"/></radialGradient><radialGradient id="F" cx="0" cy="0" r="1" gradientTransform="translate(9.21 32.151) scale(7.58765)" gradientUnits="userSpaceOnUse"><stop stop-color="#96816A"/><stop offset="1" stop-color="#6B4C38"/></radialGradient><radialGradient id="G" cx="0" cy="0" r="1" gradientTransform="translate(20.713 22.391) scale(35.4805)" gradientUnits="userSpaceOnUse"><stop stop-color="#96816A"/><stop offset="1" stop-color="#6B4C38"/></radialGradient><radialGradient id="H" cx="0" cy="0" r="1" gradientTransform="translate(28.972 51.47) scale(6.77316)" gradientUnits="userSpaceOnUse"><stop stop-color="#A8798D"/><stop offset=".54" stop-color="#D8C3CC"/><stop offset="1" stop-color="#fff"/></radialGradient><radialGradient id="I" cx="0" cy="0" r="1" gradientTransform="translate(33.217 44.011) scale(8.0592)" gradientUnits="userSpaceOnUse"><stop stop-color="#FFDAB0"/><stop offset="1" stop-color="#000505"/></radialGradient><radialGradient id="J" cx="0" cy="0" r="1" gradientTransform="translate(43.305 41.896) scale(7.58765)" gradientUnits="userSpaceOnUse"><stop stop-color="#A8798D"/><stop offset=".54" stop-color="#D8C3CC"/><stop offset="1" stop-color="#fff"/></radialGradient><radialGradient id="K" cx="0" cy="0" r="1" gradientTransform="translate(14.355 49.455) scale(4.62975)" gradientUnits="userSpaceOnUse"><stop stop-color="#96816A"/><stop offset="1" stop-color="#6B4C38"/></radialGradient><radialGradient id="L" cx="0" cy="0" r="1" gradientTransform="translate(17.213 51.613) scale(4.72978)" gradientUnits="userSpaceOnUse"><stop stop-color="#96816A"/><stop offset="1" stop-color="#6B4C38"/></radialGradient><radialGradient id="M" cx="0" cy="0" r="1" gradientTransform="translate(19.885 52.328) scale(4.71549)" gradientUnits="userSpaceOnUse"><stop stop-color="#96816A"/><stop offset="1" stop-color="#6B4C38"/></radialGradient><radialGradient id="N" cx="0" cy="0" r="1" gradientTransform="translate(22.786 50.77) scale(5.80148)" gradientUnits="userSpaceOnUse"><stop stop-color="#96816A"/><stop offset="1" stop-color="#6B4C38"/></radialGradient><radialGradient id="O" cx="0" cy="0" r="1" gradientTransform="translate(11.768 47.998) scale(4.01531)" gradientUnits="userSpaceOnUse"><stop stop-color="#96816A"/><stop offset="1" stop-color="#6B4C38"/></radialGradient><clipPath id="a"><path fill="#fff" d="M.08 0h49.927v56H.08z"/></clipPath></defs></svg>