<svg xmlns="http://www.w3.org/2000/svg" width="29" height="32" fill="none"><g clip-path="url(#a)"><path fill="url(#b)" d="M28.348 16.546C29.61 8.77 24.33 1.442 16.553.18 8.777-1.082 1.45 4.2.187 11.975c-1.262 7.777 4.018 15.104 11.795 16.366 7.776 1.263 15.104-4.018 16.366-11.795Z" opacity=".5" style="mix-blend-mode:screen"/><path fill="url(#c)" fill-rule="evenodd" d="m14.265 28.579-7.676-4.434a2.294 2.294 0 0 0-1.094 1.331 1.11 1.11 0 0 0 0 .49c.043.185.127.358.245.506a.768.768 0 0 0 .384.204.743.743 0 0 0 0 .4c.073.266.195.515.36.735.15.184.348.325.57.409.043.153.118.295.221.416.312.33.676.606 1.078.817.096.03.198.03.294 0 .04.094.105.176.188.236.376.246.79.428 1.225.54.156.032.317.032.473 0 .182.15.403.25.637.285.273.03.55.01.817-.057.13-.041.243-.12.326-.229.1.108.227.187.368.229.189.024.38.007.563-.05.159-.036.306-.109.433-.212.407-.444.624-1.03.604-1.633l-.016.017Z" clip-rule="evenodd"/><path fill="url(#d)" fill-rule="evenodd" d="M9.618 27.762a6.149 6.149 0 0 1-2.98-3.176 1.355 1.355 0 0 1 0-.915c.147-.359.53-.571.751-.898a1.388 1.388 0 0 0-.122-1.764c-.302-.35-1.388-.49-1.813-.947a2.45 2.45 0 0 1-.482-2.351c.351-1.217 2.246-3.438 2.45-3.96a8.434 8.434 0 0 0 .547-2.916 8.263 8.263 0 0 1 4.279-5.813 9.195 9.195 0 0 1 3.16-.874 9.88 9.88 0 0 1 6.98 1.478 9.912 9.912 0 0 1 4.778 5.307 9.342 9.342 0 0 1 .816 3.177A8.304 8.304 0 0 1 25.1 20.69a8.163 8.163 0 0 0-2.238 1.935c-.334.457-1.314 3.21-2.188 4.083a2.45 2.45 0 0 1-2.278.767c-.604-.138-1.274-1.012-1.731-1.094a1.396 1.396 0 0 0-1.592.768c-.172.35-.155.816-.392 1.11-.215.235-.503.39-.817.441a6.157 6.157 0 0 1-4.246-.939Z" clip-rule="evenodd"/><path fill="url(#e)" fill-rule="evenodd" d="M14.534 14.591a3.831 3.831 0 0 0-1.2-1.2c-2.613-1.747-4.475-.506-4.9 1.968-.35 1.952 2.328 2.956 3.977 2.605 1.51-.286 3.054-1.78 2.123-3.405v.033Z" clip-rule="evenodd"/><path fill="url(#f)" fill-rule="evenodd" d="M18.544 16.902c.571.023 1.13.177 1.633.45 2.825 1.38 2.67 3.617.75 5.225-1.518 1.274-3.723-.547-4.278-2.123-.555-1.576 0-3.544 1.886-3.552h.009Z" clip-rule="evenodd"/><path fill="url(#g)" fill-rule="evenodd" d="M9.088 11.783c-.049.383.057 1.061.498.816a3.266 3.266 0 0 1 2.246-.351 5.332 5.332 0 0 1 3.266 2.531.522.522 0 0 0 .988-.188c0-1.633-2.589-3.83-3.993-4.31-.947-.32-2.793.269-2.972 1.469l-.033.033Z" clip-rule="evenodd" opacity=".5" style="mix-blend-mode:screen"/><path fill="url(#h)" fill-rule="evenodd" d="M23.68 20.218c-.294.236-.947.481-.915-.041a3.266 3.266 0 0 0-.881-2.082 5.3 5.3 0 0 0-3.814-1.536.53.53 0 0 1-.326-.955c1.388-.816 4.613.327 5.715 1.306.76.662 1.168 2.556.213 3.308h.008Z" clip-rule="evenodd" opacity=".5" style="mix-blend-mode:screen"/><path fill="url(#i)" fill-rule="evenodd" d="M13.064 18.005a3.093 3.093 0 0 1-.89.22 4.4 4.4 0 0 1-3.56-1.257 4.52 4.52 0 0 1-.417-.703c-.4-.539-.767.229-.816.63a1.96 1.96 0 0 0 .996 1.518 3.65 3.65 0 0 0 2.94.58 4.81 4.81 0 0 0 1.747-.596c.351-.31.212-.49 0-.392Z" clip-rule="evenodd" opacity=".65" style="mix-blend-mode:multiply"/><path fill="url(#j)" fill-rule="evenodd" d="M16.33 19.907a3.2 3.2 0 0 0 .262.882 4.36 4.36 0 0 0 2.874 2.45c.271.024.545.024.816 0 .662.073.188.775-.147.988a1.918 1.918 0 0 1-1.813-.107 3.6 3.6 0 0 1-1.992-2.229 4.581 4.581 0 0 1-.36-1.82c.09-.466.32-.425.352-.164h.008Z" clip-rule="evenodd" opacity=".65" style="mix-blend-mode:multiply"/><path fill="url(#k)" fill-rule="evenodd" d="m11.473 20.512 3.478 2.008a9.48 9.48 0 0 0 .686-3.756c0-.294-.065-.735-.327-.882-.26-.147-.661 0-.93.155a9.6 9.6 0 0 0-2.907 2.45v.025Z" clip-rule="evenodd" style="mix-blend-mode:screen"/><path fill="url(#l)" fill-rule="evenodd" d="M14.118 19.736c-.003-.15-.03-.3-.082-.441a.391.391 0 0 0-.31-.188c-.702-.106-1.535.629-1.952 1.061-.209.224-.402.461-.58.71-.432.613-.693 1.715 0 2.336.458.417.817 0 1.038-.326.122-.156.286-.4.367-.507.212-.277.319-.22.18.106-.05.123-.188.384-.253.564-.155.384-.351.873.236 1.07.874.285 1.699-.499 2.017-1.176.129-.278.238-.565.327-.858.163-.58.384-1.633-.057-2.22a.408.408 0 0 0-.319-.18c-.149.027-.293.08-.424.155a.147.147 0 0 1-.18-.106h-.008Z" clip-rule="evenodd"/><path fill="url(#m)" fill-rule="evenodd" d="M11.276 15.163c-1.282-.408-2.834-.22-2.858.817.237 1.551 2.523 2.319 3.993 2.04.405-.077.793-.23 1.143-.448a.703.703 0 0 0 .114-1.029 5.87 5.87 0 0 0-2.392-1.355v-.025Z" clip-rule="evenodd" opacity=".5" style="mix-blend-mode:screen"/><path fill="url(#n)" fill-rule="evenodd" d="M19.679 20.021c.996.899 1.633 2.336.743 2.866-1.462.572-3.267-1.02-3.765-2.45a3.387 3.387 0 0 1-.18-1.216.693.693 0 0 1 .817-.612 5.79 5.79 0 0 1 2.368 1.396l.017.016Z" clip-rule="evenodd" opacity=".5" style="mix-blend-mode:screen"/><path fill="url(#o)" fill-rule="evenodd" d="M8.344 21.646c.113-.759.14-1.529.082-2.294 0-.13-.237-.302-.351-.22-.278.204-.384.67-.629.971-.416.506-2.14.041-2.155-1.266-.011-.475.075-.947.253-1.388.653-1.633 1.363-1.87 2.45-2.996a1.78 1.78 0 0 0 .481-1.241c.05-.49 0-.98.057-1.47a5.87 5.87 0 0 1 1.225-3.895 8.9 8.9 0 0 1 6.785-3.764c-.359 0-.743 0-1.143.09a9.194 9.194 0 0 0-3.151.849 8.263 8.263 0 0 0-4.255 5.789 8.434 8.434 0 0 1-.547 2.915c-.237.523-2.13 2.744-2.45 3.96a2.45 2.45 0 0 0 .482 2.352c.425.457 1.511.596 1.813.947a1.388 1.388 0 0 1 .057 1.764c-.22.326-.604.539-.75.898a1.356 1.356 0 0 0 0 .915c.25.717.676 1.36 1.24 1.87a3.078 3.078 0 0 1-.939-2.377c.13-.571.817-.857 1.078-1.24.195-.364.32-.76.367-1.169Z" clip-rule="evenodd" style="mix-blend-mode:multiply"/><path fill="url(#p)" fill-rule="evenodd" d="M15.514 25.794c.597-.474 1.247-.88 1.935-1.208.13-.057.384.049.368.188 0 .334-.384.67-.523 1.028-.229.613 1.029 1.87 2.172 1.233a3.576 3.576 0 0 0 1.094-.906c1.062-1.372.947-2.123 1.38-3.617.129-.44.421-.814.817-1.045.4-.286.816-.515 1.24-.817a5.813 5.813 0 0 0 2.76-3.005 8.98 8.98 0 0 0-.106-7.781c.164.326.327.67.49 1.037a9.339 9.339 0 0 1 .817 3.176 8.304 8.304 0 0 1-2.882 6.581 8.166 8.166 0 0 0-2.213 1.968c-.335.457-1.315 3.21-2.189 4.083a2.45 2.45 0 0 1-2.278.767c-.604-.138-1.274-1.012-1.73-1.094a1.396 1.396 0 0 0-1.593.768c-.171.35-.155.816-.392 1.11-.215.235-.502.39-.816.441-.738.146-1.5.11-2.221-.106a3.087 3.087 0 0 0 2.53-.375c.434-.409.32-1.168.54-1.552.213-.35.49-.658.816-.906l-.016.032Z" clip-rule="evenodd" style="mix-blend-mode:multiply"/><path fill="url(#q)" fill-rule="evenodd" d="M12.338 5.83c-2.385 1.478-1.168 3.07.775 4.083a23.19 23.19 0 0 0 10.444 3.217c3.968.253 2.858-3.805.816-5.536-3.625-3.07-7.667-4.5-12.027-1.797l-.008.033Z" clip-rule="evenodd" style="mix-blend-mode:screen"/><path fill="url(#r)" fill-rule="evenodd" d="M13.121 7.447C15.146 9.08 23.37 9.243 22.446 6.9c-.474-1.192-3.527-2.45-5.258-2.36-2.45.122-5.806 1.486-4.083 2.907h.016Z" clip-rule="evenodd" style="mix-blend-mode:screen"/><path fill="url(#s)" fill-rule="evenodd" d="M10.81 21.418a3.265 3.265 0 0 0-.18.816c-.011.212.022.423.099.62a2.997 2.997 0 0 0 2.531 1.47c.21-.035.411-.116.588-.236.241-.162.459-.357.645-.58a1.144 1.144 0 0 1-.294.49c-.114.106-.277.163-.376.286-.098.122-.163.351-.293.49a.915.915 0 0 1-.572.253 2.752 2.752 0 0 1-1.527-.417 2.67 2.67 0 0 1-1.151-1.102.817.817 0 0 1-.074-.645c.05-.188.213-.318.27-.498.03-.157.051-.315.065-.474a1.07 1.07 0 0 1 .27-.498v.025Z" clip-rule="evenodd" style="mix-blend-mode:multiply"/><path fill="url(#t)" fill-rule="evenodd" d="M13.881 29.395a1.208 1.208 0 0 1-.31.629.979.979 0 0 1-1.053.212.376.376 0 0 1-.18-.326c.006-.254.061-.503.163-.735a.459.459 0 0 1 .13-.172c.257-.173.558-.267.866-.27.384 0 .433.385.384.662Z" clip-rule="evenodd" opacity=".5" style="mix-blend-mode:screen"/><path fill="url(#u)" fill-rule="evenodd" d="M12.11 28.791a.384.384 0 0 1 .171.237c.065.261.04 1.078-.229 1.274a1.372 1.372 0 0 1-1.184 0c-.163-.09-.253-.09-.253-.327.039-.457.212-.891.498-1.25a.286.286 0 0 1 .155-.105c.131 0 .164.049.392.081.229.033.31 0 .433.09h.017Z" clip-rule="evenodd" opacity=".5" style="mix-blend-mode:screen"/><path fill="url(#v)" fill-rule="evenodd" d="M10.737 28.35a.327.327 0 0 1 .147.376c-.04.196-.114.375-.171.563-.07.245-.163.483-.278.71-.13.205-.4.164-.596.107a3.708 3.708 0 0 1-.939-.458.408.408 0 0 1-.13-.18.188.188 0 0 1 0-.13c.157-.433.377-.84.653-1.208a.417.417 0 0 1 .228-.18c.237-.057.351.123.817.294.097.03.192.066.286.106h-.017Z" clip-rule="evenodd" opacity=".5" style="mix-blend-mode:screen"/><path fill="url(#w)" fill-rule="evenodd" d="M6.01 24.872c-.188.15-.323.356-.385.588a.972.972 0 0 0 .343 1.012.384.384 0 0 0 .376 0c.21-.133.395-.301.547-.498a.54.54 0 0 0 .09-.212 1.584 1.584 0 0 0-.204-.882c-.18-.335-.547-.18-.768 0v-.008Z" clip-rule="evenodd" opacity=".5" style="mix-blend-mode:screen"/><path fill="url(#x)" fill-rule="evenodd" d="M7.447 26.13a.368.368 0 0 0-.294 0c-.253.073-.947.505-.988.816a1.397 1.397 0 0 0 .563 1.045c.172.09.27.139.433 0a2.36 2.36 0 0 0 .817-1.062.253.253 0 0 0 0-.187c-.057-.115-.115-.115-.262-.303-.147-.187-.171-.253-.293-.326l.024.016Z" clip-rule="evenodd" opacity=".5" style="mix-blend-mode:screen"/><path fill="url(#y)" fill-rule="evenodd" d="M8.508 27.068a.31.31 0 0 0-.392.066 3.959 3.959 0 0 0-.4.424 3.986 3.986 0 0 0-.473.596c-.123.212.057.425.204.572.26.233.55.429.865.58a.5.5 0 0 0 .22 0c.042 0 .074-.05.107-.082.292-.358.533-.753.719-1.176a.408.408 0 0 0 0-.286c-.066-.237-.278-.245-.645-.53a1.765 1.765 0 0 0-.237-.197l.032.033Z" clip-rule="evenodd" opacity=".5" style="mix-blend-mode:screen"/><path fill="url(#z)" fill-rule="evenodd" d="M12.99 29.118a.866.866 0 0 1 .074.963.36.36 0 0 1-.139.172.4.4 0 0 1-.391-.058.424.424 0 0 1-.14-.359c-.009-.264.078-.522.246-.726a.245.245 0 0 1 .359 0l-.008.008Z" clip-rule="evenodd" opacity=".5" style="mix-blend-mode:screen"/><path fill="url(#A)" fill-rule="evenodd" d="M11.61 29.02c.107.392.066 1.135-.326 1.339-.188.098-.612-.115-.629-.278.028-.372.134-.733.31-1.061a.82.82 0 0 1 .156-.213c.204-.171.424 0 .49.213Z" clip-rule="evenodd" opacity=".5" style="mix-blend-mode:screen"/><path fill="url(#B)" fill-rule="evenodd" d="M7.561 26.554c-.106.367-.498.93-.93.89-.213 0-.466-.417-.4-.555.216-.286.495-.518.816-.678a.743.743 0 0 1 .237-.082c.26 0 .375.204.31.425H7.56Z" clip-rule="evenodd" opacity=".5" style="mix-blend-mode:screen"/><path fill="url(#C)" fill-rule="evenodd" d="M10.304 28.285a3.152 3.152 0 0 1-.604 1.633.254.254 0 0 1-.155 0c-.188 0-.719-.294-.743-.49.132-.487.375-.937.71-1.315a.505.505 0 0 1 .172-.122c.147-.057.58.196.62.277v.017Z" clip-rule="evenodd" opacity=".5" style="mix-blend-mode:screen"/><path fill="url(#D)" fill-rule="evenodd" d="M8.361 27.076c-.471.296-.857.71-1.118 1.2a.245.245 0 0 0 .049.164c.098.163.522.62.702.547a3.33 3.33 0 0 0 .816-1.25.514.514 0 0 0 0-.22c0-.155-.424-.449-.514-.44h.065Z" clip-rule="evenodd" opacity=".5" style="mix-blend-mode:screen"/><path fill="url(#E)" fill-rule="evenodd" d="M6.532 24.725a.996.996 0 0 0-.816.661.408.408 0 0 0 0 .237.351.351 0 0 0 .294.261.457.457 0 0 0 .375-.155c.22-.19.37-.45.425-.735 0-.147-.074-.277-.229-.27h-.049Z" clip-rule="evenodd" opacity=".5" style="mix-blend-mode:screen"/><path fill="url(#F)" fill-rule="evenodd" d="M7.25 20.985c-.302-.351-1.388-.49-1.812-.947a2.245 2.245 0 0 1-.458-.817 4.9 4.9 0 0 0 .441 1.748c.092.197.213.378.36.539.4.432 1.396.588 1.755.898a1.388 1.388 0 0 0-.286-1.454v.033Z" clip-rule="evenodd"/><path fill="url(#G)" fill-rule="evenodd" d="M16.649 26.415a1.397 1.397 0 0 0-1.592.768c-.172.35-.155.816-.392 1.11a1.16 1.16 0 0 1-.408.302 2.23 2.23 0 0 1-.596 1.56 1.077 1.077 0 0 1-.433.212 1.338 1.338 0 0 1-.564.049.816.816 0 0 1-.367-.229.661.661 0 0 1-.327.229 2.288 2.288 0 0 1-.816.057 1.299 1.299 0 0 1-.637-.286 1.152 1.152 0 0 1-.474 0 4.083 4.083 0 0 1-1.225-.539.564.564 0 0 1-.187-.236.482.482 0 0 1-.294 0 4.085 4.085 0 0 1-1.078-.817 1.087 1.087 0 0 1-.22-.416 1.363 1.363 0 0 1-.572-.409 2.205 2.205 0 0 1-.36-.734.743.743 0 0 1 0-.4.768.768 0 0 1-.383-.205 1.28 1.28 0 0 1-.139-.302l.237 1.07c.007.08.024.16.049.237.038.187.119.363.237.514.107.102.24.172.383.204a.719.719 0 0 0 0 .392c.072.266.194.516.36.735.149.189.346.332.571.417.046.151.12.293.22.416.31.333.674.61 1.078.816.091.046.194.064.294.05a.53.53 0 0 0 .196.236c.373.247.784.429 1.217.54.156.032.317.032.474 0 .182.15.402.25.636.285.274.03.55.01.817-.057a.718.718 0 0 0 .327-.229c.1.105.227.181.367.22.188.032.382.018.563-.04.161-.035.31-.111.433-.22.393-.42.607-.977.596-1.552.16-.067.3-.174.409-.31.236-.303.228-.752.4-1.103a1.38 1.38 0 0 1 1.584-.816c.457.09 1.127.963 1.73 1.094a2.449 2.449 0 0 0 2.279-.76c.882-.906 1.853-3.658 2.188-4.123a8.165 8.165 0 0 1 2.254-1.927 8.304 8.304 0 0 0 2.882-6.581 8.617 8.617 0 0 0-.4-2.074c0 .188 0 .375.057.563a8.305 8.305 0 0 1-2.882 6.581 8.167 8.167 0 0 0-2.278 1.92c-.335.457-1.315 3.208-2.189 4.082a2.45 2.45 0 0 1-2.278.768c-.604-.14-1.273-1.013-1.73-1.095l-.017.033Z" clip-rule="evenodd"/><path fill="url(#H)" fill-rule="evenodd" d="M15.408 28.693a1.38 1.38 0 0 1 1.584-.817c.162.047.313.128.44.237-.505-.424-.669-1.461-.342-1.51a1.265 1.265 0 0 0-.441-.229 1.396 1.396 0 0 0-1.592.768c.449-.058.612.857.35 1.51v.041Z" clip-rule="evenodd" style="mix-blend-mode:multiply"/><path fill="url(#I)" fill-rule="evenodd" d="M18.641 27.55c.539.237.98 1.363.343 1.502a2.507 2.507 0 0 0 2.017-.816 7.585 7.585 0 0 0 1.045-1.756c-.286.4-.604-.743-.343-1.502a7.35 7.35 0 0 1-1.078 1.763 2.515 2.515 0 0 1-2.017.817l.033-.008Z" clip-rule="evenodd" opacity=".5" style="mix-blend-mode:screen"/><path fill="url(#J)" fill-rule="evenodd" d="M22.536 23.222c.408.155.53 1.103.343 1.51.089-.208.193-.41.31-.603a8.165 8.165 0 0 1 2.254-1.927c.27-.21.521-.442.751-.694-.35 0-.563-1.03-.343-1.503a6.533 6.533 0 0 1-.75.686 8.167 8.167 0 0 0-2.238 1.935 4.47 4.47 0 0 0-.31.596h-.017Z" clip-rule="evenodd" style="mix-blend-mode:multiply"/><path fill="url(#K)" fill-rule="evenodd" d="m8.981 30.939-.35-1.544a.482.482 0 0 1-.295 0 4.083 4.083 0 0 1-1.077-.816 1.086 1.086 0 0 1-.22-.417l.31 1.527c.045.152.12.294.22.417.309.333.673.61 1.078.816.09.046.193.063.294.05l.04-.033Z" clip-rule="evenodd"/><path fill="url(#L)" fill-rule="evenodd" d="m8.63 29.395.352 1.544c.04.096.109.178.196.236.372.247.784.429 1.217.54.156.032.317.032.473 0l-.35-1.503a1.152 1.152 0 0 1-.475 0 4.083 4.083 0 0 1-1.224-.54.563.563 0 0 1-.188-.236v-.04Z" clip-rule="evenodd"/><path fill="url(#M)" fill-rule="evenodd" d="m10.517 30.212.343 1.51a1.3 1.3 0 0 0 .636.286c.274.03.55.011.817-.057a.719.719 0 0 0 .327-.229l-.343-1.51a.66.66 0 0 1-.327.228 2.287 2.287 0 0 1-.817.058 1.3 1.3 0 0 1-.636-.286Z" clip-rule="evenodd"/><path fill="url(#N)" fill-rule="evenodd" d="m12.297 30.212.343 1.51c.1.105.227.181.367.22.189.032.382.018.564-.04.16-.035.31-.11.432-.22.393-.42.607-.977.597-1.552l-.343-1.551a2.23 2.23 0 0 1-.596 1.56 1.078 1.078 0 0 1-.433.212 1.338 1.338 0 0 1-.564.049.817.817 0 0 1-.367-.229v.04Z" clip-rule="evenodd"/><path fill="url(#O)" fill-rule="evenodd" d="m7.349 29.69-.343-1.511a1.364 1.364 0 0 1-.572-.409 2.204 2.204 0 0 1-.359-.735l.245 1.062.09.4v.04c.071.267.193.516.36.736.148.188.346.332.57.416h.009Z" clip-rule="evenodd"/></g><defs><radialGradient id="b" cx="0" cy="0" r="1" gradientTransform="translate(14.27 14.265) scale(14.2649)" gradientUnits="userSpaceOnUse"><stop stop-color="#FCEA10"/><stop offset=".12" stop-color="#CDBF0D"/><stop offset=".3" stop-color="#908509"/><stop offset=".47" stop-color="#5C5606"/><stop offset=".63" stop-color="#343103"/><stop offset=".78" stop-color="#181601"/><stop offset=".91" stop-color="#060600"/><stop offset="1"/></radialGradient><radialGradient id="c" cx="0" cy="0" r="1" gradientTransform="translate(8.647 29.657) scale(5.22582)" gradientUnits="userSpaceOnUse"><stop stop-color="#B09972"/><stop offset="1" stop-color="#6E542F"/></radialGradient><radialGradient id="d" cx="0" cy="0" r="1" gradientTransform="translate(10.574 1.886) scale(31.2978)" gradientUnits="userSpaceOnUse"><stop stop-color="#FFEEB5"/><stop offset="1" stop-color="#A89271"/></radialGradient><radialGradient id="e" cx="0" cy="0" r="1" gradientTransform="translate(10.19 18.2) scale(5.93621)" gradientUnits="userSpaceOnUse"><stop stop-color="#4A3122"/><stop offset="1" stop-color="#291B12"/></radialGradient><radialGradient id="f" cx="0" cy="0" r="1" gradientTransform="translate(17.89 22.112) scale(5.7729)" gradientUnits="userSpaceOnUse"><stop stop-color="#4A3122"/><stop offset="1" stop-color="#291B12"/></radialGradient><radialGradient id="g" cx="0" cy="0" r="1" gradientTransform="translate(11.031 7.088) scale(9.41465)" gradientUnits="userSpaceOnUse"><stop stop-color="#FFDAB0"/><stop offset="1" stop-color="#000505"/></radialGradient><radialGradient id="h" cx="0" cy="0" r="1" gradientTransform="translate(19.597 9.733) scale(11.2029)" gradientUnits="userSpaceOnUse"><stop stop-color="#FFDAB0"/><stop offset="1" stop-color="#000505"/></radialGradient><radialGradient id="i" cx="0" cy="0" r="1" gradientTransform="translate(12.721 13.457) scale(8.34499)" gradientUnits="userSpaceOnUse"><stop stop-color="#A8798D"/><stop offset=".54" stop-color="#D8C3CC"/><stop offset="1" stop-color="#fff"/></radialGradient><radialGradient id="j" cx="0" cy="0" r="1" gradientTransform="translate(18.625 18.29) scale(7.70809)" gradientUnits="userSpaceOnUse"><stop stop-color="#A8798D"/><stop offset=".54" stop-color="#D8C3CC"/><stop offset="1" stop-color="#fff"/></radialGradient><radialGradient id="k" cx="0" cy="0" r="1" gradientTransform="translate(13.236 21.891) scale(4.44195)" gradientUnits="userSpaceOnUse"><stop stop-color="#FFDAB0"/><stop offset="1" stop-color="#000505"/></radialGradient><radialGradient id="l" cx="0" cy="0" r="1" gradientTransform="translate(11.676 24.414) scale(5.95254)" gradientUnits="userSpaceOnUse"><stop stop-color="#4A3122"/><stop offset="1" stop-color="#261911"/></radialGradient><radialGradient id="m" cx="0" cy="0" r="1" gradientTransform="translate(10.051 20.863) scale(6.23833)" gradientUnits="userSpaceOnUse"><stop stop-color="#F39200"/><stop offset="1"/></radialGradient><radialGradient id="n" cx="0" cy="0" r="1" gradientTransform="translate(15.816 24.186) scale(6.50778)" gradientUnits="userSpaceOnUse"><stop stop-color="#F39200"/><stop offset="1"/></radialGradient><radialGradient id="o" cx="0" cy="0" r="1" gradientTransform="translate(21.27 15.922) scale(17.7433)" gradientUnits="userSpaceOnUse"><stop offset=".64" stop-color="#fff"/><stop offset=".81" stop-color="#D8C3CC"/><stop offset="1" stop-color="#A8798D"/></radialGradient><radialGradient id="p" cx="0" cy="0" r="1" gradientTransform="translate(10.819 6.916) scale(22.7405)" gradientUnits="userSpaceOnUse"><stop offset=".64" stop-color="#fff"/><stop offset=".81" stop-color="#D8C3CC"/><stop offset="1" stop-color="#A8798D"/></radialGradient><radialGradient id="q" cx="0" cy="0" r="1" gradientTransform="translate(17.645 1.053) scale(15.7265)" gradientUnits="userSpaceOnUse"><stop stop-color="#FFDAB0"/><stop offset="1" stop-color="#000505"/></radialGradient><radialGradient id="r" cx="0" cy="0" r="1" gradientTransform="translate(15.995 1.74) scale(13.4402)" gradientUnits="userSpaceOnUse"><stop stop-color="#FFDAB0"/><stop offset="1" stop-color="#000505"/></radialGradient><radialGradient id="s" cx="0" cy="0" r="1" gradientTransform="translate(12.288 22.888) scale(5.85455)" gradientUnits="userSpaceOnUse"><stop stop-color="#A8798D"/><stop offset=".19" stop-color="#D8C3CC"/><stop offset=".36" stop-color="#fff"/></radialGradient><radialGradient id="t" cx="0" cy="0" r="1" gradientTransform="translate(11.848 30.155) scale(2.55575)" gradientUnits="userSpaceOnUse"><stop stop-color="#FFDAB0"/><stop offset="1" stop-color="#000505"/></radialGradient><radialGradient id="u" cx="0" cy="0" r="1" gradientTransform="translate(10.158 29.281) scale(2.45777)" gradientUnits="userSpaceOnUse"><stop stop-color="#FFDAB0"/><stop offset="1" stop-color="#000505"/></radialGradient><radialGradient id="v" cx="0" cy="0" r="1" gradientTransform="translate(8.198 28.554) scale(3.15999)" gradientUnits="userSpaceOnUse"><stop stop-color="#FFDAB0"/><stop offset="1" stop-color="#000505"/></radialGradient><radialGradient id="w" cx="0" cy="0" r="1" gradientTransform="translate(5.07 24.439) scale(2.71906)" gradientUnits="userSpaceOnUse"><stop stop-color="#FFDAB0"/><stop offset="1" stop-color="#000505"/></radialGradient><radialGradient id="x" cx="0" cy="0" r="1" gradientTransform="translate(5.577 26.145) scale(2.79255)" gradientUnits="userSpaceOnUse"><stop stop-color="#FFDAB0"/><stop offset="1" stop-color="#000505"/></radialGradient><radialGradient id="y" cx="0" cy="0" r="1" gradientTransform="translate(6.81 27.264) scale(3.13549)" gradientUnits="userSpaceOnUse"><stop stop-color="#FFDAB0"/><stop offset="1" stop-color="#000505"/></radialGradient><radialGradient id="z" cx="0" cy="0" r="1" gradientTransform="matrix(1.85353 0 0 1.85354 11.693 30.375)" gradientUnits="userSpaceOnUse"><stop stop-color="#FFDAB0"/><stop offset="1" stop-color="#000505"/></radialGradient><radialGradient id="A" cx="0" cy="0" r="1" gradientTransform="translate(10.32 30.09) scale(1.84537)" gradientUnits="userSpaceOnUse"><stop stop-color="#FFDAB0"/><stop offset="1" stop-color="#000505"/></radialGradient><radialGradient id="B" cx="0" cy="0" r="1" gradientTransform="rotate(31.945 -43.57 23.67) scale(1.8485 1.71549)" gradientUnits="userSpaceOnUse"><stop stop-color="#FFDAB0"/><stop offset="1" stop-color="#000505"/></radialGradient><radialGradient id="C" cx="0" cy="0" r="1" gradientTransform="translate(8.369 29.477) scale(2.44144)" gradientUnits="userSpaceOnUse"><stop stop-color="#FFDAB0"/><stop offset="1" stop-color="#000505"/></radialGradient><radialGradient id="D" cx="0" cy="0" r="1" gradientTransform="translate(6.908 28.407) scale(2.13116)" gradientUnits="userSpaceOnUse"><stop stop-color="#FFDAB0"/><stop offset="1" stop-color="#000505"/></radialGradient><radialGradient id="E" cx="0" cy="0" r="1" gradientTransform="translate(5.691 24.423) scale(1.85353)" gradientUnits="userSpaceOnUse"><stop stop-color="#FFDAB0"/><stop offset="1" stop-color="#000505"/></radialGradient><radialGradient id="F" cx="0" cy="0" r="1" gradientTransform="translate(5.217 18.372) scale(4.3358)" gradientUnits="userSpaceOnUse"><stop stop-color="#96816A"/><stop offset="1" stop-color="#6B4C38"/></radialGradient><radialGradient id="G" cx="0" cy="0" r="1" gradientTransform="translate(11.79 12.795) scale(20.2746)" gradientUnits="userSpaceOnUse"><stop stop-color="#96816A"/><stop offset="1" stop-color="#6B4C38"/></radialGradient><radialGradient id="H" cx="0" cy="0" r="1" gradientTransform="translate(16.51 29.412) scale(3.87038)" gradientUnits="userSpaceOnUse"><stop stop-color="#A8798D"/><stop offset=".54" stop-color="#D8C3CC"/><stop offset="1" stop-color="#fff"/></radialGradient><radialGradient id="I" cx="0" cy="0" r="1" gradientTransform="translate(18.935 25.15) scale(4.60526)" gradientUnits="userSpaceOnUse"><stop stop-color="#FFDAB0"/><stop offset="1" stop-color="#000505"/></radialGradient><radialGradient id="J" cx="0" cy="0" r="1" gradientTransform="translate(24.7 23.94) scale(4.3358)" gradientUnits="userSpaceOnUse"><stop stop-color="#A8798D"/><stop offset=".54" stop-color="#D8C3CC"/><stop offset="1" stop-color="#fff"/></radialGradient><radialGradient id="K" cx="0" cy="0" r="1" gradientTransform="translate(8.157 28.26) scale(2.64557)" gradientUnits="userSpaceOnUse"><stop stop-color="#96816A"/><stop offset="1" stop-color="#6B4C38"/></radialGradient><radialGradient id="L" cx="0" cy="0" r="1" gradientTransform="translate(9.79 29.493) scale(2.70273)" gradientUnits="userSpaceOnUse"><stop stop-color="#96816A"/><stop offset="1" stop-color="#6B4C38"/></radialGradient><radialGradient id="M" cx="0" cy="0" r="1" gradientTransform="matrix(2.69456 0 0 2.69457 11.317 29.901)" gradientUnits="userSpaceOnUse"><stop stop-color="#96816A"/><stop offset="1" stop-color="#6B4C38"/></radialGradient><radialGradient id="N" cx="0" cy="0" r="1" gradientTransform="translate(12.975 29.012) scale(3.31513)" gradientUnits="userSpaceOnUse"><stop stop-color="#96816A"/><stop offset="1" stop-color="#6B4C38"/></radialGradient><radialGradient id="O" cx="0" cy="0" r="1" gradientTransform="translate(6.68 27.427) scale(2.29446)" gradientUnits="userSpaceOnUse"><stop stop-color="#96816A"/><stop offset="1" stop-color="#6B4C38"/></radialGradient><clipPath id="a"><path fill="#fff" d="M0 0h28.53v32H0z"/></clipPath></defs></svg>