<svg xmlns="http://www.w3.org/2000/svg" width="31" height="32" fill="none"><g clip-path="url(#a)"><path fill="url(#b)" d="M30.641 19.292c1.876-8.356-3.377-16.65-11.733-18.526C10.55-1.11 2.256 4.143.38 12.499c-1.876 8.356 3.377 16.651 11.733 18.527 8.357 1.876 16.651-3.378 18.527-11.734Z" opacity=".5" style="mix-blend-mode:screen"/><path fill="url(#c)" fill-rule="evenodd" d="M18.876 9.067a11.488 11.488 0 1 1 0 22.977 11.488 11.488 0 0 1 0-22.977Z" clip-rule="evenodd"/><path fill="url(#d)" fill-rule="evenodd" d="M18.876 9.067a11.488 11.488 0 1 1 0 22.977 11.488 11.488 0 0 1 0-22.977Z" clip-rule="evenodd" style="mix-blend-mode:multiply"/><path fill="url(#e)" fill-rule="evenodd" d="M22.411 11.93c2.59 2.58 2.05 7.309-1.202 10.552-3.252 3.244-7.953 3.783-10.551 1.202-2.599-2.58-2.042-7.308 1.202-10.552C15.103 9.89 19.813 9.35 22.41 11.93Z" clip-rule="evenodd" opacity=".4" style="mix-blend-mode:screen"/><path fill="url(#f)" fill-rule="evenodd" d="M12.31 13.68c2.572-2.571 6.249-3.075 8.21-1.096 1.963 1.98 1.476 5.639-1.095 8.21-2.572 2.572-6.248 3.067-8.21 1.096-1.962-1.97-1.494-5.647 1.096-8.21Z" clip-rule="evenodd" opacity=".75" style="mix-blend-mode:screen"/><path fill="url(#g)" fill-rule="evenodd" d="M27.396 14.6a10.42 10.42 0 0 1 1.6 5.593 10.605 10.605 0 0 1-15.024 9.589A10.913 10.913 0 0 0 26.07 13.875c-.345-.619.884 0 1.29.698l.036.026Z" clip-rule="evenodd" style="mix-blend-mode:screen"/><path fill="url(#h)" fill-rule="evenodd" d="M18.876 9.067a11.488 11.488 0 1 1 0 22.977 11.488 11.488 0 0 1 0-22.977Z" clip-rule="evenodd" style="mix-blend-mode:screen"/><path fill="url(#i)" fill-rule="evenodd" d="m23.02 6.248 6.187 3.535-2.165 3.11c-.265.46-1.768.107-3.279-.786-1.511-.892-2.616-1.97-2.35-2.386l1.608-3.429v-.044Z" clip-rule="evenodd"/><path fill="url(#j)" fill-rule="evenodd" d="M26.627 7.114c1.705.981 2.845 2.183 2.553 2.651-.291.469-1.908.115-3.605-.883-1.697-1-2.846-2.183-2.554-2.652.291-.468 1.909-.115 3.605.884Z" clip-rule="evenodd"/><path fill="#1181C7" fill-rule="evenodd" d="m21.67 10.481 1.643-3.35c-.274-.344-.389-.636-.31-.883l-1.59 3.473v.044c-.062.186.044.451.283.76l-.027-.044Z" clip-rule="evenodd" opacity=".5" style="mix-blend-mode:multiply"/><path fill="url(#k)" fill-rule="evenodd" d="m23.86 7.715-1.678 3.296c.315.289.655.55 1.016.778l1.767-3.217a9.384 9.384 0 0 1-1.113-.884l.009.027Z" clip-rule="evenodd" style="mix-blend-mode:screen"/><path fill="url(#l)" fill-rule="evenodd" d="M27.484 9.81c-.672 1.033-1.344 2.067-2.007 3.11.787.248 1.38.265 1.538 0l2.148-3.075c-.212.256-.884.22-1.67 0l-.01-.036Z" clip-rule="evenodd" opacity=".6" style="mix-blend-mode:screen"/><path fill="url(#m)" d="M26.574 8.298c-.186.168-.822 0-.972-.433-.15-.433.327-.928.557-1.113.16-.6.417-1.17.76-1.688a3.44 3.44 0 0 1 .22-1.662 3.933 3.933 0 0 1-.256-1.838 1.008 1.008 0 0 1 .398-1.52.734.734 0 0 1 .999.584 3.43 3.43 0 0 1 .37 2.023 4.02 4.02 0 0 1-.158 1.927 3.792 3.792 0 0 1-.637 1.811 4.419 4.419 0 0 1-1.28 1.892v.017Z"/><path fill="#CBBBA0" fill-rule="evenodd" d="M28.093 2.793c.743.097.31 1.608-.53 1.935 1.229 0 .3 1.476-.468 1.68.742.476-.424 1.952-1.467 1.546.22.318.751.46.884.309a4.42 4.42 0 0 0 1.281-1.891 3.792 3.792 0 0 0 .636-1.768c.234-.622.31-1.294.221-1.953a3.428 3.428 0 0 0-.37-2.024.724.724 0 0 0-.814-.618c.371.062.566.38.327.795.742 0 .804 1.44.31 1.989h-.01Z" clip-rule="evenodd" style="mix-blend-mode:multiply"/><path fill="url(#n)" fill-rule="evenodd" d="M27.007.336c-.22.247-.318.804-.141.972a.15.15 0 0 0 .168 0c.284-.231.499-.537.618-.884.106-.486-.406-.398-.645-.124v.036Zm.628.804-.522.468a.662.662 0 0 0-.141.31c-.02.296.001.593.062.883.053.283.203.442.406.3.383-.217.68-.56.84-.971a2.388 2.388 0 0 0 0-.743c-.053-.424-.327-.512-.645-.247Zm.22 1.944a2.5 2.5 0 0 0-.52.336c-.23.221-.451 1.096-.301 1.264a.212.212 0 0 0 .194 0 1.503 1.503 0 0 0 1.052-1.105c.106-.398.07-.76-.424-.495Zm-.114 1.768a1.317 1.317 0 0 0-.884.53 4.807 4.807 0 0 0-.46.884.645.645 0 0 0-.061.256c0 .07.106.062.238 0a5.85 5.85 0 0 0 .884-.433c.31-.221.725-.742.548-1.14a.274.274 0 0 0-.239-.133l-.026.036Zm-.884 1.767a1.343 1.343 0 0 0-1.149.884c0 .053-.044.15 0 .194.292.204 1.193-.353 1.388-.724.106-.204 0-.363-.248-.345l.009-.009Z" clip-rule="evenodd" style="mix-blend-mode:screen"/><path fill="url(#o)" fill-rule="evenodd" d="M13.857 13.009c1.97-1.282 4.365-1.096 5.346.415.981 1.511.168 3.774-1.767 5.055-1.935 1.281-4.419 1.087-5.356-.424-.936-1.511-.168-3.774 1.768-5.046h.009Z" clip-rule="evenodd" opacity=".35" style="mix-blend-mode:screen"/></g><defs><radialGradient id="b" cx="0" cy="0" r="1" gradientTransform="rotate(-.087 10424.035 -10153.318) scale(15.5066)" gradientUnits="userSpaceOnUse"><stop stop-color="#FC5BE1"/><stop offset=".12" stop-color="#CD4AB7"/><stop offset=".3" stop-color="#903480"/><stop offset=".47" stop-color="#5C2152"/><stop offset=".63" stop-color="#34132F"/><stop offset=".78" stop-color="#180915"/><stop offset=".91" stop-color="#060206"/><stop offset="1"/></radialGradient><radialGradient id="c" cx="0" cy="0" r="1" gradientTransform="translate(16.358 13.919) scale(18.0635)" gradientUnits="userSpaceOnUse"><stop stop-color="#4D6187"/><stop offset=".88" stop-color="#0F2036"/></radialGradient><radialGradient id="d" cx="0" cy="0" r="1" gradientTransform="translate(19.035 24.868) scale(20.9003)" gradientUnits="userSpaceOnUse"><stop offset=".54" stop-color="#fff"/><stop offset=".58" stop-color="#EDEDED"/><stop offset=".68" stop-color="#BFBFBF"/><stop offset=".81" stop-color="#757575"/><stop offset=".98" stop-color="#101010"/><stop offset="1"/></radialGradient><radialGradient id="e" cx="0" cy="0" r="1" gradientTransform="translate(13.265 10.852) scale(15.4919)" gradientUnits="userSpaceOnUse"><stop stop-color="#312169"/><stop offset="1"/></radialGradient><radialGradient id="f" cx="0" cy="0" r="1" gradientTransform="translate(10.455 9.818) scale(19.3361)" gradientUnits="userSpaceOnUse"><stop stop-color="#232C69"/><stop offset="1"/></radialGradient><radialGradient id="g" cx="0" cy="0" r="1" gradientTransform="translate(18.187 13.115) scale(17.7807)" gradientUnits="userSpaceOnUse"><stop stop-color="#232C69"/><stop offset="1"/></radialGradient><radialGradient id="h" cx="0" cy="0" r="1" gradientTransform="translate(17.957 19.513) scale(13.3709)" gradientUnits="userSpaceOnUse"><stop offset=".83"/><stop offset=".85" stop-color="#000812"/><stop offset=".9" stop-color="#001C40"/><stop offset=".96" stop-color="#003B89"/><stop offset="1" stop-color="#0052BD"/></radialGradient><radialGradient id="i" cx="0" cy="0" r="1" gradientTransform="translate(24.92 7.132) scale(8.8285)" gradientUnits="userSpaceOnUse"><stop stop-color="#4D6187"/><stop offset=".86" stop-color="#0F2036"/></radialGradient><radialGradient id="j" cx="0" cy="0" r="1" gradientTransform="translate(22.888 8.608) scale(9.65921)" gradientUnits="userSpaceOnUse"><stop stop-color="#374969"/><stop offset=".86" stop-color="#141B24"/></radialGradient><radialGradient id="k" cx="0" cy="0" r="1" gradientTransform="translate(22.164 6.495) scale(7.27313)" gradientUnits="userSpaceOnUse"><stop stop-color="#232C69"/><stop offset="1"/></radialGradient><radialGradient id="m" cx="0" cy="0" r="1" gradientTransform="matrix(8.84617 0 0 8.84618 25.973 .407)" gradientUnits="userSpaceOnUse"><stop stop-color="#AD8550"/><stop offset=".37" stop-color="#96723E"/><stop offset="1" stop-color="#664918"/></radialGradient><radialGradient id="n" cx="0" cy="0" r="1" gradientTransform="translate(25.355 3.774) scale(4.35681)" gradientUnits="userSpaceOnUse"><stop offset=".35" stop-color="#B17F4A"/><stop offset="1"/></radialGradient><radialGradient id="o" cx="0" cy="0" r="1" gradientTransform="rotate(12.08 -29.075 54.917) scale(13.5918)" gradientUnits="userSpaceOnUse"><stop stop-color="#636BA3"/><stop offset="1"/></radialGradient><linearGradient id="l" x1="25.964" x2="27.819" y1="10.437" y2="11.736" gradientUnits="userSpaceOnUse"><stop offset=".17"/><stop offset=".28" stop-color="#000812"/><stop offset=".5" stop-color="#001C40"/><stop offset=".8" stop-color="#003B89"/><stop offset="1" stop-color="#0052BD"/></linearGradient><clipPath id="a"><path fill="#fff" d="M0 0h30.878v32H0z"/></clipPath></defs></svg>