<svg xmlns="http://www.w3.org/2000/svg" width="32" height="32" fill="none"><path fill="url(#a)" fill-rule="evenodd" d="m22.329 7.824 7.058 5.679 1.178 3.987-5.397-.06-8.81-4.058-7.059-5.68-1.178-3.976 5.397.05 8.81 4.058Z" clip-rule="evenodd"/><path fill="url(#b)" fill-rule="evenodd" d="M8.12 3.716 1.174 6.142l1.6 5.428L9.3 7.693 8.12 3.716Z" clip-rule="evenodd"/><path fill="url(#c)" fill-rule="evenodd" d="M9.3 7.693 2.773 11.57l9.637 7.763 3.947-5.961-7.059-5.68Z" clip-rule="evenodd"/><path fill="url(#d)" fill-rule="evenodd" d="m16.357 13.372 8.81 4.058-.734 7.441-12.023-5.538 3.947-5.961Z" clip-rule="evenodd"/><path fill="url(#e)" fill-rule="evenodd" d="m30.565 17.49 1.238 7.452-7.37-.071.735-7.441 5.397.06Z" clip-rule="evenodd"/><path fill="url(#f)" fill-rule="evenodd" d="M2.774 11.57 6.984 32l5.427-12.667-9.637-7.763Z" clip-rule="evenodd"/><path fill="url(#g)" fill-rule="evenodd" d="m12.41 19.333 12.023 5.538L6.983 32l5.428-12.667Z" clip-rule="evenodd"/><path fill="url(#h)" fill-rule="evenodd" d="M31.804 24.942 6.984 32l17.45-7.129 7.37.07Z" clip-rule="evenodd"/><path fill="#85F2FF" fill-rule="evenodd" d="M1.173 6.142 6.983 32l-4.21-20.43-1.6-5.428Z" clip-rule="evenodd"/><path fill="url(#i)" fill-rule="evenodd" d="M15.562 4.712C17.988 7.06 22.76 14.4 24.04 16.916l1.128.514h2.899a60.415 60.415 0 0 1-7.149-10.28l-5.356-2.438Z" clip-rule="evenodd" opacity=".5" style="mix-blend-mode:screen"/><path fill="#9FDFFF" fill-rule="evenodd" d="M3.822 16.624c-.091-3.655 1.43-2.557 3.02-.926 5.035 5.145 3.333 8.116 1.158 13.926l4.41-10.291-9.636-7.763c.353 1.691.695 3.373 1.007 5.034l.04.02Z" clip-rule="evenodd" opacity=".75" style="mix-blend-mode:screen"/><path fill="url(#j)" fill-rule="evenodd" d="M16.146 21.045c4.924 2.285 2.87 4.934-1.299 7.048L6.984 32l17.45-7.14-8.287-3.815Z" clip-rule="evenodd" opacity=".5" style="mix-blend-mode:screen"/><path fill="#8FFCFF" fill-rule="evenodd" d="M9.299 7.693 8.22 4.058c.383 1.853.625 2.507.09 3.313a12.426 12.426 0 0 1-2.96 2.668L9.3 7.693Z" clip-rule="evenodd" style="mix-blend-mode:screen"/><path fill="#fff" fill-rule="evenodd" d="m16.357 13.372-7.049-5.68-3.947 2.347c2.014-1.067 3.162-1.45 3.917-1.168a15.105 15.105 0 0 1 3.232 2.094c1.632 1.219 2.357 2.467 2.367 3.132 0 .826-.776 2.447-1.823 4.28l3.313-5.035-.01.03Z" clip-rule="evenodd"/><path fill="#8FFCFF" fill-rule="evenodd" d="m16.358 13.372-3.313 5.035c1.53-2.186 2.719-3.192 3.554-3.384 1.128-.272 2.77.101 5.971 1.249l-6.212-2.87v-.03Z" clip-rule="evenodd" opacity=".5" style="mix-blend-mode:screen"/><path fill="url(#k)" fill-rule="evenodd" d="m11.988 3.756-3.897-.04.795 2.678.383 1.299 7.048 5.679 3.414 1.57c-2.125-1.892-7.572-9.535-7.784-11.186h.04Z" clip-rule="evenodd" style="mix-blend-mode:screen"/><path fill="url(#l)" d="M8.513 16.634A8.317 8.317 0 1 0 8.513 0a8.317 8.317 0 0 0 0 16.634Z" opacity=".75" style="mix-blend-mode:screen"/><defs><radialGradient id="a" cx="0" cy="0" r="1" gradientTransform="translate(9.833 7.975) scale(28.1838)" gradientUnits="userSpaceOnUse"><stop stop-color="#C4EEFF"/><stop offset=".33" stop-color="#4CCAFF"/><stop offset="1" stop-color="#003EB0"/></radialGradient><radialGradient id="b" cx="0" cy="0" r="1" gradientTransform="translate(.398 2.427) scale(10.7137)" gradientUnits="userSpaceOnUse"><stop stop-color="#A5E2FF"/><stop offset="1" stop-color="#218CF3"/></radialGradient><radialGradient id="c" cx="0" cy="0" r="1" gradientTransform="translate(9.43 8.66) scale(30.983)" gradientUnits="userSpaceOnUse"><stop stop-color="#A5E2FF"/><stop offset="1" stop-color="#08F"/></radialGradient><radialGradient id="d" cx="0" cy="0" r="1" gradientTransform="translate(14.434 33.38) scale(21.5381)" gradientUnits="userSpaceOnUse"><stop stop-color="#A5E2FF"/><stop offset="1" stop-color="#0069C2"/></radialGradient><radialGradient id="e" cx="0" cy="0" r="1" gradientTransform="translate(33.183 12.939) scale(15.6476)" gradientUnits="userSpaceOnUse"><stop stop-color="#4CCAFF"/><stop offset="1" stop-color="#003EB0"/></radialGradient><radialGradient id="f" cx="0" cy="0" r="1" gradientTransform="translate(.418 23.753) scale(13.6639)" gradientUnits="userSpaceOnUse"><stop stop-color="#A5E2FF"/><stop offset="1" stop-color="#218CF3"/></radialGradient><radialGradient id="g" cx="0" cy="0" r="1" gradientTransform="translate(10.76 36.551) scale(25.1227)" gradientUnits="userSpaceOnUse"><stop stop-color="#77D6FF"/><stop offset="1" stop-color="#001FB0"/></radialGradient><radialGradient id="h" cx="0" cy="0" r="1" gradientTransform="translate(7.406 32.947) scale(22.7967)" gradientUnits="userSpaceOnUse"><stop stop-color="#A5E2FF"/><stop offset="1" stop-color="#0081FF"/></radialGradient><radialGradient id="i" cx="0" cy="0" r="1" gradientTransform="translate(25.691 18.094) scale(13.3014)" gradientUnits="userSpaceOnUse"><stop stop-color="#00000D"/><stop offset="1" stop-color="#fff"/></radialGradient><radialGradient id="j" cx="0" cy="0" r="1" gradientTransform="translate(12.25 19.846) scale(14.2983)" gradientUnits="userSpaceOnUse"><stop offset=".31" stop-color="#00000D"/><stop offset="1" stop-color="#1CB4FF"/></radialGradient><radialGradient id="k" cx="0" cy="0" r="1" gradientTransform="translate(25.158 -1.883) scale(23.2096)" gradientUnits="userSpaceOnUse"><stop offset=".57" stop-color="#00000D"/><stop offset=".6" stop-color="#030613"/><stop offset=".63" stop-color="#0D1524"/><stop offset=".68" stop-color="#1C2F3F"/><stop offset=".72" stop-color="#315466"/><stop offset=".77" stop-color="#4C8298"/><stop offset=".82" stop-color="#6DBAD3"/><stop offset=".86" stop-color="#85E3FF"/></radialGradient><radialGradient id="l" cx="0" cy="0" r="1" gradientTransform="translate(8.513 8.317) scale(8.31718)" gradientUnits="userSpaceOnUse"><stop stop-color="#fff"/><stop offset=".2" stop-color="#6EFFFF"/><stop offset=".24" stop-color="#61E1E1"/><stop offset=".32" stop-color="#4BADAD"/><stop offset=".41" stop-color="#377F7F"/><stop offset=".5" stop-color="#265858"/><stop offset=".59" stop-color="#183838"/><stop offset=".68" stop-color="#0D1F1F"/><stop offset=".77" stop-color="#060E0E"/><stop offset=".88" stop-color="#010303"/><stop offset="1"/></radialGradient></defs></svg>