<svg xmlns="http://www.w3.org/2000/svg" width="61" height="60" fill="none"><path fill="url(#a)" d="M55.628 34.984c2.677-13.001-4.072-25.866-15.074-28.733-11.001-2.868-22.09 5.348-24.767 18.35-2.677 13.002 4.071 25.867 15.073 28.734 11.002 2.867 22.09-5.349 24.768-18.35Z" opacity=".75" style="mix-blend-mode:screen"/><path fill="url(#b)" fill-rule="evenodd" d="M30.894 6.024c.486.378.863.92 1.083 1.556.22.637.274 1.34.153 2.022a3.821 3.821 0 0 1-.83 1.804c-.42.496-.954.837-1.533.98a2.55 2.55 0 0 1-1.72-.175c-.541-.258-1.003-.7-1.325-1.271A3.893 3.893 0 0 1 26.236 9a4.018 4.018 0 0 1 .518-1.952c.447-.775 1.133-1.318 1.909-1.51a2.597 2.597 0 0 1 2.23.486Z" clip-rule="evenodd"/><path fill="url(#c)" fill-rule="evenodd" d="M30.402 6.205c.367.29.651.704.816 1.19.165.485.202 1.02.108 1.536a2.903 2.903 0 0 1-.636 1.367 2.245 2.245 0 0 1-1.168.74 1.94 1.94 0 0 1-1.305-.14 2.316 2.316 0 0 1-1.006-.968 2.963 2.963 0 0 1-.367-1.474 3.058 3.058 0 0 1 .394-1.483c.343-.592.868-1.005 1.461-1.149a1.98 1.98 0 0 1 1.703.381Z" clip-rule="evenodd" style="mix-blend-mode:screen"/><path fill="url(#d)" fill-rule="evenodd" d="M28.812 6.115c.384-.15.799-.12 1.158.084.359.203.634.564.767 1.006.014.467-.126.926-.391 1.281-.265.356-.635.58-1.032.625a1.326 1.326 0 0 1-1.151-.085c-.357-.203-.63-.563-.76-1.004-.018-.467.121-.929.387-1.285.266-.356.637-.579 1.035-.62l-.013-.002Z" clip-rule="evenodd" style="mix-blend-mode:screen"/><path fill="url(#e)" fill-rule="evenodd" d="M31.68 7.45c.243.636.3 1.352.163 2.04a3.436 3.436 0 0 1-.924 1.765c-.46.458-1.034.729-1.631.77a2.397 2.397 0 0 1-1.674-.537 2.896 2.896 0 0 1-.804-.985c.135.19.29.358.46.504.467.363 1.02.551 1.587.54a2.607 2.607 0 0 0 1.59-.606 3.4 3.4 0 0 0 1.049-1.543 3.905 3.905 0 0 0 .146-1.95l.039.002Z" clip-rule="evenodd" style="mix-blend-mode:screen"/><path fill="url(#f)" d="M27.009 12.792c.467.377.968.697 1.493.954.252.179.553.242.847.177.293-.065.558-.254.745-.53.324-.574.172-1.226-.332-1.84a8.727 8.727 0 0 0-1.318-1.247 8.783 8.783 0 0 0-1.493-.954c-.679-.32-1.282-.223-1.593.353-.31.575-.185 1.24.333 1.839.398.472.84.89 1.318 1.248Z"/><path fill="url(#g)" fill-rule="evenodd" d="M28.502 13.746a7.9 7.9 0 0 1-1.493-.954 7.994 7.994 0 0 1-1.318-1.248 1.853 1.853 0 0 1-.42-.715.578.578 0 0 1 .03-.441.461.461 0 0 1 .138-.167.368.368 0 0 1 .188-.071c.256 0 .507.058.741.171a8.735 8.735 0 0 1 1.48.953c.478.365.923.783 1.331 1.25.173.208.315.45.42.714a.576.576 0 0 1-.03.456.484.484 0 0 1-.14.164.393.393 0 0 1-.187.074 1.71 1.71 0 0 1-.727-.185l-.013-.001Z" clip-rule="evenodd" style="mix-blend-mode:multiply"/><path fill="url(#h)" fill-rule="evenodd" d="M25.75 9.883a.276.276 0 0 1 .018-.274c.723-.93 3.512 1.409 3.432 2.61-.857-1.013-1.916-1.76-3.085-2.174-.168-.011-.387-.026-.404-.164l.038.002Z" clip-rule="evenodd" style="mix-blend-mode:screen"/><path fill="url(#i)" fill-rule="evenodd" d="M38.264 55.152c-5.793-5.545-9.949-6.446-12.723-9.196a2.982 2.982 0 0 1-.692-.916 1.271 1.271 0 0 1-.13-.657 1.27 1.27 0 0 1 .216-.635A236.124 236.124 0 0 0 35.94 24.623c-.23.534-.079 1.186.749 2.004 2.789 2.735 6.93 3.65 12.723 9.196-4.328 5.95-8.07 12.45-11.151 19.375l.003-.046Z" clip-rule="evenodd"/><path fill="url(#j)" fill-rule="evenodd" d="M47.774 34.31a39.191 39.191 0 0 0-5.833-4.159 117.702 117.702 0 0 1-5.086 9.835 114.695 114.695 0 0 1-6.068 9.586 40.795 40.795 0 0 1 5.834 4.143 60.288 60.288 0 0 1 4.696-10.212 55.38 55.38 0 0 1 6.457-9.194Z" clip-rule="evenodd" opacity=".75" style="mix-blend-mode:screen"/><path fill="url(#k)" fill-rule="evenodd" d="M30.054 49.08c.974-4.039 2.572-7.848 4.712-11.233 1.678-3.103 3.711-5.924 6.04-8.382a20.5 20.5 0 0 1-4.114-2.884c-.828-.818-.98-1.47-.75-2.004a236.137 236.137 0 0 1-11.005 19.125 1.27 1.27 0 0 0-.216.635c-.015.231.03.46.131.658.176.357.411.668.692.916a22.376 22.376 0 0 0 4.513 3.124l-.003.045Z" clip-rule="evenodd" style="mix-blend-mode:multiply"/><path fill="url(#l)" fill-rule="evenodd" d="M39.734 51.935c-5.224-4.927-9.036-5.927-11.673-8.408a6.836 6.836 0 0 1-1.39-1.329 1.409 1.409 0 0 1-.23-.84l-.827 1.32c-.035.161-.04.33-.016.492.025.162.08.316.161.45.296.434.647.813 1.041 1.122 2.72 2.608 6.694 3.497 12.18 8.778.242-.519.485-1.053.754-1.585Zm.934-20.585a25.378 25.378 0 0 1-4.886-3.378c-.633-.622-.844-1.155-.777-1.578l-.873 1.622c.03.285.11.558.238.8.127.243.297.45.5.608a23.204 23.204 0 0 0 4.537 3.156 51.779 51.779 0 0 1 8.087 5.956l.948-1.388a44.831 44.831 0 0 0-7.76-5.797l-.014-.001Z" clip-rule="evenodd"/><path fill="url(#m)" fill-rule="evenodd" d="M34.87 29.408a18.587 18.587 0 0 0 3.716 2.644c.369-.48.735-.914 1.087-1.333a18.345 18.345 0 0 1-3.853-2.73c-.633-.621-.844-1.155-.778-1.578l-.872 1.622c.03.285.11.558.238.801.127.243.297.45.499.607l-.037-.033Zm-3.864 16.253a17.882 17.882 0 0 1-2.945-2.134 6.836 6.836 0 0 1-1.39-1.329 1.408 1.408 0 0 1-.23-.84l-.827 1.32a1.34 1.34 0 0 0-.016.492c.025.162.08.316.162.45.295.434.646.813 1.04 1.122a19.097 19.097 0 0 0 3.72 2.598c.152-.54.33-1.093.538-1.675l-.052-.004Z" clip-rule="evenodd" style="mix-blend-mode:multiply"/><path fill="url(#n)" fill-rule="evenodd" d="M28.682 41.98a130.083 130.083 0 0 0 11.226-19.523c-.276.654-1.199.868-1.99 1.06-.79.192-1.712.406-1.976 1.06a207.552 207.552 0 0 1-11.098 18.966 4.046 4.046 0 0 1 1.936-.65c.697-.058 1.364-.378 1.902-.913Z" clip-rule="evenodd"/><path fill="url(#o)" fill-rule="evenodd" d="M28.83 42.097a132.592 132.592 0 0 0 11.078-19.64c.218-.55.079-1.186-.749-2.004-2.006-2.027-5.879-3.856-10.074-6.898l-11.152 19.39c4.195 3.042 8.016 4.868 10.074 6.898.487.475 1.317 1.462.823 2.254Z" clip-rule="evenodd"/><path fill="url(#p)" fill-rule="evenodd" d="M39.16 20.453c-.393-.387-.801-.75-1.225-1.09-1.516 3.306-3.388 6.909-5.513 10.601-1.847 3.222-3.731 6.213-5.536 8.797.43.309.84.652 1.229 1.028.487.475 1.316 1.462.823 2.254a132.617 132.617 0 0 0 11.078-19.64c.218-.55.079-1.186-.75-2.004l-.106.054Z" clip-rule="evenodd" style="mix-blend-mode:screen"/><path fill="url(#q)" fill-rule="evenodd" d="M40.477 33.261a49.245 49.245 0 0 1 5.166 3.656l1.06-1.32a46.818 46.818 0 0 0-5.462-3.889 23.027 23.027 0 0 1-.759 1.477l-.005.076ZM37.91 50.318a41.605 41.605 0 0 0-5.217-3.674c-.317.483-.634.965-.953 1.464a39.674 39.674 0 0 1 5.464 3.859c.205-.552.436-1.102.667-1.652l.039.003Z" clip-rule="evenodd" style="mix-blend-mode:screen"/><path fill="url(#r)" fill-rule="evenodd" d="M35.089 17.495c-1.767-1.124-3.838-2.361-6.003-3.94l-11.14 19.391c2.224 1.675 4.36 2.9 6.217 4.046 1.447-2.271 2.798-4.656 4.22-7.127a315.569 315.569 0 0 0 6.744-12.367l-.038-.003Z" clip-rule="evenodd" style="mix-blend-mode:multiply"/><path fill="url(#s)" d="M18.049 32.77c1.806 1.31 3.537 2.403 5.092 3.391a30.76 30.76 0 0 1 4.953 3.55c.352.308.632.715.816 1.184a1.476 1.476 0 0 1-.069 1.05c-.201.394-.523.684-.897.81-.397.159-.804.28-1.217.363-.39.082-.775.2-1.151.351a1.258 1.258 0 0 0-.715.61.926.926 0 0 0-.047.715c.162.41.41.762.723 1.025a20.383 20.383 0 0 0 4.202 2.935 44.125 44.125 0 0 1 8.407 6.42.556.556 0 0 1-.398.142 42.87 42.87 0 0 0-8.163-6.19 21.839 21.839 0 0 1-4.162-2.963 3.041 3.041 0 0 1-.816-1.185 1.403 1.403 0 0 1 .07-1.049c.187-.39.495-.681.857-.814a5.592 5.592 0 0 1 1.204-.363 6.94 6.94 0 0 0 1.165-.35c.288-.096.538-.314.702-.61a.963.963 0 0 0 .048-.73 2.896 2.896 0 0 0-.723-1.026 30.006 30.006 0 0 0-4.957-3.489c-1.568-.99-3.313-2.067-5.118-3.393l.19-.339.004-.045Z"/><path fill="url(#t)" fill-rule="evenodd" d="M29.945 37.024c-2.057-2.03-6.028-3.957-10.296-7.065l-.85 1.47c4.23 3.09 8.14 4.968 10.196 7.013.525.493 1.291 1.46.813 2.223.301-.438.618-.922.966-1.464.425-.75-.292-1.668-.827-2.208l-.002.03Zm9.274-12.963c.218-.55.081-1.216-.763-1.99-2.069-2.046-5.978-3.923-10.157-7.01l-.863 1.47c4.28 3.124 8.246 5.127 10.32 7.097.769.738 1.022 1.427.776 2.006.27-.547.512-1.08.753-1.584l-.066.011Z" clip-rule="evenodd"/><path fill="url(#u)" fill-rule="evenodd" d="M39.219 24.06c.218-.55.08-1.215-.764-1.99a13.554 13.554 0 0 0-1.328-1.095l-.759 1.477c.464.34.907.716 1.326 1.126.768.738 1.021 1.427.775 2.006.27-.547.513-1.08.754-1.584l-.004.06ZM30.77 39.233c.425-.75-.292-1.669-.827-2.208-.535-.54-.771-.693-1.227-1.059-.318.498-.621.967-.94 1.465.431.317.841.671 1.227 1.059.525.493 1.291 1.46.813 2.222.301-.438.618-.921.966-1.463l-.012-.016Z" clip-rule="evenodd" style="mix-blend-mode:screen"/><path fill="url(#v)" fill-rule="evenodd" d="M27.37 16.542c2.185 1.672 4.297 2.88 6.115 4.024l.798-1.474c-1.79-1.188-3.884-2.456-5.985-4.031l-.862 1.47-.066.011Zm-1.483 17.525c-1.842-1.175-4-2.479-6.213-4.106l-.85 1.47c2.237 1.676 4.384 2.933 6.214 4.092.304-.484.597-.984.888-1.468l-.04.012Z" clip-rule="evenodd" style="mix-blend-mode:multiply"/><path fill="url(#w)" fill-rule="evenodd" d="M27.8 11.424c.496.385.94.851 1.322 1.386.297.416.415.79.297.997L23.646 23.84l-5.526 9.622-2.056-1.663-2.043-1.663a680.212 680.212 0 0 0 5.624-9.524c1.845-3.191 3.864-6.86 5.674-10.1.117-.207.456-.23.899-.063a5.965 5.965 0 0 1 1.587.899l-.005.076Z" clip-rule="evenodd"/><path fill="url(#x)" fill-rule="evenodd" d="M20.475 20.79a940.527 940.527 0 0 0 5.78-10.308c-.432-.151-.77-.143-.899.047-1.765 3.152-3.685 6.69-5.51 9.776-.265.471-.53.942-.81 1.474-1.64 2.813-3.31 5.599-5.015 8.357.13-.205.493-.196.961-.028a657.925 657.925 0 0 0 5.497-9.38l-.004.061Z" clip-rule="evenodd" style="mix-blend-mode:multiply"/><path fill="url(#y)" fill-rule="evenodd" d="M26.792 10.777a936.866 936.866 0 0 1-5.87 10.302c-1.887 3.25-3.587 6.192-5.41 9.263.345.19.677.41.993.661l.21.151a1022.5 1022.5 0 0 0 5.342-9.191L28 11.529l-.197-.166a9.53 9.53 0 0 0-1.007-.647l-.004.06Z" clip-rule="evenodd" style="mix-blend-mode:screen"/><path fill="url(#z)" fill-rule="evenodd" d="M28.764 12.328 22.895 22.63a1292.14 1292.14 0 0 1-5.39 9.325c.544.601.818 1.17.657 1.449l5.524-9.592.22-.383 5.514-9.638c.117-.206.038-.577-.298-.997-.106-.16-.226-.305-.358-.466Z" clip-rule="evenodd" style="mix-blend-mode:multiply"/><path fill="#A71B00" fill-rule="evenodd" d="M16.5 31.064c1.135.884 1.87 1.94 1.622 2.352-.248.411-1.3.052-2.538-.84-1.238-.891-1.868-1.956-1.62-2.367.247-.412 1.3-.052 2.537.855Z" clip-rule="evenodd"/><path fill="url(#A)" fill-rule="evenodd" d="M17.784 33.44c-1.853 3.1-2.254 3.684-4.058 6.832-1.804 3.15-7.17 12.507-8.885 15.707l-1.85-1.435-1.852-1.421c1.89-3.097 7.308-12.452 9.164-15.597 1.855-3.145 2.13-3.784 3.872-6.983.103-.176.39-.203.796-.069.499.187.97.46 1.399.81.456.33.866.738 1.217 1.211.26.369.369.696.252.887l-.055.058Z" clip-rule="evenodd"/><path fill="url(#B)" fill-rule="evenodd" d="M17.534 32.507a4.71 4.71 0 0 0-.663-.762L12.7 38.937A3105.055 3105.055 0 0 0 3.521 54.96l1.32 1.02c1.742-3.2 7.099-12.619 8.914-15.752 1.815-3.132 2.205-3.733 4.058-6.832.116-.191.034-.517-.253-.888l-.026-.001Z" clip-rule="evenodd" style="mix-blend-mode:multiply"/><path fill="url(#C)" fill-rule="evenodd" d="M1.696 53.526a2616.943 2616.943 0 0 0 9.29-15.955c1.877-3.266 2.19-3.871 3.973-7.113-.393-.133-.684-.045-.783.07-1.744 3.23-2.06 3.88-3.874 6.998-1.814 3.117-7.272 12.5-9.163 15.597l.53.402.027.001Z" clip-rule="evenodd" style="mix-blend-mode:multiply"/><path fill="url(#D)" fill-rule="evenodd" d="M3.385 53.867c.999.784 1.65 1.728 1.43 2.096-.218.367-1.194.027-2.206-.757-1.011-.785-1.65-1.713-1.47-2.083.18-.37 1.208-.027 2.22.758l.026-.014Z" clip-rule="evenodd"/><path fill="url(#E)" fill-rule="evenodd" d="M16.282 31.233a5.848 5.848 0 0 0-1.098-.653C10.14 39.409 4.047 50.322 4.318 50.539c.271.216 6.862-10.405 11.964-19.306Z" clip-rule="evenodd" style="mix-blend-mode:screen"/><path fill="url(#F)" fill-rule="evenodd" d="M19.996 30.18c.251-.456-.61-1.567-1.62-2.367-.66-.622-1.48-.966-2.334-.98l-.914 1.468c.39-.219 1.412.215 2.374.966.962.75 1.87 1.926 1.621 2.352l.875-1.469-.002.03Zm6.075-15.755c.48.383 1.958 1.764 1.62 2.367.292-.5.573-1.016.862-1.47.29-.454-1.161-2.047-1.62-2.367-.458-.32-1.922-1.334-2.402-.938l-.823 1.473c.511-.287 1.929.631 2.36.965l.003-.03Z" clip-rule="evenodd"/><path fill="url(#G)" fill-rule="evenodd" d="M25.088 13.795c.34.185.668.396.983.63l.209.182.862-1.47-.21-.167a7.62 7.62 0 0 0-.994-.646l-.85 1.47Zm-6.49 14.2-.221-.182a6.726 6.726 0 0 0-.97-.63l-.875 1.47c.338.181.662.397.968.644l.223.168.875-1.47Z" clip-rule="evenodd" style="mix-blend-mode:screen"/><path fill="url(#H)" fill-rule="evenodd" d="M23.71 13.46c.283-.096.583-.076.852.055.292-.5.573-1.015.85-1.47-.368-.132-.701-.2-.879-.059l-.824 1.473Zm-6.82 13.476a1.296 1.296 0 0 0-.851-.057l-.914 1.467c.292-.09.6-.069.878.058l.888-1.468Z" clip-rule="evenodd" style="mix-blend-mode:multiply"/><path fill="url(#I)" fill-rule="evenodd" d="m19.353 28.733-.875 1.47c.518.598.804 1.167.643 1.447l.876-1.47c.162-.294-.138-.864-.644-1.447Zm7.63-13.393c.459.52.848 1.11.657 1.449l.862-1.47c.205-.353-.197-.945-.656-1.449l-.863 1.47Z" clip-rule="evenodd" style="mix-blend-mode:multiply"/><path fill="url(#J)" fill-rule="evenodd" d="M41.633 23.228a5.063 5.063 0 0 1-.804 2.441c-.465.708-1.096 1.241-1.812 1.534a3.275 3.275 0 0 1-2.21.11c-.726-.222-1.374-.692-1.863-1.353a4.772 4.772 0 0 1-.888-2.358c-.089-.876.046-1.77.387-2.568.342-.798.874-1.464 1.531-1.914a3.411 3.411 0 0 1 2.16-.614c1.006.067 1.94.602 2.597 1.487.656.886.98 2.05.902 3.235Z" clip-rule="evenodd" opacity=".75" style="mix-blend-mode:screen"/><defs><linearGradient id="f" x1="25.358" x2="30.514" y1="9.705" y2="12.661" gradientUnits="userSpaceOnUse"><stop offset=".05" stop-color="#ED9500"/><stop offset=".4" stop-color="#FC0"/><stop offset=".93" stop-color="#B36600"/></linearGradient><linearGradient id="i" x1="30.067" x2="45.027" y1="34.787" y2="43.389" gradientUnits="userSpaceOnUse"><stop stop-color="#9C0E0E"/><stop offset=".69" stop-color="#FC3F00"/><stop offset="1" stop-color="#C4020B"/></linearGradient><linearGradient id="j" x1="34.501" x2="43.082" y1="38.135" y2="43.071" gradientUnits="userSpaceOnUse"><stop/><stop offset=".13" stop-color="#3E1111"/><stop offset=".31" stop-color="#902727"/><stop offset=".47" stop-color="#CC3737"/><stop offset=".58" stop-color="#F14141"/><stop offset=".64" stop-color="#FF4545"/><stop offset=".68" stop-color="#F24040"/><stop offset=".77" stop-color="#D03333"/><stop offset=".89" stop-color="#991D1D"/><stop offset="1" stop-color="#630808"/></linearGradient><linearGradient id="k" x1="30.067" x2="36.231" y1="34.787" y2="38.332" gradientUnits="userSpaceOnUse"><stop stop-color="#800C0C"/><stop offset="1" stop-color="#FFE4BF"/></linearGradient><linearGradient id="l" x1="30.069" x2="44.816" y1="34.94" y2="43.434" gradientUnits="userSpaceOnUse"><stop offset=".07" stop-color="#B36600"/><stop offset=".6" stop-color="#FC0"/><stop offset=".95" stop-color="#ED9500"/></linearGradient><linearGradient id="m" x1="30.069" x2="35.428" y1="34.94" y2="38.03" gradientUnits="userSpaceOnUse"><stop offset=".57" stop-color="#FFA163"/><stop offset="1" stop-color="#FFE4BF"/></linearGradient><linearGradient id="n" x1="31.364" x2="33.996" y1="32.216" y2="33.727" gradientUnits="userSpaceOnUse"><stop stop-color="#960007"/><stop offset="1" stop-color="#610000"/></linearGradient><linearGradient id="o" x1="23.59" x2="36.079" y1="23.103" y2="30.287" gradientUnits="userSpaceOnUse"><stop stop-color="#9C0E0E"/><stop offset=".75" stop-color="#FC3F00"/><stop offset="1" stop-color="#C4020B"/></linearGradient><linearGradient id="p" x1="31.963" x2="35.334" y1="29.644" y2="31.583" gradientUnits="userSpaceOnUse"><stop/><stop offset=".68" stop-color="#FF7373"/><stop offset=".74" stop-color="#F26D6D"/><stop offset=".84" stop-color="#D05E5E"/><stop offset=".97" stop-color="#994545"/><stop offset="1" stop-color="#8C3F3F"/></linearGradient><linearGradient id="q" x1="36.572" x2="42.387" y1="39.753" y2="43.097" gradientUnits="userSpaceOnUse"><stop/><stop offset=".02" stop-color="#0F0E0B"/><stop offset=".1" stop-color="#4E4936"/><stop offset=".18" stop-color="#847C5B"/><stop offset=".25" stop-color="#B0A67A"/><stop offset=".33" stop-color="#D2C691"/><stop offset=".4" stop-color="#EBDDA2"/><stop offset=".46" stop-color="#FAEBAC"/><stop offset=".51" stop-color="#FFF0B0"/><stop offset=".56" stop-color="#F9EAAC"/><stop offset=".62" stop-color="#E8DAA0"/><stop offset=".69" stop-color="#CCC08D"/><stop offset=".77" stop-color="#A59B72"/><stop offset=".85" stop-color="#736C4F"/><stop offset=".93" stop-color="#373326"/><stop offset="1"/></linearGradient><linearGradient id="r" x1="23.663" x2="33.615" y1="22.985" y2="28.711" gradientUnits="userSpaceOnUse"><stop stop-color="#FF3030"/><stop offset="1" stop-color="#FFE4BF"/></linearGradient><linearGradient id="s" x1="16.731" x2="41.602" y1="35.05" y2="49.35" gradientUnits="userSpaceOnUse"><stop stop-color="#C4020B"/><stop offset="1" stop-color="#FC3F00"/></linearGradient><linearGradient id="t" x1="23.604" x2="35.959" y1="23.104" y2="30.207" gradientUnits="userSpaceOnUse"><stop offset=".07" stop-color="#B36600"/><stop offset=".6" stop-color="#FC0"/><stop offset=".95" stop-color="#ED9500"/></linearGradient><linearGradient id="u" x1="32.074" x2="35.202" y1="29.727" y2="31.52" gradientUnits="userSpaceOnUse"><stop/><stop offset="1" stop-color="#FFF0B0"/></linearGradient><linearGradient id="v" x1="23.663" x2="30.111" y1="22.986" y2="26.705" gradientUnits="userSpaceOnUse"><stop stop-color="#FFA163"/><stop offset="1" stop-color="#FFE4BF"/></linearGradient><linearGradient id="w" x1="19.879" x2="24.352" y1="20.017" y2="22.599" gradientUnits="userSpaceOnUse"><stop stop-color="#9C0E0E"/><stop offset=".3" stop-color="#FC3F00"/><stop offset="1" stop-color="#C4020B"/></linearGradient><linearGradient id="x" x1="19.819" x2="20.597" y1="20.12" y2="20.561" gradientUnits="userSpaceOnUse"><stop stop-color="#800C0C"/><stop offset="1" stop-color="#FFE4BF"/></linearGradient><linearGradient id="y" x1="20.821" x2="23.065" y1="20.262" y2="21.56" gradientUnits="userSpaceOnUse"><stop/><stop offset=".09" stop-color="#3E1111"/><stop offset=".21" stop-color="#902727"/><stop offset=".31" stop-color="#CC3737"/><stop offset=".38" stop-color="#F14141"/><stop offset=".42" stop-color="#FF4545"/><stop offset=".5" stop-color="#F24040"/><stop offset=".64" stop-color="#D03333"/><stop offset=".83" stop-color="#991D1D"/><stop offset="1" stop-color="#630808"/></linearGradient><linearGradient id="z" x1="22.931" x2="24.046" y1="22.479" y2="23.121" gradientUnits="userSpaceOnUse"><stop stop-color="#FFE4BF"/><stop offset="1" stop-color="#800C0C"/></linearGradient><linearGradient id="A" x1="7.861" x2="11.836" y1="41.503" y2="43.791" gradientUnits="userSpaceOnUse"><stop stop-color="#546578"/><stop offset=".32" stop-color="#8DA0B8"/><stop offset="1" stop-color="#546578"/></linearGradient><linearGradient id="B" x1="9.943" x2="11.393" y1="43.153" y2="43.982" gradientUnits="userSpaceOnUse"><stop stop-color="#fff"/><stop offset=".52" stop-color="#C3CEE0"/><stop offset="1" stop-color="#8A9FC2"/></linearGradient><linearGradient id="C" x1="7.802" x2="10.005" y1="41.606" y2="42.877" gradientUnits="userSpaceOnUse"><stop stop-color="#8A9FC2"/><stop offset=".48" stop-color="#C3CEE0"/><stop offset="1" stop-color="#fff"/></linearGradient><linearGradient id="F" x1="19.975" x2="21.747" y1="19.916" y2="20.933" gradientUnits="userSpaceOnUse"><stop offset=".07" stop-color="#B36600"/><stop offset=".6" stop-color="#FC0"/><stop offset=".95" stop-color="#ED9500"/></linearGradient><linearGradient id="G" x1="21.252" x2="22.528" y1="20.428" y2="21.164" gradientUnits="userSpaceOnUse"><stop stop-color="#FFF0B0"/><stop offset="1"/></linearGradient><linearGradient id="H" x1="19.947" x2="20.672" y1="19.945" y2="20.36" gradientUnits="userSpaceOnUse"><stop stop-color="#FFA163"/><stop offset="1" stop-color="#FFE4BF"/></linearGradient><linearGradient id="I" x1="23.004" x2="24.119" y1="22.362" y2="23.004" gradientUnits="userSpaceOnUse"><stop stop-color="#FFE4BF"/><stop offset="1" stop-color="#FFA163"/></linearGradient><radialGradient id="a" cx="0" cy="0" r="1" gradientTransform="matrix(20.4399 1.35262 -1.59283 24.06975 35.705 29.786)" gradientUnits="userSpaceOnUse"><stop stop-color="#FF0B00"/><stop offset=".13" stop-color="#CD0900"/><stop offset=".31" stop-color="#900600"/><stop offset=".48" stop-color="#5C0400"/><stop offset=".64" stop-color="#340200"/><stop offset=".78" stop-color="#180100"/><stop offset=".91" stop-color="#060000"/><stop offset="1"/></radialGradient><radialGradient id="b" cx="0" cy="0" r="1" gradientTransform="matrix(3.35324 2.61957 -2.81283 3.60063 28.897 7.537)" gradientUnits="userSpaceOnUse"><stop stop-color="#FCCD10"/><stop offset=".22" stop-color="#EDAB09"/><stop offset=".45" stop-color="#E08E02"/><stop offset=".58" stop-color="#DB8300"/><stop offset=".71" stop-color="#D67D00"/><stop offset=".88" stop-color="#C86C00"/><stop offset="1" stop-color="#BA5B00"/></radialGradient><radialGradient id="c" cx="0" cy="0" r="1" gradientTransform="matrix(4.07942 3.18686 -3.42198 4.38039 28.854 5.675)" gradientUnits="userSpaceOnUse"><stop stop-color="#FFE58A"/><stop offset="1"/></radialGradient><radialGradient id="d" cx="0" cy="0" r="1" gradientTransform="matrix(4.02602 3.14514 -3.37719 4.32306 28.578 4)" gradientUnits="userSpaceOnUse"><stop stop-color="#FFE58A"/><stop offset="1"/></radialGradient><radialGradient id="e" cx="0" cy="0" r="1" gradientTransform="matrix(3.86583 3.02 -3.24282 4.15105 29.64 8.56)" gradientUnits="userSpaceOnUse"><stop stop-color="#FFE58A"/><stop offset="1"/></radialGradient><radialGradient id="g" cx="0" cy="0" r="1" gradientTransform="rotate(3.786 -194.19 446.064) scale(11.0769 13.0441)" gradientUnits="userSpaceOnUse"><stop stop-color="#E38812"/><stop offset=".11" stop-color="#E6962D"/><stop offset=".73" stop-color="#F8E1C3"/><stop offset="1" stop-color="#fff"/></radialGradient><radialGradient id="h" cx="0" cy="0" r="1" gradientTransform="matrix(3.9382 .26061 -.3069 4.63758 26.489 9.29)" gradientUnits="userSpaceOnUse"><stop stop-color="#FFF0B0"/><stop offset="1"/></radialGradient><radialGradient id="D" cx="0" cy="0" r="1" gradientTransform="matrix(5.2294 .34606 -.40752 6.1581 2.322 50.33)" gradientUnits="userSpaceOnUse"><stop stop-color="#ADBDC9"/><stop offset="1" stop-color="#263754"/></radialGradient><radialGradient id="E" cx="0" cy="0" r="1" gradientTransform="rotate(3.786 -438.374 -7.067) scale(20.2258 23.8176)" gradientUnits="userSpaceOnUse"><stop stop-color="#fff"/><stop offset=".11" stop-color="#FAFAFA"/><stop offset=".23" stop-color="#EDEDED"/><stop offset=".36" stop-color="#D6D6D6"/><stop offset=".5" stop-color="#B7B7B7"/><stop offset=".64" stop-color="#8E8E8E"/><stop offset=".78" stop-color="#5C5C5C"/><stop offset=".92" stop-color="#232323"/><stop offset="1"/></radialGradient><radialGradient id="J" cx="0" cy="0" r="1" gradientTransform="matrix(3.79616 .25121 -.29583 4.47031 37.837 22.977)" gradientUnits="userSpaceOnUse"><stop stop-color="#FCEA10"/><stop offset=".12" stop-color="#CDBF0D"/><stop offset=".3" stop-color="#908509"/><stop offset=".47" stop-color="#5C5606"/><stop offset=".63" stop-color="#343103"/><stop offset=".78" stop-color="#181601"/><stop offset=".91" stop-color="#060600"/><stop offset="1"/></radialGradient></defs></svg>