<svg xmlns="http://www.w3.org/2000/svg" width="55" height="56" fill="none"><g clip-path="url(#a)"><path fill="url(#b)" d="M53.666 33.761c3.283-14.623-5.91-29.138-20.534-32.421C18.51-1.943 3.993 7.25.711 21.874c-3.283 14.623 5.91 29.138 20.533 32.421 14.623 3.283 29.139-5.91 32.422-20.534Z" opacity=".5" style="mix-blend-mode:screen"/><path fill="url(#c)" fill-rule="evenodd" d="M33.078 15.867a20.105 20.105 0 1 1 0 40.21 20.105 20.105 0 0 1 0-40.21Z" clip-rule="evenodd"/><path fill="url(#d)" fill-rule="evenodd" d="M33.078 15.867a20.105 20.105 0 1 1 0 40.21 20.105 20.105 0 0 1 0-40.21Z" clip-rule="evenodd" style="mix-blend-mode:multiply"/><path fill="url(#e)" fill-rule="evenodd" d="M39.263 20.878c4.532 4.516 3.588 12.79-2.103 18.466-5.691 5.676-13.919 6.619-18.465 2.103-4.547-4.516-3.573-12.79 2.103-18.466 5.676-5.675 13.919-6.619 18.465-2.103Z" clip-rule="evenodd" opacity=".4" style="mix-blend-mode:screen"/><path fill="url(#f)" fill-rule="evenodd" d="M21.587 23.94c4.5-4.5 10.934-5.382 14.368-1.917 3.433 3.464 2.582 9.867-1.918 14.367s-10.934 5.367-14.367 1.918c-3.434-3.45-2.614-9.883 1.917-14.368Z" clip-rule="evenodd" opacity=".75" style="mix-blend-mode:screen"/><path fill="url(#g)" fill-rule="evenodd" d="M47.986 25.549a18.234 18.234 0 0 1 2.8 9.79 18.558 18.558 0 0 1-26.292 16.78A19.1 19.1 0 0 0 45.666 24.28c-.603-1.083 1.547 0 2.258 1.221l.062.047Z" clip-rule="evenodd" style="mix-blend-mode:screen"/><path fill="url(#h)" fill-rule="evenodd" d="M33.078 15.867a20.105 20.105 0 1 1 0 40.21 20.105 20.105 0 0 1 0-40.21Z" clip-rule="evenodd" style="mix-blend-mode:screen"/><path fill="url(#i)" fill-rule="evenodd" d="m40.33 10.934 10.827 6.186-3.79 5.444c-.463.804-3.092.186-5.737-1.376-2.645-1.562-4.578-3.45-4.114-4.176l2.815-6v-.078Z" clip-rule="evenodd"/><path fill="url(#j)" fill-rule="evenodd" d="M46.641 12.45c2.985 1.716 4.98 3.82 4.47 4.64-.51.819-3.341.2-6.31-1.547-2.97-1.748-4.98-3.82-4.47-4.64.51-.82 3.34-.2 6.31 1.547Z" clip-rule="evenodd"/><path fill="#1181C7" fill-rule="evenodd" d="m37.965 18.342 2.877-5.861c-.48-.604-.68-1.114-.542-1.547l-2.783 6.078v.077c-.109.325.077.789.494 1.33l-.046-.077Z" clip-rule="evenodd" opacity=".5" style="mix-blend-mode:multiply"/><path fill="url(#k)" fill-rule="evenodd" d="M41.8 13.501 38.86 19.27c.552.505 1.147.96 1.779 1.36l3.093-5.629a16.417 16.417 0 0 1-1.949-1.546l.016.046Z" clip-rule="evenodd" style="mix-blend-mode:screen"/><path fill="url(#l)" fill-rule="evenodd" d="M48.14 17.166c-1.175 1.81-2.35 3.62-3.51 5.444 1.376.433 2.412.464 2.69 0l3.759-5.382c-.371.449-1.547.387-2.923 0l-.015-.062Z" clip-rule="evenodd" opacity=".6" style="mix-blend-mode:screen"/><path fill="url(#m)" d="M46.548 14.522c-.325.294-1.438 0-1.7-.758-.264-.758.571-1.624.973-1.948.28-1.05.73-2.048 1.33-2.954a6.017 6.017 0 0 1 .387-2.908 6.882 6.882 0 0 1-.448-3.217 1.763 1.763 0 0 1 .695-2.66 1.284 1.284 0 0 1 1.748 1.021 6 6 0 0 1 .65 3.542 7.037 7.037 0 0 1-.279 3.371 6.636 6.636 0 0 1-1.113 3.17 7.733 7.733 0 0 1-2.243 3.31v.031Z"/><path fill="#CBBBA0" fill-rule="evenodd" d="M49.208 4.887c1.3.17.542 2.815-.927 3.387 2.15 0 .525 2.583-.82 2.938 1.299.836-.742 3.418-2.567 2.707.386.557 1.314.804 1.546.541a7.733 7.733 0 0 0 2.243-3.31 6.636 6.636 0 0 0 1.113-3.092c.41-1.09.543-2.265.387-3.418a6.001 6.001 0 0 0-.65-3.542A1.269 1.269 0 0 0 48.11.016c.65.108.99.665.573 1.391 1.299 0 1.407 2.521.54 3.48h-.015Z" clip-rule="evenodd" style="mix-blend-mode:multiply"/><path fill="url(#n)" fill-rule="evenodd" d="M47.306.588c-.387.433-.557 1.407-.248 1.7a.263.263 0 0 0 .294.001c.498-.404.873-.94 1.083-1.547.185-.85-.712-.696-1.13-.216v.062Zm1.098 1.407-.913.82a1.16 1.16 0 0 0-.247.541 5.719 5.719 0 0 0 .108 1.547c.093.494.356.773.712.525a3.356 3.356 0 0 0 1.469-1.7c.068-.431.068-.87 0-1.3-.093-.742-.572-.897-1.13-.433Zm.386 3.402a4.376 4.376 0 0 0-.912.588c-.402.387-.789 1.918-.526 2.212a.371.371 0 0 0 .34 0 2.63 2.63 0 0 0 1.84-1.933c.186-.696.125-1.33-.741-.867Zm-.2 3.094a2.305 2.305 0 0 0-1.547.927 8.412 8.412 0 0 0-.804 1.547c-.067.14-.104.293-.108.449 0 .123.185.108.417 0a10.24 10.24 0 0 0 1.547-.758c.54-.387 1.268-1.3.958-1.995a.48.48 0 0 0-.417-.232l-.047.062Zm-1.547 3.093a2.35 2.35 0 0 0-2.01 1.546c0 .093-.078.263 0 .34.51.356 2.087-.618 2.428-1.268.185-.355 0-.634-.434-.603l.016-.015Z" clip-rule="evenodd" style="mix-blend-mode:screen"/><path fill="url(#o)" fill-rule="evenodd" d="M24.293 22.765c3.449-2.242 7.64-1.918 9.357.727 1.716 2.645.293 6.604-3.093 8.846-3.387 2.243-7.733 1.902-9.372-.742-1.64-2.645-.294-6.604 3.093-8.831h.015Z" clip-rule="evenodd" opacity=".35" style="mix-blend-mode:screen"/></g><defs><radialGradient id="b" cx="0" cy="0" r="1" gradientTransform="rotate(-.087 18242.184 -17797.233) scale(27.1366)" gradientUnits="userSpaceOnUse"><stop stop-color="#FC5BE1"/><stop offset=".12" stop-color="#CD4AB7"/><stop offset=".3" stop-color="#903480"/><stop offset=".47" stop-color="#5C2152"/><stop offset=".63" stop-color="#34132F"/><stop offset=".78" stop-color="#180915"/><stop offset=".91" stop-color="#060206"/><stop offset="1"/></radialGradient><radialGradient id="c" cx="0" cy="0" r="1" gradientTransform="translate(28.67 24.358) scale(31.6112)" gradientUnits="userSpaceOnUse"><stop stop-color="#4D6187"/><stop offset=".88" stop-color="#0F2036"/></radialGradient><radialGradient id="d" cx="0" cy="0" r="1" gradientTransform="translate(33.356 43.52) scale(36.5755)" gradientUnits="userSpaceOnUse"><stop offset=".54" stop-color="#fff"/><stop offset=".58" stop-color="#EDEDED"/><stop offset=".68" stop-color="#BFBFBF"/><stop offset=".81" stop-color="#757575"/><stop offset=".98" stop-color="#101010"/><stop offset="1"/></radialGradient><radialGradient id="e" cx="0" cy="0" r="1" gradientTransform="translate(23.257 18.991) scale(27.1107)" gradientUnits="userSpaceOnUse"><stop stop-color="#312169"/><stop offset="1"/></radialGradient><radialGradient id="f" cx="0" cy="0" r="1" gradientTransform="translate(18.34 17.182) scale(33.8382)" gradientUnits="userSpaceOnUse"><stop stop-color="#232C69"/><stop offset="1"/></radialGradient><radialGradient id="g" cx="0" cy="0" r="1" gradientTransform="translate(31.871 22.95) scale(31.1163)" gradientUnits="userSpaceOnUse"><stop stop-color="#232C69"/><stop offset="1"/></radialGradient><radialGradient id="h" cx="0" cy="0" r="1" gradientTransform="translate(31.47 34.148) scale(23.3991)" gradientUnits="userSpaceOnUse"><stop offset=".83"/><stop offset=".85" stop-color="#000812"/><stop offset=".9" stop-color="#001C40"/><stop offset=".96" stop-color="#003B89"/><stop offset="1" stop-color="#0052BD"/></radialGradient><radialGradient id="i" cx="0" cy="0" r="1" gradientTransform="translate(43.656 12.48) scale(15.4499)" gradientUnits="userSpaceOnUse"><stop stop-color="#4D6187"/><stop offset=".86" stop-color="#0F2036"/></radialGradient><radialGradient id="j" cx="0" cy="0" r="1" gradientTransform="translate(40.1 15.063) scale(16.9036)" gradientUnits="userSpaceOnUse"><stop stop-color="#374969"/><stop offset=".86" stop-color="#141B24"/></radialGradient><radialGradient id="k" cx="0" cy="0" r="1" gradientTransform="translate(38.83 11.367) scale(12.728)" gradientUnits="userSpaceOnUse"><stop stop-color="#232C69"/><stop offset="1"/></radialGradient><radialGradient id="m" cx="0" cy="0" r="1" gradientTransform="translate(45.497 .711) scale(15.4808)" gradientUnits="userSpaceOnUse"><stop stop-color="#AD8550"/><stop offset=".37" stop-color="#96723E"/><stop offset="1" stop-color="#664918"/></radialGradient><radialGradient id="n" cx="0" cy="0" r="1" gradientTransform="translate(44.414 6.604) scale(7.62441)" gradientUnits="userSpaceOnUse"><stop offset=".35" stop-color="#B17F4A"/><stop offset="1"/></radialGradient><radialGradient id="o" cx="0" cy="0" r="1" gradientTransform="rotate(12.08 -50.859 96.31) scale(23.7857)" gradientUnits="userSpaceOnUse"><stop stop-color="#636BA3"/><stop offset="1"/></radialGradient><linearGradient id="l" x1="45.48" x2="48.728" y1="18.265" y2="20.538" gradientUnits="userSpaceOnUse"><stop offset=".17"/><stop offset=".28" stop-color="#000812"/><stop offset=".5" stop-color="#001C40"/><stop offset=".8" stop-color="#003B89"/><stop offset="1" stop-color="#0052BD"/></linearGradient><clipPath id="a"><path fill="#fff" d="M.044 0H54.08v56H.044z"/></clipPath></defs></svg>