<svg xmlns="http://www.w3.org/2000/svg" width="41" height="40" fill="none"><path fill="url(#a)" d="M36.703 23.477c1.796-8.725-2.733-17.358-10.116-19.282-7.383-1.925-14.824 3.589-16.62 12.314-1.797 8.725 2.732 17.358 10.115 19.282 7.383 1.924 14.824-3.59 16.62-12.314Z" opacity=".75" style="mix-blend-mode:screen"/><path fill="url(#b)" fill-rule="evenodd" d="M20.104 4.042c.327.254.58.618.728 1.045.147.427.183.9.102 1.356-.08.457-.275.879-.557 1.211-.282.333-.64.562-1.029.658-.388.096-.79.055-1.153-.118a2.04 2.04 0 0 1-.89-.853 2.613 2.613 0 0 1-.326-1.3c.004-.466.124-.922.347-1.311.3-.52.761-.885 1.281-1.014a1.743 1.743 0 0 1 1.497.326Z" clip-rule="evenodd"/><path fill="url(#c)" fill-rule="evenodd" d="M19.774 4.164c.247.195.437.473.548.798.11.326.135.684.072 1.031a1.948 1.948 0 0 1-.427.918 1.507 1.507 0 0 1-.783.496c-.296.071-.6.039-.877-.093a1.554 1.554 0 0 1-.674-.65 1.988 1.988 0 0 1-.247-.99c.004-.352.096-.699.265-.995.23-.397.582-.674.98-.77a1.329 1.329 0 0 1 1.143.255Z" clip-rule="evenodd" style="mix-blend-mode:screen"/><path fill="url(#d)" fill-rule="evenodd" d="M18.707 4.104c.258-.1.536-.08.777.056.24.136.425.378.515.675.01.313-.085.621-.263.86a1.018 1.018 0 0 1-.692.42.89.89 0 0 1-.773-.058 1.136 1.136 0 0 1-.51-.673 1.367 1.367 0 0 1 .26-.863c.179-.24.428-.389.695-.417h-.009Z" clip-rule="evenodd" style="mix-blend-mode:screen"/><path fill="url(#e)" fill-rule="evenodd" d="M20.632 5c.163.426.201.907.109 1.368-.093.461-.31.877-.62 1.185-.31.307-.694.489-1.095.517a1.61 1.61 0 0 1-1.123-.36 1.945 1.945 0 0 1-.54-.662c.091.127.195.24.309.338.314.244.685.37 1.065.362.38-.008.752-.15 1.068-.406a2.28 2.28 0 0 0 .703-1.035 2.62 2.62 0 0 0 .098-1.31l.026.003Z" clip-rule="evenodd" style="mix-blend-mode:screen"/><path fill="url(#f)" d="M17.497 8.584a5.3 5.3 0 0 0 1.002.64c.169.12.37.163.568.12a.83.83 0 0 0 .5-.356c.217-.386.116-.823-.223-1.235a5.854 5.854 0 0 0-.884-.837 5.894 5.894 0 0 0-1.002-.64c-.456-.215-.86-.15-1.069.236-.208.386-.124.832.223 1.235.267.316.564.597.885.837Z"/><path fill="url(#g)" fill-rule="evenodd" d="M18.499 9.224a5.3 5.3 0 0 1-1.002-.64c-.32-.24-.617-.52-.885-.837a1.244 1.244 0 0 1-.281-.48.387.387 0 0 1 .02-.296.308.308 0 0 1 .093-.112.247.247 0 0 1 .126-.048c.171 0 .34.04.497.115.348.177.68.39.993.64.32.245.62.525.893.838.116.14.211.302.282.48a.387.387 0 0 1-.02.306.327.327 0 0 1-.095.11.264.264 0 0 1-.125.05 1.148 1.148 0 0 1-.488-.125H18.5Z" clip-rule="evenodd" style="mix-blend-mode:multiply"/><path fill="url(#h)" fill-rule="evenodd" d="M16.651 6.632a.185.185 0 0 1 .012-.184c.486-.623 2.357.946 2.304 1.752a4.85 4.85 0 0 0-2.07-1.46c-.113-.007-.26-.017-.272-.11l.026.002Z" clip-rule="evenodd" style="mix-blend-mode:screen"/><path fill="url(#i)" fill-rule="evenodd" d="M25.05 37.01c-3.888-3.72-6.677-4.325-8.539-6.17a1.999 1.999 0 0 1-.464-.615.852.852 0 0 1-.087-.442.852.852 0 0 1 .145-.425 158.462 158.462 0 0 0 7.385-12.835c-.154.36-.053.796.503 1.346 1.871 1.835 4.65 2.45 8.538 6.17a71.537 71.537 0 0 0-7.483 13.002l.002-.03Z" clip-rule="evenodd"/><path fill="url(#j)" fill-rule="evenodd" d="M31.432 23.024a26.297 26.297 0 0 0-3.914-2.79 79.018 79.018 0 0 1-3.413 6.599 76.985 76.985 0 0 1-4.073 6.433c1.37.8 2.679 1.73 3.916 2.78a40.452 40.452 0 0 1 3.15-6.853 37.157 37.157 0 0 1 4.334-6.17Z" clip-rule="evenodd" opacity=".75" style="mix-blend-mode:screen"/><path fill="url(#k)" fill-rule="evenodd" d="M19.54 32.936a25.146 25.146 0 0 1 3.162-7.538 26.485 26.485 0 0 1 4.054-5.625 13.76 13.76 0 0 1-2.762-1.935c-.555-.55-.657-.986-.502-1.345a158.446 158.446 0 0 1-7.385 12.834.852.852 0 0 0-.145.426c-.01.155.02.31.087.441a2 2 0 0 0 .464.615 15.02 15.02 0 0 0 3.03 2.096l-.003.031Z" clip-rule="evenodd" style="mix-blend-mode:multiply"/><path fill="url(#l)" fill-rule="evenodd" d="M26.037 34.852c-3.506-3.307-6.064-3.978-7.834-5.643a4.588 4.588 0 0 1-.933-.892.945.945 0 0 1-.154-.563l-.555.886a.902.902 0 0 0-.01.33c.017.109.054.212.108.301.199.292.434.546.699.753 1.825 1.75 4.492 2.347 8.173 5.891.163-.348.326-.706.506-1.063Zm.627-13.814a17.03 17.03 0 0 1-3.28-2.267c-.424-.418-.566-.775-.52-1.06l-.586 1.09c.02.19.074.374.16.537.084.162.199.302.334.407a15.574 15.574 0 0 0 3.045 2.118 34.748 34.748 0 0 1 5.427 3.997l.636-.931a30.085 30.085 0 0 0-5.208-3.89l-.008-.001Z" clip-rule="evenodd"/><path fill="url(#m)" fill-rule="evenodd" d="M22.773 19.735c.769.701 1.605 1.297 2.493 1.774.248-.322.493-.613.73-.895a12.309 12.309 0 0 1-2.586-1.83c-.425-.418-.567-.776-.522-1.06l-.585 1.088c.02.191.074.375.16.538.084.162.199.301.334.407l-.024-.022ZM20.18 30.642a12.003 12.003 0 0 1-1.977-1.433 4.59 4.59 0 0 1-.933-.891.945.945 0 0 1-.154-.564l-.555.886a.903.903 0 0 0-.01.33.826.826 0 0 0 .108.301c.198.292.434.546.698.754.774.687 1.61 1.272 2.496 1.743.102-.362.222-.733.361-1.124l-.034-.002Z" clip-rule="evenodd" style="mix-blend-mode:multiply"/><path fill="url(#n)" fill-rule="evenodd" d="M18.62 28.171a87.284 87.284 0 0 0 7.533-13.1c-.185.438-.804.581-1.335.71-.53.13-1.15.273-1.326.712a139.279 139.279 0 0 1-7.448 12.727 2.715 2.715 0 0 1 1.3-.436 2.056 2.056 0 0 0 1.276-.613Z" clip-rule="evenodd"/><path fill="url(#o)" fill-rule="evenodd" d="M18.72 28.25a88.982 88.982 0 0 0 7.434-13.18c.146-.37.053-.796-.503-1.345-1.346-1.36-3.945-2.587-6.76-4.629l-7.484 13.012c2.815 2.042 5.38 3.267 6.76 4.63.327.318.884.98.553 1.511Z" clip-rule="evenodd"/><path fill="url(#p)" fill-rule="evenodd" d="M25.651 13.725c-.263-.26-.537-.503-.822-.73-1.017 2.218-2.273 4.635-3.7 7.113a79.287 79.287 0 0 1-3.714 5.903c.288.207.564.438.824.69.327.319.884.98.553 1.512a88.982 88.982 0 0 0 7.434-13.179c.146-.37.053-.796-.503-1.345l-.072.036Z" clip-rule="evenodd" style="mix-blend-mode:screen"/><path fill="url(#q)" fill-rule="evenodd" d="M26.535 22.32a33.074 33.074 0 0 1 3.467 2.454l.712-.886a31.418 31.418 0 0 0-3.666-2.61c-.162.345-.332.675-.51.992l-.003.05Zm-1.723 11.447a27.917 27.917 0 0 0-3.5-2.466c-.214.324-.427.648-.64.982a26.622 26.622 0 0 1 3.666 2.59c.138-.37.293-.74.448-1.108l.026.002Z" clip-rule="evenodd" style="mix-blend-mode:screen"/><path fill="url(#r)" fill-rule="evenodd" d="M22.92 11.74c-1.186-.754-2.576-1.584-4.03-2.644L11.417 22.11c1.492 1.124 2.926 1.946 4.171 2.715.972-1.524 1.878-3.124 2.832-4.783a211.732 211.732 0 0 0 4.526-8.299l-.026-.001Z" clip-rule="evenodd" style="mix-blend-mode:multiply"/><path fill="url(#s)" d="M11.484 21.99c1.212.88 2.373 1.613 3.417 2.276 1.17.672 2.282 1.47 3.324 2.383.236.206.424.48.548.794a.99.99 0 0 1-.047.704 1.08 1.08 0 0 1-.602.545c-.266.106-.54.187-.816.243-.262.055-.52.134-.773.236a.845.845 0 0 0-.48.409.622.622 0 0 0-.032.48c.11.274.276.511.486.687.87.784 1.816 1.445 2.82 1.97a29.608 29.608 0 0 1 5.641 4.309.374.374 0 0 1-.267.095 28.767 28.767 0 0 0-5.478-4.155 14.658 14.658 0 0 1-2.792-1.988 2.04 2.04 0 0 1-.548-.795.939.939 0 0 1 .046-.704c.126-.261.333-.457.576-.546.262-.112.533-.194.808-.244.265-.054.526-.133.782-.235a.858.858 0 0 0 .47-.41.647.647 0 0 0 .033-.49 1.944 1.944 0 0 0-.485-.687 20.135 20.135 0 0 0-3.327-2.342c-1.052-.664-2.223-1.387-3.434-2.277l.128-.227.002-.03Z"/><path fill="url(#t)" fill-rule="evenodd" d="M19.467 24.845c-1.38-1.362-4.045-2.655-6.91-4.74l-.57.986c2.84 2.074 5.463 3.334 6.843 4.706.352.331.866.98.545 1.491.203-.294.415-.618.648-.981.286-.504-.195-1.12-.554-1.482l-.002.02Zm6.224-8.699c.146-.37.054-.816-.512-1.335-1.389-1.373-4.012-2.633-6.816-4.704l-.579.986c2.872 2.097 5.534 3.441 6.925 4.763.516.495.686.957.52 1.346.182-.367.345-.725.506-1.063l-.044.007Z" clip-rule="evenodd"/><path fill="url(#u)" fill-rule="evenodd" d="M25.691 16.146c.147-.37.054-.816-.512-1.335a9.105 9.105 0 0 0-.89-.735l-.51.99c.31.229.608.481.89.756.515.496.685.958.52 1.347.18-.367.343-.726.505-1.063l-.003.04Zm-5.669 10.181c.286-.504-.195-1.12-.554-1.482-.36-.362-.518-.464-.824-.71l-.63.983c.289.213.564.45.823.71.352.331.866.98.545 1.492.202-.294.415-.619.648-.982l-.008-.011Z" clip-rule="evenodd" style="mix-blend-mode:screen"/><path fill="url(#v)" fill-rule="evenodd" d="M17.74 11.1c1.466 1.123 2.884 1.934 4.103 2.701l.536-.99c-1.2-.796-2.607-1.648-4.016-2.704l-.579.986-.044.008Zm-.996 11.761c-1.235-.789-2.683-1.663-4.169-2.756l-.57.988c1.501 1.124 2.942 1.967 4.17 2.745.204-.325.4-.66.596-.985l-.027.008Z" clip-rule="evenodd" style="mix-blend-mode:multiply"/><path fill="url(#w)" fill-rule="evenodd" d="M18.028 7.666c.333.258.631.571.887.93.2.28.279.53.2.67l-3.875 6.732-3.708 6.457-1.38-1.116-1.37-1.116c1.271-2.119 2.535-4.249 3.773-6.39 1.239-2.143 2.594-4.605 3.808-6.78.079-.137.306-.153.603-.041.378.142.737.345 1.066.603l-.004.051Z" clip-rule="evenodd"/><path fill="url(#x)" fill-rule="evenodd" d="M13.113 13.951a630.542 630.542 0 0 0 3.878-6.917c-.29-.101-.516-.096-.603.032-1.184 2.114-2.473 4.489-3.698 6.56-.177.316-.355.632-.544.989a251.556 251.556 0 0 1-3.365 5.608c.088-.137.331-.132.646-.018a441.821 441.821 0 0 0 3.689-6.295l-.003.041Z" clip-rule="evenodd" style="mix-blend-mode:multiply"/><path fill="url(#y)" fill-rule="evenodd" d="M17.352 7.232a628.792 628.792 0 0 1-3.939 6.913c-1.267 2.181-2.407 4.155-3.631 6.216.232.128.455.276.667.444l.14.102a688.581 688.581 0 0 0 3.586-6.168l3.988-7.002-.132-.112a6.384 6.384 0 0 0-.676-.434l-.003.041Z" clip-rule="evenodd" style="mix-blend-mode:screen"/><path fill="url(#z)" fill-rule="evenodd" d="m18.675 8.273-3.939 6.913c-1.2 2.093-2.4 4.176-3.616 6.258.365.403.548.784.44.972l3.707-6.437.148-.256 3.7-6.468c.079-.138.026-.388-.2-.67-.07-.106-.151-.204-.24-.312Z" clip-rule="evenodd" style="mix-blend-mode:multiply"/><path fill="#A71B00" fill-rule="evenodd" d="M10.445 20.846c.762.593 1.254 1.302 1.088 1.578-.166.276-.872.035-1.703-.563-.83-.598-1.253-1.313-1.087-1.589.166-.276.872-.034 1.702.574Z" clip-rule="evenodd"/><path fill="url(#A)" fill-rule="evenodd" d="M11.307 22.44c-1.243 2.08-1.513 2.472-2.723 4.585s-4.811 8.393-5.963 10.54l-1.241-.963-1.243-.953c1.27-2.079 4.905-8.356 6.15-10.467 1.244-2.11 1.43-2.539 2.598-4.685.07-.119.262-.137.534-.047.335.126.652.309.94.544.305.22.58.494.816.812.175.247.247.467.17.595l-.038.039Z" clip-rule="evenodd"/><path fill="url(#B)" fill-rule="evenodd" d="M11.14 21.814a3.164 3.164 0 0 0-.446-.511l-2.8 4.826c-1.257 2.171-4.917 8.56-6.159 10.753l.886.684c1.17-2.147 4.764-8.468 5.982-10.57 1.219-2.102 1.48-2.505 2.723-4.585.078-.129.023-.347-.17-.596l-.017-.001Z" clip-rule="evenodd" style="mix-blend-mode:multiply"/><path fill="url(#C)" fill-rule="evenodd" d="M.51 35.92c1.275-2.16 4.977-8.516 6.236-10.707 1.259-2.192 1.468-2.599 2.665-4.774-.264-.09-.459-.03-.525.047-1.17 2.167-1.382 2.604-2.6 4.696C5.07 27.274 1.406 33.57.137 35.65l.357.27H.51Z" clip-rule="evenodd" style="mix-blend-mode:multiply"/><path fill="url(#D)" fill-rule="evenodd" d="M1.644 36.148c.67.526 1.107 1.16.96 1.406-.147.247-.802.019-1.48-.508-.68-.526-1.108-1.149-.987-1.397.12-.248.81-.018 1.489.508l.018-.009Z" clip-rule="evenodd"/><path fill="url(#E)" fill-rule="evenodd" d="M10.3 20.96a3.93 3.93 0 0 0-.738-.44C6.177 26.447 2.09 33.77 2.271 33.916c.182.145 4.604-6.982 8.028-12.956Z" clip-rule="evenodd" style="mix-blend-mode:screen"/><path fill="url(#F)" fill-rule="evenodd" d="M12.791 20.253c.168-.307-.409-1.052-1.087-1.589a2.332 2.332 0 0 0-1.567-.657l-.613.984c.262-.146.948.145 1.593.649.646.504 1.255 1.292 1.088 1.578l.587-.985-.001.02ZM16.867 9.68c.323.257 1.314 1.184 1.087 1.589.197-.336.385-.682.58-.987.194-.305-.78-1.373-1.088-1.588-.308-.216-1.29-.895-1.612-.63l-.553.988c.344-.192 1.295.424 1.585.648l.001-.02Z" clip-rule="evenodd"/><path fill="url(#G)" fill-rule="evenodd" d="M16.209 9.257c.227.124.447.266.66.423l.139.122.579-.987-.14-.111a5.112 5.112 0 0 0-.668-.434l-.57.987Zm-4.356 9.53-.148-.123a4.509 4.509 0 0 0-.651-.422l-.588.986c.228.122.445.266.65.432l.15.113.587-.986Z" clip-rule="evenodd" style="mix-blend-mode:screen"/><path fill="url(#H)" fill-rule="evenodd" d="M15.283 9.032a.745.745 0 0 1 .572.038c.196-.336.384-.682.57-.987-.247-.088-.47-.134-.59-.04l-.552.989Zm-4.576 9.044a.87.87 0 0 0-.571-.038l-.614.984a.827.827 0 0 1 .59.039l.595-.985Z" clip-rule="evenodd" style="mix-blend-mode:multiply"/><path fill="url(#I)" fill-rule="evenodd" d="m12.36 19.282-.588.985c.348.403.54.784.432.972l.587-.986c.109-.198-.092-.58-.432-.971Zm5.12-8.988c.307.349.568.745.44.972l.579-.986c.137-.237-.132-.634-.44-.972l-.58.986Z" clip-rule="evenodd" style="mix-blend-mode:multiply"/><path fill="url(#J)" fill-rule="evenodd" d="M27.311 15.587a3.397 3.397 0 0 1-.54 1.639 2.693 2.693 0 0 1-1.216 1.029c-.48.196-.996.222-1.483.073a2.461 2.461 0 0 1-1.25-.907 3.203 3.203 0 0 1-.595-1.582c-.06-.589.03-1.189.26-1.724.229-.535.586-.982 1.027-1.284.44-.302.945-.445 1.448-.412.676.045 1.303.404 1.744.998.44.594.658 1.375.605 2.17Z" clip-rule="evenodd" opacity=".75" style="mix-blend-mode:screen"/><defs><linearGradient id="f" x1="16.389" x2="19.849" y1="6.512" y2="8.496" gradientUnits="userSpaceOnUse"><stop offset=".05" stop-color="#ED9500"/><stop offset=".4" stop-color="#FC0"/><stop offset=".93" stop-color="#B36600"/></linearGradient><linearGradient id="i" x1="19.549" x2="29.588" y1="23.344" y2="29.116" gradientUnits="userSpaceOnUse"><stop stop-color="#9C0E0E"/><stop offset=".69" stop-color="#FC3F00"/><stop offset="1" stop-color="#C4020B"/></linearGradient><linearGradient id="j" x1="22.525" x2="28.283" y1="25.591" y2="28.903" gradientUnits="userSpaceOnUse"><stop/><stop offset=".13" stop-color="#3E1111"/><stop offset=".31" stop-color="#902727"/><stop offset=".47" stop-color="#CC3737"/><stop offset=".58" stop-color="#F14141"/><stop offset=".64" stop-color="#FF4545"/><stop offset=".68" stop-color="#F24040"/><stop offset=".77" stop-color="#D03333"/><stop offset=".89" stop-color="#991D1D"/><stop offset="1" stop-color="#630808"/></linearGradient><linearGradient id="k" x1="19.549" x2="23.685" y1="23.344" y2="25.723" gradientUnits="userSpaceOnUse"><stop stop-color="#800C0C"/><stop offset="1" stop-color="#FFE4BF"/></linearGradient><linearGradient id="l" x1="19.551" x2="29.447" y1="23.447" y2="29.147" gradientUnits="userSpaceOnUse"><stop offset=".07" stop-color="#B36600"/><stop offset=".6" stop-color="#FC0"/><stop offset=".95" stop-color="#ED9500"/></linearGradient><linearGradient id="m" x1="19.55" x2="23.147" y1="23.447" y2="25.52" gradientUnits="userSpaceOnUse"><stop offset=".57" stop-color="#FFA163"/><stop offset="1" stop-color="#FFE4BF"/></linearGradient><linearGradient id="n" x1="20.42" x2="22.186" y1="21.619" y2="22.633" gradientUnits="userSpaceOnUse"><stop stop-color="#960007"/><stop offset="1" stop-color="#610000"/></linearGradient><linearGradient id="o" x1="15.203" x2="23.584" y1="15.504" y2="20.324" gradientUnits="userSpaceOnUse"><stop stop-color="#9C0E0E"/><stop offset=".75" stop-color="#FC3F00"/><stop offset="1" stop-color="#C4020B"/></linearGradient><linearGradient id="p" x1="20.822" x2="23.084" y1="19.893" y2="21.194" gradientUnits="userSpaceOnUse"><stop/><stop offset=".68" stop-color="#FF7373"/><stop offset=".74" stop-color="#F26D6D"/><stop offset=".84" stop-color="#D05E5E"/><stop offset=".97" stop-color="#994545"/><stop offset="1" stop-color="#8C3F3F"/></linearGradient><linearGradient id="q" x1="23.915" x2="27.817" y1="26.677" y2="28.921" gradientUnits="userSpaceOnUse"><stop/><stop offset=".02" stop-color="#0F0E0B"/><stop offset=".1" stop-color="#4E4936"/><stop offset=".18" stop-color="#847C5B"/><stop offset=".25" stop-color="#B0A67A"/><stop offset=".33" stop-color="#D2C691"/><stop offset=".4" stop-color="#EBDDA2"/><stop offset=".46" stop-color="#FAEBAC"/><stop offset=".51" stop-color="#FFF0B0"/><stop offset=".56" stop-color="#F9EAAC"/><stop offset=".62" stop-color="#E8DAA0"/><stop offset=".69" stop-color="#CCC08D"/><stop offset=".77" stop-color="#A59B72"/><stop offset=".85" stop-color="#736C4F"/><stop offset=".93" stop-color="#373326"/><stop offset="1"/></linearGradient><linearGradient id="r" x1="15.252" x2="21.93" y1="15.425" y2="19.267" gradientUnits="userSpaceOnUse"><stop stop-color="#FF3030"/><stop offset="1" stop-color="#FFE4BF"/></linearGradient><linearGradient id="s" x1="10.599" x2="27.289" y1="23.521" y2="33.117" gradientUnits="userSpaceOnUse"><stop stop-color="#C4020B"/><stop offset="1" stop-color="#FC3F00"/></linearGradient><linearGradient id="t" x1="15.212" x2="23.503" y1="15.504" y2="20.271" gradientUnits="userSpaceOnUse"><stop offset=".07" stop-color="#B36600"/><stop offset=".6" stop-color="#FC0"/><stop offset=".95" stop-color="#ED9500"/></linearGradient><linearGradient id="u" x1="20.897" x2="22.996" y1="19.949" y2="21.152" gradientUnits="userSpaceOnUse"><stop/><stop offset="1" stop-color="#FFF0B0"/></linearGradient><linearGradient id="v" x1="15.252" x2="19.579" y1="15.425" y2="17.92" gradientUnits="userSpaceOnUse"><stop stop-color="#FFA163"/><stop offset="1" stop-color="#FFE4BF"/></linearGradient><linearGradient id="w" x1="12.712" x2="15.714" y1="13.433" y2="15.165" gradientUnits="userSpaceOnUse"><stop stop-color="#9C0E0E"/><stop offset=".3" stop-color="#FC3F00"/><stop offset="1" stop-color="#C4020B"/></linearGradient><linearGradient id="x" x1="12.673" x2="13.195" y1="13.502" y2="13.798" gradientUnits="userSpaceOnUse"><stop stop-color="#800C0C"/><stop offset="1" stop-color="#FFE4BF"/></linearGradient><linearGradient id="y" x1="13.345" x2="14.851" y1="13.598" y2="14.468" gradientUnits="userSpaceOnUse"><stop/><stop offset=".09" stop-color="#3E1111"/><stop offset=".21" stop-color="#902727"/><stop offset=".31" stop-color="#CC3737"/><stop offset=".38" stop-color="#F14141"/><stop offset=".42" stop-color="#FF4545"/><stop offset=".5" stop-color="#F24040"/><stop offset=".64" stop-color="#D03333"/><stop offset=".83" stop-color="#991D1D"/><stop offset="1" stop-color="#630808"/></linearGradient><linearGradient id="z" x1="14.761" x2="15.509" y1="15.085" y2="15.516" gradientUnits="userSpaceOnUse"><stop stop-color="#FFE4BF"/><stop offset="1" stop-color="#800C0C"/></linearGradient><linearGradient id="A" x1="4.648" x2="7.316" y1="27.851" y2="29.386" gradientUnits="userSpaceOnUse"><stop stop-color="#546578"/><stop offset=".32" stop-color="#8DA0B8"/><stop offset="1" stop-color="#546578"/></linearGradient><linearGradient id="B" x1="6.045" x2="7.018" y1="28.958" y2="29.515" gradientUnits="userSpaceOnUse"><stop stop-color="#fff"/><stop offset=".52" stop-color="#C3CEE0"/><stop offset="1" stop-color="#8A9FC2"/></linearGradient><linearGradient id="C" x1="4.608" x2="6.087" y1="27.92" y2="28.773" gradientUnits="userSpaceOnUse"><stop stop-color="#8A9FC2"/><stop offset=".48" stop-color="#C3CEE0"/><stop offset="1" stop-color="#fff"/></linearGradient><linearGradient id="F" x1="12.777" x2="13.966" y1="13.365" y2="14.047" gradientUnits="userSpaceOnUse"><stop offset=".07" stop-color="#B36600"/><stop offset=".6" stop-color="#FC0"/><stop offset=".95" stop-color="#ED9500"/></linearGradient><linearGradient id="G" x1="13.634" x2="14.49" y1="13.709" y2="14.202" gradientUnits="userSpaceOnUse"><stop stop-color="#FFF0B0"/><stop offset="1"/></linearGradient><linearGradient id="H" x1="12.758" x2="13.245" y1="13.384" y2="13.663" gradientUnits="userSpaceOnUse"><stop stop-color="#FFA163"/><stop offset="1" stop-color="#FFE4BF"/></linearGradient><linearGradient id="I" x1="14.809" x2="15.557" y1="15.006" y2="15.437" gradientUnits="userSpaceOnUse"><stop stop-color="#FFE4BF"/><stop offset="1" stop-color="#FFA163"/></linearGradient><radialGradient id="a" cx="0" cy="0" r="1" gradientTransform="rotate(3.786 -290.715 362.977) scale(13.7464 16.1876)" gradientUnits="userSpaceOnUse"><stop stop-color="#FF0B00"/><stop offset=".13" stop-color="#CD0900"/><stop offset=".31" stop-color="#900600"/><stop offset=".48" stop-color="#5C0400"/><stop offset=".64" stop-color="#340200"/><stop offset=".78" stop-color="#180100"/><stop offset=".91" stop-color="#060000"/><stop offset="1"/></radialGradient><radialGradient id="b" cx="0" cy="0" r="1" gradientTransform="rotate(37.997 2.038 29.78) scale(2.85547 3.06614)" gradientUnits="userSpaceOnUse"><stop stop-color="#FCCD10"/><stop offset=".22" stop-color="#EDAB09"/><stop offset=".45" stop-color="#E08E02"/><stop offset=".58" stop-color="#DB8300"/><stop offset=".71" stop-color="#D67D00"/><stop offset=".88" stop-color="#C86C00"/><stop offset="1" stop-color="#BA5B00"/></radialGradient><radialGradient id="c" cx="0" cy="0" r="1" gradientTransform="matrix(2.73755 2.13858 -2.29636 2.93951 18.735 3.808)" gradientUnits="userSpaceOnUse"><stop stop-color="#FFE58A"/><stop offset="1"/></radialGradient><radialGradient id="d" cx="0" cy="0" r="1" gradientTransform="rotate(37.997 5.376 28.281) scale(3.42839 3.68132)" gradientUnits="userSpaceOnUse"><stop stop-color="#FFE58A"/><stop offset="1"/></radialGradient><radialGradient id="e" cx="0" cy="0" r="1" gradientTransform="matrix(2.59422 2.02661 -2.17613 2.78561 19.262 5.744)" gradientUnits="userSpaceOnUse"><stop stop-color="#FFE58A"/><stop offset="1"/></radialGradient><radialGradient id="g" cx="0" cy="0" r="1" gradientTransform="matrix(7.4171 .49083 -.578 8.73429 18.854 9.258)" gradientUnits="userSpaceOnUse"><stop stop-color="#E38812"/><stop offset=".11" stop-color="#E6962D"/><stop offset=".73" stop-color="#F8E1C3"/><stop offset="1" stop-color="#fff"/></radialGradient><radialGradient id="h" cx="0" cy="0" r="1" gradientTransform="matrix(2.64277 .17489 -.20595 3.1121 17.148 6.235)" gradientUnits="userSpaceOnUse"><stop stop-color="#FFF0B0"/><stop offset="1"/></radialGradient><radialGradient id="D" cx="0" cy="0" r="1" gradientTransform="matrix(3.50925 .23223 -.27347 4.13246 .93 33.775)" gradientUnits="userSpaceOnUse"><stop stop-color="#ADBDC9"/><stop offset="1" stop-color="#263754"/></radialGradient><radialGradient id="E" cx="0" cy="0" r="1" gradientTransform="rotate(3.786 -294.49 -14.23) scale(13.5728 15.9831)" gradientUnits="userSpaceOnUse"><stop stop-color="#fff"/><stop offset=".11" stop-color="#FAFAFA"/><stop offset=".23" stop-color="#EDEDED"/><stop offset=".36" stop-color="#D6D6D6"/><stop offset=".5" stop-color="#B7B7B7"/><stop offset=".64" stop-color="#8E8E8E"/><stop offset=".78" stop-color="#5C5C5C"/><stop offset=".92" stop-color="#232323"/><stop offset="1"/></radialGradient><radialGradient id="J" cx="0" cy="0" r="1" gradientTransform="matrix(2.54746 .16858 -.19852 2.99986 24.764 15.419)" gradientUnits="userSpaceOnUse"><stop stop-color="#FCEA10"/><stop offset=".12" stop-color="#CDBF0D"/><stop offset=".3" stop-color="#908509"/><stop offset=".47" stop-color="#5C5606"/><stop offset=".63" stop-color="#343103"/><stop offset=".78" stop-color="#181601"/><stop offset=".91" stop-color="#060600"/><stop offset="1"/></radialGradient></defs></svg>