<svg xmlns="http://www.w3.org/2000/svg" width="32" height="32" fill="none"><g clip-path="url(#a)"><path fill="url(#b)" d="M26.577 27.674c6.299-5.988 6.55-15.947.563-22.246-5.987-6.298-15.947-6.55-22.245-.563-6.299 5.988-6.551 15.947-.564 22.246 5.988 6.298 15.948 6.55 22.246.563Z" style="mix-blend-mode:screen"/><path fill="url(#c)" fill-rule="evenodd" d="M13.153 23.752c2.35 1.35 3.667 3.419 2.957 4.684-.71 1.265-3.188 1.128-5.53-.222-2.341-1.35-3.675-3.42-2.957-4.684.718-1.265 3.188-1.137 5.53.222Z" clip-rule="evenodd"/><path fill="#5ACCC9" fill-rule="evenodd" d="M16.24 28.273c-.65 1.112-3.078.907-5.437-.452-2.359-1.36-3.743-3.368-3.11-4.48 1.067 2.044 4.982 4.804 8.546 4.932Z" clip-rule="evenodd" style="mix-blend-mode:multiply"/><path fill="#fff" fill-rule="evenodd" d="m20.136 6.94-.615 1.034c-.855 1.428-.479 1.043-1.838 2.094a5.266 5.266 0 0 1-2.564 1.035c-2.992.538-5.735 1.709-7.316 4.436a7.495 7.495 0 0 0-.966 3.65 8.829 8.829 0 0 0 4.53 7.691 8.847 8.847 0 0 0 8.914.094 7.505 7.505 0 0 0 2.659-2.692c1.58-2.744 1.213-5.692.179-8.547a5.231 5.231 0 0 1-.368-2.71c.231-1.709.086-1.179.898-2.64l.59-1.052a9.402 9.402 0 0 1-2.188-.948 9.818 9.818 0 0 1-1.906-1.41l-.009-.035Z" clip-rule="evenodd" opacity=".15"/><path fill="url(#d)" fill-rule="evenodd" d="M15.384 13.675c4.547 0 8.24 1.71 8.24 3.778s-3.719 3.803-8.24 3.803c-4.521 0-8.24-1.709-8.24-3.777 0-2.069 3.659-3.804 8.24-3.804Z" clip-rule="evenodd"/><path fill="url(#e)" fill-rule="evenodd" d="M15.384 21.256c-4.556 0-8.24-1.709-8.24-3.777 0-.183.029-.365.086-.539a7.376 7.376 0 0 0-.393 2.248 8.83 8.83 0 0 0 4.53 7.692 8.847 8.847 0 0 0 8.914.094 7.505 7.505 0 0 0 2.659-2.692 9.043 9.043 0 0 0 .606-7.188c.034.134.051.272.052.41 0 2.086-3.693 3.778-8.24 3.778l.026-.026Z" clip-rule="evenodd"/><path fill="url(#f)" fill-rule="evenodd" d="M22.222 19.111c0-1.957-3.42-3.547-7.693-3.547-3.418 0-6.265 1-7.307 2.385.47 1.863 3.931 3.307 8.162 3.307a12.871 12.871 0 0 0 6.744-1.598c.054-.169.082-.344.085-.521l.009-.026Z" clip-rule="evenodd" style="mix-blend-mode:screen"/><path fill="url(#g)" fill-rule="evenodd" d="M20.076 19.504c0-1.71-2.948-3.025-6.59-3.025-2.786 0-5.128.786-6.128 1.906.855 1.65 4.129 2.871 8 2.871 1.395.01 2.786-.159 4.137-.504a1.788 1.788 0 0 0 .581-1.248Z" clip-rule="evenodd" style="mix-blend-mode:screen"/><path fill="url(#h)" fill-rule="evenodd" d="M15.385 21.256c-3.872 0-7.12-1.222-8-2.871a1.828 1.828 0 0 1-.171-.402 6.247 6.247 0 0 0-.111 1.137 7.735 7.735 0 0 0 3.974 6.726 7.762 7.762 0 0 0 7.82.086 6.631 6.631 0 0 0 2.334-2.36c.673-1.19.988-2.549.906-3.914a9.283 9.283 0 0 1-2.633 1.12 16.245 16.245 0 0 1-4.137.504l.018-.026Z" clip-rule="evenodd" style="mix-blend-mode:screen"/><path fill="url(#i)" fill-rule="evenodd" d="M15.384 21.256c-3.872 0-7.12-1.222-8-2.871l.052-.06v-.111.162a4.523 4.523 0 0 0-.069.77 6.316 6.316 0 0 0 3.248 5.478 6.307 6.307 0 0 0 6.368.068 5.385 5.385 0 0 0 1.82-1.923c.365-.623.606-1.31.71-2.025a16.24 16.24 0 0 1-4.137.504l.008.008Z" clip-rule="evenodd" style="mix-blend-mode:screen"/><path fill="url(#j)" fill-rule="evenodd" d="m24.307 10.718.7-1.265-.435-.051-.444-.111-.582 1.025a5.743 5.743 0 0 0-.53 5.436c1.017 2.838 1.394 5.76-.17 8.47a7.445 7.445 0 0 1-2.625 2.658 8.761 8.761 0 0 1-8.812-.094 8.762 8.762 0 0 1-4.487-7.598 7.512 7.512 0 0 1 .992-3.598c1.572-2.718 4.273-3.838 7.248-4.385a1.23 1.23 0 0 1 1 .171c.786.59 1.376 1.573 2.64 2.154-.726-.556-1.828-1.838-1.837-2.564a.445.445 0 0 1 .18-.393 6.197 6.197 0 0 0 2.461-2.564l.607-1.018a5.927 5.927 0 0 1-.325-.333 4.029 4.029 0 0 1-.282-.342l-.735 1.248a4.914 4.914 0 0 1-3.863 2.77c-3.274.598-6.154 1.888-7.838 4.811-2.427 4.206-.726 9.735 3.812 12.35 4.539 2.616 10.18 1.334 12.607-2.871 1.71-2.923 1.367-6.06.24-9.197a4.88 4.88 0 0 1 .478-4.709Z" clip-rule="evenodd"/><path fill="url(#k)" fill-rule="evenodd" d="M23.162 11.154a7.743 7.743 0 0 0-.205 3.23c.158 1.202.392 2.393.7 3.565A21.127 21.127 0 0 1 22.3 14.29a7.103 7.103 0 0 1 .855-3.129l.008-.008Z" clip-rule="evenodd" style="mix-blend-mode:screen"/><path fill="url(#l)" fill-rule="evenodd" d="m22.332 7.855 1.958 1.128c-1.556 2.692-3.692 4.367-4.77 3.744-1.076-.624-.7-3.317.855-5.983l1.957 1.136v-.025Z" clip-rule="evenodd" opacity=".5" style="mix-blend-mode:screen"/><path fill="url(#m)" fill-rule="evenodd" d="m21.64 7.376.898.59c-1.06 1.71-2.333 2.846-2.83 2.521-.495-.325-.05-1.94 1.027-3.65l.905.582v-.043Z" clip-rule="evenodd" opacity=".5" style="mix-blend-mode:screen"/><path fill="url(#n)" fill-rule="evenodd" d="M12.247 14.18c-.197-.188-.427-.42-.692-.402-.957.043-2.103 1.23-2.564 1.957a5.983 5.983 0 0 0-.855 5.684c.23.513 1.76 1.444 1.795 1.102a5.419 5.419 0 0 1 .598-2.564 8.888 8.888 0 0 1 2.385-2.666c.931-.718.991-.958.64-1.462a18.502 18.502 0 0 0-1.307-1.71v.06Zm4.128-1.3c.975 1.077.923 1.71.479 2.214-.855.949-2.162.513-3.026-.555-.863-1.069-1.017-1.624-.564-2.103.675-.71 2.137-.641 3.111.444Z" clip-rule="evenodd" style="mix-blend-mode:screen"/><path fill="url(#o)" fill-rule="evenodd" d="M15.76 12.966a1.47 1.47 0 0 0-1.965-.35c-.274.273-.154.615.41 1.273.564.658 1.419.957 1.923.41.265-.29.273-.624-.368-1.333Zm-4.341 1.453c-.112-.069-.24-.069-.445 0a5.256 5.256 0 0 0-1.573 1.513 5.547 5.547 0 0 0-1.12 4.58c.052.163.163.462.317.514.154.05.145 0 .188-.231a5.513 5.513 0 0 1 .65-1.539 10.384 10.384 0 0 1 2.632-2.863c.35-.265.427-.427.385-.573-.297-.5-.643-.97-1.034-1.401Z" clip-rule="evenodd" style="mix-blend-mode:screen"/><path fill="url(#p)" fill-rule="evenodd" d="m21.453 7.376.47.316c-.727 1.231-1.522 2.086-1.778 1.915-.256-.171.128-1.316.855-2.564l.461.316-.008.017Z" clip-rule="evenodd" opacity=".5" style="mix-blend-mode:screen"/><path fill="#7F8E99" fill-rule="evenodd" d="M24.29 10.735c-.265.453-1.521-.162-2.82-1.367-1.3-1.206-2.137-2.565-1.872-3.009a8.435 8.435 0 0 0 2.436 2.009c.913.559 1.926.936 2.983 1.11l-.735 1.274.008-.017Z" clip-rule="evenodd" opacity=".5" style="mix-blend-mode:multiply"/><path fill="url(#q)" fill-rule="evenodd" d="M26.341 9.556c-.53.598-2.461.196-4.444-.95-1.983-1.144-3.29-2.623-3.043-3.367a7.001 7.001 0 0 1 1.308-2.06l3.658 2.103 3.65 2.12a6.95 6.95 0 0 1-1.128 2.154Zm0-2.274-2.76-1.581-2.735-1.573a4.402 4.402 0 0 0-.334.573c-1.025 1.786 4.496 4.974 5.53 3.188.116-.195.22-.398.308-.607h-.009Z" clip-rule="evenodd"/><path fill="#fff" fill-rule="evenodd" d="M26.094 7.949c.14-.227.258-.468.35-.718l-2.812-1.624-2.82-1.624a4.267 4.267 0 0 0-.436.658c-1.103 1.923 4.607 5.214 5.718 3.308Z" clip-rule="evenodd" opacity=".15"/><path fill="#8E633F" fill-rule="evenodd" d="M25.307 7.983c-.299.342-1.47.077-2.683-.624-1.214-.7-1.983-1.521-1.898-1.966a9.88 9.88 0 0 1 .513-1.213l4.82 2.777c-.273.402-.538.77-.752 1.026Z" clip-rule="evenodd"/><path fill="url(#r)" fill-rule="evenodd" d="M15.479 28.359c-2.684.24-6.462-1.71-7.479-4.316a11.701 11.701 0 0 0 7.479 4.316Z" clip-rule="evenodd" style="mix-blend-mode:screen"/><path fill="#fff" fill-rule="evenodd" d="M18.299 27.692a9.135 9.135 0 0 0 5.555-6.564c-.102 3.496-2.256 6.111-5.555 6.564Z" clip-rule="evenodd"/><path fill="url(#s)" fill-rule="evenodd" d="M19.46 6.026c-.127-.658.856-1.992 1.257-2.522l-.555-.324a7.001 7.001 0 0 0-1.308 2.06c-.23.7.855 2.008 2.615 3.102-.812-.581-1.812-1.504-2.008-2.316Z" clip-rule="evenodd" style="mix-blend-mode:screen"/><path fill="url(#t)" fill-rule="evenodd" d="M24.495 4.111c2 1.171 3.35 2.641 2.975 3.29-.376.65-2.316.232-4.333-.94-2.018-1.17-3.35-2.632-2.975-3.281.376-.65 2.316-.231 4.334.931Z" clip-rule="evenodd"/><path fill="#fff" fill-rule="evenodd" d="M26.495 7.692a7.376 7.376 0 0 1-3.53-1.162 11.968 11.968 0 0 1-1.282-.855.581.581 0 0 1-.855.052.957.957 0 0 1-.222-1.086c-.461-.564-.658-1.068-.47-1.393a.154.154 0 0 1 .043-.06c-.248.65 1.128 2.068 3.145 3.23.98.598 2.051 1.028 3.171 1.274Z" clip-rule="evenodd"/><path fill="#8E633F" fill-rule="evenodd" d="M26.316 6.615c-.316.368-1.572.077-2.88-.675-1.308-.752-2.12-1.624-2.069-2.102A27.096 27.096 0 0 1 23.18.085l4.888 4.188c-.59.855-1.128 1.616-1.752 2.35v-.008Z" clip-rule="evenodd"/><path fill="url(#u)" fill-rule="evenodd" d="M26.342 6.137c-.29.325-1.444.051-2.65-.641-1.205-.693-1.957-1.496-1.88-1.923A22.23 22.23 0 0 1 23.368.248L27.82 4.05c-.53.727-.915 1.428-1.48 2.086Z" clip-rule="evenodd" style="mix-blend-mode:screen"/><path fill="url(#v)" fill-rule="evenodd" d="M25.495 2.333c-.991 1.71-1.94 2.564-2.7 1.966-.761-.598-.3-2.205.692-3.923l2.008 1.957Z" clip-rule="evenodd" style="mix-blend-mode:screen"/><path fill="url(#w)" fill-rule="evenodd" d="M23.47 3.684a.624.624 0 0 1 .572.632.855.855 0 0 1-.461.804c-.265.085-.573-.36-.633-.787-.06-.427.188-.71.522-.65Z" clip-rule="evenodd"/><path fill="url(#x)" fill-rule="evenodd" d="M26.615 4.778a.795.795 0 0 1-.274.966.743.743 0 0 1-.906-.163c-.162-.196 0-.59.3-.803.299-.214.726-.257.854 0h.026Z" clip-rule="evenodd"/><path fill="#EDCAA6" fill-rule="evenodd" d="M26.008 1.487C24.615.402 23.376-.29 23.12.162c-.136.231 0 .727.368 1.308a.855.855 0 0 0 .017 1.094.77.77 0 0 0 1.017.188c.163.16.334.311.513.453 1.461 1.145 2.71 1.573 3.034 1.069.325-.505-.658-1.71-2.06-2.787Z" clip-rule="evenodd" opacity=".25" style="mix-blend-mode:screen"/><path fill="#936E4E" fill-rule="evenodd" d="M26.068 1.385c1.367 1.18 2.256 2.427 2 2.889-.257.461-1.573-.112-2.949-1.24s-2.265-2.419-2-2.872c.265-.453 1.581.094 2.949 1.223Z" clip-rule="evenodd"/><path fill="url(#y)" fill-rule="evenodd" d="M25.64 1.154c1.12.931 1.863 1.983 1.641 2.359-.222.376-1.316-.094-2.436-1.009-1.12-.914-1.863-1.991-1.65-2.367.215-.376 1.308.085 2.445 1.017Z" clip-rule="evenodd" style="mix-blend-mode:screen"/><path fill="url(#z)" fill-rule="evenodd" d="M24.897.786c.427.325.71.693.632.855-.077.162-.487 0-.914-.333-.428-.334-.71-.684-.624-.855.085-.17.487 0 .906.325v.008Z" clip-rule="evenodd"/><path fill="url(#A)" fill-rule="evenodd" d="M25.82 2.436c.308.222.496.504.428.624-.069.12-.376 0-.684-.188-.308-.188-.496-.504-.419-.633.077-.128.368 0 .675.197Z" clip-rule="evenodd"/><path fill="url(#B)" fill-rule="evenodd" d="M27.35 3c.342.274.547.607.47.752-.077.145-.419 0-.76-.248-.342-.248-.548-.607-.47-.752.076-.145.418 0 .76.248Z" clip-rule="evenodd"/><path fill="url(#C)" fill-rule="evenodd" d="M24.419 2.564a.58.58 0 0 1-.804-.214.624.624 0 0 1-.06-.854c.206-.163.607 0 .855.308.248.307.214.606 0 .76h.009Z" clip-rule="evenodd"/><path fill="url(#D)" fill-rule="evenodd" d="M22.811 22.607a7.693 7.693 0 0 1-10.564 4.12 15.76 15.76 0 0 0 10.564-4.12Z" clip-rule="evenodd" style="mix-blend-mode:screen"/></g><defs><radialGradient id="b" cx="0" cy="0" r="1" gradientTransform="translate(15.735 16.275) scale(15.735)" gradientUnits="userSpaceOnUse"><stop stop-color="#F33218"/><stop offset=".1" stop-color="#CD2A14"/><stop offset=".29" stop-color="#901E0E"/><stop offset=".46" stop-color="#5C1309"/><stop offset=".63" stop-color="#340B05"/><stop offset=".78" stop-color="#180502"/><stop offset=".91" stop-color="#060101"/><stop offset="1"/></radialGradient><radialGradient id="c" cx="0" cy="0" r="1" gradientTransform="translate(4.854 19.18) scale(14.7692)" gradientUnits="userSpaceOnUse"><stop stop-color="#fff"/><stop offset="1" stop-color="#5E689E"/></radialGradient><radialGradient id="d" cx="0" cy="0" r="1" gradientTransform="translate(12.375 21.889) scale(12.0427)" gradientUnits="userSpaceOnUse"><stop stop-color="#FF4F51"/><stop offset="1" stop-color="#8F0000"/></radialGradient><radialGradient id="e" cx="0" cy="0" r="1" gradientTransform="translate(12.495 19.795) scale(15.3932)" gradientUnits="userSpaceOnUse"><stop stop-color="#FF2B60"/><stop offset=".61" stop-color="#690000"/><stop offset=".89" stop-color="#CF0034"/></radialGradient><radialGradient id="f" cx="0" cy="0" r="1" gradientTransform="translate(13.205 23.436) scale(14.453)" gradientUnits="userSpaceOnUse"><stop stop-color="#E71D73"/><stop offset="1"/></radialGradient><radialGradient id="g" cx="0" cy="0" r="1" gradientTransform="translate(10.179 23.957) scale(12.5556)" gradientUnits="userSpaceOnUse"><stop stop-color="#E71D73"/><stop offset="1"/></radialGradient><radialGradient id="h" cx="0" cy="0" r="1" gradientTransform="translate(14.111 17.684) scale(10.265)" gradientUnits="userSpaceOnUse"><stop stop-color="#E71D73"/><stop offset="1"/></radialGradient><radialGradient id="i" cx="0" cy="0" r="1" gradientTransform="translate(11.65 18.573) scale(9.42735)" gradientUnits="userSpaceOnUse"><stop stop-color="#E71D73"/><stop offset="1"/></radialGradient><radialGradient id="j" cx="0" cy="0" r="1" gradientTransform="translate(14.324 10.624) scale(33.3932)" gradientUnits="userSpaceOnUse"><stop stop-color="#94D4D3"/><stop offset="1" stop-color="#4566C4"/></radialGradient><radialGradient id="l" cx="0" cy="0" r="1" gradientTransform="translate(15.99 5.838) scale(9.90598)" gradientUnits="userSpaceOnUse"><stop stop-color="#fff"/><stop offset="1"/></radialGradient><radialGradient id="m" cx="0" cy="0" r="1" gradientTransform="translate(19.145 7.154) scale(5.32479)" gradientUnits="userSpaceOnUse"><stop stop-color="#fff"/><stop offset="1"/></radialGradient><radialGradient id="n" cx="0" cy="0" r="1" gradientTransform="translate(16.435 21.479) scale(14.3248)" gradientUnits="userSpaceOnUse"><stop offset=".37"/><stop offset="1" stop-color="#fff"/></radialGradient><radialGradient id="o" cx="0" cy="0" r="1" gradientTransform="translate(15.248 19.889) scale(14.6581)" gradientUnits="userSpaceOnUse"><stop/><stop offset="1" stop-color="#fff"/></radialGradient><radialGradient id="p" cx="0" cy="0" r="1" gradientTransform="translate(20.042 7.598) scale(3.82906)" gradientUnits="userSpaceOnUse"><stop stop-color="#fff"/><stop offset="1"/></radialGradient><radialGradient id="q" cx="0" cy="0" r="1" gradientTransform="translate(20.598 3.154) scale(11.7692)" gradientUnits="userSpaceOnUse"><stop stop-color="#CCF0EF"/><stop offset="1" stop-color="#364E82"/></radialGradient><radialGradient id="s" cx="0" cy="0" r="1" gradientTransform="matrix(4.58975 0 0 4.58974 22.427 6.445)" gradientUnits="userSpaceOnUse"><stop/><stop offset="1" stop-color="#fff"/></radialGradient><radialGradient id="t" cx="0" cy="0" r="1" gradientTransform="translate(20.196 3.026) scale(13.7179)" gradientUnits="userSpaceOnUse"><stop stop-color="#F2FFFF"/><stop offset="1" stop-color="#6A79C2"/></radialGradient><radialGradient id="u" cx="0" cy="0" r="1" gradientTransform="translate(23.342 1.316) scale(5.76923)" gradientUnits="userSpaceOnUse"><stop stop-color="#CA9E67"/><stop offset="1"/></radialGradient><radialGradient id="v" cx="0" cy="0" r="1" gradientTransform="translate(23.478 .556) scale(4.21368)" gradientUnits="userSpaceOnUse"><stop stop-color="#CA9E67"/><stop offset="1"/></radialGradient><radialGradient id="y" cx="0" cy="0" r="1" gradientTransform="translate(23.897 -1.444) scale(6.20513)" gradientUnits="userSpaceOnUse"><stop stop-color="#CA9E67"/><stop offset="1"/></radialGradient><radialGradient id="D" cx="0" cy="0" r="1" gradientTransform="translate(16.478 20.83) scale(10.1538)" gradientUnits="userSpaceOnUse"><stop stop-color="#E71D73"/><stop offset="1"/></radialGradient><linearGradient id="k" x1="22.495" x2="24.299" y1="11.154" y2="23.256" gradientUnits="userSpaceOnUse"><stop stop-color="#fff"/><stop offset="1"/></linearGradient><linearGradient id="r" x1="7.624" x2="15.231" y1="24.419" y2="28.966" gradientUnits="userSpaceOnUse"><stop stop-color="#fff"/><stop offset="1"/></linearGradient><linearGradient id="w" x1="23.948" x2="23.008" y1="4.829" y2="3.88" gradientUnits="userSpaceOnUse"><stop stop-color="#B07A38"/><stop offset="1" stop-color="#704824"/></linearGradient><linearGradient id="x" x1="26.478" x2="25.675" y1="5.624" y2="4.821" gradientUnits="userSpaceOnUse"><stop stop-color="#B07A38"/><stop offset="1" stop-color="#704824"/></linearGradient><linearGradient id="z" x1="23.974" x2="25.538" y1="1.034" y2="1.034" gradientUnits="userSpaceOnUse"><stop stop-color="#6B4E35"/><stop offset="1" stop-color="#87643A"/></linearGradient><linearGradient id="A" x1="25.128" x2="26.256" y1="2.65" y2="2.65" gradientUnits="userSpaceOnUse"><stop stop-color="#6B4E35"/><stop offset="1" stop-color="#87643A"/></linearGradient><linearGradient id="B" x1="26.564" x2="27.829" y1="3.256" y2="3.256" gradientUnits="userSpaceOnUse"><stop stop-color="#6B4E35"/><stop offset="1" stop-color="#87643A"/></linearGradient><linearGradient id="C" x1="24.47" x2="23.496" y1="2.539" y2="1.564" gradientUnits="userSpaceOnUse"><stop stop-color="#B07A38"/><stop offset="1" stop-color="#704824"/></linearGradient><clipPath id="a"><path fill="#fff" d="M0 0h31.462v32H0z"/></clipPath></defs></svg>