<svg xmlns="http://www.w3.org/2000/svg" width="30" height="32" fill="none"><g clip-path="url(#a)"><path fill="#4E4E4E" d="m5.005.813 17.498 10.062-3.75 3.75L5.005.813ZM1.379 0l16.063 16L1.381 32a2.294 2.294 0 0 1-1.376-2.19v.003V2.188l-.002-.087c0-.934.56-1.738 1.363-2.094L1.379 0Zm26.563 14.125c.552.41.905 1.06.905 1.792l-.001.087V16a2.08 2.08 0 0 1-.839 1.87l-.005.005-3.75 2.124L20.19 16l4.063-4.063 3.689 2.188ZM5.005 31.187l13.749-13.812 3.75 3.75-17.5 10.062Z"/></g><defs><clipPath id="a"><path fill="#fff" d="M0 0h29.34v32H0z"/></clipPath></defs></svg>