<svg xmlns="http://www.w3.org/2000/svg" width="23" height="24" fill="none"><g clip-path="url(#a)"><path fill="#4E4E4E" d="m4.251.61 13.124 7.546-2.813 2.813L4.252.61ZM1.532 0 13.58 12 1.533 24a1.72 1.72 0 0 1-1.032-1.643v.003V1.576C.5.875.92.272 1.521.005L1.532 0Zm19.922 10.594c.414.307.68.795.68 1.344l-.002.065V12a1.56 1.56 0 0 1-.629 1.403l-.004.003-2.813 1.593L15.64 12l3.047-3.047 2.767 1.641ZM4.251 23.39l10.312-10.359 2.813 2.813L4.251 23.39Z"/></g><defs><clipPath id="a"><path fill="#fff" d="M.498 0h22.005v24H.498z"/></clipPath></defs></svg>