<svg xmlns="http://www.w3.org/2000/svg" width="320" height="32" fill="none"><path fill="#224E11" d="M0 0h320v32H0z"/><rect width="32" height="32" fill="#132609" rx="4"/><path fill="url(#a)" fill-rule="evenodd" d="M24.34 7.292c4 3.18 4.778 9.93 1.625 15.662-3.152 5.732-9.136 8.415-13.77 6.358a31.048 31.048 0 0 1-3.573-1.87l6.225-11.23 6.188-11.22c1.157.69 2.27 1.459 3.332 2.3h-.027Z" clip-rule="evenodd"/><path fill="url(#b)" fill-rule="evenodd" d="M24.206 8.807c2.768 2.207 3.706 7.106 2.063 11.37-1.644 4.264-5.287 6.396-8.386 5.05a19.018 19.018 0 0 1-2.402-1.254l3.223-8.368 3.224-8.416c.79.473 1.551.998 2.278 1.571v.047Z" clip-rule="evenodd" style="mix-blend-mode:screen"/><path fill="url(#c)" fill-rule="evenodd" d="M24.608 8.545c3.412 2.721 4.17 8.593 1.608 13.624-2.394 4.675-6.859 7.087-10.637 6.021a8.55 8.55 0 0 1-3.565.375 8.645 8.645 0 0 1-3.418-1.123 31.064 31.064 0 0 0 3.572 1.87c4.635 2.038 10.61-.636 13.77-6.358 3.162-5.722 2.376-12.483-1.624-15.662A30.35 30.35 0 0 0 21 5.002a8.627 8.627 0 0 1 3 3.122c.197.14.385.29.581.45l.027-.029Z" clip-rule="evenodd" style="mix-blend-mode:multiply"/><path fill="#FCCE3A" fill-rule="evenodd" d="M21.696 5.516c4.555 2.749 5.555 9.836 2.25 15.84-3.304 6.002-9.68 8.63-14.226 5.89-4.545-2.74-5.59-9.846-2.241-15.849 3.349-6.003 9.671-8.63 14.217-5.881Z" clip-rule="evenodd" style="mix-blend-mode:screen"/><path fill="url(#d)" fill-rule="evenodd" d="M21.009 4.992c4.804 2.908 5.93 10.285 2.51 16.485-3.421 6.199-10.083 8.873-14.924 5.965-4.84-2.908-5.939-10.285-2.518-16.485 3.42-6.199 10.127-8.873 14.932-5.965Z" clip-rule="evenodd"/><path fill="#FFFCE4" fill-rule="evenodd" d="M16.044 25.282a.942.942 0 0 1-.242.407.882.882 0 0 1-.402.23.907.907 0 0 1-.777-.132 6.123 6.123 0 0 1-4.241-.411c-3.823-1.87-5.055-7.537-2.769-12.68 1.096-2.59 3.054-4.673 5.51-5.862a.952.952 0 0 1 .23-.486.884.884 0 0 1 .449-.271.854.854 0 0 1 .479-.009c.157.043.3.13.414.252a6.141 6.141 0 0 1 1.536-.14c.07-.1.167-.176.278-.218a.564.564 0 0 1 .347-.016c.096.018.187.06.264.121a.64.64 0 0 1 .183.234c.468.1.923.258 1.357.468 3.814 1.87 5.055 7.536 2.76 12.679-1.085 2.552-3.004 4.614-5.412 5.816l.036.018Z" clip-rule="evenodd" style="mix-blend-mode:screen"/><path fill="url(#e)" fill-rule="evenodd" d="M19.366 7.283c3.572 2.17 4.34 7.854 1.67 12.697-2.67 4.844-7.743 7.004-11.342 4.825-3.599-2.178-4.34-7.845-1.67-12.697 2.67-4.853 7.716-7.004 11.342-4.825Z" clip-rule="evenodd"/><path fill="url(#f)" fill-rule="evenodd" d="M9.98 14.024c2.528-4.581 7.341-6.629 10.717-4.572.478.292.914.654 1.295 1.075a6.468 6.468 0 0 0-2.68-3.244c-3.572-2.179-8.67 0-11.341 4.825-2.67 4.824-1.92 10.528 1.67 12.697.259.153.527.288.804.402-2.456-2.45-2.75-7.125-.518-11.22l.053.037Z" clip-rule="evenodd" opacity=".5" style="mix-blend-mode:multiply"/><path fill="url(#g)" fill-rule="evenodd" d="M9.202 12.828c2.447-4.432 6.904-6.62 10.405-5.293a2.5 2.5 0 0 1 .33.14 3.465 3.465 0 0 0-.295-.214l-.277-.178c-3.572-2.179-8.671 0-11.341 4.825-2.67 4.824-1.92 10.528 1.67 12.697l.294.169.322.159-.277-.234c-2.849-2.506-3.269-7.649-.83-12.071Z" clip-rule="evenodd"/><path fill="url(#h)" fill-rule="evenodd" d="M17.088 7.161a6.062 6.062 0 0 1 2.519.374 2.5 2.5 0 0 1 .33.14 3.465 3.465 0 0 0-.295-.214l-.277-.178c-3.572-2.179-8.671 0-11.341 4.825-2.67 4.824-1.92 10.528 1.67 12.697l.294.169.322.159-.277-.234a6.196 6.196 0 0 1-1.143-1.337c-2.68-2.329-3.09-7.125-.893-11.277 2.107-3.946 5.92-6.003 9.073-5.124h.018Z" clip-rule="evenodd" style="mix-blend-mode:multiply"/><path fill="url(#i)" fill-rule="evenodd" d="M20.205 9.387c-6.367-3.04-12.324 5.61-11.44 11.22 3.519-1.374 9.377-4.404 11.44-11.22Z" clip-rule="evenodd" style="mix-blend-mode:screen"/><path fill="url(#j)" fill-rule="evenodd" d="M16.766 7.255a5.463 5.463 0 0 1-.838 2.943 5.107 5.107 0 0 1-2.26 1.958 4.836 4.836 0 0 1-2.919.311 4.978 4.978 0 0 1-2.59-1.442 5.363 5.363 0 0 1-1.386-2.707 5.514 5.514 0 0 1 .286-3.057A5.238 5.238 0 0 1 8.92 2.888 4.886 4.886 0 0 1 11.729 2a4.933 4.933 0 0 1 3.553 1.54 5.41 5.41 0 0 1 1.484 3.715Z" clip-rule="evenodd" style="mix-blend-mode:screen"/><rect width="32" height="32" x="48" fill="#132609" rx="4"/><path fill="url(#k)" fill-rule="evenodd" d="m70.936 5.323-1.457 2.33L66.7 6.09c.38-.654.724-1.291 1.34-2.395.067-.122.294-.147.597-.073.392.095.767.246 1.112.45.353.184.674.421.952.702.219.23.311.425.235.548Z" clip-rule="evenodd"/><path fill="url(#l)" fill-rule="evenodd" d="M70.7 4.775a2.845 2.845 0 0 0-.547-.45 149.196 149.196 0 0 1-1.684 2.772l.994.556 1.457-2.33c.075-.123 0-.319-.236-.548h.017Z" clip-rule="evenodd" style="mix-blend-mode:multiply"/><path fill="url(#m)" fill-rule="evenodd" d="M67.104 6.32c.447-.776.843-1.446 1.525-2.705-.303-.058-.522-.041-.59.081-.615 1.104-.96 1.742-1.339 2.395l.404.23Z" clip-rule="evenodd" style="mix-blend-mode:multiply"/><path fill="#CBBBA0" fill-rule="evenodd" d="M69.682 4.032a4.683 4.683 0 0 0-.842-.368c-.901 1.52-.059 1.929.842.368Z" clip-rule="evenodd" opacity=".2" style="mix-blend-mode:screen"/><path fill="url(#n)" fill-rule="evenodd" d="M64.123 11.83c-2.35-1.316-4.387-2.575-5.617-3.45-.11-.065.236-.768 1.735-3.27 1.499-2.5 1.954-3.155 2.063-3.09 1.398.597 3.537 1.676 5.896 2.992 2.358 1.316 4.388 2.575 5.617 3.45.11.065-.236.768-1.726 3.27-1.491 2.501-1.963 3.139-2.08 3.139-1.39-.597-3.53-1.676-5.896-3l.008-.041Z" clip-rule="evenodd"/><path fill="url(#o)" fill-rule="evenodd" d="M70.01 14.87c-1.39-.596-3.529-1.675-5.895-3-2.367-1.324-4.38-2.615-5.61-3.49.143.766.363 1.516.658 2.24.02.043.053.08.092.106 1.23.875 3.243 2.117 5.55 3.409 2.308 1.292 4.498 2.403 5.896 3l-.657-2.264h-.034Z" clip-rule="evenodd"/><path fill="url(#p)" fill-rule="evenodd" d="M72.116 11.732c-1.407 2.321-1.912 3.04-2.072 3.139l.648 2.296c.11.058.565-.58 2.064-3.098 1.356-2.288 1.768-3.073 1.743-3.27a10.574 10.574 0 0 0-.674-2.304c.05.13-.345.899-1.743 3.27l.034-.033Z" clip-rule="evenodd"/><path fill="url(#q)" fill-rule="evenodd" d="M62.767 7.636a7.373 7.373 0 0 1 2.783-1.06 7.456 7.456 0 0 1 2.986.12c1.087.23 4.674 1.202 4.97 2.543.294-.565.361-.777.302-.818-1.23-.875-3.267-2.133-5.617-3.45-2.35-1.316-4.497-2.362-5.887-2.967-.11-.065-.573.605-2.063 3.057-1.491 2.453-1.845 3.221-1.735 3.27a53.72 53.72 0 0 0 3.099 1.995c-.396-.818-.177-1.889 1.162-2.739v.05Z" clip-rule="evenodd" opacity=".5" style="mix-blend-mode:screen"/><path fill="url(#r)" fill-rule="evenodd" d="M63.559 4.023c2.005.065 3.962.607 5.701 1.578l-1.07-.605c-2.35-1.316-4.497-2.387-5.886-2.992-.11-.065-.573.605-2.064 3.057l-.244.417a4.845 4.845 0 0 1 1.621-1.105 4.97 4.97 0 0 1 1.942-.382v.032Z" clip-rule="evenodd" opacity=".5" style="mix-blend-mode:screen"/><path fill="url(#s)" fill-rule="evenodd" d="M72.503 13.775c-.707 1.006-1.878 1.635-2.147.72-.08.13-.186.244-.312.335l.648 2.297c.11.057.565-.58 2.064-3.098 1.356-2.29 1.768-3.074 1.743-3.27a10.573 10.573 0 0 0-.674-2.305c0 .065-.059.286-.32.817.12.04.232.103.326.186s.17.184.222.296c.404.891-.969 3.197-1.55 4.038v-.016Z" clip-rule="evenodd" opacity=".5" style="mix-blend-mode:multiply"/><path fill="url(#t)" fill-rule="evenodd" d="M69.59 14.642c-.708 1.512-4.212-.335-5.483-1.022a22.558 22.558 0 0 1-3.68-2.51 7.928 7.928 0 0 1-1.845-2.297c.144.613.336 1.214.573 1.799.02.043.052.08.092.106 1.23.875 3.243 2.117 5.55 3.409 2.308 1.291 4.498 2.403 5.896 3l-.649-2.256-.42-.188-.034-.041Z" clip-rule="evenodd" opacity=".6" style="mix-blend-mode:multiply"/><path fill="url(#u)" fill-rule="evenodd" d="M65.816 13.996c-1.272 2.052-1.558 2.452-2.788 4.512-1.23 2.06-1.322 2.297-2.526 4.398l-1.483-.817-1.482-.818c1.272-2.052 1.432-2.223 2.678-4.291 1.247-2.069 1.457-2.502 2.636-4.61.068-.123.295-.148.607-.074.394.094.772.246 1.12.45.357.192.683.435.968.719.22.229.32.433.245.556l.025-.025Z" clip-rule="evenodd"/><path fill="url(#v)" fill-rule="evenodd" d="M65.572 13.44a3.545 3.545 0 0 0-.548-.458c-1.28 2.142-1.575 2.616-2.863 4.758-1.289 2.142-1.432 2.452-2.695 4.578l1.061.588c1.18-2.1 1.263-2.322 2.527-4.398 1.263-2.076 1.516-2.452 2.787-4.512.076-.123 0-.327-.244-.556h-.025Z" clip-rule="evenodd" style="mix-blend-mode:multiply"/><path fill="url(#w)" fill-rule="evenodd" d="M57.984 21.484c1.313-2.134 1.507-2.38 2.787-4.529 1.28-2.15 1.5-2.558 2.704-4.692-.312-.065-.53 0-.598.082-1.18 2.109-1.39 2.542-2.636 4.61-1.247 2.068-1.407 2.24-2.678 4.292l.42.237Z" clip-rule="evenodd" style="mix-blend-mode:multiply"/><path fill="#4A2121" fill-rule="evenodd" d="M60.737 19.228c.783.441 1.297.98 1.162 1.217-.134.238-.842.066-1.684-.367-.842-.434-1.297-.981-1.162-1.218s.884-.066 1.684.368Z" clip-rule="evenodd"/><path fill="#CBBBA0" fill-rule="evenodd" d="M64.536 12.688a4.57 4.57 0 0 0-.842-.376c-2.864 4.84-3.04 5.37-2.813 5.51.227.138.918-.458 3.697-5.134h-.042Z" clip-rule="evenodd" opacity=".2" style="mix-blend-mode:screen"/><path fill="url(#x)" fill-rule="evenodd" d="M62.009 20.486c.059-.098-.06-.27-.295-.482a6.107 6.107 0 0 0-1.002-.695 5.805 5.805 0 0 0-1.12-.498c-.303-.09-.523-.098-.573 0l-.842 1.48 1.465.817 1.466.817c.294-.482.598-.965.9-1.447v.008Z" clip-rule="evenodd"/><path fill="url(#y)" fill-rule="evenodd" d="M61.167 21.933c.05-.098-.05-.294-.26-.54a5.837 5.837 0 0 0-.927-.817 5.5 5.5 0 0 0-1.036-.646c-.303-.155-.522-.155-.581-.098l-.843 1.472 1.373 1.03 1.348 1.021c.295-.465.59-.948.892-1.422h.034Z" clip-rule="evenodd"/><path fill="url(#z)" fill-rule="evenodd" d="M60.51 22.996c.06-.09-.059-.27-.303-.482a5.895 5.895 0 0 0-1.01-.695 6.446 6.446 0 0 0-1.13-.507c-.31-.09-.53-.106-.58 0-.278.482-.548.973-.843 1.447l1.483.817 1.482.818.884-1.414.017.016Z" clip-rule="evenodd"/><path fill="url(#A)" fill-rule="evenodd" d="M60.022 23.862c.059-.09-.059-.27-.303-.482a6.077 6.077 0 0 0-1.028-.703c-.358-.21-.74-.38-1.137-.507-.311-.098-.53-.114-.58 0l-.86 1.406 1.5.818 1.498.817.843-1.414.067.065Z" clip-rule="evenodd"/><path fill="url(#B)" fill-rule="evenodd" d="M59.364 24.974c.06-.09-.075-.245-.336-.433a6.199 6.199 0 0 0-1.104-.58 6.286 6.286 0 0 0-1.212-.393c-.329-.065-.556-.065-.607 0l-.833 1.439 1.591.678 1.609.687.842-1.398h.05Z" clip-rule="evenodd"/><path fill="url(#C)" fill-rule="evenodd" d="M58.573 26.315c.05-.09-.067-.27-.303-.499a6.478 6.478 0 0 0-1.002-.76 5.888 5.888 0 0 0-1.112-.572c-.303-.115-.522-.14-.572-.05l-.885 1.562 3.015 1.692.843-1.373h.016Z" clip-rule="evenodd"/><path fill="url(#D)" fill-rule="evenodd" d="M58.582 26.233a.89.89 0 0 0-.253-.36 4.455 4.455 0 0 0-.53-.482c.375-.296.619-.72.682-1.185.225.108.44.237.64.384.12.075.219.18.286.302a.087.087 0 0 1 0 .082c-.27.425-.53.817-.783 1.259h-.042Z" clip-rule="evenodd" opacity=".5" style="mix-blend-mode:multiply"/><path fill="url(#E)" fill-rule="evenodd" d="M59.374 24.892a.827.827 0 0 0-.287-.302 4.1 4.1 0 0 0-.64-.384c.212-.142.387-.33.513-.548a1.6 1.6 0 0 0 .212-.711c.21.14.41.296.598.466a.82.82 0 0 1 .26.351.089.089 0 0 1 0 .082l-.648 1.046h-.008Z" clip-rule="evenodd" opacity=".5" style="mix-blend-mode:multiply"/><path fill="url(#F)" fill-rule="evenodd" d="M60.03 23.764a.818.818 0 0 0-.261-.351 5.032 5.032 0 0 0-.598-.466c.138-.093.252-.215.335-.356.083-.142.133-.3.145-.462.214.141.416.297.606.466a.82.82 0 0 1 .261.352.087.087 0 0 1 0 .082l-.48.768-.008-.033Z" clip-rule="evenodd" opacity=".5" style="mix-blend-mode:multiply"/><path fill="url(#G)" fill-rule="evenodd" d="M60.519 22.914a.817.817 0 0 0-.261-.351 5.233 5.233 0 0 0-.607-.466 2.56 2.56 0 0 0 .674-1.218c.198.17.381.356.547.555.11.115.19.252.236.401a.183.183 0 0 1 0 .098c-.21.327-.412.654-.614.981h.025Z" clip-rule="evenodd" opacity=".5" style="mix-blend-mode:multiply"/><path fill="url(#H)" fill-rule="evenodd" d="M61.167 21.835a1.03 1.03 0 0 0-.236-.4c-.166-.2-.35-.386-.547-.556.4-.34.665-.806.75-1.316.25.16.484.343.698.547.152.164.228.295.177.376l-.842 1.35Z" clip-rule="evenodd" opacity=".5" style="mix-blend-mode:multiply"/><path fill="url(#I)" fill-rule="evenodd" d="M56.198 24.5a1.123 1.123 0 0 0-.548-.114l.455-.818a.086.086 0 0 1 .067-.05c.191-.045.39-.045.582.001a1.764 1.764 0 0 0-.556.924v.057Z" clip-rule="evenodd" opacity=".5" style="mix-blend-mode:multiply"/><path fill="url(#J)" fill-rule="evenodd" d="M56.754 23.576a1.23 1.23 0 0 0-.581 0l.783-1.439a.082.082 0 0 1 .027-.033.087.087 0 0 1 .04-.016c.195-.02.393.008.573.082a3.913 3.913 0 0 0-.842 1.406Z" clip-rule="evenodd" opacity=".5" style="mix-blend-mode:multiply"/><path fill="url(#K)" fill-rule="evenodd" d="M57.613 22.17a1.177 1.177 0 0 0-.573-.082l.446-.817a.102.102 0 0 1 .076-.049c.19-.025.383.003.556.082a1.628 1.628 0 0 0-.505.817v.05Z" clip-rule="evenodd" opacity=".5" style="mix-blend-mode:multiply"/><path fill="url(#L)" fill-rule="evenodd" d="M58.118 21.336a1.03 1.03 0 0 0-.556-.081l.843-1.423a.121.121 0 0 1 .033-.057c.188 0 .372.05.531.147a2.94 2.94 0 0 0-.842 1.406l-.009.008Z" clip-rule="evenodd" opacity=".5" style="mix-blend-mode:multiply"/><path fill="url(#M)" fill-rule="evenodd" d="M58.97 19.93a1.017 1.017 0 0 0-.532-.155l.556-.973c.06-.106.295-.09.64 0-.244 0-.614.769-.665 1.096v.032Z" clip-rule="evenodd" opacity=".5" style="mix-blend-mode:multiply"/><path fill="#4A2121" fill-rule="evenodd" d="M60.072 20.347c.322.176.627.381.91.613.177.123.317.29.404.483l-.245.392a1.353 1.353 0 0 0-.362-.548 6.953 6.953 0 0 0-.842-.735 5.906 5.906 0 0 0-.918-.589 1.11 1.11 0 0 0-.59-.18c.217-.025.435.009.632.098.347.13.682.286 1.002.466h.009ZM59.28 21.68c.339.155.663.338.97.547.252.172.412.328.437.434l-.168.278a1.242 1.242 0 0 0-.405-.483 7.153 7.153 0 0 0-1.928-1.079 1.169 1.169 0 0 0-.623-.098c.22-.032.445-.012.656.058.365.094.72.22 1.062.376v-.033ZM58.775 22.522c.343.146.673.32.985.523.253.171.413.327.438.441l-.168.27a1.144 1.144 0 0 0-.413-.482 6.054 6.054 0 0 0-.926-.622 7.808 7.808 0 0 0-1.01-.425 1.22 1.22 0 0 0-.641-.098c.223-.032.452-.013.665.057.366.102.724.23 1.07.385v-.05ZM58 23.862c.364.114.716.26 1.053.434.27.147.447.277.48.376l-.16.261a1.09 1.09 0 0 0-.455-.417 5.681 5.681 0 0 0-.993-.515 6.637 6.637 0 0 0-1.087-.367 1.43 1.43 0 0 0-.665-.05c.228-.046.463-.046.69 0 .386.064.767.157 1.137.278ZM57.343 24.933c.332.164.65.353.952.564.183.116.331.277.43.466l-.144.237a1.296 1.296 0 0 0-.404-.507 7.017 7.017 0 0 0-.91-.67 7.268 7.268 0 0 0-.993-.531c-.191-.1-.407-.149-.624-.14.222-.025.446.01.649.099.36.123.709.274 1.044.45v.032Z" clip-rule="evenodd" opacity=".35" style="mix-blend-mode:multiply"/><path fill="#3D2004" fill-rule="evenodd" d="M56.476 26.388c.842.466 1.39 1.046 1.238 1.3-.152.253-.944.073-1.777-.392-.834-.466-1.39-1.047-1.238-1.3.151-.254.943-.074 1.777.392Z" clip-rule="evenodd"/><path fill="url(#N)" fill-rule="evenodd" d="M57.562 27.663c-.64 1.022-1.01 1.635-1.39 2.216l-2.652-1.48c.362-.63.69-1.234 1.28-2.289.059-.114.27-.13.564-.065a3.7 3.7 0 0 1 1.061.425c.332.18.638.403.91.662.202.22.294.409.227.523v.008Z" clip-rule="evenodd"/><path fill="url(#O)" fill-rule="evenodd" d="M57.335 27.132a3.638 3.638 0 0 0-.523-.433c-.699 1.25-1.12 1.88-1.591 2.656l.951.523c.38-.613.75-1.193 1.39-2.215.067-.114 0-.302-.227-.523v-.008Z" clip-rule="evenodd" style="mix-blend-mode:multiply"/><path fill="url(#P)" fill-rule="evenodd" d="M53.907 28.612c.421-.736.775-1.374 1.449-2.575-.287-.057-.497 0-.556.073-.59 1.055-.918 1.635-1.28 2.29l.387.212Z" clip-rule="evenodd" style="mix-blend-mode:multiply"/><path fill="#CBBBA0" fill-rule="evenodd" d="M56.358 26.437a4.283 4.283 0 0 0-.843-.351c-.842 1.48-1.137 2.158-.926 2.28.21.123.75-.237 1.752-1.929h.017Z" clip-rule="evenodd" opacity=".2" style="mix-blend-mode:screen"/><path fill="url(#Q)" fill-rule="evenodd" d="M55.086 28.767c.725.409 1.213.924 1.087 1.136-.127.213-.842.066-1.567-.343-.724-.409-1.212-.916-1.086-1.136.126-.221.842-.066 1.566.343Z" clip-rule="evenodd"/><path fill="url(#R)" fill-rule="evenodd" d="M55.407 25.947c.068-.267.176-.523.32-.76.116-.254.275-.486.471-.687a1.123 1.123 0 0 0-.547-.115.135.135 0 0 0-.068.05l-.884 1.56c.076-.13.346-.146.708-.048Z" clip-rule="evenodd" opacity=".5" style="mix-blend-mode:multiply"/><path fill="url(#S)" fill-rule="evenodd" d="M57.798 25.432c-.18.48-.451.924-.8 1.308.514.376.842.76.7.948l.841-1.373c.05-.09-.067-.27-.303-.499a3.7 3.7 0 0 0-.438-.384Z" clip-rule="evenodd" opacity=".5" style="mix-blend-mode:multiply"/><rect width="32" height="32" x="96" fill="#132609" rx="4"/><path fill="url(#T)" fill-rule="evenodd" d="M108.582 17.835c-1.015.078-3.068.086-4.113.036a.334.334 0 0 1-.244-.156c.265.416.57.808.911 1.17.247.316.53.604.845.858.452 0 1.097.036 1.756.036.289-.667.586-1.32.875-1.944h-.03Z" clip-rule="evenodd"/><path fill="url(#U)" fill-rule="evenodd" d="M118.178 6.432a210.712 210.712 0 0 1-4.78 6.957 84.646 84.646 0 0 1 2.854-.064c1.17-1.68 2.386-3.446 3.408-5.013a.385.385 0 0 0 0-.327 14.666 14.666 0 0 0-1.526-1.943h.067a.31.31 0 0 1 0 .32l-.023.07Z" clip-rule="evenodd"/><path fill="url(#V)" fill-rule="evenodd" d="M118.304 13.9a154.15 154.15 0 0 1-11.664 12.935c-.563.553-1.482 1.418-1.719 1.29.081.156 1.26 1.653 1.482 1.866.193.106 1.156-.71 1.719-1.284 4.138-4.1 8.033-8.418 11.665-12.935a.377.377 0 0 0 .037-.355c0-.07 0-.042-.037-.063-.171-.256-1.171-1.532-1.483-1.844.031.056.044.12.037.182a.318.318 0 0 1-.074.172l.037.036Z" clip-rule="evenodd"/><path fill="url(#W)" fill-rule="evenodd" d="M118.119 6.524c.39.292.681.686.838 1.135.2 1.454-1.26 3.369-2.06 4.44a2.636 2.636 0 0 1-.696.78c-.284.212-.609.37-.957.46h1.008a209.028 209.028 0 0 0 3.409-5.013.4.4 0 0 0 0-.326 14.48 14.48 0 0 0-1.527-1.958h.067a.312.312 0 0 1 .045.16.312.312 0 0 1-.045.16l-.059.092-.023.07Z" clip-rule="evenodd" opacity=".5" style="mix-blend-mode:multiply"/><path fill="url(#X)" fill-rule="evenodd" d="M119.786 15.353c-.14-.22-.896-1.184-1.296-1.652.8 1.603.8 2.177-.289 3.581a108.624 108.624 0 0 1-4.187 5.1 74.387 74.387 0 0 1-4.173 4.389 15.26 15.26 0 0 1-2.126 1.716 2.262 2.262 0 0 1-2.364.248c.385.497.881 1.114 1.015 1.248.193.107 1.156-.709 1.719-1.283a154.272 154.272 0 0 0 11.701-12.928.366.366 0 0 0 .037-.355c0-.07 0-.042-.037-.064Z" clip-rule="evenodd" opacity=".5" style="mix-blend-mode:multiply"/><path fill="url(#Y)" fill-rule="evenodd" d="M107.441 29.338c-.171.085-.378.142-.482.064a10.056 10.056 0 0 1-1.03-1.234.41.41 0 0 1 0-.05.692.692 0 0 1-.074-.308c0-.107.026-.212.074-.309-.444.376-.874.71-1 .624.081.156 1.26 1.653 1.482 1.866.126.07.578-.263 1.037-.66l-.007.007Zm10.471-14.843a.46.46 0 0 1 .415-.035l.045.035c.369.392.708.81 1.015 1.248a.65.65 0 0 1 0 .56l.422-.531a.365.365 0 0 0 .037-.355c0-.07 0-.042-.037-.063-.17-.256-1.171-1.532-1.482-1.844.03.056.043.12.037.182a.326.326 0 0 1-.074.172l-.482.596-.037.042.097-.042.044.035Z" clip-rule="evenodd" style="mix-blend-mode:screen"/><path fill="url(#Z)" fill-rule="evenodd" d="M110.442 5.95a30.631 30.631 0 0 1 7.492 0 .359.359 0 0 1 .16.066c.047.035.083.08.107.133a.31.31 0 0 1 0 .319 213.849 213.849 0 0 1-4.78 6.957c1.386-.064 3.498-.086 4.661-.043a.36.36 0 0 1 .186.056.332.332 0 0 1 .125.143.315.315 0 0 1-.037.354 154.17 154.17 0 0 1-11.716 12.9c-.563.553-1.482 1.418-1.719 1.29-.237-.127.096-1.106.222-1.595a71.64 71.64 0 0 1 3.439-8.695c-1.016.078-3.068.086-4.113.036a.384.384 0 0 1-.164-.05.362.362 0 0 1-.123-.114.337.337 0 0 1-.055-.156.336.336 0 0 1 .023-.162 61.71 61.71 0 0 1 5.855-11.17.699.699 0 0 1 .437-.269Z" clip-rule="evenodd"/><path fill="url(#aa)" fill-rule="evenodd" d="M117.615 11.36c-1.008.866-2.964 1.42-3.379.852-.282.404-.563.794-.838 1.177a84.911 84.911 0 0 1 2.854-.064c.452-.645.911-1.305 1.363-1.964Z" clip-rule="evenodd" style="mix-blend-mode:multiply"/><path fill="url(#ab)" fill-rule="evenodd" d="M107.13 17.892c.548.404-.297 1.695-1.408 1.674.103.1.192.177.229.177.452 0 1.097.036 1.757.036.289-.667.585-1.32.874-1.944-.378 0-.897.043-1.482.057h.03Z" clip-rule="evenodd" style="mix-blend-mode:multiply"/><path fill="url(#ac)" fill-rule="evenodd" d="M110.568 7.553a22.5 22.5 0 0 1 5.351-.093c.234.022.457.105.644.242.356.283.119.907-.192 1.418.63-.93 1.245-1.844 1.808-2.702a.312.312 0 0 0 .045-.16.312.312 0 0 0-.045-.16.35.35 0 0 0-.267-.199 30.631 30.631 0 0 0-7.492.001.699.699 0 0 0-.437.27 44.35 44.35 0 0 0-2.964 4.964c.741-1.241 2.386-3.468 3.534-3.645l.015.064Z" clip-rule="evenodd" style="mix-blend-mode:screen"/><path fill="url(#ad)" fill-rule="evenodd" d="M118.06 13.347h-1.371c.875.269.875.879.171 1.751-1.882 2.347-6.899 8.19-9.36 9.928-1.245.873-1.652.32-1.697-.46-.311.843-.541 1.545-.659 2.006-.119.461-.401 1.419-.252 1.575.126.064.555-.248 1-.624.252-.22.511-.461.741-.667a154.221 154.221 0 0 0 11.183-12.304l.519-.638a.317.317 0 0 0 .037-.355.357.357 0 0 0-.297-.163l-.015-.05Z" clip-rule="evenodd" style="mix-blend-mode:screen"/><path fill="url(#ae)" fill-rule="evenodd" d="M110.827 6.149a1.032 1.032 0 0 0-.533.234c-1.216 1.198-4.158 6.708-4.588 8.17 0 .098-.066.269 0 .332.067.064.297-.141.364-.24 1.081-1.639 2.045-3.34 3.119-4.965.534-.822 1.171-1.766 1.786-2.539a3.196 3.196 0 0 1 1.697-.773c.808-.212.482-.404-.103-.382-.593.018-1.182.082-1.764.191l.022-.028Z" clip-rule="evenodd" style="mix-blend-mode:screen"/><path fill="url(#af)" fill-rule="evenodd" d="M117.659 13.446c-1.326 0-2.653 0-3.972.05-.644 0-.148.659.304.709a11.961 11.961 0 0 0 3.631-.468c.112 0 .275-.079.289-.185.015-.106-.163-.085-.252-.085v-.021Z" clip-rule="evenodd" style="mix-blend-mode:screen"/><path fill="url(#ag)" fill-rule="evenodd" d="M106.329 27.133c-.089 1.418 3.238-1.163 3.994-1.83 2.557-2.241 5.61-5.354 7.344-8.262.6-1.007.674-2.298-.207-2.07a153.626 153.626 0 0 1-10.738 11.786l-.082.078-.311.297Z" clip-rule="evenodd" opacity=".5" style="mix-blend-mode:screen"/><path fill="url(#ah)" fill-rule="evenodd" d="M110.953 8.638c-.362.237-.672.54-.911.893-1.223 1.993-2.268 4.078-3.387 6.134-.229.426-.489 1.242.341 1.312.978.085 1.957 0 2.964 0a48.745 48.745 0 0 0-2.912 6.496c-.215.71.378.71.837.298 2.135-1.9 5.87-5.815 7.411-8.304.393-.653-.274-.965-.837-.986-.816 0-1.638 0-2.453.036.948-1.482 1.949-2.936 2.853-4.44.131-.218.214-.46.244-.709a1.021 1.021 0 0 0-.068-.51 1.062 1.062 0 0 0-.31-.419c-.422-.369-1.578-.383-2.534-.206a3.163 3.163 0 0 0-1.178.412l-.06-.007Z" clip-rule="evenodd" style="mix-blend-mode:screen"/><path fill="url(#ai)" d="M111.635 12.467c3.02 0 5.469-2.343 5.469-5.233 0-2.89-2.449-5.234-5.469-5.234-3.02 0-5.469 2.343-5.469 5.234 0 2.89 2.449 5.233 5.469 5.233Z" opacity=".75" style="mix-blend-mode:screen"/><rect width="32" height="32" x="144" fill="#132609" rx="4"/><path fill="url(#aj)" fill-rule="evenodd" d="m165.141 9.357 5.735 4.614.958 3.24-4.385-.05-7.159-3.296-5.735-4.614-.957-3.232 4.385.04 7.158 3.298Z" clip-rule="evenodd"/><path fill="url(#ak)" fill-rule="evenodd" d="m153.598 6.019-5.645 1.972 1.301 4.41 5.301-3.15-.957-3.232Z" clip-rule="evenodd"/><path fill="url(#al)" fill-rule="evenodd" d="m154.555 9.25-5.301 3.15 7.829 6.308 3.207-4.843-5.735-4.615Z" clip-rule="evenodd"/><path fill="url(#am)" fill-rule="evenodd" d="m160.29 13.865 7.159 3.297-.598 6.046-9.768-4.5 3.207-4.843Z" clip-rule="evenodd"/><path fill="url(#an)" fill-rule="evenodd" d="m171.834 17.21 1.006 6.055-5.988-.057.597-6.046 4.385.049Z" clip-rule="evenodd"/><path fill="url(#ao)" fill-rule="evenodd" d="m149.254 12.4 3.42 16.6 4.409-10.292-7.829-6.308Z" clip-rule="evenodd"/><path fill="url(#ap)" fill-rule="evenodd" d="m157.083 18.708 9.768 4.5L152.673 29l4.41-10.292Z" clip-rule="evenodd"/><path fill="url(#aq)" fill-rule="evenodd" d="M172.84 23.265 152.673 29l14.178-5.792 5.989.057Z" clip-rule="evenodd"/><path fill="#85F2FF" fill-rule="evenodd" d="M147.953 7.99 152.674 29l-3.42-16.6-1.301-4.41Z" clip-rule="evenodd"/><path fill="url(#ar)" fill-rule="evenodd" d="M159.644 6.829c1.971 1.906 5.849 7.87 6.888 9.915l.916.418H169.805a49.07 49.07 0 0 1-5.809-8.353l-4.352-1.98Z" clip-rule="evenodd" opacity=".5" style="mix-blend-mode:screen"/><path fill="#9FDFFF" fill-rule="evenodd" d="M150.105 16.507c-.074-2.97 1.161-2.078 2.454-.752 4.091 4.18 2.708 6.594.941 11.314l3.583-8.361-7.829-6.308c.286 1.375.564 2.741.818 4.09l.033.017Z" clip-rule="evenodd" opacity=".75" style="mix-blend-mode:screen"/><path fill="url(#as)" fill-rule="evenodd" d="M160.118 20.099c4 1.857 2.331 4.009-1.056 5.727L152.673 29l14.178-5.8-6.733-3.101Z" clip-rule="evenodd" opacity=".5" style="mix-blend-mode:screen"/><path fill="#8FFCFF" fill-rule="evenodd" d="m154.555 9.25-.876-2.953c.311 1.505.508 2.037.074 2.692-.68.847-1.492 1.58-2.405 2.168l3.207-1.907Z" clip-rule="evenodd" style="mix-blend-mode:screen"/><path fill="#fff" fill-rule="evenodd" d="m160.29 13.865-5.727-4.615-3.207 1.907c1.637-.867 2.569-1.178 3.183-.95a12.274 12.274 0 0 1 2.626 1.702c1.325.99 1.915 2.005 1.923 2.545 0 .67-.63 1.988-1.481 3.477l2.692-4.09-.009.024Z" clip-rule="evenodd"/><path fill="#8FFCFF" fill-rule="evenodd" d="m160.29 13.865-2.691 4.09c1.243-1.775 2.209-2.593 2.888-2.748.916-.221 2.249.081 4.851 1.014l-5.048-2.332v-.024Z" clip-rule="evenodd" opacity=".5" style="mix-blend-mode:screen"/><path fill="url(#at)" fill-rule="evenodd" d="m156.739 6.052-3.166-.033.647 2.176.31 1.056 5.727 4.614 2.774 1.276c-1.726-1.538-6.153-7.748-6.324-9.09h.032Z" clip-rule="evenodd" style="mix-blend-mode:screen"/><path fill="url(#au)" d="M153.917 16.515a6.758 6.758 0 1 0 0-13.516 6.758 6.758 0 0 0 0 13.516Z" opacity=".75" style="mix-blend-mode:screen"/><rect width="32" height="32" x="192" fill="#132609" rx="4"/><path fill="url(#av)" fill-rule="evenodd" d="M209.812 3.184a1.751 1.751 0 0 1-1.431 3.18 1.753 1.753 0 0 1-.961-2.532 1.761 1.761 0 0 1 2.392-.648Z" clip-rule="evenodd"/><path fill="url(#aw)" fill-rule="evenodd" d="M209.53 3.29a1.339 1.339 0 0 1 .649 1.33 1.333 1.333 0 1 1-.649-1.33Z" clip-rule="evenodd" style="mix-blend-mode:screen"/><path fill="url(#ax)" fill-rule="evenodd" d="M208.593 3.298a.913.913 0 0 1 1.173.48.904.904 0 0 1-.762.998.907.907 0 0 1-1.165-.48.897.897 0 0 1 .762-.998h-.008Z" clip-rule="evenodd" style="mix-blend-mode:screen"/><path fill="url(#ay)" fill-rule="evenodd" d="M210.33 3.87a1.61 1.61 0 0 1-2.233 2.148 1.582 1.582 0 0 1-.51-.464c.087.09.184.169.289.236a1.67 1.67 0 0 0 2.421-.942 1.67 1.67 0 0 0 .01-.978h.023Z" clip-rule="evenodd" style="mix-blend-mode:screen"/><path fill="url(#az)" d="M207.793 6.689c.289.173.595.316.914.427a.715.715 0 0 0 .922-.229c.167-.297.053-.617-.267-.907a5.034 5.034 0 0 0-.823-.579 5.51 5.51 0 0 0-.914-.426c-.412-.138-.762-.069-.922.228-.16.297-.061.625.267.907.252.222.528.416.823.579Z"/><path fill="url(#aA)" fill-rule="evenodd" d="M208.707 7.116a4.921 4.921 0 0 1-.914-.427 4.594 4.594 0 0 1-.823-.58.932.932 0 0 1-.275-.342.263.263 0 0 1 0-.22.244.244 0 0 1 .183-.13c.15-.009.3.012.442.06.315.115.618.258.907.427.295.166.573.36.83.58.11.098.203.214.275.342a.252.252 0 0 1 0 .229.256.256 0 0 1-.183.13 1.163 1.163 0 0 1-.434-.07h-.008Z" clip-rule="evenodd" style="mix-blend-mode:multiply"/><path fill="url(#aB)" fill-rule="evenodd" d="M206.94 5.28a.12.12 0 0 1-.021-.07.12.12 0 0 1 .021-.068c.388-.487 2.118.587 2.118 1.189a4.44 4.44 0 0 0-1.897-.983c-.099 0-.229 0-.244-.069h.023Z" clip-rule="evenodd" style="mix-blend-mode:screen"/><path fill="url(#aC)" fill-rule="evenodd" d="M216.052 27.451c-3.62-2.575-6.096-2.887-7.833-4.168a1.604 1.604 0 0 1-.442-.434.567.567 0 0 1 0-.647 111.792 111.792 0 0 0 5.722-9.905c-.114.274 0 .594.518.975 1.745 1.272 4.214 1.592 7.833 4.168a50.455 50.455 0 0 0-5.798 10.034v-.023Z" clip-rule="evenodd"/><path fill="url(#aD)" fill-rule="evenodd" d="M220.829 16.739a24.075 24.075 0 0 0-3.588-1.882 54.833 54.833 0 0 1-2.606 5.074 55.286 55.286 0 0 1-3.193 4.983 25.098 25.098 0 0 1 3.589 1.874 27.521 27.521 0 0 1 2.362-5.25 27.355 27.355 0 0 1 3.436-4.8Z" clip-rule="evenodd" opacity=".75" style="mix-blend-mode:screen"/><path fill="url(#aE)" fill-rule="evenodd" d="M210.992 24.693c.415-2.047 1.206-4 2.332-5.76a19.568 19.568 0 0 1 3.223-4.381 12.646 12.646 0 0 1-2.53-1.303c-.518-.38-.632-.7-.518-.975a111.806 111.806 0 0 1-5.722 9.905.567.567 0 0 0 0 .647c.118.173.268.32.442.435a13.823 13.823 0 0 0 2.773 1.41v.022Z" clip-rule="evenodd" style="mix-blend-mode:multiply"/><path fill="url(#aF)" fill-rule="evenodd" d="M216.791 25.798c-3.261-2.286-5.539-2.66-7.185-3.81a3.943 3.943 0 0 1-.868-.617.642.642 0 0 1-.168-.411l-.434.685a.567.567 0 0 0 .122.465c.191.207.411.385.655.526 1.699 1.211 4.069 1.524 7.497 3.977.122-.267.244-.54.381-.815Zm-.251-10.301a15.672 15.672 0 0 1-3.002-1.524c-.396-.29-.541-.549-.518-.762l-.45.838a1.025 1.025 0 0 0 .488.678c.875.576 1.81 1.053 2.789 1.425a31.675 31.675 0 0 1 4.983 2.705l.502-.724a27.265 27.265 0 0 0-4.784-2.636h-.008Z" clip-rule="evenodd"/><path fill="url(#aG)" fill-rule="evenodd" d="M213.058 14.72c.714.483 1.481.885 2.286 1.196.198-.252.396-.48.586-.701a11.273 11.273 0 0 1-2.369-1.235c-.396-.289-.541-.548-.518-.761l-.45.838a1.025 1.025 0 0 0 .488.678l-.023-.015Zm-1.638 8.236a10.944 10.944 0 0 1-1.814-.968 3.939 3.939 0 0 1-.868-.617.642.642 0 0 1-.168-.411l-.434.685a.567.567 0 0 0 .122.465c.191.207.411.385.655.526.717.473 1.483.867 2.286 1.173.068-.274.152-.556.251-.853h-.03Z" clip-rule="evenodd" style="mix-blend-mode:multiply"/><path fill="url(#aH)" fill-rule="evenodd" d="M209.911 21.196a61.53 61.53 0 0 0 5.836-10.11c-.137.334-.67.472-1.127.594-.457.121-.991.259-1.12.594a98.64 98.64 0 0 1-5.783 9.829 2.626 2.626 0 0 1 1.112-.389 1.904 1.904 0 0 0 1.082-.518Z" clip-rule="evenodd"/><path fill="url(#aI)" fill-rule="evenodd" d="M210.002 21.25a62.534 62.534 0 0 0 5.745-10.165c.107-.282 0-.594-.518-.975-1.257-.945-3.604-1.73-6.187-3.109l-5.798 10.042c2.583 1.38 4.899 2.164 6.187 3.109.305.22.83.686.571 1.097Z" clip-rule="evenodd"/><path fill="url(#aJ)" fill-rule="evenodd" d="M215.23 10.11c-.246-.18-.5-.348-.762-.503a61.06 61.06 0 0 1-2.827 5.47 56.92 56.92 0 0 1-2.911 4.572c.265.14.52.298.762.473.305.22.831.685.572 1.097a62.609 62.609 0 0 0 5.745-10.164c.106-.282 0-.595-.518-.976l-.061.03Z" clip-rule="evenodd" style="mix-blend-mode:screen"/><path fill="url(#aK)" fill-rule="evenodd" d="M216.502 16.457c1.09.488 2.151 1.04 3.177 1.653l.571-.693a28.744 28.744 0 0 0-3.36-1.76c-.122.264-.251.518-.388.762v.038Zm-.846 8.594a25.654 25.654 0 0 0-3.208-1.66c-.167.25-.335.502-.503.761a24.403 24.403 0 0 1 3.36 1.745c.099-.282.214-.564.328-.846h.023Z" clip-rule="evenodd" style="mix-blend-mode:screen"/><path fill="url(#aL)" fill-rule="evenodd" d="M212.723 8.769c-1.082-.503-2.347-1.052-3.68-1.768l-5.791 10.042c1.371.762 2.674 1.303 3.81 1.814.761-1.181 1.462-2.416 2.202-3.696a147.597 147.597 0 0 0 3.481-6.392h-.022Z" clip-rule="evenodd" style="mix-blend-mode:multiply"/><path fill="url(#aM)" d="M203.305 16.952c1.113.594 2.172 1.082 3.124 1.524a18.89 18.89 0 0 1 3.048 1.608c.218.142.399.335.525.563a.629.629 0 0 1 0 .526.884.884 0 0 1-.495.434 4.66 4.66 0 0 1-.701.221 4.496 4.496 0 0 0-.663.214.703.703 0 0 0-.396.327.411.411 0 0 0 0 .358c.111.2.271.367.465.488.807.54 1.673.985 2.583 1.326 1.833.779 3.573 1.76 5.188 2.925a.356.356 0 0 1-.228.084 26.027 26.027 0 0 0-5.036-2.819c-.9-.353-1.758-.803-2.56-1.34a1.587 1.587 0 0 1-.526-.565.613.613 0 0 1 0-.525.853.853 0 0 1 .472-.435 3.67 3.67 0 0 1 .694-.22c.228-.054.452-.126.67-.214a.71.71 0 0 0 .389-.327.428.428 0 0 0 0-.366 1.533 1.533 0 0 0-.465-.488 18.472 18.472 0 0 0-3.048-1.577c-.96-.442-2.027-.922-3.139-1.524l.099-.175v-.023Z"/><path fill="url(#aN)" fill-rule="evenodd" d="M210.459 18.681c-1.287-.944-3.695-1.775-6.324-3.184l-.442.762c2.606 1.401 4.976 2.21 6.263 3.162.328.228.816.685.564 1.082.16-.23.328-.48.511-.762.221-.389-.237-.823-.572-1.075v.015Zm4.945-6.773c.107-.282 0-.61-.526-.968-1.295-.952-3.664-1.76-6.24-3.162l-.449.762c2.636 1.418 5.044 2.286 6.339 3.2.48.343.655.678.533.976.137-.282.259-.556.381-.816l-.038.008Z" clip-rule="evenodd"/><path fill="url(#aO)" fill-rule="evenodd" d="M215.404 11.908c.107-.282 0-.61-.526-.968a8.064 8.064 0 0 0-.822-.502l-.389.761c.285.155.56.328.823.518.48.343.655.679.533.976.137-.282.259-.556.381-.816v.031Zm-4.373 7.848c.221-.389-.236-.823-.572-1.075-.335-.251-.48-.32-.762-.487-.167.259-.327.503-.495.762.266.144.52.307.762.487.328.229.815.686.564 1.082.16-.228.328-.48.51-.762l-.007-.007Z" clip-rule="evenodd" style="mix-blend-mode:screen"/><path fill="url(#aP)" fill-rule="evenodd" d="M208.151 8.548c1.349.762 2.636 1.295 3.749 1.806l.411-.762c-1.097-.534-2.377-1.097-3.672-1.814l-.45.762-.038.008Zm-.191 8.792c-1.127-.525-2.445-1.104-3.809-1.843l-.442.762c1.379.761 2.69 1.318 3.81 1.836.16-.252.312-.51.464-.762l-.023.008Z" clip-rule="evenodd" style="mix-blend-mode:multiply"/><path fill="url(#aQ)" fill-rule="evenodd" d="M208.205 5.98c.306.176.585.394.83.648.191.198.274.38.214.488l-3.002 5.196-2.873 4.983-1.272-.762-1.265-.762c.99-1.638 1.973-3.284 2.933-4.937.96-1.654 2.004-3.55 2.941-5.227.061-.107.259-.13.526-.06.339.086.665.22.968.395v.038Z" clip-rule="evenodd"/><path fill="url(#aR)" fill-rule="evenodd" d="M204.266 10.895a459.918 459.918 0 0 0 2.994-5.334c-.259-.06-.457-.045-.526.054-.914 1.63-1.905 3.459-2.857 5.059-.137.244-.274.487-.419.762a177.21 177.21 0 0 1-2.621 4.335c.068-.107.282-.114.564-.046.967-1.615 1.927-3.23 2.865-4.86v.03Z" clip-rule="evenodd" style="mix-blend-mode:multiply"/><path fill="url(#aS)" fill-rule="evenodd" d="M207.587 5.69a433.416 433.416 0 0 1-3.047 5.334c-.983 1.684-1.867 3.208-2.819 4.8.21.084.414.183.609.298l.13.068c.929-1.577 1.866-3.17 2.781-4.762l3.086-5.402-.122-.076a5.888 5.888 0 0 0-.618-.29v.03Z" clip-rule="evenodd" style="mix-blend-mode:screen"/><path fill="url(#aT)" fill-rule="evenodd" d="m208.806 6.4-3.048 5.333a619.41 619.41 0 0 1-2.804 4.83c.343.282.526.557.442.701l2.872-4.967.115-.198 2.865-4.991c.061-.107 0-.29-.214-.488-.068-.076-.145-.144-.228-.22Z" clip-rule="evenodd" style="mix-blend-mode:multiply"/><path fill="#A71B00" fill-rule="evenodd" d="M202.33 16.152c.701.404 1.173.907 1.043 1.12-.129.213-.761.069-1.523-.335-.762-.404-1.174-.915-1.044-1.128.129-.213.762-.068 1.524.343Z" clip-rule="evenodd"/><path fill="url(#aU)" fill-rule="evenodd" d="M203.176 17.295c-.968 1.607-1.181 1.912-2.119 3.543-.937 1.63-3.725 6.476-4.609 8.13l-1.143-.656-1.143-.648c.991-1.607 3.81-6.453 4.777-8.083.968-1.631 1.105-1.959 2.004-3.612.054-.091.221-.114.465-.06.3.076.588.197.853.357.281.15.538.34.762.564.168.175.244.335.183.434l-.03.03Z" clip-rule="evenodd"/><path fill="url(#aV)" fill-rule="evenodd" d="M202.993 16.838a2.616 2.616 0 0 0-.419-.358l-2.172 3.725c-.975 1.677-3.809 6.606-4.769 8.298l.815.464c.899-1.653 3.68-6.53 4.625-8.152.945-1.623 1.15-1.936 2.118-3.543.061-.1 0-.26-.183-.434h-.015Z" clip-rule="evenodd" style="mix-blend-mode:multiply"/><path fill="url(#aW)" fill-rule="evenodd" d="M194.505 27.847c.99-1.668 3.863-6.575 4.838-8.267.975-1.69 1.135-2.003 2.057-3.68-.236-.053-.403 0-.457.061-.899 1.669-1.059 2.004-2.004 3.62-.944 1.615-3.786 6.476-4.777 8.084l.328.182h.015Z" clip-rule="evenodd" style="mix-blend-mode:multiply"/><path fill="url(#aX)" fill-rule="evenodd" d="M195.511 27.962c.617.358 1.036.807.922.998-.115.19-.701.053-1.326-.305-.625-.358-1.036-.8-.945-.99.092-.19.709-.054 1.333.304l.016-.007Z" clip-rule="evenodd"/><path fill="url(#aY)" fill-rule="evenodd" d="M202.208 16.243a3.707 3.707 0 0 0-.67-.29c-2.621 4.572-5.775 10.218-5.608 10.317.168.1 3.627-5.417 6.278-10.027Z" clip-rule="evenodd" style="mix-blend-mode:screen"/><path fill="url(#aZ)" fill-rule="evenodd" d="M204.349 15.596c.13-.236-.419-.762-1.043-1.128a2.288 2.288 0 0 0-1.41-.411l-.48.762c.221-.122.838.06 1.432.403.595.343 1.174.9 1.044 1.12l.457-.761v.015Zm2.957-8.061c.297.175 1.219.815 1.043 1.127.153-.259.298-.525.45-.762.152-.236-.762-.982-1.044-1.127-.282-.145-1.181-.602-1.447-.389l-.427.762c.289-.16 1.158.252 1.425.404v-.015Z" clip-rule="evenodd"/><path fill="url(#ba)" fill-rule="evenodd" d="M206.704 7.253c.206.081.407.175.601.282l.13.083.449-.761-.129-.077a4.75 4.75 0 0 0-.61-.29l-.441.763Zm-3.261 7.299-.138-.084a4.19 4.19 0 0 0-.594-.282l-.457.762c.206.08.405.176.594.29l.137.076.458-.762Z" clip-rule="evenodd" style="mix-blend-mode:screen"/><path fill="url(#bb)" fill-rule="evenodd" d="M205.881 7.13a.762.762 0 0 1 .503 0c.152-.258.297-.525.442-.761-.221-.053-.419-.076-.518 0l-.427.762Zm-3.482 6.95a.893.893 0 0 0-.503 0l-.48.761a.845.845 0 0 1 .518 0l.465-.761Z" clip-rule="evenodd" style="mix-blend-mode:multiply"/><path fill="url(#bc)" fill-rule="evenodd" d="m203.915 14.895-.457.762c.328.282.518.556.434.7l.457-.761c.084-.153-.114-.427-.434-.701Zm3.962-6.934c.29.244.541.526.442.701l.45-.762c.106-.183-.153-.464-.442-.7l-.45.761Z" clip-rule="evenodd" style="mix-blend-mode:multiply"/><path fill="url(#bd)" fill-rule="evenodd" d="M216.791 11.413a2.242 2.242 0 0 1-3.824 1.584 2.24 2.24 0 1 1 3.824-1.584Z" clip-rule="evenodd" opacity=".75" style="mix-blend-mode:screen"/><rect width="32" height="32" x="240" fill="#132609" rx="4"/><path fill="#FFD400" fill-rule="evenodd" d="M264.146 29.907a.773.773 0 0 0 .73-.138.867.867 0 0 0 .357-.669c.167-2.445-1.159-7.197-.794-8.289.366-1.092 4.137-4.14 5.399-6.219a.904.904 0 0 0 .095-.758.857.857 0 0 0-.508-.554c-2.215-.92-7.018-1.092-7.939-1.776-.73-.547-4.2-8.38-5.557-9.178-.231-.139-.501.114-.667.326-1.533 1.875-2.382 8.15-3.311 8.852-.929.7-7.002-.449-9.209.464a.79.79 0 0 0-.323.216.826.826 0 0 0-.186.347c-.214.676 4.621 5.705 5.137 6.267a7.82 7.82 0 0 1 1.636 2.013c.349 1.093-.969 5.844-.794 8.29a.888.888 0 0 0 .365.668.787.787 0 0 0 .722.138c2.319-.587 6.312-3.35 7.431-3.35 1.12 0 5.121 2.764 7.431 3.35h-.015Z" clip-rule="evenodd"/><path fill="url(#be)" fill-rule="evenodd" d="M262.685 27.927a.833.833 0 0 0 .73-.147.817.817 0 0 0 .357-.668c.167-2.445-1.151-7.189-.793-8.29.357-1.1 4.128-4.14 5.398-6.218a.924.924 0 0 0-.107-1.092.887.887 0 0 0-.314-.22c-2.207-.913-7.018-1.092-7.939-1.769-.921-.677-2.556-5.29-4.088-7.197a.824.824 0 0 0-.667-.326.84.84 0 0 0-.675.326c-1.532 1.875-3.176 6.52-4.097 7.197-.921.677-5.716.856-7.939 1.769a.903.903 0 0 0-.507.556.926.926 0 0 0 .086.756c1.271 2.078 5.058 5.118 5.407 6.219.349 1.1-.977 5.844-.794 8.289a.893.893 0 0 0 .357.67.86.86 0 0 0 .731.145c2.342-.595 6.311-3.317 7.431-3.317 1.119 0 5.112 2.763 7.423 3.358v-.041Z" clip-rule="evenodd"/><path fill="url(#bf)" fill-rule="evenodd" d="M267.465 12.49c-2.668 1.972-4.176 3.146-6.511 4.727a1.039 1.039 0 0 0-.405.44c-.09.183-.126.39-.103.595.691 2.282 2.644 5.942 2.779 8.216.087 1.345-1.032.937-1.683.644-2.263-.995-3.787-2.445-5.954-3.546a1.843 1.843 0 0 0-2.136.18c-1.31.88-3.636 3.023-5.557 3.643-.548.18-.89.138-1.104-.122.041.209.161.393.333.513a.837.837 0 0 0 .731.147c2.318-.595 6.288-3.317 7.407-3.317 1.12 0 5.113 2.763 7.423 3.358a.837.837 0 0 0 .731-.147.804.804 0 0 0 .259-.289.836.836 0 0 0 .098-.38c.167-2.445-1.151-7.188-.794-8.289.357-1.1 4.128-4.14 5.399-6.218a.923.923 0 0 0-.108-1.092.881.881 0 0 0-.313-.22c-2.207-.914-7.018-1.093-7.939-1.77-.921-.676-2.557-5.33-4.089-7.237a.845.845 0 0 0-1.041-.242.875.875 0 0 0-.301.242 9.03 9.03 0 0 0-.722 1.092c.667-.717 1.357-1.165 1.977-.163a25.025 25.025 0 0 1 2.27 5.706c.389 1.165.62 1.63 2.858 1.8 2.557.188 4.677.368 6.201.628.841.147.857.75.294 1.166v-.065Z" clip-rule="evenodd" style="mix-blend-mode:multiply"/><path fill="url(#bg)" fill-rule="evenodd" d="M253.785 3.915c-.731 1.378-1.358 2.894-2.041 4.296-.579 1.198-.794 1.907-2.231 2.16-1.786.317-3.604.366-5.39.668-1.93.318-2.382.766-.985 2.355.794.946 4.645 4.491 4.891 5.355.246.864-.191 2.168-.231 3.049 0 .423.143 1.043.794.277 5.28-5.958 6.614-7.067 14.283-9.691.794-.286 1.659-.49 2.493-.75.238-.073.548-.31-.135-.408-2.382-.334-4.303-.065-6.351-.26-.921-.082-1.509-1.223-1.795-2.014-.603-1.67-.913-3.447-1.492-5.126-.445-1.329-1.279-.815-1.763.081l-.047.008Z" clip-rule="evenodd" style="mix-blend-mode:screen"/><path fill="url(#bh)" fill-rule="evenodd" d="M247.671 11.675c-.492-.098-.373-.628.08-.734.738-.18 1.5-.212 2.231-.391a2.055 2.055 0 0 0 1.004-.454c.289-.241.51-.557.639-.915.794-1.63 1.588-3.799 2.382-5.274.301-.53.643-.448.563.147a41.603 41.603 0 0 1-1.206 5.559c-.262.953-.556 1.964-1.826 2.119a16.44 16.44 0 0 1-3.898-.057h.031Zm-1.81-.604a11.09 11.09 0 0 0-2.437.44c-.794.278-.611.449.087.49.746.049 1.494.049 2.239 0 1.048-.074.905-.962.111-.905v-.024Z" clip-rule="evenodd" style="mix-blend-mode:screen"/><path fill="url(#bi)" fill-rule="evenodd" d="M260.915 25.71c-.35.147-1.183.334-.167.913a6.64 6.64 0 0 0 1.358.562c1.016.294 1.024-.456.873-1.214a25.428 25.428 0 0 0-1.588-4.63c-.278-.644-.627-.994-.508.05.119 1.173.326 2.338.445 3.512.047.538 0 .611-.437.815l.024-.008Z" clip-rule="evenodd" style="mix-blend-mode:screen"/><path fill="#848484" fill-rule="evenodd" d="M246.894 27.568a11.098 11.098 0 0 0 1.667 2.2.783.783 0 0 0 .722.14c2.318-.587 6.312-3.35 7.431-3.35 1.12 0 5.121 2.763 7.431 3.35a.774.774 0 0 0 .731-.14.883.883 0 0 0 .357-.668c.167-2.445-1.159-7.196-.794-8.289.365-1.092 4.136-4.14 5.399-6.218a.908.908 0 0 0 .095-.758 11.001 11.001 0 0 0-1.651-2.323c.071.106.134.218.19.334a.823.823 0 0 1 .048.39.821.821 0 0 1-.135.368c-1.27 2.078-5.057 5.118-5.399 6.219-.341 1.1.969 5.844.794 8.289a.824.824 0 0 1-.357.668.85.85 0 0 1-.731.147c-2.318-.595-6.311-3.317-7.431-3.317-1.119 0-5.089 2.722-7.431 3.317a.833.833 0 0 1-.73-.147l-.206-.212Z" clip-rule="evenodd"/><path fill="url(#bj)" fill-rule="evenodd" d="m262.971 18.823 1.492 1.98c.358-1.1 4.137-4.14 5.399-6.21a.92.92 0 0 0 .095-.758 1.276 1.276 0 0 0-.087-.188 12.02 12.02 0 0 0-1.588-2.135c.071.106.135.218.191.334a.835.835 0 0 1-.088.758 2.932 2.932 0 0 1-.19.285c-1.413 2.062-4.883 4.89-5.208 5.934h-.016Z" clip-rule="evenodd"/><path fill="url(#bk)" fill-rule="evenodd" d="m264.463 20.803-1.493-1.98c-.349 1.1.969 5.843.794 8.289a.823.823 0 0 1-.357.668h-.056l1.461 1.98h.056a.883.883 0 0 0 .357-.668c.167-2.445-1.159-7.197-.794-8.289h.032Z" clip-rule="evenodd"/><path fill="url(#bl)" fill-rule="evenodd" d="M262.685 27.927c-2.31-.595-6.304-3.317-7.423-3.317l1.461 1.988c1.127 0 5.112 2.763 7.423 3.35a.818.818 0 0 0 .674-.106l-1.46-1.98a.86.86 0 0 1-.675.106v-.041Z" clip-rule="evenodd"/><path fill="url(#bm)" fill-rule="evenodd" d="M249.283 29.907c2.318-.587 6.312-3.35 7.431-3.35l-1.453-1.947c-1.063 0-4.7 2.445-7.042 3.26l-.389.114a.833.833 0 0 1-.73-.147l-.206-.212c.454.757.987 1.462 1.587 2.103l.112.098a.777.777 0 0 0 .722.138l-.032-.057Z" clip-rule="evenodd"/><path fill="url(#bn)" fill-rule="evenodd" d="M257.754 26.509a1.731 1.731 0 0 0-2.024-.098c-1.89.872-4.303 2.583-6.089 3.048-.794.204-1.16.139-1.588-.187.138.182.295.35.468.497a.787.787 0 0 0 .723.138c2.318-.587 6.311-3.35 7.431-3.35 1.119 0 5.12 2.764 7.431 3.35a.701.701 0 0 0 .317 0 6.25 6.25 0 0 1-1.754-.7c-1.588-.816-3.462-1.981-4.954-2.723l.039.025Z" clip-rule="evenodd" style="mix-blend-mode:multiply"/><path fill="url(#bo)" fill-rule="evenodd" d="M264.987 19.271c-1.112 1.084-1.183 1.37-.937 2.942.333 2.111.842 4.385 1.016 6.52.041.314.02.633-.063.938a.895.895 0 0 0 .23-.546c.167-2.445-1.159-7.197-.794-8.29.365-1.091 4.136-4.14 5.399-6.218a.92.92 0 0 0 .095-.758 6.414 6.414 0 0 0-.754-1.214c.46 1.002.357 2.127-.993 3.561-1.016 1.084-2.127 2.054-3.175 3.09l-.024-.025Z" clip-rule="evenodd" style="mix-blend-mode:multiply"/><path fill="url(#bp)" fill-rule="evenodd" d="M268.281 13.093c.755-.147 1.207 1.019 1.16 1.67a2.796 2.796 0 0 1-.262.734c.232-.287.447-.59.643-.904a.92.92 0 0 0 .095-.758 1.27 1.27 0 0 0-.087-.188c-.45-.77-.983-1.487-1.588-2.135.071.106.135.218.19.334a.823.823 0 0 1 .048.39.821.821 0 0 1-.135.368 2.942 2.942 0 0 1-.191.285c-.079.122-.166.237-.254.359.109-.075.23-.128.358-.155h.023Z" clip-rule="evenodd" style="mix-blend-mode:screen"/><path fill="url(#bq)" fill-rule="evenodd" d="M248.291 28.294a1.283 1.283 0 0 1-.095-.155.544.544 0 0 1 0-.31l-.326.098a.833.833 0 0 1-.73-.147l-.206-.212a12.43 12.43 0 0 0 1.587 2.103l.112.098a.778.778 0 0 0 .722.138 5.89 5.89 0 0 0 .691-.212 1.065 1.065 0 0 1-.754-.326 10.677 10.677 0 0 1-.929-1.075h-.072Z" clip-rule="evenodd" style="mix-blend-mode:screen"/><path fill="url(#br)" fill-rule="evenodd" d="M262.82 28.147c.286.338.552.695.794 1.068.159.236.326.53.199.603.104.036.21.066.317.09a.774.774 0 0 0 .731-.14.933.933 0 0 0 .317-.448.417.417 0 0 1-.325-.17c-.27-.327-.524-.677-.794-1.028a1.23 1.23 0 0 1-.334-.904.875.875 0 0 1-.349.562.848.848 0 0 1-.731.147l-.182-.057c.132.076.253.172.357.285v-.008Z" clip-rule="evenodd" style="mix-blend-mode:screen"/><rect width="32" height="32" x="288" fill="#132609" rx="4"/><path fill="url(#bs)" fill-rule="evenodd" d="M300.168 24.69c2.284 1.29 3.563 3.266 2.874 4.475-.689 1.208-3.098 1.078-5.374-.213-2.276-1.29-3.571-3.266-2.874-4.475.698-1.208 3.098-1.085 5.374.213Z" clip-rule="evenodd"/><path fill="#5ACCC9" fill-rule="evenodd" d="M303.166 29.01c-.631 1.061-2.99.865-5.282-.433-2.292-1.299-3.638-3.218-3.023-4.28 1.038 1.953 4.842 4.59 8.305 4.713Z" clip-rule="evenodd" style="mix-blend-mode:multiply"/><path fill="#fff" fill-rule="evenodd" d="m306.954 8.628-.598.988c-.831 1.363-.465.996-1.786 2a5.162 5.162 0 0 1-2.492.988c-2.907.515-5.573 1.634-7.109 4.238a7.07 7.07 0 0 0-.939 3.487c.004 1.5.413 2.97 1.187 4.262a8.513 8.513 0 0 0 3.215 3.087 8.708 8.708 0 0 0 4.319 1.197 8.714 8.714 0 0 0 4.344-1.107 7.229 7.229 0 0 0 2.583-2.572c1.537-2.621 1.179-5.438.174-8.166a4.93 4.93 0 0 1-.357-2.588c.225-1.633.083-1.127.872-2.524l.574-1.004a9.232 9.232 0 0 1-2.127-.906 9.555 9.555 0 0 1-1.852-1.348l-.008-.032Z" clip-rule="evenodd" opacity=".15"/><path fill="url(#bt)" fill-rule="evenodd" d="M302.336 15.062c4.418 0 8.006 1.633 8.006 3.61 0 1.976-3.613 3.633-8.006 3.633-4.394 0-8.007-1.633-8.007-3.609s3.555-3.634 8.007-3.634Z" clip-rule="evenodd"/><path fill="url(#bu)" fill-rule="evenodd" d="M302.336 22.305c-4.427 0-8.007-1.633-8.007-3.609 0-.175.028-.348.083-.514a6.96 6.96 0 0 0-.382 2.147 8.332 8.332 0 0 0 1.187 4.262 8.513 8.513 0 0 0 3.215 3.087 8.708 8.708 0 0 0 4.319 1.197 8.713 8.713 0 0 0 4.344-1.107 7.23 7.23 0 0 0 2.583-2.572 8.516 8.516 0 0 0 .59-6.867c.032.128.049.26.05.392 0 1.992-3.588 3.609-8.007 3.609l.025-.025Z" clip-rule="evenodd"/><path fill="url(#bv)" fill-rule="evenodd" d="M308.98 20.256c0-1.87-3.323-3.39-7.475-3.39-3.323 0-6.088.956-7.102 2.28.457 1.78 3.821 3.16 7.932 3.16a12.68 12.68 0 0 0 6.553-1.528c.053-.16.081-.329.083-.498l.009-.024Z" clip-rule="evenodd" style="mix-blend-mode:screen"/><path fill="url(#bw)" fill-rule="evenodd" d="M306.895 20.631c0-1.633-2.866-2.89-6.404-2.89-2.707 0-4.983.751-5.955 1.82.831 1.577 4.012 2.744 7.774 2.744 1.356.01 2.707-.152 4.02-.481a1.706 1.706 0 0 0 .565-1.193Z" clip-rule="evenodd" style="mix-blend-mode:screen"/><path fill="url(#bx)" fill-rule="evenodd" d="M302.335 22.305c-3.762 0-6.918-1.167-7.774-2.743a1.742 1.742 0 0 1-.166-.384c-.07.358-.106.721-.108 1.086a7.245 7.245 0 0 0 1.04 3.731 7.414 7.414 0 0 0 2.822 2.695 7.644 7.644 0 0 0 7.6.082 6.384 6.384 0 0 0 2.267-2.254 6.679 6.679 0 0 0 .881-3.74 9.12 9.12 0 0 1-2.558 1.07c-1.314.33-2.665.492-4.02.482l.016-.025Z" clip-rule="evenodd" style="mix-blend-mode:screen"/><path fill="url(#by)" fill-rule="evenodd" d="M302.336 22.305c-3.763 0-6.919-1.167-7.774-2.743l.049-.058v-.106.155a4.311 4.311 0 0 0-.066.735 5.951 5.951 0 0 0 .858 3.037 6.091 6.091 0 0 0 2.298 2.198 6.213 6.213 0 0 0 6.188.065 5.183 5.183 0 0 0 1.769-1.837 5.267 5.267 0 0 0 .689-1.936c-1.313.33-2.664.492-4.02.482l.009.008Z" clip-rule="evenodd" style="mix-blend-mode:screen"/><path fill="url(#bz)" fill-rule="evenodd" d="m311.007 12.237.681-1.209-.424-.049-.432-.106-.565.98a5.407 5.407 0 0 0-.515 5.194c.989 2.71 1.354 5.503-.174 8.092a7.088 7.088 0 0 1-2.542 2.54 8.625 8.625 0 0 1-4.293 1.09 8.623 8.623 0 0 1-4.27-1.18 8.446 8.446 0 0 1-3.177-3.05 8.26 8.26 0 0 1-1.183-4.21 7.088 7.088 0 0 1 .963-3.438c1.529-2.596 4.153-3.666 7.044-4.189a1.21 1.21 0 0 1 .971.164c.764.563 1.338 1.502 2.567 2.058-.706-.531-1.778-1.756-1.786-2.45a.42.42 0 0 1 .174-.376 5.957 5.957 0 0 0 2.392-2.45l.59-.971a5.537 5.537 0 0 1-.59-.646l-.714 1.193a4.71 4.71 0 0 1-1.53 1.799 4.822 4.822 0 0 1-2.224.846c-3.181.572-5.98 1.805-7.616 4.598-2.359 4.017-.706 9.3 3.704 11.8 4.41 2.498 9.892 1.273 12.251-2.744 1.661-2.793 1.329-5.79.232-8.787a4.597 4.597 0 0 1 .466-4.5Z" clip-rule="evenodd"/><path fill="url(#bA)" fill-rule="evenodd" d="M309.894 12.653a7.285 7.285 0 0 0-.2 3.087c.154 1.148.382 2.285.681 3.405a19.914 19.914 0 0 1-1.32-3.495 6.695 6.695 0 0 1 .83-2.989l.009-.008Z" clip-rule="evenodd" style="mix-blend-mode:screen"/><path fill="url(#bB)" fill-rule="evenodd" d="m309.088 9.501 1.902 1.078c-1.511 2.572-3.588 4.173-4.634 3.577-1.047-.596-.681-3.168.83-5.716l1.902 1.086V9.5Z" clip-rule="evenodd" opacity=".5" style="mix-blend-mode:screen"/><path fill="url(#bC)" fill-rule="evenodd" d="m308.415 9.044.872.563c-1.03 1.634-2.267 2.72-2.749 2.41-.482-.31-.05-1.854.997-3.487l.88.555v-.041Z" clip-rule="evenodd" opacity=".5" style="mix-blend-mode:screen"/><path fill="url(#bD)" fill-rule="evenodd" d="M299.288 15.544c-.191-.18-.416-.4-.673-.384-.93.041-2.043 1.176-2.492 1.87a5.664 5.664 0 0 0-1.122 2.611 5.62 5.62 0 0 0 .292 2.82c.224.49 1.711 1.38 1.744 1.053a5.102 5.102 0 0 1 .581-2.45 8.546 8.546 0 0 1 2.317-2.547c.906-.686.964-.915.623-1.397a17.796 17.796 0 0 0-1.27-1.633v.057Zm4.011-1.241c.947 1.029.897 1.633.465 2.115-.83.906-2.101.49-2.94-.53-.839-1.022-.988-1.552-.548-2.01.656-.678 2.076-.612 3.023.425Z" clip-rule="evenodd" style="mix-blend-mode:screen"/><path fill="url(#bE)" fill-rule="evenodd" d="M302.701 14.384a1.432 1.432 0 0 0-.888-.535 1.45 1.45 0 0 0-1.022.2c-.266.262-.149.589.399 1.217.548.63 1.378.915 1.868.392.258-.277.266-.596-.357-1.274Zm-4.219 1.389c-.108-.066-.232-.066-.432 0a5.078 5.078 0 0 0-1.528 1.445 5.269 5.269 0 0 0-1.041 2.07 5.212 5.212 0 0 0-.047 2.307c.041.155.158.44.307.49.15.049.141 0 .183-.22a5.214 5.214 0 0 1 .631-1.47 9.994 9.994 0 0 1 2.558-2.736c.341-.253.416-.408.374-.547a8.26 8.26 0 0 0-1.005-1.34Z" clip-rule="evenodd" style="mix-blend-mode:screen"/><path fill="url(#bF)" fill-rule="evenodd" d="m308.233 9.044.457.302c-.706 1.176-1.479 1.993-1.728 1.83-.249-.164.125-1.258.831-2.45l.448.302-.008.016Z" clip-rule="evenodd" opacity=".5" style="mix-blend-mode:screen"/><path fill="#7F8E99" fill-rule="evenodd" d="M310.99 12.253c-.257.433-1.478-.155-2.741-1.306-1.262-1.152-2.076-2.45-1.819-2.875a8.19 8.19 0 0 0 2.367 1.92 8.16 8.16 0 0 0 2.899 1.06l-.714 1.218.008-.017Z" clip-rule="evenodd" opacity=".5" style="mix-blend-mode:multiply"/><path fill="url(#bG)" fill-rule="evenodd" d="M312.984 11.126c-.515.572-2.392.188-4.319-.906s-3.198-2.507-2.957-3.217a6.662 6.662 0 0 1 1.271-1.968l3.555 2.008 3.546 2.025a6.622 6.622 0 0 1-1.096 2.058Zm-.042-2.172-2.641-1.51-2.658-1.503c-.122.174-.23.357-.324.547-.996 1.707 4.369 4.753 5.374 3.046.113-.185.211-.379.291-.58h-.042Z" clip-rule="evenodd"/><path fill="#fff" fill-rule="evenodd" d="M312.743 9.591c.133-.218.247-.448.34-.686l-2.732-1.551-2.741-1.552a4.114 4.114 0 0 0-.424.629c-1.071 1.837 4.477 4.981 5.557 3.16Z" clip-rule="evenodd" opacity=".15"/><path fill="#8E633F" fill-rule="evenodd" d="M311.979 9.624c-.291.326-1.429.073-2.608-.596-1.18-.67-1.927-1.454-1.844-1.878.139-.397.306-.785.498-1.16l4.684 2.654c-.265.384-.523.735-.73.98Z" clip-rule="evenodd"/><path fill="url(#bH)" fill-rule="evenodd" d="M302.427 29.091c-2.608.229-6.279-1.633-7.268-4.123a11.414 11.414 0 0 0 7.268 4.123Z" clip-rule="evenodd" style="mix-blend-mode:screen"/><path fill="#fff" fill-rule="evenodd" d="M305.168 28.454a8.881 8.881 0 0 0 3.497-2.472 8.686 8.686 0 0 0 1.902-3.8c-.1 3.34-2.193 5.84-5.399 6.272Z" clip-rule="evenodd"/><path fill="url(#bI)" fill-rule="evenodd" d="M306.297 7.754c-.124-.629.831-1.903 1.221-2.41l-.54-.31a6.679 6.679 0 0 0-1.27 1.969c-.225.67.83 1.918 2.541 2.964-.789-.556-1.761-1.437-1.952-2.213Z" clip-rule="evenodd" style="mix-blend-mode:screen"/><path fill="url(#bJ)" fill-rule="evenodd" d="M311.19 5.925c1.943 1.118 3.255 2.523 2.89 3.144-.365.62-2.251.22-4.211-.899-1.96-1.118-3.256-2.515-2.89-3.135.365-.621 2.251-.22 4.211.89Z" clip-rule="evenodd"/><path fill="#fff" fill-rule="evenodd" d="M313.133 9.346a7.257 7.257 0 0 1-3.431-1.11c-.434-.248-.852-.52-1.254-.817a.564.564 0 0 1-.83.049.906.906 0 0 1-.216-1.037c-.457-.539-.64-1.02-.457-1.331a.142.142 0 0 1 .042-.057c-.241.62 1.096 1.976 3.056 3.086.954.571 1.998.983 3.09 1.217Z" clip-rule="evenodd"/><path fill="#8E633F" fill-rule="evenodd" d="M312.959 8.317c-.308.351-1.529.074-2.799-.645-1.271-.718-2.06-1.551-2.01-2.009a25.716 25.716 0 0 1 1.76-3.584l4.751 4c-.573.817-1.096 1.544-1.702 2.247v-.009Z" clip-rule="evenodd"/><path fill="url(#bK)" fill-rule="evenodd" d="M312.983 7.86c-.282.31-1.403.049-2.574-.612-1.171-.662-1.902-1.43-1.828-1.838a21.09 21.09 0 0 1 1.512-3.176l4.327 3.634c-.515.694-.888 1.363-1.437 1.992Z" clip-rule="evenodd" style="mix-blend-mode:screen"/><path fill="url(#bL)" fill-rule="evenodd" d="M312.161 4.226c-.963 1.633-1.885 2.45-2.624 1.878-.74-.571-.291-2.106.672-3.748l1.952 1.87Z" clip-rule="evenodd" style="mix-blend-mode:screen"/><path fill="url(#bM)" fill-rule="evenodd" d="M310.193 5.516a.611.611 0 0 1 .4.194.595.595 0 0 1 .157.41.82.82 0 0 1-.449.768c-.257.082-.556-.343-.615-.751-.058-.408.183-.678.507-.62Z" clip-rule="evenodd"/><path fill="url(#bN)" fill-rule="evenodd" d="M313.249 6.562a.756.756 0 0 1-.266.923.731.731 0 0 1-.88-.156c-.166-.188 0-.563.291-.767.29-.205.706-.245.83 0h.025Z" clip-rule="evenodd"/><path fill="#EDCAA6" fill-rule="evenodd" d="M312.66 3.418c-1.354-1.037-2.559-1.699-2.808-1.266-.133.22 0 .694.357 1.25a.808.808 0 0 0 .017 1.045.757.757 0 0 0 .988.18c.159.152.325.296.499.432 1.42 1.094 2.633 1.503 2.948 1.02.316-.481-.639-1.632-2.001-2.661Z" clip-rule="evenodd" opacity=".25" style="mix-blend-mode:screen"/><path fill="#936E4E" fill-rule="evenodd" d="M312.717 3.32c1.329 1.127 2.193 2.319 1.944 2.76-.249.44-1.528-.106-2.865-1.184-1.338-1.078-2.201-2.311-1.944-2.744.257-.433 1.537.09 2.865 1.168Z" clip-rule="evenodd"/><path fill="url(#bO)" fill-rule="evenodd" d="M312.303 3.1c1.088.89 1.81 1.894 1.594 2.253-.216.36-1.279-.09-2.367-.963-1.088-.874-1.81-1.903-1.603-2.262.208-.36 1.271.081 2.376.971Z" clip-rule="evenodd" style="mix-blend-mode:screen"/><path fill="url(#bP)" fill-rule="evenodd" d="M311.58 2.748c.415.31.689.662.614.817-.074.155-.473 0-.888-.319-.416-.318-.69-.653-.607-.816.083-.164.474 0 .881.31v.008Z" clip-rule="evenodd"/><path fill="url(#bQ)" fill-rule="evenodd" d="M312.477 4.324c.299.213.481.482.415.596-.067.115-.366 0-.665-.18-.299-.179-.481-.481-.407-.604.075-.122.358 0 .657.188Z" clip-rule="evenodd"/><path fill="url(#bR)" fill-rule="evenodd" d="M313.964 4.863c.332.261.531.58.457.719-.075.139-.407 0-.74-.237-.332-.237-.531-.58-.456-.719.074-.139.407 0 .739.237Z" clip-rule="evenodd"/><path fill="url(#bS)" fill-rule="evenodd" d="M311.114 4.447a.57.57 0 0 1-.781-.204.592.592 0 0 1-.058-.817c.2-.155.59 0 .831.294s.207.58 0 .727h.008Z" clip-rule="evenodd"/><path fill="url(#bT)" fill-rule="evenodd" d="M309.553 23.596a7.342 7.342 0 0 1-1.679 2.533 7.482 7.482 0 0 1-2.574 1.654 7.587 7.587 0 0 1-6.013-.252 15.463 15.463 0 0 0 10.266-3.935Z" clip-rule="evenodd" style="mix-blend-mode:screen"/><defs><radialGradient id="b" cx="0" cy="0" r="1" gradientTransform="matrix(11.6276 0 0 12.1741 18.731 15.82)" gradientUnits="userSpaceOnUse"><stop stop-color="#FFF369"/><stop offset=".11" stop-color="#FAEF67"/><stop offset=".23" stop-color="#EDE262"/><stop offset=".36" stop-color="#D6CC58"/><stop offset=".5" stop-color="#B7AE4B"/><stop offset=".64" stop-color="#8E873B"/><stop offset=".78" stop-color="#5C5826"/><stop offset=".92" stop-color="#23210E"/><stop offset="1"/></radialGradient><radialGradient id="c" cx="0" cy="0" r="1" gradientTransform="matrix(16.8698 0 0 17.6627 12.632 14.988)" gradientUnits="userSpaceOnUse"><stop offset=".51" stop-color="#fff"/><stop offset=".68" stop-color="#E6DDC3"/><stop offset="1" stop-color="#B09444"/></radialGradient><radialGradient id="d" cx="0" cy="0" r="1" gradientTransform="matrix(21.6298 0 0 22.6464 10.381 4.534)" gradientUnits="userSpaceOnUse"><stop stop-color="#FCF80D"/><stop offset="1" stop-color="#FC9C0D"/></radialGradient><radialGradient id="e" cx="0" cy="0" r="1" gradientTransform="matrix(26.4344 0 0 27.6768 4.157 2.29)" gradientUnits="userSpaceOnUse"><stop stop-color="#FCF80D"/><stop offset="1" stop-color="#F78A0C"/></radialGradient><radialGradient id="f" cx="0" cy="0" r="1" gradientTransform="matrix(15.2713 0 0 15.989 18.893 18.148)" gradientUnits="userSpaceOnUse"><stop offset=".51" stop-color="#fff"/><stop offset=".69" stop-color="#FFE2C3"/><stop offset="1" stop-color="#FFA84B"/></radialGradient><radialGradient id="h" cx="0" cy="0" r="1" gradientTransform="matrix(14.8069 0 0 15.5028 19.169 18.83)" gradientUnits="userSpaceOnUse"><stop offset=".51" stop-color="#fff"/><stop offset=".68" stop-color="#E6DDC3"/><stop offset="1" stop-color="#B09444"/></radialGradient><radialGradient id="i" cx="0" cy="0" r="1" gradientTransform="matrix(19.6829 0 0 20.608 3.64 2.598)" gradientUnits="userSpaceOnUse"><stop stop-color="#FFF369"/><stop offset=".11" stop-color="#FAEF67"/><stop offset=".23" stop-color="#EDE262"/><stop offset=".36" stop-color="#D6CC58"/><stop offset=".5" stop-color="#B7AE4B"/><stop offset=".64" stop-color="#8E873B"/><stop offset=".78" stop-color="#5C5826"/><stop offset=".92" stop-color="#23210E"/><stop offset="1"/></radialGradient><radialGradient id="j" cx="0" cy="0" r="1" gradientTransform="matrix(5.04576 0 0 5.28291 11.73 7.255)" gradientUnits="userSpaceOnUse"><stop stop-color="#FFF200"/><stop offset=".07" stop-color="#E1D600"/><stop offset=".21" stop-color="#A69E00"/><stop offset=".36" stop-color="#746E00"/><stop offset=".5" stop-color="#4A4600"/><stop offset=".64" stop-color="#2A2800"/><stop offset=".77" stop-color="#131200"/><stop offset=".89" stop-color="#050500"/><stop offset="1"/></radialGradient><radialGradient id="n" cx="0" cy="0" r="1" gradientTransform="matrix(14.7384 0 0 14.305 62.136 2.405)" gradientUnits="userSpaceOnUse"><stop stop-color="#89A5C4"/><stop offset="1" stop-color="#575E91"/></radialGradient><radialGradient id="o" cx="0" cy="0" r="1" gradientTransform="matrix(18.7641 0 0 18.2123 58.287 7.84)" gradientUnits="userSpaceOnUse"><stop stop-color="#5D7085"/><stop offset="1" stop-color="#40456B"/></radialGradient><radialGradient id="p" cx="0" cy="0" r="1" gradientTransform="matrix(10.1063 0 0 9.80914 69.454 7.121)" gradientUnits="userSpaceOnUse"><stop stop-color="#5D7085"/><stop offset="1" stop-color="#40456B"/></radialGradient><radialGradient id="q" cx="0" cy="0" r="1" gradientTransform="matrix(14.9321 0 0 14.493 65.698 10.26)" gradientUnits="userSpaceOnUse"><stop/><stop offset="1" stop-color="azure"/></radialGradient><radialGradient id="r" cx="0" cy="0" r="1" gradientTransform="matrix(10.0726 0 0 9.77645 62.843 5.576)" gradientUnits="userSpaceOnUse"><stop/><stop offset="1" stop-color="azure"/></radialGradient><radialGradient id="s" cx="0" cy="0" r="1" gradientTransform="matrix(10.4937 0 0 10.1852 68.823 9.296)" gradientUnits="userSpaceOnUse"><stop stop-color="#fff"/><stop offset="1" stop-color="#545F85"/></radialGradient><radialGradient id="t" cx="0" cy="0" r="1" gradientTransform="matrix(10.3842 0 0 10.0789 66.591 6.942)" gradientUnits="userSpaceOnUse"><stop stop-color="#fff"/><stop offset="1" stop-color="#545F85"/></radialGradient><radialGradient id="T" cx="0" cy="0" r="1" gradientTransform="matrix(6.53614 0 0 6.25477 102.92 16.602)" gradientUnits="userSpaceOnUse"><stop stop-color="#FCAC00"/><stop offset="1" stop-color="#FF7300"/></radialGradient><radialGradient id="U" cx="0" cy="0" r="1" gradientTransform="matrix(16.0069 0 0 15.3178 115.792 7.66)" gradientUnits="userSpaceOnUse"><stop stop-color="#FCAC00"/><stop offset="1" stop-color="#FF7300"/></radialGradient><radialGradient id="V" cx="0" cy="0" r="1" gradientTransform="matrix(30.087 0 0 28.7918 118.445 25.615)" gradientUnits="userSpaceOnUse"><stop stop-color="#FCAC00"/><stop offset="1" stop-color="#FF7300"/></radialGradient><radialGradient id="W" cx="0" cy="0" r="1" gradientTransform="matrix(3.13468 0 0 2.99973 117.475 9.68)" gradientUnits="userSpaceOnUse"><stop stop-color="#fff"/><stop offset=".1" stop-color="#FFFDF9"/><stop offset=".22" stop-color="#FEF6E9"/><stop offset=".36" stop-color="#FDEACF"/><stop offset=".51" stop-color="#FBDBAA"/><stop offset=".67" stop-color="#F9C67A"/><stop offset=".84" stop-color="#F6AE41"/><stop offset="1" stop-color="#F39200"/></radialGradient><radialGradient id="X" cx="0" cy="0" r="1" gradientTransform="matrix(16.7553 0 0 16.034 105.892 15.297)" gradientUnits="userSpaceOnUse"><stop stop-color="#fff"/><stop offset=".1" stop-color="#FFFDF9"/><stop offset=".22" stop-color="#FEF6E9"/><stop offset=".36" stop-color="#FDEACF"/><stop offset=".51" stop-color="#FBDBAA"/><stop offset=".67" stop-color="#F9C67A"/><stop offset=".84" stop-color="#F6AE41"/><stop offset="1" stop-color="#F39200"/></radialGradient><radialGradient id="Y" cx="0" cy="0" r="1" gradientTransform="matrix(10.7972 0 0 10.3324 113.162 22.19)" gradientUnits="userSpaceOnUse"><stop offset=".58"/><stop offset=".74" stop-color="#020201"/><stop offset=".79" stop-color="#090805"/><stop offset=".83" stop-color="#14130B"/><stop offset=".87" stop-color="#252315"/><stop offset=".89" stop-color="#3B3721"/><stop offset=".92" stop-color="#575131"/><stop offset=".94" stop-color="#776F43"/><stop offset=".96" stop-color="#9D9258"/><stop offset=".98" stop-color="#C8BB70"/><stop offset="1" stop-color="#FFEE8F"/></radialGradient><radialGradient id="Z" cx="0" cy="0" r="1" gradientTransform="matrix(23.2693 0 0 22.2675 109.501 5.957)" gradientUnits="userSpaceOnUse"><stop stop-color="#FCF800"/><stop offset="1" stop-color="#FC9700"/></radialGradient><radialGradient id="aa" cx="0" cy="0" r="1" gradientTransform="matrix(6.13597 0 0 5.87182 112.872 9.957)" gradientUnits="userSpaceOnUse"><stop stop-color="#fff"/><stop offset=".1" stop-color="#FFFDF9"/><stop offset=".22" stop-color="#FFF7E9"/><stop offset=".36" stop-color="#FFECCF"/><stop offset=".51" stop-color="#FFDEAA"/><stop offset=".67" stop-color="#FFCC7A"/><stop offset=".84" stop-color="#FFB641"/><stop offset="1" stop-color="#FF9D00"/></radialGradient><radialGradient id="ab" cx="0" cy="0" r="1" gradientTransform="matrix(5.89142 0 0 5.6378 105.751 17.928)" gradientUnits="userSpaceOnUse"><stop stop-color="#fff"/><stop offset=".1" stop-color="#FFFDF9"/><stop offset=".22" stop-color="#FFF7E9"/><stop offset=".36" stop-color="#FFECCF"/><stop offset=".51" stop-color="#FFDEAA"/><stop offset=".67" stop-color="#FFCC7A"/><stop offset=".84" stop-color="#FFB641"/><stop offset="1" stop-color="#FF9D00"/></radialGradient><radialGradient id="ac" cx="0" cy="0" r="1" gradientTransform="matrix(12.346 0 0 11.8146 115.793 10.857)" gradientUnits="userSpaceOnUse"><stop/><stop offset=".08" stop-color="#232112"/><stop offset=".22" stop-color="#5C582E"/><stop offset=".36" stop-color="#8E8747"/><stop offset=".5" stop-color="#B7AE5C"/><stop offset=".64" stop-color="#D6CC6C"/><stop offset=".77" stop-color="#EDE277"/><stop offset=".89" stop-color="#FAEF7E"/><stop offset="1" stop-color="#FFF380"/></radialGradient><radialGradient id="ad" cx="0" cy="0" r="1" gradientTransform="matrix(24.8255 0 0 23.7568 122.121 35.245)" gradientUnits="userSpaceOnUse"><stop stop-color="#FFD000"/><stop offset=".11" stop-color="#FACC00"/><stop offset=".23" stop-color="#EDC100"/><stop offset=".36" stop-color="#D6AF00"/><stop offset=".5" stop-color="#B79500"/><stop offset=".64" stop-color="#8E7400"/><stop offset=".78" stop-color="#5C4B00"/><stop offset=".92" stop-color="#231C00"/><stop offset="1"/></radialGradient><radialGradient id="ag" cx="0" cy="0" r="1" gradientTransform="matrix(18.1485 0 0 17.3673 104.454 10.864)" gradientUnits="userSpaceOnUse"><stop stop-color="#0FF"/><stop offset=".11" stop-color="#00FAFA"/><stop offset=".23" stop-color="#00EDED"/><stop offset=".36" stop-color="#00D6D6"/><stop offset=".5" stop-color="#00B7B7"/><stop offset=".64" stop-color="#008E8E"/><stop offset=".78" stop-color="#005C5C"/><stop offset=".92" stop-color="#002323"/><stop offset="1"/></radialGradient><radialGradient id="ah" cx="0" cy="0" r="1" gradientTransform="matrix(17.1555 0 0 16.417 100.69 8.595)" gradientUnits="userSpaceOnUse"><stop stop-color="#FFF261"/><stop offset=".11" stop-color="#FAEE5F"/><stop offset=".23" stop-color="#EDE15A"/><stop offset=".36" stop-color="#D6CB52"/><stop offset=".5" stop-color="#B7AD46"/><stop offset=".64" stop-color="#8E8736"/><stop offset=".78" stop-color="#5C5823"/><stop offset=".92" stop-color="#23210D"/><stop offset="1"/></radialGradient><radialGradient id="ai" cx="0" cy="0" r="1" gradientTransform="matrix(5.46902 0 0 5.23358 111.635 7.234)" gradientUnits="userSpaceOnUse"><stop stop-color="#FCEA10"/><stop offset=".1" stop-color="#CEBF0D"/><stop offset=".23" stop-color="#988D0A"/><stop offset=".36" stop-color="#696207"/><stop offset=".5" stop-color="#433F04"/><stop offset=".63" stop-color="#262302"/><stop offset=".76" stop-color="#111001"/><stop offset=".88" stop-color="#040400"/><stop offset="1"/></radialGradient><radialGradient id="aj" cx="0" cy="0" r="1" gradientTransform="translate(154.988 9.48) scale(22.8993)" gradientUnits="userSpaceOnUse"><stop stop-color="#C4EEFF"/><stop offset=".33" stop-color="#4CCAFF"/><stop offset="1" stop-color="#003EB0"/></radialGradient><radialGradient id="ak" cx="0" cy="0" r="1" gradientTransform="translate(147.323 4.972) scale(8.70485)" gradientUnits="userSpaceOnUse"><stop stop-color="#A5E2FF"/><stop offset="1" stop-color="#218CF3"/></radialGradient><radialGradient id="al" cx="0" cy="0" r="1" gradientTransform="translate(154.662 10.036) scale(25.1737)" gradientUnits="userSpaceOnUse"><stop stop-color="#A5E2FF"/><stop offset="1" stop-color="#08F"/></radialGradient><radialGradient id="am" cx="0" cy="0" r="1" gradientTransform="translate(158.727 30.12) scale(17.4997)" gradientUnits="userSpaceOnUse"><stop stop-color="#A5E2FF"/><stop offset="1" stop-color="#0069C2"/></radialGradient><radialGradient id="an" cx="0" cy="0" r="1" gradientTransform="translate(173.961 13.513) scale(12.7137)" gradientUnits="userSpaceOnUse"><stop stop-color="#4CCAFF"/><stop offset="1" stop-color="#003EB0"/></radialGradient><radialGradient id="ao" cx="0" cy="0" r="1" gradientTransform="matrix(11.102 0 0 11.1019 147.339 22.3)" gradientUnits="userSpaceOnUse"><stop stop-color="#A5E2FF"/><stop offset="1" stop-color="#218CF3"/></radialGradient><radialGradient id="ap" cx="0" cy="0" r="1" gradientTransform="translate(155.741 32.698) scale(20.4122)" gradientUnits="userSpaceOnUse"><stop stop-color="#77D6FF"/><stop offset="1" stop-color="#001FB0"/></radialGradient><radialGradient id="aq" cx="0" cy="0" r="1" gradientTransform="translate(153.016 29.769) scale(18.5223)" gradientUnits="userSpaceOnUse"><stop stop-color="#A5E2FF"/><stop offset="1" stop-color="#0081FF"/></radialGradient><radialGradient id="ar" cx="0" cy="0" r="1" gradientTransform="translate(167.874 17.702) scale(10.8074)" gradientUnits="userSpaceOnUse"><stop stop-color="#00000D"/><stop offset="1" stop-color="#fff"/></radialGradient><radialGradient id="as" cx="0" cy="0" r="1" gradientTransform="translate(156.952 19.125) scale(11.6174)" gradientUnits="userSpaceOnUse"><stop offset=".31" stop-color="#00000D"/><stop offset="1" stop-color="#1CB4FF"/></radialGradient><radialGradient id="at" cx="0" cy="0" r="1" gradientTransform="translate(167.44 1.47) scale(18.8578)" gradientUnits="userSpaceOnUse"><stop offset=".57" stop-color="#00000D"/><stop offset=".6" stop-color="#030613"/><stop offset=".63" stop-color="#0D1524"/><stop offset=".68" stop-color="#1C2F3F"/><stop offset=".72" stop-color="#315466"/><stop offset=".77" stop-color="#4C8298"/><stop offset=".82" stop-color="#6DBAD3"/><stop offset=".86" stop-color="#85E3FF"/></radialGradient><radialGradient id="au" cx="0" cy="0" r="1" gradientTransform="translate(153.917 9.758) scale(6.75771)" gradientUnits="userSpaceOnUse"><stop stop-color="#fff"/><stop offset=".2" stop-color="#6EFFFF"/><stop offset=".24" stop-color="#61E1E1"/><stop offset=".32" stop-color="#4BADAD"/><stop offset=".41" stop-color="#377F7F"/><stop offset=".5" stop-color="#265858"/><stop offset=".59" stop-color="#183838"/><stop offset=".68" stop-color="#0D1F1F"/><stop offset=".77" stop-color="#060E0E"/><stop offset=".88" stop-color="#010303"/><stop offset="1"/></radialGradient><radialGradient id="av" cx="0" cy="0" r="1" gradientTransform="rotate(30 96.876 391.438) scale(2.39243)" gradientUnits="userSpaceOnUse"><stop stop-color="#FCCD10"/><stop offset=".22" stop-color="#EDAB09"/><stop offset=".45" stop-color="#E08E02"/><stop offset=".58" stop-color="#DB8300"/><stop offset=".71" stop-color="#D67D00"/><stop offset=".88" stop-color="#C86C00"/><stop offset="1" stop-color="#BA5B00"/></radialGradient><radialGradient id="aw" cx="0" cy="0" r="1" gradientTransform="rotate(30 98.558 390.792) scale(2.91053)" gradientUnits="userSpaceOnUse"><stop stop-color="#FFE58A"/><stop offset="1"/></radialGradient><radialGradient id="ax" cx="0" cy="0" r="1" gradientTransform="rotate(30 99.986 389.955) scale(2.87244)" gradientUnits="userSpaceOnUse"><stop stop-color="#FFE58A"/><stop offset="1"/></radialGradient><radialGradient id="ay" cx="0" cy="0" r="1" gradientTransform="rotate(30 96.207 392.57) scale(2.75815)" gradientUnits="userSpaceOnUse"><stop stop-color="#FFE58A"/><stop offset="1"/></radialGradient><radialGradient id="aA" cx="0" cy="0" r="1" gradientTransform="matrix(6.52204 0 0 6.52203 209.019 7.123)" gradientUnits="userSpaceOnUse"><stop stop-color="#E38812"/><stop offset=".11" stop-color="#E6962D"/><stop offset=".73" stop-color="#F8E1C3"/><stop offset="1" stop-color="#fff"/></radialGradient><radialGradient id="aB" cx="0" cy="0" r="1" gradientTransform="translate(207.351 4.96) scale(2.32386)" gradientUnits="userSpaceOnUse"><stop stop-color="#FFF0B0"/><stop offset="1"/></radialGradient><radialGradient id="aX" cx="0" cy="0" r="1" gradientTransform="translate(194.749 26.232) scale(3.08578)" gradientUnits="userSpaceOnUse"><stop stop-color="#ADBDC9"/><stop offset="1" stop-color="#263754"/></radialGradient><radialGradient id="aY" cx="0" cy="0" r="1" gradientTransform="translate(191.717 15.68) scale(11.9088)" gradientUnits="userSpaceOnUse"><stop stop-color="#fff"/><stop offset=".11" stop-color="#FAFAFA"/><stop offset=".23" stop-color="#EDEDED"/><stop offset=".36" stop-color="#D6D6D6"/><stop offset=".5" stop-color="#B7B7B7"/><stop offset=".64" stop-color="#8E8E8E"/><stop offset=".78" stop-color="#5C5C5C"/><stop offset=".92" stop-color="#232323"/><stop offset="1"/></radialGradient><radialGradient id="bd" cx="0" cy="0" r="1" gradientTransform="translate(214.551 11.413) scale(2.24004)" gradientUnits="userSpaceOnUse"><stop stop-color="#FCEA10"/><stop offset=".12" stop-color="#CDBF0D"/><stop offset=".3" stop-color="#908509"/><stop offset=".47" stop-color="#5C5606"/><stop offset=".63" stop-color="#343103"/><stop offset=".78" stop-color="#181601"/><stop offset=".91" stop-color="#060600"/><stop offset="1"/></radialGradient><radialGradient id="be" cx="0" cy="0" r="1" gradientTransform="matrix(24.7623 0 0 25.4214 250.451 7.2)" gradientUnits="userSpaceOnUse"><stop stop-color="#FCF800"/><stop offset="1" stop-color="#FC9700"/></radialGradient><radialGradient id="bf" cx="0" cy="0" r="1" gradientTransform="matrix(23.6031 0 0 24.2314 253.666 9.67)" gradientUnits="userSpaceOnUse"><stop stop-color="#fff"/><stop offset=".1" stop-color="#FFFDF9"/><stop offset=".22" stop-color="#FFF7E9"/><stop offset=".36" stop-color="#FFECCF"/><stop offset=".51" stop-color="#FFDEAA"/><stop offset=".67" stop-color="#FFCC7A"/><stop offset=".84" stop-color="#FFB641"/><stop offset="1" stop-color="#FF9D00"/></radialGradient><radialGradient id="bg" cx="0" cy="0" r="1" gradientTransform="matrix(21.7295 0 0 22.3079 247.362 2.359)" gradientUnits="userSpaceOnUse"><stop stop-color="#FFF261"/><stop offset=".11" stop-color="#FAEE5F"/><stop offset=".23" stop-color="#EDE15A"/><stop offset=".36" stop-color="#D6CB52"/><stop offset=".5" stop-color="#B7AD46"/><stop offset=".64" stop-color="#8E8736"/><stop offset=".78" stop-color="#5C5823"/><stop offset=".92" stop-color="#23210D"/><stop offset="1"/></radialGradient><radialGradient id="bh" cx="0" cy="0" r="1" gradientTransform="matrix(15.7354 0 0 16.1543 247.441 3.223)" gradientUnits="userSpaceOnUse"><stop stop-color="#FFFACF"/><stop offset="1"/></radialGradient><radialGradient id="bi" cx="0" cy="0" r="1" gradientTransform="matrix(10.1304 0 0 10.4 258.049 25.465)" gradientUnits="userSpaceOnUse"><stop/><stop offset=".08" stop-color="#232112"/><stop offset=".22" stop-color="#5C582E"/><stop offset=".36" stop-color="#8E8747"/><stop offset=".5" stop-color="#B7AE5C"/><stop offset=".64" stop-color="#D6CC6C"/><stop offset=".77" stop-color="#EDE277"/><stop offset=".89" stop-color="#FAEF7E"/><stop offset="1" stop-color="#FFF380"/></radialGradient><radialGradient id="bj" cx="0" cy="0" r="1" gradientTransform="matrix(11.5356 0 0 11.8427 261.311 9.4)" gradientUnits="userSpaceOnUse"><stop stop-color="#FCAC00"/><stop offset="1" stop-color="#FF7300"/></radialGradient><radialGradient id="bk" cx="0" cy="0" r="1" gradientTransform="matrix(10.5988 0 0 10.8809 255.635 26.859)" gradientUnits="userSpaceOnUse"><stop stop-color="#FC8F00"/><stop offset="1" stop-color="#E86900"/></radialGradient><radialGradient id="bl" cx="0" cy="0" r="1" gradientTransform="matrix(13.2505 0 0 13.6032 267.051 18.203)" gradientUnits="userSpaceOnUse"><stop stop-color="#FCAC00"/><stop offset="1" stop-color="#FF7300"/></radialGradient><radialGradient id="bm" cx="0" cy="0" r="1" gradientTransform="matrix(10.6067 0 0 10.8891 247.894 32.287)" gradientUnits="userSpaceOnUse"><stop stop-color="#FC8F00"/><stop offset="1" stop-color="#E86900"/></radialGradient><radialGradient id="bn" cx="0" cy="0" r="1" gradientTransform="matrix(13.3854 0 0 13.7417 257.024 20.82)" gradientUnits="userSpaceOnUse"><stop stop-color="#fff"/><stop offset=".1" stop-color="#FEFBF9"/><stop offset=".22" stop-color="#FBF0E9"/><stop offset=".36" stop-color="#F6DECF"/><stop offset=".51" stop-color="#F0C4AA"/><stop offset=".67" stop-color="#E7A47A"/><stop offset=".84" stop-color="#DD7C41"/><stop offset="1" stop-color="#D15000"/></radialGradient><radialGradient id="bo" cx="0" cy="0" r="1" gradientTransform="matrix(12.7265 0 0 13.0653 257.897 18.114)" gradientUnits="userSpaceOnUse"><stop stop-color="#fff"/><stop offset=".1" stop-color="#FEFBF9"/><stop offset=".22" stop-color="#FBF0E9"/><stop offset=".36" stop-color="#F6DECF"/><stop offset=".51" stop-color="#F0C4AA"/><stop offset=".67" stop-color="#E7A47A"/><stop offset=".84" stop-color="#DD7C41"/><stop offset="1" stop-color="#D15000"/></radialGradient><radialGradient id="bp" cx="0" cy="0" r="1" gradientTransform="matrix(5.78765 0 0 5.94172 267.908 10.126)" gradientUnits="userSpaceOnUse"><stop stop-color="#FFF261"/><stop offset=".11" stop-color="#FAEE5F"/><stop offset=".23" stop-color="#EDE15A"/><stop offset=".36" stop-color="#D6CB52"/><stop offset=".5" stop-color="#B7AD46"/><stop offset=".64" stop-color="#8E8736"/><stop offset=".78" stop-color="#5C5823"/><stop offset=".92" stop-color="#23210D"/><stop offset="1"/></radialGradient><radialGradient id="bq" cx="0" cy="0" r="1" gradientTransform="matrix(5.93056 0 0 6.08842 247.45 24.373)" gradientUnits="userSpaceOnUse"><stop stop-color="#FFF261"/><stop offset=".11" stop-color="#FAEE5F"/><stop offset=".23" stop-color="#EDE15A"/><stop offset=".36" stop-color="#D6CB52"/><stop offset=".5" stop-color="#B7AD46"/><stop offset=".64" stop-color="#8E8736"/><stop offset=".78" stop-color="#5C5823"/><stop offset=".92" stop-color="#23210D"/><stop offset="1"/></radialGradient><radialGradient id="br" cx="0" cy="0" r="1" gradientTransform="matrix(6.28782 0 0 6.4552 266.131 24.56)" gradientUnits="userSpaceOnUse"><stop stop-color="#FFF261"/><stop offset=".11" stop-color="#FAEE5F"/><stop offset=".23" stop-color="#EDE15A"/><stop offset=".36" stop-color="#D6CB52"/><stop offset=".5" stop-color="#B7AD46"/><stop offset=".64" stop-color="#8E8736"/><stop offset=".78" stop-color="#5C5823"/><stop offset=".92" stop-color="#23210D"/><stop offset="1"/></radialGradient><radialGradient id="bs" cx="0" cy="0" r="1" gradientTransform="matrix(14.3521 0 0 14.1106 292.103 20.321)" gradientUnits="userSpaceOnUse"><stop stop-color="#fff"/><stop offset="1" stop-color="#5E689E"/></radialGradient><radialGradient id="bt" cx="0" cy="0" r="1" gradientTransform="matrix(11.7026 0 0 11.5057 299.412 22.91)" gradientUnits="userSpaceOnUse"><stop stop-color="#95C11F"/><stop offset="1" stop-color="#3D8C00"/></radialGradient><radialGradient id="bu" cx="0" cy="0" r="1" gradientTransform="matrix(14.9584 0 0 14.7067 299.529 20.909)" gradientUnits="userSpaceOnUse"><stop stop-color="#79A600"/><stop offset=".61" stop-color="#007011"/><stop offset=".89" stop-color="#95C11F"/></radialGradient><radialGradient id="bv" cx="0" cy="0" r="1" gradientTransform="matrix(14.0448 0 0 13.8085 300.217 24.388)" gradientUnits="userSpaceOnUse"><stop stop-color="#468A00"/><stop offset="1"/></radialGradient><radialGradient id="bw" cx="0" cy="0" r="1" gradientTransform="matrix(12.201 0 0 11.9957 297.277 24.886)" gradientUnits="userSpaceOnUse"><stop stop-color="#64AA19"/><stop offset="1"/></radialGradient><radialGradient id="bx" cx="0" cy="0" r="1" gradientTransform="matrix(9.97505 0 0 9.8072 301.098 18.892)" gradientUnits="userSpaceOnUse"><stop stop-color="#95C11F"/><stop offset="1"/></radialGradient><radialGradient id="by" cx="0" cy="0" r="1" gradientTransform="matrix(9.1611 0 0 9.00695 298.706 19.741)" gradientUnits="userSpaceOnUse"><stop stop-color="#95C11F"/><stop offset="1"/></radialGradient><radialGradient id="bz" cx="0" cy="0" r="1" gradientTransform="matrix(32.4501 0 0 31.904 301.306 12.147)" gradientUnits="userSpaceOnUse"><stop stop-color="#CCF0EF"/><stop offset="1" stop-color="#5E73E6"/></radialGradient><radialGradient id="bB" cx="0" cy="0" r="1" gradientTransform="matrix(9.62621 0 0 9.46423 302.926 7.574)" gradientUnits="userSpaceOnUse"><stop stop-color="#fff"/><stop offset="1"/></radialGradient><radialGradient id="bC" cx="0" cy="0" r="1" gradientTransform="matrix(5.1744 0 0 5.08733 305.99 8.832)" gradientUnits="userSpaceOnUse"><stop stop-color="#fff"/><stop offset="1"/></radialGradient><radialGradient id="bD" cx="0" cy="0" r="1" gradientTransform="matrix(13.9202 0 0 13.686 303.357 22.518)" gradientUnits="userSpaceOnUse"><stop offset=".37"/><stop offset="1" stop-color="#fff"/></radialGradient><radialGradient id="bE" cx="0" cy="0" r="1" gradientTransform="matrix(14.2441 0 0 14.0045 302.203 20.999)" gradientUnits="userSpaceOnUse"><stop/><stop offset="1" stop-color="#fff"/></radialGradient><radialGradient id="bF" cx="0" cy="0" r="1" gradientTransform="matrix(3.72092 0 0 3.65831 306.862 9.256)" gradientUnits="userSpaceOnUse"><stop stop-color="#fff"/><stop offset="1"/></radialGradient><radialGradient id="bG" cx="0" cy="0" r="1" gradientTransform="matrix(11.4368 0 0 11.2444 307.402 5.01)" gradientUnits="userSpaceOnUse"><stop stop-color="#CCF0EF"/><stop offset="1" stop-color="#364E82"/></radialGradient><radialGradient id="bI" cx="0" cy="0" r="1" gradientTransform="matrix(4.46012 0 0 4.38507 309.179 8.154)" gradientUnits="userSpaceOnUse"><stop/><stop offset="1" stop-color="#fff"/></radialGradient><radialGradient id="bJ" cx="0" cy="0" r="1" gradientTransform="matrix(13.3305 0 0 13.1062 307.012 4.888)" gradientUnits="userSpaceOnUse"><stop stop-color="#F2FFFF"/><stop offset="1" stop-color="#6A79C2"/></radialGradient><radialGradient id="bK" cx="0" cy="0" r="1" gradientTransform="matrix(5.60629 0 0 5.51196 310.068 3.255)" gradientUnits="userSpaceOnUse"><stop stop-color="#CA9E67"/><stop offset="1"/></radialGradient><radialGradient id="bL" cx="0" cy="0" r="1" gradientTransform="matrix(4.09467 0 0 4.02577 310.201 2.528)" gradientUnits="userSpaceOnUse"><stop stop-color="#CA9E67"/><stop offset="1"/></radialGradient><radialGradient id="bO" cx="0" cy="0" r="1" gradientTransform="matrix(6.02988 0 0 5.92842 310.608 .617)" gradientUnits="userSpaceOnUse"><stop stop-color="#CA9E67"/><stop offset="1"/></radialGradient><radialGradient id="bT" cx="0" cy="0" r="1" gradientTransform="matrix(9.86708 0 0 9.70104 303.398 21.897)" gradientUnits="userSpaceOnUse"><stop stop-color="#95C11F"/><stop offset="1"/></radialGradient><linearGradient id="a" x1="14.204" x2="27.454" y1="30.808" y2="8.885" gradientUnits="userSpaceOnUse"><stop stop-color="#E86F0C"/><stop offset=".69" stop-color="#FC940D"/><stop offset="1" stop-color="#E86F0C"/></linearGradient><linearGradient id="g" x1="6.738" x2="16.928" y1="23.019" y2="6.164" gradientUnits="userSpaceOnUse"><stop stop-color="#FC940D"/><stop offset="1" stop-color="#E86F0C"/></linearGradient><linearGradient id="k" x1="67.467" x2="70.32" y1="4.661" y2="6.353" gradientUnits="userSpaceOnUse"><stop stop-color="#7F4E2F"/><stop offset=".31" stop-color="#D68833"/><stop offset="1" stop-color="#70442E"/></linearGradient><linearGradient id="l" x1="69.319" x2="70.348" y1="5.707" y2="6.322" gradientUnits="userSpaceOnUse"><stop stop-color="#fff"/><stop offset=".4" stop-color="#C3C7E6"/><stop offset="1" stop-color="#616DBE"/></linearGradient><linearGradient id="m" x1="67.424" x2="67.889" y1="4.726" y2="5" gradientUnits="userSpaceOnUse"><stop stop-color="#616DBE"/><stop offset=".6" stop-color="#C3C7E6"/><stop offset="1" stop-color="#fff"/></linearGradient><linearGradient id="u" x1="60.342" x2="63.261" y1="16.571" y2="18.306" gradientUnits="userSpaceOnUse"><stop stop-color="#7F4E2F"/><stop offset=".31" stop-color="#D68833"/><stop offset="1" stop-color="#70442E"/></linearGradient><linearGradient id="v" x1="62.22" x2="63.29" y1="17.634" y2="18.266" gradientUnits="userSpaceOnUse"><stop stop-color="#fff"/><stop offset=".4" stop-color="#C3C7E6"/><stop offset="1" stop-color="#616DBE"/></linearGradient><linearGradient id="w" x1="60.3" x2="60.789" y1="16.636" y2="16.927" gradientUnits="userSpaceOnUse"><stop stop-color="#616DBE"/><stop offset=".6" stop-color="#C3C7E6"/><stop offset="1" stop-color="#fff"/></linearGradient><linearGradient id="x" x1="58.657" x2="61.601" y1="19.375" y2="21.127" gradientUnits="userSpaceOnUse"><stop stop-color="#611412"/><stop offset=".31" stop-color="#8A4835"/><stop offset="1" stop-color="#450E0E"/></linearGradient><linearGradient id="y" x1="57.866" x2="60.835" y1="20.666" y2="22.427" gradientUnits="userSpaceOnUse"><stop stop-color="#611412"/><stop offset=".31" stop-color="#8A4835"/><stop offset="1" stop-color="#450E0E"/></linearGradient><linearGradient id="z" x1="57.158" x2="60.136" y1="21.852" y2="23.62" gradientUnits="userSpaceOnUse"><stop stop-color="#611412"/><stop offset=".31" stop-color="#8A4835"/><stop offset="1" stop-color="#450E0E"/></linearGradient><linearGradient id="A" x1="56.645" x2="59.656" y1="22.685" y2="24.471" gradientUnits="userSpaceOnUse"><stop stop-color="#611412"/><stop offset=".31" stop-color="#8A4835"/><stop offset="1" stop-color="#450E0E"/></linearGradient><linearGradient id="B" x1="55.844" x2="58.863" y1="24.026" y2="25.82" gradientUnits="userSpaceOnUse"><stop stop-color="#611412"/><stop offset=".31" stop-color="#8A4835"/><stop offset="1" stop-color="#450E0E"/></linearGradient><linearGradient id="C" x1="55.205" x2="58.232" y1="25.08" y2="26.883" gradientUnits="userSpaceOnUse"><stop stop-color="#611412"/><stop offset=".31" stop-color="#8A4835"/><stop offset="1" stop-color="#450E0E"/></linearGradient><linearGradient id="D" x1="58.018" x2="59.029" y1="24.933" y2="25.54" gradientUnits="userSpaceOnUse"><stop stop-color="#fff"/><stop offset=".4" stop-color="#C3C7E6"/><stop offset="1" stop-color="#616DBE"/></linearGradient><linearGradient id="E" x1="58.759" x2="59.787" y1="23.633" y2="24.249" gradientUnits="userSpaceOnUse"><stop stop-color="#fff"/><stop offset=".4" stop-color="#C3C7E6"/><stop offset="1" stop-color="#616DBE"/></linearGradient><linearGradient id="F" x1="59.331" x2="60.36" y1="22.644" y2="23.251" gradientUnits="userSpaceOnUse"><stop stop-color="#fff"/><stop offset=".4" stop-color="#C3C7E6"/><stop offset="1" stop-color="#616DBE"/></linearGradient><linearGradient id="G" x1="59.921" x2="60.958" y1="21.606" y2="22.221" gradientUnits="userSpaceOnUse"><stop stop-color="#fff"/><stop offset=".4" stop-color="#C3C7E6"/><stop offset="1" stop-color="#616DBE"/></linearGradient><linearGradient id="H" x1="60.603" x2="61.656" y1="20.413" y2="21.037" gradientUnits="userSpaceOnUse"><stop stop-color="#fff"/><stop offset=".4" stop-color="#C3C7E6"/><stop offset="1" stop-color="#616DBE"/></linearGradient><linearGradient id="I" x1="55.954" x2="56.434" y1="23.838" y2="24.128" gradientUnits="userSpaceOnUse"><stop stop-color="#616DBE"/><stop offset=".6" stop-color="#C3C7E6"/><stop offset="1" stop-color="#fff"/></linearGradient><linearGradient id="J" x1="56.628" x2="57.117" y1="22.71" y2="23" gradientUnits="userSpaceOnUse"><stop stop-color="#616DBE"/><stop offset=".6" stop-color="#C3C7E6"/><stop offset="1" stop-color="#fff"/></linearGradient><linearGradient id="K" x1="57.326" x2="57.807" y1="21.565" y2="21.856" gradientUnits="userSpaceOnUse"><stop stop-color="#616DBE"/><stop offset=".6" stop-color="#C3C7E6"/><stop offset="1" stop-color="#fff"/></linearGradient><linearGradient id="L" x1="58" x2="58.49" y1="20.445" y2="20.736" gradientUnits="userSpaceOnUse"><stop stop-color="#616DBE"/><stop offset=".6" stop-color="#C3C7E6"/><stop offset="1" stop-color="#fff"/></linearGradient><linearGradient id="M" x1="58.775" x2="59.265" y1="19.162" y2="19.453" gradientUnits="userSpaceOnUse"><stop stop-color="#616DBE"/><stop offset=".6" stop-color="#C3C7E6"/><stop offset="1" stop-color="#fff"/></linearGradient><linearGradient id="N" x1="54.252" x2="56.973" y1="27.026" y2="28.649" gradientUnits="userSpaceOnUse"><stop stop-color="#7F4E2F"/><stop offset=".31" stop-color="#D68833"/><stop offset="1" stop-color="#70442E"/></linearGradient><linearGradient id="O" x1="56.012" x2="56.991" y1="28.031" y2="28.612" gradientUnits="userSpaceOnUse"><stop stop-color="#fff"/><stop offset=".4" stop-color="#C3C7E6"/><stop offset="1" stop-color="#616DBE"/></linearGradient><linearGradient id="P" x1="54.21" x2="54.65" y1="27.091" y2="27.356" gradientUnits="userSpaceOnUse"><stop stop-color="#616DBE"/><stop offset=".6" stop-color="#C3C7E6"/><stop offset="1" stop-color="#fff"/></linearGradient><linearGradient id="Q" x1="53.503" x2="56.19" y1="29.143" y2="29.143" gradientUnits="userSpaceOnUse"><stop stop-color="#8A5821"/><stop offset="1" stop-color="#543323"/></linearGradient><linearGradient id="R" x1="55.188" x2="55.718" y1="25.105" y2="25.421" gradientUnits="userSpaceOnUse"><stop stop-color="#616DBE"/><stop offset=".6" stop-color="#C3C7E6"/><stop offset="1" stop-color="#fff"/></linearGradient><linearGradient id="S" x1="57.284" x2="58.246" y1="26.29" y2="26.863" gradientUnits="userSpaceOnUse"><stop stop-color="#fff"/><stop offset=".4" stop-color="#C3C7E6"/><stop offset="1" stop-color="#616DBE"/></linearGradient><linearGradient id="ae" x1="112.168" x2="105.678" y1="5.085" y2="18.028" gradientUnits="userSpaceOnUse"><stop stop-color="#FFFACF"/><stop offset="1"/></linearGradient><linearGradient id="af" x1="113.376" x2="117.911" y1="13.815" y2="13.815" gradientUnits="userSpaceOnUse"><stop stop-color="#FFFACF"/><stop offset="1"/></linearGradient><linearGradient id="az" x1="206.703" x2="209.629" y1="5.203" y2="6.887" gradientUnits="userSpaceOnUse"><stop offset=".05" stop-color="#ED9500"/><stop offset=".4" stop-color="#FC0"/><stop offset=".93" stop-color="#B36600"/></linearGradient><linearGradient id="aC" x1="210.444" x2="218.932" y1="17.561" y2="22.461" gradientUnits="userSpaceOnUse"><stop stop-color="#9C0E0E"/><stop offset=".69" stop-color="#FC3F00"/><stop offset="1" stop-color="#C4020B"/></linearGradient><linearGradient id="aD" x1="213.18" x2="218.048" y1="19.085" y2="21.897" gradientUnits="userSpaceOnUse"><stop/><stop offset=".13" stop-color="#3E1111"/><stop offset=".31" stop-color="#902727"/><stop offset=".47" stop-color="#CC3737"/><stop offset=".58" stop-color="#F14141"/><stop offset=".64" stop-color="#FF4545"/><stop offset=".68" stop-color="#F24040"/><stop offset=".77" stop-color="#D03333"/><stop offset=".89" stop-color="#991D1D"/><stop offset="1" stop-color="#630808"/></linearGradient><linearGradient id="aE" x1="210.444" x2="213.941" y1="17.561" y2="19.581" gradientUnits="userSpaceOnUse"><stop stop-color="#800C0C"/><stop offset="1" stop-color="#FFE4BF"/></linearGradient><linearGradient id="aF" x1="210.452" x2="218.818" y1="17.638" y2="22.476" gradientUnits="userSpaceOnUse"><stop offset=".07" stop-color="#B36600"/><stop offset=".6" stop-color="#FC0"/><stop offset=".95" stop-color="#ED9500"/></linearGradient><linearGradient id="aG" x1="210.452" x2="213.492" y1="17.638" y2="19.398" gradientUnits="userSpaceOnUse"><stop offset=".57" stop-color="#FFA163"/><stop offset="1" stop-color="#FFE4BF"/></linearGradient><linearGradient id="aH" x1="211.107" x2="212.601" y1="16.236" y2="17.097" gradientUnits="userSpaceOnUse"><stop stop-color="#960007"/><stop offset="1" stop-color="#610000"/></linearGradient><linearGradient id="aI" x1="206.185" x2="213.271" y1="11.946" y2="16.038" gradientUnits="userSpaceOnUse"><stop stop-color="#9C0E0E"/><stop offset=".75" stop-color="#FC3F00"/><stop offset="1" stop-color="#C4020B"/></linearGradient><linearGradient id="aJ" x1="211.359" x2="213.272" y1="14.933" y2="16.038" gradientUnits="userSpaceOnUse"><stop/><stop offset=".68" stop-color="#FF7373"/><stop offset=".74" stop-color="#F26D6D"/><stop offset=".84" stop-color="#D05E5E"/><stop offset=".97" stop-color="#994545"/><stop offset="1" stop-color="#8C3F3F"/></linearGradient><linearGradient id="aK" x1="214.46" x2="217.759" y1="19.824" y2="21.729" gradientUnits="userSpaceOnUse"><stop/><stop offset=".02" stop-color="#0F0E0B"/><stop offset=".1" stop-color="#4E4936"/><stop offset=".18" stop-color="#847C5B"/><stop offset=".25" stop-color="#B0A67A"/><stop offset=".33" stop-color="#D2C691"/><stop offset=".4" stop-color="#EBDDA2"/><stop offset=".46" stop-color="#FAEBAC"/><stop offset=".51" stop-color="#FFF0B0"/><stop offset=".56" stop-color="#F9EAAC"/><stop offset=".62" stop-color="#E8DAA0"/><stop offset=".69" stop-color="#CCC08D"/><stop offset=".77" stop-color="#A59B72"/><stop offset=".85" stop-color="#736C4F"/><stop offset=".93" stop-color="#373326"/><stop offset="1"/></linearGradient><linearGradient id="aL" x1="206.223" x2="211.869" y1="11.885" y2="15.146" gradientUnits="userSpaceOnUse"><stop stop-color="#FF3030"/><stop offset="1" stop-color="#FFE4BF"/></linearGradient><linearGradient id="aM" x1="202.619" x2="216.73" y1="18.133" y2="26.278" gradientUnits="userSpaceOnUse"><stop stop-color="#C4020B"/><stop offset="1" stop-color="#FC3F00"/></linearGradient><linearGradient id="aN" x1="206.192" x2="213.202" y1="11.946" y2="15.992" gradientUnits="userSpaceOnUse"><stop offset=".07" stop-color="#B36600"/><stop offset=".6" stop-color="#FC0"/><stop offset=".95" stop-color="#ED9500"/></linearGradient><linearGradient id="aO" x1="211.427" x2="213.202" y1="14.971" y2="15.992" gradientUnits="userSpaceOnUse"><stop/><stop offset="1" stop-color="#FFF0B0"/></linearGradient><linearGradient id="aP" x1="206.223" x2="209.881" y1="11.885" y2="14.003" gradientUnits="userSpaceOnUse"><stop stop-color="#FFA163"/><stop offset="1" stop-color="#FFE4BF"/></linearGradient><linearGradient id="aQ" x1="203.885" x2="206.422" y1="10.529" y2="11.999" gradientUnits="userSpaceOnUse"><stop stop-color="#9C0E0E"/><stop offset=".3" stop-color="#FC3F00"/><stop offset="1" stop-color="#C4020B"/></linearGradient><linearGradient id="aR" x1="203.854" x2="204.296" y1="10.582" y2="10.834" gradientUnits="userSpaceOnUse"><stop stop-color="#800C0C"/><stop offset="1" stop-color="#FFE4BF"/></linearGradient><linearGradient id="aS" x1="204.448" x2="205.721" y1="10.62" y2="11.36" gradientUnits="userSpaceOnUse"><stop/><stop offset=".09" stop-color="#3E1111"/><stop offset=".21" stop-color="#902727"/><stop offset=".31" stop-color="#CC3737"/><stop offset=".38" stop-color="#F14141"/><stop offset=".42" stop-color="#FF4545"/><stop offset=".5" stop-color="#F24040"/><stop offset=".64" stop-color="#D03333"/><stop offset=".83" stop-color="#991D1D"/><stop offset="1" stop-color="#630808"/></linearGradient><linearGradient id="aT" x1="205.773" x2="206.406" y1="11.657" y2="12.022" gradientUnits="userSpaceOnUse"><stop stop-color="#FFE4BF"/><stop offset="1" stop-color="#800C0C"/></linearGradient><linearGradient id="aU" x1="197.659" x2="199.915" y1="21.645" y2="22.948" gradientUnits="userSpaceOnUse"><stop stop-color="#546578"/><stop offset=".32" stop-color="#8DA0B8"/><stop offset="1" stop-color="#546578"/></linearGradient><linearGradient id="aV" x1="198.947" x2="199.77" y1="22.4" y2="22.872" gradientUnits="userSpaceOnUse"><stop stop-color="#fff"/><stop offset=".52" stop-color="#C3CEE0"/><stop offset="1" stop-color="#8A9FC2"/></linearGradient><linearGradient id="aW" x1="197.629" x2="198.878" y1="21.699" y2="22.422" gradientUnits="userSpaceOnUse"><stop stop-color="#8A9FC2"/><stop offset=".48" stop-color="#C3CEE0"/><stop offset="1" stop-color="#fff"/></linearGradient><linearGradient id="aZ" x1="203.938" x2="204.944" y1="10.476" y2="11.055" gradientUnits="userSpaceOnUse"><stop offset=".07" stop-color="#B36600"/><stop offset=".6" stop-color="#FC0"/><stop offset=".95" stop-color="#ED9500"/></linearGradient><linearGradient id="ba" x1="204.707" x2="205.431" y1="10.689" y2="11.108" gradientUnits="userSpaceOnUse"><stop stop-color="#FFF0B0"/><stop offset="1"/></linearGradient><linearGradient id="bb" x1="203.923" x2="204.334" y1="10.491" y2="10.727" gradientUnits="userSpaceOnUse"><stop stop-color="#FFA163"/><stop offset="1" stop-color="#FFE4BF"/></linearGradient><linearGradient id="bc" x1="205.812" x2="206.445" y1="11.596" y2="11.961" gradientUnits="userSpaceOnUse"><stop stop-color="#FFE4BF"/><stop offset="1" stop-color="#FFA163"/></linearGradient><linearGradient id="bA" x1="309.246" x2="310.941" y1="12.653" y2="24.225" gradientUnits="userSpaceOnUse"><stop stop-color="#fff"/><stop offset="1"/></linearGradient><linearGradient id="bH" x1="294.794" x2="302.119" y1="25.327" y2="29.781" gradientUnits="userSpaceOnUse"><stop stop-color="#fff"/><stop offset="1"/></linearGradient><linearGradient id="bM" x1="310.658" x2="309.76" y1="6.611" y2="5.689" gradientUnits="userSpaceOnUse"><stop stop-color="#B07A38"/><stop offset="1" stop-color="#704824"/></linearGradient><linearGradient id="bN" x1="313.116" x2="312.349" y1="7.37" y2="6.589" gradientUnits="userSpaceOnUse"><stop stop-color="#B07A38"/><stop offset="1" stop-color="#704824"/></linearGradient><linearGradient id="bP" x1="310.683" x2="312.203" y1="2.985" y2="2.985" gradientUnits="userSpaceOnUse"><stop stop-color="#6B4E35"/><stop offset="1" stop-color="#87643A"/></linearGradient><linearGradient id="bQ" x1="311.804" x2="312.9" y1="4.528" y2="4.528" gradientUnits="userSpaceOnUse"><stop stop-color="#6B4E35"/><stop offset="1" stop-color="#87643A"/></linearGradient><linearGradient id="bR" x1="313.2" x2="314.429" y1="5.108" y2="5.108" gradientUnits="userSpaceOnUse"><stop stop-color="#6B4E35"/><stop offset="1" stop-color="#87643A"/></linearGradient><linearGradient id="bS" x1="311.164" x2="310.233" y1="4.422" y2="3.475" gradientUnits="userSpaceOnUse"><stop stop-color="#B07A38"/><stop offset="1" stop-color="#704824"/></linearGradient></defs></svg>