<svg xmlns="http://www.w3.org/2000/svg" width="46" height="75" fill="none"><path fill="url(#a)" fill-rule="evenodd" d="M13.017 37.128c-2.966.238-8.961.26-12.013.108a.996.996 0 0 1-.714-.476 23.807 23.807 0 0 0 2.662 3.571c.72.964 1.548 1.842 2.468 2.62 1.32 0 3.203.107 5.13.107.843-2.034 1.709-4.025 2.553-5.93h-.086Z" clip-rule="evenodd"/><path fill="url(#b)" fill-rule="evenodd" d="M41.045 2.325c-4.177 6.688-9.437 14.588-13.96 21.232 2.38-.108 5.476-.173 8.333-.194 3.42-5.13 6.969-10.52 9.956-15.302a1.255 1.255 0 0 0 0-.996 44.605 44.605 0 0 0-4.459-5.93h.195a.974.974 0 0 1 0 .974l-.065.216Z" clip-rule="evenodd"/><path fill="url(#c)" fill-rule="evenodd" d="M41.413 25.116A464.309 464.309 0 0 1 7.346 64.594c-1.645 1.688-4.33 4.328-5.022 3.939.238.476 3.68 5.043 4.329 5.692.563.325 3.376-2.164 5.021-3.917A464.654 464.654 0 0 0 45.741 30.83a1.17 1.17 0 0 0 .109-1.083c0-.216 0-.13-.109-.194-.498-.78-3.42-4.675-4.328-5.628a.995.995 0 0 1-.109 1.082l.109.109Z" clip-rule="evenodd"/><path fill="url(#d)" fill-rule="evenodd" d="M40.872 2.606a7.337 7.337 0 0 1 2.446 3.463c.584 4.437-3.68 10.281-6.017 13.55a7.922 7.922 0 0 1-4.826 3.787h2.943c3.42-5.13 6.97-10.519 9.956-15.302a1.255 1.255 0 0 0 0-.996 44.15 44.15 0 0 0-4.458-5.973h.194a.974.974 0 0 1 0 .974l-.173.281-.065.216Z" clip-rule="evenodd" opacity=".5" style="mix-blend-mode:multiply"/><path fill="url(#e)" fill-rule="evenodd" d="M45.742 29.553c-.411-.671-2.619-3.615-3.788-5.043 2.338 4.891 2.338 6.644-.844 10.93-3.939 5.303-7.986 10.519-12.229 15.562-3.895 4.631-7.943 9.111-12.185 13.397a44.955 44.955 0 0 1-6.212 5.238 6.363 6.363 0 0 1-6.904.757c1.126 1.515 2.576 3.398 2.965 3.81.563.324 3.377-2.165 5.022-3.918A464.66 464.66 0 0 0 45.742 30.83a1.168 1.168 0 0 0 .108-1.082c0-.217 0-.13-.108-.195Z" clip-rule="evenodd" opacity=".5" style="mix-blend-mode:multiply"/><path fill="url(#f)" fill-rule="evenodd" d="M9.683 72.234c-.498.26-1.104.433-1.407.195a30.307 30.307 0 0 1-3.008-3.766.932.932 0 0 1 0-.152 2.165 2.165 0 0 1 0-1.883c-1.299 1.147-2.554 2.165-2.922 1.905.238.476 3.68 5.043 4.328 5.692.368.217 1.689-.8 3.03-2.013l-.021.022Zm30.582-45.3a1.299 1.299 0 0 1 1.212-.108l.13.108a33.297 33.297 0 0 1 2.965 3.809 2.035 2.035 0 0 1 0 1.71l1.234-1.623a1.17 1.17 0 0 0 .108-1.083c0-.216 0-.13-.108-.194-.498-.78-3.42-4.675-4.329-5.628a.996.996 0 0 1-.108 1.082l-1.407 1.819-.108.13.282-.13.13.108Z" clip-rule="evenodd" style="mix-blend-mode:screen"/><path fill="url(#g)" fill-rule="evenodd" d="M18.45.853a85.644 85.644 0 0 1 21.88 0 1.017 1.017 0 0 1 .78.606.975.975 0 0 1 0 .974c-4.177 6.688-9.437 14.588-13.96 21.233 4.047-.195 10.216-.26 13.614-.13a1.018 1.018 0 0 1 .909.606.996.996 0 0 1-.108 1.082 464.31 464.31 0 0 1-34.22 39.37c-1.644 1.688-4.328 4.328-5.02 3.939-.693-.39.28-3.377.649-4.87a224.45 224.45 0 0 1 10.043-26.535c-2.966.238-8.96.26-12.013.108a1.083 1.083 0 0 1-.93-1.472A191.483 191.483 0 0 1 17.172 1.676 2.034 2.034 0 0 1 18.45.853Z" clip-rule="evenodd"/><path fill="url(#h)" fill-rule="evenodd" d="M39.4 17.367c-2.943 2.64-8.657 4.329-9.87 2.598-.822 1.233-1.644 2.424-2.445 3.592 2.38-.108 5.476-.173 8.333-.194 1.32-1.97 2.662-3.983 3.982-5.996Z" clip-rule="evenodd" style="mix-blend-mode:multiply"/><path fill="url(#i)" fill-rule="evenodd" d="M8.774 37.301c1.602 1.234-.865 5.173-4.112 5.108.303.303.563.541.671.541 1.32 0 3.203.108 5.13.108.844-2.034 1.71-4.025 2.554-5.93-1.104 0-2.62.13-4.33.173h.087Z" clip-rule="evenodd" style="mix-blend-mode:multiply"/><path fill="url(#j)" fill-rule="evenodd" d="M18.817 5.745a62.896 62.896 0 0 1 15.626-.282 3.68 3.68 0 0 1 1.883.736c1.04.866.346 2.77-.563 4.329a674.959 674.959 0 0 0 5.282-8.246.974.974 0 0 0 0-.974 1.017 1.017 0 0 0-.78-.606 85.645 85.645 0 0 0-21.881 0 2.034 2.034 0 0 0-1.277.822 137.083 137.083 0 0 0-8.658 15.15c2.165-3.787 6.97-10.583 10.324-11.124l.044.195Z" clip-rule="evenodd" style="mix-blend-mode:screen"/><path fill="url(#k)" fill-rule="evenodd" d="M40.699 23.427h-4.004c2.554.823 2.554 2.684.498 5.346-5.498 7.165-20.15 24.999-27.336 30.302-3.636 2.662-4.827.973-4.957-1.407-.909 2.575-1.58 4.718-1.926 6.125-.346 1.407-1.169 4.329-.736 4.805.368.195 1.623-.758 2.922-1.905.736-.67 1.493-1.407 2.164-2.034a464.074 464.074 0 0 0 32.66-37.552l1.516-1.948a.995.995 0 0 0 .108-1.082 1.038 1.038 0 0 0-.866-.498l-.043-.152Z" clip-rule="evenodd" style="mix-blend-mode:screen"/><path fill="url(#l)" fill-rule="evenodd" d="M19.575 1.46c-.579.079-1.121.327-1.559.714C14.466 5.83 5.874 22.648 4.62 27.107c0 .303-.195.822 0 1.017.195.195.866-.433 1.06-.736 3.16-5 5.996-10.194 9.112-15.15 1.559-2.51 3.42-5.39 5.216-7.749a9.156 9.156 0 0 1 4.957-2.359C27.323 1.48 26.37.897 24.66.961c-1.73.058-3.453.253-5.151.585l.064-.087Z" clip-rule="evenodd" style="mix-blend-mode:screen"/><path fill="url(#m)" fill-rule="evenodd" d="M39.53 23.73c-3.875 0-7.75 0-11.602.152-1.883 0-.433 2.013.888 2.164 3.588.095 7.17-.387 10.605-1.428.325 0 .8-.238.844-.563.043-.325-.476-.26-.736-.26v-.065Z" clip-rule="evenodd" style="mix-blend-mode:screen"/><path fill="url(#n)" fill-rule="evenodd" d="M6.437 65.503c-.26 4.329 9.458-3.55 11.666-5.584 7.467-6.84 16.384-16.341 21.448-25.215 1.754-3.073 1.97-7.013-.605-6.32A461.672 461.672 0 0 1 7.584 64.356l-.238.238-.91.909Z" clip-rule="evenodd" opacity=".5" style="mix-blend-mode:screen"/><path fill="url(#o)" fill-rule="evenodd" d="M19.942 9.056a9.676 9.676 0 0 0-2.662 2.727c-3.57 6.082-6.623 12.445-9.89 18.722-.672 1.299-1.43 3.788.995 4.004 2.857.26 5.714 0 8.657 0a151.825 151.825 0 0 0-8.506 19.826c-.627 2.164 1.104 2.164 2.446.909 6.233-5.8 17.142-17.748 21.644-25.345 1.147-1.991-.801-2.944-2.446-3.009-2.38 0-4.783 0-7.164.109 2.77-4.524 5.692-8.96 8.333-13.55a5.649 5.649 0 0 0 .714-2.164 3.246 3.246 0 0 0-1.104-2.835c-1.234-1.125-4.61-1.169-7.402-.628a8.982 8.982 0 0 0-3.441 1.256l-.174-.022Z" clip-rule="evenodd" style="mix-blend-mode:screen"/><defs><radialGradient id="a" cx="0" cy="0" r="1" gradientTransform="translate(-3.52 33.362) scale(19.0897)" gradientUnits="userSpaceOnUse"><stop stop-color="#00BDFC"/><stop offset="1" stop-color="#0061BD"/></radialGradient><radialGradient id="b" cx="0" cy="0" r="1" gradientTransform="translate(34.076 6.07) scale(46.7502)" gradientUnits="userSpaceOnUse"><stop stop-color="#00BDFC"/><stop offset="1" stop-color="#0061BD"/></radialGradient><radialGradient id="c" cx="0" cy="0" r="1" gradientTransform="translate(41.824 60.871) scale(87.8731)" gradientUnits="userSpaceOnUse"><stop stop-color="#0061BD"/><stop offset="1" stop-color="#00BDFC"/></radialGradient><radialGradient id="d" cx="0" cy="0" r="1" gradientTransform="translate(30.657 2.477) scale(22.9855)" gradientUnits="userSpaceOnUse"><stop stop-color="#fff"/><stop offset=".11" stop-color="#F9FAFB"/><stop offset=".26" stop-color="#E9ECF1"/><stop offset=".42" stop-color="#CFD5DF"/><stop offset=".6" stop-color="#AAB6C6"/><stop offset=".79" stop-color="#7A8DA6"/><stop offset=".98" stop-color="#415B80"/><stop offset="1" stop-color="#3C577D"/></radialGradient><radialGradient id="e" cx="0" cy="0" r="1" gradientTransform="matrix(48.9362 0 0 48.9363 5.16 29.38)" gradientUnits="userSpaceOnUse"><stop stop-color="#fff"/><stop offset=".11" stop-color="#F9FAFB"/><stop offset=".26" stop-color="#E9ECF1"/><stop offset=".42" stop-color="#CFD5DF"/><stop offset=".6" stop-color="#AAB6C6"/><stop offset=".79" stop-color="#7A8DA6"/><stop offset=".98" stop-color="#415B80"/><stop offset="1" stop-color="#3C577D"/></radialGradient><radialGradient id="f" cx="0" cy="0" r="1" gradientTransform="translate(26.392 50.417) scale(31.5348)" gradientUnits="userSpaceOnUse"><stop offset=".58"/><stop offset=".74" stop-color="#000202"/><stop offset=".79" stop-color="#000909"/><stop offset=".83" stop-color="#001414"/><stop offset=".87" stop-color="#002525"/><stop offset=".89" stop-color="#003B3B"/><stop offset=".92" stop-color="#005757"/><stop offset=".94" stop-color="#077"/><stop offset=".96" stop-color="#009D9D"/><stop offset=".98" stop-color="#00C8C8"/><stop offset="1" stop-color="#0FF"/></radialGradient><radialGradient id="g" cx="0" cy="0" r="1" gradientTransform="translate(15.7 .875) scale(67.961)" gradientUnits="userSpaceOnUse"><stop stop-color="#00F9FC"/><stop offset="1" stop-color="#0081FC"/></radialGradient><radialGradient id="h" cx="0" cy="0" r="1" gradientTransform="translate(25.548 13.082) scale(17.9209)" gradientUnits="userSpaceOnUse"><stop stop-color="#fff"/><stop offset=".11" stop-color="#F9FAFB"/><stop offset=".26" stop-color="#E9ECF1"/><stop offset=".42" stop-color="#CFD5DF"/><stop offset=".6" stop-color="#AAB6C6"/><stop offset=".79" stop-color="#7A8DA6"/><stop offset=".98" stop-color="#415B80"/><stop offset="1" stop-color="#3C577D"/></radialGradient><radialGradient id="i" cx="0" cy="0" r="1" gradientTransform="translate(4.749 37.41) scale(17.2067)" gradientUnits="userSpaceOnUse"><stop stop-color="#fff"/><stop offset=".11" stop-color="#F9FAFB"/><stop offset=".26" stop-color="#E9ECF1"/><stop offset=".42" stop-color="#CFD5DF"/><stop offset=".6" stop-color="#AAB6C6"/><stop offset=".79" stop-color="#7A8DA6"/><stop offset=".98" stop-color="#415B80"/><stop offset="1" stop-color="#3C577D"/></radialGradient><radialGradient id="j" cx="0" cy="0" r="1" gradientTransform="translate(34.075 15.83) scale(36.0583)" gradientUnits="userSpaceOnUse"><stop/><stop offset=".08" stop-color="#002323"/><stop offset=".22" stop-color="#005C5C"/><stop offset=".36" stop-color="#008E8E"/><stop offset=".5" stop-color="#00B7B7"/><stop offset=".64" stop-color="#00D6D6"/><stop offset=".77" stop-color="#00EDED"/><stop offset=".89" stop-color="#00FAFA"/><stop offset="1" stop-color="#0FF"/></radialGradient><radialGradient id="k" cx="0" cy="0" r="1" gradientTransform="translate(52.56 90.263) scale(72.5062)" gradientUnits="userSpaceOnUse"><stop stop-color="#0FF"/><stop offset=".11" stop-color="#00FAFA"/><stop offset=".23" stop-color="#00EDED"/><stop offset=".36" stop-color="#00D6D6"/><stop offset=".5" stop-color="#00B7B7"/><stop offset=".64" stop-color="#008E8E"/><stop offset=".78" stop-color="#005C5C"/><stop offset=".92" stop-color="#002323"/><stop offset="1"/></radialGradient><radialGradient id="n" cx="0" cy="0" r="1" gradientTransform="matrix(53.0052 0 0 53.0053 .96 15.852)" gradientUnits="userSpaceOnUse"><stop stop-color="#0FF"/><stop offset=".11" stop-color="#00FAFA"/><stop offset=".23" stop-color="#00EDED"/><stop offset=".36" stop-color="#00D6D6"/><stop offset=".5" stop-color="#00B7B7"/><stop offset=".64" stop-color="#008E8E"/><stop offset=".78" stop-color="#005C5C"/><stop offset=".92" stop-color="#002323"/><stop offset="1"/></radialGradient><radialGradient id="o" cx="0" cy="0" r="1" gradientTransform="translate(-10.034 8.926) scale(50.105)" gradientUnits="userSpaceOnUse"><stop stop-color="#0FF"/><stop offset=".11" stop-color="#00FAFA"/><stop offset=".23" stop-color="#00EDED"/><stop offset=".36" stop-color="#00D6D6"/><stop offset=".5" stop-color="#00B7B7"/><stop offset=".64" stop-color="#008E8E"/><stop offset=".78" stop-color="#005C5C"/><stop offset=".92" stop-color="#002323"/><stop offset="1"/></radialGradient><linearGradient id="l" x1="23.492" x2="3.169" y1="-1.787" y2="36.998" gradientUnits="userSpaceOnUse"><stop stop-color="#A1E1FF"/><stop offset="1"/></linearGradient><linearGradient id="m" x1="27.019" x2="40.265" y1="24.856" y2="24.856" gradientUnits="userSpaceOnUse"><stop stop-color="#A1E1FF"/><stop offset="1"/></linearGradient></defs></svg>