<svg xmlns="http://www.w3.org/2000/svg" width="25" height="40" fill="none"><path fill="url(#a)" fill-rule="evenodd" d="M7.012 20c-1.597.129-4.827.14-6.471.059a.535.535 0 0 1-.385-.257c.417.685.897 1.329 1.434 1.924.388.52.834.992 1.33 1.41.71 0 1.725.06 2.763.06A145.58 145.58 0 0 1 7.058 20h-.046Z" clip-rule="evenodd"/><path fill="url(#b)" fill-rule="evenodd" d="M22.11 1.252c-2.25 3.603-5.083 7.859-7.52 11.438a127.59 127.59 0 0 1 4.489-.105c1.842-2.763 3.754-5.666 5.363-8.243a.677.677 0 0 0 0-.536A24.032 24.032 0 0 0 22.04.61h.105a.525.525 0 0 1 0 .525l-.035.116Z" clip-rule="evenodd"/><path fill="url(#c)" fill-rule="evenodd" d="M22.308 13.53A250.111 250.111 0 0 1 3.957 34.796c-.886.91-2.332 2.332-2.705 2.122.128.256 1.982 2.717 2.332 3.066.303.175 1.819-1.166 2.705-2.11A250.287 250.287 0 0 0 24.64 16.608a.63.63 0 0 0 .059-.583c0-.117 0-.07-.059-.105-.268-.42-1.842-2.519-2.332-3.032a.536.536 0 0 1-.058.583l.058.059Z" clip-rule="evenodd"/><path fill="url(#d)" fill-rule="evenodd" d="M22.017 1.404a3.952 3.952 0 0 1 1.317 1.865c.315 2.39-1.982 5.539-3.24 7.3a4.27 4.27 0 0 1-2.6 2.04h1.585c1.842-2.764 3.754-5.667 5.363-8.244a.676.676 0 0 0 0-.536A23.777 23.777 0 0 0 22.04.611h.105a.525.525 0 0 1 0 .525l-.093.151-.035.117Z" clip-rule="evenodd" opacity=".5" style="mix-blend-mode:multiply"/><path fill="url(#e)" fill-rule="evenodd" d="M24.64 15.92c-.22-.362-1.41-1.947-2.04-2.717 1.26 2.635 1.26 3.58-.454 5.888-2.122 2.857-4.303 5.666-6.588 8.383a120.459 120.459 0 0 1-6.564 7.217 24.21 24.21 0 0 1-3.346 2.822 3.428 3.428 0 0 1-3.72.408c.607.816 1.388 1.83 1.598 2.052.303.175 1.819-1.166 2.705-2.11a250.293 250.293 0 0 0 18.41-21.255.63.63 0 0 0 .058-.583c0-.117 0-.07-.058-.105Z" clip-rule="evenodd" opacity=".5" style="mix-blend-mode:multiply"/><path fill="url(#f)" fill-rule="evenodd" d="M5.216 38.912c-.268.14-.594.233-.758.105a16.327 16.327 0 0 1-1.62-2.03.502.502 0 0 1 0-.08 1.166 1.166 0 0 1 0-1.015c-.7.618-1.376 1.166-1.574 1.026.128.256 1.982 2.717 2.332 3.066.198.117.909-.431 1.632-1.084l-.012.012Zm16.475-24.403a.699.699 0 0 1 .652-.058l.07.058c.582.644 1.116 1.33 1.598 2.052a1.095 1.095 0 0 1 0 .921l.664-.874a.628.628 0 0 0 .059-.583c0-.117 0-.07-.059-.105-.268-.42-1.842-2.519-2.332-3.032a.536.536 0 0 1-.058.583l-.758.98-.058.07.152-.07.07.058Z" clip-rule="evenodd" style="mix-blend-mode:screen"/><path fill="url(#g)" fill-rule="evenodd" d="M9.938.46a46.136 46.136 0 0 1 11.788 0 .548.548 0 0 1 .42.326.525.525 0 0 1 0 .525c-2.25 3.602-5.084 7.858-7.52 11.437 2.18-.105 5.502-.14 7.333-.07a.548.548 0 0 1 .49.327.536.536 0 0 1-.059.583A250.12 250.12 0 0 1 3.957 34.796c-.886.91-2.332 2.332-2.705 2.122-.373-.21.152-1.819.35-2.623 1.5-4.875 3.307-9.649 5.41-14.295-1.597.129-4.827.14-6.471.059a.583.583 0 0 1-.501-.793A103.15 103.15 0 0 1 9.25.903c.164-.231.41-.39.688-.443Z" clip-rule="evenodd"/><path fill="url(#h)" fill-rule="evenodd" d="M21.224 9.356c-1.586 1.422-4.664 2.331-5.317 1.399-.443.664-.886 1.305-1.317 1.935 1.282-.058 2.95-.093 4.489-.105a388.508 388.508 0 0 0 2.145-3.23Z" clip-rule="evenodd" style="mix-blend-mode:multiply"/><path fill="url(#i)" fill-rule="evenodd" d="M4.727 20.094c.863.664-.466 2.786-2.215 2.751.163.164.303.292.361.292.711 0 1.726.058 2.763.058.455-1.096.921-2.169 1.376-3.195-.594 0-1.41.07-2.332.094h.047Z" clip-rule="evenodd" style="mix-blend-mode:multiply"/><path fill="url(#j)" fill-rule="evenodd" d="M10.136 3.095c2.79-.4 5.617-.452 8.418-.152.369.035.72.172 1.015.396.56.467.186 1.493-.303 2.332A364.197 364.197 0 0 0 22.11 1.23a.525.525 0 0 0 0-.525.548.548 0 0 0-.42-.326 46.136 46.136 0 0 0-11.788 0 1.096 1.096 0 0 0-.688.443 73.848 73.848 0 0 0-4.663 8.161c1.166-2.04 3.754-5.7 5.561-5.992l.024.105Z" clip-rule="evenodd" style="mix-blend-mode:screen"/><path fill="url(#k)" fill-rule="evenodd" d="M21.924 12.62h-2.157c1.376.443 1.376 1.446.268 2.88C17.075 19.36 9.181 28.966 5.31 31.823c-1.959 1.434-2.6.524-2.67-.758-.49 1.387-.851 2.542-1.038 3.3-.186.757-.63 2.331-.396 2.588.198.105.874-.408 1.574-1.026.396-.362.804-.758 1.166-1.096A249.988 249.988 0 0 0 21.54 14.602l.816-1.05a.536.536 0 0 0 .058-.582.56.56 0 0 0-.466-.268l-.024-.082Z" clip-rule="evenodd" style="mix-blend-mode:screen"/><path fill="url(#l)" fill-rule="evenodd" d="M10.544.786a1.597 1.597 0 0 0-.839.385C7.793 3.14 3.165 12.2 2.488 14.602c0 .163-.105.443 0 .548.105.105.466-.233.571-.396 1.703-2.694 3.23-5.492 4.909-8.162.84-1.352 1.842-2.903 2.81-4.174a4.932 4.932 0 0 1 2.67-1.27c1.27-.35.758-.665-.164-.63-.931.03-1.86.136-2.774.315l.034-.047Z" clip-rule="evenodd" style="mix-blend-mode:screen"/><path fill="url(#m)" fill-rule="evenodd" d="M21.294 12.783c-2.087 0-4.174 0-6.25.082-1.014 0-.232 1.084.479 1.166a18.062 18.062 0 0 0 5.713-.77c.175 0 .431-.128.455-.303.023-.175-.257-.14-.397-.14v-.035Z" clip-rule="evenodd" style="mix-blend-mode:screen"/><path fill="url(#n)" fill-rule="evenodd" d="M3.468 35.285c-.14 2.332 5.095-1.912 6.284-3.008 4.022-3.684 8.826-8.802 11.554-13.582.944-1.656 1.061-3.778-.326-3.405A248.693 248.693 0 0 1 4.086 34.668l-.129.128-.49.49Z" clip-rule="evenodd" opacity=".5" style="mix-blend-mode:screen"/><path fill="url(#o)" fill-rule="evenodd" d="M10.742 4.878c-.57.39-1.058.89-1.434 1.47-1.923 3.276-3.567 6.704-5.328 10.085-.361.7-.77 2.04.536 2.157 1.54.14 3.078 0 4.664 0a81.783 81.783 0 0 0-4.582 10.68c-.338 1.165.595 1.165 1.317.49 3.358-3.126 9.235-9.561 11.66-13.654.618-1.072-.432-1.585-1.318-1.62-1.282 0-2.577 0-3.859.058 1.492-2.437 3.066-4.827 4.489-7.299.206-.358.337-.755.384-1.166a1.748 1.748 0 0 0-.594-1.527c-.665-.606-2.483-.63-3.987-.338a4.838 4.838 0 0 0-1.854.676l-.094-.012Z" clip-rule="evenodd" style="mix-blend-mode:screen"/><defs><radialGradient id="a" cx="0" cy="0" r="1" gradientTransform="translate(-1.896 17.972) scale(10.2834)" gradientUnits="userSpaceOnUse"><stop stop-color="#00BDFC"/><stop offset="1" stop-color="#0061BD"/></radialGradient><radialGradient id="b" cx="0" cy="0" r="1" gradientTransform="translate(18.356 3.27) scale(25.1839)" gradientUnits="userSpaceOnUse"><stop stop-color="#00BDFC"/><stop offset="1" stop-color="#0061BD"/></radialGradient><radialGradient id="c" cx="0" cy="0" r="1" gradientTransform="translate(22.53 32.79) scale(47.3363)" gradientUnits="userSpaceOnUse"><stop stop-color="#0061BD"/><stop offset="1" stop-color="#00BDFC"/></radialGradient><radialGradient id="d" cx="0" cy="0" r="1" gradientTransform="translate(16.514 1.334) scale(12.3821)" gradientUnits="userSpaceOnUse"><stop stop-color="#fff"/><stop offset=".11" stop-color="#F9FAFB"/><stop offset=".26" stop-color="#E9ECF1"/><stop offset=".42" stop-color="#CFD5DF"/><stop offset=".6" stop-color="#AAB6C6"/><stop offset=".79" stop-color="#7A8DA6"/><stop offset=".98" stop-color="#415B80"/><stop offset="1" stop-color="#3C577D"/></radialGradient><radialGradient id="e" cx="0" cy="0" r="1" gradientTransform="translate(2.78 15.826) scale(26.3614)" gradientUnits="userSpaceOnUse"><stop stop-color="#fff"/><stop offset=".11" stop-color="#F9FAFB"/><stop offset=".26" stop-color="#E9ECF1"/><stop offset=".42" stop-color="#CFD5DF"/><stop offset=".6" stop-color="#AAB6C6"/><stop offset=".79" stop-color="#7A8DA6"/><stop offset=".98" stop-color="#415B80"/><stop offset="1" stop-color="#3C577D"/></radialGradient><radialGradient id="f" cx="0" cy="0" r="1" gradientTransform="translate(14.217 27.16) scale(16.9874)" gradientUnits="userSpaceOnUse"><stop offset=".58"/><stop offset=".74" stop-color="#000202"/><stop offset=".79" stop-color="#000909"/><stop offset=".83" stop-color="#001414"/><stop offset=".87" stop-color="#002525"/><stop offset=".89" stop-color="#003B3B"/><stop offset=".92" stop-color="#005757"/><stop offset=".94" stop-color="#077"/><stop offset=".96" stop-color="#009D9D"/><stop offset=".98" stop-color="#00C8C8"/><stop offset="1" stop-color="#0FF"/></radialGradient><radialGradient id="g" cx="0" cy="0" r="1" gradientTransform="translate(8.458 .471) scale(36.6099)" gradientUnits="userSpaceOnUse"><stop stop-color="#00F9FC"/><stop offset="1" stop-color="#0081FC"/></radialGradient><radialGradient id="h" cx="0" cy="0" r="1" gradientTransform="translate(13.762 7.047) scale(9.65381)" gradientUnits="userSpaceOnUse"><stop stop-color="#fff"/><stop offset=".11" stop-color="#F9FAFB"/><stop offset=".26" stop-color="#E9ECF1"/><stop offset=".42" stop-color="#CFD5DF"/><stop offset=".6" stop-color="#AAB6C6"/><stop offset=".79" stop-color="#7A8DA6"/><stop offset=".98" stop-color="#415B80"/><stop offset="1" stop-color="#3C577D"/></radialGradient><radialGradient id="i" cx="0" cy="0" r="1" gradientTransform="translate(2.558 20.152) scale(9.26906)" gradientUnits="userSpaceOnUse"><stop stop-color="#fff"/><stop offset=".11" stop-color="#F9FAFB"/><stop offset=".26" stop-color="#E9ECF1"/><stop offset=".42" stop-color="#CFD5DF"/><stop offset=".6" stop-color="#AAB6C6"/><stop offset=".79" stop-color="#7A8DA6"/><stop offset=".98" stop-color="#415B80"/><stop offset="1" stop-color="#3C577D"/></radialGradient><radialGradient id="j" cx="0" cy="0" r="1" gradientTransform="translate(18.356 8.528) scale(19.4242)" gradientUnits="userSpaceOnUse"><stop/><stop offset=".08" stop-color="#002323"/><stop offset=".22" stop-color="#005C5C"/><stop offset=".36" stop-color="#008E8E"/><stop offset=".5" stop-color="#00B7B7"/><stop offset=".64" stop-color="#00D6D6"/><stop offset=".77" stop-color="#00EDED"/><stop offset=".89" stop-color="#00FAFA"/><stop offset="1" stop-color="#0FF"/></radialGradient><radialGradient id="k" cx="0" cy="0" r="1" gradientTransform="translate(28.314 48.624) scale(39.0583)" gradientUnits="userSpaceOnUse"><stop stop-color="#0FF"/><stop offset=".11" stop-color="#00FAFA"/><stop offset=".23" stop-color="#00EDED"/><stop offset=".36" stop-color="#00D6D6"/><stop offset=".5" stop-color="#00B7B7"/><stop offset=".64" stop-color="#008E8E"/><stop offset=".78" stop-color="#005C5C"/><stop offset=".92" stop-color="#002323"/><stop offset="1"/></radialGradient><radialGradient id="n" cx="0" cy="0" r="1" gradientTransform="translate(.518 8.54) scale(28.5534)" gradientUnits="userSpaceOnUse"><stop stop-color="#0FF"/><stop offset=".11" stop-color="#00FAFA"/><stop offset=".23" stop-color="#00EDED"/><stop offset=".36" stop-color="#00D6D6"/><stop offset=".5" stop-color="#00B7B7"/><stop offset=".64" stop-color="#008E8E"/><stop offset=".78" stop-color="#005C5C"/><stop offset=".92" stop-color="#002323"/><stop offset="1"/></radialGradient><radialGradient id="o" cx="0" cy="0" r="1" gradientTransform="translate(-5.406 4.809) scale(26.991)" gradientUnits="userSpaceOnUse"><stop stop-color="#0FF"/><stop offset=".11" stop-color="#00FAFA"/><stop offset=".23" stop-color="#00EDED"/><stop offset=".36" stop-color="#00D6D6"/><stop offset=".5" stop-color="#00B7B7"/><stop offset=".64" stop-color="#008E8E"/><stop offset=".78" stop-color="#005C5C"/><stop offset=".92" stop-color="#002323"/><stop offset="1"/></radialGradient><linearGradient id="l" x1="12.655" x2="1.707" y1="-.963" y2="19.93" gradientUnits="userSpaceOnUse"><stop stop-color="#A1E1FF"/><stop offset="1"/></linearGradient><linearGradient id="m" x1="14.555" x2="21.691" y1="13.39" y2="13.39" gradientUnits="userSpaceOnUse"><stop stop-color="#A1E1FF"/><stop offset="1"/></linearGradient></defs></svg>