<svg xmlns="http://www.w3.org/2000/svg" width="23" height="24" fill="none"><g clip-path="url(#a)"><path fill="#EA4335" d="M10.783 11.442.734 21.97a2.725 2.725 0 0 0 3.992 1.617l11.306-6.44-5.249-5.705Z"/><path fill="#FBBC04" d="m20.945 9.652-4.89-2.8-5.503 4.83 5.526 5.45 4.852-2.77a2.658 2.658 0 0 0 0-4.71h.015Z"/><path fill="#4285F4" d="M.734 1.992c-.06.224-.09.456-.09.689v18.6c.001.232.031.464.09.689L11.128 11.71.734 1.991Z"/><path fill="#34A853" d="m10.858 11.98 5.197-5.128L4.763.382A2.786 2.786 0 0 0 3.363 0 2.726 2.726 0 0 0 .734 1.984l10.124 9.997Z"/></g><defs><clipPath id="a"><path fill="#fff" d="M.644 0h21.712v24H.644z"/></clipPath></defs></svg>