<svg xmlns="http://www.w3.org/2000/svg" width="29" height="32" fill="none"><g clip-path="url(#a)"><path fill="#EA4335" d="M13.52 15.255.12 29.294a3.634 3.634 0 0 0 5.322 2.157l15.075-8.587-6.998-7.607Z"/><path fill="#FBBC04" d="m27.069 12.87-6.52-3.735-7.338 6.44 7.368 7.268 6.47-3.694a3.545 3.545 0 0 0 0-6.28h.02Z"/><path fill="#4285F4" d="M.122 2.656c-.081.3-.121.608-.12.918v24.8c0 .31.041.62.12.92L13.98 15.614.122 2.655Z"/><path fill="#34A853" d="m13.62 15.975 6.928-6.84L5.493.51A3.714 3.714 0 0 0 3.625 0 3.634 3.634 0 0 0 .121 2.646L13.62 15.975Z"/></g><defs><clipPath id="a"><path fill="#fff" d="M0 0h28.95v32H0z"/></clipPath></defs></svg>