<svg xmlns="http://www.w3.org/2000/svg" width="72" height="86" fill="none"><path fill="#E2791D" d="M57.474 0H14.526L0 14.382V37.93C0 52.604 7.602 66.4 20.578 75.372L35.976 86l15.397-10.628c12.977-8.97 20.579-22.768 20.579-37.442V14.382L57.474 0Z"/><path fill="#C26616" d="M36.024 0v86l15.398-10.628C64.398 66.402 72 52.604 72 37.93V14.382L57.474 0h-21.45Z"/><path fill="#FEB678" d="M60.621 37.93V19.16l-7.796-7.703H19.222l-7.795 7.703v18.77c0 10.92 5.713 21.158 15.64 27.984l8.957 6.191 8.958-6.191c9.974-6.874 15.64-17.064 15.64-27.984Z"/><path fill="#FFA75B" d="M36.024 11.457v60.648l8.958-6.191c9.926-6.874 15.64-17.064 15.64-27.984V19.16l-7.796-7.703H36.024Z"/><path fill="#FCD3B0" d="M19.223 11.457h16.802V0h-21.45L.049 14.333l11.378 4.827 7.796-7.703Z"/><path fill="#E2791D" d="M52.826 11.457H36.024V0h21.45L72 14.333 60.622 19.16l-7.796-7.703Z"/><path fill="#D2894A" d="M52.826 11.457h-3.1l7.651 7.703v18.77c0 10.92-5.713 21.158-15.64 27.984l-5.761 3.949v2.242l8.957-6.191c9.926-6.874 15.64-17.064 15.64-27.984V19.16l-7.747-7.703Z"/><path fill="#000" d="M27.064 38.616c.725-.576 1.056-.843.992-.8 2.09-1.728 3.733-3.147 4.928-4.256 1.216-1.11 2.24-2.272 3.072-3.488.832-1.216 1.248-2.4 1.248-3.552 0-.875-.203-1.557-.608-2.048-.405-.49-1.013-.736-1.824-.736-.81 0-1.45.31-1.92.928-.448.597-.672 1.45-.672 2.56H27c.043-1.813.427-3.328 1.152-4.544.747-1.216 1.717-2.112 2.912-2.688 1.216-.576 2.56-.864 4.032-.864 2.539 0 4.448.65 5.728 1.952 1.301 1.301 1.952 2.997 1.952 5.088 0 2.283-.779 4.405-2.336 6.368-1.557 1.941-3.541 3.84-5.952 5.696h8.64v4.448H27.064v-4.064Z"/><path fill="#0A0001" d="M36.419 62.212a2 2 0 0 1-2.838 0l-5.462-5.498a2 2 0 0 1 0-2.82l.953-.958a2 2 0 0 1 2.84.002l1.668 1.684a2 2 0 0 0 2.84.002l10.334-10.415a2 2 0 0 1 2.839 0l.954.96a2 2 0 0 1 0 2.818L36.419 62.212Z"/></svg>