<svg xmlns="http://www.w3.org/2000/svg" width="72" height="86" fill="none"><path fill="#E2791D" d="M57.474 0H14.526L0 14.382V37.93C0 52.604 7.602 66.4 20.578 75.372L35.976 86l15.397-10.628c12.977-8.97 20.579-22.768 20.579-37.442V14.382L57.474 0Z"/><path fill="#C26616" d="M36.024 0v86l15.398-10.628C64.398 66.402 72 52.604 72 37.93V14.382L57.474 0h-21.45Z"/><path fill="#FEB678" d="M60.621 37.93V19.16l-7.796-7.703H19.222l-7.795 7.703v18.77c0 10.92 5.713 21.158 15.64 27.984l8.957 6.191 8.958-6.191c9.974-6.874 15.64-17.064 15.64-27.984Z"/><path fill="#FFA75B" d="M36.024 11.457v60.648l8.958-6.191c9.926-6.874 15.64-17.064 15.64-27.984V19.16l-7.796-7.703H36.024Z"/><path fill="#FCD3B0" d="M19.223 11.457h16.802V0h-21.45L.049 14.333l11.378 4.827 7.796-7.703Z"/><path fill="#E2791D" d="M52.826 11.457H36.024V0h21.45L72 14.333 60.622 19.16l-7.796-7.703Z"/><path fill="#D2894A" d="M52.826 11.457h-3.1l7.651 7.703v18.77c0 10.92-5.713 21.158-15.64 27.984l-5.761 3.949v2.242l8.957-6.191c9.926-6.874 15.64-17.064 15.64-27.984V19.16l-7.747-7.703Z"/><path fill="#000" d="M27.632 26.232c.085-2.283.832-4.043 2.24-5.28 1.408-1.237 3.317-1.856 5.728-1.856 1.6 0 2.965.277 4.096.832 1.152.555 2.016 1.312 2.592 2.272.597.96.896 2.037.896 3.232 0 1.408-.352 2.56-1.056 3.456-.704.875-1.526 1.472-2.464 1.792v.128c1.216.405 2.176 1.077 2.88 2.016.704.939 1.056 2.144 1.056 3.616 0 1.323-.31 2.496-.928 3.52-.598 1.003-1.483 1.792-2.656 2.368-1.152.576-2.528.864-4.128.864-2.56 0-4.608-.63-6.144-1.888-1.515-1.259-2.315-3.157-2.4-5.696h5.312c.021.939.288 1.685.8 2.24.512.533 1.258.8 2.24.8.832 0 1.472-.235 1.92-.704.47-.49.704-1.13.704-1.92 0-1.024-.33-1.76-.992-2.208-.64-.47-1.675-.704-3.104-.704H33.2v-4.448h1.024c1.088 0 1.962-.181 2.624-.544.682-.384 1.024-1.056 1.024-2.016 0-.768-.214-1.365-.64-1.792-.427-.427-1.014-.64-1.76-.64-.81 0-1.419.245-1.824.736-.384.49-.608 1.099-.672 1.824h-5.344Z"/><path fill="#0A0001" d="M36.419 62.212a2 2 0 0 1-2.838 0l-5.462-5.498a2 2 0 0 1 0-2.82l.953-.958a2 2 0 0 1 2.84.002l1.668 1.684a2 2 0 0 0 2.84.002l10.334-10.415a2 2 0 0 1 2.839 0l.954.96a2 2 0 0 1 0 2.818L36.419 62.212Z"/></svg>