<svg xmlns="http://www.w3.org/2000/svg" width="72" height="86" fill="none"><path fill="#E2791D" d="M57.474 0H14.526L0 14.382V37.93C0 52.604 7.602 66.4 20.578 75.372L35.976 86l15.397-10.628c12.977-8.97 20.579-22.768 20.579-37.442V14.382L57.474 0Z"/><path fill="#C26616" d="M36.024 0v86l15.398-10.628C64.398 66.402 72 52.604 72 37.93V14.382L57.474 0h-21.45Z"/><path fill="#FEB678" d="M60.621 37.93V19.16l-7.796-7.703H19.222l-7.795 7.703v18.77c0 10.92 5.713 21.158 15.64 27.984l8.957 6.191 8.958-6.191c9.974-6.874 15.64-17.064 15.64-27.984Z"/><path fill="#FFA75B" d="M36.024 11.457v60.648l8.958-6.191c9.926-6.874 15.64-17.064 15.64-27.984V19.16l-7.796-7.703H36.024Z"/><path fill="#FCD3B0" d="M19.223 11.457h16.802V0h-21.45L.049 14.333l11.378 4.827 7.796-7.703Z"/><path fill="#E2791D" d="M52.826 11.457H36.024V0h21.45L72 14.333 60.622 19.16l-7.796-7.703Z"/><path fill="#D2894A" d="M52.826 11.457h-3.1l7.651 7.703v18.77c0 10.92-5.713 21.158-15.64 27.984l-5.761 3.949v2.242l8.957-6.191c9.926-6.874 15.64-17.064 15.64-27.984V19.16l-7.747-7.703Z"/><path fill="#0A0001" d="M43.888 24.576h-9.984v4.446c.426-.472 1.023-.859 1.791-1.16.769-.3 1.6-.45 2.496-.45 1.6 0 2.923.364 3.968 1.095a6.402 6.402 0 0 1 2.337 2.835c.49 1.16.735 2.417.735 3.77 0 2.513-.703 4.51-2.111 5.993-1.408 1.46-3.392 2.19-5.953 2.19-1.706 0-3.189-.29-4.448-.87-1.258-.6-2.229-1.427-2.912-2.48-.682-1.053-1.055-2.266-1.12-3.64h5.345c.128.665.437 1.224.928 1.675.49.43 1.162.644 2.015.644 1.003 0 1.75-.322 2.24-.967.491-.644.736-1.503.736-2.577 0-1.053-.255-1.858-.767-2.417-.512-.558-1.26-.837-2.24-.837-.726 0-1.323.182-1.793.547-.469.344-.778.806-.928 1.386h-5.28V19.743h14.945v4.833ZM36.419 59.212a2 2 0 0 1-2.838 0l-5.462-5.498a2 2 0 0 1 0-2.82l.953-.958a2 2 0 0 1 2.84.002l1.668 1.684a2 2 0 0 0 2.84.002l10.334-10.415a2 2 0 0 1 2.839 0l.954.96a2 2 0 0 1 0 2.818L36.419 59.212Z"/></svg>