<svg xmlns="http://www.w3.org/2000/svg" width="88" height="16" fill="none"><path fill="#FFD400" fill-rule="evenodd" d="M12.654 15.947a.443.443 0 0 0 .417-.08.493.493 0 0 0 .204-.381c.096-1.397-.662-4.113-.453-4.737.208-.624 2.363-2.366 3.085-3.553a.516.516 0 0 0 .054-.433.508.508 0 0 0-.29-.317c-1.266-.526-4.01-.624-4.537-1.015-.417-.313-2.4-4.788-3.176-5.245-.131-.079-.285.066-.38.187-.876 1.07-1.362 4.657-1.892 5.058-.531.4-4.002-.257-5.263.265a.453.453 0 0 0-.29.321c-.123.387 2.64 3.26 2.935 3.582.372.327.688.716.935 1.15.2.624-.554 3.34-.454 4.737a.513.513 0 0 0 .406.473c.071.014.146.01.215-.012 1.325-.335 3.607-1.914 4.247-1.914.64 0 2.926 1.579 4.246 1.914h-.01Z" clip-rule="evenodd"/><path fill="url(#a)" fill-rule="evenodd" d="M11.82 14.815a.478.478 0 0 0 .417-.084.462.462 0 0 0 .204-.382c.095-1.397-.658-4.107-.453-4.736.204-.629 2.359-2.366 3.084-3.554a.525.525 0 0 0-.24-.75c-1.261-.521-4.01-.624-4.537-1.01C9.77 3.912 8.835 1.276 7.96.186a.483.483 0 0 0-.767 0C6.317 1.258 5.378 3.912 4.852 4.3c-.527.386-3.267.489-4.537 1.01a.503.503 0 0 0-.29.318.53.53 0 0 0 .05.432C.8 7.247 2.964 8.984 3.163 9.613c.2.629-.558 3.34-.454 4.736a.522.522 0 0 0 .204.383.493.493 0 0 0 .418.083c1.338-.34 3.606-1.895 4.246-1.895.64 0 2.922 1.578 4.242 1.918v-.023Z" clip-rule="evenodd"/><path fill="url(#b)" fill-rule="evenodd" d="M14.55 5.994c-1.524 1.127-2.386 1.798-3.72 2.701a.594.594 0 0 0-.231.251.614.614 0 0 0-.059.34c.395 1.305 1.51 3.396 1.588 4.695.05.769-.59.536-.962.368-1.293-.568-2.164-1.397-3.402-2.026a1.053 1.053 0 0 0-1.22.103c-.749.503-2.078 1.728-3.176 2.082-.313.102-.508.079-.63-.07.023.12.091.225.19.293a.485.485 0 0 0 .417.084c1.325-.34 3.593-1.895 4.233-1.895.64 0 2.921 1.578 4.242 1.918a.478.478 0 0 0 .417-.083.462.462 0 0 0 .204-.382c.095-1.398-.658-4.108-.454-4.737.205-.629 2.36-2.366 3.085-3.553a.526.526 0 0 0-.24-.75c-1.261-.522-4.01-.624-4.537-1.01C9.77 3.934 8.835 1.275 7.96.185a.483.483 0 0 0-.767 0c-.152.198-.29.406-.413.624C7.16.4 7.555.144 7.91.717c.564 1.027 1 2.122 1.298 3.26.222.666.353.932 1.633 1.03 1.46.107 2.672.21 3.543.358.48.084.49.429.168.666v-.037Z" clip-rule="evenodd" style="mix-blend-mode:multiply"/><path fill="url(#c)" fill-rule="evenodd" d="M6.735 1.094c-.418.788-.776 1.654-1.166 2.455-.331.685-.454 1.09-1.275 1.234-1.02.182-2.06.21-3.08.382C.11 5.347-.147 5.603.65 6.511c.454.54 2.654 2.566 2.795 3.06.14.494-.11 1.239-.132 1.742 0 .242.082.596.454.158 3.017-3.404 3.779-4.038 8.161-5.538.454-.163.948-.279 1.425-.428.136-.042.313-.177-.078-.233-1.36-.19-2.458-.037-3.629-.149-.526-.046-.862-.699-1.025-1.15-.345-.955-.522-1.97-.853-2.93-.254-.759-.73-.466-1.007.047l-.027.004Z" clip-rule="evenodd" style="mix-blend-mode:screen"/><path fill="url(#d)" fill-rule="evenodd" d="M3.241 5.528c-.281-.056-.213-.358.046-.419.421-.102.857-.12 1.274-.223.21-.033.409-.122.574-.26a1.22 1.22 0 0 0 .365-.523c.454-.931.908-2.17 1.361-3.013.173-.303.368-.256.322.084a23.776 23.776 0 0 1-.69 3.176c-.149.545-.317 1.122-1.043 1.211a9.397 9.397 0 0 1-2.227-.033h.018Zm-1.034-.344a6.336 6.336 0 0 0-1.393.251c-.454.159-.35.256.05.28.426.028.853.028 1.28 0 .598-.042.516-.55.063-.517v-.014Z" clip-rule="evenodd" style="mix-blend-mode:screen"/><path fill="url(#e)" fill-rule="evenodd" d="M10.808 13.548c-.2.084-.676.191-.095.522.247.136.507.243.776.321.58.168.585-.26.499-.694a14.52 14.52 0 0 0-.907-2.645c-.16-.368-.359-.568-.29.028.067.67.185 1.336.253 2.007.027.308 0 .35-.25.466l.014-.005Z" clip-rule="evenodd" style="mix-blend-mode:screen"/><path fill="#848484" fill-rule="evenodd" d="M2.797 14.61c.265.459.585.881.953 1.258a.448.448 0 0 0 .412.079c1.325-.335 3.607-1.914 4.247-1.914.64 0 2.926 1.579 4.246 1.914a.442.442 0 0 0 .417-.08.495.495 0 0 0 .204-.381c.096-1.397-.662-4.113-.453-4.737.208-.624 2.363-2.366 3.085-3.553a.517.517 0 0 0 .054-.433 6.3 6.3 0 0 0-.944-1.328c.041.061.077.125.11.191a.478.478 0 0 1-.05.433c-.726 1.188-2.89 2.925-3.085 3.554-.196.629.553 3.34.453 4.736a.474.474 0 0 1-.204.382.485.485 0 0 1-.417.084c-1.325-.34-3.607-1.895-4.247-1.895-.64 0-2.908 1.555-4.246 1.895a.478.478 0 0 1-.417-.084l-.118-.12Z" clip-rule="evenodd"/><path fill="url(#f)" fill-rule="evenodd" d="m11.982 9.613.853 1.132c.204-.63 2.364-2.366 3.085-3.55a.516.516 0 0 0 .005-.54 6.854 6.854 0 0 0-.908-1.22c.041.061.077.125.11.191a.478.478 0 0 1-.05.433c-.034.057-.07.111-.11.163-.807 1.179-2.79 2.795-2.976 3.39h-.009Z" clip-rule="evenodd"/><path fill="url(#g)" fill-rule="evenodd" d="m12.836 10.744-.853-1.131c-.2.628.553 3.339.454 4.736a.475.475 0 0 1-.204.382H12.2l.835 1.132h.031a.495.495 0 0 0 .204-.382c.096-1.397-.662-4.113-.453-4.737h.018Z" clip-rule="evenodd"/><path fill="url(#h)" fill-rule="evenodd" d="M11.82 14.815c-1.32-.34-3.602-1.895-4.242-1.895l.835 1.136c.644 0 2.921 1.579 4.242 1.914a.468.468 0 0 0 .385-.06l-.834-1.132a.493.493 0 0 1-.386.06v-.023Z" clip-rule="evenodd"/><path fill="url(#i)" fill-rule="evenodd" d="M4.162 15.947c1.325-.335 3.607-1.914 4.247-1.914l-.83-1.113c-.608 0-2.686 1.397-4.025 1.863l-.222.065a.475.475 0 0 1-.417-.084l-.118-.121c.26.433.564.835.907 1.202l.064.055a.448.448 0 0 0 .413.08l-.019-.033Z" clip-rule="evenodd"/><path fill="url(#j)" fill-rule="evenodd" d="M9.003 14.005a.991.991 0 0 0-1.157-.056c-1.08.498-2.459 1.476-3.48 1.742-.453.116-.662.079-.907-.107.079.104.169.2.268.284a.448.448 0 0 0 .412.079c1.325-.335 3.607-1.914 4.247-1.914.64 0 2.926 1.579 4.246 1.914.06.014.122.014.181 0a3.574 3.574 0 0 1-1.002-.4c-.908-.466-1.978-1.132-2.831-1.556l.023.014Z" clip-rule="evenodd" style="mix-blend-mode:multiply"/><path fill="url(#k)" fill-rule="evenodd" d="M13.135 9.869c-.635.62-.676.782-.535 1.681.19 1.206.48 2.506.58 3.726.024.18.012.361-.036.536a.51.51 0 0 0 .132-.312c.095-1.398-.663-4.113-.454-4.737.209-.624 2.364-2.366 3.085-3.554a.516.516 0 0 0 .054-.433 3.656 3.656 0 0 0-.43-.694c.262.573.204 1.216-.568 2.036-.58.62-1.215 1.173-1.814 1.765l-.014-.014Z" clip-rule="evenodd" style="mix-blend-mode:multiply"/><path fill="url(#l)" fill-rule="evenodd" d="M15.018 6.339c.43-.084.69.582.662.954-.03.147-.08.288-.15.42.133-.165.256-.337.368-.517a.516.516 0 0 0 .004-.54 6.854 6.854 0 0 0-.907-1.22c.04.06.077.124.109.19a.478.478 0 0 1-.05.433c-.033.057-.07.111-.109.163-.045.07-.095.135-.145.205a.568.568 0 0 1 .204-.088h.014Z" clip-rule="evenodd" style="mix-blend-mode:screen"/><path fill="url(#m)" fill-rule="evenodd" d="M3.595 15.025a.678.678 0 0 1-.054-.089.31.31 0 0 1 0-.177l-.186.056a.478.478 0 0 1-.418-.084l-.118-.12a7.1 7.1 0 0 0 .908 1.2l.063.057a.448.448 0 0 0 .413.079 3.35 3.35 0 0 0 .395-.121.61.61 0 0 1-.431-.187 6.148 6.148 0 0 1-.531-.614h-.04Z" clip-rule="evenodd" style="mix-blend-mode:screen"/><path fill="url(#n)" fill-rule="evenodd" d="M11.896 14.94c.164.194.316.398.454.611.09.135.186.303.114.345.059.02.12.037.181.05a.441.441 0 0 0 .417-.078.53.53 0 0 0 .182-.257.235.235 0 0 1-.186-.097c-.154-.187-.3-.387-.454-.587a.697.697 0 0 1-.19-.517.502.502 0 0 1-.2.321.485.485 0 0 1-.417.084l-.105-.032a.857.857 0 0 1 .204.162v-.004Z" clip-rule="evenodd" style="mix-blend-mode:screen"/><path fill="#FFD400" fill-rule="evenodd" d="M30.654 15.947a.443.443 0 0 0 .417-.08.493.493 0 0 0 .204-.381c.096-1.397-.662-4.113-.453-4.737.208-.624 2.363-2.366 3.085-3.553a.516.516 0 0 0 .054-.433.508.508 0 0 0-.29-.317c-1.266-.526-4.01-.624-4.537-1.015-.417-.313-2.4-4.788-3.175-5.245-.132-.079-.286.066-.382.187-.875 1.07-1.36 4.657-1.891 5.058-.531.4-4.002-.257-5.263.265a.452.452 0 0 0-.29.321c-.123.387 2.64 3.26 2.935 3.582.372.327.688.716.935 1.15.2.624-.554 3.34-.454 4.737a.512.512 0 0 0 .209.382.448.448 0 0 0 .412.079c1.325-.335 3.607-1.914 4.247-1.914.64 0 2.926 1.579 4.246 1.914h-.01Z" clip-rule="evenodd"/><path fill="url(#o)" fill-rule="evenodd" d="M29.82 14.815a.478.478 0 0 0 .417-.084.462.462 0 0 0 .204-.382c.096-1.397-.658-4.107-.453-4.736.204-.629 2.359-2.366 3.084-3.554a.525.525 0 0 0-.24-.75c-1.261-.521-4.01-.624-4.537-1.01-.526-.387-1.46-3.023-2.336-4.113a.484.484 0 0 0-.767 0c-.875 1.072-1.814 3.726-2.34 4.113-.527.386-3.267.489-4.537 1.01a.504.504 0 0 0-.29.318.53.53 0 0 0 .05.432c.725 1.188 2.89 2.925 3.089 3.554.2.629-.558 3.34-.454 4.736a.523.523 0 0 0 .204.383.493.493 0 0 0 .418.083c1.338-.34 3.606-1.895 4.246-1.895.64 0 2.922 1.578 4.242 1.918v-.023Z" clip-rule="evenodd"/><path fill="url(#p)" fill-rule="evenodd" d="M32.55 5.994c-1.524 1.127-2.386 1.798-3.72 2.701a.594.594 0 0 0-.231.251.614.614 0 0 0-.059.34c.395 1.305 1.51 3.396 1.588 4.695.05.769-.59.536-.962.368-1.293-.568-2.164-1.397-3.402-2.026a1.053 1.053 0 0 0-1.22.103c-.749.503-2.078 1.728-3.176 2.082-.313.102-.508.079-.63-.07.023.12.091.225.19.293a.485.485 0 0 0 .417.084c1.325-.34 3.593-1.895 4.233-1.895.64 0 2.921 1.578 4.242 1.918a.478.478 0 0 0 .417-.083.462.462 0 0 0 .204-.382c.095-1.398-.658-4.108-.454-4.737.205-.629 2.36-2.366 3.085-3.553a.526.526 0 0 0-.24-.75c-1.261-.522-4.01-.624-4.537-1.01-.526-.388-1.46-3.047-2.336-4.137a.483.483 0 0 0-.767 0c-.152.198-.29.406-.413.624.381-.41.776-.666 1.13-.093.564 1.027 1 2.122 1.297 3.26.223.666.354.932 1.634 1.03 1.46.107 2.672.21 3.543.358.48.084.49.429.168.666v-.037Z" clip-rule="evenodd" style="mix-blend-mode:multiply"/><path fill="url(#q)" fill-rule="evenodd" d="M24.735 1.094c-.418.788-.776 1.654-1.166 2.455-.331.685-.454 1.09-1.275 1.234-1.02.182-2.06.21-3.08.382-1.103.182-1.361.438-.563 1.346.454.54 2.654 2.566 2.795 3.06.14.494-.11 1.239-.132 1.742 0 .242.082.596.454.158 3.017-3.404 3.779-4.038 8.161-5.538.454-.163.948-.279 1.425-.428.136-.042.313-.177-.078-.233-1.36-.19-2.458-.037-3.629-.149-.526-.046-.862-.699-1.025-1.15-.345-.955-.522-1.97-.853-2.93-.254-.759-.73-.466-1.007.047l-.027.004Z" clip-rule="evenodd" style="mix-blend-mode:screen"/><path fill="url(#r)" fill-rule="evenodd" d="M21.241 5.528c-.281-.056-.213-.358.046-.419.421-.102.857-.12 1.274-.223.21-.033.409-.122.574-.26a1.22 1.22 0 0 0 .365-.523c.454-.931.908-2.17 1.361-3.013.173-.303.368-.256.322.084a23.785 23.785 0 0 1-.69 3.176c-.149.545-.317 1.122-1.042 1.211a9.397 9.397 0 0 1-2.228-.033h.018Zm-1.034-.344a6.335 6.335 0 0 0-1.393.251c-.454.159-.35.256.05.28.426.028.853.028 1.28 0 .598-.042.517-.55.063-.517v-.014Z" clip-rule="evenodd" style="mix-blend-mode:screen"/><path fill="url(#s)" fill-rule="evenodd" d="M28.808 13.548c-.2.084-.676.191-.095.522.246.136.507.243.776.321.58.168.585-.26.499-.694a14.52 14.52 0 0 0-.907-2.645c-.16-.368-.359-.568-.29.028.067.67.185 1.336.253 2.007.027.308 0 .35-.25.466l.014-.005Z" clip-rule="evenodd" style="mix-blend-mode:screen"/><path fill="#848484" fill-rule="evenodd" d="M20.797 14.61c.265.459.585.881.953 1.258a.448.448 0 0 0 .412.079c1.325-.335 3.607-1.914 4.247-1.914.64 0 2.926 1.579 4.246 1.914a.442.442 0 0 0 .417-.08.495.495 0 0 0 .204-.381c.096-1.397-.662-4.113-.453-4.737.208-.624 2.363-2.366 3.085-3.553a.517.517 0 0 0 .054-.433 6.3 6.3 0 0 0-.944-1.328c.041.061.078.125.11.191a.478.478 0 0 1-.05.433c-.726 1.188-2.89 2.925-3.085 3.554-.195.629.553 3.34.453 4.736a.474.474 0 0 1-.204.382.485.485 0 0 1-.417.084c-1.325-.34-3.607-1.895-4.247-1.895-.64 0-2.907 1.555-4.246 1.895a.478.478 0 0 1-.417-.084l-.118-.12Z" clip-rule="evenodd"/><path fill="url(#t)" fill-rule="evenodd" d="m29.982 9.613.853 1.132c.204-.63 2.364-2.366 3.085-3.55a.516.516 0 0 0 .005-.54 6.854 6.854 0 0 0-.908-1.22c.041.061.077.125.11.191a.478.478 0 0 1-.05.433c-.034.057-.07.111-.11.163-.807 1.179-2.79 2.795-2.976 3.39h-.009Z" clip-rule="evenodd"/><path fill="url(#u)" fill-rule="evenodd" d="m30.836 10.744-.853-1.131c-.2.628.553 3.339.454 4.736a.475.475 0 0 1-.204.382H30.2l.834 1.132h.032a.495.495 0 0 0 .204-.382c.096-1.397-.662-4.113-.453-4.737h.018Z" clip-rule="evenodd"/><path fill="url(#v)" fill-rule="evenodd" d="M29.82 14.815c-1.32-.34-3.602-1.895-4.242-1.895l.835 1.136c.644 0 2.921 1.579 4.242 1.914a.468.468 0 0 0 .385-.06l-.834-1.132a.493.493 0 0 1-.386.06v-.023Z" clip-rule="evenodd"/><path fill="url(#w)" fill-rule="evenodd" d="M22.162 15.947c1.325-.335 3.607-1.914 4.247-1.914l-.83-1.113c-.608 0-2.686 1.397-4.024 1.863l-.223.065a.475.475 0 0 1-.417-.084l-.118-.121c.26.433.564.835.907 1.202l.064.055a.448.448 0 0 0 .412.08l-.018-.033Z" clip-rule="evenodd"/><path fill="url(#x)" fill-rule="evenodd" d="M27.003 14.005a.991.991 0 0 0-1.157-.056c-1.08.498-2.459 1.476-3.48 1.742-.453.116-.662.079-.907-.107.079.104.169.2.268.284a.448.448 0 0 0 .413.079c1.324-.335 3.606-1.914 4.246-1.914.64 0 2.926 1.579 4.246 1.914.06.014.122.014.181 0a3.574 3.574 0 0 1-1.002-.4c-.907-.466-1.978-1.132-2.831-1.556l.023.014Z" clip-rule="evenodd" style="mix-blend-mode:multiply"/><path fill="url(#y)" fill-rule="evenodd" d="M31.135 9.869c-.635.62-.676.782-.535 1.681.19 1.206.48 2.506.58 3.726.024.18.012.361-.036.536a.51.51 0 0 0 .132-.312c.095-1.398-.663-4.113-.454-4.737.209-.624 2.364-2.366 3.085-3.554a.516.516 0 0 0 .054-.433 3.656 3.656 0 0 0-.43-.694c.263.573.203 1.216-.568 2.036-.58.62-1.216 1.173-1.814 1.765l-.014-.014Z" clip-rule="evenodd" style="mix-blend-mode:multiply"/><path fill="url(#z)" fill-rule="evenodd" d="M33.018 6.339c.43-.084.69.582.662.954-.03.147-.08.288-.15.42.133-.165.256-.337.368-.517a.516.516 0 0 0 .004-.54 6.854 6.854 0 0 0-.907-1.22c.04.06.077.124.109.19a.478.478 0 0 1-.05.433c-.033.057-.07.111-.109.163-.045.07-.095.135-.145.205a.568.568 0 0 1 .204-.088h.014Z" clip-rule="evenodd" style="mix-blend-mode:screen"/><path fill="url(#A)" fill-rule="evenodd" d="M21.595 15.025a.663.663 0 0 1-.054-.089.31.31 0 0 1 0-.177l-.186.056a.478.478 0 0 1-.418-.084l-.118-.12c.26.432.564.835.908 1.2l.063.057a.448.448 0 0 0 .413.079c.134-.032.266-.073.395-.121a.61.61 0 0 1-.431-.187 6.148 6.148 0 0 1-.531-.614h-.04Z" clip-rule="evenodd" style="mix-blend-mode:screen"/><path fill="url(#B)" fill-rule="evenodd" d="M29.896 14.94c.164.194.316.398.454.611.09.135.186.303.114.345.059.02.12.037.181.05a.441.441 0 0 0 .417-.078.53.53 0 0 0 .182-.257.235.235 0 0 1-.186-.097c-.154-.187-.3-.387-.454-.587a.697.697 0 0 1-.19-.517.502.502 0 0 1-.2.321.485.485 0 0 1-.417.084l-.105-.032a.857.857 0 0 1 .204.162v-.004Z" clip-rule="evenodd" style="mix-blend-mode:screen"/><path fill="#FFD400" fill-rule="evenodd" d="M48.653 15.947a.443.443 0 0 0 .417-.08.494.494 0 0 0 .204-.381c.096-1.397-.662-4.113-.453-4.737.208-.624 2.363-2.366 3.085-3.553a.516.516 0 0 0 .054-.433.506.506 0 0 0-.29-.317c-1.266-.526-4.01-.624-4.537-1.015-.417-.313-2.4-4.788-3.175-5.245-.132-.079-.286.066-.382.187-.875 1.07-1.36 4.657-1.891 5.058-.531.4-4.002-.257-5.263.265a.454.454 0 0 0-.29.321c-.123.387 2.64 3.26 2.935 3.582.372.327.688.716.935 1.15.2.624-.554 3.34-.454 4.737a.512.512 0 0 0 .209.382.448.448 0 0 0 .413.079c1.324-.335 3.606-1.914 4.246-1.914.64 0 2.926 1.579 4.246 1.914h-.01Z" clip-rule="evenodd"/><path fill="url(#C)" fill-rule="evenodd" d="M47.819 14.815a.478.478 0 0 0 .417-.084.46.46 0 0 0 .204-.382c.096-1.397-.658-4.107-.453-4.736.204-.629 2.359-2.366 3.084-3.554a.526.526 0 0 0-.24-.75c-1.261-.521-4.01-.624-4.537-1.01-.526-.387-1.46-3.023-2.336-4.113a.483.483 0 0 0-.767 0c-.875 1.072-1.814 3.726-2.34 4.113-.527.386-3.267.489-4.537 1.01a.503.503 0 0 0-.29.318.53.53 0 0 0 .05.432c.725 1.188 2.89 2.925 3.089 3.554.2.629-.558 3.34-.454 4.736a.522.522 0 0 0 .204.383.492.492 0 0 0 .418.083c1.338-.34 3.606-1.895 4.246-1.895.64 0 2.922 1.578 4.242 1.918v-.023Z" clip-rule="evenodd"/><path fill="url(#D)" fill-rule="evenodd" d="M50.55 5.994c-1.525 1.127-2.387 1.798-3.72 2.701a.594.594 0 0 0-.232.251.615.615 0 0 0-.059.34c.395 1.305 1.511 3.396 1.588 4.695.05.769-.59.536-.962.368-1.293-.568-2.164-1.397-3.402-2.026a1.053 1.053 0 0 0-1.22.103c-.749.503-2.078 1.728-3.176 2.082-.313.102-.508.079-.63-.07.023.12.091.225.19.293a.484.484 0 0 0 .417.084c1.325-.34 3.593-1.895 4.233-1.895.64 0 2.922 1.578 4.242 1.918a.478.478 0 0 0 .417-.083.462.462 0 0 0 .204-.382c.095-1.398-.658-4.108-.453-4.737.204-.629 2.358-2.366 3.084-3.553a.526.526 0 0 0-.24-.75c-1.261-.522-4.01-.624-4.537-1.01-.526-.388-1.46-3.047-2.336-4.137a.484.484 0 0 0-.767 0c-.152.198-.29.406-.413.624.382-.41.776-.666 1.13-.093a14.31 14.31 0 0 1 1.297 3.26c.223.666.354.932 1.634 1.03 1.46.107 2.672.21 3.543.358.48.084.49.429.168.666v-.037Z" clip-rule="evenodd" style="mix-blend-mode:multiply"/><path fill="url(#E)" fill-rule="evenodd" d="M42.734 1.094c-.418.788-.776 1.654-1.166 2.455-.331.685-.454 1.09-1.275 1.234-1.02.182-2.06.21-3.08.382-1.103.182-1.361.438-.563 1.346.454.54 2.654 2.566 2.795 3.06.14.494-.11 1.239-.132 1.742 0 .242.082.596.454.158 3.017-3.404 3.779-4.038 8.161-5.538.454-.163.948-.279 1.425-.428.136-.042.313-.177-.078-.233-1.36-.19-2.458-.037-3.629-.149-.526-.046-.862-.699-1.025-1.15-.345-.955-.522-1.97-.853-2.93-.254-.759-.73-.466-1.007.047l-.027.004Z" clip-rule="evenodd" style="mix-blend-mode:screen"/><path fill="url(#F)" fill-rule="evenodd" d="M39.24 5.528c-.281-.056-.213-.358.045-.419.422-.102.858-.12 1.275-.223.21-.033.409-.122.574-.26a1.22 1.22 0 0 0 .365-.523c.454-.931.908-2.17 1.361-3.013.173-.303.368-.256.322.084a23.77 23.77 0 0 1-.69 3.176c-.149.545-.317 1.122-1.042 1.211a9.397 9.397 0 0 1-2.228-.033h.018Zm-1.034-.344a6.335 6.335 0 0 0-1.393.251c-.454.159-.35.256.05.28.426.028.853.028 1.28 0 .598-.042.517-.55.063-.517v-.014Z" clip-rule="evenodd" style="mix-blend-mode:screen"/><path fill="url(#G)" fill-rule="evenodd" d="M46.807 13.548c-.2.084-.676.191-.095.522a3.8 3.8 0 0 0 .776.321c.58.168.585-.26.499-.694-.217-.91-.521-1.796-.907-2.645-.16-.368-.359-.568-.29.028.067.67.185 1.336.253 2.007.028.308 0 .35-.25.466l.014-.005Z" clip-rule="evenodd" style="mix-blend-mode:screen"/><path fill="#848484" fill-rule="evenodd" d="M38.796 14.61c.265.459.585.881.953 1.258a.448.448 0 0 0 .412.079c1.325-.335 3.607-1.914 4.247-1.914.64 0 2.926 1.579 4.246 1.914a.442.442 0 0 0 .417-.08.495.495 0 0 0 .204-.381c.096-1.397-.662-4.113-.453-4.737.209-.624 2.363-2.366 3.085-3.553a.516.516 0 0 0 .054-.433 6.296 6.296 0 0 0-.944-1.328c.041.061.077.125.11.191a.478.478 0 0 1-.05.433c-.726 1.188-2.89 2.925-3.085 3.554-.195.629.553 3.34.453 4.736a.474.474 0 0 1-.204.382.485.485 0 0 1-.417.084c-1.325-.34-3.607-1.895-4.246-1.895-.64 0-2.909 1.555-4.247 1.895a.478.478 0 0 1-.417-.084l-.118-.12Z" clip-rule="evenodd"/><path fill="url(#H)" fill-rule="evenodd" d="m47.981 9.613.853 1.132c.204-.63 2.364-2.366 3.085-3.55a.516.516 0 0 0 .005-.54 6.855 6.855 0 0 0-.908-1.22c.041.061.077.125.11.191a.477.477 0 0 1-.05.433c-.034.057-.07.111-.11.163-.807 1.179-2.79 2.795-2.976 3.39h-.009Z" clip-rule="evenodd"/><path fill="url(#I)" fill-rule="evenodd" d="m48.835 10.744-.853-1.131c-.2.628.553 3.339.454 4.736a.475.475 0 0 1-.204.382H48.2l.835 1.132h.031a.495.495 0 0 0 .204-.382c.096-1.397-.662-4.113-.453-4.737h.018Z" clip-rule="evenodd"/><path fill="url(#J)" fill-rule="evenodd" d="M47.819 14.815c-1.32-.34-3.602-1.895-4.242-1.895l.835 1.136c.644 0 2.922 1.579 4.242 1.914a.468.468 0 0 0 .385-.06l-.834-1.132a.492.492 0 0 1-.386.06v-.023Z" clip-rule="evenodd"/><path fill="url(#K)" fill-rule="evenodd" d="M40.161 15.947c1.325-.335 3.607-1.914 4.247-1.914l-.83-1.113c-.608 0-2.686 1.397-4.025 1.863l-.222.065a.475.475 0 0 1-.417-.084l-.118-.121c.26.433.564.835.907 1.202l.064.055a.448.448 0 0 0 .413.08l-.019-.033Z" clip-rule="evenodd"/><path fill="url(#L)" fill-rule="evenodd" d="M45.002 14.005a.991.991 0 0 0-1.157-.056c-1.08.498-2.459 1.476-3.48 1.742-.453.116-.662.079-.907-.107.079.104.169.2.268.284a.448.448 0 0 0 .413.079c1.324-.335 3.606-1.914 4.246-1.914.64 0 2.926 1.579 4.246 1.914.06.014.122.014.181 0a3.575 3.575 0 0 1-1.002-.4c-.907-.466-1.978-1.132-2.83-1.556l.022.014Z" clip-rule="evenodd" style="mix-blend-mode:multiply"/><path fill="url(#M)" fill-rule="evenodd" d="M49.134 9.869c-.635.62-.676.782-.535 1.681.19 1.206.48 2.506.58 3.726.024.18.012.361-.036.536a.51.51 0 0 0 .132-.312c.095-1.398-.663-4.113-.454-4.737.209-.624 2.364-2.366 3.085-3.554a.516.516 0 0 0 .054-.433 3.656 3.656 0 0 0-.43-.694c.262.573.203 1.216-.568 2.036-.58.62-1.216 1.173-1.814 1.765l-.014-.014Z" clip-rule="evenodd" style="mix-blend-mode:multiply"/><path fill="url(#N)" fill-rule="evenodd" d="M51.017 6.339c.43-.084.69.582.662.954-.03.147-.08.288-.15.42.133-.165.256-.337.368-.517a.516.516 0 0 0 .004-.54 6.854 6.854 0 0 0-.907-1.22c.04.06.077.124.109.19a.478.478 0 0 1-.05.433c-.033.057-.07.111-.109.163-.045.07-.095.135-.145.205a.569.569 0 0 1 .204-.088h.014Z" clip-rule="evenodd" style="mix-blend-mode:screen"/><path fill="url(#O)" fill-rule="evenodd" d="M39.594 15.025a.684.684 0 0 1-.054-.089.31.31 0 0 1 0-.177l-.186.056a.478.478 0 0 1-.418-.084l-.118-.12c.26.432.564.835.908 1.2l.063.057a.448.448 0 0 0 .413.079c.134-.032.266-.073.395-.121a.61.61 0 0 1-.431-.187 6.148 6.148 0 0 1-.531-.614h-.04Z" clip-rule="evenodd" style="mix-blend-mode:screen"/><path fill="url(#P)" fill-rule="evenodd" d="M47.896 14.94c.163.194.315.398.453.611.09.135.186.303.114.345.06.02.12.037.181.05a.442.442 0 0 0 .418-.078.531.531 0 0 0 .18-.257.235.235 0 0 1-.185-.097c-.154-.187-.3-.387-.454-.587a.697.697 0 0 1-.19-.517.5.5 0 0 1-.2.321.484.484 0 0 1-.417.084l-.105-.032a.858.858 0 0 1 .205.162v-.004Z" clip-rule="evenodd" style="mix-blend-mode:screen"/><path fill="#FFD400" fill-rule="evenodd" d="M66.653 15.947a.443.443 0 0 0 .417-.08.494.494 0 0 0 .204-.381c.096-1.397-.662-4.113-.453-4.737.208-.624 2.363-2.366 3.085-3.553a.516.516 0 0 0 .054-.433.506.506 0 0 0-.29-.317c-1.266-.526-4.01-.624-4.537-1.015-.417-.313-2.4-4.788-3.175-5.245-.132-.079-.286.066-.382.187-.875 1.07-1.36 4.657-1.891 5.058-.531.4-4.002-.257-5.263.265a.454.454 0 0 0-.29.321c-.123.387 2.64 3.26 2.935 3.582.372.327.688.716.935 1.15.2.624-.554 3.34-.454 4.737a.512.512 0 0 0 .209.382.448.448 0 0 0 .413.079c1.324-.335 3.606-1.914 4.246-1.914.64 0 2.926 1.579 4.246 1.914h-.01Z" clip-rule="evenodd"/><path fill="url(#Q)" fill-rule="evenodd" d="M65.819 14.815a.478.478 0 0 0 .417-.084.46.46 0 0 0 .204-.382c.096-1.397-.658-4.107-.453-4.736.204-.629 2.359-2.366 3.085-3.554a.526.526 0 0 0-.241-.75c-1.261-.521-4.01-.624-4.537-1.01-.526-.387-1.46-3.023-2.336-4.113a.483.483 0 0 0-.767 0c-.875 1.072-1.814 3.726-2.34 4.113-.527.386-3.267.489-4.537 1.01a.503.503 0 0 0-.29.318.53.53 0 0 0 .05.432c.725 1.188 2.89 2.925 3.089 3.554.2.629-.558 3.34-.454 4.736a.522.522 0 0 0 .204.383.492.492 0 0 0 .418.083c1.338-.34 3.606-1.895 4.246-1.895.64 0 2.922 1.578 4.242 1.918v-.023Z" clip-rule="evenodd"/><path fill="url(#R)" fill-rule="evenodd" d="M68.55 5.994c-1.525 1.127-2.387 1.798-3.72 2.701a.594.594 0 0 0-.232.251.615.615 0 0 0-.059.34c.395 1.305 1.511 3.396 1.588 4.695.05.769-.59.536-.962.368-1.293-.568-2.164-1.397-3.402-2.026a1.053 1.053 0 0 0-1.22.103c-.749.503-2.078 1.728-3.176 2.082-.313.102-.508.079-.63-.07.023.12.091.225.19.293a.484.484 0 0 0 .417.084c1.325-.34 3.593-1.895 4.233-1.895.64 0 2.922 1.578 4.242 1.918a.478.478 0 0 0 .417-.083.462.462 0 0 0 .204-.382c.095-1.398-.658-4.108-.453-4.737.204-.629 2.359-2.366 3.084-3.553a.526.526 0 0 0-.24-.75c-1.261-.522-4.01-.624-4.537-1.01-.526-.388-1.46-3.047-2.336-4.137a.484.484 0 0 0-.767 0c-.152.198-.29.406-.413.624.382-.41.776-.666 1.13-.093a14.31 14.31 0 0 1 1.297 3.26c.223.666.354.932 1.634 1.03 1.46.107 2.672.21 3.543.358.48.084.49.429.168.666v-.037Z" clip-rule="evenodd" style="mix-blend-mode:multiply"/><path fill="url(#S)" fill-rule="evenodd" d="M60.734 1.094c-.418.788-.776 1.654-1.166 2.455-.331.685-.454 1.09-1.275 1.234-1.02.182-2.06.21-3.08.382-1.103.182-1.361.438-.563 1.346.454.54 2.654 2.566 2.795 3.06.14.494-.11 1.239-.132 1.742 0 .242.082.596.454.158 3.017-3.404 3.779-4.038 8.161-5.538.454-.163.948-.279 1.425-.428.136-.042.313-.177-.078-.233-1.36-.19-2.458-.037-3.629-.149-.526-.046-.862-.699-1.025-1.15-.345-.955-.522-1.97-.853-2.93-.254-.759-.73-.466-1.007.047l-.027.004Z" clip-rule="evenodd" style="mix-blend-mode:screen"/><path fill="url(#T)" fill-rule="evenodd" d="M57.24 5.528c-.281-.056-.213-.358.045-.419.422-.102.858-.12 1.275-.223.21-.033.409-.122.574-.26a1.22 1.22 0 0 0 .365-.523c.454-.931.908-2.17 1.361-3.013.173-.303.368-.256.322.084a23.77 23.77 0 0 1-.69 3.176c-.149.545-.317 1.122-1.042 1.211a9.397 9.397 0 0 1-2.228-.033h.018Zm-1.034-.344a6.335 6.335 0 0 0-1.393.251c-.454.159-.35.256.05.28.426.028.853.028 1.28 0 .598-.042.517-.55.063-.517v-.014Z" clip-rule="evenodd" style="mix-blend-mode:screen"/><path fill="url(#U)" fill-rule="evenodd" d="M64.807 13.548c-.2.084-.676.191-.095.522a3.8 3.8 0 0 0 .776.321c.58.168.585-.26.499-.694-.217-.91-.521-1.796-.907-2.645-.16-.368-.359-.568-.29.028.067.67.185 1.336.253 2.007.027.308 0 .35-.25.466l.014-.005Z" clip-rule="evenodd" style="mix-blend-mode:screen"/><path fill="#848484" fill-rule="evenodd" d="M56.796 14.61c.265.459.585.881.953 1.258a.448.448 0 0 0 .412.079c1.325-.335 3.607-1.914 4.247-1.914.64 0 2.926 1.579 4.246 1.914a.442.442 0 0 0 .417-.08.495.495 0 0 0 .204-.381c.096-1.397-.662-4.113-.453-4.737.209-.624 2.363-2.366 3.085-3.553a.516.516 0 0 0 .054-.433 6.296 6.296 0 0 0-.944-1.328c.041.061.078.125.11.191a.478.478 0 0 1-.05.433c-.726 1.188-2.89 2.925-3.085 3.554-.196.629.553 3.34.453 4.736a.474.474 0 0 1-.204.382.485.485 0 0 1-.417.084c-1.325-.34-3.607-1.895-4.246-1.895-.64 0-2.909 1.555-4.247 1.895a.478.478 0 0 1-.417-.084l-.118-.12Z" clip-rule="evenodd"/><path fill="url(#V)" fill-rule="evenodd" d="m65.981 9.613.853 1.132c.204-.63 2.364-2.366 3.085-3.55a.516.516 0 0 0 .005-.54 6.855 6.855 0 0 0-.908-1.22c.041.061.077.125.11.191a.477.477 0 0 1-.05.433c-.034.057-.07.111-.11.163-.807 1.179-2.79 2.795-2.975 3.39h-.01Z" clip-rule="evenodd"/><path fill="url(#W)" fill-rule="evenodd" d="m66.835 10.744-.853-1.131c-.2.628.553 3.339.454 4.736a.475.475 0 0 1-.204.382H66.2l.835 1.132h.031a.495.495 0 0 0 .204-.382c.096-1.397-.662-4.113-.453-4.737h.018Z" clip-rule="evenodd"/><path fill="url(#X)" fill-rule="evenodd" d="M65.819 14.815c-1.32-.34-3.602-1.895-4.242-1.895l.835 1.136c.644 0 2.922 1.579 4.242 1.914a.468.468 0 0 0 .385-.06l-.835-1.132a.492.492 0 0 1-.385.06v-.023Z" clip-rule="evenodd"/><path fill="url(#Y)" fill-rule="evenodd" d="M58.161 15.947c1.325-.335 3.607-1.914 4.247-1.914l-.83-1.113c-.608 0-2.686 1.397-4.025 1.863l-.222.065a.475.475 0 0 1-.417-.084l-.118-.121c.26.433.564.835.907 1.202l.064.055a.448.448 0 0 0 .413.08l-.019-.033Z" clip-rule="evenodd"/><path fill="url(#Z)" fill-rule="evenodd" d="M63.002 14.005a.991.991 0 0 0-1.157-.056c-1.08.498-2.459 1.476-3.48 1.742-.453.116-.662.079-.907-.107.079.104.169.2.268.284a.448.448 0 0 0 .413.079c1.324-.335 3.606-1.914 4.246-1.914.64 0 2.926 1.579 4.246 1.914.06.014.122.014.181 0a3.575 3.575 0 0 1-1.002-.4c-.907-.466-1.978-1.132-2.83-1.556l.022.014Z" clip-rule="evenodd" style="mix-blend-mode:multiply"/><path fill="url(#aa)" fill-rule="evenodd" d="M67.134 9.869c-.635.62-.676.782-.535 1.681.19 1.206.48 2.506.58 3.726.024.18.012.361-.036.536a.51.51 0 0 0 .132-.312c.095-1.398-.663-4.113-.454-4.737.209-.624 2.364-2.366 3.085-3.554a.516.516 0 0 0 .054-.433 3.656 3.656 0 0 0-.43-.694c.263.573.204 1.216-.568 2.036-.58.62-1.216 1.173-1.814 1.765l-.014-.014Z" clip-rule="evenodd" style="mix-blend-mode:multiply"/><path fill="url(#ab)" fill-rule="evenodd" d="M69.017 6.339c.43-.084.69.582.662.954-.03.147-.08.288-.15.42.133-.165.256-.337.368-.517a.516.516 0 0 0 .004-.54 6.854 6.854 0 0 0-.907-1.22c.04.06.077.124.109.19a.478.478 0 0 1-.05.433c-.033.057-.07.111-.109.163-.045.07-.095.135-.145.205a.569.569 0 0 1 .204-.088h.014Z" clip-rule="evenodd" style="mix-blend-mode:screen"/><path fill="url(#ac)" fill-rule="evenodd" d="M57.594 15.025a.684.684 0 0 1-.054-.089.31.31 0 0 1 0-.177l-.186.056a.478.478 0 0 1-.418-.084l-.118-.12c.26.432.564.835.908 1.2l.063.057a.448.448 0 0 0 .413.079c.134-.032.266-.073.395-.121a.61.61 0 0 1-.431-.187 6.148 6.148 0 0 1-.531-.614h-.04Z" clip-rule="evenodd" style="mix-blend-mode:screen"/><path fill="url(#ad)" fill-rule="evenodd" d="M65.896 14.94c.163.194.315.398.453.611.09.135.186.303.114.345.06.02.12.037.181.05a.442.442 0 0 0 .417-.078.531.531 0 0 0 .182-.257.235.235 0 0 1-.186-.097c-.154-.187-.3-.387-.454-.587a.697.697 0 0 1-.19-.517.5.5 0 0 1-.2.321.484.484 0 0 1-.417.084l-.105-.032a.858.858 0 0 1 .205.162v-.004Z" clip-rule="evenodd" style="mix-blend-mode:screen"/><path fill="#FFD400" fill-rule="evenodd" d="M84.653 15.947a.443.443 0 0 0 .417-.08.494.494 0 0 0 .204-.381c.096-1.397-.662-4.113-.453-4.737.208-.624 2.363-2.366 3.085-3.553a.516.516 0 0 0 .054-.433.506.506 0 0 0-.29-.317c-1.266-.526-4.01-.624-4.537-1.015-.417-.313-2.4-4.788-3.175-5.245-.132-.079-.286.066-.382.187-.875 1.07-1.36 4.657-1.891 5.058-.531.4-4.002-.257-5.263.265a.454.454 0 0 0-.29.321c-.123.387 2.64 3.26 2.935 3.582.372.327.688.716.935 1.15.2.624-.554 3.34-.454 4.737a.512.512 0 0 0 .209.382.448.448 0 0 0 .412.079c1.325-.335 3.607-1.914 4.247-1.914.64 0 2.926 1.579 4.246 1.914h-.01Z" clip-rule="evenodd"/><path fill="url(#ae)" fill-rule="evenodd" d="M83.819 14.815a.478.478 0 0 0 .417-.084.46.46 0 0 0 .204-.382c.096-1.397-.658-4.107-.453-4.736.204-.629 2.359-2.366 3.085-3.554a.526.526 0 0 0-.241-.75c-1.261-.521-4.01-.624-4.537-1.01-.526-.387-1.46-3.023-2.336-4.113a.483.483 0 0 0-.767 0c-.875 1.072-1.814 3.726-2.34 4.113-.527.386-3.267.489-4.537 1.01a.503.503 0 0 0-.29.318.53.53 0 0 0 .05.432c.725 1.188 2.89 2.925 3.089 3.554.2.629-.558 3.34-.454 4.736a.522.522 0 0 0 .204.383.492.492 0 0 0 .418.083c1.338-.34 3.606-1.895 4.246-1.895.64 0 2.922 1.578 4.242 1.918v-.023Z" clip-rule="evenodd"/><path fill="url(#af)" fill-rule="evenodd" d="M86.55 5.994c-1.525 1.127-2.387 1.798-3.72 2.701a.594.594 0 0 0-.232.251.615.615 0 0 0-.059.34c.395 1.305 1.511 3.396 1.588 4.695.05.769-.59.536-.962.368-1.293-.568-2.164-1.397-3.402-2.026a1.053 1.053 0 0 0-1.22.103c-.749.503-2.078 1.728-3.176 2.082-.313.102-.508.079-.63-.07.023.12.091.225.19.293a.484.484 0 0 0 .417.084c1.325-.34 3.593-1.895 4.233-1.895.64 0 2.922 1.578 4.242 1.918a.478.478 0 0 0 .417-.083.462.462 0 0 0 .204-.382c.095-1.398-.658-4.108-.453-4.737.204-.629 2.359-2.366 3.084-3.553a.526.526 0 0 0-.24-.75c-1.261-.522-4.01-.624-4.537-1.01-.526-.388-1.46-3.047-2.336-4.137a.484.484 0 0 0-.767 0c-.152.198-.29.406-.413.624.381-.41.776-.666 1.13-.093a14.31 14.31 0 0 1 1.297 3.26c.223.666.354.932 1.634 1.03 1.46.107 2.672.21 3.543.358.48.084.49.429.168.666v-.037Z" clip-rule="evenodd" style="mix-blend-mode:multiply"/><path fill="url(#ag)" fill-rule="evenodd" d="M78.734 1.094c-.418.788-.776 1.654-1.166 2.455-.331.685-.454 1.09-1.275 1.234-1.02.182-2.06.21-3.08.382-1.103.182-1.361.438-.563 1.346.454.54 2.654 2.566 2.795 3.06.14.494-.11 1.239-.132 1.742 0 .242.082.596.454.158 3.017-3.404 3.779-4.038 8.161-5.538.454-.163.948-.279 1.425-.428.136-.042.313-.177-.078-.233-1.36-.19-2.458-.037-3.629-.149-.526-.046-.862-.699-1.025-1.15-.345-.955-.522-1.97-.853-2.93-.254-.759-.73-.466-1.007.047l-.027.004Z" clip-rule="evenodd" style="mix-blend-mode:screen"/><path fill="url(#ah)" fill-rule="evenodd" d="M75.24 5.528c-.281-.056-.213-.358.046-.419.421-.102.857-.12 1.274-.223.21-.033.409-.122.574-.26a1.22 1.22 0 0 0 .365-.523c.454-.931.908-2.17 1.361-3.013.173-.303.368-.256.323.084a23.77 23.77 0 0 1-.69 3.176c-.15.545-.318 1.122-1.043 1.211a9.397 9.397 0 0 1-2.228-.033h.018Zm-1.034-.344a6.335 6.335 0 0 0-1.393.251c-.454.159-.35.256.05.28.426.028.853.028 1.28 0 .598-.042.516-.55.063-.517v-.014Z" clip-rule="evenodd" style="mix-blend-mode:screen"/><path fill="url(#ai)" fill-rule="evenodd" d="M82.807 13.548c-.2.084-.676.191-.095.522a3.8 3.8 0 0 0 .776.321c.58.168.585-.26.499-.694-.217-.91-.521-1.796-.907-2.645-.16-.368-.359-.568-.29.028.067.67.185 1.336.253 2.007.027.308 0 .35-.25.466l.014-.005Z" clip-rule="evenodd" style="mix-blend-mode:screen"/><path fill="#848484" fill-rule="evenodd" d="M74.796 14.61c.265.459.585.881.953 1.258a.448.448 0 0 0 .412.079c1.325-.335 3.607-1.914 4.247-1.914.64 0 2.926 1.579 4.246 1.914a.442.442 0 0 0 .417-.08.495.495 0 0 0 .204-.381c.096-1.397-.662-4.113-.453-4.737.209-.624 2.363-2.366 3.085-3.553a.516.516 0 0 0 .054-.433 6.296 6.296 0 0 0-.944-1.328c.041.061.078.125.11.191a.478.478 0 0 1-.05.433c-.726 1.188-2.89 2.925-3.085 3.554-.196.629.553 3.34.453 4.736a.474.474 0 0 1-.204.382.485.485 0 0 1-.417.084c-1.325-.34-3.607-1.895-4.246-1.895-.64 0-2.909 1.555-4.247 1.895a.478.478 0 0 1-.417-.084l-.118-.12Z" clip-rule="evenodd"/><path fill="url(#aj)" fill-rule="evenodd" d="m83.981 9.613.853 1.132c.204-.63 2.364-2.366 3.085-3.55a.516.516 0 0 0 .005-.54 6.855 6.855 0 0 0-.908-1.22c.041.061.077.125.11.191a.477.477 0 0 1-.05.433c-.034.057-.07.111-.11.163-.807 1.179-2.79 2.795-2.975 3.39h-.01Z" clip-rule="evenodd"/><path fill="url(#ak)" fill-rule="evenodd" d="m84.835 10.744-.853-1.131c-.2.628.553 3.339.454 4.736a.475.475 0 0 1-.204.382H84.2l.835 1.132h.031a.495.495 0 0 0 .204-.382c.096-1.397-.662-4.113-.453-4.737h.018Z" clip-rule="evenodd"/><path fill="url(#al)" fill-rule="evenodd" d="M83.819 14.815c-1.32-.34-3.602-1.895-4.242-1.895l.835 1.136c.644 0 2.921 1.579 4.242 1.914a.468.468 0 0 0 .385-.06l-.835-1.132a.492.492 0 0 1-.385.06v-.023Z" clip-rule="evenodd"/><path fill="url(#am)" fill-rule="evenodd" d="M76.161 15.947c1.325-.335 3.607-1.914 4.247-1.914l-.83-1.113c-.608 0-2.686 1.397-4.025 1.863l-.222.065a.475.475 0 0 1-.417-.084l-.118-.121c.26.433.564.835.907 1.202l.064.055a.448.448 0 0 0 .413.08l-.019-.033Z" clip-rule="evenodd"/><path fill="url(#an)" fill-rule="evenodd" d="M81.002 14.005a.991.991 0 0 0-1.157-.056c-1.08.498-2.459 1.476-3.48 1.742-.453.116-.662.079-.907-.107.079.104.169.2.268.284a.448.448 0 0 0 .412.079c1.325-.335 3.607-1.914 4.247-1.914.64 0 2.926 1.579 4.246 1.914.06.014.122.014.181 0a3.575 3.575 0 0 1-1.002-.4c-.907-.466-1.978-1.132-2.83-1.556l.022.014Z" clip-rule="evenodd" style="mix-blend-mode:multiply"/><path fill="url(#ao)" fill-rule="evenodd" d="M85.134 9.869c-.635.62-.676.782-.535 1.681.19 1.206.48 2.506.58 3.726.024.18.012.361-.036.536a.51.51 0 0 0 .132-.312c.095-1.398-.663-4.113-.454-4.737.209-.624 2.364-2.366 3.085-3.554a.516.516 0 0 0 .054-.433 3.656 3.656 0 0 0-.43-.694c.263.573.204 1.216-.568 2.036-.58.62-1.216 1.173-1.814 1.765l-.014-.014Z" clip-rule="evenodd" style="mix-blend-mode:multiply"/><path fill="url(#ap)" fill-rule="evenodd" d="M87.017 6.339c.43-.084.69.582.662.954-.03.147-.08.288-.15.42.133-.165.256-.337.368-.517a.516.516 0 0 0 .004-.54 6.854 6.854 0 0 0-.907-1.22c.04.06.077.124.109.19a.478.478 0 0 1-.05.433c-.033.057-.07.111-.109.163-.045.07-.095.135-.145.205a.569.569 0 0 1 .204-.088h.014Z" clip-rule="evenodd" style="mix-blend-mode:screen"/><path fill="url(#aq)" fill-rule="evenodd" d="M75.594 15.025a.684.684 0 0 1-.054-.089.31.31 0 0 1 0-.177l-.186.056a.478.478 0 0 1-.418-.084l-.118-.12c.26.432.564.835.908 1.2l.063.057a.448.448 0 0 0 .413.079c.134-.032.266-.073.395-.121a.61.61 0 0 1-.431-.187 6.148 6.148 0 0 1-.531-.614h-.04Z" clip-rule="evenodd" style="mix-blend-mode:screen"/><path fill="url(#ar)" fill-rule="evenodd" d="M83.896 14.94c.163.194.315.398.453.611.09.135.186.303.114.345.06.02.12.037.181.05a.442.442 0 0 0 .417-.078.531.531 0 0 0 .182-.257.235.235 0 0 1-.186-.097c-.154-.187-.3-.387-.454-.587a.697.697 0 0 1-.19-.517.5.5 0 0 1-.2.321.484.484 0 0 1-.417.084l-.105-.032a.858.858 0 0 1 .205.162v-.004Z" clip-rule="evenodd" style="mix-blend-mode:screen"/><defs><radialGradient id="a" cx="0" cy="0" r="1" gradientTransform="matrix(14.1497 0 0 14.5263 4.829 2.971)" gradientUnits="userSpaceOnUse"><stop stop-color="#FCF800"/><stop offset="1" stop-color="#FC9700"/></radialGradient><radialGradient id="b" cx="0" cy="0" r="1" gradientTransform="matrix(13.4873 0 0 13.8463 6.666 4.383)" gradientUnits="userSpaceOnUse"><stop stop-color="#fff"/><stop offset=".1" stop-color="#FFFDF9"/><stop offset=".22" stop-color="#FFF7E9"/><stop offset=".36" stop-color="#FFECCF"/><stop offset=".51" stop-color="#FFDEAA"/><stop offset=".67" stop-color="#FFCC7A"/><stop offset=".84" stop-color="#FFB641"/><stop offset="1" stop-color="#FF9D00"/></radialGradient><radialGradient id="c" cx="0" cy="0" r="1" gradientTransform="matrix(12.4167 0 0 12.7472 3.065 .205)" gradientUnits="userSpaceOnUse"><stop stop-color="#FFF261"/><stop offset=".11" stop-color="#FAEE5F"/><stop offset=".23" stop-color="#EDE15A"/><stop offset=".36" stop-color="#D6CB52"/><stop offset=".5" stop-color="#B7AD46"/><stop offset=".64" stop-color="#8E8736"/><stop offset=".78" stop-color="#5C5823"/><stop offset=".92" stop-color="#23210D"/><stop offset="1"/></radialGradient><radialGradient id="d" cx="0" cy="0" r="1" gradientTransform="matrix(8.99154 0 0 9.2309 3.11 .699)" gradientUnits="userSpaceOnUse"><stop stop-color="#FFFACF"/><stop offset="1"/></radialGradient><radialGradient id="e" cx="0" cy="0" r="1" gradientTransform="matrix(5.7887 0 0 5.9428 9.17 13.409)" gradientUnits="userSpaceOnUse"><stop/><stop offset=".08" stop-color="#232112"/><stop offset=".22" stop-color="#5C582E"/><stop offset=".36" stop-color="#8E8747"/><stop offset=".5" stop-color="#B7AE5C"/><stop offset=".64" stop-color="#D6CC6C"/><stop offset=".77" stop-color="#EDE277"/><stop offset=".89" stop-color="#FAEF7E"/><stop offset="1" stop-color="#FFF380"/></radialGradient><radialGradient id="f" cx="0" cy="0" r="1" gradientTransform="matrix(6.59168 0 0 6.76715 11.034 4.229)" gradientUnits="userSpaceOnUse"><stop stop-color="#FCAC00"/><stop offset="1" stop-color="#FF7300"/></radialGradient><radialGradient id="g" cx="0" cy="0" r="1" gradientTransform="matrix(6.05636 0 0 6.21758 7.791 14.205)" gradientUnits="userSpaceOnUse"><stop stop-color="#FC8F00"/><stop offset="1" stop-color="#E86900"/></radialGradient><radialGradient id="h" cx="0" cy="0" r="1" gradientTransform="matrix(7.57159 0 0 7.77314 14.315 9.26)" gradientUnits="userSpaceOnUse"><stop stop-color="#FCAC00"/><stop offset="1" stop-color="#FF7300"/></radialGradient><radialGradient id="i" cx="0" cy="0" r="1" gradientTransform="matrix(6.0609 0 0 6.22224 3.368 17.307)" gradientUnits="userSpaceOnUse"><stop stop-color="#FC8F00"/><stop offset="1" stop-color="#E86900"/></radialGradient><radialGradient id="j" cx="0" cy="0" r="1" gradientTransform="matrix(7.64871 0 0 7.85231 8.585 10.754)" gradientUnits="userSpaceOnUse"><stop stop-color="#fff"/><stop offset=".1" stop-color="#FEFBF9"/><stop offset=".22" stop-color="#FBF0E9"/><stop offset=".36" stop-color="#F6DECF"/><stop offset=".51" stop-color="#F0C4AA"/><stop offset=".67" stop-color="#E7A47A"/><stop offset=".84" stop-color="#DD7C41"/><stop offset="1" stop-color="#D15000"/></radialGradient><radialGradient id="k" cx="0" cy="0" r="1" gradientTransform="matrix(7.27217 0 0 7.46575 9.084 9.207)" gradientUnits="userSpaceOnUse"><stop stop-color="#fff"/><stop offset=".1" stop-color="#FEFBF9"/><stop offset=".22" stop-color="#FBF0E9"/><stop offset=".36" stop-color="#F6DECF"/><stop offset=".51" stop-color="#F0C4AA"/><stop offset=".67" stop-color="#E7A47A"/><stop offset=".84" stop-color="#DD7C41"/><stop offset="1" stop-color="#D15000"/></radialGradient><radialGradient id="l" cx="0" cy="0" r="1" gradientTransform="matrix(3.30718 0 0 3.39522 14.804 4.643)" gradientUnits="userSpaceOnUse"><stop stop-color="#FFF261"/><stop offset=".11" stop-color="#FAEE5F"/><stop offset=".23" stop-color="#EDE15A"/><stop offset=".36" stop-color="#D6CB52"/><stop offset=".5" stop-color="#B7AD46"/><stop offset=".64" stop-color="#8E8736"/><stop offset=".78" stop-color="#5C5823"/><stop offset=".92" stop-color="#23210D"/><stop offset="1"/></radialGradient><radialGradient id="m" cx="0" cy="0" r="1" gradientTransform="matrix(3.38884 0 0 3.47905 3.114 12.784)" gradientUnits="userSpaceOnUse"><stop stop-color="#FFF261"/><stop offset=".11" stop-color="#FAEE5F"/><stop offset=".23" stop-color="#EDE15A"/><stop offset=".36" stop-color="#D6CB52"/><stop offset=".5" stop-color="#B7AD46"/><stop offset=".64" stop-color="#8E8736"/><stop offset=".78" stop-color="#5C5823"/><stop offset=".92" stop-color="#23210D"/><stop offset="1"/></radialGradient><radialGradient id="n" cx="0" cy="0" r="1" gradientTransform="matrix(3.59299 0 0 3.68863 13.788 12.892)" gradientUnits="userSpaceOnUse"><stop stop-color="#FFF261"/><stop offset=".11" stop-color="#FAEE5F"/><stop offset=".23" stop-color="#EDE15A"/><stop offset=".36" stop-color="#D6CB52"/><stop offset=".5" stop-color="#B7AD46"/><stop offset=".64" stop-color="#8E8736"/><stop offset=".78" stop-color="#5C5823"/><stop offset=".92" stop-color="#23210D"/><stop offset="1"/></radialGradient><radialGradient id="o" cx="0" cy="0" r="1" gradientTransform="matrix(14.1497 0 0 14.5263 22.829 2.971)" gradientUnits="userSpaceOnUse"><stop stop-color="#FCF800"/><stop offset="1" stop-color="#FC9700"/></radialGradient><radialGradient id="p" cx="0" cy="0" r="1" gradientTransform="matrix(13.4873 0 0 13.8463 24.666 4.383)" gradientUnits="userSpaceOnUse"><stop stop-color="#fff"/><stop offset=".1" stop-color="#FFFDF9"/><stop offset=".22" stop-color="#FFF7E9"/><stop offset=".36" stop-color="#FFECCF"/><stop offset=".51" stop-color="#FFDEAA"/><stop offset=".67" stop-color="#FFCC7A"/><stop offset=".84" stop-color="#FFB641"/><stop offset="1" stop-color="#FF9D00"/></radialGradient><radialGradient id="q" cx="0" cy="0" r="1" gradientTransform="matrix(12.4167 0 0 12.7472 21.064 .205)" gradientUnits="userSpaceOnUse"><stop stop-color="#FFF261"/><stop offset=".11" stop-color="#FAEE5F"/><stop offset=".23" stop-color="#EDE15A"/><stop offset=".36" stop-color="#D6CB52"/><stop offset=".5" stop-color="#B7AD46"/><stop offset=".64" stop-color="#8E8736"/><stop offset=".78" stop-color="#5C5823"/><stop offset=".92" stop-color="#23210D"/><stop offset="1"/></radialGradient><radialGradient id="r" cx="0" cy="0" r="1" gradientTransform="matrix(8.99154 0 0 9.2309 21.11 .699)" gradientUnits="userSpaceOnUse"><stop stop-color="#FFFACF"/><stop offset="1"/></radialGradient><radialGradient id="s" cx="0" cy="0" r="1" gradientTransform="matrix(5.7887 0 0 5.9428 27.17 13.409)" gradientUnits="userSpaceOnUse"><stop/><stop offset=".08" stop-color="#232112"/><stop offset=".22" stop-color="#5C582E"/><stop offset=".36" stop-color="#8E8747"/><stop offset=".5" stop-color="#B7AE5C"/><stop offset=".64" stop-color="#D6CC6C"/><stop offset=".77" stop-color="#EDE277"/><stop offset=".89" stop-color="#FAEF7E"/><stop offset="1" stop-color="#FFF380"/></radialGradient><radialGradient id="t" cx="0" cy="0" r="1" gradientTransform="matrix(6.59168 0 0 6.76715 29.034 4.229)" gradientUnits="userSpaceOnUse"><stop stop-color="#FCAC00"/><stop offset="1" stop-color="#FF7300"/></radialGradient><radialGradient id="u" cx="0" cy="0" r="1" gradientTransform="matrix(6.05636 0 0 6.21758 25.791 14.205)" gradientUnits="userSpaceOnUse"><stop stop-color="#FC8F00"/><stop offset="1" stop-color="#E86900"/></radialGradient><radialGradient id="v" cx="0" cy="0" r="1" gradientTransform="matrix(7.57159 0 0 7.77314 32.315 9.26)" gradientUnits="userSpaceOnUse"><stop stop-color="#FCAC00"/><stop offset="1" stop-color="#FF7300"/></radialGradient><radialGradient id="w" cx="0" cy="0" r="1" gradientTransform="matrix(6.0609 0 0 6.22224 21.369 17.307)" gradientUnits="userSpaceOnUse"><stop stop-color="#FC8F00"/><stop offset="1" stop-color="#E86900"/></radialGradient><radialGradient id="x" cx="0" cy="0" r="1" gradientTransform="matrix(7.64871 0 0 7.85231 26.585 10.754)" gradientUnits="userSpaceOnUse"><stop stop-color="#fff"/><stop offset=".1" stop-color="#FEFBF9"/><stop offset=".22" stop-color="#FBF0E9"/><stop offset=".36" stop-color="#F6DECF"/><stop offset=".51" stop-color="#F0C4AA"/><stop offset=".67" stop-color="#E7A47A"/><stop offset=".84" stop-color="#DD7C41"/><stop offset="1" stop-color="#D15000"/></radialGradient><radialGradient id="y" cx="0" cy="0" r="1" gradientTransform="matrix(7.27217 0 0 7.46575 27.084 9.207)" gradientUnits="userSpaceOnUse"><stop stop-color="#fff"/><stop offset=".1" stop-color="#FEFBF9"/><stop offset=".22" stop-color="#FBF0E9"/><stop offset=".36" stop-color="#F6DECF"/><stop offset=".51" stop-color="#F0C4AA"/><stop offset=".67" stop-color="#E7A47A"/><stop offset=".84" stop-color="#DD7C41"/><stop offset="1" stop-color="#D15000"/></radialGradient><radialGradient id="z" cx="0" cy="0" r="1" gradientTransform="matrix(3.30718 0 0 3.39522 32.804 4.643)" gradientUnits="userSpaceOnUse"><stop stop-color="#FFF261"/><stop offset=".11" stop-color="#FAEE5F"/><stop offset=".23" stop-color="#EDE15A"/><stop offset=".36" stop-color="#D6CB52"/><stop offset=".5" stop-color="#B7AD46"/><stop offset=".64" stop-color="#8E8736"/><stop offset=".78" stop-color="#5C5823"/><stop offset=".92" stop-color="#23210D"/><stop offset="1"/></radialGradient><radialGradient id="A" cx="0" cy="0" r="1" gradientTransform="matrix(3.38884 0 0 3.47905 21.114 12.784)" gradientUnits="userSpaceOnUse"><stop stop-color="#FFF261"/><stop offset=".11" stop-color="#FAEE5F"/><stop offset=".23" stop-color="#EDE15A"/><stop offset=".36" stop-color="#D6CB52"/><stop offset=".5" stop-color="#B7AD46"/><stop offset=".64" stop-color="#8E8736"/><stop offset=".78" stop-color="#5C5823"/><stop offset=".92" stop-color="#23210D"/><stop offset="1"/></radialGradient><radialGradient id="B" cx="0" cy="0" r="1" gradientTransform="matrix(3.59299 0 0 3.68863 31.788 12.892)" gradientUnits="userSpaceOnUse"><stop stop-color="#FFF261"/><stop offset=".11" stop-color="#FAEE5F"/><stop offset=".23" stop-color="#EDE15A"/><stop offset=".36" stop-color="#D6CB52"/><stop offset=".5" stop-color="#B7AD46"/><stop offset=".64" stop-color="#8E8736"/><stop offset=".78" stop-color="#5C5823"/><stop offset=".92" stop-color="#23210D"/><stop offset="1"/></radialGradient><radialGradient id="C" cx="0" cy="0" r="1" gradientTransform="matrix(14.1497 0 0 14.5263 40.828 2.971)" gradientUnits="userSpaceOnUse"><stop stop-color="#FCF800"/><stop offset="1" stop-color="#FC9700"/></radialGradient><radialGradient id="D" cx="0" cy="0" r="1" gradientTransform="matrix(13.4873 0 0 13.8463 42.665 4.383)" gradientUnits="userSpaceOnUse"><stop stop-color="#fff"/><stop offset=".1" stop-color="#FFFDF9"/><stop offset=".22" stop-color="#FFF7E9"/><stop offset=".36" stop-color="#FFECCF"/><stop offset=".51" stop-color="#FFDEAA"/><stop offset=".67" stop-color="#FFCC7A"/><stop offset=".84" stop-color="#FFB641"/><stop offset="1" stop-color="#FF9D00"/></radialGradient><radialGradient id="E" cx="0" cy="0" r="1" gradientTransform="matrix(12.4167 0 0 12.7472 39.064 .205)" gradientUnits="userSpaceOnUse"><stop stop-color="#FFF261"/><stop offset=".11" stop-color="#FAEE5F"/><stop offset=".23" stop-color="#EDE15A"/><stop offset=".36" stop-color="#D6CB52"/><stop offset=".5" stop-color="#B7AD46"/><stop offset=".64" stop-color="#8E8736"/><stop offset=".78" stop-color="#5C5823"/><stop offset=".92" stop-color="#23210D"/><stop offset="1"/></radialGradient><radialGradient id="F" cx="0" cy="0" r="1" gradientTransform="matrix(8.99154 0 0 9.2309 39.109 .699)" gradientUnits="userSpaceOnUse"><stop stop-color="#FFFACF"/><stop offset="1"/></radialGradient><radialGradient id="G" cx="0" cy="0" r="1" gradientTransform="matrix(5.7887 0 0 5.9428 45.17 13.409)" gradientUnits="userSpaceOnUse"><stop/><stop offset=".08" stop-color="#232112"/><stop offset=".22" stop-color="#5C582E"/><stop offset=".36" stop-color="#8E8747"/><stop offset=".5" stop-color="#B7AE5C"/><stop offset=".64" stop-color="#D6CC6C"/><stop offset=".77" stop-color="#EDE277"/><stop offset=".89" stop-color="#FAEF7E"/><stop offset="1" stop-color="#FFF380"/></radialGradient><radialGradient id="H" cx="0" cy="0" r="1" gradientTransform="matrix(6.59168 0 0 6.76715 47.033 4.229)" gradientUnits="userSpaceOnUse"><stop stop-color="#FCAC00"/><stop offset="1" stop-color="#FF7300"/></radialGradient><radialGradient id="I" cx="0" cy="0" r="1" gradientTransform="matrix(6.05636 0 0 6.21758 43.79 14.205)" gradientUnits="userSpaceOnUse"><stop stop-color="#FC8F00"/><stop offset="1" stop-color="#E86900"/></radialGradient><radialGradient id="J" cx="0" cy="0" r="1" gradientTransform="matrix(7.57159 0 0 7.77314 50.314 9.26)" gradientUnits="userSpaceOnUse"><stop stop-color="#FCAC00"/><stop offset="1" stop-color="#FF7300"/></radialGradient><radialGradient id="K" cx="0" cy="0" r="1" gradientTransform="matrix(6.0609 0 0 6.22224 39.367 17.307)" gradientUnits="userSpaceOnUse"><stop stop-color="#FC8F00"/><stop offset="1" stop-color="#E86900"/></radialGradient><radialGradient id="L" cx="0" cy="0" r="1" gradientTransform="matrix(7.64871 0 0 7.85231 44.584 10.754)" gradientUnits="userSpaceOnUse"><stop stop-color="#fff"/><stop offset=".1" stop-color="#FEFBF9"/><stop offset=".22" stop-color="#FBF0E9"/><stop offset=".36" stop-color="#F6DECF"/><stop offset=".51" stop-color="#F0C4AA"/><stop offset=".67" stop-color="#E7A47A"/><stop offset=".84" stop-color="#DD7C41"/><stop offset="1" stop-color="#D15000"/></radialGradient><radialGradient id="M" cx="0" cy="0" r="1" gradientTransform="matrix(7.27217 0 0 7.46575 45.083 9.207)" gradientUnits="userSpaceOnUse"><stop stop-color="#fff"/><stop offset=".1" stop-color="#FEFBF9"/><stop offset=".22" stop-color="#FBF0E9"/><stop offset=".36" stop-color="#F6DECF"/><stop offset=".51" stop-color="#F0C4AA"/><stop offset=".67" stop-color="#E7A47A"/><stop offset=".84" stop-color="#DD7C41"/><stop offset="1" stop-color="#D15000"/></radialGradient><radialGradient id="N" cx="0" cy="0" r="1" gradientTransform="matrix(3.30718 0 0 3.39522 50.803 4.643)" gradientUnits="userSpaceOnUse"><stop stop-color="#FFF261"/><stop offset=".11" stop-color="#FAEE5F"/><stop offset=".23" stop-color="#EDE15A"/><stop offset=".36" stop-color="#D6CB52"/><stop offset=".5" stop-color="#B7AD46"/><stop offset=".64" stop-color="#8E8736"/><stop offset=".78" stop-color="#5C5823"/><stop offset=".92" stop-color="#23210D"/><stop offset="1"/></radialGradient><radialGradient id="O" cx="0" cy="0" r="1" gradientTransform="matrix(3.38884 0 0 3.47905 39.113 12.784)" gradientUnits="userSpaceOnUse"><stop stop-color="#FFF261"/><stop offset=".11" stop-color="#FAEE5F"/><stop offset=".23" stop-color="#EDE15A"/><stop offset=".36" stop-color="#D6CB52"/><stop offset=".5" stop-color="#B7AD46"/><stop offset=".64" stop-color="#8E8736"/><stop offset=".78" stop-color="#5C5823"/><stop offset=".92" stop-color="#23210D"/><stop offset="1"/></radialGradient><radialGradient id="P" cx="0" cy="0" r="1" gradientTransform="matrix(3.59299 0 0 3.68863 49.787 12.892)" gradientUnits="userSpaceOnUse"><stop stop-color="#FFF261"/><stop offset=".11" stop-color="#FAEE5F"/><stop offset=".23" stop-color="#EDE15A"/><stop offset=".36" stop-color="#D6CB52"/><stop offset=".5" stop-color="#B7AD46"/><stop offset=".64" stop-color="#8E8736"/><stop offset=".78" stop-color="#5C5823"/><stop offset=".92" stop-color="#23210D"/><stop offset="1"/></radialGradient><radialGradient id="Q" cx="0" cy="0" r="1" gradientTransform="matrix(14.1497 0 0 14.5263 58.828 2.971)" gradientUnits="userSpaceOnUse"><stop stop-color="#FCF800"/><stop offset="1" stop-color="#FC9700"/></radialGradient><radialGradient id="R" cx="0" cy="0" r="1" gradientTransform="matrix(13.4873 0 0 13.8463 60.665 4.383)" gradientUnits="userSpaceOnUse"><stop stop-color="#fff"/><stop offset=".1" stop-color="#FFFDF9"/><stop offset=".22" stop-color="#FFF7E9"/><stop offset=".36" stop-color="#FFECCF"/><stop offset=".51" stop-color="#FFDEAA"/><stop offset=".67" stop-color="#FFCC7A"/><stop offset=".84" stop-color="#FFB641"/><stop offset="1" stop-color="#FF9D00"/></radialGradient><radialGradient id="S" cx="0" cy="0" r="1" gradientTransform="matrix(12.4167 0 0 12.7472 57.064 .205)" gradientUnits="userSpaceOnUse"><stop stop-color="#FFF261"/><stop offset=".11" stop-color="#FAEE5F"/><stop offset=".23" stop-color="#EDE15A"/><stop offset=".36" stop-color="#D6CB52"/><stop offset=".5" stop-color="#B7AD46"/><stop offset=".64" stop-color="#8E8736"/><stop offset=".78" stop-color="#5C5823"/><stop offset=".92" stop-color="#23210D"/><stop offset="1"/></radialGradient><radialGradient id="T" cx="0" cy="0" r="1" gradientTransform="matrix(8.99154 0 0 9.2309 57.109 .699)" gradientUnits="userSpaceOnUse"><stop stop-color="#FFFACF"/><stop offset="1"/></radialGradient><radialGradient id="U" cx="0" cy="0" r="1" gradientTransform="matrix(5.7887 0 0 5.9428 63.17 13.409)" gradientUnits="userSpaceOnUse"><stop/><stop offset=".08" stop-color="#232112"/><stop offset=".22" stop-color="#5C582E"/><stop offset=".36" stop-color="#8E8747"/><stop offset=".5" stop-color="#B7AE5C"/><stop offset=".64" stop-color="#D6CC6C"/><stop offset=".77" stop-color="#EDE277"/><stop offset=".89" stop-color="#FAEF7E"/><stop offset="1" stop-color="#FFF380"/></radialGradient><radialGradient id="V" cx="0" cy="0" r="1" gradientTransform="matrix(6.59168 0 0 6.76715 65.033 4.229)" gradientUnits="userSpaceOnUse"><stop stop-color="#FCAC00"/><stop offset="1" stop-color="#FF7300"/></radialGradient><radialGradient id="W" cx="0" cy="0" r="1" gradientTransform="matrix(6.05636 0 0 6.21758 61.79 14.205)" gradientUnits="userSpaceOnUse"><stop stop-color="#FC8F00"/><stop offset="1" stop-color="#E86900"/></radialGradient><radialGradient id="X" cx="0" cy="0" r="1" gradientTransform="matrix(7.57159 0 0 7.77314 68.314 9.26)" gradientUnits="userSpaceOnUse"><stop stop-color="#FCAC00"/><stop offset="1" stop-color="#FF7300"/></radialGradient><radialGradient id="Y" cx="0" cy="0" r="1" gradientTransform="matrix(6.0609 0 0 6.22224 57.367 17.307)" gradientUnits="userSpaceOnUse"><stop stop-color="#FC8F00"/><stop offset="1" stop-color="#E86900"/></radialGradient><radialGradient id="Z" cx="0" cy="0" r="1" gradientTransform="matrix(7.64871 0 0 7.85231 62.584 10.754)" gradientUnits="userSpaceOnUse"><stop stop-color="#fff"/><stop offset=".1" stop-color="#FEFBF9"/><stop offset=".22" stop-color="#FBF0E9"/><stop offset=".36" stop-color="#F6DECF"/><stop offset=".51" stop-color="#F0C4AA"/><stop offset=".67" stop-color="#E7A47A"/><stop offset=".84" stop-color="#DD7C41"/><stop offset="1" stop-color="#D15000"/></radialGradient><radialGradient id="aa" cx="0" cy="0" r="1" gradientTransform="matrix(7.27217 0 0 7.46575 63.083 9.207)" gradientUnits="userSpaceOnUse"><stop stop-color="#fff"/><stop offset=".1" stop-color="#FEFBF9"/><stop offset=".22" stop-color="#FBF0E9"/><stop offset=".36" stop-color="#F6DECF"/><stop offset=".51" stop-color="#F0C4AA"/><stop offset=".67" stop-color="#E7A47A"/><stop offset=".84" stop-color="#DD7C41"/><stop offset="1" stop-color="#D15000"/></radialGradient><radialGradient id="ab" cx="0" cy="0" r="1" gradientTransform="matrix(3.30718 0 0 3.39522 68.803 4.643)" gradientUnits="userSpaceOnUse"><stop stop-color="#FFF261"/><stop offset=".11" stop-color="#FAEE5F"/><stop offset=".23" stop-color="#EDE15A"/><stop offset=".36" stop-color="#D6CB52"/><stop offset=".5" stop-color="#B7AD46"/><stop offset=".64" stop-color="#8E8736"/><stop offset=".78" stop-color="#5C5823"/><stop offset=".92" stop-color="#23210D"/><stop offset="1"/></radialGradient><radialGradient id="ac" cx="0" cy="0" r="1" gradientTransform="matrix(3.38884 0 0 3.47905 57.113 12.784)" gradientUnits="userSpaceOnUse"><stop stop-color="#FFF261"/><stop offset=".11" stop-color="#FAEE5F"/><stop offset=".23" stop-color="#EDE15A"/><stop offset=".36" stop-color="#D6CB52"/><stop offset=".5" stop-color="#B7AD46"/><stop offset=".64" stop-color="#8E8736"/><stop offset=".78" stop-color="#5C5823"/><stop offset=".92" stop-color="#23210D"/><stop offset="1"/></radialGradient><radialGradient id="ad" cx="0" cy="0" r="1" gradientTransform="matrix(3.59299 0 0 3.68863 67.787 12.892)" gradientUnits="userSpaceOnUse"><stop stop-color="#FFF261"/><stop offset=".11" stop-color="#FAEE5F"/><stop offset=".23" stop-color="#EDE15A"/><stop offset=".36" stop-color="#D6CB52"/><stop offset=".5" stop-color="#B7AD46"/><stop offset=".64" stop-color="#8E8736"/><stop offset=".78" stop-color="#5C5823"/><stop offset=".92" stop-color="#23210D"/><stop offset="1"/></radialGradient><radialGradient id="ae" cx="0" cy="0" r="1" gradientTransform="matrix(14.1497 0 0 14.5263 76.828 2.971)" gradientUnits="userSpaceOnUse"><stop stop-color="#FCF800"/><stop offset="1" stop-color="#FC9700"/></radialGradient><radialGradient id="af" cx="0" cy="0" r="1" gradientTransform="matrix(13.4873 0 0 13.8463 78.665 4.383)" gradientUnits="userSpaceOnUse"><stop stop-color="#fff"/><stop offset=".1" stop-color="#FFFDF9"/><stop offset=".22" stop-color="#FFF7E9"/><stop offset=".36" stop-color="#FFECCF"/><stop offset=".51" stop-color="#FFDEAA"/><stop offset=".67" stop-color="#FFCC7A"/><stop offset=".84" stop-color="#FFB641"/><stop offset="1" stop-color="#FF9D00"/></radialGradient><radialGradient id="ag" cx="0" cy="0" r="1" gradientTransform="matrix(12.4167 0 0 12.7472 75.064 .205)" gradientUnits="userSpaceOnUse"><stop stop-color="#FFF261"/><stop offset=".11" stop-color="#FAEE5F"/><stop offset=".23" stop-color="#EDE15A"/><stop offset=".36" stop-color="#D6CB52"/><stop offset=".5" stop-color="#B7AD46"/><stop offset=".64" stop-color="#8E8736"/><stop offset=".78" stop-color="#5C5823"/><stop offset=".92" stop-color="#23210D"/><stop offset="1"/></radialGradient><radialGradient id="ah" cx="0" cy="0" r="1" gradientTransform="matrix(8.99154 0 0 9.2309 75.109 .699)" gradientUnits="userSpaceOnUse"><stop stop-color="#FFFACF"/><stop offset="1"/></radialGradient><radialGradient id="ai" cx="0" cy="0" r="1" gradientTransform="matrix(5.7887 0 0 5.9428 81.17 13.409)" gradientUnits="userSpaceOnUse"><stop/><stop offset=".08" stop-color="#232112"/><stop offset=".22" stop-color="#5C582E"/><stop offset=".36" stop-color="#8E8747"/><stop offset=".5" stop-color="#B7AE5C"/><stop offset=".64" stop-color="#D6CC6C"/><stop offset=".77" stop-color="#EDE277"/><stop offset=".89" stop-color="#FAEF7E"/><stop offset="1" stop-color="#FFF380"/></radialGradient><radialGradient id="aj" cx="0" cy="0" r="1" gradientTransform="matrix(6.59168 0 0 6.76715 83.033 4.229)" gradientUnits="userSpaceOnUse"><stop stop-color="#FCAC00"/><stop offset="1" stop-color="#FF7300"/></radialGradient><radialGradient id="ak" cx="0" cy="0" r="1" gradientTransform="matrix(6.05636 0 0 6.21758 79.79 14.205)" gradientUnits="userSpaceOnUse"><stop stop-color="#FC8F00"/><stop offset="1" stop-color="#E86900"/></radialGradient><radialGradient id="al" cx="0" cy="0" r="1" gradientTransform="matrix(7.57159 0 0 7.77314 86.314 9.26)" gradientUnits="userSpaceOnUse"><stop stop-color="#FCAC00"/><stop offset="1" stop-color="#FF7300"/></radialGradient><radialGradient id="am" cx="0" cy="0" r="1" gradientTransform="matrix(6.0609 0 0 6.22224 75.368 17.307)" gradientUnits="userSpaceOnUse"><stop stop-color="#FC8F00"/><stop offset="1" stop-color="#E86900"/></radialGradient><radialGradient id="an" cx="0" cy="0" r="1" gradientTransform="matrix(7.64871 0 0 7.85231 80.584 10.754)" gradientUnits="userSpaceOnUse"><stop stop-color="#fff"/><stop offset=".1" stop-color="#FEFBF9"/><stop offset=".22" stop-color="#FBF0E9"/><stop offset=".36" stop-color="#F6DECF"/><stop offset=".51" stop-color="#F0C4AA"/><stop offset=".67" stop-color="#E7A47A"/><stop offset=".84" stop-color="#DD7C41"/><stop offset="1" stop-color="#D15000"/></radialGradient><radialGradient id="ao" cx="0" cy="0" r="1" gradientTransform="matrix(7.27217 0 0 7.46575 81.083 9.207)" gradientUnits="userSpaceOnUse"><stop stop-color="#fff"/><stop offset=".1" stop-color="#FEFBF9"/><stop offset=".22" stop-color="#FBF0E9"/><stop offset=".36" stop-color="#F6DECF"/><stop offset=".51" stop-color="#F0C4AA"/><stop offset=".67" stop-color="#E7A47A"/><stop offset=".84" stop-color="#DD7C41"/><stop offset="1" stop-color="#D15000"/></radialGradient><radialGradient id="ap" cx="0" cy="0" r="1" gradientTransform="matrix(3.30718 0 0 3.39522 86.803 4.643)" gradientUnits="userSpaceOnUse"><stop stop-color="#FFF261"/><stop offset=".11" stop-color="#FAEE5F"/><stop offset=".23" stop-color="#EDE15A"/><stop offset=".36" stop-color="#D6CB52"/><stop offset=".5" stop-color="#B7AD46"/><stop offset=".64" stop-color="#8E8736"/><stop offset=".78" stop-color="#5C5823"/><stop offset=".92" stop-color="#23210D"/><stop offset="1"/></radialGradient><radialGradient id="aq" cx="0" cy="0" r="1" gradientTransform="matrix(3.38884 0 0 3.47905 75.113 12.784)" gradientUnits="userSpaceOnUse"><stop stop-color="#FFF261"/><stop offset=".11" stop-color="#FAEE5F"/><stop offset=".23" stop-color="#EDE15A"/><stop offset=".36" stop-color="#D6CB52"/><stop offset=".5" stop-color="#B7AD46"/><stop offset=".64" stop-color="#8E8736"/><stop offset=".78" stop-color="#5C5823"/><stop offset=".92" stop-color="#23210D"/><stop offset="1"/></radialGradient><radialGradient id="ar" cx="0" cy="0" r="1" gradientTransform="matrix(3.59299 0 0 3.68863 85.787 12.892)" gradientUnits="userSpaceOnUse"><stop stop-color="#FFF261"/><stop offset=".11" stop-color="#FAEE5F"/><stop offset=".23" stop-color="#EDE15A"/><stop offset=".36" stop-color="#D6CB52"/><stop offset=".5" stop-color="#B7AD46"/><stop offset=".64" stop-color="#8E8736"/><stop offset=".78" stop-color="#5C5823"/><stop offset=".92" stop-color="#23210D"/><stop offset="1"/></radialGradient></defs></svg>