<svg xmlns="http://www.w3.org/2000/svg" width="213" height="128" fill="none"><path fill="url(#a)" d="M106.165 128c57.467 0 104.053-28.654 104.053-64 0-35.346-46.586-64-104.053-64S2.111 28.654 2.111 64c0 35.346 46.587 64 104.054 64Z" style="mix-blend-mode:screen"/><path fill="#4ABAFF" d="M29.518 95.462c.043.405 5.197 15.761 23.578 15.98 18.382.219 25.487-13.103 25.487-13.103s-6.448 8.219-14.904 10.193c-8.456 1.973-15.43 1.927-19.94-.246-4.508-2.173-12.69-13.954-12.69-13.954l-1.531 1.13ZM124.496 96.047s7.405 16.85 27.626 15.614c20.22-1.236 29.495-18.266 29.495-18.266s-16.061 15.575-27.763 16.293c-19.964 1.202-29.358-13.641-29.358-13.641Z"/><path fill="url(#b)" d="M81.93 88.28s-1.808 22.511-27.52 22.777c-25.711.265-26.2-25.343-26.2-25.343l3.403-.18c.248 3.365.96 6.671 2.114 9.815 2.502 6.797 7.943 14.492 19.701 13.701 11.258-.744 17.419-6.233 20.715-11.083a23.51 23.51 0 0 0 3.527-7.741l4.26-1.947Z"/><path fill="#89C2FE" d="M81.93 88.28s-1.808 22.511-27.52 22.777c-25.711.265-26.2-25.343-26.2-25.343l3.403-.18c.248 3.365.96 6.671 2.114 9.815-.412.884-1.138 3.322.95 6.644 2.659 4.24 15.862 14.452 33.524 5.363 7.674-3.947 8.2-7.19 5.942-9.376a23.51 23.51 0 0 0 3.527-7.74l4.26-1.96Z" style="mix-blend-mode:multiply"/><path fill="#4ABAFF" d="M45.473 98.339s9.606 28.312 30.965 27.242c21.358-1.069 26.131-23.036 26.131-23.036s-6.524 18.844-21.772 20.425c-15.248 1.581-26.174-7.668-27.169-12.08-.994-4.412-8.155-12.551-8.155-12.551Z"/><path fill="url(#c)" d="M106.615 78.777v.771c-.15 5.907-2.157 43.854-29.451 45.249-7.455.372-13.66-2.657-18.763-7.402a43.535 43.535 0 0 1-5.291-5.94c-9.207-12.279-13.541-29.143-14.435-32.957-.125-.511-.182-.79-.182-.79h6.774a101.212 101.212 0 0 0 5.503 22.511c4.128 10.824 11.127 21.575 22.666 22.12 17.268.817 24.573-11.442 27.632-23.076a71.218 71.218 0 0 0 2.126-19.987l.72-.1 2.701-.399Z"/><path fill="#89C2FE" d="M50.852 107.169a21.791 21.791 0 0 0 2.245 4.273c-9.206-12.28-13.54-29.143-14.435-32.957l4.666-.79h1.939a101.214 101.214 0 0 0 5.503 22.511c-.738.997-1.413 3.023.082 6.963ZM106.609 79.548c-.15 5.907-2.158 43.854-29.451 45.249-7.456.372-13.66-2.658-18.764-7.402 5.492 4.659 12.365 7.089 19.389 6.857 15.336-.292 24.536-19.501 23.885-23.72a2.143 2.143 0 0 0-.625-1.283 71.242 71.242 0 0 0 2.151-19.973l.72-.1 2.695.372Z" style="mix-blend-mode:multiply"/><path fill="url(#d)" d="M189.861 79.116s-10.501 30.346-38.664 31.728c-27.52 1.329-31.272-27.741-31.41-29.076a.472.472 0 0 1 0-.054h.05l3.403-.292a39.36 39.36 0 0 0 4.69 14.997c3.753 6.604 10.551 12.77 22.622 12.159a31.091 31.091 0 0 0 12.938-3.374c4.049-2.058 7.654-4.981 10.591-8.586 3.907-4.731 6.839-10.278 8.606-16.286l7.174-1.216Z"/><path fill="#89C2FE" d="M189.861 79.116s-10.501 30.346-38.665 31.728c-27.519 1.329-31.271-27.741-31.409-29.076l.044-.054 3.402-.292a39.36 39.36 0 0 0 4.691 14.997c-.625.365-.963 1.329.319 3.641 2.671 4.804 8.925 12.113 27.644 9.614 14.435-1.926 18.5-9.495 18.188-13.07 3.908-4.726 6.841-10.269 8.612-16.272l7.174-1.216Z" style="mix-blend-mode:multiply"/><path fill="#4ABAFF" d="M1.604 39.316s.789 11.7 9.182 17.162 13.897 3.735 13.897 3.735L1.604 39.316ZM9.548 93.947c.031.285.313 6.491 1.876 8.053 1.564 1.561 16.843.332 23.854-11.74 7.011-12.074-25.73 3.687-25.73 3.687ZM177.758 90.518s14.385 11.96 22.053 9.043c3.127-1.176-19.014-16.106-19.014-16.106l-3.039 7.063ZM212.194 27.94s-1.25 5.27-1.557 5.316c-.306.046-2.22-.1-2.914.578-.695.678-.976-1.947-.882-1.994.094-.046 5.353-3.9 5.353-3.9ZM208.43 36.844a42.334 42.334 0 0 1-5.004 8.638 37.81 37.81 0 0 1-6.998 7.05v-3.323l12.002-12.365Z"/><path fill="#115434" d="M27.923 59.402c-1.421.214-2.86.26-4.29.14-4.834-.355-9.492-2.068-13.497-4.964C1.023 48.08-.272 29.09.04 26.85c.313-2.239 2.114-6.132 2.114-6.132l25.768 38.684Z"/><path fill="#89C2FE" d="M23.632 59.542c-4.833-.355-9.49-2.068-13.497-4.964-5.716-4.69-6.385-13.887-4.928-12.186 4.278 4.983 17.156 11.296 17.156 11.296l1.27 5.854Z" style="mix-blend-mode:multiply"/><path fill="#115434" d="M11.88 19.86a7.392 7.392 0 0 0 5.004 1.15 10.68 10.68 0 0 0 4.078-1.515l.15 2.884-8.274.432-.957-2.95Z"/><path fill="url(#e)" d="M40.025 46.419a8.877 8.877 0 0 1-2.502 3.515c-3.23 2.983-7.26 4.819-11.52 5.249-4.263.43-8.544-.567-12.246-2.85C8.04 48.91 4.307 39.275 2.624 31.507c-1.176-5.455-1.345-9.966-.47-10.79 1.077-.99 4.635-1.668 8.976-1.814.074.123.155.24.244.352a5.81 5.81 0 0 0 2.174 1.942 5.424 5.424 0 0 0 2.786.59 6.26 6.26 0 0 0 3.383-1.07 5.35 5.35 0 0 0 1.25-1.223c3.922.618 7.506 1.76 9.676 3.555a51.988 51.988 0 0 1 3.697 3.355l.306.313c9.244 9.508 6.511 15.807 5.379 19.7Z"/><path fill="url(#f)" d="M39 60.565c-4.284-8.663-9.616-16.694-15.861-23.887-4.626-5.413-9.997-10.05-15.93-13.754a44.509 44.509 0 0 0-4.084-2.2c.425.093 14.104 3.382 28.87 21.263C47.012 60.167 39 60.565 39 60.565Z" opacity=".6" style="mix-blend-mode:multiply"/><path fill="#CBE4FE" d="M23.139 36.658c-4.628-5.406-9.998-10.036-15.93-13.734a51.899 51.899 0 0 1 9.05 5.887 30.575 30.575 0 0 1 6.88 7.847Z" style="mix-blend-mode:multiply"/><path fill="url(#g)" d="M37.524 49.934c-3.23 2.983-7.26 4.819-11.52 5.249-4.263.43-8.544-.567-12.246-2.85C8.04 48.91 4.308 39.275 2.625 31.507c2.033 3.555 5.247 7.509 10.05 9.562 9.076 3.887 20.015-12.107 21.653-14.665l.225-.345.082.664 2.89 23.21Z" style="mix-blend-mode:multiply"/><path fill="url(#h)" d="M9.722 37.502C2.886 34.179.83 22.219 2.624 20.718c1.595-1.33 5.066-1.695 8.756-1.462.559.831 1.307 1.5 2.174 1.942a5.423 5.423 0 0 0 2.786.59 6.26 6.26 0 0 0 3.383-1.07c1.291.31 2.514.88 3.603 1.68 2.583 2.433-6.774 18.46-13.604 15.104Z" opacity=".5" style="mix-blend-mode:screen"/><path fill="#353600" d="M3.125 21.522c-2.364-.565.181 9.415 3.314 11.62 3.134 2.207 10.289.393 10.007-1.48-.281-1.875-8.105-8.891-13.321-10.14Z" opacity=".5" style="mix-blend-mode:screen"/><path fill="#115434" d="M30.544 4.598s-5.58 4.465-6.292 17.502c-.582 10.63 1.457 18.06 1.457 18.06L39 32.764 30.545 4.598Z"/><path fill="url(#i)" d="M48.588 38.89c-3.922 11.814-12.434 10.632-18.644 6.253-1.764-1.25-2.977-6.572-3.49-13.003-.526-6.645-.3-14.479.863-20.193.707-3.502 1.776-6.206 3.22-7.349 1.302-1.03 9.22 7.595 14.286 17.156a43.786 43.786 0 0 1 3.333 7.814c1.001 3.442 1.308 6.684.432 9.322Z"/><path fill="url(#j)" d="M40.207 36.465s-.369-3.362-1.25-8.053c-1.008-5.362-2.684-12.465-5.248-18.22v-.04a31.34 31.34 0 0 0-2.658-4.896c.625.83 10.632 14.352 11.039 30.664.394 16.844-1.883.545-1.883.545Z" opacity=".6" style="mix-blend-mode:multiply"/><path fill="url(#k)" d="M48.156 29.568 26.454 32.14c-.526-6.645-.3-14.479.863-20.193.2 4.73 1.801 10.073 7.78 10.644 5.104.485 8.043-.086 9.726-.837a43.786 43.786 0 0 1 3.333 7.814Z" style="mix-blend-mode:multiply"/><path fill="url(#l)" d="M30.7 4.598c-.788-.086-4.74 6.266-1.876 11.82 2.865 5.556 12.509 6.645 14.591 4.938C45.498 19.648 33.034 4.837 30.7 4.598Z" opacity=".5" style="mix-blend-mode:screen"/><path fill="#353600" d="M30.725 5.21c-.895-.413-3.44 4.803-2.34 8.51 1.101 3.708 8.757 9.383 8.582 6.778-.176-2.604-5.123-14.777-6.242-15.289Z" opacity=".5" style="mix-blend-mode:screen"/><path fill="#CBE4FE" d="m39.787 28.572-.832-.167c-1.007-5.355-2.683-12.458-5.247-18.212a41.31 41.31 0 0 1 3.709 9.302c1.907 6.651 2.37 9.076 2.37 9.076Z" style="mix-blend-mode:multiply"/><path fill="#115434" d="M206.44 7.163s5.529 11.13-2.501 25.714c-8.031 14.585-15.993 5.894-15.993 5.894L206.44 7.163Z"/><path fill="#89C2FE" d="M206.591 18.665c.144-.565 1.251 3.873.119 9.01-1.132 5.136-3.584 2.744-3.584 2.744s3.096-10.273 3.465-11.755Z" style="mix-blend-mode:multiply"/><path fill="url(#m)" d="M206.935 15.216c-1.026 8.85-5.085 22.113-10.113 28.478a12.834 12.834 0 0 1-2.502 2.492c-5.992 4.379-11.145 1.84-14.929-1.84a37.27 37.27 0 0 1-4.835-6.034c-4.334-6.505-.168-13.289 6.386-18.963C189.504 12 202.088 6.645 205.246 6.465c1.864-.093 2.296 3.575 1.689 8.75Z"/><path fill="url(#n)" d="M205.39 7.17c-12.296 9.64-22.334 24.524-22.334 24.524l-2.971-1.382a55.309 55.309 0 0 1 4.021-4.578c2.033-2.133 4.891-4.923 8.682-8.2l.769-.664c8.03-6.903 11.583-9.561 11.833-9.7Z" opacity=".6" style="mix-blend-mode:multiply"/><path fill="url(#o)" d="M206.935 15.216c-1.025 8.85-5.084 22.113-10.113 28.478-5.76.24-12.459.492-17.418.665a37.215 37.215 0 0 1-4.835-6.033c-4.334-6.505-.169-13.29 6.386-18.964.65 3.608 5.328 6.552 25.98-4.146Z" style="mix-blend-mode:multiply"/><path fill="url(#p)" d="M204.933 6.804c-2.051-.664-23.641 10.007-21.753 12.28 1.889 2.271 19.389-2.107 21.472-4.871 2.082-2.764 1.77-6.944.281-7.409Z" opacity=".5" style="mix-blend-mode:screen"/><path fill="#353600" d="M205.309 7.814c-1.32-.246-8.537 6.452-6.805 7.8 1.733 1.35 7.111.446 8.181-1.122 1.069-1.568-.044-6.432-1.376-6.678Z" opacity=".5" style="mix-blend-mode:screen"/><path fill="#CBE4FE" d="M193.557 16.87c-4.41 4.452-9.107 9.628-9.382 9.788l-.1-.924c2.033-2.133 4.891-4.923 8.681-8.2l.801-.663Z" style="mix-blend-mode:multiply"/><path fill="#115434" d="M172.993 26.578a4.406 4.406 0 0 1-.507 2.306c-2.245 3.986-11.208 1.329-11.208 1.329l-.744-27.914s2.74 0 5.629 3.987c.907 1.242 4.785 9.302 6.254 16.08.318 1.38.511 2.791.576 4.212Z"/><path fill="#89C2FE" d="M172.992 26.578a4.415 4.415 0 0 1-.506 2.306c-1.182.664-3.034.06-3.034.06s-3.283-15.11-2.014-15.808c1.27-.697 3.503 4.425 5.004 9.19.312 1.395.496 2.82.55 4.252Z" style="mix-blend-mode:multiply"/><path fill="url(#q)" d="M171.154 32.12a2.295 2.295 0 0 1-.907 1.103c-4.134 2.877-19.226.431-20.739-1.542a3.25 3.25 0 0 1-.551-1.256c-.625-2.551.169-7.309 1.664-12.226 2.452-7.973 6.78-16.305 9.913-15.88 1.17.16 2.902 2.943 4.641 6.77 3.558 7.821 7.148 20.027 5.979 23.03Z"/><path fill="url(#r)" d="M158.02 31.728c.137.146-2.321 12.538-2.834-2.917v-1.788a59.626 59.626 0 0 1 3.353-20.206c.438-1.266.954-2.5 1.545-3.694-4.303 14.153-2.19 28.458-2.064 28.605Z" opacity=".6" style="mix-blend-mode:multiply"/><path fill="url(#s)" d="M171.153 32.12a2.295 2.295 0 0 1-.907 1.103c-4.884-.665-13.884-1.834-21.264-2.798-.626-2.551.169-7.309 1.663-12.226 1.42 2.186 4.378 4.651 10.47 3.176 5.529-1.328 5.354-7.242 4.084-12.285 3.534 7.82 7.124 20.026 5.954 23.03Z" style="mix-blend-mode:multiply"/><path fill="url(#t)" d="M159.746 2.591c-1.057-.279-9.901 13.781-7.787 15.681 2.114 1.9 12.127-.863 12.527-6.69.401-5.828-3.533-8.665-4.74-8.99Z" opacity=".5" style="mix-blend-mode:screen"/><path fill="#353600" d="M160.428 3.548c-1.095-.12-2.902 10.751-1.877 11.914 1.026 1.163 5.379-1.07 5.748-4.492.369-3.422-2.095-7.222-3.871-7.422Z" opacity=".5" style="mix-blend-mode:screen"/><path fill="#CBE4FE" d="m156.318 26.385-1.163.665a59.65 59.65 0 0 1 3.352-20.206c-3.402 11.674-2.189 19.541-2.189 19.541Z" style="mix-blend-mode:multiply"/><path fill="#115434" d="M211.945 25.674s-1.558-1.588-10.045-1.421a55.323 55.323 0 0 0-15.01 2.372l5.522 6.252 19.533-7.203ZM208.43 36.844s-.594-2.399.588-3.648c1.182-1.25-2.627-1.143-2.627-1.143l-.313 4.492 2.352.299Z"/><path fill="url(#u)" d="M211.581 30.053c-.306.87-.7 1.834-1.163 2.857h-.425c-.963.107-2.02.499-2.164 1.681-.062.465-.008.94.156 1.376.109.297.264.573.457.817-4.804 8.638-13.066 18.718-19.045 15.767-9.788-4.81-8.205-19.03-6.629-21.295 1.826-2.658 9.081-4.578 15.942-5.562 6.054-.863 11.808-.963 13.247-.08.644.46.444 2.12-.376 4.44Z"/><path fill="url(#v)" d="m209.981 29.495-.094.126c-3.309 5.166-7.524 9.606-12.415 13.077-3.634 2.543-7.732 4.24-12.027 4.983-17.387 2.857-.744-3.661-.744-3.661s12.94.246 27.244-17.94a24.012 24.012 0 0 1-1.964 3.415Z" opacity=".6" style="mix-blend-mode:multiply"/><path fill="url(#w)" d="M207.972 36.027c.11.297.264.573.457.817-4.803 8.638-13.065 18.718-19.044 15.767-9.788-4.81-8.206-19.03-6.63-21.295 1.826-2.658 9.081-4.578 15.942-5.562-3.877 3.575-12.452 12.744-2.501 16.093 4.565 1.535 8.543-1.435 11.776-5.82Z" style="mix-blend-mode:multiply"/><path fill="url(#x)" d="M211.569 30.08c-.306.87-.7 1.834-1.163 2.857h-.426a40.79 40.79 0 0 0 1.589-2.857Z" style="mix-blend-mode:multiply"/><path fill="url(#y)" d="M211.306 25.754c-.625-.877-10.363-.87-11.595 1.21-1.232 2.08-.744 10.245 2.301 10.784 3.046.538 10.064-10.877 9.294-11.994Z" opacity=".5" style="mix-blend-mode:screen"/><path fill="#353600" d="M200.299 26.638c-.838.438-.913 6.026 1.332 6.585 2.245.558 10.388-5.98 9.625-7.077-.763-1.096-7.367-1.382-10.957.492Z" opacity=".5" style="mix-blend-mode:screen"/><path fill="#CBE4FE" d="M209.887 29.621c-3.309 5.166-7.524 9.606-12.415 13.077a5.892 5.892 0 0 1-.175-1.024c0-.16 2.189-1.036 5.629-4.066a53.27 53.27 0 0 0 6.961-7.987Z" style="mix-blend-mode:multiply"/><path fill="#115434" d="m37.642 54.93-26.387 45.602s-3.608-8.326-1.538-19.708a40.254 40.254 0 0 1 2.833-9.203c2.582-5.712 6.947-10.297 12.352-12.976a34.221 34.221 0 0 1 12.74-3.715Z"/><path fill="#89C2FE" d="M10.324 83.056a7.75 7.75 0 0 1-.626-2.219 40.246 40.246 0 0 1 2.833-9.202c2.585-5.72 6.957-10.312 12.371-12.99 14.498.677-11.77 29.315-14.578 24.411Z" style="mix-blend-mode:multiply"/><path fill="url(#z)" d="M11.255 100.532a1.1 1.1 0 0 1-.244-.266c-1.613-2.359-1.989-15.854 2.408-25.25.433-.939.929-1.845 1.482-2.71 5.467-8.558 13.01-13.914 18.763-15.283 3.278-.777 5.973-.259 7.38 1.714a6.236 6.236 0 0 1 1.064 3.482c1.57 40.273-28.976 39.688-30.853 38.313Z"/><path fill="#353600" d="M11.017 97.954c.87 1.56 13.065-11.848 13.234-14.519.169-2.67-7.505-9.594-9.281-8.073-1.777 1.522-7.036 17.063-3.953 22.592Z" opacity=".5" style="mix-blend-mode:screen"/><path fill="url(#A)" d="M43.74 62.372s-8.6 15.176-17.7 25.096-14.603 12.545-14.603 12.545a124.584 124.584 0 0 0 4.64-4.538c4.672-4.8 8.92-10.044 12.69-15.668 6.017-9.036 8.13-15.395 8.13-15.395l6.843-2.04Z" opacity=".6" style="mix-blend-mode:multiply"/><path fill="url(#B)" d="M11.255 100.532a1.1 1.1 0 0 1-.244-.266C24.089 102.87 33.57 84.06 25.496 76.89c-4.06-3.608-8.55-3.222-12.077-1.9.433-.94.928-1.846 1.482-2.71 5.466-8.559 13.009-13.915 18.763-15.283l7.38 1.714a6.236 6.236 0 0 1 1.063 3.482c1.57 40.299-28.976 39.714-30.852 38.339Z" style="mix-blend-mode:multiply"/><path fill="#115434" d="M10.55 84.804c-.501-.665-.626-6.226 1.663-6.79 2.289-.566-.782 8-1.664 6.79Z"/><path fill="#89C2FE" d="M10.255 82.904c0 .339.988-2.38 1.282-1.788.294.592.625 1.27 1.02.718.394-.552.894-3.668 0-3.794-.895-.126-2.415 1.156-2.302 4.864Z" style="mix-blend-mode:multiply"/><path fill="#CBE4FE" d="M29.042 79.84a41.468 41.468 0 0 1-4.96 7.868c-2.614 2.996-7.674 7.461-7.986 7.74a111.37 111.37 0 0 0 12.671-15.64l.275.032Z" style="mix-blend-mode:multiply"/><path fill="#115434" d="M202.432 95.017c-2.052 11.96-16.887-25.88-16.887-25.88l8.525-6.147 1.538-1.11a104.789 104.789 0 0 1 5.191 15.562c1.483 5.967 2.496 12.531 1.633 17.575Z"/><path fill="#89C2FE" d="M200.536 78.332c-1.551-.664-6.373-9.907-6.373-9.907l-.094-5.435 1.539-1.11a104.789 104.789 0 0 1 5.191 15.562c.044.658-.038.963-.263.89Z" style="mix-blend-mode:multiply"/><path fill="url(#C)" d="M201.643 97.734a3.385 3.385 0 0 1-1.174 1.468 3.1 3.1 0 0 1-1.734.566c-3.652.08-9.075-2.127-13.978-5.256-6.086-3.9-11.377-9.243-11.483-13.456a4.453 4.453 0 0 1 .362-1.94c.088-.199.194-.412.307-.624 2.689-5.083 11.783-12.758 18.45-11.96 5.904.757 12.803 24.1 9.25 31.202Z"/><path fill="url(#D)" d="M199.405 99.335c-4.944-2.664-9.333-6.358-12.903-10.863-5.767-7.369-6.323-11.648-6.323-11.648l2.564-1.389a41.555 41.555 0 0 0 3.634 9.568c.281.572.594 1.156.925 1.761 2.252 4.106 6.399 7.974 9.201 10.312h.043c1.608 1.37 2.765 2.193 2.859 2.26Z" opacity=".6" style="mix-blend-mode:multiply"/><path fill="url(#E)" d="M201.643 97.734c-.344-4.378-1.732-10.1-6.342-13.03-5.554-3.528-8.987 4.432-10.545 9.808-6.085-3.9-11.376-9.243-11.483-13.456l.67-2.564c2.689-5.083 11.783-12.758 18.45-11.96 5.904.757 12.803 24.1 9.25 31.202Z" style="mix-blend-mode:multiply"/><path fill="#353600" d="M190.129 88.97c-1.144 1.595 7.149 9.216 9.751 9.415 2.602.2-.738-10.704-3.315-12.624s-5.185 1.462-6.436 3.209Z" opacity=".5" style="mix-blend-mode:screen"/><path fill="#CBE4FE" d="M196.502 97.076c-8.287-6.093-10.87-11.913-10.933-11.913l.807-.16c.282.572.594 1.156.926 1.761 2.251 4.106 6.398 7.974 9.2 10.312Z" style="mix-blend-mode:multiply"/><path fill="#97D13D" d="M30.956 6.02c-.475-.452.513 3.123 1.301 4.87.788 1.748 2.433 3.728 2.358 2.864-.075-.864-2.883-7.01-3.659-7.734ZM2.78 21.734c-.474.087 1.396 2.405 2.503 2.797 1.107.393 3.127.054 2.62-.664-.506-.718-3.915-2.345-5.122-2.133ZM159.727 5.043c-.225.107-1.176 4.612-.882 4.97.294.36 1.488-.571 1.626-1.873.138-1.303-.563-3.177-.744-3.097ZM198.104 13.987c-.663.87 2.658-.665 3.377-1.183.719-.518 1.876-3.435 1.52-3.435-.357 0-3.884 3.296-4.897 4.618ZM194.157 93.395c-.951-.053 3.252 4.107 4.628 4.34 1.376.232 1.207-3.994-4.628-4.34Z"/><path fill="#4ABAFF" d="M23.32 74.026s.25 12.997 4.271 15.569c4.022 2.571 160.255 5.415 163.926-.99 2.302-3.987 3.753-18.107 3.753-18.107L23.32 74.026Z"/><path fill="url(#F)" d="M199.011 35.508c0 11.176-4.378 47.382-8.488 52.193-.056.073-.119.14-.187.2-5.698 5.315-158.667 3.388-163.17 0a1.504 1.504 0 0 1-.187-.167c-1.764-1.854-3.428-10.85-4.66-21.076-1.25-10.598-2.101-22.519-2.101-29.183 0-.99 0-1.854.056-2.591.023-.595.08-1.187.169-1.774l.882-5.077c.087-.492.194-.784.338-.85 13.972-6.558 130.89-5.575 166.365-1.794 5.116.544 8.537 1.15 9.707 1.794.112.06.2.292.269.664l.875 5.07c.113.858.157 1.725.132 2.591Z"/><path fill="#6E1A46" d="M190.523 87.708c-.056.073-.119.14-.187.199-5.698 5.316-158.667 3.389-163.17 0a1.474 1.474 0 0 1-.187-.166c-.097-1.877.25-3.75 1.007-5.449 0 0 159.129-3.222 160.736-1.515 1.445 1.522 1.351 2.745 1.801 6.93Z" opacity=".4" style="mix-blend-mode:multiply"/><path fill="url(#G)" d="M197.128 45.023a250.403 250.403 0 0 1-.519 4.698 309.372 309.372 0 0 1-1.288 9.708 322.354 322.354 0 0 1-.526 3.448.237.237 0 0 1 0 .053l-.031.153c-1.526 9.435-3.402 17.469-5.21 19.156-.625.578-3.021 1.07-6.792 1.489-3.872.425-9.213.77-15.573 1.03-43.631 1.827-135.72.086-139.185-2.519-.975-.737-1.932-3.747-2.802-8.013-.556-2.764-1.082-6.06-1.557-9.595-.1-.757-.2-1.528-.306-2.305v-.26a54.553 54.553 0 0 0-.12-.996c0-.2-.043-.359-.055-.445a.38.38 0 0 0 0-.08 323.953 323.953 0 0 1-1.657-18.585c0-.531-.063-1.043-.088-1.555v-.365c-.382-7.243-.338-12.578.319-12.877 15.986-7.509 166.753-5.136 176.053 0 .675.432.331 8.232-.663 17.86Z"/><path fill="#FF6D40" d="M197.127 45.023c.032-.478.926-15.229-1.826-16.551-9.919-4.778-166.822-7.974-172.057.883-2.32 3.914-1.939 9.303-1.876 10.705-.382-7.243-.338-12.578.319-12.877 15.986-7.509 166.753-5.136 176.053 0 .726.412.382 8.212-.613 17.84ZM23.139 60.565a.685.685 0 0 1 0 .027v-.027Z"/><path fill="#C93B28" d="M194.745 63.123c-1.527 9.435-3.403 17.468-5.21 19.156-5.629 5.27-157.09 3.362-161.55 0-1.745-1.329-3.409-9.894-4.666-19.933.626 4.378 2.608 15.441 7.637 18.531 6.323 3.88 150.029 3.322 155.733-.459 5.247-3.501 7.705-15.448 8.056-17.295Z"/><path fill="#C93B28" d="M124.59 83.455s14.685-4.591 23.485-4.332c8.8.259 19.338 4.113 19.338 4.113l-42.823.22Z"/><path fill="#FFAF80" d="M27.517 28.963c-6.023.745-3.484 43.575 6.073 49.243 9.556 5.668 144.756 4.346 151.824 0 7.067-4.346 9.594-44.651 7.93-46.352-6.091-6.186-112.922-9.455-165.827-2.89Z" opacity=".3" style="mix-blend-mode:soft-light"/><path fill="url(#H)" d="M125.772 86.106s13.385-6.046 21.841-5.727c5.344.303 10.541 1.967 15.154 4.85l-36.995.877Z"/><path fill="#884CC4" d="M133.915 82.99c-1.038.492 29.94 3.608 28.464 1.993-1.476-1.614-15.405-8.166-28.464-1.993Z" opacity=".5" style="mix-blend-mode:multiply"/><path fill="#DD358D" d="M196.608 49.734a309.372 309.372 0 0 1-1.288 9.708c-14.923-6.731-57.252-23.708-102.89-22.658-37.364.877-59.342 10.724-70.018 17.375a323.944 323.944 0 0 1-.963-12.179c2.133-.744 4.785-1.568 8.006-2.412h.075l.225-.053c11.796-3.09 31.103-6.405 60.367-6.957 40.434-.724 80.462 9.362 99.825 15.11 2.615.784 4.847 1.501 6.661 2.066Z" opacity=".4" style="mix-blend-mode:multiply"/><path fill="#DD358D" d="M182.743 83.774c-3.872.425-9.213.77-15.574 1.03-20.089-14.24-51.285-32.525-81.181-34.452-32.441-2.1-51.498 13.13-60.805 23.92-.556-2.764-1.082-6.06-1.557-9.594 7.139-5.664 15.027-10.174 23.41-13.382h.081c.87-.346 1.752-.665 2.665-1.01h.1a124.726 124.726 0 0 1 32.879-6.844c16.805-1.33 35.893 4.651 53.568 12.844 7.161 3.322 14.085 7.036 20.539 10.79h.044c10.076 5.84 19.026 11.84 25.831 16.698Z" opacity=".4" style="mix-blend-mode:multiply"/><path fill="#944B71" d="M189.948 47.681c-21.89-5.814-60.804-14.844-90.857-14.571-41.478.372-66.39 5.72-69.335 6.385 11.795-3.07 31.103-6.385 60.367-6.937 40.434-.71 80.462 9.376 99.825 15.123ZM136.342 56.22c-11.314-4.938-26.112-9.861-41.329-10.672-24.135-1.262-39.22 2.658-45.119 4.651a124.723 124.723 0 0 1 32.88-6.843c16.793-1.283 35.881 4.644 53.568 12.863Z" opacity=".4" style="mix-blend-mode:multiply"/><path fill="#FFAF80" d="M33.377 69.25c-3.553 3.428.625 8.079 14.128 9.866 13.503 1.788 99.388.545 93.134-6.804-6.255-7.349-67.391-41.574-107.262-3.063ZM122.301 27.183c-3.708.757 66.296 20.172 68.536 18.81 2.239-1.362 1.663-12.89.744-14.14-.92-1.248-54.532-7.7-69.28-4.67ZM119.324 39.096c-1.401 0 57.747 40.884 63.419 37.529 5.673-3.356 8.219-16.525 6.918-18.153-1.301-1.628-46.045-18.977-70.337-19.376Z" opacity=".3" style="mix-blend-mode:soft-light"/><path fill="#D45028" d="M66.05 51.322s10.932-2.91 27.056-.784a97.377 97.377 0 0 1 29.051 8.864S93 46.232 66.05 51.322Z"/><path fill="#6E1A35" d="M29.043 73.21s3.984 2.312 7.149 2.146c3.164-.167 5.347-2.791 5.347-2.791a17.376 17.376 0 0 1-5.435 1.402 45.098 45.098 0 0 1-7.061-.758ZM27.83 67.774s.912 2.113 2.445 2.784c1.532.671 4.647-.086 4.647-.086a16.283 16.283 0 0 1-4.06-.758 31.437 31.437 0 0 1-3.033-1.94Z"/><path fill="#DB602C" d="M27.83 67.774a10.832 10.832 0 0 0 2.907 1.993c1.364.405 2.77.628 4.185.665a33.505 33.505 0 0 1-3.928-1.163 27.942 27.942 0 0 1-3.165-1.495ZM29.043 73.21a21.848 21.848 0 0 0 6.999 1.076c1.94-.068 3.832-.66 5.497-1.721-1.804.387-3.63.649-5.466.784a49.991 49.991 0 0 1-7.03-.14Z"/><path fill="url(#I)" d="M148.882 49.302v-.1c.682-.086 1.314-.139 1.877-.166-.62.127-1.247.216-1.877.266Zm-23.141 8.678c-1.369-.146-2.264-1.023-2.683-2.658a9.646 9.646 0 0 1 .394-1.595c1.747-3.393 3.717-5.091 5.911-5.096 1.551 0 2.539.698 2.952 2.093a7.86 7.86 0 0 1-.782 3.23c-1.801 2.688-3.59 4.035-5.366 4.04-.132.004-.263 0-.394-.014h-.032Zm38.196 6.24 7.43 5.64 10.914-23.514-.72-2.87-5.979-5.17-3.752 8.352-5.698-8.053-5.398 4.99.513 2.87 6.192 7.601-4.003 7.103.501 3.05Zm-25.775-21.436 3.897 26.877 8.206-1.222-.376-8.193 6.136 9.355 6.342-4.485-.519-3.063a378.455 378.455 0 0 0-4.485-6.073c2.156-1.9 3.286-3.894 3.39-5.98.036-.631 0-1.265-.106-1.887l-.507-2.89a6.258 6.258 0 0 0-.363-1.33c-1.976-3.33-4.686-5.178-8.13-5.54-.144 0-.294 0-.438-.04l-1.939-.1c-6.067.54-9.863 1.094-11.389 1.66l.281 2.911Zm-62.28 20.28c2.426 4.912 5.64 7.146 9.638 6.703 5.529-.735 9.106-3.81 10.732-9.222l.132-3.017-6.374-2.91c-1.305 1.537-2.454 2.38-3.446 2.532-.316.039-.635.039-.95 0-1.593-.164-2.636-1.42-3.128-3.768.613-2.166 2.073-3.495 4.378-3.987 1.176-.186 2.358.32 3.54 1.502l5.304-4.651c0 .153-.031.299-.044.452l-.144 2.91a78.164 78.164 0 0 1 6.911-.306l.038 3.004c-.1 8.12.05 13.898.45 17.335h6.961c.113-2.985.167-6.257.163-9.814v-2.99c0-2.392-.029-4.917-.088-7.575 1.877 0 3.934.054 6.186.153a23.552 23.552 0 0 0-.626 4.053v.665l.063 2.977c.013 1.57.213 3.133.594 4.65 1.359 4.873 4.297 7.5 8.813 7.881 3.877 0 7.065-1.3 9.562-3.9 3.082-4.08 4.624-8.425 4.629-13.037v-.85c0-.585 0-1.15-.082-1.708l-.281-2.777v-.133a14.152 14.152 0 0 0-.569-2.83 9.898 9.898 0 0 0-3.209-4.302 9.038 9.038 0 0 0-4.866-1.845c-.356-.04-.719-.066-1.094-.073-2.907.008-5.73 1.033-8.034 2.916-2.304 1.884-3.96 4.52-4.712 7.503l-.063-2.093a215.362 215.362 0 0 0-1.345-8.412c-6.992 0-13.038.053-18.137.16-.288 1.328-.55 2.934-.788 4.816-1.718-2.98-4.011-4.624-6.88-4.93a10.53 10.53 0 0 0-2.69.073 8.34 8.34 0 0 0-3.183.984c-5.003 2.914-7.789 6.777-8.356 11.588l-.344 2.937c-.076.632-.113 1.269-.112 1.907 0 .847.06 1.693.175 2.531.142 1.701.575 3.36 1.276 4.897ZM36.898 46.105l7.987 23.661 7.605-.04 6.568-22.259-.188 1.522 3.409-.2v10.386l-3.221.572-.507 3.036.431 7.076h14.623l.357-3.103.769-7.209-3.878-.458-.45-10.14c1.1 0 2.233.06 3.396.153l.35-2.897-.625-7.974-13.216.499-.487 2.824-.15 1.17-8.031-4.52-.582 2.825-1.92 9.528c-1.864-7.309-2.893-11.163-3.09-11.561-4.62 2.215-7.421 3.628-8.405 4.239l-.745 2.87Z"/><path fill="url(#J)" d="m59.783 42.77-8.131-4.564-2.245 10.963-.294 1.429c-.12-.485-.238-.95-.357-1.402-1.639-6.419-2.55-9.812-2.733-10.18-4.62 2.215-7.422 3.629-8.406 4.24l2.24 6.578 5.666 16.837 7.505-.04 1.182-3.986 2.558-8.638 1.463-4.977 1.308-4.406.5-1.707-.256-.146Z"/><path fill="url(#K)" d="m70.853 59.096-.438-9.807-.143-3.242c1.25 0 2.545.05 3.884.152l-.626-7.973-13.209.498-.507 4.067-.218 1.78-.188 1.515 3.37-.199v13.21l-3.69.664.426 7.01h14.479l.763-7.21-3.903-.465Z"/><path fill="url(#L)" d="M90.01 54.618c-1.307 1.535-2.458 2.372-3.446 2.532-2.214.292-3.606-1.066-4.178-4.074a9.53 9.53 0 0 1 .394-2.777c.626-2.055 2.048-3.313 4.266-3.774 1.17-.186 2.333.306 3.502 1.482l5.454-4.818.063-.053s0-.053-.044-.08c-2.227-3.849-5.425-5.466-9.594-4.85a8.261 8.261 0 0 0-3.184.997c-4.586 2.657-7.296 6.117-8.13 10.378-.133.644-.221 1.297-.263 1.954a18.013 18.013 0 0 0 .131 3.641c.139 1.68.563 3.318 1.251 4.837.207.419.42.824.626 1.203 2.314 4.013 5.28 5.823 8.9 5.428 5.5-.722 9.043-3.765 10.632-9.13l-6.38-2.896Z"/><path fill="url(#M)" d="M109.905 49.063c0-.884-.043-1.78-.068-2.698 1.938 0 4.082.054 6.429.16-.331-2.472-.788-5.276-1.345-8.419-6.992 0-13.038.053-18.137.16-.288 1.329-.55 2.932-.788 4.81v.133a160.947 160.947 0 0 0-.382 3.509 84.657 84.657 0 0 1 6.836-.3l.038 2.97v3.868c-.08 4.436.081 8.873.481 13.289h6.88c.113-2.99.165-6.273.156-9.847V54.83c-.031-1.848-.056-3.768-.1-5.768Z"/><path fill="url(#N)" d="M138.219 44.425c-1.735-4.04-4.789-6.113-9.163-6.22a13.3 13.3 0 0 0-4.272.772c-5.687 2.511-8.785 7.344-9.294 14.498-.008.901.036 1.802.132 2.698.087.873.241 1.738.462 2.584 1.347 4.82 4.266 7.418 8.757 7.795a13.964 13.964 0 0 0 4.09-.565 12.042 12.042 0 0 0 5.372-3.323c.213-.279.413-.558.626-.837.344-.498.669-.996.969-1.502 1.916-3.138 2.938-6.797 2.946-10.538a15.432 15.432 0 0 0-.625-5.362Zm-12.021 13.582c-1.939 0-3.044-1.29-3.315-3.867a8.34 8.34 0 0 1 .469-3.323c1.722-3.362 3.671-5.043 5.848-5.043 2.085 0 3.127 1.285 3.127 3.854a8.733 8.733 0 0 1-.782 4.359c-1.805 2.675-3.588 4.015-5.347 4.02Z"/><path fill="url(#O)" d="M161.847 62.08c-3.569-4.908-5.608-7.606-6.116-8.093 2.914-2.166 4.415-4.452 4.528-6.858a7.378 7.378 0 0 0-.463-3.162c-2.085-3.469-4.941-5.33-8.569-5.582l-1.945-.1c-6.058.541-9.852 1.097-11.383 1.668l3.515 24.24.344 2.358 4.222-.61 3.903-.572-.407-8.12 6.079 9.302 6.292-4.471Zm-13.065-12.764-.294-3.01c1.185-.18 2.384-.22 3.577-.12.814.16 1.214.558 1.17 1.21-.05 1.031-1.534 1.672-4.453 1.92Z"/><path fill="url(#P)" d="m175.601 38.306-3.753 8.352-5.741-8.06-5.373 4.99 7.456 9.15-4.754 8.431 7.343 5.588 10.807-23.255-5.985-5.196Z"/><path fill="#DFE300" d="M46.048 38.997c.188.372 1.1 3.763 2.734 10.172-3.365.153-6.355.38-8.925.625l-2.214-6.565c.984-.633 3.785-2.044 8.405-4.232ZM70.271 46.047l.144 3.242a218.726 218.726 0 0 0-7.668-.292v-3.15l-3.371.2.188-1.515-1.307 4.405c-3.165 0-6.117.073-8.825.193l2.207-10.924 8.131 4.565.507-4.067 13.209-.498.625 7.973a56.514 56.514 0 0 0-3.84-.133ZM109.836 46.365c.08 2.977.13 5.801.151 8.472a238.41 238.41 0 0 0-7.506-1.581v-3.867l-.037-2.97a84.67 84.67 0 0 0-6.836.299c.125-1.256.25-2.432.381-3.509l-5.454 4.798c-1.169-1.176-2.332-1.668-3.502-1.482-2.214.443-3.636 1.7-4.265 3.774-2.644-.31-5.206-.545-7.687-.704.863-4.244 3.573-7.704 8.13-10.38a8.263 8.263 0 0 1 3.184-.99c4.17-.615 7.368 1.002 9.594 4.851.238-1.86.5-3.464.788-4.81 5.083-.107 11.129-.16 18.138-.16.557 3.143 1.013 5.947 1.345 8.419-2.34-.106-4.481-.16-6.424-.16ZM138.219 44.425c-1.735-4.04-4.789-6.113-9.163-6.22a13.3 13.3 0 0 0-4.272.772c-5.687 2.511-8.785 7.344-9.294 14.498-.008.901.036 1.802.132 2.698a247.3 247.3 0 0 1 19.257 5.687c2.534-3.452 3.927-7.695 3.965-12.073a15.432 15.432 0 0 0-.625-5.362Zm-6.63 9.542c-1.801 2.689-3.59 4.035-5.366 4.04-1.939 0-3.044-1.29-3.315-3.867a8.34 8.34 0 0 1 .469-3.323c1.722-3.362 3.671-5.043 5.848-5.043 2.085 0 3.127 1.285 3.127 3.854a8.736 8.736 0 0 1-.788 4.339h.025ZM161.847 62.08c-3.569-4.908-5.608-7.606-6.116-8.093 2.914-2.166 4.415-4.452 4.528-6.858a7.378 7.378 0 0 0-.463-3.162c-2.085-3.469-4.941-5.33-8.569-5.582l-1.945-.1c-6.058.541-9.852 1.097-11.383 1.668l3.515 24.24c1.52.558 3.034 1.142 4.566 1.747l3.903-.571-.407-8.12 6.079 9.302 6.292-4.471Zm-13.065-12.764-.294-3.01c1.185-.18 2.384-.22 3.577-.12.814.16 1.214.558 1.17 1.21-.05 1.031-1.534 1.672-4.453 1.92ZM181.58 43.468l-10.808 23.29-7.343-5.589 4.754-8.431-7.455-9.15 5.403-4.99 5.742 8.06 3.727-8.352 5.98 5.163Z" opacity=".5" style="mix-blend-mode:screen"/><path fill="#E3C1C1" d="m56.793 53.934-2.558 8.638a7.434 7.434 0 0 1-1.99-3.383c-.9-3.03 2.79-4.657 4.548-5.255ZM52.427 55.342c-.706.253-.925-4.146 0-3.176.926.97 2.064 2.452 0 3.176ZM78.083 55.648c.052 1.945-.38 3.87-1.25 5.581a15.114 15.114 0 0 1-.626-1.202 14.635 14.635 0 0 1-1.251-4.838 18.013 18.013 0 0 1-.132-3.64c1.151.371 3.159 1.607 3.259 4.099ZM109.992 56.704c-.863-1.329-1.72-3.621-1.557-5.422.163-1.8.882-2.219 1.47-2.219.044 1.993.069 3.92.081 5.774.006.631.006 1.256.006 1.867ZM107.572 55.349c-.706-.478-1.463 3.036-.306 3.322 1.157.286 1.657-2.379.306-3.322ZM135.823 60.359c-.3.505-.626 1.003-.97 1.502-.194.279-.394.558-.625.837a12.04 12.04 0 0 1-5.373 3.322c.307-1.993 1.37-5.721 4.422-5.887a7.08 7.08 0 0 1 2.546.226Z" opacity=".5" style="mix-blend-mode:multiply"/><path fill="url(#Q)" d="M46.905 66.904s1.001-2.539 2.502-1.927c.44.19.827.5 1.12.9.293.398.483.872.55 1.372l-4.172-.345Z"/><path fill="url(#R)" d="M83.274 49.322s-.525-3.063.625-3.428c.453-.08.917-.041 1.353.111.436.153.83.416 1.15.766-.095.08-3.128 2.551-3.128 2.551Z"/><path fill="url(#S)" d="M163.104 46.77s2.433-1.122 3.334.791c.901 1.914-.388 2.831-.388 2.831l-2.946-3.621Z"/><defs><linearGradient id="b" x1="55.08" x2="54.974" y1="84.771" y2="127.628" gradientUnits="userSpaceOnUse"><stop stop-color="#0C3B37"/><stop offset=".08" stop-color="#144533"/><stop offset=".5" stop-color="#39721E"/><stop offset=".81" stop-color="#508E12"/><stop offset="1" stop-color="#59980D"/></linearGradient><linearGradient id="c" x1="72.473" x2="74.569" y1="76.339" y2="120.553" gradientUnits="userSpaceOnUse"><stop stop-color="#0C3B37"/><stop offset=".08" stop-color="#144533"/><stop offset=".5" stop-color="#39721E"/><stop offset=".81" stop-color="#508E12"/><stop offset="1" stop-color="#59980D"/></linearGradient><linearGradient id="d" x1="154.486" x2="156.582" y1="72.452" y2="116.673" gradientUnits="userSpaceOnUse"><stop stop-color="#0C3B37"/><stop offset=".08" stop-color="#144533"/><stop offset=".5" stop-color="#39721E"/><stop offset=".81" stop-color="#508E12"/><stop offset="1" stop-color="#59980D"/></linearGradient><linearGradient id="e" x1="40.163" x2="1.387" y1="53.482" y2="23.493" gradientUnits="userSpaceOnUse"><stop offset=".01" stop-color="#187447"/><stop offset=".34" stop-color="#33832F"/><stop offset=".76" stop-color="#4F9216"/><stop offset="1" stop-color="#59980D"/></linearGradient><linearGradient id="f" x1="51.627" x2="-10.808" y1="70.332" y2="6.966" gradientUnits="userSpaceOnUse"><stop stop-color="#806EEE"/><stop offset=".24" stop-color="#A095F1"/><stop offset=".59" stop-color="#CAC6F5"/><stop offset=".85" stop-color="#E3E5F8"/><stop offset="1" stop-color="#EDF1F9"/></linearGradient><linearGradient id="g" x1="-1.822" x2="39.608" y1="15.488" y2="49.218" gradientUnits="userSpaceOnUse"><stop stop-color="#DBF8FE"/><stop offset=".27" stop-color="#D9F5FE"/><stop offset=".44" stop-color="#D3ECFE"/><stop offset=".6" stop-color="#C7DDFE"/><stop offset=".73" stop-color="#B8C8FE"/><stop offset=".86" stop-color="#A4ACFF"/><stop offset=".98" stop-color="#8B8BFF"/><stop offset="1" stop-color="#8785FF"/></linearGradient><linearGradient id="h" x1="23.388" x2="1.013" y1="41.953" y2="11.224" gradientUnits="userSpaceOnUse"><stop/><stop offset=".62" stop-color="#363600"/><stop offset="1" stop-color="#525300"/></linearGradient><linearGradient id="i" x1="39.826" x2="31.899" y1="44.425" y2="9.071" gradientUnits="userSpaceOnUse"><stop offset=".01" stop-color="#187447"/><stop offset=".34" stop-color="#33832F"/><stop offset=".76" stop-color="#4F9216"/><stop offset="1" stop-color="#59980D"/></linearGradient><linearGradient id="j" x1="45.211" x2="29.306" y1="49.488" y2="-1.546" gradientUnits="userSpaceOnUse"><stop stop-color="#806EEE"/><stop offset=".24" stop-color="#A095F1"/><stop offset=".59" stop-color="#CAC6F5"/><stop offset=".85" stop-color="#E3E5F8"/><stop offset="1" stop-color="#EDF1F9"/></linearGradient><linearGradient id="k" x1="33.071" x2="38.375" y1="-2.997" y2="34.707" gradientUnits="userSpaceOnUse"><stop stop-color="#DBF8FE"/><stop offset=".27" stop-color="#D9F5FE"/><stop offset=".44" stop-color="#D3ECFE"/><stop offset=".6" stop-color="#C7DDFE"/><stop offset=".73" stop-color="#B8C8FE"/><stop offset=".86" stop-color="#A4ACFF"/><stop offset=".98" stop-color="#8B8BFF"/><stop offset="1" stop-color="#8785FF"/></linearGradient><linearGradient id="l" x1="45.017" x2="21.95" y1="31.588" y2="-.099" gradientUnits="userSpaceOnUse"><stop/><stop offset=".62" stop-color="#363600"/><stop offset="1" stop-color="#525300"/></linearGradient><linearGradient id="m" x1="179.91" x2="203.753" y1="44.538" y2="10.82" gradientUnits="userSpaceOnUse"><stop offset=".01" stop-color="#187447"/><stop offset=".34" stop-color="#33832F"/><stop offset=".76" stop-color="#4F9216"/><stop offset="1" stop-color="#59980D"/></linearGradient><linearGradient id="n" x1="192.737" x2="192.737" y1="-8.645" y2="34.066" gradientUnits="userSpaceOnUse"><stop stop-color="#806EEE"/><stop offset=".24" stop-color="#A095F1"/><stop offset=".59" stop-color="#CAC6F5"/><stop offset=".85" stop-color="#E3E5F8"/><stop offset="1" stop-color="#EDF1F9"/></linearGradient><linearGradient id="o" x1="190.924" x2="189.138" y1="-13.821" y2="42.459" gradientUnits="userSpaceOnUse"><stop stop-color="#DBF8FE"/><stop offset=".27" stop-color="#D9F5FE"/><stop offset=".44" stop-color="#D3ECFE"/><stop offset=".6" stop-color="#C7DDFE"/><stop offset=".73" stop-color="#B8C8FE"/><stop offset=".86" stop-color="#A4ACFF"/><stop offset=".98" stop-color="#8B8BFF"/><stop offset="1" stop-color="#8785FF"/></linearGradient><linearGradient id="p" x1="200.486" x2="189.739" y1="22.671" y2="7.909" gradientUnits="userSpaceOnUse"><stop/><stop offset=".62" stop-color="#363600"/><stop offset="1" stop-color="#525300"/></linearGradient><linearGradient id="q" x1="160.259" x2="159.56" y1="40.14" y2="6.427" gradientUnits="userSpaceOnUse"><stop offset=".01" stop-color="#187447"/><stop offset=".34" stop-color="#33832F"/><stop offset=".76" stop-color="#4F9216"/><stop offset="1" stop-color="#59980D"/></linearGradient><linearGradient id="r" x1="157.607" x2="157.607" y1="-18.505" y2="39.807" gradientUnits="userSpaceOnUse"><stop stop-color="#806EEE"/><stop offset=".24" stop-color="#A095F1"/><stop offset=".59" stop-color="#CAC6F5"/><stop offset=".85" stop-color="#E3E5F8"/><stop offset="1" stop-color="#EDF1F9"/></linearGradient><linearGradient id="s" x1="160.064" x2="160.064" y1="-6.492" y2="35.542" gradientUnits="userSpaceOnUse"><stop stop-color="#DBF8FE"/><stop offset=".27" stop-color="#D9F5FE"/><stop offset=".44" stop-color="#D3ECFE"/><stop offset=".6" stop-color="#C7DDFE"/><stop offset=".73" stop-color="#B8C8FE"/><stop offset=".86" stop-color="#A4ACFF"/><stop offset=".98" stop-color="#8B8BFF"/><stop offset="1" stop-color="#8785FF"/></linearGradient><linearGradient id="t" x1="163.63" x2="150.259" y1="21.395" y2="3.027" gradientUnits="userSpaceOnUse"><stop/><stop offset=".62" stop-color="#363600"/><stop offset="1" stop-color="#525300"/></linearGradient><linearGradient id="u" x1="182.974" x2="203.851" y1="44.359" y2="35.188" gradientUnits="userSpaceOnUse"><stop offset=".01" stop-color="#187447"/><stop offset=".34" stop-color="#33832F"/><stop offset=".76" stop-color="#4F9216"/><stop offset="1" stop-color="#59980D"/></linearGradient><linearGradient id="v" x1="194.739" x2="194.739" y1="11.615" y2="50.571" gradientUnits="userSpaceOnUse"><stop stop-color="#806EEE"/><stop offset=".24" stop-color="#A095F1"/><stop offset=".59" stop-color="#CAC6F5"/><stop offset=".85" stop-color="#E3E5F8"/><stop offset="1" stop-color="#EDF1F9"/></linearGradient><linearGradient id="w" x1="196.064" x2="194.42" y1="-.578" y2="51.21" gradientUnits="userSpaceOnUse"><stop stop-color="#DBF8FE"/><stop offset=".27" stop-color="#D9F5FE"/><stop offset=".44" stop-color="#D3ECFE"/><stop offset=".6" stop-color="#C7DDFE"/><stop offset=".73" stop-color="#B8C8FE"/><stop offset=".86" stop-color="#A4ACFF"/><stop offset=".98" stop-color="#8B8BFF"/><stop offset="1" stop-color="#8785FF"/></linearGradient><linearGradient id="x" x1="210.894" x2="210.717" y1="27.262" y2="32.777" gradientUnits="userSpaceOnUse"><stop stop-color="#DBF8FE"/><stop offset=".27" stop-color="#D9F5FE"/><stop offset=".44" stop-color="#D3ECFE"/><stop offset=".6" stop-color="#C7DDFE"/><stop offset=".73" stop-color="#B8C8FE"/><stop offset=".86" stop-color="#A4ACFF"/><stop offset=".98" stop-color="#8B8BFF"/><stop offset="1" stop-color="#8785FF"/></linearGradient><linearGradient id="y" x1="210.368" x2="198.645" y1="38.126" y2="22.024" gradientUnits="userSpaceOnUse"><stop/><stop offset=".62" stop-color="#363600"/><stop offset="1" stop-color="#525300"/></linearGradient><linearGradient id="z" x1="36.01" x2="15.213" y1="62.678" y2="94.335" gradientUnits="userSpaceOnUse"><stop offset=".01" stop-color="#187447"/><stop offset=".34" stop-color="#33832F"/><stop offset=".76" stop-color="#4F9216"/><stop offset="1" stop-color="#59980D"/></linearGradient><linearGradient id="A" x1="44.215" x2="-16.157" y1="61.488" y2="122.233" gradientUnits="userSpaceOnUse"><stop stop-color="#806EEE"/><stop offset=".24" stop-color="#A095F1"/><stop offset=".59" stop-color="#CAC6F5"/><stop offset=".85" stop-color="#E3E5F8"/><stop offset="1" stop-color="#EDF1F9"/></linearGradient><linearGradient id="B" x1="-8.853" x2="55.098" y1="112.751" y2="59.195" gradientUnits="userSpaceOnUse"><stop stop-color="#DBF8FE"/><stop offset=".27" stop-color="#D9F5FE"/><stop offset=".44" stop-color="#D3ECFE"/><stop offset=".6" stop-color="#C7DDFE"/><stop offset=".73" stop-color="#B8C8FE"/><stop offset=".86" stop-color="#A4ACFF"/><stop offset=".98" stop-color="#8B8BFF"/><stop offset="1" stop-color="#8785FF"/></linearGradient><linearGradient id="C" x1="178.953" x2="201.019" y1="69.189" y2="94.208" gradientUnits="userSpaceOnUse"><stop offset=".01" stop-color="#187447"/><stop offset=".34" stop-color="#33832F"/><stop offset=".76" stop-color="#4F9216"/><stop offset="1" stop-color="#59980D"/></linearGradient><linearGradient id="D" x1="189.792" x2="189.792" y1="60.026" y2="101.648" gradientUnits="userSpaceOnUse"><stop stop-color="#806EEE"/><stop offset=".24" stop-color="#A095F1"/><stop offset=".59" stop-color="#CAC6F5"/><stop offset=".85" stop-color="#E3E5F8"/><stop offset="1" stop-color="#EDF1F9"/></linearGradient><linearGradient id="E" x1="202.994" x2="179.19" y1="164.904" y2="53.281" gradientUnits="userSpaceOnUse"><stop stop-color="#DBF8FE"/><stop offset=".27" stop-color="#D9F5FE"/><stop offset=".44" stop-color="#D3ECFE"/><stop offset=".6" stop-color="#C7DDFE"/><stop offset=".73" stop-color="#B8C8FE"/><stop offset=".86" stop-color="#A4ACFF"/><stop offset=".98" stop-color="#8B8BFF"/><stop offset="1" stop-color="#8785FF"/></linearGradient><linearGradient id="F" x1="109.611" x2="109.611" y1="22.246" y2="92.432" gradientUnits="userSpaceOnUse"><stop stop-color="#400D3C"/><stop offset="1" stop-color="#5C0049"/></linearGradient><linearGradient id="G" x1="109.611" x2="109.611" y1="-25.555" y2="125.741" gradientUnits="userSpaceOnUse"><stop stop-color="#FF682B"/><stop offset="1" stop-color="#6E0025"/></linearGradient><linearGradient id="H" x1="144.267" x2="144.267" y1="75.542" y2="85.515" gradientUnits="userSpaceOnUse"><stop stop-color="#400D3C"/><stop offset="1" stop-color="#5C0049"/></linearGradient><linearGradient id="I" x1="109.611" x2="109.611" y1="11.395" y2="66.578" gradientUnits="userSpaceOnUse"><stop stop-color="#75186E"/><stop offset="1" stop-color="#8C006F"/></linearGradient><linearGradient id="J" x1="48.844" x2="48.844" y1="67.668" y2="23.827" gradientUnits="userSpaceOnUse"><stop stop-color="#FFB5F4"/><stop offset=".36" stop-color="#FECEF6"/><stop offset=".74" stop-color="#FCE3F8"/><stop offset="1" stop-color="#FCEAF9"/></linearGradient><linearGradient id="K" x1="66.894" x2="66.894" y1="67.668" y2="23.827" gradientUnits="userSpaceOnUse"><stop stop-color="#FFB5F4"/><stop offset=".36" stop-color="#FECEF6"/><stop offset=".74" stop-color="#FCE3F8"/><stop offset="1" stop-color="#FCEAF9"/></linearGradient><linearGradient id="L" x1="85.582" x2="85.582" y1="67.674" y2="23.827" gradientUnits="userSpaceOnUse"><stop stop-color="#FFB5F4"/><stop offset=".36" stop-color="#FECEF6"/><stop offset=".74" stop-color="#FCE3F8"/><stop offset="1" stop-color="#FCEAF9"/></linearGradient><linearGradient id="M" x1="105.94" x2="105.94" y1="67.668" y2="23.827" gradientUnits="userSpaceOnUse"><stop stop-color="#FFB5F4"/><stop offset=".36" stop-color="#FECEF6"/><stop offset=".74" stop-color="#FCE3F8"/><stop offset="1" stop-color="#FCEAF9"/></linearGradient><linearGradient id="N" x1="127.155" x2="127.155" y1="67.668" y2="23.827" gradientUnits="userSpaceOnUse"><stop stop-color="#FFB5F4"/><stop offset=".36" stop-color="#FECEF6"/><stop offset=".74" stop-color="#FCE3F8"/><stop offset="1" stop-color="#FCEAF9"/></linearGradient><linearGradient id="O" x1="149.864" x2="149.864" y1="67.668" y2="23.827" gradientUnits="userSpaceOnUse"><stop stop-color="#FFB5F4"/><stop offset=".36" stop-color="#FECEF6"/><stop offset=".74" stop-color="#FCE3F8"/><stop offset="1" stop-color="#FCEAF9"/></linearGradient><linearGradient id="P" x1="171.154" x2="171.154" y1="67.668" y2="23.827" gradientUnits="userSpaceOnUse"><stop stop-color="#FFB5F4"/><stop offset=".36" stop-color="#FECEF6"/><stop offset=".74" stop-color="#FCE3F8"/><stop offset="1" stop-color="#FCEAF9"/></linearGradient><linearGradient id="Q" x1="48.975" x2="48.961" y1="64.804" y2="68.784" gradientUnits="userSpaceOnUse"><stop stop-color="#75186E"/><stop offset="1" stop-color="#8C006F"/></linearGradient><linearGradient id="R" x1="84.763" x2="84.748" y1="45.708" y2="51.601" gradientUnits="userSpaceOnUse"><stop stop-color="#75186E"/><stop offset="1" stop-color="#8C006F"/></linearGradient><linearGradient id="S" x1="164.931" x2="164.917" y1="46.312" y2="52.957" gradientUnits="userSpaceOnUse"><stop stop-color="#75186E"/><stop offset="1" stop-color="#8C006F"/></linearGradient><radialGradient id="a" cx="0" cy="0" r="1" gradientTransform="matrix(104.411 0 0 64.2195 106.656 64.162)" gradientUnits="userSpaceOnUse"><stop stop-color="#2478FF"/><stop offset=".04" stop-color="#2271F1"/><stop offset=".25" stop-color="#184FA9"/><stop offset=".45" stop-color="#0F336D"/><stop offset=".63" stop-color="#091D3E"/><stop offset=".78" stop-color="#040D1C"/><stop offset=".91" stop-color="#010407"/><stop offset="1"/></radialGradient></defs></svg>