<svg xmlns="http://www.w3.org/2000/svg" width="31" height="32" viewBox="0 0 31 32" fill="none">
  <g clip-path="url(#clip0_1_3395)">
    <path style="mix-blend-mode:screen" opacity="0.5" d="M30.7023 19.2923C32.5782 10.9362 27.3249 2.64157 18.9688 0.765709C10.6127 -1.11015 2.31806 4.14312 0.442197 12.4992C-1.43366 20.8553 3.81961 29.15 12.1757 31.0258C20.5318 32.9017 28.8264 27.6484 30.7023 19.2923Z" fill="url(#paint0_radial_1_3395)"/>
    <path fill-rule="evenodd" clip-rule="evenodd" d="M18.9377 9.06714C21.2099 9.06714 23.4311 9.74093 25.3204 11.0033C27.2097 12.2657 28.6822 14.0599 29.5517 16.1592C30.4213 18.2585 30.6488 20.5684 30.2055 22.797C29.7622 25.0255 28.668 27.0726 27.0613 28.6793C25.4546 30.286 23.4076 31.3802 21.179 31.8235C18.9504 32.2668 16.6405 32.0392 14.5412 31.1697C12.442 30.3002 10.6477 28.8276 9.38533 26.9384C8.12295 25.0491 7.44916 22.8279 7.44916 20.5557C7.44916 17.5087 8.65955 14.5866 10.8141 12.4321C12.9686 10.2775 15.8907 9.06714 18.9377 9.06714Z" fill="url(#paint1_radial_1_3395)"/>
    <path style="mix-blend-mode:multiply" fill-rule="evenodd" clip-rule="evenodd" d="M18.9377 9.06714C21.2099 9.06714 23.4311 9.74093 25.3204 11.0033C27.2097 12.2657 28.6822 14.0599 29.5517 16.1592C30.4213 18.2585 30.6488 20.5684 30.2055 22.797C29.7622 25.0255 28.668 27.0726 27.0613 28.6793C25.4546 30.286 23.4076 31.3802 21.179 31.8235C18.9504 32.2668 16.6405 32.0392 14.5412 31.1697C12.442 30.3002 10.6477 28.8276 9.38533 26.9384C8.12295 25.0491 7.44916 22.8279 7.44916 20.5557C7.44916 17.5087 8.65955 14.5866 10.8141 12.4321C12.9686 10.2775 15.8907 9.06714 18.9377 9.06714Z" fill="url(#paint2_radial_1_3395)"/>
    <path style="mix-blend-mode:screen" opacity="0.4" fill-rule="evenodd" clip-rule="evenodd" d="M22.4726 11.9304C25.0619 14.5109 24.5229 19.2389 21.2707 22.4822C18.0186 25.7255 13.3171 26.2646 10.7189 23.6841C8.12077 21.1036 8.67752 16.3756 11.9208 13.1323C15.1641 9.88901 19.8744 9.34993 22.4726 11.9304Z" fill="url(#paint3_radial_1_3395)"/>
    <path style="mix-blend-mode:screen" opacity="0.75" fill-rule="evenodd" clip-rule="evenodd" d="M12.3715 13.6802C14.9432 11.1086 18.6195 10.6048 20.5814 12.5844C22.5433 14.564 22.0573 18.2226 19.4856 20.7943C16.9139 23.3659 13.2376 23.8608 11.2757 21.8901C9.31382 19.9194 9.7822 16.243 12.3715 13.6802Z" fill="url(#paint4_radial_1_3395)"/>
    <path style="mix-blend-mode:screen" fill-rule="evenodd" clip-rule="evenodd" d="M27.4569 14.5993C28.5104 16.2743 29.0653 18.2146 29.0564 20.1933C29.0478 21.9662 28.5948 23.7086 27.7389 25.2612C26.883 26.8137 25.6516 28.127 24.1571 29.0808C22.6627 30.0346 20.953 30.5985 19.1843 30.721C17.4157 30.8435 15.6446 30.5206 14.033 29.7818C16.0933 30.2781 18.2535 30.1637 20.25 29.4527C22.2464 28.7418 23.9926 27.465 25.2756 25.7781C26.5585 24.0913 27.3225 22.0675 27.4745 19.9537C27.6265 17.8399 27.1597 15.7276 26.1313 13.8746C25.7866 13.256 27.015 13.8746 27.4215 14.5728L27.4569 14.5993Z" fill="url(#paint5_radial_1_3395)"/>
    <path style="mix-blend-mode:screen" fill-rule="evenodd" clip-rule="evenodd" d="M18.9377 9.06714C21.2099 9.06714 23.4311 9.74093 25.3204 11.0033C27.2097 12.2657 28.6822 14.0599 29.5517 16.1592C30.4213 18.2585 30.6488 20.5684 30.2055 22.797C29.7622 25.0255 28.668 27.0726 27.0613 28.6793C25.4546 30.286 23.4076 31.3802 21.179 31.8235C18.9504 32.2668 16.6405 32.0392 14.5412 31.1697C12.442 30.3002 10.6477 28.8276 9.38533 26.9384C8.12295 25.0491 7.44916 22.8279 7.44916 20.5557C7.44916 17.5087 8.65955 14.5866 10.8141 12.4321C12.9686 10.2775 15.8907 9.06714 18.9377 9.06714Z" fill="url(#paint6_radial_1_3395)"/>
    <path fill-rule="evenodd" clip-rule="evenodd" d="M23.0824 6.24799L29.2685 9.78292L27.1034 12.8937C26.8382 13.3532 25.3359 12.9997 23.8247 12.1071C22.3135 11.2146 21.2089 10.1364 21.474 9.72106L23.0824 6.29217V6.24799Z" fill="url(#paint7_radial_1_3395)"/>
    <path fill-rule="evenodd" clip-rule="evenodd" d="M26.6881 7.1141C28.3937 8.09504 29.5337 9.29692 29.242 9.7653C28.9504 10.2337 27.3332 9.88018 25.6364 8.88156C23.9396 7.88294 22.7908 6.69874 23.0824 6.23036C23.3741 5.76198 24.9913 6.11548 26.6881 7.1141Z" fill="url(#paint8_radial_1_3395)"/>
    <g style="mix-blend-mode:multiply" opacity="0.5">
      <path fill-rule="evenodd" clip-rule="evenodd" d="M21.7303 10.4811L23.374 7.13172C23.1001 6.78706 22.9852 6.49543 23.0647 6.24799L21.474 9.72106V9.76525C21.4121 9.95083 21.5182 10.216 21.7568 10.5253L21.7303 10.4811Z" fill="#1181C7"/>
    </g>
    <path style="mix-blend-mode:screen" fill-rule="evenodd" clip-rule="evenodd" d="M23.922 7.71499L22.2429 11.0113C22.558 11.3 22.8981 11.5603 23.2592 11.789L25.0266 8.57221C24.6336 8.30621 24.2614 8.01078 23.9131 7.68848L23.922 7.71499Z" fill="url(#paint9_radial_1_3395)"/>
    <path style="mix-blend-mode:screen" opacity="0.6" fill-rule="evenodd" clip-rule="evenodd" d="M27.5453 9.80945C26.8736 10.8434 26.202 11.8774 25.5392 12.9202C26.3257 13.1676 26.9178 13.1853 27.0769 12.9202L29.2244 9.8448C29.0123 10.1011 28.3406 10.0657 27.5541 9.8448L27.5453 9.80945Z" fill="url(#paint10_linear_1_3395)"/>
    <path d="M26.635 8.29826C26.4494 8.46617 25.8132 8.29826 25.6629 7.86523C25.5127 7.4322 25.9899 6.93731 26.2197 6.75172C26.3799 6.15164 26.6366 5.58157 26.9797 5.06379C26.9151 4.50024 26.991 3.92947 27.2006 3.40237C26.9698 2.81887 26.8819 2.1886 26.9443 1.56421C26.8545 1.44311 26.7929 1.30339 26.7643 1.15535C26.7356 1.00731 26.7405 0.854722 26.7787 0.70884C26.8169 0.562958 26.8873 0.427505 26.9848 0.31247C27.0823 0.197434 27.2044 0.105752 27.342 0.0441829C27.4456 0.00288355 27.5572 -0.014264 27.6684 -0.00595648C27.7796 0.00235104 27.8874 0.035895 27.9837 0.0921259C28.0799 0.148357 28.1621 0.225795 28.224 0.318555C28.2858 0.411315 28.3257 0.516955 28.3406 0.627447C28.6686 1.24813 28.7982 1.95452 28.7118 2.6512C28.8162 3.29676 28.7616 3.95805 28.5527 4.57774C28.4996 5.22622 28.2805 5.85011 27.9164 6.38939C27.6625 7.12121 27.2206 7.77341 26.635 8.28058V8.29826Z" fill="url(#paint11_radial_1_3395)"/>
    <g style="mix-blend-mode:multiply">
      <path fill-rule="evenodd" clip-rule="evenodd" d="M28.155 2.79262C28.8973 2.88983 28.4643 4.40101 27.6248 4.72799C28.8532 4.72799 27.9252 6.20383 27.1564 6.40709C27.8987 6.88431 26.7322 8.36014 25.6894 7.95362C25.9103 8.27177 26.4406 8.41317 26.5731 8.26293C27.1587 7.75575 27.6006 7.10356 27.8545 6.37174C28.2115 5.84529 28.4304 5.23748 28.4908 4.60427C28.7249 3.98155 28.8008 3.31049 28.7118 2.65122C28.7981 1.95455 28.6686 1.24815 28.3406 0.62747C28.3142 0.437884 28.214 0.266423 28.0616 0.150521C27.9093 0.0346196 27.7173 -0.0163084 27.5276 0.0088564C27.8987 0.0707178 28.0931 0.388862 27.8545 0.804217C28.5969 0.804217 28.6587 2.2447 28.1638 2.79262H28.155Z" fill="#CBBBA0"/>
    </g>
    <path style="mix-blend-mode:screen" fill-rule="evenodd" clip-rule="evenodd" d="M27.0681 0.335856C26.8471 0.583302 26.7499 1.14005 26.9267 1.30796C26.9515 1.32468 26.9807 1.33361 27.0106 1.33361C27.0405 1.33361 27.0698 1.32468 27.0946 1.30796C27.3793 1.07698 27.5936 0.770825 27.7132 0.42423C27.8192 -0.0618239 27.3067 0.0265495 27.0681 0.300507V0.335856ZM27.6955 1.14005L27.1741 1.60843C27.1009 1.69748 27.0521 1.80409 27.0327 1.91774C27.0131 2.21376 27.034 2.51107 27.0946 2.80147C27.1476 3.08427 27.2978 3.24334 27.5011 3.10194C27.8844 2.88405 28.1808 2.54074 28.3406 2.12984C28.3794 1.88391 28.3794 1.63343 28.3406 1.3875C28.2876 0.963307 28.0137 0.874934 27.6955 1.14005ZM27.9164 3.08427C27.7294 3.17414 27.5542 3.28695 27.395 3.42009C27.1653 3.64102 26.9443 4.51592 27.0946 4.68383C27.1246 4.69933 27.158 4.70742 27.1918 4.70742C27.2256 4.70742 27.2589 4.69933 27.289 4.68383C27.5469 4.61033 27.7805 4.46912 27.9654 4.27487C28.1503 4.08062 28.2799 3.8404 28.3406 3.57916C28.4467 3.18148 28.4113 2.81915 27.9164 3.08427ZM27.8016 4.85174C27.6262 4.87615 27.4575 4.9357 27.3057 5.02681C27.1538 5.11791 27.0219 5.23871 26.9178 5.38198C26.7345 5.65985 26.5804 5.95602 26.4583 6.26571C26.4202 6.34597 26.3992 6.43322 26.3964 6.52199C26.3964 6.59269 26.5025 6.58385 26.635 6.52199C26.9412 6.40273 27.2369 6.25787 27.5188 6.08896C27.8281 5.86803 28.2434 5.34663 28.0667 4.94895C28.042 4.90792 28.0069 4.87409 27.9651 4.85083C27.9232 4.82757 27.876 4.8157 27.8281 4.81639L27.8016 4.85174ZM26.9178 6.6192C26.6619 6.64123 26.4176 6.73619 26.214 6.89282C26.0103 7.04946 25.8559 7.2612 25.769 7.50294C25.769 7.55596 25.7248 7.65317 25.769 7.69736C26.0606 7.90062 26.962 7.34386 27.1564 6.9727C27.2625 6.76944 27.1564 6.61037 26.909 6.62804L26.9178 6.6192Z" fill="url(#paint12_radial_1_3395)"/>
    <path style="mix-blend-mode:screen" opacity="0.35" fill-rule="evenodd" clip-rule="evenodd" d="M13.9181 13.0086C15.8888 11.7272 18.2837 11.9127 19.2647 13.4239C20.2456 14.9351 19.4326 17.1975 17.4972 18.4789C15.5618 19.7603 13.0785 19.5659 12.1418 18.0547C11.205 16.5435 11.9739 14.2811 13.9093 13.0086H13.9181Z" fill="url(#paint13_radial_1_3395)"/>
  </g>
  <defs>

    <radialGradient id="paint1_radial_1_3395" cx="0" cy="0" r="1" gradientUnits="userSpaceOnUse" gradientTransform="translate(16.4191 13.9188) scale(18.0635 18.0635)">
      <stop stop-color="#4D6187"/>
      <stop offset="0.88" stop-color="#0F2036"/>
    </radialGradient>
    <radialGradient id="paint2_radial_1_3395" cx="0" cy="0" r="1" gradientUnits="userSpaceOnUse" gradientTransform="translate(19.0968 24.8683) scale(20.9003 20.9003)">
      <stop offset="0.54" stop-color="white"/>
      <stop offset="0.58" stop-color="#EDEDED"/>
      <stop offset="0.68" stop-color="#BFBFBF"/>
      <stop offset="0.81" stop-color="#757575"/>
      <stop offset="0.98" stop-color="#101010"/>
      <stop offset="1"/>
    </radialGradient>
    <radialGradient id="paint3_radial_1_3395" cx="0" cy="0" r="1" gradientUnits="userSpaceOnUse" gradientTransform="translate(13.326 10.8523) scale(15.4919)">
      <stop stop-color="#312169"/>
      <stop offset="1"/>
    </radialGradient>
    <radialGradient id="paint4_radial_1_3395" cx="0" cy="0" r="1" gradientUnits="userSpaceOnUse" gradientTransform="translate(10.5157 9.8183) scale(19.3361 19.3361)">
      <stop stop-color="#232C69"/>
      <stop offset="1"/>
    </radialGradient>
    <radialGradient id="paint5_radial_1_3395" cx="0" cy="0" r="1" gradientUnits="userSpaceOnUse" gradientTransform="translate(18.2484 13.1146) scale(17.7807)">
      <stop stop-color="#232C69"/>
      <stop offset="1"/>
    </radialGradient>
    <radialGradient id="paint6_radial_1_3395" cx="0" cy="0" r="1" gradientUnits="userSpaceOnUse" gradientTransform="translate(18.0186 19.5129) scale(13.3709 13.3709)">
      <stop offset="0.83"/>
      <stop offset="0.85" stop-color="#000812"/>
      <stop offset="0.9" stop-color="#001C40"/>
      <stop offset="0.96" stop-color="#003B89"/>
      <stop offset="1" stop-color="#0052BD"/>
    </radialGradient>
    <radialGradient id="paint7_radial_1_3395" cx="0" cy="0" r="1" gradientUnits="userSpaceOnUse" gradientTransform="translate(24.9824 7.13172) scale(8.8285)">
      <stop stop-color="#4D6187"/>
      <stop offset="0.86" stop-color="#0F2036"/>
    </radialGradient>
    <radialGradient id="paint8_radial_1_3395" cx="0" cy="0" r="1" gradientUnits="userSpaceOnUse" gradientTransform="translate(22.9499 8.60761) scale(9.65921)">
      <stop stop-color="#374969"/>
      <stop offset="0.86" stop-color="#141B24"/>
    </radialGradient>
    <radialGradient id="paint9_radial_1_3395" cx="0" cy="0" r="1" gradientUnits="userSpaceOnUse" gradientTransform="translate(22.2252 6.49544) scale(7.27313 7.27313)">
      <stop stop-color="#232C69"/>
      <stop offset="1"/>
    </radialGradient>
    <linearGradient id="paint10_linear_1_3395" x1="26.0252" y1="10.4369" x2="27.8811" y2="11.736" gradientUnits="userSpaceOnUse">
      <stop offset="0.17"/>
      <stop offset="0.28" stop-color="#000812"/>
      <stop offset="0.5" stop-color="#001C40"/>
      <stop offset="0.8" stop-color="#003B89"/>
      <stop offset="1" stop-color="#0052BD"/>
    </linearGradient>
    <radialGradient id="paint11_radial_1_3395" cx="0" cy="0" r="1" gradientUnits="userSpaceOnUse" gradientTransform="translate(26.0341 0.406514) scale(8.84617 8.84618)">
      <stop stop-color="#AD8550"/>
      <stop offset="0.37" stop-color="#96723E"/>
      <stop offset="1" stop-color="#664918"/>
    </radialGradient>
    <radialGradient id="paint12_radial_1_3395" cx="0" cy="0" r="1" gradientUnits="userSpaceOnUse" gradientTransform="translate(25.4155 3.77358) scale(4.35681)">
      <stop offset="0.35" stop-color="#B17F4A"/>
      <stop offset="1"/>
    </radialGradient>
    <radialGradient id="paint13_radial_1_3395" cx="0" cy="0" r="1" gradientUnits="userSpaceOnUse" gradientTransform="translate(10.9103 7.30069) rotate(12.08) scale(13.5918)">
      <stop stop-color="#636BA3"/>
      <stop offset="1"/>
    </radialGradient>
    <clipPath id="clip0_1_3395">
      <rect width="30.8777" height="32" fill="white" transform="translate(0.0611572)"/>
    </clipPath>
  </defs>
</svg>