<svg xmlns="http://www.w3.org/2000/svg" width="29" height="32" viewBox="0 0 29 32" fill="none">
  <g clip-path="url(#clip0_1_3480)">
    <path style="mix-blend-mode:screen" opacity="0.5" d="M28.5833 16.5462C29.8456 8.76975 24.5648 1.44237 16.7884 0.180068C9.01188 -1.08223 1.6845 4.19855 0.422195 11.975C-0.840106 19.7515 4.44068 27.0789 12.2172 28.3412C19.9936 29.6035 27.321 24.3227 28.5833 16.5462Z" fill="url(#paint0_radial_1_3480)"/>
    <path fill-rule="evenodd" clip-rule="evenodd" d="M14.4999 28.5787L6.82451 24.1449C6.30074 24.4296 5.90833 24.9069 5.73036 25.4759C5.69388 25.6371 5.69388 25.8045 5.73036 25.9658C5.77327 26.1507 5.85697 26.3236 5.97532 26.472C6.0809 26.5756 6.21417 26.6465 6.35909 26.6762C6.32251 26.807 6.32251 26.9454 6.35909 27.0763C6.43196 27.3415 6.55381 27.5907 6.71836 27.8111C6.86997 27.9948 7.06703 28.1356 7.28994 28.2194C7.33207 28.3727 7.40732 28.5148 7.5104 28.6358C7.82179 28.966 8.18606 29.242 8.58823 29.4524C8.68382 29.483 8.78659 29.483 8.88218 29.4524C8.92205 29.5469 8.98699 29.6288 9.06998 29.6892C9.44583 29.9349 9.85966 30.117 10.2948 30.2281C10.4509 30.2609 10.6122 30.2609 10.7684 30.2281C10.9506 30.3797 11.1709 30.4785 11.4053 30.5139C11.6787 30.5441 11.9553 30.5247 12.2218 30.4567C12.3516 30.4159 12.4657 30.3361 12.5484 30.2281C12.6481 30.336 12.7751 30.4149 12.9159 30.4567C13.105 30.4807 13.2971 30.464 13.4793 30.4077C13.6377 30.3705 13.7857 30.298 13.912 30.1954C14.3194 29.7511 14.5364 29.1648 14.5163 28.5624L14.4999 28.5787Z" fill="url(#paint1_radial_1_3480)"/>
    <path fill-rule="evenodd" clip-rule="evenodd" d="M9.85384 27.7622C8.50609 27.1025 7.44608 25.9728 6.87349 24.5858C6.76755 24.2902 6.76755 23.967 6.87349 23.6713C7.02047 23.3121 7.40424 23.0998 7.6247 22.7731C7.81244 22.5107 7.90291 22.1911 7.88056 21.8693C7.85821 21.5474 7.72443 21.2434 7.50222 21.0094C7.2001 20.6583 6.11411 20.5195 5.68951 20.0622C5.41417 19.7446 5.22522 19.3613 5.14084 18.9495C5.05647 18.5376 5.07951 18.111 5.20776 17.7106C5.55887 16.494 7.45323 14.273 7.65736 13.7504C8.01047 12.8187 8.19569 11.8318 8.20444 10.8354C8.4313 9.60578 8.93424 8.44368 9.67537 7.43664C10.4165 6.42959 11.3765 5.60387 12.4831 5.02168C13.4756 4.54348 14.5459 4.24754 15.6431 4.14798C18.0731 3.75367 20.5627 4.28072 22.6244 5.62591C24.8207 6.74026 26.5235 8.63227 27.4012 10.9334C27.8585 11.9357 28.135 13.0111 28.2177 14.1097C28.2607 15.3525 28.024 16.5891 27.5251 17.7282C27.0262 18.8673 26.2779 19.8798 25.3353 20.691C24.478 21.1944 23.7198 21.8503 23.098 22.6262C22.7633 23.0834 21.7834 25.8351 20.9097 26.7088C20.628 27.0218 20.2703 27.2568 19.8713 27.3913C19.4722 27.5257 19.0453 27.555 18.6316 27.4764C18.0274 27.3376 17.3578 26.4639 16.9005 26.3822C16.5873 26.3068 16.2577 26.3421 15.9675 26.482C15.6773 26.6219 15.4444 26.8578 15.3083 27.1498C15.1368 27.5009 15.1532 27.9663 14.9164 28.2603C14.7016 28.495 14.4139 28.6504 14.0998 28.7012C12.6174 28.9151 11.1078 28.5812 9.85384 27.7622Z" fill="url(#paint2_radial_1_3480)"/>
    <path fill-rule="evenodd" clip-rule="evenodd" d="M14.7694 14.5915C14.4642 14.1066 14.054 13.6964 13.5691 13.3912C10.9562 11.6438 9.09451 12.8849 8.66991 15.359C8.3188 17.3105 10.997 18.3149 12.6464 17.9638C14.157 17.678 15.7003 16.1837 14.7694 14.5588V14.5915Z" fill="url(#paint3_radial_1_3480)"/>
    <path fill-rule="evenodd" clip-rule="evenodd" d="M18.7786 16.9022C19.3501 16.9251 19.9088 17.0787 20.4116 17.3513C23.2369 18.7313 23.0817 20.9686 21.1629 22.5771C19.6441 23.8509 17.4395 22.0301 16.8842 20.4541C16.329 18.8782 16.8842 16.9104 18.7704 16.9022H18.7786Z" fill="url(#paint4_radial_1_3480)"/>
    <path style="mix-blend-mode:screen" opacity="0.5" fill-rule="evenodd" clip-rule="evenodd" d="M9.32311 11.7826C9.27412 12.1664 9.38027 12.8441 9.8212 12.5991C10.5035 12.217 11.3003 12.0925 12.0667 12.248C12.7521 12.4314 13.3941 12.7497 13.9549 13.1844C14.5158 13.619 14.9842 14.1613 15.3328 14.7793C15.3837 14.8811 15.4664 14.9635 15.5684 15.0139C15.6704 15.0644 15.786 15.0803 15.8978 15.059C16.0096 15.0378 16.1114 14.9806 16.1878 14.8962C16.2641 14.8118 16.3108 14.7048 16.3208 14.5915C16.3208 12.9584 13.7324 10.7619 12.328 10.2802C11.3808 9.96171 9.53541 10.5496 9.35577 11.7499L9.32311 11.7826Z" fill="url(#paint5_radial_1_3480)"/>
    <path style="mix-blend-mode:screen" opacity="0.5" fill-rule="evenodd" clip-rule="evenodd" d="M23.9146 20.2174C23.6206 20.4542 22.9674 20.6991 23.0001 20.1765C22.9634 19.3996 22.6507 18.6613 22.1182 18.0944C21.6169 17.5974 21.0213 17.2056 20.3665 16.942C19.7117 16.6784 19.0108 16.5483 18.305 16.5593C18.1929 16.561 18.0831 16.5272 17.9914 16.4627C17.8997 16.3982 17.8308 16.3064 17.7945 16.2003C17.7583 16.0942 17.7565 15.9794 17.7895 15.8722C17.8226 15.7651 17.8887 15.6712 17.9784 15.6039C19.3665 14.7874 22.5918 15.9306 23.6941 16.9104C24.4535 17.5718 24.8618 19.4661 23.9064 20.2174H23.9146Z" fill="url(#paint6_radial_1_3480)"/>
    <path style="mix-blend-mode:multiply" opacity="0.65" fill-rule="evenodd" clip-rule="evenodd" d="M13.2997 18.0046C13.0156 18.1218 12.7156 18.1962 12.4096 18.225C11.7601 18.2927 11.1037 18.215 10.4879 17.9975C9.87214 17.78 9.31249 17.4282 8.84955 16.9676C8.68985 16.7465 8.55047 16.5115 8.43311 16.2654C8.03301 15.7264 7.66557 16.494 7.61658 16.8941C7.64774 17.2088 7.75462 17.5114 7.92809 17.7758C8.10156 18.0403 8.33647 18.2589 8.61275 18.4128C9.03381 18.712 9.51356 18.9183 10.0203 19.0182C10.527 19.1182 11.0492 19.1094 11.5523 18.9926C12.1678 18.9086 12.7612 18.7062 13.2997 18.3965C13.6508 18.0862 13.512 17.9066 13.2997 18.0046Z" fill="url(#paint7_radial_1_3480)"/>
    <path style="mix-blend-mode:multiply" opacity="0.65" fill-rule="evenodd" clip-rule="evenodd" d="M16.5658 19.9071C16.61 20.2121 16.698 20.5091 16.8271 20.789C17.0919 21.3866 17.4877 21.9171 17.9852 22.3411C18.4827 22.7651 19.0692 23.0718 19.7013 23.2386C19.9729 23.2633 20.2462 23.2633 20.5178 23.2386C21.1792 23.3121 20.7056 24.0143 20.3708 24.2266C20.0834 24.3599 19.7674 24.42 19.4511 24.4015C19.1348 24.383 18.828 24.2864 18.5581 24.1204C18.0857 23.9133 17.6634 23.607 17.3197 23.2224C16.9759 22.8378 16.7188 22.3839 16.5658 21.8913C16.323 21.3152 16.2007 20.6955 16.2065 20.0704C16.2963 19.605 16.5249 19.6458 16.5576 19.9071H16.5658Z" fill="url(#paint8_radial_1_3480)"/>
    <path style="mix-blend-mode:screen" fill-rule="evenodd" clip-rule="evenodd" d="M11.7074 20.5113L15.1858 22.52C15.6668 21.3275 15.9002 20.0495 15.8717 18.7639C15.8717 18.47 15.8064 18.0291 15.5451 17.8821C15.2838 17.7351 14.8837 17.8821 14.6143 18.0372C13.4918 18.6519 12.5034 19.4847 11.7074 20.4868V20.5113Z" fill="url(#paint9_radial_1_3480)"/>
    <path fill-rule="evenodd" clip-rule="evenodd" d="M14.353 19.7356C14.3501 19.5852 14.3226 19.4362 14.2713 19.2947C14.2386 19.2407 14.1933 19.1955 14.1392 19.1628C14.0852 19.1301 14.0241 19.1109 13.9611 19.1069C13.2588 19.0008 12.426 19.7356 12.0095 20.1684C11.8003 20.3917 11.6066 20.629 11.4298 20.8788C10.997 21.4912 10.7357 22.5935 11.4298 23.2141C11.8871 23.6305 12.2463 23.2141 12.4668 22.8875C12.5893 22.7323 12.7526 22.4874 12.8342 22.3812C13.0465 22.1036 13.1527 22.1608 13.0139 22.4874C12.9649 22.6098 12.8261 22.8711 12.7608 23.0508C12.6056 23.4345 12.4096 23.9245 12.9975 24.1204C13.8712 24.4062 14.6959 23.6224 15.0144 22.9446C15.1428 22.6667 15.252 22.3802 15.341 22.0873C15.5043 21.5075 15.7248 20.4542 15.2838 19.8663C15.2484 19.8137 15.2011 19.77 15.1459 19.7388C15.0906 19.7076 15.0288 19.6898 14.9654 19.6867C14.8162 19.7142 14.6727 19.7667 14.5408 19.8418C14.522 19.8467 14.5025 19.8478 14.4833 19.8451C14.4641 19.8425 14.4456 19.836 14.4289 19.8261C14.4122 19.8163 14.3976 19.8032 14.386 19.7877C14.3744 19.7721 14.3659 19.7544 14.3612 19.7356H14.353Z" fill="url(#paint10_radial_1_3480)"/>
    <path style="mix-blend-mode:screen" opacity="0.5" fill-rule="evenodd" clip-rule="evenodd" d="M11.5114 15.1631C10.2295 14.7548 8.67806 14.9426 8.65356 15.9796C8.89036 17.531 11.1767 18.2985 12.6464 18.0209C13.052 17.9432 13.4396 17.7909 13.7896 17.5718C13.8681 17.5144 13.9339 17.4412 13.9827 17.357C14.0315 17.2728 14.0622 17.1793 14.073 17.0826C14.0837 16.9858 14.0742 16.8879 14.0451 16.795C14.016 16.7021 13.9679 16.6163 13.9039 16.543C13.2249 15.9082 12.405 15.4436 11.5114 15.1876V15.1631Z" fill="url(#paint11_radial_1_3480)"/>
    <path style="mix-blend-mode:screen" opacity="0.5" fill-rule="evenodd" clip-rule="evenodd" d="M19.9136 20.0214C20.9097 20.9196 21.5466 22.3567 20.6566 22.8875C19.195 23.459 17.3905 21.8668 16.8924 20.4379C16.7588 20.0467 16.6979 19.6343 16.7128 19.2212C16.7224 19.1258 16.7518 19.0335 16.799 18.95C16.8461 18.8665 16.9101 18.7936 16.9868 18.7361C17.0635 18.6786 17.1514 18.6375 17.2447 18.6156C17.3381 18.5937 17.435 18.5914 17.5293 18.6088C18.4193 18.8774 19.2315 19.3563 19.8972 20.0051L19.9136 20.0214Z" fill="url(#paint12_radial_1_3480)"/>
    <path style="mix-blend-mode:multiply" fill-rule="evenodd" clip-rule="evenodd" d="M8.58009 21.6463C8.69283 20.8869 8.72021 20.1173 8.66174 19.3518C8.66174 19.2212 8.42495 19.0497 8.31063 19.1314C8.03301 19.3355 7.92686 19.8009 7.6819 20.1031C7.26547 20.6093 5.54258 20.1439 5.52625 18.8374C5.51537 18.3623 5.6015 17.89 5.77937 17.4493C6.4326 15.8162 7.14299 15.5795 8.22898 14.4526C8.54406 14.1168 8.71673 13.672 8.71073 13.2115C8.75973 12.7216 8.71073 12.2317 8.76789 11.7417C8.69702 10.3387 9.13159 8.95681 9.99269 7.84687C10.7661 6.74786 11.7784 5.83828 12.9536 5.18635C14.1287 4.53443 15.4363 4.15709 16.7781 4.08264C16.4188 4.08264 16.0351 4.08264 15.6349 4.17246C14.5421 4.26527 13.4747 4.55287 12.4831 5.02166C11.384 5.60419 10.4306 6.42736 9.69399 7.42976C8.95738 8.43217 8.45659 9.58794 8.22898 10.8109C8.22023 11.8073 8.035 12.7942 7.6819 13.7259C7.4451 14.2485 5.55074 16.4695 5.2323 17.6861C5.10405 18.0865 5.08101 18.5131 5.16538 18.925C5.24975 19.3368 5.4387 19.72 5.71405 20.0377C6.13865 20.495 7.22464 20.6338 7.52676 20.9849C7.73931 21.2267 7.86124 21.5348 7.87167 21.8565C7.88209 22.1783 7.78037 22.4936 7.58392 22.7486C7.36345 23.0752 6.97968 23.2875 6.8327 23.6468C6.72676 23.9425 6.72676 24.2657 6.8327 24.5613C7.08309 25.2788 7.50989 25.9218 8.07384 26.4312C7.75633 26.1255 7.50818 25.7551 7.34618 25.3452C7.18417 24.9352 7.1121 24.4953 7.13482 24.0551C7.26547 23.4835 7.95136 23.1977 8.21265 22.814C8.40762 22.4514 8.53229 22.0552 8.58009 21.6463Z" fill="url(#paint13_radial_1_3480)"/>
    <path style="mix-blend-mode:multiply" fill-rule="evenodd" clip-rule="evenodd" d="M15.7493 25.7943C16.3467 25.3197 16.9959 24.9143 17.6845 24.5858C17.8151 24.5287 18.0682 24.6348 18.0519 24.7736C18.0519 25.1084 17.6681 25.4432 17.5293 25.8025C17.3007 26.4149 18.5582 27.6723 19.7013 27.0354C20.123 26.8095 20.495 26.5013 20.7955 26.1291C21.857 24.7573 21.7426 24.0061 22.1754 22.5118C22.3043 22.072 22.5964 21.6981 22.9919 21.4667C23.392 21.1809 23.8085 20.9523 24.2331 20.6501C25.4858 20.0148 26.4662 18.9474 26.993 17.6453C27.56 16.4233 27.8448 15.0894 27.8264 13.7424C27.8081 12.3954 27.4869 11.0698 26.8868 9.86371C27.0501 10.1903 27.2134 10.5333 27.3767 10.9007C27.8341 11.903 28.1105 12.9784 28.1933 14.077C28.2363 15.3198 27.9996 16.5564 27.5007 17.6955C27.0018 18.8346 26.2535 19.8471 25.3109 20.6583C24.4595 21.1739 23.7096 21.8408 23.0981 22.6261C22.7633 23.0834 21.7835 25.8351 20.9098 26.7088C20.628 27.0218 20.2704 27.2568 19.8713 27.3913C19.4723 27.5257 19.0453 27.555 18.6316 27.4764C18.0274 27.3376 17.3579 26.4639 16.9006 26.3822C16.5874 26.3068 16.2578 26.3421 15.9676 26.482C15.6774 26.6218 15.4445 26.8578 15.3084 27.1497C15.1369 27.5009 15.1532 27.9663 14.9164 28.2602C14.7017 28.495 14.4139 28.6503 14.0999 28.7012C13.3619 28.8471 12.5996 28.8106 11.8789 28.595C12.3031 28.7171 12.7486 28.7467 13.1853 28.6819C13.622 28.6171 14.0396 28.4594 14.4102 28.2194C14.8429 27.8111 14.7286 27.0518 14.9491 26.668C15.1619 26.3173 15.4389 26.0098 15.7656 25.7616L15.7493 25.7943Z" fill="url(#paint14_radial_1_3480)"/>
    <path style="mix-blend-mode:screen" fill-rule="evenodd" clip-rule="evenodd" d="M12.5729 5.83005C10.1886 7.30798 11.4053 8.90022 13.3486 9.91272C16.5238 11.8017 20.1044 12.9047 23.7921 13.1299C27.7605 13.383 26.65 9.32482 24.6086 7.59377C20.9832 4.5236 16.9414 3.09466 12.5811 5.79739L12.5729 5.83005Z" fill="url(#paint15_radial_1_3480)"/>
    <path style="mix-blend-mode:screen" fill-rule="evenodd" clip-rule="evenodd" d="M13.3568 7.44675C15.3818 9.07982 23.6043 9.24312 22.6816 6.89967C22.208 5.70753 19.1542 4.45007 17.4231 4.53988C14.9735 4.66236 11.6176 6.02598 13.3404 7.44675H13.3568Z" fill="url(#paint16_radial_1_3480)"/>
    <path style="mix-blend-mode:multiply" fill-rule="evenodd" clip-rule="evenodd" d="M11.046 21.4177C10.9514 21.681 10.8911 21.9555 10.8664 22.2342C10.8542 22.4457 10.8876 22.6573 10.9644 22.8548C11.2254 23.2958 11.5952 23.6624 12.0384 23.9197C12.4815 24.1771 12.9833 24.3164 13.4956 24.3245C13.7064 24.2888 13.9069 24.208 14.0835 24.0878C14.3251 23.9262 14.5423 23.731 14.7286 23.508C14.6737 23.6936 14.5725 23.8621 14.4347 23.9979C14.3203 24.1041 14.157 24.1612 14.0591 24.2837C13.9611 24.4062 13.8957 24.6348 13.7651 24.7736C13.6102 24.9225 13.4079 25.0121 13.1935 25.0268C12.6548 25.0405 12.1238 24.8957 11.6666 24.6103C11.1796 24.3687 10.7779 23.9841 10.5153 23.508C10.4596 23.4112 10.4243 23.3041 10.4117 23.1931C10.399 23.0821 10.4093 22.9698 10.4418 22.863C10.4908 22.6751 10.6541 22.5445 10.7113 22.3649C10.741 22.2082 10.7628 22.0501 10.7766 21.8913C10.82 21.7041 10.9131 21.532 11.046 21.3932V21.4177Z" fill="url(#paint17_radial_1_3480)"/>
    <path style="mix-blend-mode:screen" opacity="0.5" fill-rule="evenodd" clip-rule="evenodd" d="M14.1162 29.3952C14.0772 29.6309 13.9692 29.8496 13.8059 30.024C13.6701 30.1581 13.4981 30.2496 13.3109 30.2874C13.1238 30.3251 12.9297 30.3073 12.7526 30.2362C12.6968 30.2021 12.6509 30.1541 12.6194 30.0968C12.5879 30.0395 12.5719 29.975 12.5729 29.9096C12.5785 29.6563 12.634 29.4066 12.7362 29.1748C12.7655 29.108 12.8103 29.0492 12.8669 29.0033C13.1226 28.8302 13.4237 28.7365 13.7324 28.7338C14.1162 28.7338 14.1652 29.1176 14.1162 29.3952Z" fill="url(#paint18_radial_1_3480)"/>
    <path style="mix-blend-mode:screen" opacity="0.5" fill-rule="evenodd" clip-rule="evenodd" d="M12.3443 28.791C12.4305 28.8442 12.4921 28.9293 12.5158 29.0278C12.5811 29.2891 12.5566 30.1056 12.2871 30.3016C12.1023 30.39 11.9 30.4359 11.6952 30.4359C11.4903 30.4359 11.288 30.39 11.1032 30.3016C10.9399 30.2118 10.85 30.2117 10.85 29.975C10.8885 29.5183 11.0619 29.0835 11.3481 28.7257C11.3864 28.6738 11.4411 28.6364 11.5033 28.6195C11.6339 28.6195 11.6666 28.6685 11.8952 28.7012C12.1238 28.7338 12.2055 28.7012 12.328 28.791H12.3443Z" fill="url(#paint19_radial_1_3480)"/>
    <path style="mix-blend-mode:screen" opacity="0.5" fill-rule="evenodd" clip-rule="evenodd" d="M10.9725 28.3501C11.0355 28.3872 11.0842 28.4444 11.1109 28.5125C11.1375 28.5806 11.1406 28.6557 11.1195 28.7257C11.0786 28.9216 11.0052 29.1013 10.948 29.2891C10.8775 29.5339 10.7846 29.7717 10.6704 29.9995C10.5397 30.2036 10.2703 30.1628 10.0743 30.1056C9.74129 29.9983 9.42515 29.8443 9.13529 29.6484C9.07598 29.6017 9.03076 29.5395 9.00465 29.4687C8.98901 29.4266 8.98901 29.3802 9.00465 29.3381C9.16185 28.9054 9.38196 28.4982 9.65787 28.1296C9.71003 28.0442 9.79119 27.9804 9.8865 27.95C10.1233 27.8928 10.2376 28.0725 10.703 28.2439C10.8001 28.2744 10.8955 28.3098 10.9888 28.3501H10.9725Z" fill="url(#paint20_radial_1_3480)"/>
    <path style="mix-blend-mode:screen" opacity="0.5" fill-rule="evenodd" clip-rule="evenodd" d="M6.24482 24.8716C6.05755 25.0217 5.9231 25.2277 5.86104 25.4595C5.81296 25.6433 5.81981 25.8372 5.88077 26.0172C5.94172 26.1971 6.05409 26.3553 6.20399 26.472C6.26135 26.5042 6.32602 26.5211 6.39179 26.5211C6.45757 26.5211 6.52224 26.5042 6.57959 26.472C6.78981 26.3394 6.975 26.1708 7.12667 25.9739C7.17157 25.9105 7.20222 25.8381 7.21649 25.7616C7.23567 25.4541 7.16473 25.1476 7.01236 24.8798C6.83272 24.545 6.46528 24.7002 6.24482 24.8798V24.8716Z" fill="url(#paint21_radial_1_3480)"/>
    <path style="mix-blend-mode:screen" opacity="0.5" fill-rule="evenodd" clip-rule="evenodd" d="M7.68186 26.1291C7.6355 26.1088 7.58547 26.0984 7.53489 26.0984C7.4843 26.0984 7.43427 26.1088 7.38791 26.1291C7.13478 26.2026 6.44073 26.6353 6.3999 26.9456C6.41123 27.1505 6.4676 27.3504 6.56498 27.5311C6.66236 27.7117 6.79836 27.8687 6.96331 27.9908C7.13478 28.0806 7.23277 28.1296 7.39608 27.9908C7.76505 27.7232 8.04865 27.3545 8.21261 26.9293C8.23669 26.869 8.23669 26.8018 8.21261 26.7415C8.15545 26.6272 8.09829 26.6272 7.95132 26.4393C7.80434 26.2515 7.77985 26.1862 7.65737 26.1127L7.68186 26.1291Z" fill="url(#paint22_radial_1_3480)"/>
    <path style="mix-blend-mode:screen" opacity="0.5" fill-rule="evenodd" clip-rule="evenodd" d="M8.74341 27.0681C8.68076 27.0314 8.60722 27.0179 8.53561 27.0298C8.464 27.0417 8.39884 27.0784 8.35147 27.1334C8.20784 27.2649 8.07411 27.4068 7.95137 27.558C7.77488 27.7412 7.6163 27.9408 7.47778 28.1541C7.3553 28.3664 7.53493 28.5787 7.68191 28.7257C7.94122 28.9593 8.23269 29.1545 8.54744 29.3054C8.62 29.3219 8.69534 29.3219 8.7679 29.3054C8.80873 29.3054 8.84139 29.2564 8.87405 29.2238C9.16563 28.8661 9.40735 28.4706 9.5926 28.0479C9.62703 27.9558 9.62703 27.8543 9.5926 27.7622C9.52728 27.5254 9.31498 27.5172 8.94754 27.2314C8.87443 27.1593 8.7952 27.0938 8.71074 27.0354L8.74341 27.0681Z" fill="url(#paint23_radial_1_3480)"/>
    <path style="mix-blend-mode:screen" opacity="0.5" fill-rule="evenodd" clip-rule="evenodd" d="M13.2261 29.1176C13.3328 29.2527 13.3968 29.4165 13.4099 29.5881C13.423 29.7598 13.3846 29.9314 13.2996 30.0811C13.2725 30.1514 13.2239 30.2114 13.1608 30.2526C13.0962 30.2779 13.026 30.2859 12.9573 30.2759C12.8886 30.2659 12.8236 30.2381 12.7689 30.1954C12.7191 30.1507 12.6805 30.0949 12.6564 30.0324C12.6323 29.97 12.6233 29.9027 12.6301 29.8361C12.6206 29.5722 12.7077 29.3138 12.875 29.1094C12.898 29.0847 12.9258 29.065 12.9567 29.0515C12.9876 29.038 13.0209 29.031 13.0547 29.031C13.0884 29.031 13.1218 29.038 13.1527 29.0515C13.1836 29.065 13.2114 29.0847 13.2343 29.1094L13.2261 29.1176Z" fill="url(#paint24_radial_1_3480)"/>
    <path style="mix-blend-mode:screen" opacity="0.5" fill-rule="evenodd" clip-rule="evenodd" d="M11.8462 29.0196C11.9524 29.4116 11.9115 30.1546 11.5196 30.3588C11.3318 30.4567 10.9072 30.2444 10.8909 30.0811C10.9184 29.7094 11.0241 29.3477 11.2012 29.0196C11.2411 28.941 11.2935 28.8693 11.3563 28.8073C11.5604 28.6359 11.7809 28.8073 11.8462 29.0196Z" fill="url(#paint25_radial_1_3480)"/>
    <path style="mix-blend-mode:screen" opacity="0.5" fill-rule="evenodd" clip-rule="evenodd" d="M7.7962 26.5537C7.69005 26.9211 7.29811 27.4845 6.86535 27.4437C6.65305 27.4437 6.39993 27.0273 6.46525 26.8885C6.68181 26.6029 6.96121 26.371 7.28178 26.2107C7.35553 26.1703 7.43559 26.1427 7.51858 26.1291C7.77987 26.1291 7.89418 26.3332 7.82886 26.5537H7.7962Z" fill="url(#paint26_radial_1_3480)"/>
    <path style="mix-blend-mode:screen" opacity="0.5" fill-rule="evenodd" clip-rule="evenodd" d="M10.5398 28.2848C10.4957 28.8751 10.2863 29.441 9.93554 29.9178C9.8851 29.9341 9.83084 29.9341 9.7804 29.9178C9.5926 29.9178 9.06185 29.6239 9.03735 29.4279C9.16938 28.9407 9.41254 28.4907 9.74774 28.1133C9.79567 28.0609 9.8541 28.0192 9.91921 27.9908C10.0662 27.9336 10.499 28.1868 10.5398 28.2684V28.2848Z" fill="url(#paint27_radial_1_3480)"/>
    <path style="mix-blend-mode:screen" opacity="0.5" fill-rule="evenodd" clip-rule="evenodd" d="M8.59639 27.0763C8.12482 27.3715 7.73906 27.7854 7.47774 28.2766C7.47398 28.3351 7.49137 28.3931 7.52673 28.4399C7.62471 28.6032 8.04931 29.0605 8.22895 28.987C8.5921 28.6376 8.87129 28.2105 9.04548 27.7377C9.06142 27.665 9.06142 27.5898 9.04548 27.5172C9.04548 27.3621 8.62088 27.0681 8.53107 27.0763H8.59639Z" fill="url(#paint28_radial_1_3480)"/>
    <path style="mix-blend-mode:screen" opacity="0.5" fill-rule="evenodd" clip-rule="evenodd" d="M6.76737 24.7247C6.58315 24.7479 6.40908 24.8221 6.2648 24.9389C6.12052 25.0558 6.01178 25.2107 5.95083 25.3861C5.92744 25.4633 5.92744 25.5457 5.95083 25.6229C5.96815 25.6908 6.0054 25.752 6.05779 25.7985C6.11018 25.8451 6.1753 25.8749 6.24479 25.8841C6.31512 25.889 6.38561 25.8775 6.45077 25.8506C6.51593 25.8237 6.57398 25.7821 6.62039 25.729C6.83977 25.5381 6.98919 25.2795 7.04499 24.9941C7.04499 24.8471 6.9715 24.7165 6.81636 24.7247H6.76737Z" fill="url(#paint29_radial_1_3480)"/>
    <path fill-rule="evenodd" clip-rule="evenodd" d="M7.48591 20.9849C7.18379 20.6338 6.0978 20.495 5.6732 20.0377C5.46513 19.8007 5.30932 19.5225 5.21594 19.2212C5.2536 19.8259 5.40311 20.4184 5.65687 20.9686C5.74858 21.1654 5.86973 21.3471 6.01615 21.5075C6.41625 21.9403 7.41242 22.0954 7.7717 22.4057C7.86616 22.1611 7.88945 21.8949 7.83887 21.6377C7.7883 21.3804 7.66592 21.1428 7.48591 20.9522V20.9849Z" fill="url(#paint30_radial_1_3480)"/>
    <path fill-rule="evenodd" clip-rule="evenodd" d="M16.8842 26.4149C16.571 26.3395 16.2414 26.3747 15.9512 26.5146C15.661 26.6545 15.4281 26.8904 15.292 27.1824C15.1205 27.5335 15.1369 27.999 14.9001 28.2929C14.788 28.4226 14.6485 28.5257 14.4918 28.595C14.5026 29.1725 14.2889 29.7316 13.8957 30.1546C13.7693 30.2571 13.6214 30.3297 13.463 30.3669C13.2808 30.4232 13.0887 30.4399 12.8995 30.4159C12.7587 30.3741 12.6318 30.2951 12.5321 30.1873C12.4493 30.2953 12.3353 30.3751 12.2055 30.4159C11.939 30.4839 11.6624 30.5033 11.389 30.4731C11.1545 30.4377 10.9343 30.3389 10.7521 30.1873C10.5959 30.2201 10.4346 30.2201 10.2785 30.1873C9.84334 30.0762 9.42952 29.8941 9.05367 29.6484C8.97067 29.588 8.90573 29.5061 8.86587 29.4116C8.77027 29.4422 8.6675 29.4422 8.57191 29.4116C8.16975 29.2012 7.80548 28.9252 7.49409 28.595C7.39101 28.474 7.31575 28.3319 7.27362 28.1786C7.05071 28.0948 6.85365 27.954 6.70205 27.7703C6.5375 27.5499 6.41564 27.3007 6.34277 27.0354C6.30619 26.9046 6.30619 26.7662 6.34277 26.6353C6.19785 26.6057 6.06458 26.5348 5.959 26.4312C5.89981 26.337 5.85315 26.2354 5.82019 26.1291L6.05699 27.1988C6.06465 27.2792 6.08108 27.3586 6.10598 27.4355C6.14421 27.623 6.22525 27.799 6.34277 27.95C6.4499 28.0514 6.58253 28.122 6.72654 28.1541C6.69022 28.2822 6.69022 28.4179 6.72654 28.546C6.79773 28.8119 6.91973 29.0615 7.08582 29.2809C7.23473 29.4693 7.43241 29.6134 7.65739 29.6973C7.70285 29.8493 7.77776 29.9908 7.87786 30.1138C8.18655 30.447 8.55137 30.7234 8.95568 30.9303C9.04637 30.9763 9.14895 30.9934 9.24964 30.9793C9.29017 31.0758 9.35836 31.1582 9.44561 31.2161C9.81808 31.4627 10.2294 31.6448 10.6622 31.755C10.8184 31.7878 10.9797 31.7878 11.1358 31.755C11.3181 31.9066 11.5383 32.0055 11.7727 32.0408C12.0461 32.071 12.3227 32.0517 12.5893 31.9836C12.7175 31.9398 12.8308 31.8605 12.9159 31.755C13.0165 31.8599 13.1434 31.936 13.2833 31.9755C13.4717 32.0066 13.6648 31.9926 13.8467 31.9347C14.0076 31.8997 14.1566 31.8237 14.2795 31.7142C14.6722 31.2941 14.886 30.7377 14.8756 30.1628C15.0357 30.0955 15.1761 29.9887 15.2838 29.8525C15.5206 29.5504 15.5125 29.1013 15.6839 28.7502C15.8088 28.4488 16.0365 28.2014 16.3265 28.0519C16.6165 27.9024 16.9501 27.8605 17.268 27.9336C17.7253 28.0235 18.3948 28.8971 18.9991 29.0278C19.412 29.1074 19.8386 29.0794 20.2376 28.9464C20.6366 28.8134 20.9946 28.5799 21.2772 28.2684C22.1591 27.3621 23.1307 24.6103 23.4655 24.1449C24.0928 23.3704 24.8566 22.7173 25.7191 22.2179C26.6617 21.4067 27.4101 20.3942 27.9089 19.2551C28.4078 18.116 28.6445 16.8794 28.6015 15.6366C28.5537 14.9315 28.4194 14.2349 28.2014 13.5626C28.2014 13.7504 28.2014 13.9382 28.2586 14.126C28.3016 15.3688 28.0649 16.6054 27.566 17.7445C27.0671 18.8836 26.3188 19.8961 25.3762 20.7073C24.5056 21.2018 23.7334 21.8523 23.0981 22.6262C22.7633 23.0834 21.7834 25.8351 20.9098 26.7088C20.628 27.0218 20.2704 27.2568 19.8713 27.3913C19.4723 27.5257 19.0453 27.555 18.6316 27.4764C18.0274 27.3376 17.3578 26.4639 16.9006 26.3822L16.8842 26.4149Z" fill="url(#paint31_radial_1_3480)"/>
    <path style="mix-blend-mode:multiply" fill-rule="evenodd" clip-rule="evenodd" d="M15.6431 28.693C15.768 28.3916 15.9957 28.1442 16.2857 27.9947C16.5756 27.8452 16.9092 27.8033 17.2272 27.8765C17.3894 27.9228 17.5398 28.0036 17.6681 28.1133C17.1619 27.6887 16.9985 26.6517 17.3252 26.6027C17.1947 26.4981 17.0449 26.4204 16.8842 26.374C16.571 26.2986 16.2414 26.3339 15.9512 26.4738C15.661 26.6137 15.4281 26.8496 15.292 27.1416C15.7411 27.0844 15.9044 27.9989 15.6431 28.6522V28.693Z" fill="url(#paint32_radial_1_3480)"/>
    <path style="mix-blend-mode:screen" opacity="0.5" fill-rule="evenodd" clip-rule="evenodd" d="M18.8766 27.5499C19.4155 27.7867 19.8564 28.9135 19.2195 29.0523C19.5955 29.0765 19.972 29.0156 20.3212 28.8743C20.6703 28.7329 20.9832 28.5147 21.2364 28.2358C21.6623 27.7004 22.0139 27.1098 22.2815 26.4802C21.9958 26.8803 21.6773 25.7372 21.9386 24.9778C21.6642 25.6135 21.3013 26.2073 20.8608 26.7415C20.6072 27.0199 20.2943 27.2378 19.9452 27.3792C19.5962 27.5205 19.2198 27.5816 18.8439 27.558L18.8766 27.5499Z" fill="url(#paint33_radial_1_3480)"/>
    <path style="mix-blend-mode:multiply" fill-rule="evenodd" clip-rule="evenodd" d="M22.7715 23.2222C23.1798 23.3774 23.3022 24.3245 23.1144 24.7328C23.2032 24.5242 23.3069 24.3223 23.4247 24.1286C24.052 23.3541 24.8158 22.701 25.6783 22.2015C25.9482 21.9921 26.1995 21.7599 26.4296 21.5075C26.0785 21.5075 25.8662 20.4787 26.0866 20.0051C25.8544 20.2529 25.6033 20.4822 25.3354 20.691C24.478 21.1944 23.7198 21.8502 23.0981 22.6261C22.9799 22.8168 22.8762 23.016 22.7878 23.2222H22.7715Z" fill="url(#paint34_radial_1_3480)"/>
    <path fill-rule="evenodd" clip-rule="evenodd" d="M9.21697 30.9385L8.86586 29.3953C8.77027 29.4259 8.6675 29.4259 8.57191 29.3953C8.16975 29.1849 7.80548 28.9089 7.49409 28.5787C7.39101 28.4577 7.31575 28.3156 7.27362 28.1623L7.5839 29.6892C7.62936 29.8411 7.70427 29.9826 7.80437 30.1056C8.11306 30.4388 8.47788 30.7152 8.88219 30.9222C8.97288 30.9681 9.07546 30.9852 9.17615 30.9712L9.21697 30.9385Z" fill="url(#paint35_radial_1_3480)"/>
    <path fill-rule="evenodd" clip-rule="evenodd" d="M8.86584 29.3952L9.21695 30.9385C9.25749 31.035 9.32567 31.1174 9.41292 31.1752C9.7854 31.4218 10.1967 31.604 10.6296 31.7142C10.7857 31.747 10.947 31.747 11.1032 31.7142L10.752 30.2117C10.5959 30.2446 10.4346 30.2446 10.2785 30.2117C9.84332 30.1007 9.4295 29.9186 9.05365 29.6728C8.97065 29.6125 8.90571 29.5306 8.86584 29.436V29.3952Z" fill="url(#paint36_radial_1_3480)"/>
    <path fill-rule="evenodd" clip-rule="evenodd" d="M10.7521 30.2118L11.095 31.7224C11.2772 31.874 11.4975 31.9728 11.7319 32.0082C12.0053 32.0384 12.2819 32.019 12.5485 31.951C12.6767 31.9071 12.7899 31.8279 12.8751 31.7224L12.5321 30.2118C12.4494 30.3198 12.3353 30.3996 12.2055 30.4404C11.939 30.5084 11.6624 30.5278 11.389 30.4976C11.1546 30.4622 10.9343 30.3634 10.7521 30.2118Z" fill="url(#paint37_radial_1_3480)"/>
    <path fill-rule="evenodd" clip-rule="evenodd" d="M12.5321 30.2117L12.875 31.7223C12.9757 31.8272 13.1026 31.9033 13.2425 31.9428C13.4309 31.9739 13.624 31.9599 13.8059 31.902C13.9667 31.867 14.1158 31.791 14.2387 31.6815C14.6314 31.2615 14.8452 30.705 14.8347 30.1301L14.4918 28.5787C14.5026 29.1561 14.2889 29.7152 13.8957 30.1383C13.7693 30.2408 13.6214 30.3134 13.463 30.3506C13.2808 30.4068 13.0887 30.4235 12.8995 30.3995C12.7587 30.3578 12.6318 30.2788 12.5321 30.1709V30.2117Z" fill="url(#paint38_radial_1_3480)"/>
    <path fill-rule="evenodd" clip-rule="evenodd" d="M7.58391 29.6892L7.24097 28.1786C7.01806 28.0948 6.821 27.954 6.66939 27.7703C6.50484 27.5499 6.38299 27.3007 6.31012 27.0355L6.55508 28.097L6.6449 28.4971C6.6449 28.4971 6.6449 28.4971 6.6449 28.5379C6.71608 28.8037 6.83809 29.0533 7.00417 29.2728C7.15309 29.4612 7.35076 29.6052 7.57575 29.6892H7.58391Z" fill="url(#paint39_radial_1_3480)"/>
  </g>
  <defs>

    <radialGradient id="paint1_radial_1_3480" cx="0" cy="0" r="1" gradientUnits="userSpaceOnUse" gradientTransform="translate(8.88218 29.6565) scale(5.22582)">
      <stop stop-color="#B09972"/>
      <stop offset="1" stop-color="#6E542F"/>
    </radialGradient>
    <radialGradient id="paint2_radial_1_3480" cx="0" cy="0" r="1" gradientUnits="userSpaceOnUse" gradientTransform="translate(10.8092 1.88618) scale(31.2978 31.2978)">
      <stop stop-color="#FFEEB5"/>
      <stop offset="1" stop-color="#A89271"/>
    </radialGradient>
    <radialGradient id="paint3_radial_1_3480" cx="0" cy="0" r="1" gradientUnits="userSpaceOnUse" gradientTransform="translate(10.4255 18.2006) scale(5.93621)">
      <stop stop-color="#4A3122"/>
      <stop offset="1" stop-color="#291B12"/>
    </radialGradient>
    <radialGradient id="paint4_radial_1_3480" cx="0" cy="0" r="1" gradientUnits="userSpaceOnUse" gradientTransform="translate(18.1253 22.1117) scale(5.7729)">
      <stop stop-color="#4A3122"/>
      <stop offset="1" stop-color="#291B12"/>
    </radialGradient>
    <radialGradient id="paint5_radial_1_3480" cx="0" cy="0" r="1" gradientUnits="userSpaceOnUse" gradientTransform="translate(11.2665 7.08751) scale(9.41465)">
      <stop stop-color="#FFDAB0"/>
      <stop offset="1" stop-color="#000505"/>
    </radialGradient>
    <radialGradient id="paint6_radial_1_3480" cx="0" cy="0" r="1" gradientUnits="userSpaceOnUse" gradientTransform="translate(19.8319 9.73305) scale(11.2029)">
      <stop stop-color="#FFDAB0"/>
      <stop offset="1" stop-color="#000505"/>
    </radialGradient>
    <radialGradient id="paint7_radial_1_3480" cx="0" cy="0" r="1" gradientUnits="userSpaceOnUse" gradientTransform="translate(12.9567 13.4565) scale(8.34499)">
      <stop stop-color="#A8798D"/>
      <stop offset="0.54" stop-color="#D8C3CC"/>
      <stop offset="1" stop-color="white"/>
    </radialGradient>
    <radialGradient id="paint8_radial_1_3480" cx="0" cy="0" r="1" gradientUnits="userSpaceOnUse" gradientTransform="translate(18.8602 18.2904) scale(7.70809)">
      <stop stop-color="#A8798D"/>
      <stop offset="0.54" stop-color="#D8C3CC"/>
      <stop offset="1" stop-color="white"/>
    </radialGradient>
    <radialGradient id="paint9_radial_1_3480" cx="0" cy="0" r="1" gradientUnits="userSpaceOnUse" gradientTransform="translate(13.4711 21.8913) scale(4.44195 4.44195)">
      <stop stop-color="#FFDAB0"/>
      <stop offset="1" stop-color="#000505"/>
    </radialGradient>
    <radialGradient id="paint10_radial_1_3480" cx="0" cy="0" r="1" gradientUnits="userSpaceOnUse" gradientTransform="translate(11.9116 24.4144) scale(5.95254)">
      <stop stop-color="#4A3122"/>
      <stop offset="1" stop-color="#261911"/>
    </radialGradient>
    <radialGradient id="paint11_radial_1_3480" cx="0" cy="0" r="1" gradientUnits="userSpaceOnUse" gradientTransform="translate(10.2866 20.8625) scale(6.23833)">
      <stop stop-color="#F39200"/>
      <stop offset="1"/>
    </radialGradient>
    <radialGradient id="paint12_radial_1_3480" cx="0" cy="0" r="1" gradientUnits="userSpaceOnUse" gradientTransform="translate(16.0514 24.1858) scale(6.50778)">
      <stop stop-color="#F39200"/>
      <stop offset="1"/>
    </radialGradient>
    <radialGradient id="paint13_radial_1_3480" cx="0" cy="0" r="1" gradientUnits="userSpaceOnUse" gradientTransform="translate(21.5058 15.9224) scale(17.7433)">
      <stop offset="0.64" stop-color="white"/>
      <stop offset="0.81" stop-color="#D8C3CC"/>
      <stop offset="1" stop-color="#A8798D"/>
    </radialGradient>
    <radialGradient id="paint14_radial_1_3480" cx="0" cy="0" r="1" gradientUnits="userSpaceOnUse" gradientTransform="translate(11.0542 6.91602) scale(22.7405)">
      <stop offset="0.64" stop-color="white"/>
      <stop offset="0.81" stop-color="#D8C3CC"/>
      <stop offset="1" stop-color="#A8798D"/>
    </radialGradient>
    <radialGradient id="paint15_radial_1_3480" cx="0" cy="0" r="1" gradientUnits="userSpaceOnUse" gradientTransform="translate(17.8804 1.05332) scale(15.7265)">
      <stop stop-color="#FFDAB0"/>
      <stop offset="1" stop-color="#000505"/>
    </radialGradient>
    <radialGradient id="paint16_radial_1_3480" cx="0" cy="0" r="1" gradientUnits="userSpaceOnUse" gradientTransform="translate(16.231 1.73917) scale(13.4402 13.4402)">
      <stop stop-color="#FFDAB0"/>
      <stop offset="1" stop-color="#000505"/>
    </radialGradient>
    <radialGradient id="paint17_radial_1_3480" cx="0" cy="0" r="1" gradientUnits="userSpaceOnUse" gradientTransform="translate(12.524 22.8874) scale(5.85455 5.85455)">
      <stop stop-color="#A8798D"/>
      <stop offset="0.19" stop-color="#D8C3CC"/>
      <stop offset="0.36" stop-color="white"/>
    </radialGradient>
    <radialGradient id="paint18_radial_1_3480" cx="0" cy="0" r="1" gradientUnits="userSpaceOnUse" gradientTransform="translate(12.083 30.1546) scale(2.55575)">
      <stop stop-color="#FFDAB0"/>
      <stop offset="1" stop-color="#000505"/>
    </radialGradient>
    <radialGradient id="paint19_radial_1_3480" cx="0" cy="0" r="1" gradientUnits="userSpaceOnUse" gradientTransform="translate(10.3928 29.2809) scale(2.45777 2.45777)">
      <stop stop-color="#FFDAB0"/>
      <stop offset="1" stop-color="#000505"/>
    </radialGradient>
    <radialGradient id="paint20_radial_1_3480" cx="0" cy="0" r="1" gradientUnits="userSpaceOnUse" gradientTransform="translate(8.43307 28.5542) scale(3.15999)">
      <stop stop-color="#FFDAB0"/>
      <stop offset="1" stop-color="#000505"/>
    </radialGradient>
    <radialGradient id="paint21_radial_1_3480" cx="0" cy="0" r="1" gradientUnits="userSpaceOnUse" gradientTransform="translate(5.3058 24.4389) scale(2.71906)">
      <stop stop-color="#FFDAB0"/>
      <stop offset="1" stop-color="#000505"/>
    </radialGradient>
    <radialGradient id="paint22_radial_1_3480" cx="0" cy="0" r="1" gradientUnits="userSpaceOnUse" gradientTransform="translate(5.812 26.1454) scale(2.79255)">
      <stop stop-color="#FFDAB0"/>
      <stop offset="1" stop-color="#000505"/>
    </radialGradient>
    <radialGradient id="paint23_radial_1_3480" cx="0" cy="0" r="1" gradientUnits="userSpaceOnUse" gradientTransform="translate(7.04501 27.2641) scale(3.13549)">
      <stop stop-color="#FFDAB0"/>
      <stop offset="1" stop-color="#000505"/>
    </radialGradient>
    <radialGradient id="paint24_radial_1_3480" cx="0" cy="0" r="1" gradientUnits="userSpaceOnUse" gradientTransform="translate(11.9279 30.3751) scale(1.85353 1.85354)">
      <stop stop-color="#FFDAB0"/>
      <stop offset="1" stop-color="#000505"/>
    </radialGradient>
    <radialGradient id="paint25_radial_1_3480" cx="0" cy="0" r="1" gradientUnits="userSpaceOnUse" gradientTransform="translate(10.5561 30.0893) scale(1.84537 1.84537)">
      <stop stop-color="#FFDAB0"/>
      <stop offset="1" stop-color="#000505"/>
    </radialGradient>
    <radialGradient id="paint26_radial_1_3480" cx="0" cy="0" r="1" gradientUnits="userSpaceOnUse" gradientTransform="translate(6.16027 26.6371) rotate(31.9448) scale(1.8485 1.71549)">
      <stop stop-color="#FFDAB0"/>
      <stop offset="1" stop-color="#000505"/>
    </radialGradient>
    <radialGradient id="paint27_radial_1_3480" cx="0" cy="0" r="1" gradientUnits="userSpaceOnUse" gradientTransform="translate(8.60459 29.4769) scale(2.44144)">
      <stop stop-color="#FFDAB0"/>
      <stop offset="1" stop-color="#000505"/>
    </radialGradient>
    <radialGradient id="paint28_radial_1_3480" cx="0" cy="0" r="1" gradientUnits="userSpaceOnUse" gradientTransform="translate(7.14296 28.4072) scale(2.13116)">
      <stop stop-color="#FFDAB0"/>
      <stop offset="1" stop-color="#000505"/>
    </radialGradient>
    <radialGradient id="paint29_radial_1_3480" cx="0" cy="0" r="1" gradientUnits="userSpaceOnUse" gradientTransform="translate(5.92634 24.4225) scale(1.85353)">
      <stop stop-color="#FFDAB0"/>
      <stop offset="1" stop-color="#000505"/>
    </radialGradient>
    <radialGradient id="paint30_radial_1_3480" cx="0" cy="0" r="1" gradientUnits="userSpaceOnUse" gradientTransform="translate(5.45274 18.372) scale(4.3358)">
      <stop stop-color="#96816A"/>
      <stop offset="1" stop-color="#6B4C38"/>
    </radialGradient>
    <radialGradient id="paint31_radial_1_3480" cx="0" cy="0" r="1" gradientUnits="userSpaceOnUse" gradientTransform="translate(12.0259 12.7951) scale(20.2746)">
      <stop stop-color="#96816A"/>
      <stop offset="1" stop-color="#6B4C38"/>
    </radialGradient>
    <radialGradient id="paint32_radial_1_3480" cx="0" cy="0" r="1" gradientUnits="userSpaceOnUse" gradientTransform="translate(16.7454 29.4115) scale(3.87038)">
      <stop stop-color="#A8798D"/>
      <stop offset="0.54" stop-color="#D8C3CC"/>
      <stop offset="1" stop-color="white"/>
    </radialGradient>
    <radialGradient id="paint33_radial_1_3480" cx="0" cy="0" r="1" gradientUnits="userSpaceOnUse" gradientTransform="translate(19.1705 25.1493) scale(4.60526 4.60526)">
      <stop stop-color="#FFDAB0"/>
      <stop offset="1" stop-color="#000505"/>
    </radialGradient>
    <radialGradient id="paint34_radial_1_3480" cx="0" cy="0" r="1" gradientUnits="userSpaceOnUse" gradientTransform="translate(24.9353 23.9408) scale(4.3358)">
      <stop stop-color="#A8798D"/>
      <stop offset="0.54" stop-color="#D8C3CC"/>
      <stop offset="1" stop-color="white"/>
    </radialGradient>
    <radialGradient id="paint35_radial_1_3480" cx="0" cy="0" r="1" gradientUnits="userSpaceOnUse" gradientTransform="translate(8.39227 28.2603) scale(2.64557 2.64557)">
      <stop stop-color="#96816A"/>
      <stop offset="1" stop-color="#6B4C38"/>
    </radialGradient>
    <radialGradient id="paint36_radial_1_3480" cx="0" cy="0" r="1" gradientUnits="userSpaceOnUse" gradientTransform="translate(10.0253 29.4932) scale(2.70273)">
      <stop stop-color="#96816A"/>
      <stop offset="1" stop-color="#6B4C38"/>
    </radialGradient>
    <radialGradient id="paint37_radial_1_3480" cx="0" cy="0" r="1" gradientUnits="userSpaceOnUse" gradientTransform="translate(11.5523 29.9015) scale(2.69456 2.69457)">
      <stop stop-color="#96816A"/>
      <stop offset="1" stop-color="#6B4C38"/>
    </radialGradient>
    <radialGradient id="paint38_radial_1_3480" cx="0" cy="0" r="1" gradientUnits="userSpaceOnUse" gradientTransform="translate(13.2098 29.0114) scale(3.31513 3.31513)">
      <stop stop-color="#96816A"/>
      <stop offset="1" stop-color="#6B4C38"/>
    </radialGradient>
    <radialGradient id="paint39_radial_1_3480" cx="0" cy="0" r="1" gradientUnits="userSpaceOnUse" gradientTransform="translate(6.91436 27.4274) scale(2.29446)">
      <stop stop-color="#96816A"/>
      <stop offset="1" stop-color="#6B4C38"/>
    </radialGradient>
    <clipPath id="clip0_1_3480">
      <rect width="28.5297" height="32" fill="white" transform="translate(0.235107)"/>
    </clipPath>
  </defs>
</svg>