<svg width="32" height="32" viewBox="0 0 32 32" fill="none" xmlns="http://www.w3.org/2000/svg">
<path fill-rule="evenodd" clip-rule="evenodd" d="M22.3285 7.82382L29.3871 13.5029L30.5652 17.4903L25.168 17.4299L16.3575 13.372L9.29895 7.69292L8.12085 3.71558L13.518 3.76592L22.3285 7.82382Z" fill="url(#paint0_radial_1_3096)"/>
<path fill-rule="evenodd" clip-rule="evenodd" d="M8.1208 3.71558L1.17303 6.14226L2.77404 11.5696L9.2989 7.69292L8.1208 3.71558Z" fill="url(#paint1_radial_1_3096)"/>
<path fill-rule="evenodd" clip-rule="evenodd" d="M9.29891 7.69287L2.77405 11.5695L12.4103 19.3329L16.3574 13.3719L9.29891 7.69287Z" fill="url(#paint2_radial_1_3096)"/>
<path fill-rule="evenodd" clip-rule="evenodd" d="M16.3575 13.3719L25.168 17.4298L24.433 24.871L12.4103 19.3329L16.3575 13.3719Z" fill="url(#paint3_radial_1_3096)"/>
<path fill-rule="evenodd" clip-rule="evenodd" d="M30.5651 17.4902L31.8037 24.9415L24.433 24.871L25.168 17.4298L30.5651 17.4902Z" fill="url(#paint4_radial_1_3096)"/>
<path fill-rule="evenodd" clip-rule="evenodd" d="M2.77405 11.5696L6.98298 32L12.4103 19.333L2.77405 11.5696Z" fill="url(#paint5_radial_1_3096)"/>
<path fill-rule="evenodd" clip-rule="evenodd" d="M12.4103 19.3329L24.433 24.871L6.98303 32L12.4103 19.3329Z" fill="url(#paint6_radial_1_3096)"/>
<path fill-rule="evenodd" clip-rule="evenodd" d="M31.8037 24.9415L6.98303 32L24.433 24.871L31.8037 24.9415Z" fill="url(#paint7_radial_1_3096)"/>
<path fill-rule="evenodd" clip-rule="evenodd" d="M1.17303 6.14221L6.98298 32L2.77404 11.5695L1.17303 6.14221Z" fill="#85F2FF"/>
<path style="mix-blend-mode:screen" opacity="0.5" fill-rule="evenodd" clip-rule="evenodd" d="M15.562 4.7124C17.9887 7.05853 22.7615 14.399 24.0403 16.9163L25.1681 17.4298H27.6451H28.068C25.3353 14.2598 22.9394 10.8144 20.9188 7.14916L15.562 4.7124Z" fill="url(#paint8_radial_1_3096)"/>
<g style="mix-blend-mode:screen" opacity="0.75">
<path fill-rule="evenodd" clip-rule="evenodd" d="M3.82125 16.6243C3.73062 12.9692 5.25108 14.0667 6.84202 15.698C11.8766 20.8433 10.1749 23.8138 7.99998 29.6237L12.4103 19.333L2.77405 11.5696C3.12647 13.2612 3.46882 14.9428 3.78097 16.6042L3.82125 16.6243Z" fill="#9FDFFF"/>
</g>
<path style="mix-blend-mode:screen" opacity="0.5" fill-rule="evenodd" clip-rule="evenodd" d="M16.146 21.0447C21.0699 23.3304 19.0158 25.9786 14.8471 28.0931L6.98303 32L24.433 24.8609L16.146 21.0447Z" fill="url(#paint9_radial_1_3096)"/>
<g style="mix-blend-mode:screen">
<path fill-rule="evenodd" clip-rule="evenodd" d="M9.29894 7.69285L8.22154 4.05786C8.60417 5.9106 8.84583 6.5651 8.31216 7.37064C7.47538 8.41358 6.47574 9.31461 5.35181 10.039L9.29894 7.69285Z" fill="#8FFCFF"/>
</g>
<path fill-rule="evenodd" clip-rule="evenodd" d="M16.3575 13.3719L9.30901 7.69287L5.36188 10.039C7.37572 8.97166 8.52361 8.58903 9.27881 8.87097C10.4412 9.42831 11.5274 10.1322 12.511 10.9654C14.1422 12.1837 14.8672 13.4323 14.8773 14.0969C14.8773 14.9226 14.102 16.5437 13.0548 18.3763L16.3675 13.3417L16.3575 13.3719Z" fill="white"/>
<g style="mix-blend-mode:screen" opacity="0.5">
<path fill-rule="evenodd" clip-rule="evenodd" d="M16.3575 13.3719L13.0447 18.4066C14.5752 16.2215 15.7634 15.2146 16.5991 15.0233C17.7269 14.7514 19.3682 15.124 22.5702 16.2719L16.3575 13.4022V13.3719Z" fill="#8FFCFF"/>
</g>
<path style="mix-blend-mode:screen" fill-rule="evenodd" clip-rule="evenodd" d="M11.9874 3.75585L8.09064 3.71558L8.88611 6.39399L9.26874 7.69292L16.3172 13.372L19.7307 14.9428C17.6061 13.0497 12.1586 5.40721 11.9472 3.75585H11.9874Z" fill="url(#paint10_radial_1_3096)"/>
<path style="mix-blend-mode:screen" opacity="0.75" d="M8.51353 16.6344C13.107 16.6344 16.8307 12.9106 16.8307 8.31718C16.8307 3.72373 13.107 0 8.51353 0C3.92008 0 0.19635 3.72373 0.19635 8.31718C0.19635 12.9106 3.92008 16.6344 8.51353 16.6344Z" fill="url(#paint11_radial_1_3096)"/>
<defs>
<radialGradient id="paint0_radial_1_3096" cx="0" cy="0" r="1" gradientUnits="userSpaceOnUse" gradientTransform="translate(9.83262 7.97486) scale(28.1838 28.1838)">
<stop stop-color="#C4EEFF"/>
<stop offset="0.33" stop-color="#4CCAFF"/>
<stop offset="1" stop-color="#003EB0"/>
</radialGradient>
<radialGradient id="paint1_radial_1_3096" cx="0" cy="0" r="1" gradientUnits="userSpaceOnUse" gradientTransform="translate(0.397705 2.42671) scale(10.7137 10.7137)">
<stop stop-color="#A5E2FF"/>
<stop offset="1" stop-color="#218CF3"/>
</radialGradient>
<radialGradient id="paint2_radial_1_3096" cx="0" cy="0" r="1" gradientUnits="userSpaceOnUse" gradientTransform="translate(9.42981 8.65952) scale(30.983 30.983)">
<stop stop-color="#A5E2FF"/>
<stop offset="1" stop-color="#0088FF"/>
</radialGradient>
<radialGradient id="paint3_radial_1_3096" cx="0" cy="0" r="1" gradientUnits="userSpaceOnUse" gradientTransform="translate(14.4343 33.3795) scale(21.5381 21.5381)">
<stop stop-color="#A5E2FF"/>
<stop offset="1" stop-color="#0069C2"/>
</radialGradient>
<radialGradient id="paint4_radial_1_3096" cx="0" cy="0" r="1" gradientUnits="userSpaceOnUse" gradientTransform="translate(33.1831 12.9389) scale(15.6476 15.6476)">
<stop stop-color="#4CCAFF"/>
<stop offset="1" stop-color="#003EB0"/>
</radialGradient>
<radialGradient id="paint5_radial_1_3096" cx="0" cy="0" r="1" gradientUnits="userSpaceOnUse" gradientTransform="translate(0.417849 23.7533) scale(13.6639 13.6639)">
<stop stop-color="#A5E2FF"/>
<stop offset="1" stop-color="#218CF3"/>
</radialGradient>
<radialGradient id="paint6_radial_1_3096" cx="0" cy="0" r="1" gradientUnits="userSpaceOnUse" gradientTransform="translate(10.759 36.5513) scale(25.1227 25.1227)">
<stop stop-color="#77D6FF"/>
<stop offset="1" stop-color="#001FB0"/>
</radialGradient>
<radialGradient id="paint7_radial_1_3096" cx="0" cy="0" r="1" gradientUnits="userSpaceOnUse" gradientTransform="translate(7.40594 32.9465) scale(22.7967 22.7967)">
<stop stop-color="#A5E2FF"/>
<stop offset="1" stop-color="#0081FF"/>
</radialGradient>
<radialGradient id="paint8_radial_1_3096" cx="0" cy="0" r="1" gradientUnits="userSpaceOnUse" gradientTransform="translate(25.6917 18.0944) scale(13.3014)">
<stop stop-color="#00000D"/>
<stop offset="1" stop-color="white"/>
</radialGradient>
<radialGradient id="paint9_radial_1_3096" cx="0" cy="0" r="1" gradientUnits="userSpaceOnUse" gradientTransform="translate(12.2492 19.8464) scale(14.2983)">
<stop offset="0.31" stop-color="#00000D"/>
<stop offset="1" stop-color="#1CB4FF"/>
</radialGradient>
<radialGradient id="paint10_radial_1_3096" cx="0" cy="0" r="1" gradientUnits="userSpaceOnUse" gradientTransform="translate(25.158 -1.88291) scale(23.2096 23.2096)">
<stop offset="0.57" stop-color="#00000D"/>
<stop offset="0.6" stop-color="#030613"/>
<stop offset="0.63" stop-color="#0D1524"/>
<stop offset="0.68" stop-color="#1C2F3F"/>
<stop offset="0.72" stop-color="#315466"/>
<stop offset="0.77" stop-color="#4C8298"/>
<stop offset="0.82" stop-color="#6DBAD3"/>
<stop offset="0.86" stop-color="#85E3FF"/>
</radialGradient>

</defs>
</svg>
