<svg xmlns="http://www.w3.org/2000/svg" width="33" height="32" viewBox="0 0 33 32" fill="none">
  <g clip-path="url(#clip0_1_3286)">
    <path style="mix-blend-mode:screen" d="M27.3467 27.674C33.6452 21.6865 33.8973 11.7268 27.9098 5.42839C21.9224 -0.870049 11.9627 -1.12216 5.66423 4.8653C-0.634215 10.8528 -0.88632 20.8124 5.10113 27.1109C11.0886 33.4093 21.0483 33.6614 27.3467 27.674Z" fill="url(#paint0_radial_1_3286)"/>
    <path fill-rule="evenodd" clip-rule="evenodd" d="M13.9231 23.7522C16.2735 25.1026 17.5898 27.171 16.8804 28.4359C16.171 29.7009 13.6923 29.5641 11.3505 28.2137C9.00858 26.8633 7.67524 24.7949 8.39319 23.53C9.11114 22.265 11.5812 22.3932 13.9231 23.7522Z" fill="url(#paint1_radial_1_3286)"/>
    <g style="mix-blend-mode:multiply">
      <path fill-rule="evenodd" clip-rule="evenodd" d="M17.0086 28.2735C16.359 29.3847 13.9316 29.1795 11.5727 27.8206C9.21369 26.4616 7.82908 24.453 8.46156 23.3419C9.52993 25.3847 13.4445 28.1453 17.0086 28.2735Z" fill="#5ACCC9"/>
    </g>
    <path opacity="0.15" fill-rule="evenodd" clip-rule="evenodd" d="M20.906 6.94019L20.2906 7.97437C19.4359 9.40172 19.812 9.01711 18.453 10.0684C17.7057 10.6354 16.8205 10.9924 15.8889 11.1026C12.8975 11.641 10.1539 12.812 8.57268 15.5385C7.94465 16.6527 7.61217 17.909 7.60687 19.1881C7.61031 20.7571 8.03182 22.2969 8.82802 23.6489C9.62421 25.0009 10.7663 26.1163 12.1368 26.8804C13.4813 27.6838 15.0151 28.1159 16.5813 28.1324C18.1476 28.149 19.6901 27.7493 21.0513 26.9744C22.1528 26.3187 23.0679 25.3918 23.7094 24.2821C25.2906 21.5385 24.9231 18.5898 23.8889 15.7351C23.5284 14.8805 23.4015 13.9454 23.5214 13.0257C23.7522 11.3163 23.6069 11.8462 24.4188 10.3846L25.0086 9.33335C24.2419 9.11127 23.5067 8.79247 22.8205 8.38463C22.1306 7.99325 21.4906 7.51971 20.9146 6.97437L20.906 6.94019Z" fill="white"/>
    <path fill-rule="evenodd" clip-rule="evenodd" d="M16.1539 13.6753C20.7009 13.6753 24.3932 15.3847 24.3932 17.4531C24.3932 19.5214 20.6752 21.2565 16.1539 21.2565C11.6325 21.2565 7.91455 19.5471 7.91455 17.4787C7.91455 15.4103 11.5727 13.6753 16.1539 13.6753Z" fill="url(#paint2_radial_1_3286)"/>
    <path fill-rule="evenodd" clip-rule="evenodd" d="M16.1539 21.2564C11.5983 21.2564 7.91456 19.547 7.91456 17.4786C7.91406 17.2957 7.94292 17.1139 8.00004 16.9402C7.75317 17.6645 7.62053 18.4229 7.60687 19.188C7.61031 20.7571 8.03182 22.2969 8.82802 23.6489C9.62421 25.0009 10.7663 26.1163 12.1368 26.8804C13.4813 27.6838 15.0151 28.1159 16.5813 28.1324C18.1476 28.149 19.6901 27.7493 21.0513 26.9744C22.1528 26.3187 23.0679 25.3918 23.7094 24.2821C24.2984 23.1897 24.6562 21.9878 24.7606 20.7512C24.865 19.5146 24.7138 18.2697 24.3163 17.094C24.3499 17.2282 24.3671 17.366 24.3676 17.5043C24.3676 19.5898 20.6752 21.2821 16.1282 21.2821L16.1539 21.2564Z" fill="url(#paint3_radial_1_3286)"/>
    <path style="mix-blend-mode:screen" fill-rule="evenodd" clip-rule="evenodd" d="M22.9915 19.1111C22.9915 17.1538 19.5727 15.5641 15.2991 15.5641C11.8803 15.5641 9.03419 16.5641 7.99146 17.9487C8.46154 19.812 11.9231 21.2564 16.1538 21.2564C18.5056 21.3502 20.838 20.7974 22.8974 19.6581C22.9514 19.4895 22.9802 19.3138 22.9829 19.1367L22.9915 19.1111Z" fill="url(#paint4_radial_1_3286)"/>
    <path style="mix-blend-mode:screen" fill-rule="evenodd" clip-rule="evenodd" d="M20.8462 19.5043C20.8462 17.7949 17.8975 16.4786 14.2564 16.4786C11.4701 16.4786 9.12823 17.265 8.12823 18.3846C8.98294 20.0342 12.2564 21.2564 16.1282 21.2564C17.5231 21.2667 18.9135 21.0972 20.265 20.7521C20.4396 20.5929 20.5809 20.4006 20.6806 20.1864C20.7804 19.9722 20.8367 19.7404 20.8462 19.5043Z" fill="url(#paint5_radial_1_3286)"/>
    <path style="mix-blend-mode:screen" fill-rule="evenodd" clip-rule="evenodd" d="M16.1539 21.2564C12.2821 21.2564 9.03422 20.0342 8.15388 18.3846C8.08106 18.258 8.02367 18.1232 7.98294 17.9829C7.91127 18.3576 7.87408 18.7381 7.87183 19.1197C7.87766 20.4927 8.24886 21.8394 8.94733 23.0216C9.64579 24.2037 10.6463 25.1786 11.8462 25.8462C13.0255 26.5515 14.3709 26.931 15.7449 26.9461C17.1189 26.9611 18.4723 26.611 19.6667 25.9316C20.6318 25.3557 21.4347 24.544 22 23.5727C22.6734 22.3826 22.9881 21.0231 22.906 19.6581C22.0917 20.1651 21.2036 20.5428 20.2735 20.7778C18.922 21.1228 17.5316 21.2923 16.1368 21.2821L16.1539 21.2564Z" fill="url(#paint6_radial_1_3286)"/>
    <path style="mix-blend-mode:screen" fill-rule="evenodd" clip-rule="evenodd" d="M16.1539 21.2565C12.2821 21.2565 9.03422 20.0343 8.15387 18.3847L8.20516 18.3249C8.20516 18.2821 8.20516 18.2479 8.20516 18.2137V18.3761C8.16047 18.6301 8.13759 18.8875 8.13678 19.1454C8.14428 20.2644 8.44895 21.3614 9.01962 22.324C9.59029 23.2867 10.4065 24.0804 11.3846 24.624C12.3445 25.1992 13.4402 25.5087 14.5591 25.5207C15.6781 25.5327 16.7801 25.2468 17.7522 24.6924C18.5096 24.2129 19.1354 23.5519 19.5727 22.7693C19.938 22.1463 20.1789 21.4584 20.2821 20.7437C18.9305 21.0887 17.5402 21.2582 16.1453 21.2479L16.1539 21.2565Z" fill="url(#paint7_radial_1_3286)"/>
    <path fill-rule="evenodd" clip-rule="evenodd" d="M25.077 10.718L25.7778 9.45304L25.3419 9.40175L24.8975 9.29064L24.3163 10.3163C23.7837 11.1072 23.4564 12.0182 23.3638 12.9672C23.2713 13.9162 23.4165 14.8733 23.7864 15.7522C24.8035 18.5898 25.1795 21.5129 23.6154 24.2223C22.9809 25.3169 22.0778 26.2317 20.9915 26.8804C19.6453 27.6446 18.1207 28.0385 16.5728 28.022C15.0249 28.0055 13.5091 27.5792 12.1795 26.7864C10.8262 26.0301 9.69773 24.9283 8.9094 23.5934C8.12107 22.2585 7.7011 20.7384 7.69235 19.1881C7.71489 17.9243 8.05589 16.6867 8.6838 15.5898C10.2564 12.8718 12.9573 11.7522 15.9317 11.2052C16.1009 11.161 16.2777 11.1533 16.4501 11.1828C16.6225 11.2123 16.7867 11.2782 16.9317 11.3761C17.718 11.9659 18.3077 12.9488 19.5727 13.53C18.8462 12.9744 17.7436 11.6924 17.7351 10.9659C17.7291 10.8905 17.7424 10.8148 17.7738 10.746C17.8052 10.6772 17.8537 10.6175 17.9146 10.5727C18.9679 9.97671 19.8236 9.08533 20.3761 8.00859L20.9829 6.9915C20.8633 6.88039 20.7607 6.76928 20.6582 6.65816C20.5556 6.54705 20.4787 6.45304 20.3761 6.31628L19.6411 7.56415C19.2839 8.31479 18.7421 8.96257 18.0665 9.44688C17.3909 9.93119 16.6034 10.2362 15.7778 10.3334C12.5043 10.9317 9.62397 12.2223 7.94021 15.1453C5.51286 19.3505 7.21371 24.8804 11.7522 27.4958C16.2906 30.1112 21.9317 28.8291 24.359 24.624C26.0684 21.7009 25.7265 18.5641 24.5983 15.4274C24.272 14.6663 24.1447 13.8347 24.2284 13.0108C24.3122 12.1869 24.6042 11.3979 25.077 10.718Z" fill="url(#paint8_radial_1_3286)"/>
    <path style="mix-blend-mode:screen" fill-rule="evenodd" clip-rule="evenodd" d="M23.9316 11.1539C23.6364 12.2044 23.5665 13.3054 23.7265 14.3847C23.8849 15.5863 24.1189 16.7767 24.4273 17.9488C23.8624 16.774 23.4075 15.5494 23.0684 14.2907C23.1082 13.196 23.4007 12.1254 23.9231 11.1625L23.9316 11.1539Z" fill="url(#paint9_linear_1_3286)"/>
    <path style="mix-blend-mode:screen" opacity="0.5" fill-rule="evenodd" clip-rule="evenodd" d="M23.1026 7.85476L25.0598 8.98297C23.5043 11.6753 21.3675 13.3505 20.2906 12.7266C19.2137 12.1026 19.5897 9.41032 21.1453 6.74365L23.1026 7.8804V7.85476Z" fill="url(#paint10_radial_1_3286)"/>
    <path style="mix-blend-mode:screen" opacity="0.5" fill-rule="evenodd" clip-rule="evenodd" d="M22.4102 7.37611L23.3077 7.96585C22.2479 9.67525 20.9744 10.812 20.4786 10.4872C19.9829 10.1624 20.4273 8.54705 21.5043 6.83765L22.4102 7.41884V7.37611Z" fill="url(#paint11_radial_1_3286)"/>
    <path style="mix-blend-mode:screen" fill-rule="evenodd" clip-rule="evenodd" d="M13.0171 14.1796C12.8205 13.9915 12.5898 13.7608 12.3248 13.7779C11.3676 13.8206 10.2223 15.0086 9.76071 15.7351C9.15257 16.5346 8.7555 17.4743 8.60613 18.4677C8.45676 19.461 8.55989 20.4759 8.90601 21.4189C9.13678 21.9317 10.6667 22.8633 10.7009 22.5215C10.6865 21.6306 10.892 20.7499 11.2992 19.9574C11.9051 18.9161 12.7164 18.0088 13.6838 17.2907C14.6154 16.5727 14.6752 16.3334 14.3248 15.8292C13.9224 15.2345 13.4858 14.6637 13.0171 14.1198V14.1796ZM17.1453 12.8804C18.1197 13.9574 18.0684 14.5898 17.624 15.0941C16.7693 16.0428 15.4616 15.6069 14.5983 14.5386C13.7351 13.4702 13.5812 12.9146 14.0342 12.436C14.7094 11.7266 16.171 11.795 17.1453 12.8804Z" fill="url(#paint12_radial_1_3286)"/>
    <g style="mix-blend-mode:screen">
      <path fill-rule="evenodd" clip-rule="evenodd" d="M16.5299 12.9658C16.3065 12.6706 15.98 12.4706 15.6156 12.4056C15.2512 12.3407 14.8757 12.4156 14.5641 12.6154C14.2906 12.8889 14.4103 13.2308 14.9744 13.8889C15.5385 14.547 16.3932 14.8462 16.8974 14.2991C17.1624 14.0085 17.1709 13.6752 16.5299 12.9658ZM12.188 14.4188C12.0769 14.3504 11.9487 14.3504 11.7436 14.4188C11.1193 14.8075 10.5836 15.3229 10.1709 15.9316C9.65918 16.5661 9.29353 17.3055 9.1 18.0973C8.90648 18.8891 8.88985 19.7139 9.05128 20.5128C9.10256 20.6752 9.21367 20.9744 9.36752 21.0256C9.52136 21.0769 9.51282 21.0256 9.55555 20.7949C9.6927 20.252 9.91173 19.7333 10.2051 19.2564C10.8945 18.1447 11.7876 17.1733 12.8376 16.3932C13.188 16.1282 13.265 15.9658 13.2222 15.8205C12.9255 15.3197 12.579 14.8501 12.188 14.4188Z" fill="url(#paint13_radial_1_3286)"/>
    </g>
    <path style="mix-blend-mode:screen" opacity="0.5" fill-rule="evenodd" clip-rule="evenodd" d="M22.2222 7.37606L22.6923 7.6923C21.9658 8.92307 21.1709 9.77777 20.9145 9.60683C20.6581 9.43589 21.0427 8.29059 21.7692 7.04272L22.2308 7.35896L22.2222 7.37606Z" fill="url(#paint14_radial_1_3286)"/>
    <g style="mix-blend-mode:multiply" opacity="0.5">
      <path fill-rule="evenodd" clip-rule="evenodd" d="M25.0598 10.7351C24.7949 11.1881 23.5385 10.5727 22.2393 9.36756C20.9402 8.16243 20.1026 6.80345 20.3675 6.35901C21.0459 7.17585 21.8723 7.8573 22.8034 8.36756C23.7168 8.92673 24.7297 9.30402 25.7863 9.47867L25.0513 10.7522L25.0598 10.7351Z" fill="#7F8E99"/>
    </g>
    <path fill-rule="evenodd" clip-rule="evenodd" d="M27.1111 9.55563C26.5812 10.1539 24.6496 9.75221 22.6667 8.60692C20.6838 7.46162 19.3761 5.98298 19.624 5.23939C19.9359 4.48153 20.3785 3.78433 20.9316 3.17957L24.5898 5.28213L28.2393 7.40179C27.9928 8.18046 27.6109 8.90957 27.1111 9.55563ZM27.1111 7.28213L24.3505 5.70093L21.6154 4.12828C21.4901 4.31054 21.3787 4.50196 21.2821 4.70093C20.2564 6.48726 25.7778 9.67529 26.812 7.88897C26.9281 7.69383 27.0309 7.49109 27.1197 7.28213H27.1111Z" fill="url(#paint15_radial_1_3286)"/>
    <path opacity="0.15" fill-rule="evenodd" clip-rule="evenodd" d="M26.8633 7.94872C27.0039 7.72178 27.1213 7.48125 27.2137 7.23077L24.4017 5.60684L21.5812 3.98291C21.4159 4.18837 21.27 4.40868 21.1453 4.64103C20.0427 6.56411 25.7521 9.85471 26.8633 7.94872Z" fill="white"/>
    <path fill-rule="evenodd" clip-rule="evenodd" d="M26.0769 7.98298C25.7778 8.32487 24.6068 8.05991 23.3932 7.35905C22.1795 6.6582 21.4103 5.83769 21.4957 5.39324C21.6395 4.97772 21.8108 4.57226 22.0085 4.17957L26.8291 6.95734C26.5555 7.35905 26.2906 7.72657 26.0769 7.98298Z" fill="#8E633F"/>
    <path style="mix-blend-mode:screen" fill-rule="evenodd" clip-rule="evenodd" d="M16.2479 28.359C13.5641 28.5983 9.78632 26.6496 8.76923 24.0427C10.6206 26.3823 13.2959 27.9263 16.2479 28.359Z" fill="url(#paint16_linear_1_3286)"/>
    <path fill-rule="evenodd" clip-rule="evenodd" d="M19.0684 27.6924C20.462 27.1383 21.6978 26.2496 22.6667 25.1048C23.6356 23.96 24.3078 22.5943 24.6239 21.1283C24.5214 24.624 22.3675 27.2394 19.0684 27.6924Z" fill="white"/>
    <path style="mix-blend-mode:screen" fill-rule="evenodd" clip-rule="evenodd" d="M20.2308 6.02572C20.1026 5.3676 21.0855 4.03427 21.4872 3.50435L20.9316 3.17957C20.3785 3.78433 19.9359 4.48153 19.6239 5.23939C19.3932 5.94025 20.4786 7.24794 22.2393 8.34196C21.4274 7.76076 20.4274 6.83769 20.2308 6.02572Z" fill="url(#paint17_radial_1_3286)"/>
    <path fill-rule="evenodd" clip-rule="evenodd" d="M25.265 4.11119C27.265 5.28213 28.6154 6.75221 28.2393 7.40179C27.8633 8.05136 25.9231 7.63255 23.906 6.46161C21.8889 5.29067 20.5556 3.82914 20.9317 3.17956C21.3077 2.52999 23.2479 2.94879 25.265 4.11119Z" fill="url(#paint18_radial_1_3286)"/>
    <path fill-rule="evenodd" clip-rule="evenodd" d="M27.265 7.69238C26.0084 7.61255 24.7932 7.21238 23.7351 6.52999C23.2898 6.27293 22.8616 5.98744 22.453 5.67529C22.4022 5.73774 22.339 5.78896 22.2674 5.8257C22.1958 5.86244 22.1173 5.8839 22.0369 5.88872C21.9566 5.89354 21.8761 5.88162 21.8006 5.85371C21.7251 5.82579 21.6562 5.7825 21.5983 5.72657C21.4533 5.59101 21.354 5.41373 21.3142 5.21925C21.2744 5.02478 21.296 4.82274 21.3761 4.6411C20.9146 4.077 20.718 3.57273 20.906 3.24794C20.9152 3.22484 20.9299 3.20431 20.9487 3.18811C20.7009 3.83768 22.0769 5.25649 24.094 6.41888C25.0734 7.01571 26.1449 7.44604 27.265 7.69238Z" fill="white"/>
    <path fill-rule="evenodd" clip-rule="evenodd" d="M27.0855 6.61536C26.7692 6.98288 25.5128 6.69229 24.2051 5.94015C22.8974 5.18801 22.0855 4.31622 22.1368 3.83759C22.6435 2.5422 23.2493 1.28778 23.9487 0.0854492L28.8376 4.27348C28.2479 5.12818 27.7094 5.88887 27.0855 6.62391V6.61536Z" fill="#8E633F"/>
    <path style="mix-blend-mode:screen" fill-rule="evenodd" clip-rule="evenodd" d="M27.1111 6.13681C26.8205 6.4616 25.6667 6.1881 24.4615 5.49579C23.2564 4.80348 22.5043 4.00006 22.5812 3.57271C23.0071 2.42345 23.5274 1.31139 24.1368 0.247925L28.5897 4.05134C28.0598 4.77784 27.6752 5.47869 27.1111 6.13681Z" fill="url(#paint19_radial_1_3286)"/>
    <path style="mix-blend-mode:screen" fill-rule="evenodd" clip-rule="evenodd" d="M26.265 2.33336C25.2735 4.04277 24.3248 4.89747 23.5641 4.29918C22.8034 3.70089 23.265 2.09405 24.2564 0.376099L26.265 2.33336Z" fill="url(#paint20_radial_1_3286)"/>
    <path fill-rule="evenodd" clip-rule="evenodd" d="M24.2394 3.68377C24.3973 3.69677 24.5443 3.76937 24.6507 3.88683C24.757 4.00429 24.8147 4.15782 24.812 4.31625C24.8204 4.48036 24.7814 4.64343 24.6995 4.78593C24.6177 4.92842 24.4965 5.04429 24.3505 5.11967C24.0855 5.20514 23.7778 4.76069 23.718 4.33334C23.6582 3.90599 23.906 3.62394 24.2394 3.68377Z" fill="url(#paint21_linear_1_3286)"/>
    <path fill-rule="evenodd" clip-rule="evenodd" d="M27.3846 4.77784C27.4571 4.94572 27.4694 5.13345 27.4196 5.30938C27.3698 5.48531 27.2608 5.63869 27.1111 5.74365C26.9638 5.82223 26.7943 5.84894 26.63 5.81948C26.4656 5.79002 26.316 5.70611 26.2051 5.58126C26.0427 5.38468 26.2051 4.99152 26.5043 4.77784C26.8034 4.56417 27.2308 4.52143 27.359 4.77784H27.3846Z" fill="url(#paint22_linear_1_3286)"/>
    <g style="mix-blend-mode:screen" opacity="0.25">
      <path fill-rule="evenodd" clip-rule="evenodd" d="M26.7778 1.48724C25.3846 0.40177 24.1453 -0.290538 23.8889 0.162454C23.7521 0.393223 23.8889 0.888949 24.2564 1.47015C24.1309 1.62572 24.0638 1.82037 24.067 2.02025C24.0701 2.22013 24.1432 2.41259 24.2735 2.56416C24.3893 2.71632 24.5577 2.81988 24.7457 2.85465C24.9338 2.88941 25.128 2.85289 25.2906 2.7522C25.4537 2.91186 25.6248 3.06306 25.8034 3.20519C27.265 4.35049 28.5128 4.77784 28.8376 4.27356C29.1624 3.76929 28.1795 2.56416 26.7778 1.48724Z" fill="#EDCAA6"/>
    </g>
    <path fill-rule="evenodd" clip-rule="evenodd" d="M26.8376 1.38467C28.2052 2.56416 29.094 3.81202 28.8376 4.27356C28.5812 4.7351 27.265 4.16245 25.8889 3.03424C24.5129 1.90604 23.624 0.615438 23.8889 0.162446C24.1539 -0.290545 25.4701 0.256463 26.8376 1.38467Z" fill="#936E4E"/>
    <path style="mix-blend-mode:screen" fill-rule="evenodd" clip-rule="evenodd" d="M26.4103 1.15384C27.5299 2.08547 28.2735 3.13675 28.0513 3.51282C27.8291 3.88889 26.7351 3.4188 25.6154 2.50427C24.4957 1.58974 23.7521 0.512818 23.9658 0.13675C24.1795 -0.239319 25.2735 0.22222 26.4103 1.15384Z" fill="url(#paint23_radial_1_3286)"/>
    <path fill-rule="evenodd" clip-rule="evenodd" d="M25.6667 0.786347C26.094 1.11113 26.3761 1.47865 26.2992 1.64105C26.2222 1.80344 25.812 1.64105 25.3846 1.30771C24.9573 0.974381 24.6752 0.623954 24.7607 0.453013C24.8462 0.282073 25.2479 0.453014 25.6667 0.7778V0.786347Z" fill="url(#paint24_linear_1_3286)"/>
    <path fill-rule="evenodd" clip-rule="evenodd" d="M26.5898 2.43596C26.8975 2.65818 27.0855 2.94023 27.0171 3.05989C26.9487 3.17955 26.6411 3.05989 26.3334 2.87186C26.0257 2.68382 25.8376 2.36759 25.9146 2.23938C25.9915 2.11117 26.2821 2.23938 26.5898 2.43596Z" fill="url(#paint25_linear_1_3286)"/>
    <path fill-rule="evenodd" clip-rule="evenodd" d="M28.1196 3.00005C28.4615 3.27356 28.6666 3.60689 28.5897 3.75219C28.5128 3.89749 28.1709 3.75219 27.829 3.50433C27.4872 3.25646 27.282 2.89749 27.359 2.75219C27.4359 2.60689 27.7778 2.75219 28.1196 3.00005Z" fill="url(#paint26_linear_1_3286)"/>
    <path fill-rule="evenodd" clip-rule="evenodd" d="M25.188 2.56418C25.1215 2.6038 25.0477 2.62972 24.971 2.64041C24.8943 2.6511 24.8162 2.64636 24.7414 2.62645C24.6665 2.60655 24.5964 2.57188 24.5351 2.52449C24.4739 2.4771 24.4227 2.41795 24.3846 2.3505C24.2674 2.24261 24.1959 2.09396 24.1848 1.93505C24.1737 1.77613 24.2238 1.61898 24.3248 1.4958C24.5299 1.33341 24.9316 1.4958 25.1795 1.8035C25.4274 2.11119 25.3932 2.41033 25.1795 2.56418H25.188Z" fill="url(#paint27_linear_1_3286)"/>
    <path style="mix-blend-mode:screen" fill-rule="evenodd" clip-rule="evenodd" d="M23.5812 22.6069C23.1953 23.6009 22.6071 24.5037 21.8537 25.2582C21.1004 26.0127 20.1984 26.6024 19.205 26.9898C18.2117 27.3771 17.1487 27.5538 16.0834 27.5085C15.0182 27.4632 13.974 27.1969 13.0171 26.7266C16.9276 26.7115 20.6929 25.2432 23.5812 22.6069Z" fill="url(#paint28_radial_1_3286)"/>
  </g>
  <defs>

    <radialGradient id="paint1_radial_1_3286" cx="0" cy="0" r="1" gradientUnits="userSpaceOnUse" gradientTransform="translate(5.62396 19.1795) scale(14.7692 14.7692)">
      <stop stop-color="white"/>
      <stop offset="1" stop-color="#5E689E"/>
    </radialGradient>
    <radialGradient id="paint2_radial_1_3286" cx="0" cy="0" r="1" gradientUnits="userSpaceOnUse" gradientTransform="translate(13.1453 21.889) scale(12.0427)">
      <stop stop-color="#FF4F51"/>
      <stop offset="1" stop-color="#8F0000"/>
    </radialGradient>
    <radialGradient id="paint3_radial_1_3286" cx="0" cy="0" r="1" gradientUnits="userSpaceOnUse" gradientTransform="translate(13.265 19.7949) scale(15.3932 15.3932)">
      <stop stop-color="#FF2B60"/>
      <stop offset="0.61" stop-color="#690000"/>
      <stop offset="0.89" stop-color="#CF0034"/>
    </radialGradient>
    <radialGradient id="paint4_radial_1_3286" cx="0" cy="0" r="1" gradientUnits="userSpaceOnUse" gradientTransform="translate(13.9744 23.4359) scale(14.453 14.453)">
      <stop stop-color="#E71D73"/>
      <stop offset="1"/>
    </radialGradient>
    <radialGradient id="paint5_radial_1_3286" cx="0" cy="0" r="1" gradientUnits="userSpaceOnUse" gradientTransform="translate(10.9487 23.9573) scale(12.5556 12.5556)">
      <stop stop-color="#E71D73"/>
      <stop offset="1"/>
    </radialGradient>
    <radialGradient id="paint6_radial_1_3286" cx="0" cy="0" r="1" gradientUnits="userSpaceOnUse" gradientTransform="translate(14.8804 17.6838) scale(10.265 10.265)">
      <stop stop-color="#E71D73"/>
      <stop offset="1"/>
    </radialGradient>
    <radialGradient id="paint7_radial_1_3286" cx="0" cy="0" r="1" gradientUnits="userSpaceOnUse" gradientTransform="translate(12.4188 18.5727) scale(9.42735 9.42735)">
      <stop stop-color="#E71D73"/>
      <stop offset="1"/>
    </radialGradient>
    <radialGradient id="paint8_radial_1_3286" cx="0" cy="0" r="1" gradientUnits="userSpaceOnUse" gradientTransform="translate(15.0941 10.624) scale(33.3932 33.3932)">
      <stop stop-color="#94D4D3"/>
      <stop offset="1" stop-color="#4566C4"/>
    </radialGradient>
    <linearGradient id="paint9_linear_1_3286" x1="23.2649" y1="11.1539" x2="25.0684" y2="23.2565" gradientUnits="userSpaceOnUse">
      <stop stop-color="white"/>
      <stop offset="1"/>
    </linearGradient>
    <radialGradient id="paint10_radial_1_3286" cx="0" cy="0" r="1" gradientUnits="userSpaceOnUse" gradientTransform="translate(16.7607 5.83767) scale(9.90598)">
      <stop stop-color="white"/>
      <stop offset="1"/>
    </radialGradient>
    <radialGradient id="paint11_radial_1_3286" cx="0" cy="0" r="1" gradientUnits="userSpaceOnUse" gradientTransform="translate(19.9145 7.15389) scale(5.32479 5.32479)">
      <stop stop-color="white"/>
      <stop offset="1"/>
    </radialGradient>
    <radialGradient id="paint12_radial_1_3286" cx="0" cy="0" r="1" gradientUnits="userSpaceOnUse" gradientTransform="translate(17.2052 21.4787) scale(14.3248)">
      <stop offset="0.37"/>
      <stop offset="1" stop-color="white"/>
    </radialGradient>
    <radialGradient id="paint13_radial_1_3286" cx="0" cy="0" r="1" gradientUnits="userSpaceOnUse" gradientTransform="translate(16.0171 19.8889) scale(14.6581)">
      <stop/>
      <stop offset="1" stop-color="white"/>
    </radialGradient>
    <radialGradient id="paint14_radial_1_3286" cx="0" cy="0" r="1" gradientUnits="userSpaceOnUse" gradientTransform="translate(20.812 7.59828) scale(3.82906)">
      <stop stop-color="white"/>
      <stop offset="1"/>
    </radialGradient>
    <radialGradient id="paint15_radial_1_3286" cx="0" cy="0" r="1" gradientUnits="userSpaceOnUse" gradientTransform="translate(21.3675 3.15392) scale(11.7692)">
      <stop stop-color="#CCF0EF"/>
      <stop offset="1" stop-color="#364E82"/>
    </radialGradient>
    <linearGradient id="paint16_linear_1_3286" x1="8.39316" y1="24.4188" x2="16" y2="28.9658" gradientUnits="userSpaceOnUse">
      <stop stop-color="white"/>
      <stop offset="1"/>
    </linearGradient>
    <radialGradient id="paint17_radial_1_3286" cx="0" cy="0" r="1" gradientUnits="userSpaceOnUse" gradientTransform="translate(23.1966 6.44452) scale(4.58975 4.58974)">
      <stop/>
      <stop offset="1" stop-color="white"/>
    </radialGradient>
    <radialGradient id="paint18_radial_1_3286" cx="0" cy="0" r="1" gradientUnits="userSpaceOnUse" gradientTransform="translate(20.9658 3.02572) scale(13.7179)">
      <stop stop-color="#F2FFFF"/>
      <stop offset="1" stop-color="#6A79C2"/>
    </radialGradient>
    <radialGradient id="paint19_radial_1_3286" cx="0" cy="0" r="1" gradientUnits="userSpaceOnUse" gradientTransform="translate(24.1111 1.3163) scale(5.76923 5.76923)">
      <stop stop-color="#CA9E67"/>
      <stop offset="1"/>
    </radialGradient>
    <radialGradient id="paint20_radial_1_3286" cx="0" cy="0" r="1" gradientUnits="userSpaceOnUse" gradientTransform="translate(24.2479 0.555586) scale(4.21368)">
      <stop stop-color="#CA9E67"/>
      <stop offset="1"/>
    </radialGradient>
    <linearGradient id="paint21_linear_1_3286" x1="24.718" y1="4.82907" x2="23.7778" y2="3.88035" gradientUnits="userSpaceOnUse">
      <stop stop-color="#B07A38"/>
      <stop offset="1" stop-color="#704824"/>
    </linearGradient>
    <linearGradient id="paint22_linear_1_3286" x1="27.2479" y1="5.62399" x2="26.4445" y2="4.82058" gradientUnits="userSpaceOnUse">
      <stop stop-color="#B07A38"/>
      <stop offset="1" stop-color="#704824"/>
    </linearGradient>
    <radialGradient id="paint23_radial_1_3286" cx="0" cy="0" r="1" gradientUnits="userSpaceOnUse" gradientTransform="translate(24.6667 -1.44445) scale(6.20513 6.20513)">
      <stop stop-color="#CA9E67"/>
      <stop offset="1"/>
    </radialGradient>
    <linearGradient id="paint24_linear_1_3286" x1="24.7436" y1="1.03421" x2="26.3077" y2="1.03421" gradientUnits="userSpaceOnUse">
      <stop stop-color="#6B4E35"/>
      <stop offset="1" stop-color="#87643A"/>
    </linearGradient>
    <linearGradient id="paint25_linear_1_3286" x1="25.8975" y1="2.64964" x2="27.0257" y2="2.64964" gradientUnits="userSpaceOnUse">
      <stop stop-color="#6B4E35"/>
      <stop offset="1" stop-color="#87643A"/>
    </linearGradient>
    <linearGradient id="paint26_linear_1_3286" x1="27.3333" y1="3.25646" x2="28.5983" y2="3.25646" gradientUnits="userSpaceOnUse">
      <stop stop-color="#6B4E35"/>
      <stop offset="1" stop-color="#87643A"/>
    </linearGradient>
    <linearGradient id="paint27_linear_1_3286" x1="25.2393" y1="2.53854" x2="24.265" y2="1.56418" gradientUnits="userSpaceOnUse">
      <stop stop-color="#B07A38"/>
      <stop offset="1" stop-color="#704824"/>
    </linearGradient>
    <radialGradient id="paint28_radial_1_3286" cx="0" cy="0" r="1" gradientUnits="userSpaceOnUse" gradientTransform="translate(17.2479 20.8292) scale(10.1538 10.1538)">
      <stop stop-color="#E71D73"/>
      <stop offset="1"/>
    </radialGradient>
    <clipPath id="clip0_1_3286">
      <rect width="31.4615" height="32" fill="white" transform="translate(0.769226)"/>
    </clipPath>
  </defs>
</svg>