<svg width="42" height="40" viewBox="0 0 42 40" fill="none" xmlns="http://www.w3.org/2000/svg">
<path style="mix-blend-mode:screen" opacity="0.75" d="M37.5537 23.4768C39.3501 14.7517 34.8214 6.11875 27.4385 4.1946C20.0556 2.27045 12.6142 7.78371 10.8177 16.5088C9.02127 25.2339 13.55 33.8668 20.9329 35.791C28.3158 37.7151 35.7572 32.2019 37.5537 23.4768Z" fill="url(#paint0_radial_1_3180)"/>
<path fill-rule="evenodd" clip-rule="evenodd" d="M20.9552 4.04237C21.2817 4.29606 21.5349 4.65957 21.6826 5.08693C21.8302 5.51428 21.8659 5.98629 21.785 6.44327C21.704 6.90025 21.5102 7.32168 21.2279 7.65427C20.9456 7.98685 20.5876 8.21566 20.1992 8.31177C19.8107 8.40787 19.4092 8.36694 19.0454 8.19417C18.6817 8.0214 18.372 7.72453 18.1556 7.34111C17.9391 6.95769 17.8256 6.50494 17.8295 6.0401C17.8333 5.57527 17.9543 5.11922 18.1771 4.72962C18.4774 4.20927 18.9378 3.84508 19.4582 3.71636C19.9785 3.58764 20.5166 3.70481 20.9552 4.04237Z" fill="url(#paint1_radial_1_3180)"/>
<path style="mix-blend-mode:screen" fill-rule="evenodd" clip-rule="evenodd" d="M20.6249 4.16395C20.8717 4.35884 21.0623 4.63657 21.1727 4.96213C21.2831 5.28768 21.3084 5.64647 21.2453 5.99328C21.1822 6.34009 21.0335 6.65938 20.8181 6.9109C20.6027 7.16242 20.3302 7.33491 20.0348 7.40662C19.7395 7.47833 19.4346 7.44605 19.1586 7.31385C18.8826 7.18165 18.6478 6.95544 18.4839 6.66376C18.3199 6.37208 18.2342 6.02797 18.2374 5.67482C18.2407 5.32168 18.3328 4.9753 18.5021 4.67937C18.7321 4.2822 19.0846 4.00498 19.4824 3.90839C19.8803 3.81179 20.291 3.90368 20.6249 4.16395Z" fill="url(#paint2_radial_1_3180)"/>
<path style="mix-blend-mode:screen" fill-rule="evenodd" clip-rule="evenodd" d="M19.5585 4.10366C19.8161 4.00345 20.0945 4.02362 20.3353 4.15994C20.5762 4.29625 20.7608 4.53811 20.8504 4.83479C20.8597 5.14819 20.7656 5.45634 20.5876 5.69478C20.4096 5.93322 20.1616 6.08348 19.8954 6.11412C19.6391 6.21397 19.362 6.19358 19.1225 6.05726C18.8831 5.92095 18.7001 5.67938 18.6122 5.38356C18.6007 5.06955 18.694 4.75999 18.8724 4.52096C19.0509 4.28194 19.3002 4.13239 19.5672 4.10423L19.5585 4.10366Z" fill="url(#paint3_radial_1_3180)"/>
<path style="mix-blend-mode:screen" fill-rule="evenodd" clip-rule="evenodd" d="M21.4835 4.99964C21.6463 5.42629 21.6845 5.90696 21.5922 6.36805C21.5 6.82913 21.2824 7.24523 20.9727 7.55261C20.6631 7.86 20.2785 8.04173 19.8778 8.06998C19.4772 8.09824 19.0825 7.97145 18.7543 7.70905C18.5343 7.53938 18.3501 7.31369 18.2149 7.04821C18.3058 7.17497 18.4093 7.28845 18.5232 7.38631C18.8373 7.63012 19.2082 7.75617 19.5883 7.74823C19.9684 7.7403 20.3403 7.59873 20.656 7.34178C20.9716 7.08483 21.2167 6.72426 21.3595 6.30652C21.5024 5.88878 21.5365 5.43301 21.4575 4.99792L21.4835 4.99964Z" fill="url(#paint4_radial_1_3180)"/>
<path d="M18.348 8.58405C18.6618 8.83749 18.9976 9.052 19.35 9.22426C19.5191 9.34454 19.7212 9.38688 19.9181 9.34327C20.115 9.29965 20.2931 9.17311 20.4187 8.98753C20.6356 8.60221 20.534 8.16505 20.1958 7.75323C19.926 7.43957 19.6297 7.15905 19.3113 6.91583C18.9953 6.6664 18.6599 6.4521 18.3093 6.27562C17.8536 6.06099 17.4489 6.12645 17.2406 6.51235C17.0323 6.89825 17.1159 7.34446 17.4635 7.74665C17.7309 8.06344 18.0274 8.34424 18.348 8.58405Z" fill="url(#paint5_linear_1_3180)"/>
<path style="mix-blend-mode:multiply" fill-rule="evenodd" clip-rule="evenodd" d="M19.3502 9.22432C18.9979 9.05206 18.6621 8.83755 18.3483 8.58411C18.0277 8.3443 17.7311 8.0635 17.4638 7.74671C17.3385 7.61608 17.242 7.45163 17.1823 7.2669C17.1662 7.21957 17.1596 7.16831 17.163 7.11703C17.1664 7.06574 17.1796 7.0158 17.2018 6.971C17.2247 6.92538 17.2567 6.8869 17.295 6.85903C17.3333 6.83116 17.3767 6.81475 17.4213 6.8113C17.5924 6.81144 17.7612 6.85045 17.9184 6.92619C18.2661 7.10278 18.5986 7.31689 18.9117 7.56582C19.232 7.81063 19.531 8.09122 19.8049 8.4038C19.9206 8.54412 20.0157 8.70618 20.0864 8.8836C20.1038 8.93236 20.1111 8.98551 20.1075 9.03872C20.104 9.09193 20.0898 9.14367 20.0662 9.18971C20.0422 9.23421 20.0099 9.27179 19.9719 9.2995C19.9338 9.32721 19.891 9.34429 19.8467 9.34941C19.6782 9.34484 19.5127 9.30259 19.3589 9.22489L19.3502 9.22432Z" fill="url(#paint6_radial_1_3180)"/>
<path style="mix-blend-mode:screen" fill-rule="evenodd" clip-rule="evenodd" d="M17.5028 6.63215C17.4889 6.60404 17.4827 6.57148 17.4848 6.53873C17.487 6.50598 17.4975 6.47453 17.5149 6.44849C18.0001 5.8247 19.8718 7.39357 19.8184 8.19965C19.2432 7.51985 18.5325 7.01901 17.748 6.74061C17.6353 6.73316 17.488 6.72341 17.4768 6.63043L17.5028 6.63215Z" fill="url(#paint7_radial_1_3180)"/>
<path fill-rule="evenodd" clip-rule="evenodd" d="M25.901 37.0105C22.0134 33.2893 19.225 32.6846 17.3629 30.8396C17.1748 30.6733 17.0171 30.4644 16.8988 30.2248C16.8315 30.0927 16.8009 29.9386 16.8112 29.7834C16.8215 29.6282 16.8721 29.4795 16.9562 29.3575C19.5999 25.2258 22.0648 20.9422 24.3413 16.5234C24.187 16.8821 24.2886 17.3193 24.8441 17.8685C26.7156 19.7038 29.4946 20.3181 33.3822 24.0393C30.4777 28.0318 27.9668 32.3945 25.899 37.0411L25.901 37.0105Z" fill="url(#paint8_linear_1_3180)"/>
<path style="mix-blend-mode:screen" opacity="0.75" fill-rule="evenodd" clip-rule="evenodd" d="M32.2833 23.0237C31.0498 21.9643 29.7404 21.0308 28.3689 20.2334C27.3283 22.499 26.1891 24.7019 24.9558 26.8329C23.6955 29.0586 22.3362 31.206 20.8837 33.2658C22.2525 34.0653 23.5618 34.9951 24.7987 36.0459C25.6449 33.6437 26.7011 31.3469 27.95 29.1934C29.2039 26.9635 30.6568 24.8948 32.2833 23.0237Z" fill="url(#paint9_linear_1_3180)"/>
<path style="mix-blend-mode:multiply" fill-rule="evenodd" clip-rule="evenodd" d="M20.3919 32.936C21.0454 30.2253 22.1174 27.6694 23.5538 25.3975C24.6798 23.3156 26.0441 21.4225 27.6073 19.773C26.6256 19.2538 25.6993 18.6046 24.846 17.8378C24.2906 17.2886 24.189 16.8515 24.3432 16.4928C22.0668 20.9115 19.6019 25.1951 16.9582 29.3268C16.8741 29.4489 16.8234 29.5976 16.8132 29.7528C16.8029 29.908 16.8335 30.0621 16.9008 30.1941C17.0191 30.4337 17.1767 30.6426 17.3648 30.809C18.3018 31.6413 19.3179 32.3445 20.3939 32.9054L20.3919 32.936Z" fill="url(#paint10_linear_1_3180)"/>
<path fill-rule="evenodd" clip-rule="evenodd" d="M26.8878 34.8519C23.3818 31.5454 20.8241 30.874 19.0545 29.2094C18.7097 28.964 18.3958 28.6639 18.1214 28.3175C18.014 28.1588 17.9593 27.9589 17.9672 27.7539L17.4126 28.6396C17.3887 28.7479 17.385 28.8604 17.4018 28.9695C17.4187 29.0786 17.4556 29.1815 17.51 29.2712C17.7085 29.5631 17.944 29.817 18.2086 30.0245C20.0335 31.7748 22.7006 32.3714 26.3823 35.915C26.5446 35.5671 26.7075 35.2089 26.8878 34.8519ZM27.5148 21.0377C26.3533 20.4245 25.254 19.6645 24.2359 18.7711C23.811 18.3535 23.6693 17.9957 23.7142 17.7117L23.1287 18.8003C23.1485 18.9915 23.2029 19.1747 23.2881 19.3376C23.3734 19.5005 23.4876 19.6395 23.6231 19.7451C24.5669 20.5815 25.588 21.2918 26.6682 21.8631C28.5789 22.9991 30.3952 24.3369 32.0953 25.8603L32.7313 24.9288C31.1142 23.4276 29.3695 22.1243 27.5234 21.0383L27.5148 21.0377Z" fill="url(#paint11_linear_1_3180)"/>
<path style="mix-blend-mode:multiply" fill-rule="evenodd" clip-rule="evenodd" d="M23.6238 19.735C24.3933 20.4365 25.2297 21.0317 26.1172 21.5089C26.3648 21.1871 26.6103 20.8959 26.8465 20.6144C25.9239 20.1281 25.056 19.5133 24.2611 18.7831C23.8362 18.3655 23.6946 18.0077 23.7395 17.7237L23.154 18.8123C23.1738 19.0035 23.2281 19.1867 23.3134 19.3496C23.3986 19.5125 23.5129 19.6514 23.6484 19.7571L23.6238 19.735ZM21.0309 30.6418C20.334 30.2392 19.6723 29.7597 19.0544 29.2095C18.7096 28.964 18.3957 28.664 18.1213 28.3176C18.014 28.1589 17.9593 27.9589 17.9672 27.754L17.4125 28.6396C17.3886 28.7479 17.385 28.8605 17.4018 28.9696C17.4186 29.0786 17.4555 29.1816 17.51 29.2712C17.7085 29.5631 17.944 29.8171 18.2085 30.0246C18.9818 30.7124 19.8186 31.297 20.704 31.768C20.8063 31.4058 20.9266 31.0346 21.0656 30.6441L21.0309 30.6418Z" fill="url(#paint12_linear_1_3180)"/>
<path fill-rule="evenodd" clip-rule="evenodd" d="M19.4714 28.1711C22.3246 24.0856 24.847 19.6989 27.0047 15.0702C26.819 15.5088 26.2003 15.6523 25.6696 15.7812C25.1389 15.9101 24.5202 16.0536 24.3432 16.4928C22.0686 20.8955 19.5819 25.1451 16.8956 29.2202C17.2972 28.9616 17.7415 28.8123 18.1951 28.7836C18.6625 28.745 19.1102 28.5302 19.4714 28.1711Z" fill="url(#paint13_linear_1_3180)"/>
<path fill-rule="evenodd" clip-rule="evenodd" d="M19.5705 28.2494C22.3876 24.1296 24.8765 19.7173 27.0046 15.0701C27.1509 14.7006 27.0573 14.2742 26.5018 13.7251C25.1558 12.3652 22.5566 11.1376 19.7415 9.09639L12.2576 22.1084C15.0727 24.1496 17.6373 25.3749 19.0179 26.7371C19.3449 27.0559 19.9016 27.7179 19.5705 28.2494Z" fill="url(#paint14_linear_1_3180)"/>
<path style="mix-blend-mode:screen" fill-rule="evenodd" clip-rule="evenodd" d="M26.502 13.7252C26.2388 13.4654 25.9645 13.2215 25.6801 12.9944C24.663 15.2125 23.4065 17.6299 21.9806 20.1079C20.741 22.2702 19.4768 24.2772 18.2655 26.011C18.5539 26.2181 18.8294 26.4487 19.0901 26.7009C19.4171 27.0198 19.9738 27.6818 19.6428 28.2133C22.4598 24.0935 24.9487 19.6812 27.0768 15.034C27.2231 14.6645 27.1295 14.2381 26.574 13.6889L26.502 13.7252Z" fill="url(#paint15_linear_1_3180)"/>
<path style="mix-blend-mode:screen" fill-rule="evenodd" clip-rule="evenodd" d="M27.3862 22.3205C28.5834 23.0562 29.741 23.8754 30.853 24.7738L31.5643 23.8883C30.3944 22.9232 29.17 22.0514 27.899 21.2784C27.737 21.6229 27.5672 21.9533 27.3896 22.2695L27.3862 22.3205ZM25.6628 33.7665C24.5485 32.8476 23.3786 32.0236 22.1621 31.3008C21.9492 31.6249 21.7363 31.949 21.5227 32.2833C22.8021 33.0322 24.0279 33.8979 25.1893 34.8728C25.3269 34.5027 25.4818 34.1338 25.6368 33.7648L25.6628 33.7665Z" fill="url(#paint16_linear_1_3180)"/>
<path style="mix-blend-mode:multiply" fill-rule="evenodd" clip-rule="evenodd" d="M23.7701 11.7406C22.5843 10.9858 21.1945 10.1559 19.7416 9.09643L12.2664 22.109C13.7586 23.2326 15.1923 24.0551 16.4381 24.8242C17.4093 23.2999 18.3158 21.6997 19.2698 20.0411C20.9219 17.1682 22.4387 14.3683 23.7961 11.7423L23.7701 11.7406Z" fill="url(#paint17_linear_1_3180)"/>
<path d="M12.3352 21.9906C13.5476 22.8702 14.7088 23.6029 15.7527 24.2664C16.9222 24.9382 18.0346 25.7356 19.0762 26.6487C19.3124 26.8554 19.5005 27.1283 19.6241 27.4434C19.6591 27.5568 19.673 27.6783 19.665 27.7997C19.657 27.921 19.6271 28.0396 19.5775 28.1474C19.4424 28.4118 19.2268 28.6068 18.9758 28.6918C18.7089 28.7978 18.4358 28.8791 18.159 28.9349C17.8971 28.99 17.6387 29.0689 17.3863 29.1707C17.1895 29.2318 17.018 29.378 16.9067 29.5797C16.8704 29.6521 16.8487 29.7331 16.8432 29.8163C16.8377 29.8995 16.8486 29.9826 16.875 30.0592C16.9837 30.3344 17.1507 30.5711 17.3603 30.7472C18.23 31.5314 19.1763 32.1924 20.1802 32.7171C22.1958 33.8983 24.088 35.3435 25.8216 37.0257C25.744 37.0929 25.6494 37.1265 25.5543 37.1208C23.8694 35.4981 22.0323 34.1047 20.0766 32.9664C19.0855 32.4252 18.1492 31.7585 17.2841 30.9779C17.0479 30.7712 16.8597 30.4984 16.7362 30.1833C16.6989 30.0704 16.6837 29.9486 16.6917 29.8268C16.6998 29.7049 16.7309 29.5862 16.7828 29.4792C16.9086 29.2176 17.1151 29.0217 17.3585 28.9332C17.6209 28.8208 17.8916 28.7392 18.1666 28.6895C18.4314 28.6346 18.6926 28.556 18.948 28.4542C19.1414 28.3898 19.3092 28.2439 19.4189 28.0447C19.4554 27.9705 19.4773 27.8878 19.4829 27.803C19.4885 27.7181 19.4777 27.6333 19.4513 27.5549C19.336 27.2848 19.1702 27.0497 18.966 26.8669C17.9237 25.9652 16.8102 25.1813 15.6398 24.5254C14.5872 23.8614 13.4167 23.1382 12.205 22.2484L12.3332 22.0212L12.3352 21.9906Z" fill="url(#paint18_linear_1_3180)"/>
<path fill-rule="evenodd" clip-rule="evenodd" d="M20.3183 24.8453C18.9376 23.4831 16.2732 22.1897 13.4087 20.1043L12.8386 21.0914C15.6777 23.1649 18.3009 24.4248 19.6809 25.7972C20.0332 26.128 20.5473 26.7769 20.2262 27.2885C20.4284 26.9945 20.6413 26.6704 20.8743 26.3066C21.16 25.8028 20.6786 25.1868 20.3196 24.8249L20.3183 24.8453ZM26.542 16.1464C26.6883 15.7769 26.596 15.3301 26.0299 14.811C24.6413 13.4381 22.0181 12.1782 19.2136 10.1069L18.6349 11.0934C21.5073 13.1897 24.1684 14.5341 25.5604 15.856C26.0759 16.3513 26.2455 16.8134 26.0805 17.2022C26.2615 16.835 26.4244 16.4768 26.586 16.1391L26.542 16.1464Z" fill="url(#paint19_linear_1_3180)"/>
<path style="mix-blend-mode:screen" fill-rule="evenodd" clip-rule="evenodd" d="M26.542 16.1464C26.6883 15.7769 26.596 15.3301 26.0299 14.8109C25.7459 14.5449 25.4483 14.2993 25.1386 14.0756L24.6292 15.0667C24.9402 15.2948 25.2374 15.5473 25.5191 15.8225C26.0346 16.3178 26.2042 16.7799 26.0392 17.1687C26.2202 16.8015 26.3831 16.4433 26.5447 16.1056L26.542 16.1464ZM20.8729 26.327C21.1586 25.8232 20.6772 25.2072 20.3182 24.8452C19.9593 24.4833 19.8007 24.3806 19.495 24.1349C19.2814 24.4692 19.0778 24.7837 18.8642 25.118C19.1532 25.3308 19.4284 25.5682 19.6875 25.8283C20.0398 26.1591 20.5539 26.808 20.2328 27.3197C20.435 27.0256 20.6479 26.7015 20.8809 26.3377L20.8729 26.327Z" fill="url(#paint20_linear_1_3180)"/>
<path style="mix-blend-mode:multiply" fill-rule="evenodd" clip-rule="evenodd" d="M18.5909 11.1007C20.0571 12.2225 21.4742 13.0337 22.694 13.8011L23.2294 12.8117C22.029 12.0148 20.6232 11.1634 19.2137 10.1068L18.6349 11.0934L18.5909 11.1007ZM17.5951 22.8613C16.3593 22.0724 14.9116 21.1977 13.4261 20.1054L12.856 21.0925C14.3568 22.2166 15.7979 23.0601 17.0257 23.8382C17.2299 23.5135 17.4262 23.1781 17.6218 22.8528L17.5951 22.8613Z" fill="url(#paint21_linear_1_3180)"/>
<path fill-rule="evenodd" clip-rule="evenodd" d="M18.8792 7.6662C19.2116 7.92443 19.5102 8.23747 19.7663 8.596C19.9653 8.87563 20.0444 9.12683 19.9657 9.26509L16.0912 15.998L12.383 22.455L11.0035 21.3389L9.63262 20.2234C10.9042 18.1041 12.1678 15.9741 13.4061 13.8322C14.6444 11.6902 15.9996 9.2281 17.214 7.05383C17.2927 6.91557 17.52 6.89987 17.8172 7.01177C18.1953 7.15376 18.5538 7.35681 18.8826 7.61518L18.8792 7.6662Z" fill="url(#paint22_linear_1_3180)"/>
<path style="mix-blend-mode:multiply" fill-rule="evenodd" clip-rule="evenodd" d="M13.9639 13.951C15.2142 11.7586 16.6061 9.26813 17.8418 7.03379C17.5526 6.93267 17.326 6.93817 17.2392 7.06566C16.055 9.18042 14.7665 11.5547 13.5416 13.6258C13.364 13.942 13.1864 14.2582 12.9975 14.6147C11.8978 16.5027 10.7762 18.3723 9.63258 20.2233C9.72002 20.0856 9.96331 20.0914 10.2778 20.2045C11.5214 18.1141 12.7563 16.0232 13.9666 13.9102L13.9639 13.951Z" fill="url(#paint23_linear_1_3180)"/>
<path style="mix-blend-mode:screen" fill-rule="evenodd" clip-rule="evenodd" d="M18.2026 7.23197C16.9502 9.45496 15.531 11.9641 14.264 14.1451C12.997 16.3262 11.8569 18.3004 10.6326 20.3612C10.8645 20.4888 11.0875 20.6372 11.2995 20.8051L11.4407 20.9066C12.6376 18.8644 13.8445 16.8024 15.0254 14.7387L19.0134 7.73654L18.8815 7.62533C18.6636 7.46539 18.4378 7.32042 18.2053 7.19115L18.2026 7.23197Z" fill="url(#paint24_linear_1_3180)"/>
<path style="mix-blend-mode:multiply" fill-rule="evenodd" clip-rule="evenodd" d="M19.5264 8.27265L15.5878 15.1858C14.3875 17.279 13.1879 19.362 11.971 21.4439C12.3359 21.8472 12.5196 22.2283 12.4114 22.4159L16.1183 15.9793L16.2659 15.7226L19.9661 9.25484C20.0449 9.11658 19.9918 8.8671 19.7667 8.58575C19.6955 8.47856 19.6149 8.38099 19.5264 8.27265Z" fill="url(#paint25_linear_1_3180)"/>
<path fill-rule="evenodd" clip-rule="evenodd" d="M11.2968 20.8459C12.0582 21.4394 12.5508 22.1484 12.3846 22.4244C12.2184 22.7003 11.5121 22.4588 10.6814 21.8607C9.85066 21.2626 9.428 20.548 9.59421 20.272C9.76042 19.9961 10.4668 20.2375 11.2968 20.8459Z" fill="#A71B00"/>
<path fill-rule="evenodd" clip-rule="evenodd" d="M12.1574 22.44C10.9145 24.5202 10.6449 24.9123 9.43464 27.0253C8.22436 29.1383 4.62359 35.418 3.47194 37.5656L2.23029 36.6021L0.987959 35.6488C2.25686 33.5704 5.89229 27.2931 7.13723 25.1823C8.38216 23.0716 8.56716 22.6431 9.73613 20.4966C9.80489 20.3782 9.99754 20.3602 10.2701 20.4499C10.605 20.5755 10.9213 20.7587 11.2088 20.9937C11.5146 21.2146 11.7898 21.4884 12.0253 21.8061C12.2004 22.0534 12.2729 22.2735 12.1948 22.4015L12.1574 22.44Z" fill="url(#paint26_linear_1_3180)"/>
<path style="mix-blend-mode:multiply" fill-rule="evenodd" clip-rule="evenodd" d="M11.9901 21.814C11.858 21.6252 11.7088 21.4539 11.5453 21.3029L8.74561 26.129C7.48796 28.3004 3.82777 34.6889 2.5861 36.8818L3.47205 37.5656C4.64102 35.4191 8.23583 29.098 9.4541 26.9958C10.6724 24.8935 10.934 24.4906 12.1769 22.4105C12.255 22.2824 12.1999 22.0636 12.0074 21.8151L11.9901 21.814Z" fill="url(#paint27_linear_1_3180)"/>
<path style="mix-blend-mode:multiply" fill-rule="evenodd" clip-rule="evenodd" d="M1.36157 35.9194C2.63587 33.7593 6.33736 27.4044 7.59636 25.2126C8.85536 23.0208 9.065 22.6145 10.262 20.4391C9.99811 20.3499 9.80276 20.4087 9.7367 20.4863C8.56638 22.6532 8.35471 23.0901 7.13712 25.1822C5.91953 27.2743 2.25675 33.5703 0.987854 35.6487L1.34424 35.9182L1.36157 35.9194Z" fill="url(#paint28_linear_1_3180)"/>
<path fill-rule="evenodd" clip-rule="evenodd" d="M2.49531 36.1482C3.16542 36.6743 3.60215 37.3078 3.4553 37.5543C3.30844 37.8008 2.6534 37.573 1.97462 37.0464C1.29584 36.5198 0.867107 35.897 0.987965 35.6488C1.10882 35.4006 1.79852 35.6307 2.4773 36.1573L2.49531 36.1482Z" fill="url(#paint29_radial_1_3180)"/>
<path style="mix-blend-mode:screen" fill-rule="evenodd" clip-rule="evenodd" d="M11.1501 20.9591C10.9178 20.7846 10.671 20.6378 10.4132 20.5209C7.02739 26.4458 2.9398 33.7693 3.12165 33.9146C3.3035 34.0598 7.7262 26.9327 11.1501 20.9591Z" fill="url(#paint30_radial_1_3180)"/>
<path fill-rule="evenodd" clip-rule="evenodd" d="M13.6423 20.253C13.8106 19.9464 13.2333 19.2011 12.5552 18.6643C12.1124 18.247 11.5618 18.0161 10.9887 18.0072L10.3753 18.9914C10.6373 18.8448 11.323 19.1361 11.9685 19.64C12.6139 20.1439 13.2232 20.9324 13.0563 21.2185L13.6437 20.2326L13.6423 20.253ZM17.7187 9.68003C18.0411 9.93707 19.0328 10.8636 18.8058 11.2687C19.0021 10.9333 19.1904 10.587 19.3846 10.2822C19.5788 9.97734 18.6052 8.90858 18.2974 8.6935C17.9897 8.47841 17.0077 7.79854 16.6856 8.06417L16.1328 9.05242C16.4763 8.85993 17.4276 9.47629 17.7173 9.70044L17.7187 9.68003Z" fill="url(#paint31_linear_1_3180)"/>
<path style="mix-blend-mode:screen" fill-rule="evenodd" clip-rule="evenodd" d="M17.0593 9.25708C17.2868 9.38138 17.507 9.5226 17.7188 9.67991L17.8587 9.8019L18.4374 8.81537L18.2969 8.70359C18.0837 8.54044 17.8606 8.39554 17.6294 8.26998L17.0593 9.25708ZM12.7038 18.7867L12.5553 18.6642C12.3484 18.5034 12.1308 18.3622 11.9044 18.2419L11.317 19.2279C11.5443 19.3496 11.7618 19.4943 11.9672 19.6603L12.1164 19.7727L12.7038 18.7867Z" fill="url(#paint32_linear_1_3180)"/>
<path style="mix-blend-mode:multiply" fill-rule="evenodd" clip-rule="evenodd" d="M16.1341 9.03191C16.3243 8.96794 16.5259 8.98129 16.706 9.06975C16.9023 8.73429 17.0905 8.38806 17.2761 8.08265C17.0296 7.99459 16.8063 7.94907 16.6869 8.04365L16.1341 9.03191ZM11.5585 18.0756C11.3761 17.9986 11.1776 17.9854 10.9866 18.0377L10.3732 19.0219C10.5696 18.962 10.7757 18.9757 10.9624 19.0609L11.5585 18.0756Z" fill="url(#paint33_linear_1_3180)"/>
<path style="mix-blend-mode:multiply" fill-rule="evenodd" clip-rule="evenodd" d="M13.2107 19.2815L12.6233 20.2674C12.9709 20.6696 13.1632 21.0513 13.0551 21.2388L13.6425 20.2529C13.7513 20.0551 13.5503 19.6729 13.2107 19.2815ZM18.3309 10.2943C18.6385 10.6426 18.8995 11.0391 18.7713 11.2663L19.3501 10.2798C19.4876 10.0429 19.218 9.64591 18.9096 9.30781L18.3309 10.2943Z" fill="url(#paint34_linear_1_3180)"/>
<path style="mix-blend-mode:screen" opacity="0.75" fill-rule="evenodd" clip-rule="evenodd" d="M28.1625 15.5874C28.1233 16.1807 27.9355 16.7508 27.6229 17.2256C27.3103 17.7004 26.887 18.0586 26.4065 18.2548C25.926 18.4511 25.4099 18.4766 24.9234 18.3281C24.4369 18.1797 24.0019 17.8639 23.6734 17.4208C23.3449 16.9777 23.1376 16.4271 23.0778 15.8387C23.018 15.2503 23.1084 14.6505 23.3375 14.1151C23.5666 13.5797 23.9241 13.1328 24.3648 12.8309C24.8056 12.5289 25.3097 12.3856 25.8136 12.4189C26.4892 12.4637 27.1162 12.8226 27.5568 13.4168C27.9973 14.011 28.2152 14.7918 28.1625 15.5874Z" fill="url(#paint35_radial_1_3180)"/>
<defs>

<radialGradient id="paint1_radial_1_3180" cx="0" cy="0" r="1" gradientUnits="userSpaceOnUse" gradientTransform="translate(19.6157 5.05755) rotate(37.9971) scale(2.85547 3.06614)">
<stop stop-color="#FCCD10"/>
<stop offset="0.22" stop-color="#EDAB09"/>
<stop offset="0.45" stop-color="#E08E02"/>
<stop offset="0.58" stop-color="#DB8300"/>
<stop offset="0.71" stop-color="#D67D00"/>
<stop offset="0.88" stop-color="#C86C00"/>
<stop offset="1" stop-color="#BA5B00"/>
</radialGradient>
<radialGradient id="paint2_radial_1_3180" cx="0" cy="0" r="1" gradientUnits="userSpaceOnUse" gradientTransform="translate(19.5862 3.80798) rotate(37.9971) scale(3.47386 3.73015)">
<stop stop-color="#FFE58A"/>
<stop offset="1"/>
</radialGradient>
<radialGradient id="paint3_radial_1_3180" cx="0" cy="0" r="1" gradientUnits="userSpaceOnUse" gradientTransform="translate(19.4014 2.68469) rotate(37.9971) scale(3.42839 3.68132)">
<stop stop-color="#FFE58A"/>
<stop offset="1"/>
</radialGradient>
<radialGradient id="paint4_radial_1_3180" cx="0" cy="0" r="1" gradientUnits="userSpaceOnUse" gradientTransform="translate(20.1138 5.74416) rotate(37.9971) scale(3.29198 3.53485)">
<stop stop-color="#FFE58A"/>
<stop offset="1"/>
</radialGradient>
<linearGradient id="paint5_linear_1_3180" x1="17.2406" y1="6.51235" x2="20.7003" y2="8.49634" gradientUnits="userSpaceOnUse">
<stop offset="0.05" stop-color="#ED9500"/>
<stop offset="0.4" stop-color="#FFCC00"/>
<stop offset="0.93" stop-color="#B36600"/>
</linearGradient>
<radialGradient id="paint6_radial_1_3180" cx="0" cy="0" r="1" gradientUnits="userSpaceOnUse" gradientTransform="translate(19.7048 9.25803) rotate(3.78606) scale(7.43332 8.75339)">
<stop stop-color="#E38812"/>
<stop offset="0.11" stop-color="#E6962D"/>
<stop offset="0.73" stop-color="#F8E1C3"/>
<stop offset="1" stop-color="white"/>
</radialGradient>
<radialGradient id="paint7_radial_1_3180" cx="0" cy="0" r="1" gradientUnits="userSpaceOnUse" gradientTransform="translate(17.999 6.23456) rotate(3.78606) scale(2.64855 3.11891)">
<stop stop-color="#FFF0B0"/>
<stop offset="1"/>
</radialGradient>
<linearGradient id="paint8_linear_1_3180" x1="20.4001" y1="23.3442" x2="30.4393" y2="29.1165" gradientUnits="userSpaceOnUse">
<stop stop-color="#9C0E0E"/>
<stop offset="0.69" stop-color="#FC3F00"/>
<stop offset="1" stop-color="#C4020B"/>
</linearGradient>
<linearGradient id="paint9_linear_1_3180" x1="23.3758" y1="25.5907" x2="29.1346" y2="28.9033" gradientUnits="userSpaceOnUse">
<stop/>
<stop offset="0.13" stop-color="#3E1111"/>
<stop offset="0.31" stop-color="#902727"/>
<stop offset="0.47" stop-color="#CC3737"/>
<stop offset="0.58" stop-color="#F14141"/>
<stop offset="0.64" stop-color="#FF4545"/>
<stop offset="0.68" stop-color="#F24040"/>
<stop offset="0.77" stop-color="#D03333"/>
<stop offset="0.89" stop-color="#991D1D"/>
<stop offset="1" stop-color="#630808"/>
</linearGradient>
<linearGradient id="paint10_linear_1_3180" x1="20.4" y1="23.3441" x2="24.5365" y2="25.7231" gradientUnits="userSpaceOnUse">
<stop stop-color="#800C0C"/>
<stop offset="1" stop-color="#FFE4BF"/>
</linearGradient>
<linearGradient id="paint11_linear_1_3180" x1="20.4018" y1="23.4468" x2="30.2983" y2="29.1472" gradientUnits="userSpaceOnUse">
<stop offset="0.07" stop-color="#B36600"/>
<stop offset="0.6" stop-color="#FFCC00"/>
<stop offset="0.95" stop-color="#ED9500"/>
</linearGradient>
<linearGradient id="paint12_linear_1_3180" x1="20.4018" y1="23.4468" x2="23.9984" y2="25.5205" gradientUnits="userSpaceOnUse">
<stop offset="0.57" stop-color="#FFA163"/>
<stop offset="1" stop-color="#FFE4BF"/>
</linearGradient>
<linearGradient id="paint13_linear_1_3180" x1="21.2713" y1="21.6186" x2="23.0375" y2="22.633" gradientUnits="userSpaceOnUse">
<stop stop-color="#960007"/>
<stop offset="1" stop-color="#610000"/>
</linearGradient>
<linearGradient id="paint14_linear_1_3180" x1="16.0539" y1="15.5035" x2="24.4352" y2="20.3242" gradientUnits="userSpaceOnUse">
<stop stop-color="#9C0E0E"/>
<stop offset="0.75" stop-color="#FC3F00"/>
<stop offset="1" stop-color="#C4020B"/>
</linearGradient>
<linearGradient id="paint15_linear_1_3180" x1="21.6728" y1="19.8928" x2="23.935" y2="21.1944" gradientUnits="userSpaceOnUse">
<stop/>
<stop offset="0.68" stop-color="#FF7373"/>
<stop offset="0.74" stop-color="#F26D6D"/>
<stop offset="0.84" stop-color="#D05E5E"/>
<stop offset="0.97" stop-color="#994545"/>
<stop offset="1" stop-color="#8C3F3F"/>
</linearGradient>
<linearGradient id="paint16_linear_1_3180" x1="24.7656" y1="26.6768" x2="28.6678" y2="28.9211" gradientUnits="userSpaceOnUse">
<stop/>
<stop offset="0.02" stop-color="#0F0E0B"/>
<stop offset="0.1" stop-color="#4E4936"/>
<stop offset="0.18" stop-color="#847C5B"/>
<stop offset="0.25" stop-color="#B0A67A"/>
<stop offset="0.33" stop-color="#D2C691"/>
<stop offset="0.4" stop-color="#EBDDA2"/>
<stop offset="0.46" stop-color="#FAEBAC"/>
<stop offset="0.51" stop-color="#FFF0B0"/>
<stop offset="0.56" stop-color="#F9EAAC"/>
<stop offset="0.62" stop-color="#E8DAA0"/>
<stop offset="0.69" stop-color="#CCC08D"/>
<stop offset="0.77" stop-color="#A59B72"/>
<stop offset="0.85" stop-color="#736C4F"/>
<stop offset="0.93" stop-color="#373326"/>
<stop offset="1"/>
</linearGradient>
<linearGradient id="paint17_linear_1_3180" x1="16.1028" y1="15.4248" x2="22.781" y2="19.267" gradientUnits="userSpaceOnUse">
<stop stop-color="#FF3030"/>
<stop offset="1" stop-color="#FFE4BF"/>
</linearGradient>
<linearGradient id="paint18_linear_1_3180" x1="11.4507" y1="23.5206" x2="28.1406" y2="33.1171" gradientUnits="userSpaceOnUse">
<stop stop-color="#C4020B"/>
<stop offset="1" stop-color="#FC3F00"/>
</linearGradient>
<linearGradient id="paint19_linear_1_3180" x1="16.0629" y1="15.5042" x2="24.3537" y2="20.2711" gradientUnits="userSpaceOnUse">
<stop offset="0.07" stop-color="#B36600"/>
<stop offset="0.6" stop-color="#FFCC00"/>
<stop offset="0.95" stop-color="#ED9500"/>
</linearGradient>
<linearGradient id="paint20_linear_1_3180" x1="21.7475" y1="19.9489" x2="23.8467" y2="21.1519" gradientUnits="userSpaceOnUse">
<stop/>
<stop offset="1" stop-color="#FFF0B0"/>
</linearGradient>
<linearGradient id="paint21_linear_1_3180" x1="16.103" y1="15.4248" x2="20.4298" y2="17.9204" gradientUnits="userSpaceOnUse">
<stop stop-color="#FFA163"/>
<stop offset="1" stop-color="#FFE4BF"/>
</linearGradient>
<linearGradient id="paint22_linear_1_3180" x1="13.5631" y1="13.4326" x2="16.565" y2="15.1652" gradientUnits="userSpaceOnUse">
<stop stop-color="#9C0E0E"/>
<stop offset="0.3" stop-color="#FC3F00"/>
<stop offset="1" stop-color="#C4020B"/>
</linearGradient>
<linearGradient id="paint23_linear_1_3180" x1="13.5237" y1="13.5017" x2="14.0458" y2="13.7979" gradientUnits="userSpaceOnUse">
<stop stop-color="#800C0C"/>
<stop offset="1" stop-color="#FFE4BF"/>
</linearGradient>
<linearGradient id="paint24_linear_1_3180" x1="14.1958" y1="13.5975" x2="15.7015" y2="14.4682" gradientUnits="userSpaceOnUse">
<stop/>
<stop offset="0.09" stop-color="#3E1111"/>
<stop offset="0.21" stop-color="#902727"/>
<stop offset="0.31" stop-color="#CC3737"/>
<stop offset="0.38" stop-color="#F14141"/>
<stop offset="0.42" stop-color="#FF4545"/>
<stop offset="0.5" stop-color="#F24040"/>
<stop offset="0.64" stop-color="#D03333"/>
<stop offset="0.83" stop-color="#991D1D"/>
<stop offset="1" stop-color="#630808"/>
</linearGradient>
<linearGradient id="paint25_linear_1_3180" x1="15.6118" y1="15.0849" x2="16.3599" y2="15.5158" gradientUnits="userSpaceOnUse">
<stop stop-color="#FFE4BF"/>
<stop offset="1" stop-color="#800C0C"/>
</linearGradient>
<linearGradient id="paint26_linear_1_3180" x1="5.49855" y1="27.8512" x2="8.16623" y2="29.3862" gradientUnits="userSpaceOnUse">
<stop stop-color="#546578"/>
<stop offset="0.32" stop-color="#8DA0B8"/>
<stop offset="1" stop-color="#546578"/>
</linearGradient>
<linearGradient id="paint27_linear_1_3180" x1="6.89616" y1="28.9581" x2="7.86902" y2="29.5148" gradientUnits="userSpaceOnUse">
<stop stop-color="white"/>
<stop offset="0.52" stop-color="#C3CEE0"/>
<stop offset="1" stop-color="#8A9FC2"/>
</linearGradient>
<linearGradient id="paint28_linear_1_3180" x1="5.45906" y1="27.9202" x2="6.93741" y2="28.773" gradientUnits="userSpaceOnUse">
<stop stop-color="#8A9FC2"/>
<stop offset="0.48" stop-color="#C3CEE0"/>
<stop offset="1" stop-color="white"/>
</linearGradient>
<radialGradient id="paint29_radial_1_3180" cx="0" cy="0" r="1" gradientUnits="userSpaceOnUse" gradientTransform="translate(1.7821 33.7747) rotate(3.78606) scale(3.51693 4.1415)">
<stop stop-color="#ADBDC9"/>
<stop offset="1" stop-color="#263754"/>
</radialGradient>
<radialGradient id="paint30_radial_1_3180" cx="0" cy="0" r="1" gradientUnits="userSpaceOnUse" gradientTransform="translate(-0.731431 19.4145) rotate(3.78606) scale(13.5728 15.9831)">
<stop stop-color="white"/>
<stop offset="0.11" stop-color="#FAFAFA"/>
<stop offset="0.23" stop-color="#EDEDED"/>
<stop offset="0.36" stop-color="#D6D6D6"/>
<stop offset="0.5" stop-color="#B7B7B7"/>
<stop offset="0.64" stop-color="#8E8E8E"/>
<stop offset="0.78" stop-color="#5C5C5C"/>
<stop offset="0.92" stop-color="#232323"/>
<stop offset="1"/>
</radialGradient>
<linearGradient id="paint31_linear_1_3180" x1="13.6282" y1="13.3652" x2="14.8175" y2="14.0475" gradientUnits="userSpaceOnUse">
<stop offset="0.07" stop-color="#B36600"/>
<stop offset="0.6" stop-color="#FFCC00"/>
<stop offset="0.95" stop-color="#ED9500"/>
</linearGradient>
<linearGradient id="paint32_linear_1_3180" x1="14.4846" y1="13.7087" x2="15.3409" y2="14.2024" gradientUnits="userSpaceOnUse">
<stop stop-color="#FFF0B0"/>
<stop offset="1"/>
</linearGradient>
<linearGradient id="paint33_linear_1_3180" x1="13.6095" y1="13.3843" x2="14.0959" y2="13.6626" gradientUnits="userSpaceOnUse">
<stop stop-color="#FFA163"/>
<stop offset="1" stop-color="#FFE4BF"/>
</linearGradient>
<linearGradient id="paint34_linear_1_3180" x1="15.6606" y1="15.0061" x2="16.4087" y2="15.437" gradientUnits="userSpaceOnUse">
<stop stop-color="#FFE4BF"/>
<stop offset="1" stop-color="#FFA163"/>
</linearGradient>
<radialGradient id="paint35_radial_1_3180" cx="0" cy="0" r="1" gradientUnits="userSpaceOnUse" gradientTransform="translate(25.6151 15.4188) rotate(3.78606) scale(2.55303 3.00642)">
<stop stop-color="#FCEA10"/>
<stop offset="0.12" stop-color="#CDBF0D"/>
<stop offset="0.3" stop-color="#908509"/>
<stop offset="0.47" stop-color="#5C5606"/>
<stop offset="0.63" stop-color="#343103"/>
<stop offset="0.78" stop-color="#181601"/>
<stop offset="0.91" stop-color="#060600"/>
<stop offset="1"/>
</radialGradient>
</defs>
</svg>
